<svg fill="currentColor" height="24" viewBox="0 0 24 24" width="24" xmlns="http://www.w3.org/2000/svg"><path d="M11.9992 1.20312C6.04537 1.20312 1.19922 6.31851 1.19922 12.6031C1.19922 18.8877 6.04537 24.0031 11.9992 24.0031C17.9531 24.0031 22.7992 18.8877 22.7992 12.6031C22.7992 6.31851 17.9531 1.20312 11.9992 1.20312ZM21.2761 10.9954L12.9684 12.1647L18.3685 5.44159C19.8915 6.90312 20.8608 8.80313 21.2761 10.9954ZM17.3992 4.56466L11.8608 11.4339L6.46076 4.56466C7.98383 3.39543 9.9223 2.66466 11.9992 2.66466C13.9377 2.66466 15.8761 3.39543 17.3992 4.56466ZM11.9992 22.5416C6.87614 22.5416 2.58383 18.157 2.58383 12.6031C2.58383 9.8262 3.69153 7.34159 5.35307 5.58774L11.9992 13.9185L21.4146 12.457C21.4146 12.6031 21.4146 12.6031 21.4146 12.6031C21.4146 18.0108 17.1223 22.5416 11.9992 22.5416Z" fill="currentColor"></path></svg>