<svg width="449" height="438" viewBox="0 0 449 438" fill="none" xmlns="http://www.w3.org/2000/svg" class="mr-20px"><path d="M446.492 265.502L393.703 296.042L391.206 297.515L391.06 297.589H390.985C389.224 298.471 387.095 298.471 385.333 297.589H385.259L382.689 296.116L329.972 265.576C327.99 264.399 327.99 261.602 329.972 260.425L385.185 228.487C387.021 227.456 389.298 227.456 391.134 228.487L446.42 260.5C448.475 261.602 448.475 264.399 446.492 265.502Z" fill="black"></path><path d="M448 232.264V245.272C448 246.301 447.559 247.259 446.531 247.847L393.742 278.388L391.244 279.858L391.098 279.932H391.024C389.262 280.814 387.133 280.814 385.371 279.932H385.297L382.728 278.46L330.011 247.92C329.496 247.626 329.129 247.259 328.908 246.817C328.688 246.375 328.542 245.861 328.542 245.419V232.264H351.157L385.223 212.542C387.059 211.511 389.336 211.511 391.172 212.542L425.238 232.264H448Z" fill="#DCDCDC" stroke="black" stroke-width="0.654943" stroke-miterlimit="10" stroke-linecap="round"></path><path d="M446.492 234.701L393.703 265.241L391.206 266.713L391.06 266.788H390.985C389.224 267.67 387.095 267.67 385.333 266.788H385.259L382.689 265.315L329.972 234.775C327.99 233.598 327.99 230.801 329.972 229.624L385.185 197.686C387.021 196.655 389.298 196.655 391.134 197.686L446.42 229.696C448.475 230.801 448.475 233.598 446.492 234.701Z" fill="white" stroke="black" stroke-width="0.654943" stroke-miterlimit="10" stroke-linecap="round" stroke-linejoin="round"></path><path d="M417.202 233.432L409.271 237.995L389.743 249.327H389.668C388.786 249.769 387.76 249.769 386.878 249.327L367.274 237.995L359.418 233.432C358.464 232.844 358.464 231.445 359.418 230.855L386.804 215.034C387.686 214.518 388.861 214.518 389.743 215.034L417.202 230.929C418.157 231.518 418.157 232.844 417.202 233.432Z" fill="#DCDCDC" stroke="black" stroke-width="0.654943" stroke-miterlimit="10" stroke-linecap="round" stroke-linejoin="round"></path><path d="M409.286 238.001L389.755 249.333H389.683C388.801 249.775 387.773 249.775 386.893 249.333L367.288 238.001L386.819 226.668C387.701 226.152 388.875 226.152 389.755 226.668L409.286 238.001Z" fill="white" stroke="black" stroke-width="0.654943" stroke-miterlimit="10" stroke-linecap="round" stroke-linejoin="round"></path><path d="M405.277 215.491C403.281 222.417 399.938 227.287 395.917 230.015C394.548 230.917 393.057 231.598 391.529 232.082L390.639 232.287C384.51 233.664 377.32 231.028 370.738 224.027C357.004 209.767 350.406 182.931 355.851 164.029C358.561 154.62 363.703 148.973 369.904 147.34C371.602 146.904 373.48 146.799 375.286 146.951C380.227 147.454 385.428 150.257 390.391 155.493C404.065 169.643 410.747 196.504 405.277 215.491Z" fill="#FFD39F" stroke="black" stroke-width="0.655106" stroke-miterlimit="10" stroke-linecap="round" stroke-linejoin="round"></path><path d="M388.342 221.449C398.438 218.946 403.116 202.717 398.793 185.201C394.471 167.685 382.782 155.515 372.688 158.018C362.592 160.521 357.914 176.749 362.237 194.266C366.558 211.782 378.248 223.952 388.342 221.449Z" fill="white" stroke="black" stroke-width="0.655106" stroke-miterlimit="10" stroke-linecap="round" stroke-linejoin="round"></path><path fill-rule="evenodd" clip-rule="evenodd" d="M392.64 189.862C392.581 186.373 389.595 183.647 385.73 181.292L386.125 176.7L383.111 175.12L382.726 179.591C381.932 179.176 381.12 178.766 380.315 178.359L380.704 173.859L377.689 172.279L377.292 176.869C376.639 176.539 375.997 176.215 375.372 175.888V175.873L371.215 173.693L370.958 176.678C370.958 176.678 373.187 177.806 373.147 177.824C374.37 178.464 374.71 179.33 374.777 179.958L374.326 185.19C374.41 185.234 374.52 185.294 374.642 185.374L374.54 185.322C374.47 185.284 374.398 185.246 374.324 185.208L373.692 192.536C373.608 192.864 373.333 193.314 372.48 192.868C372.516 192.92 370.287 191.719 370.287 191.719L369.401 194.744L373.325 196.799C373.762 197.028 374.197 197.261 374.626 197.491C374.913 197.643 375.196 197.796 375.478 197.945L375.079 202.589L378.09 204.168L378.487 199.574C379.312 200.022 380.112 200.448 380.892 200.855L380.497 205.43L383.512 207.009L383.913 202.374C389.006 204.761 392.656 205.436 393.475 201.253C394.139 197.888 392.471 195.357 389.649 193.209C391.469 193.3 392.688 192.418 392.64 189.862ZM387.54 197.605C387.268 200.789 381.876 197.892 379.411 196.566C379.188 196.448 378.99 196.341 378.821 196.253L379.353 190.1C379.559 190.208 379.81 190.333 380.092 190.475C382.626 191.745 387.821 194.348 387.54 197.605ZM380.136 187.54C382.193 188.651 386.681 191.074 386.931 188.181C387.186 185.22 382.856 183.062 380.742 182.009C380.505 181.891 380.295 181.786 380.122 181.696L379.641 187.275C379.784 187.349 379.95 187.44 380.136 187.54Z" fill="#FFD39F"></path><path d="M385.73 181.292L385.093 180.959L385.046 181.495L385.622 181.847L385.73 181.292ZM386.125 176.7L386.762 177.032L386.814 176.447L386.179 176.114L386.125 176.7ZM383.11 175.12L383.162 174.534L382.523 174.199L382.473 174.788L383.11 175.12ZM382.725 179.591L382.671 180.178L383.313 180.513L383.363 179.922L382.725 179.591ZM380.314 178.359L379.677 178.027L379.625 178.624L380.274 178.951L380.314 178.359ZM380.703 173.859L381.34 174.191L381.391 173.606L380.755 173.273L380.703 173.859ZM377.688 172.28L377.743 171.694L377.103 171.358L377.051 171.947L377.688 172.28ZM377.292 176.869L377.253 177.462L377.881 177.778L377.931 177.202L377.292 176.869ZM375.371 175.888L374.732 175.571L374.7 176.15L375.319 176.474L375.371 175.888ZM375.371 175.873L376.011 176.19L376.045 175.612L375.425 175.288L375.371 175.873ZM371.214 173.693L371.266 173.107L370.627 172.771L370.577 173.361L371.214 173.693ZM370.958 176.678L370.32 176.346L370.268 176.943L370.918 177.271L370.958 176.678ZM373.147 177.824L372.708 177.185L371.669 177.664L373.094 178.41L373.147 177.824ZM374.776 179.959L375.413 180.29L375.417 180.236L375.411 180.176L374.776 179.959ZM374.325 185.19L373.688 184.856L373.638 185.439L374.269 185.772L374.325 185.19ZM374.642 185.375L374.59 185.961L374.782 184.84L374.642 185.375ZM374.54 185.322L374.594 184.736H374.592L374.54 185.322ZM374.54 185.322L374.485 185.907L374.487 185.909L374.54 185.322ZM374.323 185.208L374.371 184.619L373.736 184.292L373.686 184.876L374.323 185.208ZM373.692 192.537L374.317 192.946L374.325 192.908L374.329 192.868L373.692 192.537ZM372.479 192.868L372.531 192.281L370.858 191.408L372.016 193.085L372.479 192.868ZM370.286 191.719L370.35 191.138L369.799 190.843L369.667 191.297L370.286 191.719ZM369.4 194.744L368.779 194.321L368.599 194.937L369.348 195.329L369.4 194.744ZM375.478 197.945L376.115 198.276L376.165 197.696L375.534 197.36L375.478 197.945ZM375.079 202.589L374.439 202.258L374.389 202.843L375.025 203.176L375.079 202.589ZM378.089 204.168L378.037 204.753L378.677 205.089L378.727 204.5L378.089 204.168ZM378.486 199.574L378.552 198.993L377.899 198.64L377.849 199.241L378.486 199.574ZM380.891 200.856L381.531 201.189L381.581 200.603L380.946 200.271L380.891 200.856ZM380.497 205.43L379.859 205.097L379.809 205.683L380.444 206.015L380.497 205.43ZM383.511 207.009L383.459 207.596L384.098 207.929L384.151 207.341L383.511 207.009ZM383.912 202.374L383.928 201.77L383.323 201.487L383.275 202.041L383.912 202.374ZM389.649 193.21L389.404 192.535L387.813 192.456L389.448 193.7L389.649 193.21ZM378.821 196.253L378.184 195.922L378.133 196.506L378.769 196.84L378.821 196.253ZM379.352 190.1L379.406 189.515L378.767 189.18L378.715 189.768L379.352 190.1ZM380.122 181.696L380.174 181.11L379.534 180.774L379.484 181.363L380.122 181.696ZM379.641 187.275L379.003 186.944L378.953 187.528L379.589 187.862L379.641 187.275ZM385.622 181.847C387.52 183.004 389.117 184.201 390.236 185.479C391.318 186.713 391.974 188.045 392 189.587L393.278 190.138C393.246 188.191 392.38 186.413 390.989 184.824C389.632 183.277 387.805 181.935 385.838 180.738L385.622 181.847ZM385.487 176.368L385.093 180.959L386.367 181.624L386.762 177.032L385.487 176.368ZM383.058 175.706L386.073 177.286L386.179 176.114L383.162 174.534L383.058 175.706ZM383.363 179.922L383.748 175.452L382.473 174.788L382.088 179.259L383.363 179.922ZM380.274 178.951C381.082 179.358 381.888 179.766 382.671 180.178L382.778 179.005C381.978 178.586 381.16 178.173 380.354 177.766L380.274 178.951ZM380.066 173.527L379.677 178.027L380.952 178.691L381.34 174.191L380.066 173.527ZM377.636 172.866L380.651 174.445L380.755 173.273L377.743 171.694L377.636 172.866ZM377.931 177.202L378.328 172.612L377.051 171.947L376.654 176.537L377.931 177.202ZM375.319 176.474C375.951 176.805 376.6 177.133 377.253 177.462L377.332 176.277C376.678 175.947 376.043 175.625 375.424 175.302L375.319 176.474ZM374.734 175.556L374.732 175.571L376.011 176.205V176.19L374.734 175.556ZM371.16 174.279L375.319 176.459L375.425 175.288L371.266 173.107L371.16 174.279ZM371.595 177.01L371.852 174.025L370.577 173.361L370.32 176.346L371.595 177.01ZM373.588 178.464C373.656 178.433 373.758 178.357 373.782 178.184C373.808 178.003 373.734 177.818 373.668 177.699C373.561 177.51 373.423 177.392 373.411 177.382C373.341 177.321 373.279 177.28 373.267 177.273C373.225 177.245 373.179 177.219 373.149 177.201C373.078 177.16 372.984 177.109 372.88 177.054C372.672 176.943 372.391 176.798 372.114 176.655C371.836 176.512 371.557 176.37 371.347 176.263C371.242 176.21 371.156 176.166 371.094 176.135C371.064 176.119 371.04 176.107 371.024 176.099C371.016 176.095 371.008 176.092 371.004 176.089C371.002 176.088 371 176.087 371 176.087C371 176.087 370.998 176.086 370.998 176.086C370.998 176.086 370.998 176.086 370.958 176.678C370.918 177.271 370.918 177.271 370.918 177.271C370.918 177.271 370.918 177.271 370.918 177.271C370.92 177.271 370.922 177.273 370.924 177.274C370.928 177.276 370.934 177.279 370.942 177.283C370.958 177.291 370.982 177.303 371.012 177.319C371.072 177.35 371.158 177.393 371.262 177.446C371.471 177.552 371.745 177.693 372.02 177.834C372.297 177.975 372.567 178.116 372.764 178.221C372.864 178.274 372.936 178.314 372.98 178.339C373.006 178.354 373.006 178.354 372.99 178.344C372.984 178.34 372.974 178.333 372.96 178.322C372.948 178.314 372.916 178.291 372.878 178.257C372.87 178.249 372.732 178.134 372.627 177.947C372.559 177.828 372.487 177.644 372.513 177.464C372.537 177.291 372.639 177.216 372.708 177.185L373.588 178.464ZM375.411 180.176C375.369 179.782 375.237 179.257 374.872 178.703C374.497 178.132 373.942 177.628 373.201 177.238L373.094 178.41C373.573 178.661 373.798 178.91 373.916 179.089C374.045 179.286 374.115 179.507 374.141 179.74L375.411 180.176ZM374.963 185.521L375.413 180.29L374.139 179.625L373.688 184.856L374.963 185.521ZM374.782 184.84C374.622 184.734 374.481 184.657 374.381 184.605L374.269 185.772C374.339 185.811 374.417 185.855 374.504 185.911L374.782 184.84ZM374.487 185.907L374.59 185.961L374.696 184.79L374.594 184.736L374.487 185.907ZM374.277 185.799C374.347 185.835 374.415 185.871 374.485 185.907L374.594 184.736C374.524 184.7 374.449 184.66 374.371 184.619L374.277 185.799ZM374.329 192.868L374.96 185.541L373.686 184.876L373.054 192.205L374.329 192.868ZM372.427 193.455C373.028 193.77 373.501 193.796 373.83 193.625C374.133 193.465 374.261 193.161 374.317 192.946L373.066 192.127C373.038 192.239 372.986 192.326 372.918 192.362C372.888 192.376 372.852 192.384 372.802 192.38C372.752 192.374 372.665 192.352 372.531 192.281L372.427 193.455ZM370.286 191.719C370.224 192.3 370.224 192.3 370.224 192.3C370.224 192.302 370.226 192.302 370.226 192.302C370.226 192.302 370.228 192.304 370.23 192.304C370.234 192.306 370.242 192.31 370.25 192.314C370.266 192.324 370.29 192.336 370.32 192.352C370.383 192.386 370.469 192.432 370.573 192.488C370.781 192.601 371.06 192.75 371.339 192.896C371.615 193.045 371.894 193.192 372.104 193.3C372.206 193.352 372.299 193.4 372.369 193.433C372.399 193.449 372.441 193.469 372.481 193.485C372.489 193.489 372.547 193.513 372.611 193.527C372.631 193.533 372.665 193.539 372.706 193.543C372.738 193.545 372.818 193.549 372.902 193.517C372.99 193.483 373.124 193.38 373.118 193.141C373.114 192.922 372.996 192.729 372.942 192.653L372.016 193.085C371.962 193.009 371.846 192.816 371.84 192.599C371.834 192.358 371.968 192.257 372.056 192.223C372.138 192.191 372.219 192.195 372.251 192.197C372.289 192.201 372.323 192.207 372.341 192.211C372.377 192.221 372.405 192.231 372.413 192.233C372.427 192.239 372.435 192.243 372.439 192.243C372.451 192.249 372.449 192.247 372.421 192.235C372.375 192.213 372.301 192.175 372.198 192.123C372 192.02 371.729 191.878 371.455 191.731C371.18 191.584 370.904 191.436 370.695 191.325C370.591 191.269 370.505 191.223 370.445 191.191C370.415 191.175 370.391 191.16 370.375 191.152C370.366 191.148 370.36 191.144 370.356 191.142C370.354 191.14 370.352 191.138 370.35 191.138C370.35 191.138 370.35 191.138 370.286 191.719ZM370.022 195.166L370.908 192.143L369.667 191.297L368.779 194.321L370.022 195.166ZM373.377 196.213L369.452 194.158L369.348 195.329L373.271 197.386L373.377 196.213ZM374.686 196.91C374.257 196.681 373.82 196.446 373.377 196.213L373.271 197.386C373.706 197.615 374.137 197.844 374.566 198.073L374.686 196.91ZM374.686 196.91L374.566 198.073H374.568L374.686 196.91ZM375.534 197.36C375.253 197.211 374.973 197.061 374.686 196.91L374.568 198.073C374.852 198.226 375.137 198.379 375.42 198.529L375.534 197.36ZM375.716 202.921L376.115 198.276L374.838 197.613L374.439 202.258L375.716 202.921ZM378.143 203.582L375.131 202.003L375.025 203.176L378.037 204.753L378.143 203.582ZM377.849 199.241L377.452 203.835L378.727 204.5L379.124 199.905L377.849 199.241ZM380.946 200.271C380.168 199.863 379.372 199.441 378.552 198.993L378.42 200.153C379.25 200.605 380.056 201.033 380.839 201.442L380.946 200.271ZM381.134 205.762L381.531 201.189L380.254 200.524L379.859 205.097L381.134 205.762ZM383.565 206.423L380.549 204.843L380.444 206.015L383.459 207.596L383.565 206.423ZM383.275 202.041L382.874 206.678L384.151 207.341L384.549 202.706L383.275 202.041ZM392.846 200.87C392.467 202.804 391.46 203.554 390.009 203.602C388.504 203.654 386.452 202.953 383.928 201.77L383.896 202.979C386.466 204.183 388.785 205.012 390.583 204.952C392.435 204.89 393.665 203.885 394.106 201.639L392.846 200.87ZM389.448 193.7C390.781 194.714 391.753 195.753 392.332 196.868C392.906 197.973 393.158 199.279 392.846 200.87L394.106 201.639C394.455 199.863 394.206 198.22 393.407 196.681C392.611 195.152 391.34 193.85 389.849 192.717L389.448 193.7ZM392 189.587C392.022 190.767 391.751 191.51 391.31 191.954C390.869 192.398 390.222 192.577 389.404 192.535L389.893 193.883C390.895 193.933 391.767 193.716 392.378 193.103C392.988 192.488 393.305 191.514 393.278 190.138L392 189.587ZM379.348 197.149C380.567 197.804 382.613 198.907 384.399 199.427C385.293 199.687 386.185 199.819 386.882 199.632C387.606 199.439 388.093 198.909 388.177 197.937L386.903 197.274C386.848 197.893 386.56 198.194 386.119 198.312C385.654 198.437 384.99 198.361 384.197 198.128C382.601 197.663 380.719 196.657 379.472 195.986L379.348 197.149ZM378.769 196.84C378.933 196.924 379.126 197.029 379.348 197.149L379.472 195.986C379.252 195.867 379.047 195.759 378.873 195.667L378.769 196.84ZM378.715 189.768L378.184 195.922L379.458 196.585L379.989 190.433L378.715 189.768ZM380.13 189.883C379.843 189.738 379.603 189.618 379.406 189.515L379.3 190.686C379.514 190.799 379.773 190.929 380.054 191.07L380.13 189.883ZM388.177 197.937C388.261 196.958 387.929 195.992 387.321 195.09C386.732 194.218 385.918 193.457 385.077 192.808C383.401 191.518 381.378 190.508 380.13 189.883L380.054 191.07C381.338 191.713 383.18 192.641 384.666 193.782C385.403 194.353 385.995 194.929 386.379 195.502C386.746 196.044 386.959 196.623 386.903 197.274L388.177 197.937ZM386.293 187.848C386.243 188.414 386.001 188.687 385.65 188.804C385.277 188.929 384.746 188.886 384.096 188.71C382.79 188.356 381.244 187.524 380.2 186.962L380.074 188.121C381.086 188.667 382.812 189.604 384.325 190.015C385.087 190.222 385.852 190.313 386.456 190.112C387.081 189.903 387.492 189.395 387.568 188.513L386.293 187.848ZM380.705 182.604C381.781 183.139 383.295 183.898 384.505 184.858C385.107 185.333 385.576 185.815 385.88 186.293C386.169 186.749 386.343 187.253 386.293 187.848L387.568 188.513C387.644 187.625 387.374 186.753 386.856 185.937C386.355 185.148 385.658 184.469 384.942 183.902C383.523 182.779 381.815 181.931 380.777 181.415L380.705 182.604ZM380.07 182.281C380.252 182.377 380.471 182.486 380.705 182.604L380.777 181.415C380.537 181.294 380.336 181.194 380.174 181.11L380.07 182.281ZM380.278 187.609L380.759 182.028L379.484 181.363L379.003 186.944L380.278 187.609ZM380.2 186.962C380.014 186.861 379.841 186.767 379.693 186.691L379.589 187.862C379.723 187.932 379.885 188.02 380.074 188.121L380.2 186.962Z" fill="black"></path><path d="M415.355 212.945C412.695 222.182 407.64 227.856 401.609 229.537L400.801 229.768L391.535 232.091C393.036 231.691 394.528 231.01 395.921 230.023C400.028 227.319 403.313 222.341 405.283 215.499C410.729 196.596 404.07 169.65 390.481 155.525C385.494 150.375 380.293 147.572 375.376 146.984C373.486 146.807 371.692 146.936 369.996 147.372L379.958 144.881L380.262 144.784C386.526 143.261 393.826 145.837 400.579 152.887C414.142 167.098 420.827 193.959 415.355 212.945Z" fill="black"></path><path d="M390.481 155.525C385.494 150.375 380.293 147.572 375.376 146.984C373.55 146.813 371.814 146.928 370.166 147.329L369.996 147.372C370.052 147.357 370.11 147.343 370.166 147.329L379.958 144.881L380.262 144.784C386.526 143.261 393.826 145.837 400.579 152.887L390.481 155.525Z" fill="white"></path><path d="M390.482 155.514C404.072 169.639 410.73 196.585 405.284 215.487L415.356 212.935C420.826 193.947 414.144 167.087 400.58 152.876L390.482 155.514Z" fill="#FF9900"></path><path d="M415.355 212.945C412.695 222.182 407.64 227.856 401.609 229.537L400.801 229.768L391.535 232.091C393.036 231.691 394.528 231.01 395.921 230.023C400.028 227.319 403.313 222.341 405.283 215.499C410.729 196.596 404.07 169.65 390.481 155.525C385.494 150.375 380.293 147.572 375.376 146.984C373.486 146.807 371.692 146.936 369.996 147.372L379.958 144.881L380.262 144.784C386.526 143.261 393.826 145.837 400.579 152.887C414.142 167.098 420.827 193.959 415.355 212.945Z" stroke="black" stroke-width="0.655106" stroke-miterlimit="10" stroke-linecap="round" stroke-linejoin="round"></path><path d="M390.39 145.676L380.316 148.228M397.454 150.037L387.382 152.589M402.32 154.967L392.186 157.408M406.125 160.052L396.053 162.604M409.207 165.393L399.135 167.944M411.707 170.841L401.633 173.393M413.789 176.448L403.631 178.975M415.287 182.162L405.213 184.714M416.393 187.95L406.319 190.501M417.117 194.738L406.985 197.181M417.171 201.611L407.013 204.138M416.309 208.775L406.177 211.216M414.19 216.13L404.118 218.681M411.651 221.417L401.517 223.86" stroke="black" stroke-width="0.655106" stroke-miterlimit="10" stroke-linecap="round" stroke-linejoin="round"></path><path d="M119.012 274.492L66.2081 305.04L63.7111 306.513L63.5641 306.585H63.4908C61.7281 307.469 59.5985 307.469 57.8359 306.585H57.7625L55.1921 305.114L2.46177 274.566C0.478889 273.389 0.478889 270.59 2.46177 269.413L57.6889 237.467C59.5249 236.436 61.8017 236.436 63.6377 237.467L118.938 269.488C120.995 270.59 120.995 273.389 119.012 274.492Z" fill="black"></path><path d="M120.462 241.259V254.269C120.462 255.3 120.021 256.256 118.993 256.845L66.1897 287.393L63.6926 288.865L63.5459 288.938H63.4723C61.7099 289.822 59.5801 289.822 57.8174 288.938H57.744L55.1736 287.467L2.44341 256.919C1.92933 256.624 1.56213 256.256 1.34181 255.814C1.12149 255.372 0.974609 254.858 0.974609 254.416V241.259H23.5942L57.6707 221.531C59.5067 220.501 61.7833 220.501 63.6193 221.531L97.6956 241.259H120.462Z" fill="#DCDCDC" stroke="black" stroke-width="0.655106" stroke-miterlimit="10" stroke-linecap="round"></path><path d="M119.012 243.68L66.2081 274.229L63.7111 275.701L63.5641 275.775H63.4908C61.7281 276.657 59.5985 276.657 57.8359 275.775H57.7625L55.1921 274.303L2.46177 243.755C0.478889 242.577 0.478889 239.781 2.46177 238.602L57.6889 206.655C59.5249 205.625 61.8017 205.625 63.6377 206.655L118.938 238.676C120.995 239.781 120.995 242.577 119.012 243.68Z" fill="white" stroke="black" stroke-width="0.655106" stroke-miterlimit="10" stroke-linecap="round" stroke-linejoin="round"></path><path d="M89.7153 242.417L81.7836 246.982L62.2486 258.316H62.175C61.2937 258.758 60.2657 258.758 59.3844 258.316L39.7758 246.982L31.9177 242.417C30.963 241.829 30.963 240.43 31.9177 239.842L59.311 224.015C60.1921 223.501 61.3673 223.501 62.2486 224.015L89.7153 239.914C90.67 240.503 90.67 241.829 89.7153 242.417Z" fill="#DCDCDC" stroke="black" stroke-width="0.655106" stroke-miterlimit="10" stroke-linecap="round" stroke-linejoin="round"></path><path d="M81.739 247L62.2038 258.336H62.1304C61.2491 258.776 60.2208 258.776 59.3395 258.336L39.731 247L59.2662 235.663C60.1475 235.149 61.3224 235.149 62.2038 235.663L81.739 247Z" fill="white" stroke="black" stroke-width="0.655106" stroke-miterlimit="10" stroke-linecap="round" stroke-linejoin="round"></path><mask id="mask0_1_38674" maskUnits="userSpaceOnUse" x="8" y="145" width="93" height="104" style="mask-type: luminance;"><path d="M100.898 165.885L31.9724 145.909L8.11934 228.586L77.0447 248.563L100.898 165.885Z" fill="white"></path></mask><g mask="url(#mask0_1_38674)"><path d="M74.1603 224.269C72.1621 231.195 68.8168 236.061 64.7951 238.787C63.4261 239.687 61.9358 240.368 60.4097 240.852L59.5186 241.057C53.391 242.432 46.2029 239.792 39.6264 232.791C25.9009 218.527 19.3143 191.697 24.7658 172.801C27.4791 163.396 32.6201 157.752 38.8216 156.122C40.5183 155.687 42.3972 155.583 44.202 155.736C49.1403 156.24 54.3397 159.045 59.2995 164.28C72.9645 178.432 79.6362 205.288 74.1603 224.269Z" fill="#D7EEFF" stroke="black" stroke-width="0.654943" stroke-miterlimit="10" stroke-linecap="round" stroke-linejoin="round"></path><path d="M57.2324 230.206C67.3258 227.707 72.01 211.485 67.6948 193.973C63.3794 176.46 51.6989 164.288 41.6055 166.787C31.5121 169.285 26.8279 185.507 31.1431 203.021C35.4585 220.533 47.139 232.706 57.2324 230.206Z" fill="white" stroke="black" stroke-width="0.654943" stroke-miterlimit="10" stroke-linecap="round" stroke-linejoin="round"></path><path d="M40.8379 190.885L48.1318 202.451L54.3726 180.818L40.8379 190.885Z" fill="white" stroke="black" stroke-width="0.654943" stroke-miterlimit="10" stroke-linecap="round" stroke-linejoin="round"></path><path d="M54.3499 180.831L48.1091 202.461L57.1184 207.761L54.3499 180.831Z" fill="#9EBBD1" stroke="black" stroke-width="0.654943" stroke-miterlimit="10" stroke-linecap="round" stroke-linejoin="round"></path><path d="M46.6228 207.502L43.9834 216.651L55.632 212.802L46.6228 207.502Z" fill="#9EBBD1" stroke="black" stroke-width="0.654943" stroke-miterlimit="10" stroke-linecap="round" stroke-linejoin="round"></path><path d="M39.3538 195.857L43.9837 216.656L46.623 207.507L39.3538 195.857Z" fill="white" stroke="black" stroke-width="0.654943" stroke-miterlimit="10" stroke-linecap="round" stroke-linejoin="round"></path><path d="M84.177 221.725C81.5128 230.958 76.4573 236.627 70.4264 238.307L69.6206 238.536L60.3552 240.854C61.8569 240.456 63.3471 239.775 64.7408 238.789C68.8477 236.089 72.1325 231.111 74.1058 224.272C79.5573 205.376 72.91 178.435 59.3306 164.308C54.3459 159.157 49.1466 156.353 44.2329 155.763C42.3428 155.586 40.5494 155.714 38.8525 156.149L48.8137 153.662L49.1189 153.566C55.381 152.045 62.6791 154.624 69.4262 161.675C82.9812 175.887 89.6529 202.744 84.177 221.725Z" fill="black"></path><path d="M59.3306 164.308C54.3459 159.157 49.1466 156.353 44.2329 155.763C42.4065 155.591 40.6701 155.706 39.0241 156.106L38.8525 156.149C38.9097 156.134 38.9668 156.12 39.0241 156.106L48.8137 153.662L49.1189 153.566C55.381 152.045 62.6791 154.624 69.4262 161.675L59.3306 164.308Z" fill="white"></path><path d="M59.3926 164.292C72.9722 178.419 79.6195 205.36 74.168 224.257L84.239 221.709C89.7151 202.729 83.0431 175.872 69.4882 161.659L59.3926 164.292Z" fill="#9EBBD1"></path><path d="M84.177 221.725C81.5128 230.958 76.4573 236.627 70.4264 238.307L69.6206 238.536L60.3552 240.854C61.8569 240.456 63.3471 239.775 64.7408 238.789C68.8477 236.089 72.1325 231.111 74.1058 224.272C79.5573 205.376 72.91 178.435 59.3306 164.308C54.3459 159.157 49.1466 156.353 44.2329 155.763C42.3428 155.586 40.5494 155.714 38.8525 156.149L48.8137 153.662L49.1189 153.566C55.381 152.045 62.6791 154.624 69.4262 161.675C82.9812 175.887 89.6529 202.744 84.177 221.725Z" stroke="black" stroke-width="0.654943" stroke-miterlimit="10" stroke-linecap="round" stroke-linejoin="round"></path><path d="M59.359 154.488L49.2881 157.036M66.4198 158.851L56.3487 161.398M71.283 163.781L61.1514 166.218M75.0847 168.867L65.0136 171.414M78.1658 174.207L68.0947 176.754M80.6611 179.655L70.5901 182.203M82.7412 185.26L72.5849 187.784M84.2355 190.974L74.1645 193.521M85.3393 196.762L75.2683 199.309M86.0617 203.548L75.9302 205.985M86.113 210.419L75.9566 212.942M85.2487 217.581L75.117 220.017M83.1273 224.933L73.0563 227.481M80.5855 230.219L70.4538 232.656" stroke="black" stroke-width="0.654943" stroke-miterlimit="10" stroke-linecap="round" stroke-linejoin="round"></path></g><path d="M343.226 306.393L242.775 248.264C236.946 244.891 227.496 244.891 221.667 248.264L101.4 317.859C95.5716 321.232 95.5716 326.701 101.4 330.074L201.852 388.202C207.681 391.575 217.131 391.575 222.959 388.202L343.226 318.607C349.055 315.234 349.055 309.766 343.226 306.393Z" fill="black"></path><path d="M113.545 310.29C113.82 308.886 115.049 307.872 116.477 307.872C116.477 307.872 116.734 307.872 116.99 307.872C117.246 307.872 117.502 307.872 117.502 307.872C119.152 307.872 120.49 309.214 120.49 310.867V314.752C120.49 316.408 119.152 317.748 117.502 317.748C117.502 317.748 117.056 317.748 116.61 317.748C116.164 317.748 115.718 317.748 115.718 317.748C113.837 317.748 112.424 316.028 112.786 314.178L113.545 310.29Z" fill="black"></path><path d="M111.613 311.003L111.198 313.126C111.092 313.671 111.508 314.177 112.062 314.177C112.482 314.177 112.844 313.878 112.925 313.464L113.34 311.342C113.446 310.798 113.03 310.29 112.476 310.29C112.056 310.29 111.694 310.589 111.613 311.003Z" fill="black"></path><path d="M110.94 314.898C111.013 316.451 112.293 317.747 113.925 317.747H115.718C114.208 317.747 112.999 316.638 112.769 315.242C112.678 314.695 112.271 314.177 111.717 314.177C111.297 314.177 110.92 314.478 110.94 314.898Z" fill="black"></path><path d="M112.139 309.298C112.67 308.432 113.622 307.872 114.685 307.872H116.477C115.295 307.872 114.249 308.567 113.768 309.603C113.591 309.985 113.242 310.29 112.821 310.29C112.267 310.29 111.849 309.772 112.139 309.298Z" fill="black"></path><path d="M115.709 317.747C117.052 317.747 118.188 316.859 118.564 315.637C118.711 315.163 119.098 314.751 119.593 314.751C120.089 314.751 120.503 315.163 120.357 315.637C119.981 316.859 118.845 317.747 117.502 317.747H115.709Z" fill="black"></path><path d="M118.564 309.981C118.188 308.76 117.052 307.872 115.709 307.872H117.502C118.845 307.872 119.981 308.76 120.357 309.981C120.503 310.455 120.089 310.867 119.593 310.867C119.098 310.867 118.711 310.455 118.564 309.981Z" fill="black"></path><path d="M118.697 313.853V311.764C118.697 311.268 119.098 310.866 119.593 310.866C120.088 310.866 120.49 311.268 120.49 311.764V313.853C120.49 314.349 120.088 314.751 119.593 314.751C119.098 314.751 118.697 314.349 118.697 313.853Z" fill="black"></path><path d="M116.99 307.872C116.734 307.872 116.477 307.872 116.477 307.872M116.99 307.872C117.246 307.872 117.502 307.872 117.502 307.872M116.99 307.872H116.477M116.99 307.872H115.71M116.99 307.872H117.502M116.477 307.872C115.049 307.872 113.82 308.886 113.545 310.29L112.786 314.178C112.424 316.028 113.837 317.748 115.718 317.748M116.477 307.872C115.295 307.872 114.249 308.567 113.768 309.603C113.591 309.985 113.242 310.29 112.821 310.29C112.267 310.29 111.849 309.772 112.139 309.298C112.67 308.432 113.622 307.872 114.685 307.872M116.477 307.872H114.685M116.477 307.872H115.197M117.502 307.872C119.152 307.872 120.49 309.214 120.49 310.867V314.752C120.49 316.408 119.152 317.748 117.502 317.748M117.502 307.872C118.845 307.872 119.981 308.76 120.357 309.981C120.504 310.455 120.089 310.867 119.594 310.867M117.502 307.872H115.71M115.71 307.872H115.197M115.71 307.872C117.052 307.872 118.188 308.76 118.565 309.981C118.711 310.455 119.099 310.867 119.594 310.867M116.61 317.748C117.056 317.748 117.502 317.748 117.502 317.748M116.61 317.748C116.164 317.748 115.718 317.748 115.718 317.748M116.61 317.748H115.718M116.61 317.748H115.71M116.61 317.748H117.502M117.502 317.748H115.71M117.502 317.748C118.845 317.748 119.981 316.86 120.357 315.638C120.504 315.164 120.089 314.752 119.594 314.752M115.718 317.748C114.208 317.748 112.999 316.639 112.769 315.242C112.678 314.696 112.271 314.178 111.717 314.178C111.297 314.178 110.92 314.479 110.94 314.899C111.013 316.452 112.293 317.748 113.925 317.748M115.718 317.748H113.925M115.718 317.748H114.817M115.71 317.748H114.817M115.71 317.748C117.052 317.748 118.188 316.86 118.565 315.638C118.711 315.164 119.099 314.752 119.594 314.752M114.685 307.872H115.197M119.594 310.867C120.089 310.867 120.49 311.269 120.49 311.765V313.854C120.49 314.35 120.089 314.752 119.594 314.752M119.594 310.867C119.099 310.867 118.697 311.269 118.697 311.765V313.854C118.697 314.35 119.099 314.752 119.594 314.752M113.925 317.748H114.817M111.198 313.127L111.613 311.004C111.694 310.59 112.056 310.29 112.476 310.29C113.03 310.29 113.446 310.799 113.34 311.343L112.925 313.465C112.844 313.878 112.482 314.178 112.062 314.178C111.508 314.178 111.092 313.671 111.198 313.127Z" stroke="black" stroke-width="0.680945" stroke-linejoin="round"></path><path d="M206.828 362.99C207.103 361.586 208.331 360.571 209.759 360.571C209.759 360.571 210.015 360.571 210.272 360.571C210.528 360.571 210.785 360.571 210.785 360.571C212.434 360.571 213.771 361.913 213.771 363.567V367.452C213.771 369.105 212.434 370.447 210.785 370.447C210.785 370.447 210.338 370.447 209.893 370.447C209.446 370.447 209.001 370.447 209.001 370.447C207.119 370.447 205.706 368.726 206.069 366.877L206.828 362.99Z" fill="black"></path><path d="M204.896 363.703L204.481 365.825C204.375 366.371 204.789 366.878 205.343 366.878C205.764 366.878 206.126 366.578 206.207 366.164L206.621 364.043C206.728 363.496 206.313 362.99 205.758 362.99C205.339 362.99 204.976 363.29 204.896 363.703Z" fill="black"></path><path d="M204.222 367.599C204.294 369.152 205.575 370.447 207.207 370.447H209.001C207.489 370.447 206.281 369.338 206.05 367.942C205.96 367.396 205.553 366.877 205 366.877C204.579 366.877 204.202 367.179 204.222 367.599Z" fill="black"></path><path d="M205.421 361.998C205.953 361.132 206.905 360.571 207.967 360.571H209.759C208.578 360.571 207.532 361.266 207.051 362.303C206.873 362.685 206.524 362.99 206.103 362.99C205.55 362.99 205.131 362.472 205.421 361.998Z" fill="black"></path><path d="M208.991 370.448C210.334 370.448 211.47 369.56 211.847 368.338C211.993 367.864 212.38 367.452 212.875 367.452C213.37 367.452 213.785 367.864 213.639 368.338C213.262 369.56 212.128 370.448 210.785 370.448H208.991Z" fill="black"></path><path d="M211.847 362.681C211.47 361.459 210.334 360.571 208.991 360.571H210.785C212.128 360.571 213.262 361.459 213.639 362.681C213.785 363.155 213.37 363.567 212.875 363.567C212.38 363.567 211.993 363.155 211.847 362.681Z" fill="black"></path><path d="M211.98 366.554V364.465C211.98 363.969 212.381 363.567 212.876 363.567C213.371 363.567 213.772 363.969 213.772 364.465V366.554C213.772 367.05 213.371 367.452 212.876 367.452C212.381 367.452 211.98 367.05 211.98 366.554Z" fill="black"></path><path d="M210.271 360.571C210.015 360.571 209.758 360.571 209.758 360.571M210.271 360.571C210.528 360.571 210.785 360.571 210.785 360.571M210.271 360.571H209.758M210.271 360.571H208.991M210.271 360.571H210.785M209.758 360.571C208.331 360.571 207.102 361.586 206.828 362.99L206.068 366.877C205.705 368.726 207.119 370.447 209.001 370.447M209.758 360.571C208.578 360.571 207.531 361.266 207.05 362.303C206.872 362.685 206.523 362.99 206.102 362.99C205.549 362.99 205.13 362.472 205.421 361.998C205.952 361.132 206.904 360.571 207.966 360.571M209.758 360.571H207.966M209.758 360.571H208.479M210.785 360.571C212.434 360.571 213.771 361.913 213.771 363.567V367.452C213.771 369.105 212.434 370.447 210.785 370.447M210.785 360.571C212.127 360.571 213.262 361.459 213.639 362.681C213.785 363.155 213.37 363.567 212.875 363.567M210.785 360.571H208.991M208.991 360.571H208.479M208.991 360.571C210.334 360.571 211.47 361.459 211.847 362.681C211.993 363.155 212.38 363.567 212.875 363.567M209.893 370.447C210.338 370.447 210.785 370.447 210.785 370.447M209.893 370.447C209.446 370.447 209.001 370.447 209.001 370.447M209.893 370.447H209.001M209.893 370.447H208.991M209.893 370.447H210.785M210.785 370.447H208.991M210.785 370.447C212.127 370.447 213.262 369.559 213.639 368.338C213.785 367.864 213.37 367.452 212.875 367.452M209.001 370.447C207.489 370.447 206.281 369.338 206.05 367.942C205.96 367.396 205.553 366.877 205 366.877C204.579 366.877 204.202 367.179 204.222 367.599C204.294 369.152 205.575 370.447 207.207 370.447M209.001 370.447H207.207M209.001 370.447H208.099M208.991 370.447H208.099M208.991 370.447C210.334 370.447 211.47 369.559 211.847 368.338C211.993 367.864 212.38 367.452 212.875 367.452M207.966 360.571H208.479M212.875 363.567C213.37 363.567 213.771 363.968 213.771 364.465V366.554C213.771 367.05 213.37 367.452 212.875 367.452M212.875 363.567C212.38 363.567 211.979 363.968 211.979 364.465V366.554C211.979 367.05 212.38 367.452 212.875 367.452M207.207 370.447H208.099M204.481 365.825L204.896 363.703C204.976 363.289 205.339 362.99 205.758 362.99C206.313 362.99 206.728 363.496 206.621 364.043L206.207 366.164C206.126 366.578 205.764 366.877 205.343 366.877C204.789 366.877 204.375 366.371 204.481 365.825Z" stroke="black" stroke-width="0.680945" stroke-linejoin="round"></path><path d="M111.752 310.29C112.027 308.886 113.255 307.872 114.684 307.872H115.709C117.359 307.872 118.697 309.214 118.697 310.867V314.752C118.697 316.408 117.359 317.748 115.709 317.748H113.925C112.044 317.748 110.631 316.028 110.993 314.178L111.752 310.29Z" fill="white" stroke="black" stroke-width="0.680945"></path><path d="M205.035 362.99C205.309 361.586 206.538 360.571 207.967 360.571H208.991C210.643 360.571 211.98 361.913 211.98 363.567V367.452C211.98 369.105 210.643 370.447 208.991 370.447H207.207C205.327 370.447 203.914 368.726 204.275 366.877L205.035 362.99Z" fill="white" stroke="black" stroke-width="0.680945"></path><path d="M105.336 147.454L225.278 216.861V373.477L110.511 307.065C107.653 305.41 105.336 301.388 105.336 298.081V147.454Z" fill="white" stroke="black" stroke-width="0.680945"></path><path d="M110.745 162.39C110.745 159.082 113.062 157.741 115.92 159.395L215.497 217.016C218.355 218.671 220.672 222.693 220.672 226V359.521C220.672 362.828 218.355 364.17 215.497 362.515L115.92 304.894C113.062 303.24 110.745 299.216 110.745 295.91V162.39Z" fill="white" stroke="black" stroke-width="0.680945"></path><path d="M225.28 217.096L345.222 147.688V298.314C345.222 301.623 342.905 305.645 340.046 307.298L225.28 373.71V217.096Z" fill="#DCDCDC" stroke="black" stroke-width="0.680945"></path><path d="M343.937 144.878L229.414 78.607C227.471 77.4827 224.321 77.4827 222.378 78.607L106.926 145.416C104.983 146.54 104.983 148.363 106.926 149.487L221.45 215.758C223.393 216.883 226.543 216.883 228.485 215.758L343.937 148.95C345.88 147.826 345.88 146.003 343.937 144.878Z" fill="#D0F500" stroke="black" stroke-width="0.680944" stroke-miterlimit="10" stroke-linecap="round" stroke-linejoin="round"></path><path d="M171.913 272.435C171.913 278.054 169.963 282.084 166.917 284.039L166.429 284.405C163.139 286.114 158.752 285.749 153.877 282.94C143.885 277.198 135.72 263.029 135.72 251.548C135.72 245.931 137.548 242.022 140.716 239.946L141.325 239.579C144.494 237.869 148.881 238.235 153.755 240.923H153.877C163.748 246.785 171.913 260.831 171.913 272.435Z" fill="white" stroke="black" stroke-width="0.680945" stroke-miterlimit="10" stroke-linecap="round" stroke-linejoin="round"></path><path d="M185.623 264.174V264.297C185.623 269.914 183.673 273.946 180.626 275.901L180.017 276.266L166.49 284.083C169.537 282.128 171.487 278.221 171.487 272.602V272.479C171.487 260.876 163.322 246.829 153.329 241.09H153.207C148.455 238.281 144.068 238.036 140.777 239.746L154.182 232.051L154.792 231.684C158.082 229.974 162.469 230.342 167.222 233.15C167.343 233.15 167.465 233.273 167.465 233.395C177.702 238.892 185.623 252.816 185.623 264.174Z" fill="#DCDCDC" stroke="black" stroke-width="0.680945" stroke-miterlimit="10" stroke-linecap="round" stroke-linejoin="round"></path><path d="M153.654 273.537L133.181 271.583L129.769 261.934L145.246 262.91L150.364 263.278L151.095 265.475L153.654 273.537Z" fill="white" stroke="black" stroke-width="0.680945" stroke-miterlimit="10" stroke-linecap="round" stroke-linejoin="round"></path><path d="M166.45 266.93L153.654 273.527L151.095 265.465L150.364 263.266L145.246 262.9L129.769 261.924L142.565 255.328L163.159 256.548L166.45 266.93Z" fill="#D0F500" stroke="black" stroke-width="0.680945" stroke-miterlimit="10" stroke-linecap="round" stroke-linejoin="round"></path><path d="M150.121 263.133L162.917 256.417" stroke="black" stroke-width="0.680945" stroke-miterlimit="10" stroke-linecap="round" stroke-linejoin="round"></path><path d="M183.064 226.851L144.677 204.622C143.945 204.134 143.458 203.278 143.458 202.423V190.21C143.458 188.866 144.92 188.133 146.017 188.744L184.404 210.973C185.135 211.461 185.623 212.317 185.623 213.172V225.387C185.623 226.608 184.16 227.462 183.064 226.851Z" fill="white" stroke="black" stroke-width="0.680945" stroke-miterlimit="10" stroke-linecap="round" stroke-linejoin="round"></path><path d="M161.726 205.762L177.933 215.166" stroke="black" stroke-width="0.680945" stroke-miterlimit="10" stroke-linecap="round" stroke-linejoin="round"></path><path d="M151.552 199.796L157.036 202.973" stroke="black" stroke-width="0.680945" stroke-miterlimit="10" stroke-linecap="round" stroke-linejoin="round"></path><path d="M142.536 314.956C140.708 313.857 139.246 311.414 139.246 309.337V297.123C139.246 295.047 140.708 294.192 142.536 295.292C144.364 296.391 145.826 298.834 145.826 300.91V313.124C145.826 315.201 144.364 315.933 142.536 314.956Z" fill="black" stroke="black" stroke-width="0.680945" stroke-miterlimit="10" stroke-linecap="round" stroke-linejoin="round"></path><path d="M156.993 323.244C155.166 322.146 153.703 319.703 153.703 317.625V305.411C153.703 303.336 155.166 302.48 156.993 303.579C158.821 304.68 160.284 307.123 160.284 309.198V321.412C160.284 323.49 158.821 324.343 156.993 323.244Z" fill="black" stroke="black" stroke-width="0.680945" stroke-miterlimit="10" stroke-linecap="round" stroke-linejoin="round"></path><path d="M171.395 331.996C169.567 330.895 168.104 328.452 168.104 326.377V314.162C168.104 312.085 169.567 311.231 171.395 312.33C173.223 313.429 174.685 315.872 174.685 317.949V330.164C174.685 332.116 173.223 332.972 171.395 331.996Z" fill="black" stroke="black" stroke-width="0.680945" stroke-miterlimit="10" stroke-linecap="round" stroke-linejoin="round"></path><path d="M110.701 184.487C110.701 183.233 111.605 182.192 112.796 181.982C112.939 181.957 113.088 181.943 113.239 181.943C114.64 181.943 115.776 183.082 115.776 184.487V202.977C115.776 204.231 114.873 205.271 113.683 205.482C113.539 205.506 113.39 205.52 113.239 205.52C111.837 205.52 110.701 204.381 110.701 202.977V184.487Z" fill="#D0F500"></path><path d="M107.758 203.497C107.758 204.902 108.894 206.041 110.296 206.041L113.238 205.52C111.837 205.52 110.701 204.381 110.701 202.977L107.758 203.497Z" fill="#D0F500"></path><path d="M107.758 185.007V203.497L110.701 202.977V184.486L107.758 185.007Z" fill="#D0F500"></path><path d="M110.296 206.041C110.448 206.041 110.596 206.027 110.74 206.003L113.683 205.482C113.539 205.507 113.39 205.521 113.239 205.521L110.296 206.041Z" fill="#D0F500"></path><path d="M110.74 206.003C111.93 205.792 112.834 204.749 112.834 203.497L115.776 202.977C115.776 204.231 114.872 205.271 113.683 205.482L110.74 206.003Z" fill="#D0F500"></path><path d="M107.758 185.007C107.758 183.754 108.662 182.713 109.853 182.502L112.795 181.982C111.605 182.193 110.701 183.234 110.701 184.487L107.758 185.007Z" fill="#D0F500"></path><path d="M109.853 182.502C109.996 182.478 110.145 182.464 110.296 182.464L113.238 181.943C113.087 181.943 112.939 181.957 112.795 181.982L109.853 182.502Z" fill="#D0F500"></path><path d="M112.834 203.497V185.007L115.776 184.486V202.977L112.834 203.497Z" fill="#D0F500"></path><path d="M112.834 185.007C112.834 183.603 111.698 182.464 110.296 182.464L113.239 181.943C114.64 181.943 115.776 183.082 115.776 184.487L112.834 185.007Z" fill="#D0F500"></path><path d="M113.238 205.52C111.837 205.52 110.701 204.381 110.701 202.977M113.238 205.52C113.39 205.52 113.538 205.506 113.682 205.482M113.238 205.52L110.296 206.041M110.701 202.977V184.487M110.701 202.977L107.758 203.497M113.682 205.482C114.872 205.271 115.776 204.231 115.776 202.977M113.682 205.482L110.74 206.003M110.296 206.041C108.894 206.041 107.758 204.902 107.758 203.497M110.296 206.041C110.447 206.041 110.596 206.027 110.74 206.003M110.701 184.487C110.701 183.233 111.605 182.192 112.795 181.982M110.701 184.487L107.758 185.007M107.758 203.497V185.007M115.776 202.977V184.487M115.776 202.977L112.833 203.497M115.776 184.487C115.776 183.082 114.64 181.943 113.238 181.943M115.776 184.487L112.833 185.007M112.833 203.497C112.833 204.749 111.93 205.792 110.74 206.003M112.833 203.497V185.007M113.238 181.943C113.087 181.943 112.939 181.957 112.795 181.982M113.238 181.943L110.296 182.464M112.795 181.982L109.853 182.502M110.296 182.464C110.145 182.464 109.997 182.478 109.853 182.502M110.296 182.464C111.697 182.464 112.833 183.603 112.833 185.007M107.758 185.007C107.758 183.753 108.662 182.713 109.853 182.502" stroke="black" stroke-width="0.596273" stroke-miterlimit="10" stroke-linecap="round" stroke-linejoin="round"></path><path d="M107.758 185.007C107.758 183.603 108.894 182.464 110.296 182.464C111.697 182.464 112.833 183.603 112.833 185.007V203.498C112.833 204.902 111.697 206.041 110.296 206.041C108.894 206.041 107.758 204.902 107.758 203.498V185.007Z" fill="white" stroke="black" stroke-width="0.596273"></path><path d="M110.701 268.338C110.701 267.085 111.605 266.042 112.796 265.833C112.939 265.807 113.088 265.793 113.239 265.793C114.64 265.793 115.776 266.932 115.776 268.338V286.827C115.776 288.08 114.873 289.121 113.683 289.332C113.539 289.358 113.39 289.37 113.239 289.37C111.837 289.37 110.701 288.231 110.701 286.827V268.338Z" fill="#D0F500"></path><path d="M107.758 287.347C107.758 288.751 108.894 289.89 110.296 289.89L113.238 289.37C111.837 289.37 110.701 288.231 110.701 286.827L107.758 287.347Z" fill="#D0F500"></path><path d="M107.758 268.857V287.347L110.701 286.827V268.338L107.758 268.857Z" fill="#D0F500"></path><path d="M110.296 289.89C110.448 289.89 110.596 289.878 110.74 289.852L113.683 289.332C113.539 289.358 113.39 289.37 113.239 289.37L110.296 289.89Z" fill="#D0F500"></path><path d="M110.74 289.852C111.93 289.641 112.834 288.601 112.834 287.347L115.776 286.827C115.776 288.08 114.872 289.121 113.683 289.332L110.74 289.852Z" fill="#D0F500"></path><path d="M107.758 268.856C107.758 267.605 108.662 266.562 109.853 266.353L112.795 265.833C111.605 266.042 110.701 267.085 110.701 268.338L107.758 268.856Z" fill="#D0F500"></path><path d="M109.853 266.353C109.996 266.327 110.145 266.313 110.296 266.313L113.238 265.793C113.087 265.793 112.939 265.807 112.795 265.833L109.853 266.353Z" fill="#D0F500"></path><path d="M112.834 287.347V268.857L115.776 268.338V286.827L112.834 287.347Z" fill="#D0F500"></path><path d="M112.834 268.857C112.834 267.452 111.698 266.313 110.296 266.313L113.239 265.793C114.64 265.793 115.776 266.932 115.776 268.338L112.834 268.857Z" fill="#D0F500"></path><path d="M113.238 289.37C111.837 289.37 110.701 288.231 110.701 286.827M113.238 289.37C113.39 289.37 113.538 289.358 113.682 289.332M113.238 289.37L110.296 289.89M110.701 286.827V268.338M110.701 286.827L107.758 287.347M113.682 289.332C114.872 289.121 115.776 288.08 115.776 286.827M113.682 289.332L110.74 289.852M110.296 289.89C108.894 289.89 107.758 288.751 107.758 287.347M110.296 289.89C110.447 289.89 110.596 289.878 110.74 289.852M110.701 268.338C110.701 267.085 111.605 266.042 112.795 265.833M110.701 268.338L107.758 268.857M107.758 287.347V268.857M115.776 286.827V268.338M115.776 286.827L112.833 287.347M115.776 268.338C115.776 266.932 114.64 265.793 113.238 265.793M115.776 268.338L112.833 268.857M112.833 287.347C112.833 288.601 111.93 289.641 110.74 289.852M112.833 287.347V268.857M113.238 265.793C113.087 265.793 112.939 265.807 112.795 265.833M113.238 265.793L110.296 266.313M112.795 265.833L109.853 266.353M110.296 266.313C110.145 266.313 109.997 266.327 109.853 266.353M110.296 266.313C111.697 266.313 112.833 267.452 112.833 268.857M107.758 268.857C107.758 267.605 108.662 266.562 109.853 266.353" stroke="black" stroke-width="0.596273" stroke-miterlimit="10" stroke-linecap="round" stroke-linejoin="round"></path><path d="M107.758 268.856C107.758 267.452 108.894 266.312 110.296 266.312C111.697 266.312 112.833 267.452 112.833 268.856V287.346C112.833 288.751 111.697 289.89 110.296 289.89C108.894 289.89 107.758 288.751 107.758 287.346V268.856Z" fill="white" stroke="black" stroke-width="0.596273"></path><path d="M265.049 166.9L189.027 122.909C186.169 121.255 181.535 121.255 178.677 122.909L171.602 127.003C168.744 128.657 168.744 131.338 171.602 132.992L247.624 176.984C250.482 178.638 255.116 178.638 257.974 176.984L265.049 172.89C267.907 171.236 267.907 168.554 265.049 166.9Z" fill="black" stroke="black" stroke-width="1.00174" stroke-miterlimit="10" stroke-linecap="round" stroke-linejoin="round"></path><mask id="mask1_1_38674" maskUnits="userSpaceOnUse" x="162" y="-21" width="128" height="218" style="mask-type: alpha;"><path d="M287.866 52.2993L162.847 -20.0459L164.031 124.64L289.05 196.985L287.866 52.2993Z" fill="#D9D9D9"></path></mask><g mask="url(#mask1_1_38674)"><path d="M254.208 160.009C251.157 170.603 246.042 178.049 239.893 182.221C237.8 183.599 235.521 184.639 233.186 185.381L231.823 185.694C222.453 187.799 211.457 183.768 201.395 173.062C180.392 151.256 170.302 110.221 178.629 81.3175C182.774 66.9312 190.634 58.2959 200.118 55.7981C202.714 55.1324 205.586 54.9721 208.348 55.2043C215.9 55.9735 223.856 60.2592 231.444 68.2649C252.352 89.9022 262.574 130.975 254.208 160.009Z" fill="white" stroke="black" stroke-width="1.00174" stroke-miterlimit="10" stroke-linecap="round" stroke-linejoin="round"></path><path d="M228.313 169.116C243.749 165.289 250.904 140.474 244.294 113.69C237.684 86.9064 219.811 68.2966 204.375 72.1239C188.938 75.9511 181.783 100.766 188.393 127.55C195.003 154.334 212.876 172.944 228.313 169.116Z" fill="white" stroke="black" stroke-width="1.00174" stroke-miterlimit="10" stroke-linecap="round" stroke-linejoin="round"></path><path fill-rule="evenodd" clip-rule="evenodd" d="M234.882 120.819C234.793 115.482 230.226 111.315 224.317 107.713L224.92 100.691L220.31 98.2759L219.721 105.112C218.51 104.477 217.269 103.85 216.035 103.228L216.63 96.3469L212.022 93.9321L211.414 100.951C210.414 100.446 209.432 99.95 208.476 99.4495L208.478 99.4274L202.12 96.0934L201.727 100.659C201.727 100.659 205.137 102.382 205.075 102.411C206.943 103.39 207.464 104.713 207.566 105.673L206.877 113.672C207.007 113.74 207.173 113.833 207.362 113.957L207.205 113.875C207.099 113.819 206.989 113.761 206.875 113.703L205.909 124.907C205.778 125.409 205.359 126.097 204.054 125.415C204.109 125.495 200.703 123.658 200.703 123.658L199.346 128.282L205.345 131.426C206.017 131.778 206.68 132.132 207.336 132.483L207.34 132.485C207.775 132.718 208.208 132.949 208.638 133.177L208.027 140.279L212.633 142.694L213.238 135.667C214.501 136.354 215.724 137.005 216.919 137.63L216.315 144.623L220.925 147.038L221.537 139.95C229.324 143.6 234.906 144.632 236.16 138.238C237.173 133.09 234.625 129.221 230.31 125.936C233.092 126.075 234.954 124.727 234.882 120.819ZM227.087 132.661C226.67 137.531 218.428 133.101 214.656 131.074C214.317 130.892 214.014 130.729 213.756 130.594L214.567 121.186C214.882 121.351 215.265 121.542 215.698 121.759C219.572 123.702 227.516 127.682 227.087 132.661ZM215.764 117.268C218.911 118.967 225.772 122.671 226.155 118.246C226.543 113.719 219.923 110.42 216.69 108.808C216.327 108.627 216.007 108.467 215.742 108.33L215.006 116.863C215.225 116.976 215.479 117.114 215.764 117.268Z" fill="black"></path><path d="M269.619 156.115C265.55 170.24 257.822 178.913 248.597 181.487L247.365 181.838L233.196 185.388C235.491 184.777 237.77 183.737 239.903 182.228C246.182 178.095 251.203 170.48 254.218 160.017C262.544 131.114 252.362 89.9107 231.582 68.3112C223.956 60.4363 216.002 56.1505 208.486 55.2505C205.596 54.9805 202.852 55.1786 200.258 55.8444L215.491 52.0354L215.958 51.8871C225.535 49.558 236.7 53.4975 247.024 64.2784C267.763 86.0087 277.984 127.081 269.619 156.115Z" fill="black"></path><path d="M231.582 68.3112C223.956 60.4363 216.002 56.1505 208.486 55.2505C205.692 54.9898 203.038 55.1658 200.521 55.7789L200.258 55.8444C200.344 55.8221 200.432 55.8002 200.521 55.7789L215.491 52.0354L215.958 51.8871C225.535 49.558 236.7 53.4975 247.024 64.2784L231.582 68.3112Z" fill="white"></path><path d="M231.586 68.3018C252.364 89.9013 262.546 131.105 254.22 160.008L269.621 156.106C277.986 127.072 267.765 85.9993 247.026 64.269L231.586 68.3018Z" fill="#D0F500"></path><path d="M269.619 156.115C265.55 170.24 257.822 178.913 248.597 181.487L247.365 181.838L233.196 185.388C235.491 184.777 237.77 183.737 239.902 182.228C246.182 178.095 251.203 170.48 254.218 160.017C262.544 131.114 252.362 89.9107 231.582 68.3112C223.956 60.4363 216.002 56.1505 208.486 55.2505C205.596 54.9805 202.852 55.1786 200.258 55.8444L215.491 52.0354L215.958 51.8871C225.535 49.558 236.7 53.4975 247.024 64.2784C267.763 86.0087 277.984 127.081 269.619 156.115Z" stroke="black" stroke-width="1.00174" stroke-miterlimit="10" stroke-linecap="round" stroke-linejoin="round"></path><path d="M231.444 53.2578L216.042 57.16M242.246 59.9263L226.844 63.8283M249.688 67.4642L234.192 71.1976M255.505 75.2406L240.103 79.1426M260.221 83.4064L244.819 87.3084M264.041 91.7382L248.64 95.6402M267.226 100.311L251.692 104.175M269.515 109.05L254.111 112.952M271.207 117.899L255.803 121.801M272.315 128.28L256.819 132.014M272.397 138.789L256.865 142.653M271.08 149.743L255.585 153.476M267.839 160.99L252.438 164.892M263.955 169.076L248.459 172.809" stroke="black" stroke-width="1.00174" stroke-miterlimit="10" stroke-linecap="round" stroke-linejoin="round"></path></g><path d="M363.095 425.792L310.304 456.332L307.806 457.805L307.66 457.877H307.586C305.824 458.761 303.695 458.761 301.933 457.877H301.859L299.29 456.406L246.573 425.866C244.59 424.689 244.59 421.892 246.573 420.715L301.787 388.777C303.621 387.746 305.898 387.746 307.734 388.777L363.021 420.788C365.077 421.893 365.077 424.689 363.095 425.792Z" fill="black"></path><path d="M364.602 392.564V405.57C364.602 406.6 364.163 407.557 363.135 408.145L310.344 438.685L307.846 440.158L307.7 440.23H307.628C305.864 441.114 303.736 441.114 301.974 440.23H301.899L299.33 438.76L246.613 408.22C246.1 407.924 245.733 407.557 245.513 407.115C245.292 406.675 245.146 406.158 245.146 405.716V392.564H267.759L301.827 372.84C303.661 371.811 305.938 371.811 307.774 372.84L341.843 392.564H364.602Z" fill="#DCDCDC" stroke="black" stroke-width="0.654944" stroke-miterlimit="10" stroke-linecap="round"></path><path d="M363.095 394.971L310.304 425.511L307.806 426.984L307.66 427.056H307.586C305.824 427.94 303.695 427.94 301.933 427.056H301.859L299.29 425.586L246.573 395.045C244.59 393.868 244.59 391.072 246.573 389.894L301.787 357.956C303.621 356.925 305.898 356.925 307.734 357.956L363.021 389.967C365.077 391.072 365.077 393.868 363.095 394.971Z" fill="white" stroke="black" stroke-width="0.654944" stroke-miterlimit="10" stroke-linecap="round" stroke-linejoin="round"></path><path d="M333.862 393.708L325.932 398.27L306.402 409.603H306.328C305.448 410.045 304.419 410.045 303.537 409.603L283.935 398.27L276.078 393.708C275.124 393.119 275.124 391.721 276.078 391.133L303.465 375.31C304.345 374.796 305.52 374.796 306.402 375.31L333.862 391.205C334.816 391.794 334.816 393.119 333.862 393.708Z" fill="#DCDCDC" stroke="black" stroke-width="0.654944" stroke-miterlimit="10" stroke-linecap="round" stroke-linejoin="round"></path><path d="M325.886 398.286L306.355 409.619H306.283C305.401 410.061 304.373 410.061 303.493 409.619L283.888 398.286L303.419 386.954C304.301 386.439 305.475 386.439 306.355 386.954L325.886 398.286Z" fill="white" stroke="black" stroke-width="0.654944" stroke-miterlimit="10" stroke-linecap="round" stroke-linejoin="round"></path><path d="M301.009 395.832C299.323 395.296 297.75 394.406 296.263 393.248C292.513 390.295 289.672 385.383 288.219 378.565C284.086 359.842 292.264 333.978 306.429 320.968C311.51 316.321 316.651 313.945 321.442 313.609C323.296 313.611 325.094 313.79 326.777 314.327C332.808 316.241 337.485 322.127 339.595 331.503C343.788 350.343 335.611 376.206 321.357 389.188C314.334 395.661 307.038 397.747 301.009 395.832Z" fill="#FFF1C1" stroke="#080809" stroke-width="0.898258" stroke-miterlimit="10" stroke-linecap="round" stroke-linejoin="round"></path><path d="M303.63 387.594C302.389 387.199 301.232 386.538 300.158 385.612C297.448 383.382 295.362 379.49 294.399 374.197C291.679 359.345 298.17 338.813 308.929 328.244C312.755 324.471 316.698 322.496 320.196 322.237C321.607 322.098 322.932 322.227 324.174 322.621C328.608 324.029 332.029 328.638 333.404 336.019C336.124 350.869 329.634 371.4 318.875 381.971C313.509 387.211 308.065 389.003 303.63 387.594Z" fill="white" stroke="black" stroke-width="0.654944" stroke-miterlimit="10" stroke-linecap="round" stroke-linejoin="round"></path><path d="M301.041 395.841L288.271 391.785C282.242 389.87 277.564 383.982 275.454 374.608C271.351 355.796 279.528 329.931 293.693 316.923C300.805 310.476 308.101 308.393 314.042 310.279L326.812 314.336C325.128 313.801 323.33 313.62 321.448 313.709C316.685 313.956 311.542 316.332 306.435 321.068C292.27 334.076 284.12 359.852 288.223 378.664C289.707 385.394 292.545 390.306 296.269 393.346C297.784 394.415 299.358 395.307 301.041 395.841Z" fill="#F5BC41" stroke="black" stroke-width="0.654944" stroke-miterlimit="10" stroke-linecap="round" stroke-linejoin="round"></path><mask id="mask2_1_38674" maskUnits="userSpaceOnUse" x="274" y="309" width="54" height="88" style="mask-type: alpha;"><path d="M301.041 395.841L288.271 391.785C282.242 389.87 277.564 383.982 275.454 374.608C271.351 355.796 279.528 329.931 293.693 316.923C300.805 310.476 308.101 308.393 314.042 310.279L326.812 314.336C325.128 313.801 323.33 313.62 321.448 313.709C316.685 313.956 311.542 316.332 306.435 321.068C292.27 334.076 284.12 359.852 288.223 378.664C289.707 385.394 292.545 390.306 296.269 393.346C297.784 394.415 299.358 395.307 301.041 395.841Z" fill="#F5BC41" stroke="black" stroke-width="0.689621" stroke-miterlimit="10" stroke-linecap="round" stroke-linejoin="round"></path></mask><g mask="url(#mask2_1_38674)"><path d="M305.311 308.817L320.321 312.793M298.025 312.791L312.424 316.686M292.904 317.451L306.499 321.634M288.833 322.325L301.563 326.582M285.469 327.49L298.025 331.53M282.685 332.796L294.651 336.478M280.306 338.28L292.904 342.415M278.506 343.905L290.023 347.363M277.093 349.623L288.833 353.301M274.904 356.268L287.704 360.228M273.916 363.195L287.704 367.155M273.916 370.124L287.704 374.082M274.904 377.051L288.833 381.009M278.506 382.988L290.023 385.957" stroke="black" stroke-width="0.654944" stroke-miterlimit="10" stroke-linecap="round" stroke-linejoin="round"></path><path d="M301.197 384.647L270.783 376.071L265.97 393.218L296.384 401.794L301.197 384.647Z" fill="black"></path></g><path d="M321.923 340.416L322.12 339.789L321.498 339.576L317.017 338.035L316.397 337.822L316.201 338.449L315.431 340.902C314.619 340.81 313.83 340.804 313.06 340.888C311.396 341.065 309.947 341.621 308.732 342.567C307.51 343.524 306.65 344.815 306.149 346.419C305.58 348.237 305.604 349.934 306.297 351.467C306.971 352.976 308.338 354.396 310.294 355.752L310.296 355.754L314.11 358.376C315.04 359.013 315.611 359.563 315.894 360.015C316.159 360.453 316.199 360.827 316.085 361.186C315.972 361.546 315.758 361.823 315.417 362.034C315.04 362.265 314.581 362.402 314.018 362.428C313.451 362.45 312.847 362.348 312.2 362.103H312.198C311.527 361.849 310.975 361.498 310.53 361.054L310.52 361.044C310.059 360.604 309.727 360.096 309.514 359.517L309.512 359.511C309.298 358.942 309.216 358.334 309.274 357.675L309.328 357.044L308.71 356.948L303.842 356.182L303.142 356.074L303.104 356.789C303.014 358.464 303.232 360.009 303.776 361.411C304.305 362.822 305.137 364.043 306.265 365.068C306.66 365.433 307.087 365.769 307.546 366.076L306.744 368.636L306.548 369.262L307.169 369.477L311.649 371.016L312.27 371.231L312.467 370.602L313.226 368.18C313.982 368.272 314.714 368.284 315.421 368.214C316.962 368.063 318.307 367.541 319.438 366.633L319.44 366.629C320.564 365.711 321.362 364.461 321.847 362.912C322.368 361.251 322.356 359.66 321.767 358.175C321.182 356.698 320.055 355.393 318.456 354.241L313.16 350.422C313.16 350.42 313.16 350.42 313.158 350.42C312.525 349.954 312.17 349.534 312.006 349.179V349.177L311.998 349.161C311.837 348.837 311.805 348.482 311.941 348.046C312.132 347.437 312.577 346.993 313.423 346.742H313.427C314.265 346.489 315.243 346.529 316.387 346.923C317.576 347.331 318.466 348.016 319.093 348.974C319.708 349.928 319.977 351.019 319.879 352.279L319.831 352.889L320.428 352.996L325.092 353.836L325.732 353.95L325.836 353.303C326.114 351.551 326 349.886 325.481 348.321L325.479 348.319C324.958 346.77 324.082 345.408 322.865 344.241L322.863 344.237C322.34 343.743 321.767 343.299 321.144 342.905L321.923 340.416Z" fill="#FFF1C1" stroke="black" stroke-width="0.654944"></path></svg>