<svg width="436" height="165" viewBox="0 0 436 165" fill="none" xmlns="http://www.w3.org/2000/svg">
<path d="M784.588 2.19769L775.958 1M784.588 2.19769H759.013M784.588 2.19769L793.506 3.43493M784.588 2.19769H802.701M775.958 1L779.098 1.00047L782.206 1.00306L785.249 1.01035L788.197 1.02471L791.017 1.04802L793.679 1.08309L796.151 1.13182L798.446 1.19396L800.415 1.27988L802.208 1.37946L802.701 1.41433V2.19769M775.958 1H750.793M750.793 1H725.629M750.793 1L759.013 2.19769M725.629 1H700.464M725.629 1L733.437 2.19769M700.464 1H675.299M700.464 1L707.862 2.19769M675.299 1H650.135M675.299 1L682.286 2.19769M650.135 1H624.97M650.135 1L656.71 2.19769M624.97 1H599.805M624.97 1L631.135 2.19769M599.805 1H574.641M599.805 1L605.559 2.19769M574.641 1H549.476M574.641 1L579.983 2.19769M549.476 1H524.311M549.476 1L554.408 2.19769M524.311 1H499.147M524.311 1L528.832 2.19769M499.147 1H473.982M499.147 1L503.256 2.19769M473.982 1H448.817M473.982 1L474.895 1.29589L476.28 1.74385L477.681 2.19769M448.817 1H423.653M448.817 1L449.629 1.29589L452.105 2.19769M423.653 1H398.488M423.653 1L426.529 2.19769M398.488 1H373.323M398.488 1L399.403 1.44466L400.33 1.8945L400.641 2.04586L400.954 2.19769M373.323 1H348.159M373.323 1L374.086 1.44466L374.343 1.5939L374.6 1.74385L375.378 2.19769M348.159 1H322.994M348.159 1L349.803 2.19769M322.994 1L323.146 1.14759L323.298 1.29589L324.07 2.04586L324.227 2.19769M322.994 1H297.83M297.83 1H272.664M297.83 1L298.651 2.19769M272.664 1H247.5M272.664 1L272.817 1.44466L273.076 2.19769M247.5 1H222.335M247.5 1V2.19769M222.335 1H197.17M222.335 1L222.183 1.44466L221.924 2.19769M197.17 1H172.006M197.17 1L196.349 2.19769M172.006 1L171.854 1.14759L171.702 1.29589L170.93 2.04586L170.773 2.19769M172.006 1H146.841M146.841 1H121.676M146.841 1L145.406 2.04586L145.197 2.19769M121.676 1H96.512M121.676 1L120.914 1.44466L120.657 1.5939L120.142 1.8945L119.882 2.04586L119.622 2.19769M96.512 1H71.3475M96.512 1L95.597 1.44466L94.67 1.8945L94.3588 2.04586L94.0459 2.19769M71.3475 1H46.183M71.3475 1L68.4708 2.19769M46.183 1H21.0179M46.183 1L45.371 1.29589L42.8952 2.19769M21.0179 1H-4.14659M21.0179 1L17.3195 2.19769M-4.14659 1H-29.3111M-4.14659 1L-8.25624 2.19769M-29.3111 1H-54.4761M-29.3111 1L-33.8319 2.19769M-54.4761 1H-79.6406M-54.4761 1L-59.4076 2.19769M-79.6406 1H-104.805M-79.6406 1L-84.9833 2.19769M-104.805 1H-129.97M-104.805 1L-110.559 2.19769M-129.97 1H-155.135M-129.97 1L-136.135 2.19769M-155.135 1H-180.299M-155.135 1L-161.71 2.19769M-180.299 1H-205.464M-180.299 1L-187.286 2.19769M-205.464 1H-230.629M-205.464 1L-212.862 2.19769M-230.629 1H-255.793M-230.629 1L-238.437 2.19769M-255.793 1H-280.958M-255.793 1L-264.012 2.19769M-280.958 1L-284.098 1.00047L-287.206 1.00306L-290.249 1.01035L-293.197 1.02471L-296.017 1.04802L-298.679 1.08309L-301.151 1.13182L-303.446 1.19396L-305.415 1.27988L-307.208 1.37946L-307.701 1.41434V2.19769M-280.958 1L-289.588 2.19769M-238.437 2.19769H-212.862M-238.437 2.19769H-264.012M-238.437 2.19769L-246.505 3.43493M-212.862 2.19769L-220.505 3.43493M-212.862 2.19769H-187.286M-136.135 2.19769H-110.559M-136.135 2.19769H-161.71M-136.135 2.19769L-137.707 2.50323L-142.504 3.43493M-110.559 2.19769L-116.504 3.43493M-110.559 2.19769H-84.9833M-33.8319 2.19769H-8.25624M-33.8319 2.19769H-59.4076M-33.8319 2.19769L-34.9851 2.50323L-35.5657 2.65671L-38.5031 3.43493M-8.25624 2.19769L-8.77957 2.34999L-9.30475 2.50323L-12.5024 3.43493M-8.25624 2.19769H17.3195M68.4708 2.19769L68.1042 2.34999L65.4982 3.43493M68.4708 2.19769H94.0459M68.4708 2.19769H42.8952M94.0459 2.19769L93.4173 2.50323L93.1004 2.65671L92.7829 2.81113L91.4984 3.43493M94.0459 2.19769H119.622M170.773 2.19769H196.349M170.773 2.19769H145.197M170.773 2.19769L169.5 3.43493M196.349 2.19769L196.244 2.34999L196.139 2.50323L196.033 2.65671L195.714 3.12162L195.5 3.43493M196.349 2.19769H221.924M273.076 2.19769H298.651M273.076 2.19769H247.5M273.076 2.19769L273.5 3.43493M298.651 2.19769L298.756 2.34999L298.861 2.50323L298.967 2.65671L299.5 3.43493M298.651 2.19769H324.227M375.378 2.19769H400.954M375.378 2.19769H349.803M375.378 2.19769L375.902 2.50323L376.964 3.12162L377.232 3.27792L377.501 3.43493M400.954 2.19769L401.583 2.50323L401.9 2.65671L402.217 2.81113L403.502 3.43493M400.954 2.19769H426.529M477.681 2.19769H503.256M477.681 2.19769H452.105M477.681 2.19769L478.624 2.50323L479.099 2.65671L481.502 3.43493M503.256 2.19769L503.78 2.34999L504.305 2.50323L507.502 3.43493M503.256 2.19769H528.832M579.983 2.19769H605.559M579.983 2.19769H554.408M579.983 2.19769L581.346 2.50323L582.032 2.65671L585.503 3.43493M605.559 2.19769L611.504 3.43493M605.559 2.19769H631.135M682.286 2.19769H707.862M682.286 2.19769H656.71M682.286 2.19769L689.504 3.43493M707.862 2.19769L715.505 3.43493M707.862 2.19769H733.437M-307.791 13.3978H-307.701M-282.048 13.3978L-272.284 11.8171M-282.048 13.3978L-292.187 15.039M-282.048 13.3978H-252.629M-282.048 13.3978H-307.701M-272.284 11.8171H-301.161M-272.284 11.8171L-262.873 10.2936M-272.284 11.8171H-243.407M-301.161 11.8171L-291.227 10.2936M-301.161 11.8171H-307.701M-301.161 11.8171L-307.701 12.8199M-272.401 7.40628H-245.037M-272.401 7.40628L-263.472 6.03698M-272.401 7.40628H-299.763M-272.401 7.40628L-281.646 8.82429M-245.037 7.40628L-236.579 6.03698M-245.037 7.40628L-253.796 8.82429M-245.037 7.40628H-217.674M-263.472 6.03698H-236.579M-263.472 6.03698L-254.845 4.71406M-263.472 6.03698H-290.365M-236.579 6.03698H-209.685M-236.579 6.03698L-228.406 4.71406M-307.983 38.3473H-307.701M-284.244 38.3473L-271.653 35.7267M-284.244 38.3473L-297.462 41.0984M-284.244 38.3473H-246.262M-284.244 38.3473H-307.701M-271.653 35.7267L-259.644 33.2272M-271.653 35.7267H-234.571M-271.653 35.7267H-307.701M-295.868 33.2272H-259.644M-295.868 33.2272L-283.583 30.8408M-295.868 33.2272H-307.701M-295.868 33.2272L-307.701 35.5258M-271.842 28.5598H-237.219M-271.842 28.5598L-260.608 26.3777M-271.842 28.5598H-306.465M-271.842 28.5598L-283.583 30.8408M-237.219 28.5598L-226.734 26.3777M-237.219 28.5598L-248.178 30.8408M-237.219 28.5598H-202.596M-260.608 26.3777H-226.734M-260.608 26.3777H-294.482M-260.608 26.3777L-249.85 24.2879M-226.734 26.3777L-216.694 24.2879M-226.734 26.3777H-192.861M-229.646 20.3629H-197.836M-229.646 20.3629L-220.146 18.5176M-229.646 20.3629H-261.455M-229.646 20.3629L-239.539 22.2847M-197.836 20.3629L-188.97 18.5176M-197.836 20.3629L-207.069 22.2847M-197.836 20.3629H-166.026M-220.146 18.5176H-188.97M-220.146 18.5176H-251.323M-220.146 18.5176L-211.018 16.7444M-188.97 18.5176L-180.45 16.7444M-188.97 18.5176H-157.793M-193.791 13.3978H-164.371M-193.791 13.3978L-185.653 11.8171M-193.791 13.3978H-223.21M-193.791 13.3978L-202.239 15.039M-164.371 13.3978L-156.777 11.8171M-164.371 13.3978L-172.257 15.039M-164.371 13.3978H-134.952M-185.653 11.8171H-156.777M-185.653 11.8171H-214.53M-185.653 11.8171L-177.811 10.2936M-156.777 11.8171L-149.457 10.2936M-156.777 11.8171H-127.9M-162.948 7.40628H-135.585M-162.948 7.40628L-155.899 6.03698M-162.948 7.40628H-190.311M-162.948 7.40628L-170.247 8.82429M-135.585 7.40628L-129.006 6.03698M-135.585 7.40628L-142.397 8.82429M-135.585 7.40628H-108.221M-155.899 6.03698H-129.006M-155.899 6.03698L-149.088 4.71406M-155.899 6.03698H-182.792M-129.006 6.03698H-102.112M-129.006 6.03698L-122.649 4.71406M-288.242 83.7819L-270.52 78.618M-288.242 83.7819L-307.219 89.3115M-288.242 83.7819H-234.668M-288.242 83.7819H-307.701M-270.52 78.618L-253.933 73.7849M-270.52 78.618H-218.718M-270.52 78.618H-307.701M-270.88 64.991H-223.755M-270.88 64.991L-255.736 60.9796M-270.88 64.991L-286.964 69.2516M-270.88 64.991H-307.701M-223.755 64.991L-209.988 60.9796M-223.755 64.991L-238.376 69.2516M-223.755 64.991H-176.629M-255.736 60.9796H-209.988M-255.736 60.9796H-301.485M-255.736 60.9796L-241.452 57.1956M-209.988 60.9796L-197.002 57.1956M-209.988 60.9796H-164.239M-215.187 50.2378H-173.124M-215.187 50.2378L-203.084 47.032M-215.187 50.2378H-257.249M-215.187 50.2378L-227.957 53.6209M-173.124 50.2378L-162.122 47.032M-173.124 50.2378L-184.734 53.6209M-173.124 50.2378H-131.061M-203.084 47.032H-162.122M-203.084 47.032H-244.046M-203.084 47.032L-191.599 43.9895M-162.122 47.032L-151.68 43.9895M-162.122 47.032H-121.16M-170.299 38.3473H-132.317M-170.299 38.3473L-160.406 35.7267M-170.299 38.3473H-208.281M-170.299 38.3473L-180.684 41.0984M-132.317 38.3473L-123.323 35.7267M-132.317 38.3473L-141.758 41.0984M-132.317 38.3473H-94.3355M-160.406 35.7267H-123.323M-160.406 35.7267H-197.488M-160.406 35.7267L-150.97 33.2272M-123.323 35.7267L-114.746 33.2272M-123.323 35.7267H-86.2411M-133.351 28.5598H-98.728M-133.351 28.5598L-125.113 26.3777M-133.351 28.5598H-167.974M-133.351 28.5598L-141.961 30.8408M-98.728 28.5598L-91.2385 26.3777M-98.728 28.5598L-106.556 30.8408M-98.728 28.5598H-64.1054M-125.113 26.3777H-91.2385M-125.113 26.3777H-158.986M-125.113 26.3777L-117.224 24.2879M-91.2385 26.3777L-84.0666 24.2879M-91.2385 26.3777H-57.3649M-102.407 20.3629H-70.5972M-102.407 20.3629L-95.4407 18.5176M-102.407 20.3629H-134.216M-102.407 20.3629L-109.661 22.2847M-70.5972 20.3629L-69.791 20.1282L-64.2644 18.5176M-70.5972 20.3629L-77.1919 22.2847M-70.5972 20.3629H-38.7871M-95.4407 18.5176H-64.2644M-95.4407 18.5176H-126.617M-95.4407 18.5176L-88.7465 16.7444M-64.2644 18.5176L-58.1786 16.7444M-64.2644 18.5176H-33.0876M-76.1134 13.3978H-46.6935M-76.1134 13.3978L-70.1455 11.8171M-76.1134 13.3978H-105.533M-76.1134 13.3978L-82.309 15.039M-46.6935 13.3978L-41.2687 11.8171M-46.6935 13.3978L-48.7807 14.006L-52.3265 15.039M-46.6935 13.3978H-17.2742M-70.1455 11.8171H-41.2687M-70.1455 11.8171H-99.0223M-70.1455 11.8171L-64.3946 10.2936M-41.2687 11.8171L-36.0406 10.2936M-41.2687 11.8171H-12.3919M-53.4953 7.40628H-26.132M-53.4953 7.40628L-48.3261 6.03698M-53.4953 7.40628H-80.858M-53.4953 7.40628L-58.8478 8.82429M-26.132 7.40628L-22.592 6.37501L-22.0113 6.20552L-21.4324 6.03698M-26.132 7.40628L-30.9981 8.82429M-26.132 7.40628H1.23136M-48.3261 6.03698H-21.4324M-48.3261 6.03698L-43.3316 4.71406M-48.3261 6.03698H-75.2193M-21.4324 6.03698H5.46075M-21.4324 6.03698L-16.8925 4.71406M-268.831 142.605H-195.069M-268.831 142.605L-245.605 132.937M-268.831 142.605L-294.353 153.229M-268.831 142.605L-307.701 142.605M-195.069 142.605L-175.161 132.937M-195.069 142.605L-216.945 153.229M-195.069 142.605H-121.308M-245.605 132.937H-175.161M-245.605 132.937L-224.379 124.101M-245.605 132.937H-307.701M-175.161 132.937L-156.967 124.101M-175.161 132.937H-104.718M-186.974 108.531H-124.906M-186.974 108.531L-170.41 101.636M-186.974 108.531H-249.041M-186.974 108.531L-204.904 115.995M-124.906 108.531L-110.709 101.636M-124.906 108.531L-140.275 115.995M-124.906 108.531H-62.8383M-170.41 101.636H-110.709M-170.41 101.636H-230.112M-170.41 101.636L-155.063 95.2475M-110.709 101.636L-97.5539 95.2475M-110.709 101.636H-51.0073M-127.519 83.7819H-73.9452M-127.519 83.7819L-115.114 78.618M-127.519 83.7819H-181.094M-127.519 83.7819L-140.804 89.3115M-73.9452 83.7819L-63.3119 78.618M-73.9452 83.7819L-85.3314 89.3115M-73.9452 83.7819H-20.3712M-115.114 78.618H-63.3119M-115.114 78.618H-166.916M-115.114 78.618L-103.503 73.7849M-63.3119 78.618L-53.36 73.7849M-63.3119 78.618H-11.5099M-82.3784 64.991H-35.2529M-82.3784 64.991L-72.7411 60.9796M-82.3784 64.991H-129.503M-82.3784 64.991L-92.6132 69.2516M-35.2529 64.991L-26.9925 60.9796M-35.2529 64.991L-44.0256 69.2516M-35.2529 64.991H11.8727M-72.7411 60.9796H-26.9925M-72.7411 60.9796H-118.49M-72.7411 60.9796L-63.6514 57.1956M-26.9925 60.9796L-19.2012 57.1956M-26.9925 60.9796H18.756M-46.937 50.2378H-4.87414M-46.937 50.2378L-39.2353 47.032M-46.937 50.2378H-88.9992M-46.937 50.2378L-55.0637 53.6209M-4.87414 50.2378L1.72703 47.032M-4.87414 50.2378L-11.8402 53.6209M-4.87414 50.2378H37.1882M-39.2353 47.032H1.72703M-39.2353 47.032H-80.1976M-39.2353 47.032L-31.9263 43.9895M1.72703 47.032L7.99153 43.9895M1.72703 47.032H42.6893M-18.3719 38.3473H19.6096M-18.3719 38.3473L-12.0761 35.7267M-18.3719 38.3473H-56.354M-18.3719 38.3473L-24.9805 41.0984M19.6096 38.3473L25.0061 35.7267M19.6096 38.3473L13.9449 41.0984M19.6096 38.3473H57.5912M-12.0761 35.7267H25.0061M-12.0761 35.7267H-49.1589M-12.0761 35.7267L-6.07186 33.2272M25.0061 35.7267L30.1527 33.2272M25.0061 35.7267H62.0883M5.14032 28.5598H39.7635M5.14032 28.5598L10.3829 26.3777M5.14032 28.5598H-29.4823M5.14032 28.5598L-0.338799 30.8408M39.7635 28.5598L44.2566 26.3777M39.7635 28.5598L35.0669 30.8408M39.7635 28.5598H74.3861M10.3829 26.3777H44.2566M10.3829 26.3777H-23.4913M10.3829 26.3777L15.4035 24.2879M44.2566 26.3777L48.56 24.2879M44.2566 26.3777H78.1308M24.8321 20.3629H56.6422M24.8321 20.3629L29.265 18.5176M24.8321 20.3629H-6.9775M24.8321 20.3629L20.2152 22.2847M56.6422 20.3629L56.1558 20.5988L52.6846 22.2847M56.6422 20.3629L60.4413 18.5176M56.6422 20.3629H88.4517M29.265 18.5176H60.4413M29.265 18.5176H-1.91129M29.265 18.5176L33.525 16.7444M60.4413 18.5176L64.0929 16.7444M60.4413 18.5176H91.6181M41.5644 13.3978H70.9837M41.5644 13.3978L45.3618 11.8171M41.5644 13.3978H12.1451M41.5644 13.3978L37.6219 15.039M70.9837 13.3978L74.2386 11.8171M70.9837 13.3978L69.7316 14.006L68.8867 14.4163L67.6045 15.039M70.9837 13.3978H100.403M45.3618 11.8171H74.2386M45.3618 11.8171H16.4849M45.3618 11.8171L49.0215 10.2936M74.2386 11.8171L75.4288 11.2392L76.213 10.8583L77.376 10.2936M74.2386 11.8171H103.115M55.958 7.40628H83.3207M55.958 7.40628L58.4356 6.37501L59.247 6.03698M55.958 7.40628H28.5947M55.958 7.40628L52.9836 8.64422L52.5516 8.82429M83.3207 7.40628L85.445 6.37501L85.7931 6.20552L86.1407 6.03698M83.3207 7.40628L81.8737 8.10893L80.4013 8.82429M83.3207 7.40628H110.684M59.247 6.03698H86.1407M59.247 6.03698L62.4255 4.71406M59.247 6.03698H32.3539M86.1407 6.03698H113.034M86.1407 6.03698L88.8647 4.71406M26.2154 142.605H99.9768M26.2154 142.605L36.1691 132.937M26.2154 142.605H-47.546M26.2154 142.605L15.2774 153.229M99.9768 142.605L106.613 132.937M99.9768 142.605L92.6852 153.229M99.9768 142.605H173.739M36.1691 132.937H106.613M36.1691 132.937H-34.2743M36.1691 132.937L45.2663 124.101M106.613 132.937L112.678 124.101M106.613 132.937H177.057M61.2972 108.531H123.365M61.2972 108.531L68.3957 101.636M61.2972 108.531H-0.770829M61.2972 108.531L53.6123 115.995M123.365 108.531L128.097 101.636M123.365 108.531L118.242 115.995M123.365 108.531H185.433M68.3957 101.636H128.097M68.3957 101.636H8.69421M68.3957 101.636L74.9731 95.2475M128.097 101.636L132.482 95.2475M128.097 101.636H187.799M86.7774 83.7819H140.351M86.7774 83.7819L92.0941 78.618M86.7774 83.7819H33.2034M86.7774 83.7819L81.0843 89.3115M140.351 83.7819L143.896 78.618M140.351 83.7819L136.556 89.3115M140.351 83.7819H193.926M92.0941 78.618H143.896M92.0941 78.618H40.2921M92.0941 78.618L97.0701 73.7849M143.896 78.618L147.213 73.7849M143.896 78.618H195.698M106.124 64.991H153.249M106.124 64.991L110.254 60.9796M106.124 64.991H58.9983M106.124 64.991L101.737 69.2516M153.249 64.991L156.002 60.9796M153.249 64.991L150.325 69.2516M153.249 64.991H200.374M110.254 60.9796H156.002M110.254 60.9796H64.5052M110.254 60.9796L114.149 57.1956M156.002 60.9796L158.6 57.1956M156.002 60.9796H201.751M121.313 50.2378H163.375M121.313 50.2378L124.613 47.032M121.313 50.2378H79.2504M121.313 50.2378L117.83 53.6209M163.375 50.2378L165.576 47.032M163.375 50.2378L161.054 53.6209M163.375 50.2378H205.438M124.613 47.032H165.576M124.613 47.032H83.6516M124.613 47.032L127.746 43.9895M165.576 47.032L167.664 43.9895M165.576 47.032H206.538M133.555 38.3473H171.536M133.555 38.3473L136.253 35.7267M133.555 38.3473H95.5733M133.555 38.3473L130.723 41.0984M171.536 38.3473L173.336 35.7267M171.536 38.3473L169.648 41.0984M171.536 38.3473H209.518M136.253 35.7267H173.336M136.253 35.7267H99.1706M136.253 35.7267L137.233 34.7757L138.826 33.2272M173.336 35.7267L175.051 33.2272M173.336 35.7267H210.418M143.632 28.5598H178.254M143.632 28.5598L145.879 26.3777M143.632 28.5598H109.009M143.632 28.5598L141.881 30.261L141.283 30.8408M178.254 28.5598L178.824 27.7303L179.752 26.3777M178.254 28.5598L176.689 30.8408M178.254 28.5598H212.877M145.879 26.3777L146.152 26.1115L148.03 24.2879M145.879 26.3777H179.752M145.879 26.3777H112.004M179.752 26.3777L180.298 25.5835L180.477 25.3215L180.656 25.0611L181.186 24.2879M179.752 26.3777H213.626M152.071 20.3629H183.88M152.071 20.3629L153.03 19.431L153.267 19.201L153.503 18.9719L153.738 18.7443L153.971 18.5176M152.071 20.3629H120.261M152.071 20.3629L150.092 22.2847M183.88 20.3629L184.835 18.9719L184.992 18.7443L185.147 18.5176M183.88 20.3629L182.562 22.2847M183.88 20.3629H215.69M153.971 18.5176H185.147M153.971 18.5176H122.794M153.971 18.5176L155.12 17.4012L155.347 17.1811L155.796 16.7444M185.147 18.5176L185.913 17.4012L186.065 17.1811L186.215 16.9621L186.364 16.7444M185.147 18.5176H216.324M159.242 13.3978H188.661M159.242 13.3978L160.87 11.8171M159.242 13.3978H129.822M159.242 13.3978L158.825 13.8022L158.193 14.4163L157.552 15.039M188.661 13.3978L188.523 13.5995L187.678 14.8304L187.535 15.039M188.661 13.3978L189.746 11.8171M188.661 13.3978H218.081M160.87 11.8171H189.746M160.87 11.8171H131.993M160.87 11.8171L162.438 10.2936M189.746 11.8171L190.143 11.2392L190.274 11.0483L190.405 10.8583L190.792 10.2936M189.746 11.8171H218.623M165.411 7.40628H192.773M165.411 7.40628L166.473 6.37501L166.82 6.03698M165.411 7.40628H138.047M165.411 7.40628L164.869 7.93214L164.687 8.10893L164.504 8.28665L163.95 8.82429M192.773 7.40628L192.893 7.23255L193.13 6.88723L193.365 6.54497L193.713 6.03698M192.773 7.40628L192.291 8.10893L192.17 8.28665L191.924 8.64422L191.801 8.82429M192.773 7.40628H220.137M166.82 6.03698H193.713M166.82 6.03698L168.014 4.87696L168.183 4.71406M166.82 6.03698H139.927M193.713 6.03698L193.829 5.86915L193.943 5.70201L194.058 5.53559L194.171 5.36987L194.51 4.87696L194.622 4.71406M193.713 6.03698H220.607M321.261 142.605H395.023M321.261 142.605L317.943 132.937M321.261 142.605H247.5M321.261 142.605L324.908 153.229M395.023 142.605L388.387 132.937M395.023 142.605L402.315 153.229M395.023 142.605H468.785M317.943 132.937H388.387M317.943 132.937H247.5M317.943 132.937L314.911 124.101M388.387 132.937L382.322 124.101M388.387 132.937H458.831M309.567 108.531H371.635M309.567 108.531L307.201 101.636M309.567 108.531H247.5M309.567 108.531L312.129 115.995M371.635 108.531L366.903 101.636M371.635 108.531L376.758 115.995M371.635 108.531H433.703M307.201 101.636H366.903M307.201 101.636H247.5M307.201 101.636L305.009 95.2475M366.903 101.636L362.518 95.2475M366.903 101.636H426.604M301.074 83.7819H354.649M301.074 83.7819L299.302 78.618M301.074 83.7819H247.5M301.074 83.7819L302.972 89.3115M354.649 83.7819L351.104 78.618M354.649 83.7819L358.444 89.3115M354.649 83.7819H408.223M299.302 78.618H351.104M299.302 78.618H247.5M299.302 78.618L297.643 73.7849M351.104 78.618L347.787 73.7849M351.104 78.618H402.906M294.626 64.991H341.751M294.626 64.991L293.249 60.9796M294.626 64.991H247.5M294.626 64.991L296.088 69.2516M341.751 64.991L338.998 60.9796M341.751 64.991L344.675 69.2516M341.751 64.991H388.876M293.249 60.9796H338.998M293.249 60.9796H247.5M293.249 60.9796L291.95 57.1956M338.998 60.9796L336.4 57.1956M338.998 60.9796H384.746M289.562 50.2378H331.624M289.562 50.2378L288.462 47.032M289.562 50.2378H247.5M289.562 50.2378L290.724 53.6209M331.624 50.2378L329.425 47.032M331.624 50.2378L333.947 53.6209M331.624 50.2378H373.687M288.462 47.032H329.425M288.462 47.032H247.5M288.462 47.032L287.418 43.9895M329.425 47.032L327.336 43.9895M329.425 47.032H370.387M285.482 38.3473H323.464M285.482 38.3473L284.582 35.7267M285.482 38.3473H247.5M285.482 38.3473L286.426 41.0984M323.464 38.3473L321.664 35.7267M323.464 38.3473L325.352 41.0984M323.464 38.3473H361.445M284.582 35.7267H321.664M284.582 35.7267H247.5M284.582 35.7267L283.725 33.2272M321.664 35.7267L319.949 33.2272M321.664 35.7267H358.747M282.123 28.5598H316.746M282.123 28.5598L281.374 26.3777M282.123 28.5598H247.5M282.123 28.5598L282.906 30.8408M316.746 28.5598L315.431 26.6454L315.248 26.3777M316.746 28.5598L318.311 30.8408M316.746 28.5598H351.368M281.374 26.3777L281.283 26.1115L280.657 24.2879M281.374 26.3777H315.248M281.374 26.3777H247.5M315.248 26.3777L314.702 25.5835L314.523 25.3215L314.344 25.0611L313.814 24.2879M315.248 26.3777H349.121M279.31 20.3629H311.12M279.31 20.3629L278.676 18.5176M279.31 20.3629H247.5M279.31 20.3629L279.554 21.0743L279.636 21.3139L279.719 21.5547L279.885 22.0401L279.97 22.2847M311.12 20.3629L310.165 18.9719L309.853 18.5176M311.12 20.3629L312.438 22.2847M311.12 20.3629H342.929M278.676 18.5176H309.853M278.676 18.5176H247.5M278.676 18.5176L278.068 16.7444M309.853 18.5176L309.087 17.4012L308.935 17.1811L308.786 16.9621L308.636 16.7444M309.853 18.5176H341.029M276.919 13.3978H306.339M276.919 13.3978L276.377 11.8171M276.919 13.3978H247.5M276.919 13.3978L277.483 15.039M306.339 13.3978L306.477 13.5995L307.322 14.8304L307.465 15.039M306.339 13.3978L305.254 11.8171M306.339 13.3978H335.758M276.377 11.8171H305.254M276.377 11.8171H247.5M276.377 11.8171L275.854 10.2936M305.254 11.8171L304.857 11.2392L304.726 11.0483L304.595 10.8583L304.208 10.2936M305.254 11.8171H334.13M274.863 7.40628H302.227M274.863 7.40628L274.393 6.03698M274.863 7.40628H247.5M274.863 7.40628L275.35 8.82429M302.227 7.40628L302.107 7.23255L301.87 6.88723L301.752 6.71562L301.518 6.37501L301.402 6.20552L301.286 6.03698M302.227 7.40628L302.709 8.10893L302.83 8.28665L303.076 8.64422L303.199 8.82429M302.227 7.40628H329.589M274.393 6.03698L274.336 5.86915L274.278 5.70201L274.221 5.53559L273.939 4.71406M274.393 6.03698H301.286M274.393 6.03698H247.5M301.286 6.03698H328.18M301.286 6.03698L301.057 5.70201L300.942 5.53559L300.829 5.36987L300.49 4.87696L300.378 4.71406M616.308 142.605H690.069M616.308 142.605L599.718 132.937M616.308 142.605H542.547M616.308 142.605L634.538 153.229M690.069 142.605L670.161 132.937M690.069 142.605L711.945 153.229M690.069 142.605H763.831M599.718 132.937H670.161M599.718 132.937H529.274M599.718 132.937L584.556 124.101M670.161 132.937L651.967 124.101M670.161 132.937H740.605M557.838 108.531H619.906M557.838 108.531L546.007 101.636M557.838 108.531H495.771M557.838 108.531L570.646 115.995M619.906 108.531L605.709 101.636M619.906 108.531L635.275 115.995M619.906 108.531H681.974M546.007 101.636H605.709M546.007 101.636H486.306M546.007 101.636L535.045 95.2475M605.709 101.636L592.554 95.2475M605.709 101.636H665.41M515.371 83.7819H568.945M515.371 83.7819L506.51 78.618M515.371 83.7819H461.797M515.371 83.7819L524.86 89.3115M568.945 83.7819L558.313 78.618M568.945 83.7819L580.331 89.3115M568.945 83.7819H622.519M506.51 78.618H558.313M506.51 78.618H454.708M506.51 78.618L498.217 73.7849M558.313 78.618L548.36 73.7849M558.313 78.618H610.114M483.127 64.991H530.253M483.127 64.991L476.244 60.9796M483.127 64.991H436.002M483.127 64.991L490.438 69.2516M530.253 64.991L521.993 60.9796M530.253 64.991L539.026 69.2516M530.253 64.991H577.378M476.244 60.9796H521.993M476.244 60.9796H430.495M476.244 60.9796L469.751 57.1956M521.993 60.9796L514.201 57.1956M521.993 60.9796H567.741M457.812 50.2378H499.874M457.812 50.2378L452.311 47.032M457.812 50.2378H415.75M457.812 50.2378L463.617 53.6209M499.874 50.2378L493.273 47.032M499.874 50.2378L506.84 53.6209M499.874 50.2378H541.937M452.311 47.032H493.273M452.311 47.032H411.349M452.311 47.032L447.09 43.9895M493.273 47.032L487.009 43.9895M493.273 47.032H534.235M437.409 38.3473H475.39M437.409 38.3473L432.912 35.7267M437.409 38.3473H399.427M437.409 38.3473L442.129 41.0984M475.39 38.3473L469.994 35.7267M475.39 38.3473L481.055 41.0984M475.39 38.3473H513.372M432.912 35.7267H469.994M432.912 35.7267H395.83M432.912 35.7267L428.623 33.2272M469.994 35.7267L464.847 33.2272M469.994 35.7267H507.076M420.614 28.5598L421.093 28.8395L421.576 29.1205L424.528 30.8408M420.614 28.5598H455.237M420.614 28.5598L416.869 26.3777M420.614 28.5598H385.991M455.237 28.5598L450.743 26.3777M455.237 28.5598L459.933 30.8408M455.237 28.5598H489.86M416.869 26.3777H450.743M416.869 26.3777H382.996M416.869 26.3777L413.284 24.2879M450.743 26.3777L446.44 24.2879M450.743 26.3777H484.617M406.548 20.3629H438.358M406.548 20.3629L403.382 18.5176M406.548 20.3629H374.739M406.548 20.3629L409.846 22.2847M438.358 20.3629L435.965 19.201L434.559 18.5176M438.358 20.3629L442.315 22.2847M438.358 20.3629H470.168M403.382 18.5176H434.559M403.382 18.5176H372.206M403.382 18.5176L400.714 16.9621L400.339 16.7444M434.559 18.5176L430.907 16.7444M434.559 18.5176H465.735M394.597 13.3978H424.016M394.597 13.3978L393.909 12.9969L391.885 11.8171M394.597 13.3978H365.178M394.597 13.3978L395.291 13.8022L396.699 14.6228L397.413 15.039M424.016 13.3978L420.762 11.8171M424.016 13.3978L425.268 14.006L426.113 14.4163L427.396 15.039M424.016 13.3978H453.436M391.885 11.8171H420.762M391.885 11.8171H363.007M391.885 11.8171L389.915 10.6691L389.27 10.2936M420.762 11.8171L419.571 11.2392L418.787 10.8583L417.624 10.2936M420.762 11.8171H449.638M384.316 7.40628H411.679M384.316 7.40628L382.838 6.54497L381.966 6.03698M384.316 7.40628H356.953M384.316 7.40628L386.749 8.82429M411.679 7.40628L409.555 6.37501L409.207 6.20552L408.859 6.03698M411.679 7.40628L413.126 8.10893L414.599 8.82429M411.679 7.40628H439.042M381.966 6.03698H408.859M381.966 6.03698L380.822 5.36987L380.257 5.04055L379.976 4.87696L379.696 4.71406M381.966 6.03698H355.073M408.859 6.03698H435.753M408.859 6.03698L406.135 4.71406M784.813 101.636H725.112M784.813 101.636L765.082 95.2475M784.813 101.636H802.701M784.813 101.636L802.701 107.427M729.668 83.7819H783.242M729.668 83.7819L713.719 78.618M729.668 83.7819H676.094M729.668 83.7819L746.747 89.3115M783.242 83.7819L765.521 78.618M783.242 83.7819L802.219 89.3115M783.242 83.7819H802.701M713.719 78.618H765.521M713.719 78.618H661.916M713.719 78.618L698.79 73.7849M765.521 78.618L748.933 73.7849M765.521 78.618H802.701M671.629 64.991H718.755M671.629 64.991L659.239 60.9796M671.629 64.991H624.503M671.629 64.991L684.788 69.2516M718.755 64.991L704.988 60.9796M718.755 64.991L733.376 69.2516M718.755 64.991H765.88M659.239 60.9796H704.988M659.239 60.9796H613.49M659.239 60.9796L647.552 57.1956M704.988 60.9796L692.002 57.1956M704.988 60.9796H750.737M626.062 50.2378H668.124M626.062 50.2378L616.16 47.032M626.062 50.2378H583.999M626.062 50.2378L636.51 53.6209M668.124 50.2378L657.122 47.032M668.124 50.2378L679.734 53.6209M668.124 50.2378H710.187M616.16 47.032H657.122M616.16 47.032H575.198M616.16 47.032L606.762 43.9895M657.122 47.032L646.68 43.9895M657.122 47.032H698.084M589.335 38.3473H627.317M589.335 38.3473L581.241 35.7267M589.335 38.3473H551.354M589.335 38.3473L597.832 41.0984M627.317 38.3473L618.323 35.7267M627.317 38.3473L636.758 41.0984M627.317 38.3473H665.299M581.241 35.7267H618.323M581.241 35.7267H544.159M581.241 35.7267L573.521 33.2272M618.323 35.7267L609.746 33.2272M618.323 35.7267H655.406M559.105 28.5598H593.728M559.105 28.5598L552.365 26.3777M559.105 28.5598H524.482M559.105 28.5598L566.15 30.8408M593.728 28.5598L586.239 26.3777M593.728 28.5598L601.556 30.8408M593.728 28.5598H628.351M552.365 26.3777H586.239M552.365 26.3777H518.491M552.365 26.3777L545.91 24.2879M586.239 26.3777L579.067 24.2879M586.239 26.3777H620.113M533.787 20.3629H565.597M533.787 20.3629L528.088 18.5176M533.787 20.3629H501.977M533.787 20.3629L539.723 22.2847M565.597 20.3629L559.264 18.5176M565.597 20.3629L572.193 22.2847M565.597 20.3629H597.407M528.088 18.5176H559.264M528.088 18.5176H496.911M528.088 18.5176L522.611 16.7444M559.264 18.5176L553.179 16.7444M559.264 18.5176H590.441M512.274 13.3978H541.694M512.274 13.3978L507.392 11.8171M512.274 13.3978H482.855M512.274 13.3978L513.524 13.8022L514.153 14.006L517.344 15.039M541.694 13.3978L536.269 11.8171M541.694 13.3978L547.326 15.039M541.694 13.3978H571.113M507.392 11.8171H536.269M507.392 11.8171H478.515M507.392 11.8171L502.687 10.2936M536.269 11.8171L531.041 10.2936M536.269 11.8171H565.146M493.769 7.40628H521.132M493.769 7.40628L489.539 6.03698M493.769 7.40628H466.405M493.769 7.40628L498.148 8.82429M521.132 7.40628L517.592 6.37501L517.011 6.20552L516.432 6.03698M521.132 7.40628L525.998 8.82429M521.132 7.40628H548.495M489.539 6.03698H516.432M489.539 6.03698L485.957 4.87696L485.453 4.71406M489.539 6.03698H462.646M516.432 6.03698H543.326M516.432 6.03698L511.893 4.71406M794.311 50.2378L780.008 47.032M794.311 50.2378H752.249M794.311 50.2378L802.701 52.1184M794.311 50.2378H802.701M780.008 47.032H739.046M780.008 47.032L766.435 43.9895M780.008 47.032H802.701M741.262 38.3473H779.244M741.262 38.3473L729.57 35.7267M741.262 38.3473H703.281M741.262 38.3473L753.536 41.0984M779.244 38.3473L766.653 35.7267M779.244 38.3473L792.462 41.0984M779.244 38.3473H802.701M729.57 35.7267H766.653M729.57 35.7267H692.488M729.57 35.7267L718.419 33.2272M766.653 35.7267L754.644 33.2272M766.653 35.7267H802.701M697.596 28.5598H732.219M697.596 28.5598L687.861 26.3777M697.596 28.5598H662.974M697.596 28.5598L707.773 30.8408M732.219 28.5598L721.734 26.3777M732.219 28.5598L743.178 30.8408M732.219 28.5598H766.842M687.861 26.3777H721.734M687.861 26.3777H653.986M687.861 26.3777L678.537 24.2879M721.734 26.3777L711.694 24.2879M721.734 26.3777H755.608M661.026 20.3629H692.835M661.026 20.3629L652.793 18.5176M661.026 20.3629H629.216M661.026 20.3629L669.6 22.2847M692.835 20.3629L683.97 18.5176M692.835 20.3629L702.069 22.2847M692.835 20.3629H724.646M652.793 18.5176H683.97M652.793 18.5176H621.617M652.793 18.5176L644.882 16.7444M683.97 18.5176L675.45 16.7444M683.97 18.5176H715.146M629.952 13.3978H659.371M629.952 13.3978L622.9 11.8171M629.952 13.3978H600.533M629.952 13.3978L637.274 15.039M659.371 13.3978L651.777 11.8171M659.371 13.3978L667.257 15.039M659.371 13.3978H688.791M622.9 11.8171H651.777M622.9 11.8171H594.022M622.9 11.8171L616.103 10.2936M651.777 11.8171L644.457 10.2936M651.777 11.8171H680.653M603.221 7.40628H630.585M603.221 7.40628L597.112 6.03698M603.221 7.40628H575.858M603.221 7.40628L609.547 8.82429M630.585 7.40628L624.006 6.03698M630.585 7.40628L637.397 8.82429M630.585 7.40628H657.948M597.112 6.03698H624.006M597.112 6.03698L591.21 4.71406M597.112 6.03698H570.219M624.006 6.03698H650.899M624.006 6.03698L617.649 4.71406M788.265 20.3629L777.499 18.5176M788.265 20.3629H756.455M788.265 20.3629L799.477 22.2847M788.265 20.3629H802.701M777.499 18.5176H746.323M777.499 18.5176L767.154 16.7444M777.499 18.5176H802.701M747.629 13.3978H777.048M747.629 13.3978L738.407 11.8171M747.629 13.3978H718.21M747.629 13.3978L757.205 15.039M777.048 13.3978L767.284 11.8171M777.048 13.3978L787.187 15.039M777.048 13.3978H802.701M738.407 11.8171H767.284M738.407 11.8171H709.53M738.407 11.8171L729.519 10.2936M767.284 11.8171L757.873 10.2936M767.284 11.8171H796.161M712.674 7.40628H740.037M712.674 7.40628L704.685 6.03698M712.674 7.40628H685.311M712.674 7.40628L720.947 8.82429M740.037 7.40628L731.579 6.03698M740.037 7.40628L748.796 8.82429M740.037 7.40628H767.401M704.685 6.03698H731.579M704.685 6.03698L696.967 4.71406M704.685 6.03698H677.792M731.579 6.03698H758.472M731.579 6.03698L723.406 4.71406M748.796 8.82429L757.873 10.2936M748.796 8.82429H776.646M748.796 8.82429H720.947M767.401 7.40628L758.472 6.03698M767.401 7.40628L776.646 8.82429M767.401 7.40628H794.763M758.472 6.03698H785.366M758.472 6.03698L749.845 4.71406M723.406 4.71406H696.967M723.406 4.71406H749.845M723.406 4.71406L715.505 3.43493M776.646 8.82429L786.227 10.2936M776.646 8.82429H802.701M794.763 7.40628L785.366 6.03698M794.763 7.40628L802.701 8.56266M794.763 7.40628H802.701M785.366 6.03698L776.284 4.71406M785.366 6.03698H802.701M749.845 4.71406H776.284M749.845 4.71406L741.505 3.43493M776.284 4.71406L767.505 3.43493M776.284 4.71406H802.701M757.873 10.2936H786.227M757.873 10.2936H729.519M796.161 11.8171L786.227 10.2936M796.161 11.8171L802.701 12.8199M796.161 11.8171H802.701M786.227 10.2936H802.701M729.519 10.2936H701.165M729.519 10.2936L720.947 8.82429M720.947 8.82429H693.097M787.187 15.039L797.722 16.7444M787.187 15.039H757.205M787.187 15.039H802.701M802.791 13.3978H802.701M797.722 16.7444H767.154M797.722 16.7444L802.701 17.5504M797.722 16.7444H802.701M767.154 16.7444H736.586M767.154 16.7444L757.205 15.039M757.205 15.039H727.222M637.397 8.82429L644.457 10.2936M637.397 8.82429H665.247M637.397 8.82429H609.547M657.948 7.40628L650.899 6.03698M657.948 7.40628L665.247 8.82429M657.948 7.40628H685.311M650.899 6.03698H677.792M650.899 6.03698L644.088 4.71406M617.649 4.71406H644.088M617.649 4.71406L611.504 3.43493M617.649 4.71406H591.21M665.247 8.82429L672.811 10.2936M665.247 8.82429H693.097M685.311 7.40628L677.792 6.03698M685.311 7.40628L693.097 8.82429M677.792 6.03698L670.528 4.71406M644.088 4.71406H670.528M644.088 4.71406L637.504 3.43493M693.097 8.82429L701.165 10.2936M696.967 4.71406H670.528M696.967 4.71406L689.504 3.43493M670.528 4.71406L663.504 3.43493M644.457 10.2936H672.811M644.457 10.2936H616.103M680.653 11.8171L672.811 10.2936M680.653 11.8171L688.791 13.3978M680.653 11.8171H709.53M672.811 10.2936H701.165M616.103 10.2936H587.749M616.103 10.2936L609.547 8.82429M701.165 10.2936L709.53 11.8171M609.547 8.82429H581.698M688.791 13.3978L697.239 15.039M688.791 13.3978H718.21M709.53 11.8171L718.21 13.3978M718.21 13.3978L727.222 15.039M667.257 15.039L675.45 16.7444M667.257 15.039H697.239M667.257 15.039H637.274M697.239 15.039L706.018 16.7444M697.239 15.039H727.222M727.222 15.039L736.586 16.7444M675.45 16.7444H706.018M675.45 16.7444H644.882M715.146 18.5176L706.018 16.7444M715.146 18.5176L724.646 20.3629M715.146 18.5176H746.323M706.018 16.7444H736.586M644.882 16.7444H614.314M644.882 16.7444L637.274 15.039M736.586 16.7444L746.323 18.5176M637.274 15.039H607.292M724.646 20.3629L734.539 22.2847M724.646 20.3629H756.455M746.323 18.5176L756.455 20.3629M756.455 20.3629L767.007 22.2847M702.069 22.2847L711.694 24.2879M702.069 22.2847H734.539M702.069 22.2847H669.6M734.539 22.2847L744.85 24.2879M734.539 22.2847H767.007M767.007 22.2847L778.007 24.2879M767.007 22.2847H799.477M799.477 22.2847H802.701M799.477 22.2847L802.701 22.8372M711.694 24.2879H744.85M711.694 24.2879H678.537M755.608 26.3777L744.85 24.2879M755.608 26.3777L766.842 28.5598M755.608 26.3777H789.482M744.85 24.2879H778.007M678.537 24.2879H645.38M678.537 24.2879L669.6 22.2847M778.007 24.2879L789.482 26.3777M778.007 24.2879H802.701M669.6 22.2847H637.131M766.842 28.5598L778.583 30.8408M766.842 28.5598H801.465M789.482 26.3777L801.465 28.5598M789.482 26.3777H802.701M802.875 24.2879H802.701M801.465 28.5598L802.701 28.785M801.465 28.5598H802.701M743.178 30.8408L754.644 33.2272M743.178 30.8408H778.583M743.178 30.8408H707.773M778.583 30.8408L790.868 33.2272M778.583 30.8408H802.701M803 28.8395L802.701 28.785M754.644 33.2272H790.868M754.644 33.2272H718.419M790.868 33.2272H802.701M790.868 33.2272L802.701 35.5258M718.419 33.2272H682.195M718.419 33.2272L707.773 30.8408M707.773 30.8408H672.367M792.462 41.0984H753.536M792.462 41.0984L802.701 43.2295M792.462 41.0984H802.701M802.983 38.3473H802.701M753.536 41.0984H714.61M753.536 41.0984L766.435 43.9895M802.814 43.2529L802.701 43.2295M525.998 8.82429L531.041 10.2936M525.998 8.82429H553.848M525.998 8.82429H498.148M548.495 7.40628L543.326 6.03698M548.495 7.40628L553.848 8.82429M548.495 7.40628H575.858M543.326 6.03698H570.219M543.326 6.03698L538.332 4.71406M511.893 4.71406H538.332M511.893 4.71406L510.229 4.22938L507.502 3.43493M511.893 4.71406H485.453M553.848 8.82429L559.395 10.2936M553.848 8.82429H581.698M575.858 7.40628L570.219 6.03698M575.858 7.40628L581.698 8.82429M570.219 6.03698L564.771 4.71406M538.332 4.71406H564.771M538.332 4.71406L533.503 3.43493M581.698 8.82429L587.749 10.2936M591.21 4.71406L585.503 3.43493M591.21 4.71406H564.771M564.771 4.71406L564.103 4.55164L562.774 4.22938L559.503 3.43493M531.041 10.2936H559.395M531.041 10.2936H502.687M565.146 11.8171L559.395 10.2936M565.146 11.8171L571.113 13.3978M565.146 11.8171H594.022M559.395 10.2936H587.749M502.687 10.2936H474.333M502.687 10.2936L498.148 8.82429M587.749 10.2936L594.022 11.8171M498.148 8.82429H470.298M571.113 13.3978L577.309 15.039M571.113 13.3978H600.533M594.022 11.8171L594.823 12.0113L600.533 13.3978M600.533 13.3978L607.292 15.039M547.326 15.039L548.045 15.2487L553.179 16.7444M547.326 15.039H577.309M547.326 15.039H517.344M577.309 15.039L583.747 16.7444M577.309 15.039H607.292M607.292 15.039L614.314 16.7444M553.179 16.7444H583.747M553.179 16.7444H522.611M590.441 18.5176L583.747 16.7444M590.441 18.5176L597.407 20.3629M590.441 18.5176H621.617M583.747 16.7444H614.314M522.611 16.7444H492.043M522.611 16.7444L517.344 15.039M614.314 16.7444L621.617 18.5176M517.344 15.039H487.361M597.407 20.3629L604.661 22.2847M597.407 20.3629H629.216M621.617 18.5176L629.216 20.3629M629.216 20.3629L637.131 22.2847M572.193 22.2847L579.067 24.2879M572.193 22.2847H604.661M572.193 22.2847H539.723M604.661 22.2847L612.224 24.2879M604.661 22.2847H637.131M637.131 22.2847L645.38 24.2879M579.067 24.2879H612.224M579.067 24.2879H545.91M620.113 26.3777L612.224 24.2879M620.113 26.3777L628.351 28.5598M620.113 26.3777H653.986M612.224 24.2879H645.38M545.91 24.2879H512.754M545.91 24.2879L539.723 22.2847M645.38 24.2879L653.986 26.3777M539.723 22.2847H507.254M628.351 28.5598L636.961 30.8408M628.351 28.5598H662.974M653.986 26.3777L662.974 28.5598M662.974 28.5598L672.367 30.8408M601.556 30.8408L609.746 33.2272M601.556 30.8408H636.961M601.556 30.8408H566.15M636.961 30.8408L645.97 33.2272M636.961 30.8408H672.367M672.367 30.8408L682.195 33.2272M609.746 33.2272H645.97M609.746 33.2272H573.521M655.406 35.7267L645.97 33.2272M655.406 35.7267L665.299 38.3473M655.406 35.7267H692.488M645.97 33.2272H682.195M573.521 33.2272H537.296M573.521 33.2272L566.15 30.8408M682.195 33.2272L692.488 35.7267M566.15 30.8408H530.744M665.299 38.3473L675.684 41.0984M665.299 38.3473H703.281M692.488 35.7267L703.281 38.3473M703.281 38.3473L714.61 41.0984M636.758 41.0984L646.68 43.9895M636.758 41.0984H675.684M636.758 41.0984H597.832M675.684 41.0984L686.599 43.9895M675.684 41.0984H714.61M714.61 41.0984L726.516 43.9895M646.68 43.9895H686.599M646.68 43.9895H606.762M698.084 47.032L686.599 43.9895M698.084 47.032L710.187 50.2378M698.084 47.032H739.046M686.599 43.9895H726.516M606.762 43.9895H566.844M606.762 43.9895L597.832 41.0984M726.516 43.9895L739.046 47.032M726.516 43.9895H766.435M597.832 41.0984H558.906M710.187 50.2378L722.957 53.6209M710.187 50.2378H752.249M739.046 47.032L752.249 50.2378M766.435 43.9895H802.701M752.249 50.2378L766.18 53.6209M679.734 53.6209L692.002 57.1956M679.734 53.6209H722.957M679.734 53.6209H636.51M722.957 53.6209L736.452 57.1956M722.957 53.6209H766.18M766.18 53.6209L780.902 57.1956M766.18 53.6209H802.701M692.002 57.1956H736.452M692.002 57.1956H647.552M750.737 60.9796L736.452 57.1956M750.737 60.9796L765.88 64.991M750.737 60.9796H796.485M736.452 57.1956H780.902M647.552 57.1956H603.102M647.552 57.1956L636.51 53.6209M780.902 57.1956L796.485 60.9796M780.902 57.1956H802.701M636.51 53.6209H593.287M765.88 64.991L781.964 69.2516M765.88 64.991H802.701M796.485 60.9796H802.701M796.485 60.9796L802.701 62.4889M733.376 69.2516L748.933 73.7849M733.376 69.2516H781.964M733.376 69.2516H684.788M781.964 69.2516L799.077 73.7849M781.964 69.2516H802.701M748.933 73.7849H799.077M748.933 73.7849H698.79M799.077 73.7849L802.701 74.7449M799.077 73.7849H802.701M698.79 73.7849H648.647M698.79 73.7849L684.788 69.2516M684.788 69.2516H636.201M802.219 89.3115H746.747M802.219 89.3115H802.701M802.219 89.3115L802.701 89.4519M746.747 89.3115H691.276M746.747 89.3115L765.082 95.2475M414.599 8.82429L415.721 9.369L416.098 9.55237L417.624 10.2936M414.599 8.82429H442.448M414.599 8.82429H386.749M439.042 7.40628L436.564 6.37501L435.753 6.03698M439.042 7.40628L442.016 8.64422L442.448 8.82429M439.042 7.40628H466.405M435.753 6.03698H462.646M435.753 6.03698L432.575 4.71406M406.135 4.71406H432.575M406.135 4.71406L405.137 4.22938L403.502 3.43493M406.135 4.71406H379.696M442.448 8.82429L443.319 9.18657L445.979 10.2936M442.448 8.82429H470.298M466.405 7.40628L462.646 6.03698M466.405 7.40628L470.298 8.82429M462.646 6.03698L459.91 5.04055L459.014 4.71406M432.575 4.71406H459.014M432.575 4.71406L429.502 3.43493M470.298 8.82429L474.333 10.2936M485.453 4.71406L484.952 4.55164L481.502 3.43493M485.453 4.71406H459.014M459.014 4.71406L457.683 4.22938L455.502 3.43493M417.624 10.2936H445.979M417.624 10.2936H389.27M449.638 11.8171L445.979 10.2936M449.638 11.8171L453.436 13.3978M449.638 11.8171H478.515M445.979 10.2936H474.333M389.27 10.2936H360.916M389.27 10.2936L386.749 8.82429M474.333 10.2936L478.515 11.8171M386.749 8.82429H358.899M453.436 13.3978L455.882 14.4163L456.379 14.6228L457.378 15.039M453.436 13.3978H482.855M478.515 11.8171L482.855 13.3978M482.855 13.3978L487.361 15.039M427.396 15.039L430.907 16.7444M427.396 15.039H457.378M427.396 15.039H397.413M457.378 15.039L461.475 16.7444M457.378 15.039H487.361M487.361 15.039L492.043 16.7444M430.907 16.7444H461.475M430.907 16.7444H400.339M465.735 18.5176L463.053 17.4012L462.525 17.1811L461.475 16.7444M465.735 18.5176L470.168 20.3629M465.735 18.5176H496.911M461.475 16.7444H492.043M400.339 16.7444H369.772M400.339 16.7444L397.413 15.039M492.043 16.7444L496.911 18.5176M397.413 15.039H367.43M470.168 20.3629L474.785 22.2847M470.168 20.3629H501.977M496.911 18.5176L501.977 20.3629M501.977 20.3629L507.254 22.2847M442.315 22.2847L444.356 23.2757L444.873 23.5268L446.44 24.2879M442.315 22.2847H474.785M442.315 22.2847H409.846M474.785 22.2847L479.597 24.2879M474.785 22.2847H507.254M507.254 22.2847L512.754 24.2879M446.44 24.2879H479.597M446.44 24.2879H413.284M484.617 26.3777L479.597 24.2879M484.617 26.3777L489.86 28.5598M484.617 26.3777H518.491M479.597 24.2879H512.754M413.284 24.2879H380.127M413.284 24.2879L412.41 23.7792L409.846 22.2847M512.754 24.2879L518.491 26.3777M409.846 22.2847H377.377M489.86 28.5598L495.339 30.8408M489.86 28.5598H524.482M518.491 26.3777L524.482 28.5598M524.482 28.5598L530.744 30.8408M459.933 30.8408L464.847 33.2272M459.933 30.8408H495.339M459.933 30.8408H424.528M495.339 30.8408L501.072 33.2272M495.339 30.8408H530.744M530.744 30.8408L537.296 33.2272M464.847 33.2272H501.072M464.847 33.2272H428.623M507.076 35.7267L501.072 33.2272M507.076 35.7267L513.372 38.3473M507.076 35.7267H544.159M501.072 33.2272H537.296M428.623 33.2272H392.398M428.623 33.2272L424.528 30.8408M537.296 33.2272L544.159 35.7267M424.528 30.8408H389.123M513.372 38.3473L519.98 41.0984M513.372 38.3473H551.354M544.159 35.7267L551.354 38.3473M551.354 38.3473L558.906 41.0984M481.055 41.0984L487.009 43.9895M481.055 41.0984H519.98M481.055 41.0984H442.129M519.98 41.0984L526.926 43.9895M519.98 41.0984H558.906M558.906 41.0984L566.844 43.9895M487.009 43.9895H526.926M487.009 43.9895H447.09M534.235 47.032L526.926 43.9895M534.235 47.032L541.937 50.2378M534.235 47.032H575.198M526.926 43.9895H566.844M447.09 43.9895H407.172M447.09 43.9895L442.129 41.0984M566.844 43.9895L575.198 47.032M442.129 41.0984H403.203M541.937 50.2378L550.064 53.6209M541.937 50.2378H583.999M575.198 47.032L583.999 50.2378M583.999 50.2378L593.287 53.6209M506.84 53.6209L514.201 57.1956M506.84 53.6209H550.064M506.84 53.6209H463.617M550.064 53.6209L558.651 57.1956M550.064 53.6209H593.287M593.287 53.6209L603.102 57.1956M514.201 57.1956H558.651M514.201 57.1956H469.751M567.741 60.9796L558.651 57.1956M567.741 60.9796L577.378 64.991M567.741 60.9796H613.49M558.651 57.1956H603.102M469.751 57.1956H425.301M469.751 57.1956L463.617 53.6209M603.102 57.1956L613.49 60.9796M463.617 53.6209H420.394M577.378 64.991L587.613 69.2516M577.378 64.991H624.503M613.49 60.9796L624.503 64.991M624.503 64.991L636.201 69.2516M539.026 69.2516L548.36 73.7849M539.026 69.2516H587.613M539.026 69.2516H490.438M587.613 69.2516L598.503 73.7849M587.613 69.2516H636.201M636.201 69.2516L648.647 73.7849M548.36 73.7849H598.503M548.36 73.7849H498.217M610.114 78.618L598.503 73.7849M610.114 78.618L622.519 83.7819M610.114 78.618H661.916M598.503 73.7849H648.647M498.217 73.7849H448.073M498.217 73.7849L490.438 69.2516M648.647 73.7849L661.916 78.618M490.438 69.2516H441.85M622.519 83.7819L635.804 89.3115M622.519 83.7819H676.094M661.916 78.618L676.094 83.7819M676.094 83.7819L691.276 89.3115M580.331 89.3115L592.554 95.2475M580.331 89.3115H635.804M580.331 89.3115H524.86M635.804 89.3115L650.063 95.2475M635.804 89.3115H691.276M691.276 89.3115L707.572 95.2475M592.554 95.2475H650.063M592.554 95.2475H535.045M665.41 101.636L650.063 95.2475M665.41 101.636L681.974 108.531M665.41 101.636H725.112M650.063 95.2475H707.572M535.045 95.2475H477.536M535.045 95.2475L524.86 89.3115M707.572 95.2475L725.112 101.636M707.572 95.2475H765.082M524.86 89.3115H469.388M681.974 108.531L699.904 115.995M681.974 108.531H744.041M725.112 101.636L744.041 108.531M765.082 95.2475H802.701M744.041 108.531L764.534 115.995M744.041 108.531H802.701M635.275 115.995L651.967 124.101M635.275 115.995H699.904M635.275 115.995H570.646M699.904 115.995L719.379 124.101M699.904 115.995H764.534M764.534 115.995L786.79 124.101M764.534 115.995H802.701M651.967 124.101H719.379M651.967 124.101H584.556M740.605 132.937L719.379 124.101M740.605 132.937L763.831 142.605M740.605 132.937H802.701M719.379 124.101H786.79M584.556 124.101H517.145M584.556 124.101L570.646 115.995M786.79 124.101H802.701M786.79 124.101L802.701 129.897M570.646 115.995H506.017M763.831 142.605L789.353 153.229M763.831 142.605H802.701M711.945 153.229L736.097 164.958M711.945 153.229H789.353M711.945 153.229H634.538M789.353 153.229L802.701 158.786M789.353 153.229H802.701M736.097 164.958H654.664M736.097 164.958L802.701 164.958M654.664 164.958H573.231M654.664 164.958L634.538 153.229M634.538 153.229H557.13M303.199 8.82429L303.324 9.00508L303.448 9.18657L303.574 9.369L303.699 9.55237L304.08 10.107L304.208 10.2936M303.199 8.82429H331.05M303.199 8.82429H275.35M329.589 7.40628L328.528 6.37501L328.18 6.03698M329.589 7.40628L330.496 8.28665L331.05 8.82429M329.589 7.40628H356.953M328.18 6.03698H355.073M328.18 6.03698L327.154 5.04055L326.817 4.71406M300.378 4.71406L300.267 4.55164L299.827 3.90948L299.5 3.43493M300.378 4.71406H326.817M300.378 4.71406H273.939M331.05 8.82429L331.235 9.00508L331.423 9.18657L331.61 9.369L331.799 9.55237L332.562 10.2936M331.05 8.82429H358.899M356.953 7.40628L355.537 6.37501L355.073 6.03698M356.953 7.40628L358.899 8.82429M355.073 6.03698L354.157 5.36987L353.48 4.87696L353.257 4.71406M326.817 4.71406L326.651 4.55164L326.319 4.22938L325.989 3.90948L325.826 3.75059L325.501 3.43493M326.817 4.71406H353.257M358.899 8.82429L360.405 9.92124L360.916 10.2936M379.696 4.71406L378.043 3.75059L377.501 3.43493M379.696 4.71406H353.257M353.257 4.71406L351.718 3.59241L351.501 3.43493M304.208 10.2936H332.562M304.208 10.2936H275.854M334.13 11.8171L332.562 10.2936M334.13 11.8171L335.758 13.3978M334.13 11.8171H363.007M332.562 10.2936H360.916M275.854 10.2936H247.5M275.854 10.2936L275.35 8.82429M360.916 10.2936L363.007 11.8171M275.35 8.82429H247.5M335.758 13.3978L336.175 13.8022L336.807 14.4163L337.448 15.039M335.758 13.3978H365.178M363.007 11.8171L363.274 12.0113L365.178 13.3978M365.178 13.3978L365.454 13.5995L365.733 13.8022L366.012 14.006L367.43 15.039M307.465 15.039L308.636 16.7444M307.465 15.039H337.448M307.465 15.039H277.483M337.448 15.039L339.204 16.7444M337.448 15.039H367.43M367.43 15.039L369.177 16.3117L369.474 16.5276L369.772 16.7444M308.636 16.7444H339.204M308.636 16.7444H278.068M341.029 18.5176L341.262 18.7443L341.497 18.9719L341.733 19.201L342.929 20.3629M341.029 18.5176L340.108 17.6222L339.88 17.4012L339.654 17.1811L339.204 16.7444M341.029 18.5176H372.206M339.204 16.7444H369.772M278.068 16.7444H247.5M278.068 16.7444L277.483 15.039M369.772 16.7444L372.206 18.5176M277.483 15.039H247.5M342.929 20.3629L344.656 22.0401L344.908 22.2847M342.929 20.3629H374.739M372.206 18.5176L372.83 18.9719L374.739 20.3629M374.739 20.3629L375.716 21.0743L377.377 22.2847M312.438 22.2847L313.119 23.2757L313.291 23.5268L313.814 24.2879M312.438 22.2847H344.908M312.438 22.2847H279.97M344.908 22.2847L346.97 24.2879M344.908 22.2847H377.377M377.377 22.2847L380.127 24.2879M313.814 24.2879H346.97M313.814 24.2879H280.657M349.121 26.3777L346.97 24.2879M349.121 26.3777L351.368 28.5598M349.121 26.3777H382.996M346.97 24.2879H380.127M280.657 24.2879H247.5M280.657 24.2879L280.482 23.7792L280.138 22.7776L279.97 22.2847M380.127 24.2879L382.996 26.3777M279.97 22.2847H247.5M351.368 28.5598L353.119 30.261L353.717 30.8408M351.368 28.5598H385.991M382.996 26.3777L385.991 28.5598M385.991 28.5598L387.539 29.6876L389.123 30.8408M318.311 30.8408L319.949 33.2272M318.311 30.8408H353.717M318.311 30.8408H282.906M353.717 30.8408L356.174 33.2272M353.717 30.8408H389.123M389.123 30.8408L392.398 33.2272M319.949 33.2272H356.174M319.949 33.2272H283.725M358.747 35.7267L358.092 35.0909L356.174 33.2272M358.747 35.7267L361.445 38.3473M358.747 35.7267H395.83M356.174 33.2272H392.398M283.725 33.2272H247.5M283.725 33.2272L282.906 30.8408M392.398 33.2272L395.83 35.7267M282.906 30.8408H247.5M361.445 38.3473L364.277 41.0984M361.445 38.3473H399.427M395.83 35.7267L399.427 38.3473M399.427 38.3473L403.203 41.0984M325.352 41.0984L327.336 43.9895M325.352 41.0984H364.277M325.352 41.0984H286.426M364.277 41.0984L367.254 43.9895M364.277 41.0984H403.203M403.203 41.0984L407.172 43.9895M327.336 43.9895H367.254M327.336 43.9895H287.418M370.387 47.032L367.254 43.9895M370.387 47.032L373.687 50.2378M370.387 47.032H411.349M367.254 43.9895H407.172M287.418 43.9895H247.5M287.418 43.9895L286.547 41.4519L286.426 41.0984M407.172 43.9895L411.349 47.032M286.426 41.0984H247.5M373.687 50.2378L377.17 53.6209M373.687 50.2378H415.75M411.349 47.032L414.627 49.4205L415.75 50.2378M415.75 50.2378L420.394 53.6209M333.947 53.6209L336.4 57.1956M333.947 53.6209H377.17M333.947 53.6209H290.724M377.17 53.6209L380.851 57.1956M377.17 53.6209H420.394M420.394 53.6209L425.301 57.1956M336.4 57.1956H380.851M336.4 57.1956H291.95M384.746 60.9796L380.851 57.1956M384.746 60.9796L388.876 64.991M384.746 60.9796H430.495M380.851 57.1956H425.301M291.95 57.1956H247.5M291.95 57.1956L290.724 53.6209M425.301 57.1956L430.495 60.9796M290.724 53.6209H247.5M388.876 64.991L393.263 69.2516M388.876 64.991H436.002M430.495 60.9796L436.002 64.991M436.002 64.991L441.85 69.2516M344.675 69.2516L347.787 73.7849M344.675 69.2516H393.263M344.675 69.2516H296.088M393.263 69.2516L397.93 73.7849M393.263 69.2516H441.85M441.85 69.2516L448.073 73.7849M347.787 73.7849H397.93M347.787 73.7849H297.643M402.906 78.618L397.93 73.7849M402.906 78.618L408.223 83.7819M402.906 78.618H454.708M397.93 73.7849H448.073M297.643 73.7849H247.5M297.643 73.7849L296.088 69.2516M448.073 73.7849L454.708 78.618M296.088 69.2516H247.5M408.223 83.7819L413.916 89.3115M408.223 83.7819H461.797M454.708 78.618L461.797 83.7819M461.797 83.7819L469.388 89.3115M358.444 89.3115L362.518 95.2475M358.444 89.3115H413.916M358.444 89.3115H302.972M413.916 89.3115L420.027 95.2475M413.916 89.3115H469.388M469.388 89.3115L477.536 95.2475M362.518 95.2475H420.027M362.518 95.2475H305.009M426.604 101.636L420.027 95.2475M426.604 101.636L433.703 108.531M426.604 101.636H486.306M420.027 95.2475H477.536M305.009 95.2475H247.5M305.009 95.2475L302.972 89.3115M477.536 95.2475L486.306 101.636M302.972 89.3115H247.5M433.703 108.531L441.388 115.995M433.703 108.531H495.771M486.306 101.636L495.771 108.531M495.771 108.531L506.017 115.995M376.758 115.995L382.322 124.101M376.758 115.995H441.388M376.758 115.995H312.129M441.388 115.995L449.734 124.101M441.388 115.995H506.017M506.017 115.995L517.145 124.101M382.322 124.101H449.734M382.322 124.101H314.911M458.831 132.937L449.734 124.101M458.831 132.937L468.785 142.605M458.831 132.937H529.274M449.734 124.101H517.145M314.911 124.101H247.5M314.911 124.101L312.129 115.995M517.145 124.101L529.274 132.937M312.129 115.995H247.5M468.785 142.605L479.723 153.229M468.785 142.605H542.547M529.274 132.937L542.547 142.605M542.547 142.605L557.13 153.229M402.315 153.229L410.365 164.958M402.315 153.229H479.723M402.315 153.229H324.908M479.723 153.229L491.798 164.958M479.723 153.229H557.13M557.13 153.229L573.231 164.958M491.798 164.958H410.365M491.798 164.958H573.231M410.365 164.958H328.933M328.933 164.958H247.5M328.933 164.958L324.908 153.229M324.908 153.229H247.5M191.801 8.82429L191.676 9.00508L191.552 9.18657L191.426 9.369L191.301 9.55237L191.048 9.92124L190.92 10.107L190.792 10.2936M191.801 8.82429H219.65M191.801 8.82429H163.95M220.137 7.40628L220.607 6.03698M220.137 7.40628L219.65 8.82429M220.137 7.40628H247.5M220.607 6.03698L220.664 5.86915L220.722 5.70201L220.779 5.53559L221.061 4.71406M220.607 6.03698H247.5M194.622 4.71406L194.733 4.55164L195.173 3.90948L195.5 3.43493M194.622 4.71406H221.061M194.622 4.71406H168.183M219.65 8.82429L219.588 9.00508L219.526 9.18657L219.463 9.369L219.146 10.2936M219.65 8.82429H247.5M247.5 7.40628V6.03698M247.5 7.40628V8.82429M247.5 6.03698V4.71406M221.061 4.71406H247.5M221.061 4.71406L221.227 4.22938L221.282 4.06908L221.5 3.43493M247.5 8.82429V10.2936M273.939 4.71406L273.773 4.22938L273.718 4.06908L273.663 3.90948L273.608 3.75059L273.555 3.59241L273.5 3.43493M273.939 4.71406H247.5M247.5 4.71406V3.43493M190.792 10.2936H219.146M190.792 10.2936H162.438M218.623 11.8171L218.556 12.0113L218.49 12.2067L218.081 13.3978M218.623 11.8171L219.146 10.2936M218.623 11.8171H247.5M219.146 10.2936H247.5M162.438 10.2936H134.084M162.438 10.2936L162.821 9.92124L163.012 9.73645L163.201 9.55237L163.39 9.369L163.577 9.18657L163.765 9.00508L163.95 8.82429M247.5 10.2936V11.8171M163.95 8.82429H136.101M218.081 13.3978L217.517 15.039M218.081 13.3978H247.5M247.5 11.8171V13.3978M247.5 13.3978V15.039M187.535 15.039L186.364 16.7444M187.535 15.039H217.517M187.535 15.039H157.552M217.517 15.039L216.932 16.7444M217.517 15.039H247.5M247.5 15.039V16.7444M186.364 16.7444H216.932M186.364 16.7444H155.796M216.324 18.5176L216.932 16.7444M216.324 18.5176L215.69 20.3629M216.324 18.5176H247.5M216.932 16.7444H247.5M155.796 16.7444H125.229M155.796 16.7444L157.552 15.039M247.5 16.7444V18.5176M157.552 15.039H127.57M215.69 20.3629L215.446 21.0743L215.198 21.7967L215.031 22.2847M215.69 20.3629H247.5M247.5 18.5176V20.3629M247.5 20.3629V22.2847M182.562 22.2847L181.881 23.2757L181.709 23.5268L181.186 24.2879M182.562 22.2847H215.031M182.562 22.2847H150.092M215.031 22.2847L214.862 22.7776L214.518 23.7792L214.344 24.2879M215.031 22.2847H247.5M247.5 22.2847V24.2879M181.186 24.2879H214.344M181.186 24.2879H148.03M213.626 26.3777L213.717 26.1115L214.344 24.2879M213.626 26.3777L212.877 28.5598M213.626 26.3777H247.5M214.344 24.2879H247.5M148.03 24.2879H114.874M148.03 24.2879L150.092 22.2847M247.5 24.2879V26.3777M150.092 22.2847H117.623M212.877 28.5598L212.094 30.8408M212.877 28.5598H247.5M247.5 26.3777V28.5598M247.5 28.5598V30.8408M176.689 30.8408L175.051 33.2272M176.689 30.8408H212.094M176.689 30.8408H141.283M212.094 30.8408L211.275 33.2272M212.094 30.8408H247.5M247.5 30.8408V33.2272M175.051 33.2272H211.275M175.051 33.2272H138.826M210.418 35.7267L211.275 33.2272M210.418 35.7267L209.518 38.3473M210.418 35.7267H247.5M211.275 33.2272H247.5M138.826 33.2272H102.602M138.826 33.2272L141.283 30.8408M247.5 33.2272V35.7267M141.283 30.8408H105.878M209.518 38.3473L208.574 41.0984M209.518 38.3473H247.5M247.5 35.7267V38.3473M247.5 38.3473V41.0984M169.648 41.0984L167.664 43.9895M169.648 41.0984H208.574M169.648 41.0984H130.723M208.574 41.0984L207.582 43.9895M208.574 41.0984H247.5M247.5 41.0984V43.9895M167.664 43.9895H207.582M167.664 43.9895H127.746M206.538 47.032L207.582 43.9895M206.538 47.032L205.438 50.2378M206.538 47.032H247.5M207.582 43.9895H247.5M127.746 43.9895H87.8277M127.746 43.9895L130.723 41.0984M247.5 43.9895V47.032M130.723 41.0984H91.7968M205.438 50.2378L204.276 53.6209M205.438 50.2378H247.5M247.5 47.032V50.2378M247.5 50.2378V53.6209M161.054 53.6209L158.6 57.1956M161.054 53.6209H204.276M161.054 53.6209H117.83M204.276 53.6209L203.05 57.1956M204.276 53.6209H247.5M247.5 53.6209V57.1956M158.6 57.1956H203.05M158.6 57.1956H114.149M201.751 60.9796L203.05 57.1956M201.751 60.9796L200.374 64.991M201.751 60.9796H247.5M203.05 57.1956H247.5M114.149 57.1956H69.6992M114.149 57.1956L117.83 53.6209M247.5 57.1956V60.9796M117.83 53.6209H74.6064M200.374 64.991L198.912 69.2516M200.374 64.991H247.5M247.5 60.9796V64.991M247.5 64.991V69.2516M150.325 69.2516L147.213 73.7849M150.325 69.2516H198.912M150.325 69.2516H101.737M198.912 69.2516L197.357 73.7849M198.912 69.2516H247.5M247.5 69.2516V73.7849M147.213 73.7849H197.357M147.213 73.7849H97.0701M195.698 78.618L197.357 73.7849M195.698 78.618L193.926 83.7819M195.698 78.618H247.5M197.357 73.7849H247.5M97.0701 73.7849H46.9267M97.0701 73.7849L101.737 69.2516M247.5 73.7849V78.618M101.737 69.2516H53.1496M193.926 83.7819L192.028 89.3115M193.926 83.7819H247.5M247.5 78.618V83.7819M247.5 83.7819V89.3115M136.556 89.3115L132.482 95.2475M136.556 89.3115H192.028M136.556 89.3115H81.0843M192.028 89.3115L189.991 95.2475M192.028 89.3115H247.5M247.5 89.3115V95.2475M132.482 95.2475H189.991M132.482 95.2475H74.9731M187.799 101.636L189.991 95.2475M187.799 101.636L185.433 108.531M187.799 101.636H247.5M189.991 95.2475H247.5M74.9731 95.2475H17.464M74.9731 95.2475L81.0843 89.3115M247.5 95.2475V101.636M81.0843 89.3115H25.6122M185.433 108.531L182.871 115.995M185.433 108.531H247.5M247.5 101.636V108.531M247.5 108.531V115.995M118.242 115.995L112.678 124.101M118.242 115.995H182.871M118.242 115.995H53.6123M182.871 115.995L180.089 124.101M182.871 115.995H247.5M247.5 115.995V124.101M112.678 124.101H180.089M112.678 124.101H45.2663M177.057 132.937L180.089 124.101M177.057 132.937L173.739 142.605M177.057 132.937H247.5M180.089 124.101H247.5M45.2663 124.101H-22.1449M45.2663 124.101L53.6123 115.995M247.5 124.101V132.937M53.6123 115.995H-11.0166M173.739 142.605L170.092 153.229M173.739 142.605H247.5M247.5 132.937V142.605M247.5 142.605V153.229M92.6852 153.229L84.6347 164.958M92.6852 153.229H170.092M92.6852 153.229H15.2774M170.092 153.229L166.067 164.958M170.092 153.229H247.5M247.5 153.229V164.958M166.067 164.958H84.6347M166.067 164.958H247.5M84.6347 164.958H3.20176M3.20176 164.958H-78.2312M3.20176 164.958L15.2774 153.229M15.2774 153.229H-62.1304M80.4013 8.82429L78.9023 9.55237L77.376 10.2936M80.4013 8.82429H108.251M80.4013 8.82429H52.5516M110.684 7.40628L113.034 6.03698M110.684 7.40628L108.251 8.82429M110.684 7.40628H138.047M113.034 6.03698H139.927M113.034 6.03698L114.743 5.04055L115.304 4.71406M88.8647 4.71406H115.304M88.8647 4.71406L89.8628 4.22938L91.4984 3.43493M88.8647 4.71406H62.4255M108.251 8.82429L105.73 10.2936M108.251 8.82429H136.101M138.047 7.40628L139.927 6.03698M138.047 7.40628L136.101 8.82429M139.927 6.03698L140.843 5.36987L141.52 4.87696L141.743 4.71406M115.304 4.71406H141.743M115.304 4.71406L116.957 3.75059L117.499 3.43493M136.101 8.82429L134.595 9.92124L134.084 10.2936M168.183 4.71406L168.349 4.55164L168.681 4.22938L169.174 3.75059L169.5 3.43493M168.183 4.71406H141.743M141.743 4.71406L141.966 4.55164L142.409 4.22938L143.499 3.43493M77.376 10.2936H105.73M77.376 10.2936H49.0215M103.115 11.8171L103.448 11.6236L103.778 11.4308L105.085 10.6691L105.73 10.2936M103.115 11.8171L101.091 12.9969L100.403 13.3978M103.115 11.8171H131.993M105.73 10.2936H134.084M49.0215 10.2936H20.6675M49.0215 10.2936L51.6807 9.18657L52.5516 8.82429M134.084 10.2936L131.993 11.8171M52.5516 8.82429H24.7013M100.403 13.3978L100.057 13.5995L99.709 13.8022L98.6558 14.4163L98.3007 14.6228L97.5871 15.039M100.403 13.3978H129.822M131.993 11.8171L131.726 12.0113L129.822 13.3978M129.822 13.3978L129.546 13.5995L129.267 13.8022L128.988 14.006L127.57 15.039M67.6045 15.039L64.0929 16.7444M67.6045 15.039H97.5871M67.6045 15.039H37.6219M97.5871 15.039L94.6607 16.7444M97.5871 15.039H127.57M127.57 15.039L125.229 16.7444M64.0929 16.7444H94.6607M64.0929 16.7444H33.525M91.6181 18.5176L94.6607 16.7444M91.6181 18.5176L88.4517 20.3629M91.6181 18.5176H122.794M94.6607 16.7444H125.229M33.525 16.7444H2.9571M33.525 16.7444L37.6219 15.039M125.229 16.7444L122.794 18.5176M37.6219 15.039H7.63875M88.4517 20.3629L85.154 22.2847M88.4517 20.3629H120.261M122.794 18.5176L122.17 18.9719L120.261 20.3629M120.261 20.3629L119.284 21.0743L118.293 21.7967L117.623 22.2847M52.6846 22.2847L50.6437 23.2757L48.56 24.2879M52.6846 22.2847H85.154M52.6846 22.2847H20.2152M85.154 22.2847L81.7165 24.2879M85.154 22.2847H117.623M117.623 22.2847L114.874 24.2879M48.56 24.2879H81.7165M48.56 24.2879H15.4035M78.1308 26.3777L81.7165 24.2879M78.1308 26.3777L74.3861 28.5598M78.1308 26.3777H112.004M81.7165 24.2879H114.874M15.4035 24.2879H-17.7537M15.4035 24.2879L20.2152 22.2847M114.874 24.2879L112.004 26.3777M20.2152 22.2847H-12.2537M74.3861 28.5598L73.4237 29.1205L70.4725 30.8408M74.3861 28.5598H109.009M112.004 26.3777L109.009 28.5598M109.009 28.5598L108.625 28.8395L107.461 29.6876L105.878 30.8408M35.0669 30.8408L30.1527 33.2272M35.0669 30.8408H70.4725M35.0669 30.8408H-0.338799M70.4725 30.8408L66.3773 33.2272M70.4725 30.8408H105.878M105.878 30.8408L102.602 33.2272M30.1527 33.2272H66.3773M30.1527 33.2272H-6.07186M62.0883 35.7267L64.7926 34.1509L66.3773 33.2272M62.0883 35.7267L57.5912 38.3473M62.0883 35.7267H99.1706M66.3773 33.2272H102.602M-6.07186 33.2272H-42.2964M-6.07186 33.2272L-0.338799 30.8408M102.602 33.2272L99.1706 35.7267M-0.338799 30.8408H-35.7445M57.5912 38.3473L52.8709 41.0984M57.5912 38.3473H95.5733M99.1706 35.7267L95.5733 38.3473M95.5733 38.3473L91.7968 41.0984M13.9449 41.0984L7.99153 43.9895M13.9449 41.0984H52.8709M13.9449 41.0984H-24.9805M52.8709 41.0984L47.9099 43.9895M52.8709 41.0984H91.7968M91.7968 41.0984L87.8277 43.9895M7.99153 43.9895H47.9099M7.99153 43.9895H-31.9263M42.6893 47.032L47.9099 43.9895M42.6893 47.032L37.1882 50.2378M42.6893 47.032H83.6516M47.9099 43.9895H87.8277M-31.9263 43.9895H-71.8441M-31.9263 43.9895L-24.9805 41.0984M87.8277 43.9895L83.6516 47.032M-24.9805 41.0984H-63.9064M37.1882 50.2378L31.3834 53.6209M37.1882 50.2378H79.2504M83.6516 47.032L79.2504 50.2378M79.2504 50.2378L74.6064 53.6209M-11.8402 53.6209L-19.2012 57.1956M-11.8402 53.6209H31.3834M-11.8402 53.6209H-55.0637M31.3834 53.6209L25.249 57.1956M31.3834 53.6209H74.6064M74.6064 53.6209L69.6992 57.1956M-19.2012 57.1956H25.249M-19.2012 57.1956H-63.6514M18.756 60.9796L25.249 57.1956M18.756 60.9796L11.8727 64.991M18.756 60.9796H64.5052M25.249 57.1956H69.6992M-63.6514 57.1956H-108.102M-63.6514 57.1956L-55.0637 53.6209M69.6992 57.1956L64.5052 60.9796M-55.0637 53.6209H-98.2867M11.8727 64.991L4.56201 69.2516M11.8727 64.991H58.9983M64.5052 60.9796L58.9983 64.991M58.9983 64.991L53.1496 69.2516M-44.0256 69.2516L-53.36 73.7849M-44.0256 69.2516H4.56201M-44.0256 69.2516H-92.6132M4.56201 69.2516L-3.21661 73.7849M4.56201 69.2516H53.1496M53.1496 69.2516L46.9267 73.7849M-53.36 73.7849H-3.21661M-53.36 73.7849H-103.503M-11.5099 78.618L-3.21661 73.7849M-11.5099 78.618L-20.3712 83.7819M-11.5099 78.618H40.2921M-3.21661 73.7849H46.9267M-103.503 73.7849H-153.647M-103.503 73.7849L-92.6132 69.2516M46.9267 73.7849L40.2921 78.618M-92.6132 69.2516H-141.201M-20.3712 83.7819L-29.8593 89.3115M-20.3712 83.7819H33.2034M40.2921 78.618L33.2034 83.7819M33.2034 83.7819L25.6122 89.3115M-85.3314 89.3115L-97.5539 95.2475M-85.3314 89.3115H-29.8593M-85.3314 89.3115H-140.804M-29.8593 89.3115L-40.045 95.2475M-29.8593 89.3115H25.6122M25.6122 89.3115L17.464 95.2475M-97.5539 95.2475H-40.045M-97.5539 95.2475H-155.063M-51.0073 101.636L-40.045 95.2475M-51.0073 101.636L-62.8383 108.531M-51.0073 101.636H8.69421M-40.045 95.2475H17.464M-155.063 95.2475H-212.572M-155.063 95.2475L-140.804 89.3115M17.464 95.2475L8.69421 101.636M-140.804 89.3115H-196.276M-62.8383 108.531L-75.6461 115.995M-62.8383 108.531H-0.770829M8.69421 101.636L-0.770829 108.531M-0.770829 108.531L-11.0166 115.995M-140.275 115.995L-156.967 124.101M-140.275 115.995H-75.6461M-140.275 115.995H-204.904M-75.6461 115.995L-89.5562 124.101M-75.6461 115.995H-11.0166M-11.0166 115.995L-22.1449 124.101M-156.967 124.101H-89.5562M-156.967 124.101H-224.379M-104.718 132.937L-89.5562 124.101M-104.718 132.937L-121.308 142.605M-104.718 132.937H-34.2743M-89.5562 124.101H-22.1449M-224.379 124.101H-291.79M-224.379 124.101L-204.904 115.995M-22.1449 124.101L-34.2743 132.937M-204.904 115.995H-269.533M-121.308 142.605L-139.538 153.229M-121.308 142.605H-47.546M-34.2743 132.937L-47.546 142.605M-47.546 142.605L-62.1304 153.229M-216.945 153.229L-241.097 164.958M-216.945 153.229H-139.538M-216.945 153.229H-294.353M-139.538 153.229L-159.664 164.958M-139.538 153.229H-62.1304M-62.1304 153.229L-78.2312 164.958M-159.664 164.958H-241.097M-159.664 164.958H-78.2312M-241.097 164.958L-307.701 164.958M-294.353 153.229L-307.701 158.786M-294.353 153.229H-307.701M-30.9981 8.82429L-36.0406 10.2936M-30.9981 8.82429H-3.14833M-30.9981 8.82429H-58.8478M1.23136 7.40628L5.46075 6.03698M1.23136 7.40628L-3.14833 8.82429M1.23136 7.40628H28.5947M5.46075 6.03698H32.3539M5.46075 6.03698L9.54725 4.71406M-16.8925 4.71406H9.54725M-16.8925 4.71406L-15.2286 4.22938L-12.5024 3.43493M-16.8925 4.71406H-43.3316M-3.14833 8.82429L-7.68656 10.2936M-3.14833 8.82429H24.7013M28.5947 7.40628L32.3539 6.03698M28.5947 7.40628L24.7013 8.82429M32.3539 6.03698L35.09 5.04055L35.9864 4.71406M9.54725 4.71406L10.0481 4.55164L13.4978 3.43493M9.54725 4.71406H35.9864M24.7013 8.82429L20.6675 10.2936M62.4255 4.71406L65.4982 3.43493M62.4255 4.71406H35.9864M35.9864 4.71406L37.3171 4.22938L39.498 3.43493M-36.0406 10.2936H-7.68656M-36.0406 10.2936H-64.3946M-12.3919 11.8171L-7.68656 10.2936M-12.3919 11.8171L-17.2742 13.3978M-12.3919 11.8171H16.4849M-7.68656 10.2936H20.6675M-64.3946 10.2936H-92.7486M-64.3946 10.2936L-58.8478 8.82429M20.6675 10.2936L16.4849 11.8171M-58.8478 8.82429H-86.6975M-17.2742 13.3978L-18.524 13.8022L-22.3439 15.039M-17.2742 13.3978H12.1451M16.4849 11.8171L12.1451 13.3978M12.1451 13.3978L7.63875 15.039M-52.3265 15.039L-53.0453 15.2487L-58.1786 16.7444M-52.3265 15.039H-22.3439M-52.3265 15.039H-82.309M-22.3439 15.039L-27.6108 16.7444M-22.3439 15.039H7.63875M7.63875 15.039L7.06387 15.2487L2.9571 16.7444M-58.1786 16.7444H-27.6108M-58.1786 16.7444H-88.7465M-33.0876 18.5176L-27.6108 16.7444M-33.0876 18.5176L-38.7871 20.3629M-33.0876 18.5176H-1.91129M-27.6108 16.7444H2.9571M-88.7465 16.7444H-119.314M-88.7465 16.7444L-82.309 15.039M2.9571 16.7444L-1.91129 18.5176M-82.309 15.039H-112.292M-38.7871 20.3629L-44.7231 22.2847M-38.7871 20.3629H-6.9775M-1.91129 18.5176L-6.9775 20.3629M-6.9775 20.3629L-12.2537 22.2847M-77.1919 22.2847L-84.0666 24.2879M-77.1919 22.2847H-44.7231M-77.1919 22.2847H-109.661M-44.7231 22.2847L-50.9101 24.2879M-44.7231 22.2847H-12.2537M-12.2537 22.2847L-17.7537 24.2879M-84.0666 24.2879H-50.9101M-84.0666 24.2879H-117.224M-57.3649 26.3777L-50.9101 24.2879M-57.3649 26.3777L-64.1054 28.5598M-57.3649 26.3777H-23.4913M-50.9101 24.2879H-17.7537M-117.224 24.2879H-150.38M-117.224 24.2879L-109.661 22.2847M-17.7537 24.2879L-23.4913 26.3777M-109.661 22.2847H-142.131M-64.1054 28.5598L-71.1501 30.8408M-64.1054 28.5598H-29.4823M-23.4913 26.3777L-29.4823 28.5598M-29.4823 28.5598L-35.7445 30.8408M-106.556 30.8408L-114.746 33.2272M-106.556 30.8408H-71.1501M-106.556 30.8408H-141.961M-71.1501 30.8408L-78.5209 33.2272M-71.1501 30.8408H-35.7445M-35.7445 30.8408L-42.2964 33.2272M-114.746 33.2272H-78.5209M-114.746 33.2272H-150.97M-86.2411 35.7267L-78.5209 33.2272M-86.2411 35.7267L-94.3355 38.3473M-86.2411 35.7267H-49.1589M-78.5209 33.2272H-42.2964M-150.97 33.2272H-187.195M-150.97 33.2272L-141.961 30.8408M-42.2964 33.2272L-49.1589 35.7267M-141.961 30.8408H-177.367M-94.3355 38.3473L-102.832 41.0984M-94.3355 38.3473H-56.354M-49.1589 35.7267L-56.354 38.3473M-56.354 38.3473L-63.9064 41.0984M-141.758 41.0984L-151.68 43.9895M-141.758 41.0984H-102.832M-141.758 41.0984H-180.684M-102.832 41.0984L-111.762 43.9895M-102.832 41.0984H-63.9064M-63.9064 41.0984L-71.8441 43.9895M-151.68 43.9895H-111.762M-151.68 43.9895H-191.599M-121.16 47.032L-111.762 43.9895M-121.16 47.032L-131.061 50.2378M-121.16 47.032H-80.1976M-111.762 43.9895H-71.8441M-191.599 43.9895H-231.516M-191.599 43.9895L-180.684 41.0984M-71.8441 43.9895L-80.1976 47.032M-180.684 41.0984H-219.61M-131.061 50.2378L-141.51 53.6209M-131.061 50.2378H-88.9992M-80.1976 47.032L-88.9992 50.2378M-88.9992 50.2378L-98.2867 53.6209M-184.734 53.6209L-197.002 57.1956M-184.734 53.6209H-141.51M-184.734 53.6209H-227.957M-141.51 53.6209L-152.552 57.1956M-141.51 53.6209H-98.2867M-98.2867 53.6209L-108.102 57.1956M-197.002 57.1956H-152.552M-197.002 57.1956H-241.452M-164.239 60.9796L-152.552 57.1956M-164.239 60.9796L-176.629 64.991M-164.239 60.9796H-118.49M-152.552 57.1956H-108.102M-241.452 57.1956H-285.902M-241.452 57.1956L-227.957 53.6209M-108.102 57.1956L-118.49 60.9796M-227.957 53.6209H-271.18M-176.629 64.991L-189.788 69.2516M-176.629 64.991H-129.503M-118.49 60.9796L-129.503 64.991M-129.503 64.991L-141.201 69.2516M-238.376 69.2516L-253.933 73.7849M-238.376 69.2516H-189.788M-238.376 69.2516H-286.964M-189.788 69.2516L-203.79 73.7849M-189.788 69.2516H-141.201M-141.201 69.2516L-153.647 73.7849M-253.933 73.7849H-203.79M-253.933 73.7849H-304.077M-218.718 78.618L-203.79 73.7849M-218.718 78.618L-234.668 83.7819M-218.718 78.618H-166.916M-203.79 73.7849H-153.647M-304.077 73.7849L-286.964 69.2516M-304.077 73.7849H-307.701M-304.077 73.7849L-307.701 74.7449M-153.647 73.7849L-166.916 78.618M-286.964 69.2516H-307.701M-234.668 83.7819L-251.747 89.3115M-234.668 83.7819H-181.094M-166.916 78.618L-181.094 83.7819M-181.094 83.7819L-196.276 89.3115M-307.219 89.3115H-251.747M-307.219 89.3115H-307.701M-307.219 89.3115L-307.701 89.4519M-251.747 89.3115L-270.082 95.2475M-251.747 89.3115H-196.276M-196.276 89.3115L-212.572 95.2475M-289.813 101.636L-270.082 95.2475M-289.813 101.636H-230.112M-289.813 101.636H-307.701M-289.813 101.636L-307.701 107.427M-270.082 95.2475H-212.572M-270.082 95.2475H-307.701M-212.572 95.2475L-230.112 101.636M-230.112 101.636L-249.041 108.531M-249.041 108.531L-269.533 115.995M-249.041 108.531H-307.701M-269.533 115.995L-291.79 124.101M-269.533 115.995H-307.701M-291.79 124.101H-307.701M-291.79 124.101L-307.701 129.897M-142.397 8.82429L-149.457 10.2936M-142.397 8.82429H-114.547M-142.397 8.82429H-170.247M-108.221 7.40628L-102.112 6.03698M-108.221 7.40628L-114.547 8.82429M-108.221 7.40628H-80.858M-102.112 6.03698H-75.2193M-102.112 6.03698L-96.2099 4.71406M-122.649 4.71406H-96.2099M-122.649 4.71406L-116.504 3.43493M-122.649 4.71406H-149.088M-114.547 8.82429L-121.103 10.2936M-114.547 8.82429H-86.6975M-80.858 7.40628L-75.2193 6.03698M-80.858 7.40628L-86.6975 8.82429M-75.2193 6.03698L-69.7708 4.71406M-96.2099 4.71406L-95.4864 4.55164L-90.5035 3.43493M-96.2099 4.71406H-69.7708M-86.6975 8.82429L-92.7486 10.2936M-43.3316 4.71406L-38.5031 3.43493M-43.3316 4.71406H-69.7708M-69.7708 4.71406L-69.1028 4.55164L-64.5033 3.43493M-149.457 10.2936H-121.103M-149.457 10.2936H-177.811M-127.9 11.8171L-121.103 10.2936M-127.9 11.8171L-134.952 13.3978M-127.9 11.8171H-99.0223M-121.103 10.2936H-92.7486M-177.811 10.2936H-206.165M-177.811 10.2936L-170.247 8.82429M-92.7486 10.2936L-99.0223 11.8171M-170.247 8.82429H-198.097M-134.952 13.3978L-142.274 15.039M-134.952 13.3978H-105.533M-99.0223 11.8171L-99.8233 12.0113L-105.533 13.3978M-105.533 13.3978L-112.292 15.039M-172.257 15.039L-180.45 16.7444M-172.257 15.039H-142.274M-172.257 15.039H-202.239M-142.274 15.039L-149.882 16.7444M-142.274 15.039H-112.292M-112.292 15.039L-119.314 16.7444M-180.45 16.7444H-149.882M-180.45 16.7444H-211.018M-157.793 18.5176L-149.882 16.7444M-157.793 18.5176L-166.026 20.3629M-157.793 18.5176H-126.617M-149.882 16.7444H-119.314M-211.018 16.7444H-241.586M-211.018 16.7444L-202.239 15.039M-119.314 16.7444L-126.617 18.5176M-202.239 15.039H-232.222M-166.026 20.3629L-174.6 22.2847M-166.026 20.3629H-134.216M-126.617 18.5176L-134.216 20.3629M-134.216 20.3629L-142.131 22.2847M-207.069 22.2847L-216.694 24.2879M-207.069 22.2847H-174.6M-207.069 22.2847H-239.539M-174.6 22.2847L-183.537 24.2879M-174.6 22.2847H-142.131M-142.131 22.2847L-150.38 24.2879M-216.694 24.2879H-183.537M-216.694 24.2879H-249.85M-192.861 26.3777L-183.537 24.2879M-192.861 26.3777L-202.596 28.5598M-192.861 26.3777H-158.986M-183.537 24.2879H-150.38M-249.85 24.2879H-283.007M-249.85 24.2879L-239.539 22.2847M-150.38 24.2879L-158.986 26.3777M-239.539 22.2847H-272.007M-202.596 28.5598L-212.773 30.8408M-202.596 28.5598H-167.974M-158.986 26.3777L-167.974 28.5598M-167.974 28.5598L-177.367 30.8408M-248.178 30.8408L-259.644 33.2272M-248.178 30.8408H-212.773M-248.178 30.8408H-283.583M-212.773 30.8408L-223.419 33.2272M-212.773 30.8408H-177.367M-177.367 30.8408L-187.195 33.2272M-259.644 33.2272H-223.419M-234.571 35.7267L-223.419 33.2272M-234.571 35.7267L-246.262 38.3473M-234.571 35.7267H-197.488M-223.419 33.2272H-187.195M-187.195 33.2272L-197.488 35.7267M-283.583 30.8408H-307.701M-246.262 38.3473L-258.536 41.0984M-246.262 38.3473H-208.281M-197.488 35.7267L-208.281 38.3473M-208.281 38.3473L-219.61 41.0984M-297.462 41.0984H-258.536M-297.462 41.0984H-307.701M-297.462 41.0984L-307.701 43.2295M-258.536 41.0984L-271.435 43.9895M-258.536 41.0984H-219.61M-219.61 41.0984L-231.516 43.9895M-285.008 47.032L-271.435 43.9895M-285.008 47.032L-299.311 50.2378M-285.008 47.032H-244.046M-285.008 47.032H-307.701M-271.435 43.9895H-231.516M-271.435 43.9895H-307.701M-231.516 43.9895L-244.046 47.032M-307.814 43.2529L-307.701 43.2295M-299.311 50.2378H-257.249M-299.311 50.2378H-307.701M-299.311 50.2378L-307.701 52.1184M-244.046 47.032L-257.249 50.2378M-257.249 50.2378L-271.18 53.6209M-271.18 53.6209L-285.902 57.1956M-271.18 53.6209H-307.701M-301.485 60.9796L-285.902 57.1956M-301.485 60.9796H-307.701M-301.485 60.9796L-307.701 62.4889M-285.902 57.1956H-307.701M-253.796 8.82429L-262.873 10.2936M-253.796 8.82429H-225.946M-253.796 8.82429H-281.646M-217.674 7.40628L-209.685 6.03698M-217.674 7.40628L-225.946 8.82429M-217.674 7.40628H-190.311M-209.685 6.03698H-182.792M-209.685 6.03698L-201.967 4.71406M-228.406 4.71406H-201.967M-228.406 4.71406L-220.505 3.43493M-228.406 4.71406H-254.845M-225.946 8.82429L-234.519 10.2936M-225.946 8.82429H-198.097M-190.311 7.40628L-182.792 6.03698M-190.311 7.40628L-198.097 8.82429M-182.792 6.03698L-175.528 4.71406M-201.967 4.71406H-175.528M-201.967 4.71406L-194.504 3.43493M-198.097 8.82429L-206.165 10.2936M-149.088 4.71406L-142.504 3.43493M-149.088 4.71406H-175.528M-175.528 4.71406L-168.504 3.43493M-262.873 10.2936H-234.519M-262.873 10.2936H-291.227M-243.407 11.8171L-234.519 10.2936M-243.407 11.8171L-252.629 13.3978M-243.407 11.8171H-214.53M-234.519 10.2936H-206.165M-291.227 10.2936L-281.646 8.82429M-291.227 10.2936H-307.701M-206.165 10.2936L-214.53 11.8171M-281.646 8.82429H-307.701M-252.629 13.3978L-262.205 15.039M-252.629 13.3978H-223.21M-214.53 11.8171L-223.21 13.3978M-223.21 13.3978L-232.222 15.039M-292.187 15.039L-302.722 16.7444M-292.187 15.039H-262.205M-292.187 15.039H-307.701M-262.205 15.039L-272.154 16.7444M-262.205 15.039H-232.222M-232.222 15.039L-241.586 16.7444M-282.499 18.5176L-272.154 16.7444M-282.499 18.5176L-293.265 20.3629M-282.499 18.5176H-251.323M-282.499 18.5176H-307.701M-272.154 16.7444H-302.722M-272.154 16.7444H-241.586M-302.722 16.7444L-307.701 17.5504M-302.722 16.7444H-307.701M-241.586 16.7444L-251.323 18.5176M-293.265 20.3629L-304.477 22.2847M-293.265 20.3629H-261.455M-293.265 20.3629H-307.701M-251.323 18.5176L-261.455 20.3629M-261.455 20.3629L-272.007 22.2847M-304.477 22.2847H-272.007M-304.477 22.2847L-307.701 22.8372M-304.477 22.2847H-307.701M-272.007 22.2847L-283.007 24.2879M-294.482 26.3777L-283.007 24.2879M-294.482 26.3777L-306.465 28.5598M-294.482 26.3777H-307.701M-283.007 24.2879H-307.701M-307.874 24.2879H-307.701M-306.465 28.5598H-307.701M-306.465 28.5598L-307.701 28.785M-308 28.8395L-307.701 28.785M-299.763 7.40628L-290.365 6.03698M-299.763 7.40628H-307.701M-299.763 7.40628L-307.701 8.56266M-290.365 6.03698L-281.284 4.71406M-290.365 6.03698H-307.701M-254.845 4.71406L-246.505 3.43493M-254.845 4.71406H-281.284M-281.284 4.71406L-272.505 3.43493M-281.284 4.71406H-307.701M611.504 3.43493H637.504M611.504 3.43493H585.503M631.135 2.19769L632.707 2.50323L637.504 3.43493M631.135 2.19769H656.71M637.504 3.43493H663.504M656.71 2.19769L658.388 2.50323L659.232 2.65671L663.504 3.43493M663.504 3.43493H689.504M689.504 3.43493H715.505M585.503 3.43493H559.503M715.505 3.43493H741.505M741.505 3.43493L733.437 2.19769M741.505 3.43493H767.505M733.437 2.19769H759.013M507.502 3.43493H533.503M507.502 3.43493H481.502M528.832 2.19769L529.985 2.50323L530.566 2.65671L533.503 3.43493M528.832 2.19769H554.408M533.503 3.43493H559.503M554.408 2.19769L559.503 3.43493M481.502 3.43493H455.502M403.502 3.43493H429.502M403.502 3.43493H377.501M426.529 2.19769L426.896 2.34999L427.263 2.50323L427.633 2.65671L429.502 3.43493M426.529 2.19769H452.105M429.502 3.43493H455.502M452.105 2.19769L455.502 3.43493M377.501 3.43493H351.501M299.5 3.43493H325.501M299.5 3.43493H273.5M324.227 2.19769L325.501 3.43493M324.227 2.19769H349.803M325.501 3.43493H351.501M349.803 2.19769L350.012 2.34999L350.222 2.50323L350.433 2.65671L351.501 3.43493M273.5 3.43493H247.5M195.5 3.43493H221.5M195.5 3.43493H169.5M221.924 2.19769L221.5 3.43493M221.924 2.19769H247.5M221.5 3.43493H247.5M247.5 2.19769V3.43493M169.5 3.43493H143.499M91.4984 3.43493H117.499M91.4984 3.43493H65.4982M119.622 2.19769L119.098 2.50323L118.036 3.12162L117.499 3.43493M119.622 2.19769H145.197M117.499 3.43493H143.499M145.197 2.19769L144.988 2.34999L144.778 2.50323L144.567 2.65671L143.499 3.43493M65.4982 3.43493H39.498M-12.5024 3.43493H13.4978M-12.5024 3.43493H-38.5031M17.3195 2.19769L16.3756 2.50323L15.9008 2.65671L13.4978 3.43493M17.3195 2.19769H42.8952M13.4978 3.43493H39.498M42.8952 2.19769L42.4764 2.34999L39.498 3.43493M-38.5031 3.43493H-64.5033M-116.504 3.43493H-90.5035M-116.504 3.43493H-142.504M-84.9833 2.19769L-86.3464 2.50323L-87.0323 2.65671L-90.5035 3.43493M-84.9833 2.19769H-59.4076M-90.5035 3.43493H-64.5033M-59.4076 2.19769L-60.0356 2.34999L-64.5033 3.43493M-142.504 3.43493H-168.504M-220.505 3.43493H-194.504M-220.505 3.43493H-246.505M-187.286 2.19769L-194.504 3.43493M-187.286 2.19769H-161.71M-194.504 3.43493H-168.504M-161.71 2.19769L-163.387 2.50323L-164.232 2.65671L-168.504 3.43493M-246.505 3.43493H-272.505M-289.588 2.19769L-298.505 3.43493M-289.588 2.19769H-264.012M-289.588 2.19769H-307.701M-298.505 3.43493H-272.505M-298.505 3.43493L-307.701 4.71093M-298.505 3.43493H-307.701M-264.012 2.19769L-266.109 2.50323L-272.505 3.43493M759.013 2.19769L761.11 2.50323L767.505 3.43493M767.505 3.43493H793.506M793.506 3.43493L802.701 4.71094M793.506 3.43493H802.701M802.701 62.4889V60.9796M802.701 62.4889V64.991M802.701 60.9796V57.1956M802.701 64.991V65.7387V69.2516M802.701 69.2516V73.7849M802.701 33.2272V30.8408M802.701 33.2272V35.5258M802.701 2.19769V3.43493M802.701 3.43493V4.71094M802.701 4.71094L802.724 4.71406H802.701M802.701 4.71094V4.71406M802.701 4.71406V6.03698M802.701 6.03698V7.40628M802.701 7.40628V8.56266M802.701 8.56266V8.82429M802.701 8.82429V10.2936M802.701 10.2936V11.8171M802.701 11.8171V12.8199M802.701 12.8199V13.3978M802.701 13.3978V15.039M802.701 15.039V16.7444M802.701 16.7444V17.5504M802.701 17.5504V18.5176M802.701 18.5176V20.3629M802.701 20.3629V22.2847M802.701 22.2847V22.8372M802.701 22.8372V24.2879M802.701 24.2879V26.3777M802.701 26.3777V28.5598M802.701 28.5598V28.785M802.701 28.785V30.8408M802.701 35.7267V38.3473M802.701 35.7267V35.5258M802.701 38.3473V41.0984M802.701 41.0984V43.2295M802.701 43.2295V43.9895M802.701 43.9895V47.032M802.701 47.032V50.2378M802.701 50.2378V52.1184M802.701 52.1184V53.6209M802.701 53.6209V57.1956M802.701 73.7849V74.7449M802.701 74.7449V78.618M802.701 78.618V83.7819M802.701 83.7819V89.3115M802.701 89.3115V89.4519M802.701 89.4519V95.2475M802.701 95.2475V101.636M802.701 101.636V107.427M802.701 107.427V108.531M802.701 108.531V115.995M802.701 115.995V124.101M802.701 124.101V129.897M802.701 129.897V132.937M802.701 132.937V142.605M802.701 142.605V153.229M802.701 153.229V158.786M802.701 158.786V164.958M802.701 164.958V165H-307.701V164.958M-307.701 35.7267V38.3473M-307.701 35.7267V35.5258M-307.701 35.5258V33.2272M-307.701 33.2272V30.8408M-307.701 30.8408V28.785M-307.701 28.785V28.5598M-307.701 28.5598V26.3777M-307.701 26.3777V24.2879M-307.701 24.2879V22.8372M-307.701 22.8372V22.2847M-307.701 22.2847V20.3629M-307.701 20.3629V18.5176M-307.701 18.5176V17.5504M-307.701 17.5504V16.7444M-307.701 16.7444V15.039M-307.701 15.039V13.3978M-307.701 13.3978V12.8199M-307.701 12.8199V11.8171M-307.701 11.8171V10.2936M-307.701 10.2936V8.82429M-307.701 8.82429V8.56266M-307.701 8.56266V7.40628M-307.701 7.40628V6.03698M-307.701 6.03698V4.71406M-307.701 4.71406H-307.724L-307.701 4.71093M-307.701 4.71406V4.71093M-307.701 4.71093V3.43493M-307.701 3.43493V2.19769M-307.701 164.958V158.786M-307.701 158.786V153.229M-307.701 153.229V142.605M-307.701 142.605V132.937M-307.701 132.937V129.897M-307.701 129.897V124.101M-307.701 124.101V115.995M-307.701 115.995V108.531M-307.701 108.531V107.427M-307.701 107.427V101.636M-307.701 101.636V95.2475M-307.701 95.2475V89.4519M-307.701 89.4519V89.3115M-307.701 89.3115V83.7819M-307.701 83.7819V78.618M-307.701 78.618V74.7449M-307.701 74.7449V73.7849M-307.701 73.7849V69.2516M-307.701 69.2516V64.991M-307.701 64.991V62.4889M-307.701 62.4889V60.9796M-307.701 60.9796V57.1956M-307.701 57.1956V53.6209M-307.701 53.6209V52.1184M-307.701 52.1184V50.2378M-307.701 50.2378V47.032M-307.701 47.032V43.9895M-307.701 43.9895V43.2295M-307.701 43.2295V41.0984M-307.701 41.0984V38.3473" stroke="url(#paint0_linear_7996_115578)" stroke-miterlimit="10" stroke-linecap="round" stroke-linejoin="round"/>
<defs>
<linearGradient id="paint0_linear_7996_115578" x1="247.5" y1="165" x2="247.5" y2="1" gradientUnits="userSpaceOnUse">
<stop stop-color="#B7B7B7" stop-opacity="0.5"/>
<stop offset="1" stop-color="white" stop-opacity="0"/>
</linearGradient>
</defs>
</svg>
