<svg width="368" height="299" viewBox="0 0 368 299" fill="none" xmlns="http://www.w3.org/2000/svg" class="mr-20px"><path d="M323.062 221.352C299.041 221.352 279.566 202.246 279.566 178.676C279.566 161.72 289.644 147.071 304.244 140.193C286.189 145.388 273 161.745 273 181.138C273 204.708 292.475 223.814 316.497 223.814C323.235 223.814 329.62 222.312 335.315 219.62C331.425 220.736 327.322 221.352 323.062 221.352Z" fill="white" stroke="#0C0F12" stroke-miterlimit="10"></path><path d="M323.063 221.352C347.086 221.352 366.56 202.245 366.56 178.676C366.56 155.107 347.086 136 323.063 136C299.041 136 279.566 155.107 279.566 178.676C279.566 202.245 299.041 221.352 323.063 221.352Z" fill="#E57FE1" stroke="#0C0F12" stroke-miterlimit="10"></path><path d="M323.064 209.863C341.081 209.863 355.687 195.533 355.687 177.856C355.687 160.179 341.081 145.849 323.064 145.849C305.047 145.849 290.441 160.179 290.441 177.856C290.441 195.533 305.047 209.863 323.064 209.863Z" fill="white" stroke="#0C0F12" stroke-miterlimit="10"></path><path d="M335.315 219.629C331.425 220.745 327.322 221.36 323.062 221.36C313.501 221.36 304.67 218.324 297.489 213.194L294.256 217.815C300.764 221.623 308.372 223.814 316.497 223.814C323.235 223.814 329.62 222.312 335.315 219.62V219.629Z" fill="white" stroke="#0C0F12" stroke-miterlimit="10"></path><path d="M10.1924 71L19.3848 80.1924L10.1924 89.3848L0.99999 80.1924L10.1924 71Z" fill="#D0F500" stroke="#0C0F12" stroke-width="0.814286" stroke-miterlimit="10"></path><path d="M251 257H238V270H251V257Z" fill="#D0F500" stroke="#0C0F12" stroke-width="0.814286" stroke-miterlimit="10"></path><path d="M309.049 166.831L332.353 158.655C333.594 158.22 334.809 159.398 334.418 160.663L333.139 164.731C333.139 164.731 333.139 164.731 333.139 164.732C332.984 165.213 332.609 165.6 332.14 165.765L308.836 173.94C307.595 174.375 306.38 173.198 306.771 171.933C306.771 171.933 306.771 171.933 306.771 171.933L308.05 167.864C308.05 167.864 308.05 167.864 308.05 167.864C308.205 167.382 308.58 166.995 309.049 166.831ZM310.314 178.154L333.618 169.979C334.087 169.815 334.622 169.883 335.044 170.162C335.044 170.162 335.044 170.162 335.044 170.162L338.585 172.54C338.585 172.54 338.585 172.54 338.585 172.54C339.68 173.283 339.467 174.962 338.226 175.397L314.922 183.572C314.453 183.737 313.918 183.669 313.497 183.39C313.497 183.39 313.497 183.389 313.496 183.389L309.956 181.012C309.955 181.012 309.955 181.012 309.955 181.012C308.86 180.268 309.073 178.59 310.314 178.154ZM316.401 187.787L339.705 179.612C340.946 179.176 342.16 180.354 341.77 181.619C341.77 181.619 341.77 181.619 341.77 181.619L340.49 185.687C340.49 185.688 340.49 185.688 340.49 185.688C340.335 186.169 339.96 186.557 339.491 186.721L316.187 194.896C314.946 195.332 313.731 194.154 314.122 192.889C314.122 192.889 314.122 192.889 314.122 192.889L315.402 188.82C315.402 188.82 315.402 188.82 315.402 188.82C315.557 188.339 315.932 187.951 316.401 187.787Z" fill="black" stroke="#0C0F12" stroke-width="0.195312"></path><path d="M34.3789 148.298L220.135 33.0811C224.977 30.0774 231.337 31.5464 234.366 36.3803L316.608 167.412C321.638 175.422 319.176 185.993 311.133 190.966L157.483 285.962C141.225 296.007 119.895 290.828 110.063 274.439L34.3789 148.298Z" fill="#D0F500" stroke="#0C0F12" stroke-linecap="round" stroke-linejoin="round"></path><path d="M35.6528 116.455L186.037 23.4619C190.321 20.811 195.943 22.157 198.561 26.4574L274.976 151.802C281.853 163.087 278.431 177.81 267.269 184.892L138.412 266.708C122.154 276.753 100.824 271.574 90.9922 255.185L27.6182 149.553C20.79 138.179 24.3765 123.431 35.661 116.455H35.6528Z" fill="white" stroke="#0C0F12" stroke-linecap="round" stroke-linejoin="round"></path><path d="M25.9766 147.092L211.724 31.8829C216.566 28.8791 222.927 30.3482 225.955 35.1821L308.197 166.214C313.228 174.224 310.766 184.795 302.723 189.768L149.073 284.764C132.815 294.809 111.485 289.63 101.653 273.241L25.9766 147.092Z" fill="white" stroke="#0C0F12" stroke-linecap="round" stroke-linejoin="round"></path><path d="M80.3798 225.649C78.0244 225.649 75.7264 225.87 73.4941 226.281L101.669 273.233C104.065 277.221 107.143 280.545 110.663 283.147C114.972 277.197 117.516 269.933 117.516 262.071C117.516 241.948 100.889 225.641 80.388 225.641L80.3798 225.649Z" fill="black" stroke="#0C0F12" stroke-miterlimit="10"></path><path d="M252.733 77.8422L210.665 103.858C199.479 110.777 195.884 125.377 202.581 136.694L203.311 137.925C209.36 148.143 222.606 151.401 232.7 145.156L277.51 117.129L252.725 77.834L252.733 77.8422Z" stroke="#0C0F12" stroke-miterlimit="10"></path><path d="M218.428 133.55C221.601 133.55 224.173 130.978 224.173 127.805C224.173 124.633 221.601 122.061 218.428 122.061C215.256 122.061 212.684 124.633 212.684 127.805C212.684 130.978 215.256 133.55 218.428 133.55Z" fill="black" stroke="#0C0F12" stroke-miterlimit="10"></path><path d="M277.519 117.137L285.726 130.268L232.709 145.163L277.519 117.137Z" fill="black" stroke="#0C0F12" stroke-miterlimit="10"></path><path d="M69.0624 296.047C45.0406 296.047 25.5656 276.941 25.5656 253.371C25.5656 236.416 35.6437 221.766 50.2438 214.889C32.1886 220.084 19 236.44 19 255.833C19 279.403 38.4751 298.509 62.4968 298.509C69.2347 298.509 75.6197 297.007 81.3153 294.315C77.4252 295.432 73.3218 296.047 69.0624 296.047Z" fill="white" stroke="#0C0F12" stroke-miterlimit="10"></path><path d="M69.0632 296.048C93.0858 296.048 112.56 276.941 112.56 253.371C112.56 229.802 93.0858 210.695 69.0632 210.695C45.0406 210.695 25.5664 229.802 25.5664 253.371C25.5664 276.941 45.0406 296.048 69.0632 296.048Z" fill="#D8EEFF" stroke="#0C0F12" stroke-miterlimit="10"></path><path d="M69.0621 284.558C87.079 284.558 101.685 270.228 101.685 252.551C101.685 234.874 87.079 220.544 69.0621 220.544C51.0451 220.544 36.4395 234.874 36.4395 252.551C36.4395 270.228 51.0451 284.558 69.0621 284.558Z" fill="white" stroke="#0C0F12" stroke-miterlimit="10"></path><path d="M81.3152 294.324C77.4251 295.44 73.3216 296.056 69.0622 296.056C59.5011 296.056 50.6705 293.019 43.4894 287.89L40.2559 292.51C46.764 296.318 54.3718 298.509 62.4967 298.509C69.2346 298.509 75.6196 297.008 81.3152 294.316V294.324Z" fill="white" stroke="#0C0F12" stroke-miterlimit="10"></path><path d="M104.969 86.3518C80.9469 86.3518 61.4718 67.2461 61.4718 43.6757C61.4718 26.7202 71.5499 12.0708 86.1501 5.19336C68.0948 10.3884 54.9062 26.7448 54.9062 46.1378C54.9062 69.7081 74.3813 88.8139 98.4031 88.8139C105.141 88.8139 111.526 87.312 117.222 84.6202C113.331 85.7363 109.228 86.3518 104.969 86.3518Z" fill="white" stroke="#0C0F12" stroke-miterlimit="10"></path><path d="M104.969 86.3522C128.992 86.3522 148.466 67.2455 148.466 43.6761C148.466 20.1067 128.992 1 104.969 1C80.9468 1 61.4727 20.1067 61.4727 43.6761C61.4727 67.2455 80.9468 86.3522 104.969 86.3522Z" fill="#FFD39F" stroke="#0C0F12" stroke-miterlimit="10"></path><path d="M104.968 74.8628C122.985 74.8628 137.591 60.5327 137.591 42.8557C137.591 25.1787 122.985 10.8486 104.968 10.8486C86.9513 10.8486 72.3457 25.1787 72.3457 42.8557C72.3457 60.5327 86.9513 74.8628 104.968 74.8628Z" fill="white" stroke="#0C0F12" stroke-miterlimit="10"></path><path d="M117.221 84.6198C113.331 85.7359 109.228 86.3515 104.968 86.3515C95.4074 86.3515 86.5767 83.3149 79.3956 78.1855L76.1621 82.8061C82.6702 86.6141 90.2781 88.8053 98.4029 88.8053C105.141 88.8053 111.526 87.3035 117.221 84.6116V84.6198Z" fill="white" stroke="#0C0F12" stroke-miterlimit="10"></path><path d="M109.017 42.3349L109.018 42.3348C109.514 42.1654 110.073 42.0225 110.692 41.9049C110.692 41.9049 110.692 41.9049 110.692 41.9049L110.785 42.3961L109.017 42.3349ZM109.017 42.3349C108.52 42.5047 107.943 42.7531 107.289 43.0759M109.017 42.3349L107.289 43.0759M105.461 32.7785L105.461 32.7785C105.918 32.8788 106.361 33.0774 106.788 33.3626C107.245 33.6674 107.621 34.0879 107.922 34.6065C108.178 35.0469 108.346 35.5002 108.418 35.9655C108.492 36.4392 108.453 36.9025 108.299 37.3472L108.299 37.3472C108.164 37.736 108.004 38.102 107.817 38.4446C107.817 38.4447 107.817 38.4447 107.817 38.4447L105.461 32.7785ZM105.461 32.7785C104.996 32.6765 104.479 32.6808 103.92 32.7709L103.92 32.7709M105.461 32.7785L103.92 32.7709M103.92 32.7709C103.384 32.8576 102.902 32.9722 102.478 33.1167L102.478 33.1168M103.92 32.7709L102.478 33.1168M102.478 33.1168C102.062 33.2588 101.579 33.4619 101.031 33.7228M102.478 33.1168L101.031 33.7228M102.533 42.0627C102.115 42.2963 101.87 42.4335 101.8 42.4743L102.533 42.0627ZM102.533 42.0627C102.951 41.829 103.278 41.6393 103.512 41.4936C103.747 41.3479 104.09 41.1297 104.541 40.8395L102.533 42.0627ZM107.289 43.0759C106.643 43.3947 106.134 43.6609 105.769 43.8733M107.289 43.0759L105.769 43.8733M105.769 43.8733C105.413 44.0802 104.96 44.3528 104.411 44.6904L105.769 43.8733ZM101.031 33.7228C100.487 33.9816 100.052 34.2094 99.7326 34.405M101.031 33.7228L99.7326 34.405M99.7326 34.405C99.4362 34.5865 99.0623 34.813 98.6107 35.085L99.7326 34.405ZM112.262 30.1931L112.262 30.1931L112.264 30.1964C113.092 31.3439 113.514 32.4429 113.574 33.4984C113.633 34.55 113.336 35.604 112.648 36.6711L111.913 37.8107L113.212 37.421C115.004 36.8833 116.532 36.9064 117.827 37.4331L117.827 37.4331C119.09 37.9469 120.205 39.1399 121.128 41.1358C121.589 42.1474 121.853 43.1015 121.93 44.0006C122.007 44.9098 121.922 45.7301 121.683 46.4683L121.683 46.4683C121.441 47.2135 121.03 47.9694 120.436 48.7354L120.436 48.7355C119.836 49.5098 119.148 50.2222 118.373 50.8724C117.59 51.5289 116.647 52.2158 115.54 52.9329L115.141 53.1919L115.38 53.6036L118.25 58.5427L115.871 59.9252L113.05 55.0704L112.798 54.6381L112.366 54.8893C111.244 55.5415 110.387 56.0298 109.794 56.3555L109.346 56.6021L109.603 57.0449L112.436 61.9209L110.057 63.3033L107.187 58.364L106.936 57.9317L106.504 58.1829C106.254 58.3279 105.875 58.5433 105.366 58.8298L105.366 58.8298C104.856 59.1169 104.465 59.339 104.195 59.4958L100.494 61.6464L99.2629 58.3619L101.236 57.2154C101.66 56.9688 101.986 56.6331 102.135 56.1899C102.283 55.7493 102.228 55.2805 102.048 54.8177L102.034 54.7814L102.015 54.7477L93.5694 40.2131L93.5456 40.1722L93.5146 40.1364C93.0851 39.642 92.5703 39.3219 91.9702 39.2458C91.3771 39.1707 90.7739 39.3432 90.1789 39.6889L88.2729 40.7964L86.7691 38.2084L90.8117 35.885L90.8117 35.885L90.8137 35.8838C91.7136 35.3609 92.396 34.9551 92.8578 34.6675L93.2695 34.4112L93.0259 33.9919L90.1927 29.1158L92.5721 27.7333L95.3441 32.504L95.6015 32.947L96.0381 32.6789C97.1726 31.9821 98.0169 31.473 98.5731 31.1498L99.0054 30.8986L98.7542 30.4663L96.0067 25.7377L98.3861 24.3551L101.219 29.2312L101.449 29.6269L101.864 29.4328C103.012 28.8951 104.061 28.4924 105.013 28.2212C105.956 27.9527 106.888 27.8146 107.812 27.8051C108.704 27.7958 109.52 27.989 110.267 28.381C111.011 28.7715 111.678 29.3694 112.262 30.1931ZM112.449 41.8412L112.449 41.8412L114.001 48.488C114.258 48.188 114.506 47.8468 114.744 47.4642L115.169 47.7284C115.169 47.7284 115.169 47.7283 115.169 47.7283C115.432 47.3058 115.614 46.8782 115.699 46.4466C115.783 46.0262 115.792 45.5893 115.731 45.1393L115.731 45.1391C115.667 44.6666 115.501 44.2076 115.244 43.7645C114.914 43.1972 114.493 42.745 113.974 42.4255C113.486 42.1243 112.977 41.9261 112.449 41.8412ZM113.329 49.8418C113.749 49.4814 114.101 49.1386 114.38 48.8138L110.723 51.1393C111.188 50.8409 111.583 50.5741 111.906 50.3391C112.23 50.1041 112.596 49.8119 113.003 49.4623L113.329 49.8419C113.329 49.8418 113.329 49.8418 113.329 49.8418ZM103.936 46.151L107.571 52.4063L107.822 52.8386C107.935 52.7733 108.196 52.6259 108.608 52.3964L103.936 46.151Z" fill="#FDA806" stroke="#0C0F12"></path><g clip-path="url(#clip0_1137_7590)"><path d="M73.5506 262.365L77.9881 271.881L83.5438 250.595L73.5506 262.365Z" fill="black"></path><path d="M82.5109 248.38L60.2383 233.816L72.4964 260.104L82.5109 248.38Z" fill="black"></path><path d="M60.2373 233.817L56.0374 258.016L72.4946 260.103L82.5121 248.38L60.2373 233.817ZM77.9873 271.882L57.0713 260.233L73.5498 262.365L83.546 250.597L77.9873 271.882Z" fill="black"></path></g><rect x="0.681155" y="0.282144" width="27.1714" height="41" transform="matrix(0.939693 -0.34202 0.422618 0.906308 46.9218 238.894)" stroke="#0C0F12"></rect><mask id="path-29-inside-1_1137_7590" fill="white"><path d="M195.745 158.695L185.101 141.66C185.092 141.647 185.083 141.633 185.088 141.61C185.093 141.588 185.085 141.574 185.098 141.565L188.488 134.776C188.493 134.753 188.507 134.744 188.52 134.736C188.534 134.727 188.547 134.718 188.569 134.723C188.591 134.728 188.605 134.719 188.613 134.733C188.635 134.738 188.644 134.752 188.653 134.766L203.496 158.521C203.505 158.534 203.514 158.548 203.509 158.571C203.504 158.593 203.512 158.607 203.499 158.616L186.579 192.796C186.574 192.819 186.561 192.827 186.547 192.836C186.534 192.845 186.52 192.854 186.498 192.849L159.399 193.643C159.377 193.638 159.354 193.633 159.346 193.62C159.324 193.615 159.315 193.601 159.307 193.587C159.298 193.573 159.289 193.56 159.294 193.537C159.299 193.514 159.29 193.501 159.304 193.492L162.708 186.693C162.713 186.671 162.726 186.662 162.739 186.653C162.753 186.645 162.766 186.636 162.788 186.641L182.239 186.032C182.261 186.037 182.274 186.028 182.288 186.02C182.301 186.011 182.314 186.002 182.319 185.98L195.752 158.827C195.756 158.804 195.77 158.795 195.761 158.782C195.749 158.731 195.74 158.718 195.745 158.695Z"></path></mask><path d="M195.745 158.695L185.101 141.66C185.092 141.647 185.083 141.633 185.088 141.61C185.093 141.588 185.085 141.574 185.098 141.565L188.488 134.776C188.493 134.753 188.507 134.744 188.52 134.736C188.534 134.727 188.547 134.718 188.569 134.723C188.591 134.728 188.605 134.719 188.613 134.733C188.635 134.738 188.644 134.752 188.653 134.766L203.496 158.521C203.505 158.534 203.514 158.548 203.509 158.571C203.504 158.593 203.512 158.607 203.499 158.616L186.579 192.796C186.574 192.819 186.561 192.827 186.547 192.836C186.534 192.845 186.52 192.854 186.498 192.849L159.399 193.643C159.377 193.638 159.354 193.633 159.346 193.62C159.324 193.615 159.315 193.601 159.307 193.587C159.298 193.573 159.289 193.56 159.294 193.537C159.299 193.514 159.29 193.501 159.304 193.492L162.708 186.693C162.713 186.671 162.726 186.662 162.739 186.653C162.753 186.645 162.766 186.636 162.788 186.641L182.239 186.032C182.261 186.037 182.274 186.028 182.288 186.02C182.301 186.011 182.314 186.002 182.319 185.98L195.752 158.827C195.756 158.804 195.77 158.795 195.761 158.782C195.749 158.731 195.74 158.718 195.745 158.695Z" fill="black"></path><path d="M195.745 158.695L196.714 158.904L196.802 158.499L196.584 158.151L195.745 158.695ZM185.098 141.565L185.628 142.413L185.858 142.264L185.982 142.016L185.098 141.565ZM188.488 134.776L189.372 135.226L189.43 135.111L189.457 134.985L188.488 134.776ZM188.613 134.733L187.775 135.278L187.992 135.626L188.39 135.717L188.613 134.733ZM203.499 158.616L202.969 157.768L202.737 157.918L202.613 158.168L203.499 158.616ZM186.579 192.796L185.693 192.349L185.637 192.463L185.61 192.587L186.579 192.796ZM186.498 192.849L186.722 191.865L186.601 191.838L186.477 191.841L186.498 192.849ZM159.399 193.643L159.175 194.627L159.296 194.655L159.42 194.651L159.399 193.643ZM159.346 193.62L160.185 193.075L159.967 192.726L159.569 192.636L159.346 193.62ZM159.304 193.492L159.834 194.34L160.064 194.191L160.188 193.944L159.304 193.492ZM162.708 186.693L163.591 187.145L163.649 187.029L163.677 186.903L162.708 186.693ZM162.788 186.641L162.565 187.625L162.687 187.652L162.812 187.648L162.788 186.641ZM182.239 186.032L182.462 185.048L182.34 185.021L182.215 185.025L182.239 186.032ZM182.319 185.98L181.434 185.532L181.377 185.646L181.35 185.77L182.319 185.98ZM195.752 158.827L196.637 159.274L196.694 159.16L196.72 159.036L195.752 158.827ZM195.761 158.782L194.799 159.033L194.837 159.19L194.923 159.326L195.761 158.782ZM196.584 158.151L185.939 141.116L184.262 142.205L194.906 159.24L196.584 158.151ZM185.939 141.116C185.925 141.093 185.989 141.187 186.031 141.314C186.083 141.473 186.094 141.648 186.057 141.82L184.119 141.401C184.021 141.855 184.246 142.18 184.262 142.205L185.939 141.116ZM186.057 141.82C186.077 141.73 186.081 141.655 186.082 141.607C186.082 141.586 186.082 141.568 186.082 141.566C186.082 141.558 186.082 141.576 186.082 141.595C186.081 141.626 186.079 141.776 186.009 141.951C185.924 142.158 185.782 142.313 185.628 142.413L184.568 140.717C184.407 140.822 184.261 140.982 184.175 141.195C184.101 141.376 184.099 141.532 184.098 141.57C184.098 141.584 184.098 141.594 184.098 141.601C184.098 141.604 184.098 141.606 184.098 141.608C184.098 141.609 184.098 141.609 184.098 141.61C184.098 141.61 184.098 141.61 184.098 141.61C184.098 141.611 184.098 141.611 184.098 141.611C184.098 141.613 184.098 141.6 184.098 141.583C184.099 141.544 184.102 141.48 184.119 141.401L186.057 141.82ZM185.982 142.016L189.372 135.226L187.604 134.325L184.214 141.115L185.982 142.016ZM189.457 134.985C189.42 135.156 189.337 135.313 189.22 135.439C189.127 135.539 189.028 135.598 189.05 135.584L187.99 133.887C187.963 133.905 187.618 134.108 187.519 134.566L189.457 134.985ZM189.05 135.584C189.072 135.569 188.978 135.636 188.85 135.68C188.688 135.735 188.514 135.745 188.346 135.707L188.793 133.739C188.343 133.637 188.017 133.87 187.99 133.887L189.05 135.584ZM188.346 135.707C188.434 135.727 188.508 135.731 188.555 135.732C188.576 135.733 188.594 135.733 188.595 135.733C188.603 135.733 188.586 135.733 188.567 135.732C188.535 135.732 188.388 135.729 188.218 135.657C188.017 135.572 187.869 135.429 187.775 135.278L189.452 134.188C189.353 134.03 189.2 133.883 188.994 133.796C188.818 133.721 188.665 133.718 188.625 133.717C188.612 133.717 188.602 133.717 188.596 133.717C188.592 133.717 188.59 133.717 188.588 133.717C188.587 133.717 188.587 133.717 188.586 133.717C188.586 133.717 188.586 133.717 188.586 133.717C188.586 133.717 188.586 133.717 188.586 133.717C188.583 133.717 188.597 133.717 188.613 133.717C188.652 133.718 188.716 133.722 188.793 133.739L188.346 135.707ZM188.39 135.717C188.222 135.679 188.071 135.594 187.951 135.479C187.856 135.386 187.8 135.288 187.814 135.31L189.491 134.221C189.475 134.196 189.281 133.851 188.837 133.75L188.39 135.717ZM187.814 135.31L202.658 159.065L204.335 157.976L189.491 134.221L187.814 135.31ZM202.658 159.065C202.672 159.088 202.608 158.994 202.566 158.867C202.514 158.708 202.503 158.533 202.54 158.362L204.478 158.78C204.576 158.327 204.351 158.001 204.335 157.976L202.658 159.065ZM202.54 158.362C202.52 158.451 202.516 158.526 202.515 158.574C202.515 158.595 202.515 158.613 202.515 158.615C202.515 158.623 202.515 158.605 202.515 158.586C202.516 158.555 202.518 158.405 202.589 158.23C202.673 158.023 202.815 157.868 202.969 157.768L204.029 159.464C204.19 159.359 204.336 159.199 204.422 158.986C204.496 158.805 204.498 158.65 204.499 158.611C204.499 158.597 204.499 158.587 204.499 158.581C204.499 158.577 204.499 158.575 204.499 158.573C204.499 158.572 204.499 158.572 204.499 158.571C204.499 158.571 204.499 158.571 204.499 158.571C204.499 158.571 204.499 158.571 204.499 158.571C204.499 158.568 204.499 158.582 204.499 158.598C204.498 158.637 204.495 158.702 204.478 158.78L202.54 158.362ZM202.613 158.168L185.693 192.349L187.465 193.244L204.385 159.063L202.613 158.168ZM185.61 192.587C185.647 192.416 185.73 192.258 185.847 192.133C185.94 192.033 186.04 191.974 186.017 191.988L187.077 193.684C187.104 193.667 187.449 193.464 187.548 193.005L185.61 192.587ZM186.017 191.988C185.995 192.003 186.089 191.936 186.217 191.892C186.379 191.837 186.554 191.827 186.722 191.865L186.275 193.832C186.724 193.935 187.05 193.702 187.077 193.684L186.017 191.988ZM186.477 191.841L159.377 192.636L159.42 194.651L186.519 193.856L186.477 191.841ZM159.622 192.66C159.593 192.653 159.656 192.665 159.725 192.692C159.783 192.714 160.018 192.808 160.185 193.075L158.507 194.164C158.683 194.445 158.933 194.548 159.009 194.578C159.061 194.597 159.104 194.609 159.128 194.616C159.151 194.622 159.173 194.626 159.175 194.627L159.622 192.66ZM159.569 192.636C159.737 192.674 159.888 192.759 160.008 192.874C160.103 192.966 160.159 193.065 160.145 193.042L158.468 194.132C158.484 194.157 158.678 194.502 159.122 194.603L159.569 192.636ZM160.145 193.042C160.131 193.02 160.195 193.113 160.237 193.24C160.289 193.4 160.3 193.575 160.263 193.746L158.325 193.328C158.227 193.781 158.452 194.107 158.468 194.132L160.145 193.042ZM160.263 193.746C160.283 193.657 160.287 193.582 160.288 193.534C160.288 193.513 160.288 193.495 160.288 193.493C160.288 193.485 160.288 193.502 160.288 193.522C160.287 193.553 160.285 193.702 160.214 193.877C160.13 194.085 159.988 194.24 159.834 194.34L158.774 192.644C158.613 192.748 158.467 192.908 158.38 193.122C158.307 193.303 158.305 193.458 158.304 193.497C158.304 193.51 158.304 193.521 158.304 193.527C158.304 193.53 158.304 193.533 158.304 193.535C158.304 193.535 158.304 193.536 158.304 193.537C158.304 193.537 158.304 193.537 158.304 193.537C158.304 193.537 158.304 193.537 158.304 193.537C158.304 193.54 158.304 193.526 158.304 193.509C158.305 193.471 158.308 193.406 158.325 193.328L160.263 193.746ZM160.188 193.944L163.591 187.145L161.824 186.242L158.42 193.04L160.188 193.944ZM163.677 186.903C163.64 187.074 163.556 187.231 163.44 187.357C163.347 187.457 163.247 187.516 163.269 187.501L162.21 185.805C162.182 185.823 161.838 186.026 161.739 186.484L163.677 186.903ZM163.269 187.501C163.292 187.487 163.197 187.554 163.069 187.598C162.908 187.652 162.733 187.663 162.565 187.625L163.012 185.657C162.563 185.555 162.237 185.788 162.21 185.805L163.269 187.501ZM162.812 187.648L182.262 187.039L182.215 185.025L162.765 185.634L162.812 187.648ZM182.015 187.016C182.465 187.118 182.79 186.885 182.817 186.868L181.758 185.172C181.735 185.186 181.83 185.119 181.958 185.075C182.119 185.021 182.294 185.01 182.462 185.048L182.015 187.016ZM182.817 186.868C182.845 186.85 183.189 186.647 183.288 186.189L181.35 185.77C181.387 185.599 181.471 185.442 181.587 185.316C181.68 185.216 181.78 185.157 181.758 185.172L182.817 186.868ZM183.205 186.427L196.637 159.274L194.866 158.379L181.434 185.532L183.205 186.427ZM196.72 159.036C196.703 159.114 196.68 159.175 196.664 159.211C196.658 159.226 196.652 159.239 196.653 159.237C196.653 159.237 196.653 159.237 196.653 159.236C196.653 159.236 196.653 159.236 196.653 159.236C196.653 159.236 196.654 159.235 196.654 159.234C196.655 159.233 196.656 159.23 196.657 159.227C196.66 159.222 196.664 159.212 196.67 159.2C196.685 159.163 196.747 159.02 196.755 158.826C196.765 158.599 196.699 158.396 196.6 158.237L194.923 159.326C194.828 159.174 194.764 158.978 194.773 158.756C194.781 158.568 194.84 158.432 194.853 158.402C194.861 158.384 194.869 158.368 194.865 158.376C194.864 158.377 194.857 158.393 194.848 158.413C194.829 158.457 194.802 158.527 194.783 158.617L196.72 159.036ZM196.724 158.53C196.717 158.501 196.71 158.478 196.706 158.464C196.7 158.442 196.705 158.46 196.709 158.476C196.715 158.499 196.729 158.561 196.734 158.642C196.74 158.733 196.732 158.821 196.714 158.904L194.776 158.486C194.756 158.58 194.748 158.679 194.754 158.78C194.759 158.872 194.776 158.945 194.784 158.98C194.789 158.998 194.793 159.013 194.795 159.021C194.796 159.025 194.797 159.028 194.798 159.031C194.799 159.034 194.799 159.034 194.8 159.036C194.801 159.04 194.8 159.037 194.799 159.033L196.724 158.53Z" fill="#0C0F12" mask="url(#path-29-inside-1_1137_7590)"></path><mask id="path-31-inside-2_1137_7590" fill="white"><path d="M182.794 125.541C182.772 125.536 182.763 125.522 182.75 125.531L145.305 126.713C145.283 126.708 145.269 126.717 145.256 126.726C145.242 126.734 145.229 126.743 145.224 126.766L128.358 160.911C128.344 160.92 128.34 160.942 128.348 160.956C128.357 160.97 128.352 160.992 128.361 161.006L148.932 193.896C148.94 193.91 148.949 193.924 148.971 193.929C148.993 193.934 149.002 193.948 149.015 193.939C149.028 193.93 149.059 193.949 149.073 193.94C149.086 193.931 149.1 193.923 149.104 193.9L155.49 180.81C155.495 180.787 155.508 180.778 155.521 180.77C155.535 180.761 155.548 180.752 155.571 180.757L178.485 180.086C178.507 180.091 178.521 180.082 178.534 180.073C178.548 180.064 178.561 180.056 178.566 180.033L188.962 159.053C188.966 159.031 188.98 159.022 188.971 159.008C188.976 158.986 188.968 158.972 188.959 158.958L182.058 147.914C182.049 147.9 182.027 147.895 182.018 147.881L176.33 138.779L182.831 125.691C182.836 125.668 182.849 125.659 182.841 125.646C182.832 125.632 182.837 125.609 182.828 125.596C182.82 125.582 182.816 125.546 182.794 125.541ZM142.844 160.39C142.839 160.412 142.834 160.435 142.829 160.457C142.824 160.48 142.833 160.494 142.85 160.521L151.3 174.044C151.309 174.058 151.326 174.086 151.321 174.108C151.316 174.131 151.311 174.153 151.306 174.176L148.381 180.102C148.376 180.125 148.362 180.134 148.335 180.151C148.322 180.16 148.295 180.177 148.273 180.172C148.251 180.167 148.229 180.162 148.207 180.157C148.185 180.152 148.176 180.139 148.159 180.111L136.069 160.763C136.06 160.749 136.043 160.721 136.048 160.699C136.053 160.676 136.057 160.654 136.062 160.631L149.4 133.54C149.405 133.517 149.419 133.508 149.445 133.491C149.459 133.482 149.486 133.465 149.508 133.47L171.682 132.795C171.704 132.8 171.726 132.805 171.749 132.81C171.771 132.815 171.779 132.829 171.796 132.857C171.814 132.884 171.822 132.898 171.817 132.92C171.813 132.943 171.808 132.965 171.803 132.988L168.931 138.88C168.926 138.902 168.913 138.911 168.886 138.928C168.872 138.937 168.845 138.955 168.823 138.95L153.256 139.438C153.234 139.433 153.221 139.441 153.194 139.459C153.18 139.468 153.153 139.485 153.148 139.508L142.844 160.39ZM181.263 159.252C181.258 159.274 181.267 159.288 181.253 159.297L174.301 173.298C174.296 173.32 174.282 173.329 174.269 173.338C174.255 173.347 174.242 173.355 174.22 173.35L159.05 173.716C159.036 173.725 159.028 173.711 159.006 173.706C158.984 173.701 158.975 173.687 158.966 173.673L150.568 160.233C150.559 160.219 150.551 160.205 150.555 160.183C150.56 160.16 150.552 160.146 150.565 160.138L157.421 146.315C157.426 146.293 157.44 146.284 157.453 146.275C157.467 146.267 157.48 146.258 157.502 146.263L172.826 145.72L180.468 157.948L181.251 159.202C181.259 159.215 181.268 159.229 181.263 159.252Z"></path></mask><path d="M182.794 125.541C182.772 125.536 182.763 125.522 182.75 125.531L145.305 126.713C145.283 126.708 145.269 126.717 145.256 126.726C145.242 126.734 145.229 126.743 145.224 126.766L128.358 160.911C128.344 160.92 128.34 160.942 128.348 160.956C128.357 160.97 128.352 160.992 128.361 161.006L148.932 193.896C148.94 193.91 148.949 193.924 148.971 193.929C148.993 193.934 149.002 193.948 149.015 193.939C149.028 193.93 149.059 193.949 149.073 193.94C149.086 193.931 149.1 193.923 149.104 193.9L155.49 180.81C155.495 180.787 155.508 180.778 155.521 180.77C155.535 180.761 155.548 180.752 155.571 180.757L178.485 180.086C178.507 180.091 178.521 180.082 178.534 180.073C178.548 180.064 178.561 180.056 178.566 180.033L188.962 159.053C188.966 159.031 188.98 159.022 188.971 159.008C188.976 158.986 188.968 158.972 188.959 158.958L182.058 147.914C182.049 147.9 182.027 147.895 182.018 147.881L176.33 138.779L182.831 125.691C182.836 125.668 182.849 125.659 182.841 125.646C182.832 125.632 182.837 125.609 182.828 125.596C182.82 125.582 182.816 125.546 182.794 125.541ZM142.844 160.39C142.839 160.412 142.834 160.435 142.829 160.457C142.824 160.48 142.833 160.494 142.85 160.521L151.3 174.044C151.309 174.058 151.326 174.086 151.321 174.108C151.316 174.131 151.311 174.153 151.306 174.176L148.381 180.102C148.376 180.125 148.362 180.134 148.335 180.151C148.322 180.16 148.295 180.177 148.273 180.172C148.251 180.167 148.229 180.162 148.207 180.157C148.185 180.152 148.176 180.139 148.159 180.111L136.069 160.763C136.06 160.749 136.043 160.721 136.048 160.699C136.053 160.676 136.057 160.654 136.062 160.631L149.4 133.54C149.405 133.517 149.419 133.508 149.445 133.491C149.459 133.482 149.486 133.465 149.508 133.47L171.682 132.795C171.704 132.8 171.726 132.805 171.749 132.81C171.771 132.815 171.779 132.829 171.796 132.857C171.814 132.884 171.822 132.898 171.817 132.92C171.813 132.943 171.808 132.965 171.803 132.988L168.931 138.88C168.926 138.902 168.913 138.911 168.886 138.928C168.872 138.937 168.845 138.955 168.823 138.95L153.256 139.438C153.234 139.433 153.221 139.441 153.194 139.459C153.18 139.468 153.153 139.485 153.148 139.508L142.844 160.39ZM181.263 159.252C181.258 159.274 181.267 159.288 181.253 159.297L174.301 173.298C174.296 173.32 174.282 173.329 174.269 173.338C174.255 173.347 174.242 173.355 174.22 173.35L159.05 173.716C159.036 173.725 159.028 173.711 159.006 173.706C158.984 173.701 158.975 173.687 158.966 173.673L150.568 160.233C150.559 160.219 150.551 160.205 150.555 160.183C150.56 160.16 150.552 160.146 150.565 160.138L157.421 146.315C157.426 146.293 157.44 146.284 157.453 146.275C157.467 146.267 157.48 146.258 157.502 146.263L172.826 145.72L180.468 157.948L181.251 159.202C181.259 159.215 181.268 159.229 181.263 159.252Z" fill="black"></path><path d="M182.75 125.531L182.773 126.538L183.048 126.529L183.28 126.379L182.75 125.531ZM145.305 126.713L145.081 127.697L145.203 127.724L145.328 127.72L145.305 126.713ZM145.224 126.766L146.11 127.212L146.166 127.099L146.193 126.975L145.224 126.766ZM128.358 160.911L128.888 161.759L129.12 161.608L129.244 161.358L128.358 160.911ZM128.361 161.006L127.522 161.551L127.522 161.551L128.361 161.006ZM148.932 193.896L149.77 193.352L149.77 193.351L148.932 193.896ZM149.104 193.9L148.216 193.458L148.162 193.57L148.136 193.691L149.104 193.9ZM155.49 180.81L156.378 181.252L156.432 181.14L156.459 181.019L155.49 180.81ZM155.571 180.757L155.347 181.741L155.468 181.768L155.592 181.765L155.571 180.757ZM178.485 180.086L178.709 179.102L178.588 179.075L178.464 179.078L178.485 180.086ZM178.566 180.033L177.681 179.585L177.624 179.699L177.597 179.824L178.566 180.033ZM188.962 159.053L189.847 159.501L189.904 159.387L189.93 159.263L188.962 159.053ZM188.971 159.008L188.002 158.799L187.915 159.204L188.133 159.553L188.971 159.008ZM176.33 138.779L175.445 138.33L175.191 138.842L175.492 139.323L176.33 138.779ZM182.831 125.691L183.716 126.139L183.773 126.025L183.8 125.9L182.831 125.691ZM142.844 160.39L141.957 159.943L141.901 160.057L141.875 160.181L142.844 160.39ZM151.306 174.176L152.193 174.622L152.249 174.509L152.275 174.385L151.306 174.176ZM148.381 180.102L147.495 179.656L147.439 179.769L147.412 179.893L148.381 180.102ZM136.062 160.631L135.176 160.186L135.12 160.299L135.093 160.422L136.062 160.631ZM149.4 133.54L150.287 133.985L150.342 133.872L150.369 133.749L149.4 133.54ZM149.508 133.47L149.284 134.453L149.406 134.481L149.53 134.477L149.508 133.47ZM171.682 132.795L171.906 131.812L171.784 131.784L171.66 131.788L171.682 132.795ZM171.803 132.988L172.691 133.43L172.745 133.318L172.772 133.197L171.803 132.988ZM168.931 138.88L168.043 138.438L167.988 138.549L167.962 138.67L168.931 138.88ZM168.823 138.95L169.047 137.966L168.925 137.938L168.8 137.942L168.823 138.95ZM153.256 139.438L153.033 140.421L153.154 140.449L153.279 140.445L153.256 139.438ZM153.148 139.508L154.034 139.954L154.09 139.84L154.117 139.717L153.148 139.508ZM181.253 159.297L180.723 158.449L180.492 158.599L180.368 158.848L181.253 159.297ZM174.301 173.298L173.416 172.849L173.359 172.964L173.332 173.089L174.301 173.298ZM174.22 173.35L174.443 172.367L174.325 172.34L174.204 172.343L174.22 173.35ZM159.05 173.716L159.034 172.708L158.755 172.715L158.52 172.868L159.05 173.716ZM150.565 160.138L151.095 160.986L151.327 160.835L151.45 160.586L150.565 160.138ZM157.421 146.315L158.307 146.764L158.363 146.649L158.39 146.525L157.421 146.315ZM157.502 146.263L157.279 147.247L157.402 147.275L157.529 147.27L157.502 146.263ZM172.826 145.72L173.665 145.175L173.363 144.693L172.799 144.713L172.826 145.72ZM183.017 124.557C183.094 124.574 183.153 124.599 183.188 124.614C183.203 124.621 183.215 124.627 183.213 124.626C183.213 124.626 183.213 124.626 183.212 124.626C183.212 124.626 183.212 124.625 183.212 124.625C183.212 124.625 183.211 124.625 183.21 124.625C183.209 124.624 183.207 124.623 183.204 124.621C183.198 124.619 183.189 124.614 183.177 124.609C183.142 124.593 183.002 124.53 182.811 124.521C182.585 124.51 182.38 124.578 182.22 124.682L183.28 126.379C183.126 126.479 182.928 126.545 182.707 126.535C182.522 126.526 182.388 126.465 182.36 126.452C182.343 126.444 182.328 126.436 182.335 126.44C182.336 126.441 182.352 126.449 182.371 126.457C182.414 126.476 182.482 126.504 182.57 126.524L183.017 124.557ZM182.726 124.523L145.281 125.706L145.328 127.72L182.773 126.538L182.726 124.523ZM145.528 125.729C145.079 125.627 144.753 125.86 144.726 125.878L145.786 127.574C145.808 127.559 145.714 127.626 145.586 127.67C145.424 127.725 145.249 127.735 145.081 127.697L145.528 125.729ZM144.726 125.878C144.699 125.895 144.354 126.098 144.255 126.556L146.193 126.975C146.156 127.146 146.073 127.303 145.956 127.429C145.863 127.529 145.763 127.588 145.786 127.574L144.726 125.878ZM144.338 126.319L127.472 160.464L129.244 161.358L146.11 127.212L144.338 126.319ZM127.828 160.063C127.545 160.247 127.42 160.519 127.376 160.722C127.332 160.927 127.335 161.221 127.51 161.501L129.187 160.411C129.353 160.677 129.354 160.953 129.314 161.141C129.273 161.328 129.157 161.584 128.888 161.759L127.828 160.063ZM127.51 161.501C127.467 161.432 127.438 161.368 127.419 161.315C127.4 161.262 127.389 161.216 127.382 161.183C127.375 161.151 127.372 161.125 127.37 161.112C127.369 161.104 127.368 161.099 127.368 161.096C127.368 161.094 127.368 161.092 127.368 161.093C127.368 161.094 127.368 161.098 127.369 161.103C127.369 161.108 127.37 161.116 127.371 161.125C127.374 161.143 127.378 161.173 127.386 161.21C127.393 161.247 127.406 161.297 127.426 161.354C127.447 161.411 127.477 161.479 127.522 161.551L129.199 160.461C129.242 160.53 129.27 160.594 129.29 160.648C129.309 160.701 129.32 160.746 129.327 160.779C129.334 160.811 129.337 160.837 129.339 160.851C129.34 160.858 129.34 160.863 129.341 160.866C129.341 160.869 129.341 160.871 129.341 160.869C129.341 160.868 129.341 160.864 129.34 160.859C129.339 160.854 129.339 160.846 129.337 160.837C129.335 160.819 129.331 160.789 129.323 160.752C129.315 160.715 129.303 160.666 129.283 160.609C129.262 160.551 129.232 160.483 129.187 160.411L127.51 161.501ZM127.522 161.551L148.093 194.441L149.77 193.351L129.199 160.461L127.522 161.551ZM148.093 194.441C148.109 194.466 148.303 194.811 148.747 194.913L149.194 192.945C149.362 192.983 149.513 193.068 149.633 193.184C149.728 193.276 149.784 193.374 149.77 193.352L148.093 194.441ZM148.747 194.913C148.67 194.895 148.611 194.871 148.577 194.855C148.562 194.849 148.55 194.843 148.552 194.844C148.552 194.844 148.552 194.844 148.552 194.844C148.552 194.844 148.553 194.844 148.553 194.844C148.553 194.844 148.554 194.845 148.554 194.845C148.556 194.846 148.558 194.847 148.561 194.848C148.566 194.851 148.576 194.855 148.588 194.861C148.623 194.876 148.762 194.94 148.954 194.949C149.18 194.959 149.384 194.891 149.545 194.787L148.485 193.091C148.639 192.991 148.837 192.925 149.057 192.935C149.243 192.943 149.376 193.005 149.405 193.018C149.422 193.025 149.437 193.033 149.43 193.03C149.428 193.029 149.413 193.021 149.394 193.012C149.351 192.993 149.282 192.965 149.194 192.945L148.747 194.913ZM149.545 194.787C149.403 194.879 149.266 194.917 149.166 194.933C149.116 194.941 149.072 194.944 149.036 194.944C148.999 194.945 148.968 194.943 148.943 194.942C148.919 194.94 148.898 194.937 148.882 194.935C148.866 194.932 148.853 194.93 148.843 194.928C148.834 194.926 148.827 194.925 148.824 194.924C148.821 194.923 148.818 194.923 148.82 194.923C148.821 194.923 148.826 194.925 148.832 194.926C148.838 194.927 148.848 194.929 148.86 194.932C148.872 194.934 148.887 194.937 148.906 194.939C148.925 194.942 148.948 194.945 148.975 194.947C149.003 194.949 149.036 194.951 149.075 194.95C149.113 194.95 149.16 194.946 149.212 194.938C149.317 194.922 149.458 194.882 149.603 194.788L148.543 193.092C148.684 193 148.821 192.962 148.921 192.946C148.972 192.939 149.016 192.936 149.052 192.935C149.088 192.934 149.12 192.936 149.144 192.938C149.169 192.94 149.19 192.942 149.206 192.945C149.222 192.947 149.235 192.949 149.244 192.951C149.253 192.953 149.26 192.954 149.264 192.955C149.267 192.956 149.269 192.956 149.267 192.956C149.267 192.956 149.261 192.955 149.256 192.953C149.249 192.952 149.24 192.95 149.228 192.948C149.216 192.945 149.2 192.942 149.182 192.94C149.163 192.937 149.139 192.934 149.112 192.932C149.085 192.93 149.051 192.928 149.013 192.929C148.974 192.93 148.928 192.933 148.875 192.941C148.771 192.957 148.63 192.997 148.485 193.091L149.545 194.787ZM149.603 194.788C149.63 194.771 149.974 194.568 150.073 194.109L148.136 193.691C148.173 193.52 148.256 193.362 148.373 193.237C148.465 193.137 148.565 193.078 148.543 193.092L149.603 194.788ZM149.993 194.342L156.378 181.252L154.601 180.367L148.216 193.458L149.993 194.342ZM156.459 181.019C156.422 181.19 156.338 181.347 156.222 181.473C156.129 181.573 156.029 181.632 156.051 181.618L154.992 179.922C154.964 179.939 154.62 180.142 154.521 180.6L156.459 181.019ZM156.051 181.618C156.074 181.603 155.979 181.67 155.851 181.714C155.69 181.769 155.515 181.779 155.347 181.741L155.794 179.774C155.345 179.671 155.019 179.904 154.992 179.922L156.051 181.618ZM155.592 181.765L178.507 181.093L178.464 179.078L155.549 179.75L155.592 181.765ZM178.262 181.069C178.711 181.172 179.037 180.939 179.064 180.921L178.005 179.225C177.982 179.24 178.077 179.172 178.205 179.129C178.366 179.074 178.541 179.064 178.709 179.102L178.262 181.069ZM179.064 180.921C179.092 180.903 179.436 180.701 179.535 180.242L177.597 179.824C177.634 179.653 177.717 179.495 177.834 179.37C177.927 179.27 178.027 179.211 178.005 179.225L179.064 180.921ZM179.452 180.481L189.847 159.501L188.076 158.606L177.681 179.585L179.452 180.481ZM189.93 159.263C189.913 159.341 189.89 159.402 189.874 159.438C189.868 159.453 189.862 159.465 189.863 159.463C189.863 159.463 189.863 159.463 189.863 159.463C189.863 159.463 189.863 159.463 189.863 159.463C189.863 159.462 189.864 159.462 189.864 159.461C189.865 159.46 189.866 159.457 189.867 159.454C189.87 159.449 189.874 159.439 189.88 159.427C189.895 159.39 189.957 159.247 189.965 159.053C189.975 158.825 189.909 158.622 189.81 158.464L188.133 159.553C188.038 159.401 187.974 159.204 187.983 158.983C187.991 158.795 188.05 158.659 188.063 158.629C188.071 158.611 188.079 158.595 188.075 158.602C188.074 158.604 188.067 158.62 188.058 158.64C188.039 158.684 188.012 158.754 187.993 158.844L189.93 159.263ZM189.94 159.218C190.038 158.764 189.813 158.439 189.798 158.414L188.12 159.503C188.134 159.526 188.07 159.432 188.029 159.305C187.976 159.146 187.965 158.97 188.002 158.799L189.94 159.218ZM189.798 158.414L182.896 147.369L181.219 148.459L188.12 159.503L189.798 158.414ZM182.896 147.369C182.852 147.298 182.804 147.241 182.761 147.197C182.72 147.154 182.681 147.122 182.651 147.099C182.622 147.077 182.597 147.06 182.582 147.05C182.574 147.045 182.567 147.041 182.563 147.039C182.559 147.036 182.555 147.034 182.555 147.034C182.553 147.033 182.555 147.034 182.557 147.035C182.56 147.036 182.564 147.039 182.57 147.043C182.582 147.051 182.603 147.065 182.629 147.085C182.655 147.105 182.691 147.134 182.73 147.174C182.769 147.215 182.814 147.269 182.857 147.337L181.18 148.426C181.224 148.498 181.272 148.554 181.315 148.598C181.356 148.641 181.395 148.673 181.425 148.696C181.454 148.718 181.479 148.735 181.494 148.745C181.502 148.75 181.509 148.754 181.513 148.757C181.517 148.759 181.521 148.761 181.521 148.762C181.523 148.763 181.521 148.762 181.519 148.76C181.516 148.759 181.512 148.756 181.506 148.752C181.494 148.745 181.473 148.73 181.447 148.711C181.421 148.691 181.385 148.661 181.346 148.621C181.307 148.58 181.262 148.527 181.219 148.459L182.896 147.369ZM182.857 147.337L177.169 138.234L175.492 139.323L181.18 148.426L182.857 147.337ZM177.215 139.227L183.716 126.139L181.946 125.242L175.445 138.33L177.215 139.227ZM183.8 125.9C183.783 125.979 183.759 126.039 183.744 126.075C183.737 126.091 183.731 126.103 183.732 126.101C183.732 126.101 183.732 126.101 183.732 126.101C183.732 126.1 183.732 126.1 183.732 126.1C183.733 126.1 183.733 126.099 183.733 126.098C183.734 126.097 183.735 126.095 183.736 126.092C183.739 126.086 183.744 126.076 183.749 126.064C183.765 126.027 183.826 125.885 183.835 125.69C183.844 125.463 183.778 125.26 183.679 125.101L182.002 126.19C181.907 126.039 181.843 125.842 181.852 125.62C181.86 125.432 181.92 125.296 181.933 125.266C181.94 125.248 181.948 125.232 181.945 125.24C181.944 125.241 181.936 125.257 181.928 125.277C181.908 125.321 181.881 125.392 181.862 125.481L183.8 125.9ZM183.679 125.101C183.722 125.169 183.75 125.234 183.77 125.287C183.789 125.34 183.8 125.386 183.807 125.418C183.814 125.451 183.817 125.476 183.819 125.49C183.82 125.497 183.82 125.503 183.821 125.506C183.821 125.508 183.821 125.51 183.821 125.508C183.821 125.508 183.821 125.504 183.82 125.499C183.82 125.494 183.819 125.486 183.817 125.477C183.815 125.458 183.811 125.428 183.803 125.392C183.796 125.355 183.783 125.305 183.763 125.248C183.742 125.191 183.712 125.123 183.667 125.051L181.99 126.14C181.947 126.072 181.918 126.008 181.899 125.954C181.88 125.901 181.869 125.856 181.862 125.823C181.855 125.791 181.852 125.765 181.85 125.751C181.849 125.744 181.848 125.739 181.848 125.736C181.848 125.733 181.848 125.731 181.848 125.733C181.848 125.734 181.848 125.738 181.849 125.743C181.849 125.748 181.85 125.755 181.851 125.765C181.854 125.783 181.858 125.813 181.866 125.85C181.873 125.887 181.886 125.936 181.906 125.993C181.927 126.051 181.957 126.119 182.002 126.19L183.679 125.101ZM183.667 125.051C183.706 125.114 183.729 125.167 183.739 125.19C183.749 125.215 183.756 125.235 183.757 125.237C183.765 125.259 183.747 125.206 183.73 125.165C183.711 125.121 183.663 125.011 183.568 124.896C183.463 124.77 183.283 124.617 183.017 124.557L182.57 126.524C182.316 126.466 182.145 126.32 182.047 126.202C181.959 126.096 181.916 125.997 181.902 125.964C181.89 125.935 181.876 125.894 181.888 125.927C181.89 125.935 181.899 125.959 181.911 125.989C181.923 126.017 181.948 126.074 181.99 126.14L183.667 125.051ZM141.875 160.181C141.872 160.192 141.87 160.203 141.867 160.214C141.865 160.226 141.862 160.237 141.86 160.248L143.798 160.667C143.8 160.655 143.803 160.644 143.805 160.633C143.808 160.622 143.81 160.61 143.812 160.599L141.875 160.181ZM141.86 160.248C141.814 160.46 141.834 160.67 141.906 160.857C141.933 160.93 141.964 160.986 141.98 161.013C141.995 161.04 142.01 161.064 142.011 161.066L143.689 159.977C143.681 159.965 143.689 159.977 143.698 159.992C143.707 160.009 143.733 160.054 143.757 160.118C143.783 160.187 143.808 160.277 143.817 160.384C143.825 160.491 143.815 160.587 143.798 160.667L141.86 160.248ZM142.011 161.066L150.461 174.589L152.139 173.5L143.689 159.977L142.011 161.066ZM150.461 174.589C150.469 174.601 150.433 174.547 150.402 174.472C150.385 174.432 150.36 174.365 150.345 174.277C150.329 174.19 150.318 174.057 150.352 173.899L152.29 174.317C152.359 173.998 152.261 173.749 152.229 173.674C152.189 173.576 152.14 173.502 152.139 173.5L150.461 174.589ZM150.352 173.899C150.35 173.91 150.347 173.921 150.345 173.933C150.342 173.944 150.34 173.955 150.338 173.966L152.275 174.385C152.278 174.374 152.28 174.362 152.283 174.351C152.285 174.34 152.288 174.329 152.29 174.317L150.352 173.899ZM150.42 173.729L147.495 179.656L149.267 180.549L152.193 174.622L150.42 173.729ZM147.412 179.893C147.429 179.814 147.46 179.722 147.513 179.626C147.566 179.531 147.627 179.458 147.681 179.405C147.731 179.357 147.774 179.325 147.79 179.314C147.805 179.304 147.817 179.296 147.806 179.303L148.865 180.999C148.867 180.998 148.892 180.982 148.917 180.965C148.943 180.946 148.995 180.908 149.052 180.852C149.198 180.709 149.304 180.524 149.35 180.312L147.412 179.893ZM147.806 179.303C147.794 179.311 147.849 179.273 147.924 179.24C147.965 179.223 148.033 179.197 148.121 179.181C148.209 179.164 148.342 179.154 148.496 179.189L148.049 181.156C148.365 181.228 148.614 181.127 148.691 181.094C148.788 181.051 148.864 181 148.865 180.999L147.806 179.303ZM148.496 179.189C148.485 179.186 148.474 179.184 148.463 179.181C148.452 179.179 148.441 179.176 148.43 179.174L147.983 181.141C147.994 181.143 148.005 181.146 148.016 181.149C148.027 181.151 148.038 181.154 148.049 181.156L148.496 179.189ZM148.43 179.174C148.508 179.191 148.598 179.223 148.689 179.276C148.781 179.329 148.851 179.39 148.901 179.444C148.947 179.493 148.977 179.536 148.988 179.551C148.997 179.566 149.005 179.578 148.998 179.566L147.32 180.656C147.322 180.658 147.336 180.682 147.353 180.707C147.371 180.733 147.408 180.785 147.461 180.842C147.597 180.986 147.775 181.094 147.983 181.141L148.43 179.174ZM148.998 179.566L136.907 160.218L135.23 161.307L147.32 180.656L148.998 179.566ZM136.907 160.218C136.9 160.206 136.936 160.26 136.967 160.335C136.984 160.375 137.008 160.442 137.024 160.53C137.04 160.617 137.051 160.751 137.017 160.908L135.079 160.49C135.01 160.809 135.108 161.059 135.139 161.134C135.18 161.231 135.229 161.305 135.23 161.307L136.907 160.218ZM137.017 160.908C137.019 160.897 137.022 160.886 137.024 160.874C137.026 160.863 137.029 160.852 137.031 160.841L135.093 160.422C135.091 160.433 135.089 160.445 135.086 160.456C135.084 160.467 135.081 160.478 135.079 160.49L137.017 160.908ZM136.949 161.077L150.287 133.985L148.514 133.094L135.176 160.186L136.949 161.077ZM150.369 133.749C150.352 133.828 150.321 133.92 150.268 134.016C150.215 134.111 150.154 134.184 150.1 134.237C150.05 134.285 150.007 134.317 149.991 134.328C149.976 134.338 149.964 134.346 149.975 134.339L148.916 132.643C148.914 132.644 148.889 132.66 148.864 132.677C148.838 132.696 148.786 132.734 148.729 132.79C148.583 132.933 148.477 133.118 148.431 133.33L150.369 133.749ZM149.975 134.339C149.987 134.331 149.932 134.369 149.857 134.402C149.816 134.42 149.748 134.445 149.66 134.461C149.572 134.478 149.439 134.489 149.284 134.453L149.731 132.486C149.416 132.414 149.167 132.515 149.09 132.548C148.993 132.591 148.917 132.642 148.916 132.643L149.975 134.339ZM149.53 134.477L171.705 133.803L171.66 131.788L149.486 132.462L149.53 134.477ZM171.459 133.779C171.47 133.781 171.481 133.784 171.492 133.786C171.503 133.789 171.514 133.791 171.525 133.794L171.972 131.827C171.961 131.824 171.95 131.822 171.939 131.819C171.928 131.817 171.917 131.814 171.906 131.812L171.459 133.779ZM171.525 133.794C171.447 133.776 171.358 133.745 171.266 133.692C171.174 133.638 171.105 133.577 171.055 133.524C171.008 133.475 170.979 133.432 170.968 133.416C170.958 133.402 170.951 133.39 170.958 133.401L172.635 132.312C172.634 132.31 172.619 132.286 172.602 132.261C172.584 132.234 172.547 132.183 172.494 132.126C172.358 131.981 172.18 131.874 171.972 131.827L171.525 133.794ZM170.958 133.401C170.965 133.413 170.957 133.401 170.949 133.386C170.939 133.369 170.914 133.324 170.89 133.26C170.863 133.191 170.838 133.101 170.83 132.994C170.821 132.886 170.831 132.79 170.848 132.711L172.786 133.13C172.832 132.918 172.812 132.708 172.741 132.521C172.713 132.447 172.682 132.392 172.667 132.364C172.652 132.338 172.636 132.314 172.635 132.312L170.958 133.401ZM170.848 132.711C170.846 132.722 170.844 132.734 170.841 132.745C170.839 132.756 170.836 132.767 170.834 132.779L172.772 133.197C172.774 133.186 172.777 133.175 172.779 133.163C172.781 133.152 172.784 133.141 172.786 133.13L170.848 132.711ZM170.914 132.546L168.043 138.438L169.819 139.322L172.691 133.43L170.914 132.546ZM167.962 138.67C167.979 138.591 168.01 138.499 168.063 138.404C168.116 138.308 168.177 138.235 168.231 138.183C168.281 138.134 168.324 138.103 168.34 138.091C168.355 138.081 168.367 138.073 168.356 138.08L169.416 139.776C169.418 139.775 169.442 139.76 169.467 139.742C169.493 139.723 169.545 139.685 169.602 139.629C169.748 139.486 169.854 139.301 169.9 139.089L167.962 138.67ZM168.356 138.08C168.344 138.088 168.399 138.05 168.474 138.017C168.515 138 168.583 137.974 168.671 137.958C168.759 137.942 168.892 137.931 169.047 137.966L168.6 139.933C168.915 140.005 169.164 139.904 169.241 139.871C169.339 139.829 169.414 139.778 169.416 139.776L168.356 138.08ZM168.8 137.942L153.233 138.43L153.279 140.445L168.846 139.957L168.8 137.942ZM153.48 138.454C153.272 138.407 153.062 138.426 152.873 138.501C152.8 138.53 152.744 138.561 152.716 138.578C152.69 138.594 152.666 138.609 152.664 138.611L153.723 140.307C153.735 140.299 153.723 140.308 153.707 140.317C153.69 140.327 153.644 140.353 153.58 140.379C153.51 140.406 153.419 140.432 153.312 140.441C153.205 140.45 153.11 140.439 153.033 140.421L153.48 138.454ZM152.664 138.611C152.662 138.612 152.585 138.66 152.506 138.732C152.444 138.789 152.249 138.977 152.179 139.298L154.117 139.717C154.083 139.875 154.017 139.993 153.966 140.067C153.914 140.142 153.863 140.193 153.83 140.224C153.769 140.28 153.712 140.314 153.723 140.307L152.664 138.611ZM152.262 139.061L141.957 159.943L143.73 160.836L154.034 139.954L152.262 139.061ZM180.294 159.042C180.275 159.132 180.27 159.207 180.27 159.255C180.269 159.276 180.269 159.294 180.269 159.296C180.27 159.304 180.269 159.286 180.27 159.267C180.27 159.236 180.272 159.086 180.343 158.912C180.427 158.704 180.569 158.549 180.723 158.449L181.783 160.145C181.944 160.04 182.09 159.88 182.177 159.667C182.25 159.486 182.253 159.33 182.253 159.292C182.254 159.278 182.254 159.268 182.254 159.262C182.253 159.258 182.253 159.256 182.253 159.254C182.253 159.253 182.253 159.253 182.253 159.252C182.253 159.252 182.253 159.252 182.253 159.252C182.253 159.252 182.253 159.251 182.253 159.251C182.253 159.249 182.254 159.262 182.253 159.279C182.253 159.318 182.249 159.382 182.232 159.461L180.294 159.042ZM180.368 158.848L173.416 172.849L175.186 173.747L182.138 159.745L180.368 158.848ZM173.332 173.089C173.369 172.917 173.452 172.76 173.569 172.634C173.662 172.534 173.761 172.475 173.739 172.49L174.799 174.186C174.826 174.168 175.171 173.966 175.27 173.507L173.332 173.089ZM173.739 172.49C173.717 172.504 173.811 172.437 173.939 172.394C174.101 172.339 174.276 172.329 174.443 172.367L173.996 174.334C174.446 174.436 174.771 174.204 174.799 174.186L173.739 172.49ZM174.204 172.343L159.034 172.708L159.066 174.724L174.236 174.358L174.204 172.343ZM158.52 172.868C158.674 172.768 158.872 172.702 159.092 172.712C159.278 172.72 159.411 172.782 159.439 172.794C159.457 172.802 159.472 172.81 159.465 172.806C159.463 172.806 159.448 172.798 159.428 172.789C159.386 172.77 159.317 172.742 159.229 172.722L158.782 174.689C158.705 174.672 158.646 174.648 158.612 174.632C158.597 174.626 158.585 174.62 158.587 174.621C158.587 174.621 158.587 174.621 158.587 174.621C158.587 174.621 158.587 174.621 158.588 174.621C158.588 174.621 158.589 174.622 158.589 174.622C158.591 174.623 158.593 174.624 158.596 174.625C158.601 174.628 158.611 174.632 158.623 174.638C158.657 174.653 158.797 174.717 158.989 174.726C159.215 174.736 159.419 174.668 159.58 174.564L158.52 172.868ZM159.229 172.722C159.397 172.76 159.548 172.845 159.668 172.961C159.763 173.053 159.819 173.151 159.805 173.129L158.128 174.218C158.143 174.243 158.338 174.588 158.782 174.689L159.229 172.722ZM159.805 173.129L151.406 159.688L149.729 160.777L158.128 174.218L159.805 173.129ZM151.406 159.688C151.392 159.666 151.456 159.759 151.498 159.886C151.55 160.045 151.561 160.221 151.524 160.392L149.587 159.973C149.489 160.427 149.713 160.752 149.729 160.777L151.406 159.688ZM151.524 160.392C151.544 160.302 151.548 160.227 151.549 160.18C151.549 160.158 151.549 160.141 151.549 160.139C151.549 160.131 151.549 160.148 151.549 160.167C151.548 160.199 151.547 160.348 151.476 160.523C151.392 160.731 151.249 160.886 151.095 160.986L150.035 159.29C149.875 159.394 149.728 159.554 149.642 159.767C149.569 159.948 149.566 160.104 149.565 160.143C149.565 160.156 149.565 160.167 149.565 160.173C149.565 160.176 149.565 160.179 149.565 160.18C149.565 160.181 149.565 160.182 149.565 160.182C149.565 160.182 149.565 160.183 149.565 160.183C149.565 160.183 149.565 160.183 149.565 160.183C149.565 160.185 149.565 160.172 149.565 160.155C149.566 160.117 149.57 160.052 149.587 159.973L151.524 160.392ZM151.45 160.586L158.307 146.764L156.536 145.867L149.68 159.689L151.45 160.586ZM158.39 146.525C158.353 146.696 158.27 146.853 158.153 146.979C158.06 147.079 157.961 147.138 157.983 147.123L156.923 145.427C156.896 145.445 156.551 145.648 156.452 146.106L158.39 146.525ZM157.983 147.123C158.005 147.109 157.911 147.176 157.783 147.22C157.621 147.274 157.447 147.285 157.279 147.247L157.726 145.279C157.276 145.177 156.95 145.41 156.923 145.427L157.983 147.123ZM157.529 147.27L172.854 146.727L172.799 144.713L157.475 145.256L157.529 147.27ZM171.988 146.264L179.629 158.493L181.306 157.404L173.665 145.175L171.988 146.264ZM179.629 158.493L180.412 159.746L182.089 158.657L181.306 157.404L179.629 158.493ZM180.412 159.746C180.426 159.769 180.362 159.675 180.321 159.548C180.268 159.389 180.257 159.214 180.294 159.042L182.232 159.461C182.33 159.007 182.105 158.682 182.089 158.657L180.412 159.746Z" fill="#0C0F12" mask="url(#path-31-inside-2_1137_7590)"></path><defs><clipPath id="clip0_1137_7590"><rect width="28.1714" height="42" transform="matrix(0.939693 -0.34202 0.422618 0.906308 47 238.635)" fill="white"></rect></clipPath></defs></svg>