<svg width="24" height="24" viewBox="0 0 20 20" fill="none" xmlns="http://www.w3.org/2000/svg"><path d="M15.9531 17.3982H4.05664C2.50781 17.3982 1.25391 16.1423 1.25391 14.5955V11.7009L1.64453 11.5837C2.36328 11.3689 2.86523 10.6931 2.86523 9.94311C2.86523 9.19311 2.36328 8.51733 1.64453 8.30249L1.25391 8.1853V5.4314C1.25391 3.88257 2.50977 2.62866 4.05664 2.62866H15.9531C17.502 2.62866 18.7559 3.88452 18.7559 5.4314V8.1853L18.3652 8.30249C17.6465 8.51733 17.1445 9.19311 17.1445 9.94311C17.1445 10.6931 17.6465 11.3689 18.3652 11.5837L18.7559 11.7009V14.5935C18.7578 16.1423 17.502 17.3982 15.9531 17.3982ZM2.34766 12.4841V14.5955C2.34766 15.5388 3.11328 16.3044 4.05664 16.3044H15.9531C16.8965 16.3044 17.6621 15.5388 17.6621 14.5955V12.4841C16.6953 12.0271 16.0508 11.0349 16.0508 9.94507C16.0508 8.85522 16.6973 7.86304 17.6621 7.40601V5.43335C17.6621 4.48999 16.8965 3.72436 15.9531 3.72436H4.05664C3.11328 3.72436 2.34766 4.48999 2.34766 5.43335V7.40601C3.31445 7.86304 3.95898 8.85522 3.95898 9.94507C3.95898 11.033 3.31445 12.0251 2.34766 12.4841Z" fill="currentColor"></path><path d="M7.58789 12.1951V7.69507C7.58789 7.3689 7.85547 7.10327 8.17969 7.10327C8.50586 7.10327 8.77148 7.37085 8.77148 7.69507V12.1951C8.77148 12.5212 8.50391 12.7869 8.17969 12.7869C7.85352 12.7869 7.58789 12.5193 7.58789 12.1951ZM11.1426 12.1951V7.69507C11.1426 7.3689 11.4102 7.10327 11.7344 7.10327C12.0605 7.10327 12.3262 7.37085 12.3262 7.69507V12.1951C12.3262 12.5212 12.0586 12.7869 11.7344 12.7869C11.4102 12.7869 11.1426 12.5193 11.1426 12.1951Z" fill="currentColor"></path></svg>