<svg fill="currentColor" height="24" viewBox="0 0 24 24" width="24" xmlns="http://www.w3.org/2000/svg"><path d="M20.9706 5.29754C20.8373 4.53438 20.3077 4.34335 20.0864 4.29701L20.0231 4.28377H19.6637C19.6505 4.28282 19.6372 4.28188 19.623 4.28188H18.9771C18.9639 4.28188 18.9506 4.28282 18.9374 4.28377H18.9005V4.28755C18.6405 4.32443 18.4409 4.54762 18.4409 4.81808V4.98547C18.4409 5.25499 18.6405 5.47911 18.9005 5.516V5.52072H18.962C18.9667 5.52072 18.9724 5.52072 18.9781 5.52072H19.624C19.6296 5.52072 19.6344 5.52072 19.6401 5.52072H19.7545C19.7639 5.58598 19.7668 5.67298 19.7592 5.74201L19.7535 5.777V18.7612C19.7289 19.1348 19.6022 19.4157 19.3771 19.5963C19.2419 19.7041 19.1029 19.7523 19.0395 19.7703H18.0324L18.0333 19.7552C17.6324 19.7391 17.3893 19.5887 17.2484 19.2662C17.1245 18.9844 17.1283 18.6827 17.1283 18.6525L17.1293 18.643V5.15096C17.1699 4.39914 16.9846 3.82322 16.5798 3.43833C16.1145 2.99669 15.5396 2.99197 15.3646 3.00237H4.65947H4.65474C4.1819 3.0071 3.77904 3.18016 3.48872 3.50358C2.96008 4.0918 2.99129 4.97979 3.00642 5.18879V18.6411C3.00169 18.766 2.99885 19.236 3.22014 19.7287C3.55964 20.4843 4.2585 20.9382 5.18811 21.0044L5.20986 21.0063H19.153L19.1994 20.9997C19.2741 20.9883 19.6656 20.9174 20.0732 20.6195C20.46 20.3368 20.9328 19.7949 20.9886 18.8151L20.9895 18.7972V5.85739C20.9999 5.75714 21.0132 5.53869 20.9706 5.29754ZM5.2562 19.7693C4.96398 19.7457 4.56301 19.6634 4.36253 19.2521C4.2377 18.9967 4.24053 18.7291 4.24148 18.695L4.24243 18.6827V5.13205L4.23959 5.10179C4.2254 4.96088 4.23959 4.51735 4.40792 4.33011C4.44764 4.28661 4.50816 4.24121 4.66136 4.23932H15.3854L15.4053 4.2431L15.4469 4.23649C15.4809 4.23649 15.6322 4.24027 15.7325 4.34051C15.8573 4.46439 15.9141 4.73391 15.8923 5.09706L15.8914 5.11503V18.608C15.8866 18.7338 15.8847 19.2454 16.1174 19.7693H5.2562ZM14.557 6.17987C14.557 6.53828 14.2667 6.82955 13.9073 6.82955H6.17729C5.81888 6.82955 5.52761 6.53922 5.52761 6.17987C5.52761 5.82145 5.81888 5.53018 6.17729 5.53018H13.9083C14.2667 5.53018 14.557 5.82051 14.557 6.17987Z" fill="currentColor" stroke="currentColor" stroke-width="0.2"></path><path d="M14.5333 9.78836C14.5333 10.1468 14.2429 10.438 13.8836 10.438H6.15261C5.7942 10.438 5.50293 10.1477 5.50293 9.78836C5.50293 9.42994 5.79325 9.13867 6.15261 9.13867H13.8836C14.242 9.13867 14.5333 9.42994 14.5333 9.78836Z" fill="currentColor" stroke="currentColor" stroke-width="0.2"></path><path d="M14.5333 13.3177C14.5333 13.6761 14.2429 13.9673 13.8836 13.9673H6.15261C5.7942 13.9673 5.50293 13.677 5.50293 13.3177C5.50293 12.9592 5.79325 12.668 6.15261 12.668H13.8836C14.242 12.668 14.5333 12.9583 14.5333 13.3177Z" fill="currentColor" stroke="currentColor" stroke-width="0.2"></path><path d="M9.39915 16.8645C9.39915 17.2229 9.10882 17.5142 8.74946 17.5142H6.15261C5.7942 17.5142 5.50293 17.2239 5.50293 16.8645C5.50293 16.5061 5.79325 16.2148 6.15261 16.2148H8.75041C9.10882 16.2158 9.39915 16.5061 9.39915 16.8645Z" fill="currentColor" stroke="currentColor" stroke-width="0.2"></path></svg>