<svg width="23" height="18" viewBox="0 0 23 18" fill="none" xmlns="http://www.w3.org/2000/svg">
<path d="M0 3.74609L2.84668 14.3701L3.38867 14.2246V2.83789L0 3.74609Z" fill="#F5F5F5" style="fill:#F5F5F5;fill:color(display-p3 0.9608 0.9608 0.9608);fill-opacity:1;"/>
<path d="M18.6111 17.998H4.36304V6.49707C5.58738 6.8978 6.83745 7.19121 8.09937 7.37988C8.49006 8.88612 9.85955 9.99805 11.488 9.99805C13.1162 9.99788 14.4831 8.88577 14.8738 7.37988C16.136 7.19121 17.3864 6.89785 18.6111 6.49707V17.998ZM18.6111 4.91309C17.4067 5.33818 16.1733 5.65056 14.9265 5.85352C14.6234 4.22935 13.1999 2.99919 11.488 2.99902C9.77593 2.99902 8.35075 4.22915 8.04761 5.85352C6.8008 5.65057 5.56742 5.33823 4.36304 4.91309V0H18.6111V4.91309ZM11.7429 4.01172C11.8229 4.01983 11.9017 4.03238 11.9792 4.04785C11.9017 4.03239 11.8229 4.0208 11.7429 4.0127L11.488 3.99902L11.7429 4.01172Z" fill="#F5F5F5" style="fill:#F5F5F5;fill:color(display-p3 0.9608 0.9608 0.9608);fill-opacity:1;"/>
<circle cx="11.4868" cy="6.49876" r="2.49974" fill="#ABE127" style="fill:#ABE127;fill:color(display-p3 0.6706 0.8824 0.1529);fill-opacity:1;"/>
<path d="M23 3.74609L20.1533 14.3701L19.6113 14.2246V2.83789L23 3.74609Z" fill="#F5F5F5" style="fill:#F5F5F5;fill:color(display-p3 0.9608 0.9608 0.9608);fill-opacity:1;"/>
</svg>
