<svg width="16" height="16" viewBox="0 0 16 16" fill="none" xmlns="http://www.w3.org/2000/svg">
<circle cx="8" cy="8" r="8" fill="#F74A4C"/>
<path d="M7.37822 9.37189C7.37822 9.54002 7.44501 9.70127 7.5639 9.82016C7.68279 9.93905 7.84404 10.0058 8.01217 10.0058C8.1803 10.0058 8.34155 9.93905 8.46044 9.82016C8.57933 9.70127 8.64612 9.54002 8.64612 9.37189V3.03239C8.64612 2.86425 8.57933 2.70301 8.46044 2.58412C8.34155 2.46523 8.1803 2.39844 8.01217 2.39844C7.84404 2.39844 7.68279 2.46523 7.5639 2.58412C7.44501 2.70301 7.37822 2.86425 7.37822 3.03239V9.37189ZM8.01217 11.9077C7.79371 11.9162 7.58702 12.0089 7.43545 12.1664C7.28388 12.324 7.19922 12.5341 7.19922 12.7527C7.19922 12.9714 7.28388 13.1815 7.43545 13.3391C7.58702 13.4966 7.79371 13.5893 8.01217 13.5978H8.01978C8.1335 13.6022 8.24695 13.5836 8.35332 13.5431C8.45969 13.5026 8.5568 13.4411 8.63882 13.3622C8.72084 13.2833 8.78609 13.1887 8.83066 13.0839C8.87523 12.9792 8.89821 12.8666 8.89821 12.7527C8.89821 12.6389 8.87523 12.5263 8.83066 12.4216C8.78609 12.3168 8.72084 12.2222 8.63882 12.1433C8.5568 12.0644 8.45969 12.0028 8.35332 11.9624C8.24695 11.9219 8.1335 11.9033 8.01978 11.9077H8.01217Z" fill="white"/>
</svg>
