<svg class="wh-22px" width="20" height="20" viewBox="0 0 20 20" fill="none" xmlns="http://www.w3.org/2000/svg"><g clip-path="url(#clip0_229_3016)"><path d="M10.0003 18.3337C5.39783 18.3337 1.66699 14.6028 1.66699 10.0003C1.66699 5.39783 5.39783 1.66699 10.0003 1.66699C14.6028 1.66699 18.3337 5.39783 18.3337 10.0003C18.3337 14.6028 14.6028 18.3337 10.0003 18.3337ZM10.0003 16.667C11.7684 16.667 13.4641 15.9646 14.7144 14.7144C15.9646 13.4641 16.667 11.7684 16.667 10.0003C16.667 8.23222 15.9646 6.53652 14.7144 5.28628C13.4641 4.03604 11.7684 3.33366 10.0003 3.33366C8.23222 3.33366 6.53652 4.03604 5.28628 5.28628C4.03604 6.53652 3.33366 8.23222 3.33366 10.0003C3.33366 11.7684 4.03604 13.4641 5.28628 14.7144C6.53652 15.9646 8.23222 16.667 10.0003 16.667ZM7.08366 11.667H11.667C11.7775 11.667 11.8835 11.6231 11.9616 11.545C12.0398 11.4668 12.0837 11.3608 12.0837 11.2503C12.0837 11.1398 12.0398 11.0338 11.9616 10.9557C11.8835 10.8776 11.7775 10.8337 11.667 10.8337H8.33366C7.78112 10.8337 7.25122 10.6142 6.86052 10.2235C6.46982 9.83276 6.25033 9.30286 6.25033 8.75033C6.25033 8.19779 6.46982 7.66789 6.86052 7.27719C7.25122 6.88649 7.78112 6.66699 8.33366 6.66699H9.16699V5.00033H10.8337V6.66699H12.917V8.33366H8.33366C8.22315 8.33366 8.11717 8.37756 8.03903 8.4557C7.96089 8.53384 7.91699 8.63982 7.91699 8.75033C7.91699 8.86083 7.96089 8.96681 8.03903 9.04495C8.11717 9.12309 8.22315 9.16699 8.33366 9.16699H11.667C12.2195 9.16699 12.7494 9.38649 13.1401 9.77719C13.5308 10.1679 13.7503 10.6978 13.7503 11.2503C13.7503 11.8029 13.5308 12.3328 13.1401 12.7235C12.7494 13.1142 12.2195 13.3337 11.667 13.3337H10.8337V15.0003H9.16699V13.3337H7.08366V11.667Z" fill="currentColor"></path></g><defs><clipPath id="clip0_229_3016"><rect width="20" height="20" fill="white"></rect></clipPath></defs></svg>