<svg width="14" height="14" viewBox="0 0 14 14" fill="none" xmlns="http://www.w3.org/2000/svg">
<path d="M8.83444 2.03281C7.65225 1.65573 6.35795 1.65573 5.16556 2.03281C1.37438 3.2252 0.875 6.84313 0.875 6.84313C0.875 6.84313 1.37438 10.4611 5.16556 11.6534C6.34775 12.0305 7.64205 12.0305 8.83444 11.6534C12.6256 10.4611 13.125 6.84313 13.125 6.84313C13.125 6.84313 12.6256 3.2252 8.83444 2.03281ZM8.47775 10.7362C7.51976 11.042 6.47005 11.042 5.51206 10.7362C2.45466 9.76804 2.047 6.84313 2.047 6.84313C2.047 6.84313 2.45466 3.91821 5.51206 2.95003C6.47005 2.64429 7.51976 2.64429 8.47775 2.95003C11.5351 3.91821 11.9428 6.84313 11.9428 6.84313C11.9428 6.84313 11.5453 9.76804 8.47775 10.7362Z" fill="#8E8E92"/>
<path d="M6.99901 4.29492C5.5926 4.29492 4.45117 5.43635 4.45117 6.84276C4.45117 8.24916 5.5926 9.3906 6.99901 9.3906C8.40541 9.3906 9.54685 8.24916 9.54685 6.84276C9.54685 5.43635 8.40541 4.29492 6.99901 4.29492ZM6.99901 8.25936C6.21428 8.25936 5.58241 7.62749 5.58241 6.84276C5.58241 6.05803 6.21428 5.42616 6.99901 5.42616C7.78374 5.42616 8.41561 6.05803 8.41561 6.84276C8.41561 7.62749 7.78374 8.25936 6.99901 8.25936Z" fill="#8E8E92"/>
</svg>
