<svg width="16" height="16" viewBox="0 0 16 16" fill="none" xmlns="http://www.w3.org/2000/svg">
<g clip-path="url(#clip0_90_3947)">
<path d="M11.9214 12.8647C10.7488 13.6084 9.38851 14.0022 8.00002 14C4.40535 14 1.41469 11.4133 0.787354 8.00001C1.07404 6.44716 1.85511 5.02861 3.01402 3.95601L0.92802 1.87201L1.87135 0.92868L15.0707 14.1287L14.1274 15.0713L11.9214 12.8647ZM3.95669 4.90001C3.05069 5.72374 2.41957 6.80587 2.14869 8.00001C2.35688 8.91098 2.77486 9.76078 3.36936 10.4817C3.96385 11.2027 4.71844 11.7749 5.57306 12.1529C6.42767 12.5308 7.35872 12.7041 8.29208 12.6588C9.22544 12.6135 10.1353 12.3509 10.9494 11.892L9.59736 10.54C9.02182 10.9026 8.34016 11.0588 7.66418 10.983C6.98821 10.9072 6.35805 10.6039 5.87707 10.123C5.39609 9.64199 5.09284 9.01183 5.01706 8.33586C4.94129 7.65988 5.09748 6.97822 5.46002 6.40268L3.95669 4.90001ZM8.60935 9.55201L6.44802 7.39068C6.3294 7.69264 6.30148 8.02265 6.36769 8.34024C6.4339 8.65784 6.59137 8.9492 6.82077 9.1786C7.05017 9.408 7.34153 9.56546 7.65913 9.63168C7.97672 9.69789 8.30673 9.66997 8.60869 9.55135L8.60935 9.55201ZM13.8714 11.0613L12.9174 10.108C13.363 9.47288 13.6803 8.7568 13.8514 8.00001C13.6702 7.2065 13.3295 6.45811 12.8501 5.80034C12.3707 5.14258 11.7626 4.58916 11.0626 4.17375C10.3627 3.75833 9.58555 3.48959 8.77851 3.38386C7.97147 3.27812 7.15136 3.3376 6.36802 3.55868L5.31602 2.50668C6.14735 2.18001 7.05336 2.00001 8.00002 2.00001C11.5947 2.00001 14.5854 4.58668 15.2127 8.00001C15.0084 9.11048 14.5493 10.1584 13.8714 11.0613ZM7.81535 5.00535C8.2397 4.97912 8.66476 5.04339 9.06238 5.19389C9.46 5.34439 9.8211 5.57769 10.1217 5.87831C10.4223 6.17894 10.6556 6.54003 10.8061 6.93765C10.9566 7.33527 11.0209 7.76034 10.9947 8.18468L7.81535 5.00535Z" fill="#8E8E92"/>
</g>
<defs>
<clipPath id="clip0_90_3947">
<rect width="16" height="16" fill="white"/>
</clipPath>
</defs>
</svg>
