<?xml version="1.0" standalone="no"?><!DOCTYPE svg PUBLIC "-//W3C//DTD SVG 1.1//EN" "http://www.w3.org/Graphics/SVG/1.1/DTD/svg11.dtd"><svg t="1766397418317" class="icon" viewBox="0 0 1024 1024" version="1.1" xmlns="http://www.w3.org/2000/svg" p-id="11720" xmlns:xlink="http://www.w3.org/1999/xlink" width="200" height="200"><path d="M483.5328 512.7168m-81.92 0a81.92 81.92 0 1 0 163.84 0 81.92 81.92 0 1 0-163.84 0Z" p-id="11721" fill="#76808f"></path><path d="M886.2208 512.7168m-76.8 0a76.8 76.8 0 1 0 153.6 0 76.8 76.8 0 1 0-153.6 0Z" p-id="11722" fill="#76808f"></path><path d="M483.5328 934.5536A422.5536 422.5536 0 1 1 906.24 512a423.0656 423.0656 0 0 1-422.7072 422.5536z m0-793.9072A371.3536 371.3536 0 1 0 855.04 512a371.7632 371.7632 0 0 0-371.5072-371.3536z" p-id="11723" fill="#76808f"></path><path d="M483.5328 827.0848A315.0848 315.0848 0 1 1 798.72 512a315.4432 315.4432 0 0 1-315.1872 315.0848z m0-589.1584A274.0736 274.0736 0 1 0 757.76 512a274.3808 274.3808 0 0 0-274.2272-274.0736z" p-id="11724" fill="#76808f"></path><path d="M483.5328 724.6848A212.6848 212.6848 0 1 1 696.32 512a212.9408 212.9408 0 0 1-212.7872 212.6848z m0-384.3584A171.6736 171.6736 0 1 0 655.36 512a171.8784 171.8784 0 0 0-171.8272-171.6736z" p-id="11725" fill="#76808f"></path></svg>