<?xml version="1.0" standalone="no"?><!DOCTYPE svg PUBLIC "-//W3C//DTD SVG 1.1//EN" "http://www.w3.org/Graphics/SVG/1.1/DTD/svg11.dtd"><svg t="1766397518426" class="icon" viewBox="0 0 1024 1024" version="1.1" xmlns="http://www.w3.org/2000/svg" p-id="12890" xmlns:xlink="http://www.w3.org/1999/xlink" width="200" height="200"><path d="M110.4896 222.5664m-81.92 0a81.92 81.92 0 1 0 163.84 0 81.92 81.92 0 1 0-163.84 0Z" p-id="12891" fill="#76808f"></path><path d="M48.4352 199.3728h921.6v51.2h-921.6zM48.4352 348.0576h921.6v41.0112h-921.6zM48.4352 491.7248h921.6v41.0112h-921.6zM48.4352 635.3408h921.6v41.0112h-921.6z" p-id="12892" fill="#76808f"></path><path d="M913.5104 801.4336m-81.92 0a81.92 81.92 0 1 0 163.84 0 81.92 81.92 0 1 0-163.84 0Z" p-id="12893" fill="#76808f"></path><path d="M48.4352 773.888h921.6v51.2h-921.6z" p-id="12894" fill="#76808f"></path></svg>