<?xml version="1.0" standalone="no"?><!DOCTYPE svg PUBLIC "-//W3C//DTD SVG 1.1//EN" "http://www.w3.org/Graphics/SVG/1.1/DTD/svg11.dtd"><svg t="1766397067215" class="icon" viewBox="0 0 1024 1024" version="1.1" xmlns="http://www.w3.org/2000/svg" p-id="10607" xmlns:xlink="http://www.w3.org/1999/xlink" width="200" height="200"><path d="M512 222.5664m-81.92 0a81.92 81.92 0 1 0 163.84 0 81.92 81.92 0 1 0-163.84 0Z" p-id="10608" fill="#76808f"></path><path d="M51.2 196.9664h921.6v51.2H51.2zM51.2 346.7776h921.6v41.0112H51.2zM51.2 491.52h921.6v41.0112H51.2zM51.2 636.2112h921.6v41.0112H51.2z" p-id="10609" fill="#76808f"></path><path d="M512 801.4336m-81.92 0a81.92 81.92 0 1 0 163.84 0 81.92 81.92 0 1 0-163.84 0Z" p-id="10610" fill="#76808f"></path><path d="M51.2 775.8336h921.6v51.2H51.2z" p-id="10611" fill="#76808f"></path></svg>