<svg class="wh-24px md-wh-32px" width="32" height="32" viewBox="0 0 32 32" fill="none" xmlns="http://www.w3.org/2000/svg"><g clip-path="url(#clip0_229_2923)"><path d="M14.8026 10.4198L15.804 5.70513C15.8768 5.36253 16.0165 5.03764 16.215 4.74902C16.4134 4.4604 16.6668 4.2137 16.9606 4.02302C17.2544 3.83235 17.5829 3.70142 17.9274 3.63772C18.2718 3.57403 18.6254 3.57881 18.968 3.6518L23.2293 4.55847C23.6221 4.12223 24.1479 3.8278 24.7251 3.72086C25.3024 3.61392 25.8987 3.70043 26.4218 3.96698C26.9448 4.23354 27.3653 4.66523 27.6179 5.19511C27.8706 5.72499 27.9414 6.32344 27.8193 6.89764C27.6972 7.47184 27.389 7.9897 26.9425 8.37089C26.4961 8.75208 25.9363 8.9753 25.3501 9.00594C24.7639 9.03657 24.1839 8.8729 23.7001 8.54031C23.2164 8.20773 22.8559 7.72481 22.6746 7.16647L18.4133 6.2598L17.5253 10.4398C19.904 10.6225 22.268 11.4131 24.4093 12.7065C25.0456 12.3527 25.7621 12.168 26.4901 12.1702C27.2182 12.1723 27.9335 12.3612 28.5677 12.7188C29.2019 13.0764 29.7338 13.5907 30.1125 14.2125C30.4912 14.8343 30.704 15.5429 30.7306 16.2705V16.2985C30.7408 16.9506 30.601 17.5964 30.322 18.1859C30.0429 18.7754 29.6321 19.2929 29.1213 19.6985C29.1189 19.7532 29.1154 19.8079 29.1106 19.8625C29.1106 25.1931 23.1773 29.2358 16.0453 29.2358C8.93597 29.2358 3.1013 25.2038 3.1053 19.9651C3.09948 19.8848 3.09504 19.8043 3.09197 19.7238C2.23079 19.0774 1.64664 18.1286 1.45724 17.0686C1.26784 16.0086 1.48727 14.9162 2.07131 14.0116C2.65535 13.1069 3.56058 12.4573 4.60457 12.1936C5.64857 11.9299 6.75372 12.0717 7.6973 12.5905C9.85077 11.2927 12.2915 10.547 14.8026 10.4198ZM27.184 17.7878C27.728 17.5171 28.0693 16.9611 28.0653 16.3545C28.0514 16.0494 27.95 15.7548 27.773 15.5059C27.5961 15.2569 27.3512 15.0643 27.0676 14.9509C26.7841 14.8375 26.4738 14.8083 26.1741 14.8666C25.8743 14.9249 25.5977 15.0684 25.3773 15.2798L24.5973 16.0265L23.704 15.4198C21.5506 13.9558 19.1013 13.1198 16.7306 13.0678H15.3893C12.8893 13.1065 10.5213 13.8678 8.40663 15.3011L7.52263 15.9011L6.74397 15.1678C6.57605 15.0102 6.37588 14.8909 6.15732 14.8183C5.93876 14.7457 5.70703 14.7215 5.47818 14.7473C5.24932 14.7731 5.02881 14.8483 4.83191 14.9678C4.635 15.0872 4.46641 15.248 4.33781 15.4391C4.2092 15.6301 4.12365 15.8469 4.08708 16.0742C4.05051 16.3016 4.06379 16.5342 4.12601 16.756C4.18823 16.9777 4.2979 17.1833 4.44742 17.3585C4.59694 17.5336 4.78274 17.6742 4.99197 17.7705L5.83597 18.1571L5.76397 19.0838C5.74663 19.3105 5.74663 19.5358 5.76797 19.8625C5.76797 23.4758 10.2426 26.5691 16.0453 26.5691C21.8733 26.5691 26.444 23.4545 26.448 19.7611C26.4653 19.5357 26.4653 19.3092 26.448 19.0838L26.3786 18.1878L27.184 17.7878ZM9.3333 17.9998C9.3333 17.4694 9.54401 16.9607 9.91909 16.5856C10.2942 16.2105 10.8029 15.9998 11.3333 15.9998C11.8637 15.9998 12.3724 16.2105 12.7475 16.5856C13.1226 16.9607 13.3333 17.4694 13.3333 17.9998C13.3333 18.5302 13.1226 19.0389 12.7475 19.414C12.3724 19.7891 11.8637 19.9998 11.3333 19.9998C10.8029 19.9998 10.2942 19.7891 9.91909 19.414C9.54401 19.0389 9.3333 18.5302 9.3333 17.9998ZM18.6666 17.9998C18.6666 17.4694 18.8773 16.9607 19.2524 16.5856C19.6275 16.2105 20.1362 15.9998 20.6666 15.9998C21.1971 15.9998 21.7058 16.2105 22.0808 16.5856C22.4559 16.9607 22.6666 17.4694 22.6666 17.9998C22.6666 18.5302 22.4559 19.0389 22.0808 19.414C21.7058 19.7891 21.1971 19.9998 20.6666 19.9998C20.1362 19.9998 19.6275 19.7891 19.2524 19.414C18.8773 19.0389 18.6666 18.5302 18.6666 17.9998ZM16.0213 24.8038C14.1586 24.8038 12.332 24.3105 10.8453 23.1905C10.7555 23.082 10.7094 22.944 10.716 22.8034C10.7226 22.6628 10.7814 22.5296 10.8809 22.4301C10.9805 22.3305 11.1136 22.2717 11.2542 22.2651C11.3948 22.2585 11.5329 22.3047 11.6413 22.3945C12.9013 23.3185 14.472 23.7145 16 23.7145C17.528 23.7145 19.1066 23.3478 20.3786 22.4358C20.4522 22.364 20.5433 22.3129 20.6429 22.2876C20.7425 22.2622 20.847 22.2635 20.9459 22.2913C21.0449 22.3192 21.1347 22.3726 21.2064 22.4461C21.2782 22.5197 21.3293 22.6109 21.3546 22.7105C21.3763 22.8103 21.3731 22.9139 21.3454 23.0122C21.3178 23.1105 21.2665 23.2006 21.196 23.2745C20.284 24.3371 17.884 24.8038 16.0213 24.8038Z" fill="currentColor"></path></g><defs><clipPath id="clip0_229_2923"><rect width="32" height="32" fill="white"></rect></clipPath></defs></svg>