<svg class="wh-24px md-wh-32px" width="32" height="32" viewBox="0 0 32 32" fill="none" xmlns="http://www.w3.org/2000/svg"><g clip-path="url(#clip0_229_2942)"><path d="M26.1414 9.32683C26.0401 8.9295 25.7521 8.6295 25.4227 8.5375C24.8401 8.3735 22.0001 8.00016 16.0001 8.00016C10.0001 8.00016 7.16275 8.3735 6.57475 8.5375C6.24941 8.62816 5.96141 8.92816 5.85875 9.32683C5.71341 9.89216 5.33341 12.2615 5.33341 16.0002C5.33341 19.7388 5.71341 22.1068 5.85875 22.6748C5.96008 23.0708 6.24808 23.3708 6.57608 23.4615C7.16275 23.6268 10.0001 24.0002 16.0001 24.0002C22.0001 24.0002 24.8387 23.6268 25.4254 23.4628C25.7507 23.3722 26.0387 23.0722 26.1414 22.6735C26.2867 22.1082 26.6667 19.7335 26.6667 16.0002C26.6667 12.2668 26.2867 9.8935 26.1414 9.32683ZM28.7241 8.66416C29.3334 11.0402 29.3334 16.0002 29.3334 16.0002C29.3334 16.0002 29.3334 20.9602 28.7241 23.3362C28.3854 24.6495 27.3947 25.6828 26.1401 26.0322C23.8614 26.6668 16.0001 26.6668 16.0001 26.6668C16.0001 26.6668 8.14275 26.6668 5.86008 26.0322C4.60008 25.6775 3.61075 24.6455 3.27608 23.3362C2.66675 20.9602 2.66675 16.0002 2.66675 16.0002C2.66675 16.0002 2.66675 11.0402 3.27608 8.66416C3.61475 7.35083 4.60541 6.3175 5.86008 5.96816C8.14275 5.3335 16.0001 5.3335 16.0001 5.3335C16.0001 5.3335 23.8614 5.3335 26.1401 5.96816C27.4001 6.32283 28.3894 7.35483 28.7241 8.66416ZM13.3334 20.6668V11.3335L21.3334 16.0002L13.3334 20.6668Z" fill="currentColor"></path></g><defs><clipPath id="clip0_229_2942"><rect width="32" height="32" fill="white"></rect></clipPath></defs></svg>