<svg class="wh-24px md-wh-32px" width="32" height="32" viewBox="0 0 32 32" fill="none" xmlns="http://www.w3.org/2000/svg"><path d="M21.3923 3H16.7628C16.7628 3 16.7028 20.5947 16.6615 21.0182C16.532 21.954 16.0422 22.804 15.2946 23.3903C14.6062 23.9626 13.7439 24.2896 12.8458 24.3191C11.7773 24.3077 10.7545 23.8885 9.99023 23.1487C9.22599 22.4089 8.77928 21.4056 8.74313 20.3476C8.76957 19.3888 9.1373 18.4701 9.78133 17.7539C10.4254 17.0377 11.3042 16.5701 12.2626 16.4338C12.4726 16.4171 12.7708 16.4096 13.0576 16.4041V11.7416C12.3632 11.7311 11.669 11.7764 10.982 11.8772C9.21093 12.2465 7.5985 13.1493 6.36556 14.4619C5.13263 15.7744 4.33951 17.4325 4.09486 19.209C3.8849 20.5791 4.02476 21.9794 4.50166 23.2822C4.97855 24.585 5.7773 25.7487 6.82495 26.667C8.19848 27.9545 9.96182 28.7581 11.8425 28.9535C13.7231 29.1489 15.6163 28.7253 17.2297 27.7481C18.5189 27.0176 19.5883 25.96 20.3278 24.6841C21.0674 23.4082 21.4503 21.9601 21.4373 20.4888C21.4935 17.4294 21.4823 12.362 21.4954 12.1298C23.4072 13.4467 25.6718 14.169 28 14.2047V9.65188C24.1655 9.01288 21.7561 7.03088 21.3923 3Z" fill="currentColor"></path></svg>