<svg class="wh-24px md-wh-32px" width="32" height="32" viewBox="0 0 32 32" fill="none" xmlns="http://www.w3.org/2000/svg"><g clip-path="url(#clip0_229_2938)"><path d="M5.33333 4H26.6667C27.0203 4 27.3594 4.14048 27.6095 4.39052C27.8595 4.64057 28 4.97971 28 5.33333V26.6667C28 27.0203 27.8595 27.3594 27.6095 27.6095C27.3594 27.8595 27.0203 28 26.6667 28H5.33333C4.97971 28 4.64057 27.8595 4.39052 27.6095C4.14048 27.3594 4 27.0203 4 26.6667V5.33333C4 4.97971 4.14048 4.64057 4.39052 4.39052C4.64057 4.14048 4.97971 4 5.33333 4ZM6.66667 6.66667V25.3333H25.3333V6.66667H6.66667ZM23.0667 21.2533L24.34 22.5253V22.592H17.7787V22.5253L19.1173 21.2533C19.2507 21.12 19.3173 20.9867 19.3173 20.7853V12.8853C19.3173 12.5493 19.3173 12.0813 19.3853 11.68L14.9667 22.7267H14.9L10.3467 12.5493C10.28 12.2827 10.2133 12.2827 10.1467 12.1493V18.8427C10.0787 19.312 10.1467 19.7133 10.3467 20.116L12.1547 22.5253V22.592H7.33333V22.5253L9.14133 20.048C9.34133 19.648 9.408 19.1787 9.34133 18.776V11.4133C9.34133 11.0787 9.27467 10.676 9.008 10.4093L7.80133 8.73333V8.66667H12.488L16.3707 17.304L19.7867 8.66667H24.34V8.73333L23.068 10.2067C22.9347 10.34 22.868 10.5413 22.868 10.6747V20.852C22.868 20.9853 22.9347 21.1867 23.068 21.2533H23.0667Z" fill="currentColor"></path></g><defs><clipPath id="clip0_229_2938"><rect width="32" height="32" fill="white"></rect></clipPath></defs></svg>