<svg class="wh-24px md-wh-32px" width="32" height="32" viewBox="0 0 32 32" fill="none" xmlns="http://www.w3.org/2000/svg"><g clip-path="url(#clip0_229_2933)"><path d="M20.1108 24.0974C19.7549 24.186 19.3967 24.2647 19.0365 24.3332C17.082 24.709 15.0752 24.7014 13.1234 24.3105C12.7816 24.2425 12.2977 24.1223 11.674 23.9522L9.62974 26.6665C4.58451 26.501 2.66675 23.0475 2.66675 23.0475C2.66675 15.3809 5.95402 9.16553 5.95402 9.16553C9.2413 6.5964 12.3688 6.66669 12.3688 6.66669L13.2633 7.85716C13.3457 7.84535 13.4287 7.83778 13.5119 7.83448C15.217 7.60358 16.945 7.61121 18.6481 7.85716L19.6292 6.66669C19.6292 6.66669 22.7589 6.5964 26.0439 9.1678C26.0439 9.1678 29.3334 15.3809 29.3334 23.0475C29.3334 23.0475 27.3912 26.4987 22.346 26.6665L20.1108 24.0974ZM11.5919 15.9795C10.2579 15.9795 9.20357 16.9999 9.20357 18.2471C9.20357 19.4942 10.2801 20.5146 11.5919 20.5146C12.9237 20.5146 13.978 19.4942 13.978 18.2471C14.0002 16.9999 12.9259 15.9795 11.5919 15.9795ZM20.133 15.9795C18.8013 15.9795 17.7469 16.9999 17.7469 18.2471C17.7469 19.4942 18.8235 20.5146 20.133 20.5146C21.467 20.5146 22.5214 19.4942 22.5214 18.2471C22.5214 16.9999 21.467 15.9795 20.133 15.9795Z" fill="currentColor"></path></g><defs><clipPath id="clip0_229_2933"><rect width="32" height="32" fill="white"></rect></clipPath></defs></svg>