<svg class="wh-24px md-wh-32px" width="32" height="32" viewBox="0 0 32 32" fill="none" xmlns="http://www.w3.org/2000/svg"><path d="M24.6328 3.00024H7.36719C4.96544 3.00024 3 4.96568 3 7.36743V24.6331C3 27.0348 4.96544 29.0002 7.36719 29.0002H24.6328C27.0346 29.0002 29 27.0348 29 24.6331V7.36743C29 4.96568 27.0346 3.00024 24.6328 3.00024ZM12.75 24.1252H9.5V12.7502H12.75V24.1252ZM11.125 11.1252C10.2272 11.1252 9.5 10.3981 9.5 9.50024C9.5 8.60243 10.2272 7.87524 11.125 7.87524C12.0228 7.87524 12.75 8.60243 12.75 9.50024C12.75 10.3981 12.0228 11.1252 11.125 11.1252ZM24.125 24.1252H20.875V17.6252C20.875 16.7274 20.1478 16.0002 19.25 16.0002C18.3522 16.0002 17.625 16.7274 17.625 17.6252V24.1252H14.375V12.7502H17.625V14.7677C18.2953 13.8471 19.3199 12.7502 20.4688 12.7502C22.4878 12.7502 24.125 14.5694 24.125 16.8127V24.1252Z" fill="currentColor"></path></svg>