<svg width="1440" height="203" viewBox="0 0 1440 203" fill="none" xmlns="http://www.w3.org/2000/svg">
<path d="M1416.14 2.87893L1404.95 1.41406M1416.14 2.87893H1382.99M1416.14 2.87893L1427.69 4.39218M1416.14 2.87893H1439.61M1404.95 1.41406L1409.02 1.41463L1413.05 1.41781L1416.99 1.42672L1420.81 1.44429L1424.47 1.47279L1427.92 1.51569L1431.12 1.57529L1434.1 1.65129L1436.65 1.75638L1438.97 1.87817L1439.61 1.92083V2.87893M1404.95 1.41406H1372.33M1372.33 1.41406H1339.72M1372.33 1.41406L1382.99 2.87893M1339.72 1.41406H1307.1M1339.72 1.41406L1349.84 2.87893M1307.1 1.41406H1274.48M1307.1 1.41406L1316.69 2.87893M1274.48 1.41406H1241.87M1274.48 1.41406L1283.54 2.87893M1241.87 1.41406H1209.25M1241.87 1.41406L1250.39 2.87893M1209.25 1.41406H1176.63M1209.25 1.41406L1217.24 2.87893M1176.63 1.41406H1144.02M1176.63 1.41406L1184.09 2.87893M1144.02 1.41406H1111.4M1144.02 1.41406L1150.94 2.87893M1111.4 1.41406H1078.78M1111.4 1.41406L1117.79 2.87893M1078.78 1.41406H1046.17M1078.78 1.41406L1084.64 2.87893M1046.17 1.41406H1013.55M1046.17 1.41406L1051.49 2.87893M1013.55 1.41406H980.933M1013.55 1.41406L1014.73 1.77596L1016.53 2.32385L1018.34 2.87893M980.933 1.41406H948.317M980.933 1.41406L981.985 1.77596L985.194 2.87893M948.317 1.41406H915.7M948.317 1.41406L952.045 2.87893M915.7 1.41406H883.083M915.7 1.41406L916.886 1.95791L918.088 2.50811L918.491 2.69324L918.896 2.87893M883.083 1.41406H850.467M883.083 1.41406L884.072 1.95791L884.404 2.14045L884.738 2.32385L885.747 2.87893M850.467 1.41406H817.85M850.467 1.41406L852.598 2.87893M817.85 1.41406L818.047 1.59458L818.244 1.77596L819.245 2.69324L819.448 2.87893M817.85 1.41406H785.234M785.234 1.41406H752.616M785.234 1.41406L786.299 2.87893M752.616 1.41406H720M752.616 1.41406L752.814 1.95791L753.149 2.87893M720 1.41406H687.384M720 1.41406V2.87893M687.384 1.41406H654.766M687.384 1.41406L687.186 1.95791L686.851 2.87893M654.766 1.41406H622.15M654.766 1.41406L653.701 2.87893M622.15 1.41406L621.953 1.59458L621.756 1.77596L620.755 2.69324L620.552 2.87893M622.15 1.41406H589.534M589.534 1.41406H556.916M589.534 1.41406L587.673 2.69324L587.402 2.87893M556.916 1.41406H524.3M556.916 1.41406L555.928 1.95791L555.596 2.14045L554.927 2.50811L554.591 2.69324L554.253 2.87893M524.3 1.41406H491.683M524.3 1.41406L523.114 1.95791L521.912 2.50811L521.509 2.69324L521.104 2.87893M491.683 1.41406H459.067M491.683 1.41406L487.955 2.87893M459.067 1.41406H426.45M459.067 1.41406L458.015 1.77596L454.806 2.87893M426.45 1.41406H393.833M426.45 1.41406L421.656 2.87893M393.833 1.41406H361.217M393.833 1.41406L388.507 2.87893M361.217 1.41406H328.6M361.217 1.41406L355.357 2.87893M328.6 1.41406H295.983M328.6 1.41406L322.208 2.87893M295.983 1.41406H263.367M295.983 1.41406L289.059 2.87893M263.367 1.41406H230.751M263.367 1.41406L255.909 2.87893M230.751 1.41406H198.133M230.751 1.41406L222.76 2.87893M198.133 1.41406H165.517M198.133 1.41406L189.61 2.87893M165.517 1.41406H132.9M165.517 1.41406L156.461 2.87893M132.9 1.41406H100.283M132.9 1.41406L123.312 2.87893M100.283 1.41406H67.6668M100.283 1.41406L90.163 2.87893M67.6668 1.41406H35.0504M67.6668 1.41406L57.0136 2.87893M35.0504 1.41406L30.9801 1.41463L26.9517 1.41781L23.0074 1.42672L19.1867 1.44429L15.5316 1.47279L12.0812 1.51569L8.87672 1.57529L5.90232 1.65129L3.34995 1.75638L1.0262 1.87817L0.387546 1.92084V2.87893M35.0504 1.41406L23.8641 2.87893M90.163 2.87893H123.312M90.163 2.87893H57.0136M90.163 2.87893L79.7053 4.39218M123.312 2.87893L113.405 4.39218M123.312 2.87893H156.461M222.76 2.87893H255.909M222.76 2.87893H189.61M222.76 2.87893L220.722 3.25264L214.505 4.39218M255.909 2.87893L248.204 4.39218M255.909 2.87893H289.059M355.357 2.87893H388.507M355.357 2.87893H322.208M355.357 2.87893L353.863 3.25264L353.11 3.44036L349.303 4.39218M388.507 2.87893L387.828 3.06521L387.148 3.25264L383.003 4.39218M388.507 2.87893H421.656M487.955 2.87893L487.48 3.06521L484.102 4.39218M487.955 2.87893H521.104M487.955 2.87893H454.806M521.104 2.87893L520.289 3.25264L519.878 3.44036L519.467 3.62923L517.802 4.39218M521.104 2.87893H554.253M620.552 2.87893H653.701M620.552 2.87893H587.402M620.552 2.87893L618.901 4.39218M653.701 2.87893L653.566 3.06521L653.43 3.25264L653.293 3.44036L652.879 4.00898L652.601 4.39218M653.701 2.87893H686.851M753.149 2.87893H786.299M753.149 2.87893H720M753.149 2.87893L753.7 4.39218M786.299 2.87893L786.434 3.06521L786.57 3.25264L786.707 3.44036L787.399 4.39218M786.299 2.87893H819.448M885.747 2.87893H918.896M885.747 2.87893H852.598M885.747 2.87893L886.426 3.25264L887.802 4.00898L888.149 4.20015L888.499 4.39218M918.896 2.87893L919.711 3.25264L920.122 3.44036L920.534 3.62923L922.198 4.39218M918.896 2.87893H952.045M1018.34 2.87893H1051.49M1018.34 2.87893H985.194M1018.34 2.87893L1019.57 3.25264L1020.18 3.44036L1023.3 4.39218M1051.49 2.87893L1052.17 3.06521L1052.85 3.25264L1057 4.39218M1051.49 2.87893H1084.64M1150.94 2.87893H1184.09M1150.94 2.87893H1117.79M1150.94 2.87893L1152.71 3.25264L1153.6 3.44036L1158.1 4.39218M1184.09 2.87893L1191.8 4.39218M1184.09 2.87893H1217.24M1283.54 2.87893H1316.69M1283.54 2.87893H1250.39M1283.54 2.87893L1292.89 4.39218M1316.69 2.87893L1326.6 4.39218M1316.69 2.87893H1349.84M0.271359 16.5776H0.387546M33.6366 16.5776L46.2928 14.6443M33.6366 16.5776L20.4955 18.5849M33.6366 16.5776H71.7679M33.6366 16.5776H0.387546M46.2928 14.6443H8.86473M46.2928 14.6443L58.491 12.781M46.2928 14.6443H83.7209M8.86473 14.6443L21.7405 12.781M8.86473 14.6443H0.387546M8.86473 14.6443L0.387546 15.8708M46.1414 9.24948H81.6078M46.1414 9.24948L57.7137 7.57472M46.1414 9.24948H10.6758M46.1414 9.24948L34.1576 10.9838M81.6078 9.24948L92.5714 7.57472M81.6078 9.24948L70.2552 10.9838M81.6078 9.24948H117.074M57.7137 7.57472H92.5714M57.7137 7.57472L68.8954 5.95667M57.7137 7.57472H22.8567M92.5714 7.57472H127.428M92.5714 7.57472L103.164 5.95667M0.0224927 47.093H0.387546M30.7904 47.093L47.1106 43.8877M30.7904 47.093L13.6591 50.4578M30.7904 47.093H80.0202M30.7904 47.093H0.387546M47.1106 43.8877L62.676 40.8307M47.1106 43.8877H95.174M47.1106 43.8877H0.387546M15.7243 40.8307H62.676M15.7243 40.8307L31.6472 37.9119M15.7243 40.8307H0.387546M15.7243 40.8307L0.387546 43.642M46.8655 35.1221H91.7409M46.8655 35.1221L61.4257 32.4532M46.8655 35.1221H1.99018M46.8655 35.1221L31.6472 37.9119M91.7409 35.1221L105.331 32.4532M91.7409 35.1221L77.5368 37.9119M91.7409 35.1221H136.617M61.4257 32.4532H105.331M61.4257 32.4532H17.5211M61.4257 32.4532L75.3697 29.8971M105.331 32.4532L118.345 29.8971M105.331 32.4532H149.236M101.558 25.0965H142.787M101.558 25.0965L113.87 22.8396M101.558 25.0965H60.3283M101.558 25.0965L88.735 27.447M142.787 25.0965L154.278 22.8396M142.787 25.0965L130.82 27.447M142.787 25.0965H184.017M113.87 22.8396H154.278M113.87 22.8396H73.4612M113.87 22.8396L125.701 20.6708M154.278 22.8396L165.321 20.6708M154.278 22.8396H194.687M148.03 16.5776H186.161M148.03 16.5776L158.577 14.6443M148.03 16.5776H109.899M148.03 16.5776L137.079 18.5849M186.161 16.5776L196.005 14.6443M186.161 16.5776L175.941 18.5849M186.161 16.5776H224.293M158.577 14.6443H196.005M158.577 14.6443H121.149M158.577 14.6443L168.742 12.781M196.005 14.6443L205.493 12.781M196.005 14.6443H233.433M188.006 9.24948H223.473M188.006 9.24948L197.142 7.57472M188.006 9.24948H152.541M188.006 9.24948L178.546 10.9838M223.473 9.24948L231.999 7.57472M223.473 9.24948L214.642 10.9838M223.473 9.24948H258.939M197.142 7.57472H231.999M197.142 7.57472L205.97 5.95667M197.142 7.57472H162.285M231.999 7.57472H266.857M231.999 7.57472L240.239 5.95667M25.6092 102.663L48.5784 96.3475M25.6092 102.663L1.01196 109.427M25.6092 102.663H95.0481M25.6092 102.663H0.387546M48.5784 96.3475L70.0775 90.4361M48.5784 96.3475H115.72M48.5784 96.3475H0.387546M48.1121 79.6805H109.193M48.1121 79.6805L67.7403 74.7742M48.1121 79.6805L27.2658 84.8916M48.1121 79.6805H0.387546M109.193 79.6805L127.036 74.7742M109.193 79.6805L90.2417 84.8916M109.193 79.6805H170.274M67.7403 74.7742H127.036M67.7403 74.7742H8.44421M67.7403 74.7742L86.2546 70.1461M127.036 74.7742L143.868 70.1461M127.036 74.7742H186.333M120.298 61.6361H174.817M120.298 61.6361L135.985 57.7151M120.298 61.6361H65.7801M120.298 61.6361L103.746 65.7739M174.817 61.6361L189.077 57.7151M174.817 61.6361L159.769 65.7739M174.817 61.6361H229.335M135.985 57.7151H189.077M135.985 57.7151H82.8926M135.985 57.7151L150.871 53.9939M189.077 57.7151L202.611 53.9939M189.077 57.7151H242.169M178.478 47.093H227.708M178.478 47.093L191.301 43.8877M178.478 47.093H129.249M178.478 47.093L165.018 50.4578M227.708 47.093L239.365 43.8877M227.708 47.093L215.471 50.4578M227.708 47.093H276.937M191.301 43.8877H239.365M191.301 43.8877H143.238M191.301 43.8877L203.531 40.8307M239.365 43.8877L250.483 40.8307M239.365 43.8877H287.428M226.368 35.1221H271.244M226.368 35.1221L237.046 32.4532M226.368 35.1221H181.492M226.368 35.1221L215.208 37.9119M271.244 35.1221L280.951 32.4532M271.244 35.1221L261.098 37.9119M271.244 35.1221H316.119M237.046 32.4532H280.951M237.046 32.4532H193.141M237.046 32.4532L247.271 29.8971M280.951 32.4532L290.247 29.8971M280.951 32.4532H324.856M266.476 25.0965H307.705M266.476 25.0965L275.504 22.8396M266.476 25.0965H225.246M266.476 25.0965L257.073 27.447M307.705 25.0965L308.75 24.8095L315.913 22.8396M307.705 25.0965L299.157 27.447M307.705 25.0965H348.935M275.504 22.8396H315.913M275.504 22.8396H235.096M275.504 22.8396L284.181 20.6708M315.913 22.8396L323.801 20.6708M315.913 22.8396H356.322M300.555 16.5776H338.687M300.555 16.5776L308.29 14.6443M300.555 16.5776H262.424M300.555 16.5776L292.525 18.5849M338.687 16.5776L345.718 14.6443M338.687 16.5776L335.982 17.3216L331.386 18.5849M338.687 16.5776H376.818M308.29 14.6443H345.718M308.29 14.6443H270.862M308.29 14.6443L315.744 12.781M345.718 14.6443L352.495 12.781M345.718 14.6443H383.146M329.871 9.24948H365.338M329.871 9.24948L336.571 7.57472M329.871 9.24948H294.405M329.871 9.24948L322.934 10.9838M365.338 9.24948L369.926 7.98815L370.678 7.78086L371.429 7.57472M365.338 9.24948L359.03 10.9838M365.338 9.24948H400.804M336.571 7.57472H371.429M336.571 7.57472L343.045 5.95667M336.571 7.57472H301.714M371.429 7.57472H406.286M371.429 7.57472L377.313 5.95667M50.7679 174.609H146.373M50.7679 174.609L80.8717 162.784M50.7679 174.609L17.6882 187.603M50.7679 174.609L0.387546 174.61M146.373 174.609L172.176 162.784M146.373 174.609L118.019 187.603M146.373 174.609H241.977M80.8717 162.784H172.176M80.8717 162.784L108.384 151.977M80.8717 162.784H0.387546M172.176 162.784L195.758 151.977M172.176 162.784H263.48M156.866 132.933H237.314M156.866 132.933L178.334 124.5M156.866 132.933H76.4184M156.866 132.933L133.625 142.062M237.314 132.933L255.715 124.5M237.314 132.933L217.393 142.062M237.314 132.933H317.761M178.334 124.5H255.715M178.334 124.5H100.953M178.334 124.5L198.226 116.687M255.715 124.5L272.765 116.687M255.715 124.5H333.096M233.927 102.663H303.365M233.927 102.663L250.005 96.3475M233.927 102.663H164.487M233.927 102.663L216.708 109.427M303.365 102.663L317.147 96.3475M303.365 102.663L288.607 109.427M303.365 102.663H372.804M250.005 96.3475H317.147M250.005 96.3475H182.863M250.005 96.3475L265.054 90.4361M317.147 96.3475L330.047 90.4361M317.147 96.3475H384.29M292.435 79.6805H353.516M292.435 79.6805L304.926 74.7742M292.435 79.6805H231.355M292.435 79.6805L279.169 84.8916M353.516 79.6805L364.222 74.7742M353.516 79.6805L342.145 84.8916M353.516 79.6805H414.596M304.926 74.7742H364.222M304.926 74.7742H245.629M304.926 74.7742L316.707 70.1461M364.222 74.7742L374.321 70.1461M364.222 74.7742H423.518M338.372 61.6361H392.89M338.372 61.6361L348.354 57.7151M338.372 61.6361H283.853M338.372 61.6361L327.838 65.7739M392.89 61.6361L401.446 57.7151M392.89 61.6361L383.862 65.7739M392.89 61.6361H447.409M348.354 57.7151H401.446M348.354 57.7151H295.262M348.354 57.7151L357.827 53.9939M401.446 57.7151L409.566 53.9939M401.446 57.7151H454.539M375.396 47.093H424.625M375.396 47.093L383.556 43.8877M375.396 47.093H326.166M375.396 47.093L366.83 50.4578M424.625 47.093L431.619 43.8877M424.625 47.093L417.282 50.4578M424.625 47.093H473.854M383.556 43.8877H431.619M383.556 43.8877H335.492M383.556 43.8877L391.338 40.8307M431.619 43.8877L438.29 40.8307M431.619 43.8877H479.682M405.87 35.1221H450.747M405.87 35.1221L412.666 32.4532M405.87 35.1221H360.995M405.87 35.1221L398.769 37.9119M450.747 35.1221L456.57 32.4532M450.747 35.1221L444.659 37.9119M450.747 35.1221H495.622M412.666 32.4532H456.57M412.666 32.4532H368.76M412.666 32.4532L419.173 29.8971M456.57 32.4532L462.148 29.8971M456.57 32.4532H500.476M431.393 25.0965H472.624M431.393 25.0965L437.139 22.8396M431.393 25.0965H390.164M431.393 25.0965L425.409 27.447M472.624 25.0965L471.993 25.385L467.494 27.447M472.624 25.0965L477.548 22.8396M472.624 25.0965H513.853M437.139 22.8396H477.548M437.139 22.8396H396.731M437.139 22.8396L442.661 20.6708M477.548 22.8396L482.281 20.6708M477.548 22.8396H517.957M453.081 16.5776H491.212M453.081 16.5776L458.003 14.6443M453.081 16.5776H414.95M453.081 16.5776L447.971 18.5849M491.212 16.5776L495.431 14.6443M491.212 16.5776L489.589 17.3216L488.494 17.8234L486.832 18.5849M491.212 16.5776H529.343M458.003 14.6443H495.431M458.003 14.6443H420.575M458.003 14.6443L462.746 12.781M495.431 14.6443L496.973 13.9375L497.99 13.4716L499.497 12.781M495.431 14.6443H532.859M471.737 9.24948H507.202M471.737 9.24948L474.948 7.98815L476 7.57472M471.737 9.24948H436.27M471.737 9.24948L467.882 10.7636L467.322 10.9838M507.202 9.24948L509.956 7.98815L510.407 7.78086L510.857 7.57472M507.202 9.24948L505.327 10.1089L503.418 10.9838M507.202 9.24948H542.669M476 7.57472H510.857M476 7.57472L480.119 5.95667M476 7.57472H441.143M510.857 7.57472H545.714M510.857 7.57472L514.388 5.95667M433.186 174.609H528.791M433.186 174.609L446.088 162.784M433.186 174.609H337.582M433.186 174.609L419.009 187.603M528.791 174.609L537.392 162.784M528.791 174.609L519.34 187.603M528.791 174.609H624.396M446.088 162.784H537.392M446.088 162.784H354.784M446.088 162.784L457.879 151.977M537.392 162.784L545.253 151.977M537.392 162.784H628.696M478.657 132.933H559.104M478.657 132.933L487.858 124.5M478.657 132.933H398.209M478.657 132.933L468.696 142.062M559.104 132.933L565.238 124.5M559.104 132.933L552.465 142.062M559.104 132.933H639.553M487.858 124.5H565.238M487.858 124.5H410.477M487.858 124.5L496.383 116.687M565.238 124.5L570.922 116.687M565.238 124.5H642.619M511.683 102.663H581.122M511.683 102.663L518.574 96.3475M511.683 102.663H442.244M511.683 102.663L504.304 109.427M581.122 102.663L585.716 96.3475M581.122 102.663L576.203 109.427M581.122 102.663H650.561M518.574 96.3475H585.716M518.574 96.3475H451.432M518.574 96.3475L525.023 90.4361M585.716 96.3475L590.016 90.4361M585.716 96.3475H652.858M536.758 79.6805H597.838M536.758 79.6805L542.111 74.7742M536.758 79.6805H475.677M536.758 79.6805L531.073 84.8916M597.838 79.6805L601.407 74.7742M597.838 79.6805L594.048 84.8916M597.838 79.6805H658.919M542.111 74.7742H601.407M542.111 74.7742H482.815M542.111 74.7742L547.16 70.1461M601.407 74.7742L604.774 70.1461M601.407 74.7742H660.704M556.445 61.6361H610.964M556.445 61.6361L560.723 57.7151M556.445 61.6361H501.927M556.445 61.6361L551.931 65.7739M610.964 61.6361L613.815 57.7151M610.964 61.6361L607.954 65.7739M610.964 61.6361H665.482M560.723 57.7151H613.815M560.723 57.7151H507.631M560.723 57.7151L564.783 53.9939M613.815 57.7151L616.522 53.9939M613.815 57.7151H666.908M572.312 47.093H621.541M572.312 47.093L575.809 43.8877M572.312 47.093H523.083M572.312 47.093L568.642 50.4578M621.541 47.093L623.873 43.8877M621.541 47.093L619.094 50.4578M621.541 47.093H670.771M575.809 43.8877H623.873M575.809 43.8877H527.746M575.809 43.8877L577.079 42.7246L579.145 40.8307M623.873 43.8877L626.097 40.8307M623.873 43.8877H671.937M585.373 35.1221H630.249M585.373 35.1221L588.286 32.4532M585.373 35.1221H540.497M585.373 35.1221L583.104 37.2028L582.329 37.9119M630.249 35.1221L630.987 34.1075L632.19 32.4532M630.249 35.1221L628.219 37.9119M630.249 35.1221H675.125M588.286 32.4532L588.64 32.1275L591.074 29.8971M588.286 32.4532H632.19M588.286 32.4532H544.38M632.19 32.4532L632.897 31.4818L633.129 31.1613L633.362 30.8429L634.049 29.8971M632.19 32.4532H676.095M596.311 25.0965H637.541M596.311 25.0965L597.555 23.9567L597.862 23.6754L598.167 23.3953L598.472 23.1169L598.774 22.8396M596.311 25.0965H555.082M596.311 25.0965L593.747 27.447M637.541 25.0965L638.778 23.3953L638.981 23.1169L639.182 22.8396M637.541 25.0965L635.832 27.447M637.541 25.0965H678.771M598.774 22.8396H639.182M598.774 22.8396H558.365M598.774 22.8396L600.264 21.4741L600.557 21.2049L601.14 20.6708M639.182 22.8396L640.176 21.4741L640.372 21.2049L640.566 20.9371L640.76 20.6708M639.182 22.8396H679.592M605.606 16.5776H643.738M605.606 16.5776L607.716 14.6443M605.606 16.5776H567.474M605.606 16.5776L605.066 17.0722L604.247 17.8234L603.416 18.5849M643.738 16.5776L643.558 16.8243L642.463 18.3298L642.277 18.5849M643.738 16.5776L645.144 14.6443M643.738 16.5776H681.869M607.716 14.6443H645.144M607.716 14.6443H570.288M607.716 14.6443L609.749 12.781M645.144 14.6443L645.658 13.9375L645.828 13.704L645.997 13.4716L646.499 12.781M645.144 14.6443H682.572M613.602 9.24948H649.067M613.602 9.24948L614.978 7.98815L615.428 7.57472M613.602 9.24948H578.135M613.602 9.24948L612.899 9.89266L612.664 10.1089L612.426 10.3263L611.709 10.9838M649.067 9.24948L649.222 9.03701L649.529 8.61464L649.834 8.19603L650.285 7.57472M649.067 9.24948L648.442 10.1089L648.285 10.3263L647.966 10.7636L647.806 10.9838M649.067 9.24948H684.534M615.428 7.57472H650.285M615.428 7.57472L616.976 6.15591L617.194 5.95667M615.428 7.57472H580.571M650.285 7.57472L650.435 7.36944L650.584 7.16502L650.732 6.96147L650.879 6.75879L651.318 6.15591L651.463 5.95667M650.285 7.57472H685.143M815.604 174.609H911.209M815.604 174.609L811.304 162.784M815.604 174.609H720M815.604 174.609L820.33 187.603M911.209 174.609L902.608 162.784M911.209 174.609L920.66 187.603M911.209 174.609H1006.81M811.304 162.784H902.608M811.304 162.784H720M811.304 162.784L807.374 151.977M902.608 162.784L894.747 151.977M902.608 162.784H993.912M800.448 132.933H880.896M800.448 132.933L797.381 124.5M800.448 132.933H720M800.448 132.933L803.768 142.062M880.896 132.933L874.762 124.5M880.896 132.933L887.536 142.062M880.896 132.933H961.343M797.381 124.5H874.762M797.381 124.5H720M797.381 124.5L794.539 116.687M874.762 124.5L869.078 116.687M874.762 124.5H952.142M789.439 102.663H858.878M789.439 102.663L787.142 96.3475M789.439 102.663H720M789.439 102.663L791.899 109.427M858.878 102.663L854.284 96.3475M858.878 102.663L863.797 109.427M858.878 102.663H928.317M787.142 96.3475H854.284M787.142 96.3475H720M787.142 96.3475L784.992 90.4361M854.284 96.3475L849.985 90.4361M854.284 96.3475H921.426M781.081 79.6805H842.162M781.081 79.6805L779.296 74.7742M781.081 79.6805H720M781.081 79.6805L782.976 84.8916M842.162 79.6805L838.593 74.7742M842.162 79.6805L845.952 84.8916M842.162 79.6805H903.242M779.296 74.7742H838.593M779.296 74.7742H720M779.296 74.7742L777.613 70.1461M838.593 74.7742L835.227 70.1461M838.593 74.7742H897.889M774.518 61.6361H829.036M774.518 61.6361L773.092 57.7151M774.518 61.6361H720M774.518 61.6361L776.023 65.7739M829.036 61.6361L826.185 57.7151M829.036 61.6361L832.046 65.7739M829.036 61.6361H883.555M773.092 57.7151H826.185M773.092 57.7151H720M773.092 57.7151L771.739 53.9939M826.185 57.7151L823.478 53.9939M826.185 57.7151H879.277M769.229 47.093H818.459M769.229 47.093L768.063 43.8877M769.229 47.093H720M769.229 47.093L770.453 50.4578M818.459 47.093L816.127 43.8877M818.459 47.093L820.906 50.4578M818.459 47.093H867.688M768.063 43.8877H816.127M768.063 43.8877H720M768.063 43.8877L766.952 40.8307M816.127 43.8877L813.903 40.8307M816.127 43.8877H864.191M764.875 35.1221H809.751M764.875 35.1221L763.905 32.4532M764.875 35.1221H720M764.875 35.1221L765.89 37.9119M809.751 35.1221L808.048 32.7805L807.81 32.4532M809.751 35.1221L811.781 37.9119M809.751 35.1221H854.627M763.905 32.4532L763.787 32.1275L762.975 29.8971M763.905 32.4532H807.81M763.905 32.4532H720M807.81 32.4532L807.103 31.4818L806.871 31.1613L806.638 30.8429L805.951 29.8971M807.81 32.4532H851.715M761.229 25.0965H802.459M761.229 25.0965L760.409 22.8396M761.229 25.0965H720M761.229 25.0965L761.546 25.9666L761.653 26.2597L761.759 26.5542L761.975 27.1479L762.085 27.447M802.459 25.0965L801.222 23.3953L800.817 22.8396M802.459 25.0965L804.168 27.447M802.459 25.0965H843.689M760.409 22.8396H800.817M760.409 22.8396H720M760.409 22.8396L759.62 20.6708M800.817 22.8396L799.825 21.4741L799.628 21.2049L799.434 20.9371L799.24 20.6708M800.817 22.8396H841.226M758.131 16.5776H796.263M758.131 16.5776L757.428 14.6443M758.131 16.5776H720M758.131 16.5776L758.861 18.5849M796.263 16.5776L796.442 16.8243L797.537 18.3298L797.723 18.5849M796.263 16.5776L794.856 14.6443M796.263 16.5776H834.394M757.428 14.6443H794.856M757.428 14.6443H720M757.428 14.6443L756.75 12.781M794.856 14.6443L794.342 13.9375L794.173 13.704L794.003 13.4716L793.501 12.781M794.856 14.6443H832.284M755.467 9.24948H790.933M755.467 9.24948L754.857 7.57472M755.467 9.24948H720M755.467 9.24948L756.097 10.9838M790.933 9.24948L790.778 9.03701L790.47 8.61464L790.318 8.40475L790.015 7.98815L789.865 7.78086L789.714 7.57472M790.933 9.24948L791.558 10.1089L791.715 10.3263L792.034 10.7636L792.194 10.9838M790.933 9.24948H826.398M754.857 7.57472L754.783 7.36944L754.708 7.16502L754.634 6.96147L754.269 5.95667M754.857 7.57472H789.714M754.857 7.57472H720M789.714 7.57472H824.572M789.714 7.57472L789.416 7.16502L789.268 6.96147L789.121 6.75879L788.682 6.15591L788.537 5.95667M1198.02 174.609H1293.63M1198.02 174.609L1176.52 162.784M1198.02 174.609H1102.42M1198.02 174.609L1221.65 187.603M1293.63 174.609L1267.82 162.784M1293.63 174.609L1321.98 187.603M1293.63 174.609H1389.23M1176.52 162.784H1267.82M1176.52 162.784H1085.22M1176.52 162.784L1156.87 151.977M1267.82 162.784L1244.24 151.977M1267.82 162.784H1359.13M1122.24 132.933H1202.69M1122.24 132.933L1106.9 124.5M1122.24 132.933H1041.79M1122.24 132.933L1138.84 142.062M1202.69 132.933L1184.29 124.5M1202.69 132.933L1222.61 142.062M1202.69 132.933H1283.13M1106.9 124.5H1184.29M1106.9 124.5H1029.52M1106.9 124.5L1092.7 116.687M1184.29 124.5L1167.23 116.687M1184.29 124.5H1261.67M1067.2 102.663H1136.63M1067.2 102.663L1055.71 96.3475M1067.2 102.663H997.756M1067.2 102.663L1079.49 109.427M1136.63 102.663L1122.85 96.3475M1136.63 102.663L1151.39 109.427M1136.63 102.663H1206.07M1055.71 96.3475H1122.85M1055.71 96.3475H988.568M1055.71 96.3475L1044.96 90.4361M1122.85 96.3475L1109.95 90.4361M1122.85 96.3475H1189.99M1025.4 79.6805H1086.48M1025.4 79.6805L1016.48 74.7742M1025.4 79.6805H964.323M1025.4 79.6805L1034.88 84.8916M1086.48 79.6805L1075.78 74.7742M1086.48 79.6805L1097.86 84.8916M1086.48 79.6805H1147.57M1016.48 74.7742H1075.78M1016.48 74.7742H957.185M1016.48 74.7742L1008.07 70.1461M1075.78 74.7742L1065.68 70.1461M1075.78 74.7742H1135.07M992.591 61.6361H1047.11M992.591 61.6361L985.461 57.7151M992.591 61.6361H938.073M992.591 61.6361L1000.12 65.7739M1047.11 61.6361L1038.55 57.7151M1047.11 61.6361L1056.14 65.7739M1047.11 61.6361H1101.63M985.461 57.7151H1038.55M985.461 57.7151H932.369M985.461 57.7151L978.695 53.9939M1038.55 57.7151L1030.43 53.9939M1038.55 57.7151H1091.65M966.146 47.093H1015.38M966.146 47.093L960.318 43.8877M966.146 47.093H916.917M966.146 47.093L972.265 50.4578M1015.38 47.093L1008.38 43.8877M1015.38 47.093L1022.72 50.4578M1015.38 47.093H1064.6M960.318 43.8877H1008.38M960.318 43.8877H912.254M960.318 43.8877L954.759 40.8307M1008.38 43.8877L1001.71 40.8307M1008.38 43.8877H1056.44M944.378 35.1221L945 35.4641L945.625 35.8079L949.451 37.9119M944.378 35.1221H989.254M944.378 35.1221L939.525 32.4532M944.378 35.1221H899.503M989.254 35.1221L983.43 32.4532M989.254 35.1221L995.341 37.9119M989.254 35.1221H1034.13M939.525 32.4532H983.43M939.525 32.4532H895.62M939.525 32.4532L934.877 29.8971M983.43 32.4532L977.852 29.8971M983.43 32.4532H1027.33M926.147 25.0965H967.377M926.147 25.0965L922.043 22.8396M926.147 25.0965H884.918M926.147 25.0965L930.421 27.447M967.377 25.0965L964.275 23.6754L962.452 22.8396M967.377 25.0965L972.506 27.447M967.377 25.0965H1008.61M922.043 22.8396H962.452M922.043 22.8396H881.635M922.043 22.8396L918.585 20.9371L918.1 20.6708M962.452 22.8396L957.72 20.6708M962.452 22.8396H1002.86M910.657 16.5776H948.788M910.657 16.5776L909.766 16.0873L907.141 14.6443M910.657 16.5776H872.526M910.657 16.5776L911.556 17.0722L913.382 18.0759L914.307 18.5849M948.788 16.5776L944.569 14.6443M948.788 16.5776L950.411 17.3216L951.506 17.8234L953.168 18.5849M948.788 16.5776H986.919M907.141 14.6443H944.569M907.141 14.6443H869.712M907.141 14.6443L904.588 13.2402L903.752 12.781M944.569 14.6443L943.027 13.9375L942.01 13.4716L940.503 12.781M944.569 14.6443H981.997M897.331 9.24948H932.798M897.331 9.24948L895.415 8.19603L894.286 7.57472M897.331 9.24948H861.865M897.331 9.24948L900.485 10.9838M932.798 9.24948L930.044 7.98815L929.593 7.78086L929.143 7.57472M932.798 9.24948L934.673 10.1089L936.582 10.9838M932.798 9.24948H968.263M894.286 7.57472H929.143M894.286 7.57472L892.802 6.75879L892.07 6.356L891.706 6.15591L891.344 5.95667M894.286 7.57472H859.429M929.143 7.57472H964M929.143 7.57472L925.612 5.95667M1416.43 124.5H1339.05M1416.43 124.5L1390.85 116.687M1416.43 124.5H1439.61M1416.43 124.5L1439.61 131.584M1344.95 102.663H1414.39M1344.95 102.663L1324.28 96.3475M1344.95 102.663H1275.51M1344.95 102.663L1367.09 109.427M1414.39 102.663L1391.42 96.3475M1414.39 102.663L1438.99 109.427M1414.39 102.663H1439.61M1324.28 96.3475H1391.42M1324.28 96.3475H1257.14M1324.28 96.3475L1304.93 90.4361M1391.42 96.3475L1369.92 90.4361M1391.42 96.3475H1439.61M1269.73 79.6805H1330.81M1269.73 79.6805L1253.67 74.7742M1269.73 79.6805H1208.65M1269.73 79.6805L1286.78 84.8916M1330.81 79.6805L1312.96 74.7742M1330.81 79.6805L1349.76 84.8916M1330.81 79.6805H1391.89M1253.67 74.7742H1312.96M1253.67 74.7742H1194.37M1253.67 74.7742L1238.52 70.1461M1312.96 74.7742L1296.13 70.1461M1312.96 74.7742H1372.26M1210.66 61.6361H1265.18M1210.66 61.6361L1197.83 57.7151M1210.66 61.6361H1156.15M1210.66 61.6361L1224.21 65.7739M1265.18 61.6361L1250.92 57.7151M1265.18 61.6361L1280.23 65.7739M1265.18 61.6361H1319.7M1197.83 57.7151H1250.92M1197.83 57.7151H1144.74M1197.83 57.7151L1185.65 53.9939M1250.92 57.7151L1237.39 53.9939M1250.92 57.7151H1304.02M1163.06 47.093H1212.29M1163.06 47.093L1152.57 43.8877M1163.06 47.093H1113.83M1163.06 47.093L1174.08 50.4578M1212.29 47.093L1200.64 43.8877M1212.29 47.093L1224.53 50.4578M1212.29 47.093H1261.52M1152.57 43.8877H1200.64M1152.57 43.8877H1104.51M1152.57 43.8877L1142.57 40.8307M1200.64 43.8877L1189.52 40.8307M1200.64 43.8877H1248.7M1123.88 35.1221H1168.76M1123.88 35.1221L1115.14 32.4532M1123.88 35.1221H1079.01M1123.88 35.1221L1133.01 37.9119M1168.76 35.1221L1159.05 32.4532M1168.76 35.1221L1178.9 37.9119M1168.76 35.1221H1213.63M1115.14 32.4532H1159.05M1115.14 32.4532H1071.24M1115.14 32.4532L1106.78 29.8971M1159.05 32.4532L1149.75 29.8971M1159.05 32.4532H1202.95M1091.07 25.0965H1132.29M1091.07 25.0965L1083.68 22.8396M1091.07 25.0965H1049.84M1091.07 25.0965L1098.76 27.447M1132.29 25.0965L1124.09 22.8396M1132.29 25.0965L1140.84 27.447M1132.29 25.0965H1173.52M1083.68 22.8396H1124.09M1083.68 22.8396H1043.27M1083.68 22.8396L1076.58 20.6708M1124.09 22.8396L1116.2 20.6708M1124.09 22.8396H1164.5M1063.18 16.5776H1101.31M1063.18 16.5776L1056.85 14.6443M1063.18 16.5776H1025.05M1063.18 16.5776L1064.8 17.0722L1065.62 17.3216L1069.75 18.5849M1101.31 16.5776L1094.28 14.6443M1101.31 16.5776L1108.61 18.5849M1101.31 16.5776H1139.44M1056.85 14.6443H1094.28M1056.85 14.6443H1019.43M1056.85 14.6443L1050.75 12.781M1094.28 14.6443L1087.51 12.781M1094.28 14.6443H1131.71M1039.2 9.24948H1074.66M1039.2 9.24948L1033.71 7.57472M1039.2 9.24948H1003.73M1039.2 9.24948L1044.87 10.9838M1074.66 9.24948L1070.07 7.98815L1069.32 7.78086L1068.57 7.57472M1074.66 9.24948L1080.97 10.9838M1074.66 9.24948H1110.13M1033.71 7.57472H1068.57M1033.71 7.57472L1029.07 6.15591L1028.42 5.95667M1033.71 7.57472H998.857M1068.57 7.57472H1103.43M1068.57 7.57472L1062.69 5.95667M1428.74 61.6361L1410.2 57.7151M1428.74 61.6361H1374.22M1428.74 61.6361L1439.61 63.9362M1428.74 61.6361H1439.61M1410.2 57.7151H1357.11M1410.2 57.7151L1392.61 53.9939M1410.2 57.7151H1439.61M1359.98 47.093H1409.21M1359.98 47.093L1344.83 43.8877M1359.98 47.093H1310.75M1359.98 47.093L1375.89 50.4578M1409.21 47.093L1392.89 43.8877M1409.21 47.093L1426.34 50.4578M1409.21 47.093H1439.61M1344.83 43.8877H1392.89M1344.83 43.8877H1296.76M1344.83 43.8877L1330.37 40.8307M1392.89 43.8877L1377.32 40.8307M1392.89 43.8877H1439.61M1303.38 35.1221H1348.26M1303.38 35.1221L1290.76 32.4532M1303.38 35.1221H1258.51M1303.38 35.1221L1316.57 37.9119M1348.26 35.1221L1334.67 32.4532M1348.26 35.1221L1362.46 37.9119M1348.26 35.1221H1393.13M1290.76 32.4532H1334.67M1290.76 32.4532H1246.86M1290.76 32.4532L1278.68 29.8971M1334.67 32.4532L1321.66 29.8971M1334.67 32.4532H1378.57M1255.98 25.0965H1297.21M1255.98 25.0965L1245.31 22.8396M1255.98 25.0965H1214.75M1255.98 25.0965L1267.1 27.447M1297.21 25.0965L1285.72 22.8396M1297.21 25.0965L1309.18 27.447M1297.21 25.0965H1338.44M1245.31 22.8396H1285.72M1245.31 22.8396H1204.9M1245.31 22.8396L1235.06 20.6708M1285.72 22.8396L1274.68 20.6708M1285.72 22.8396H1326.13M1215.71 16.5776H1253.84M1215.71 16.5776L1206.57 14.6443M1215.71 16.5776H1177.58M1215.71 16.5776L1225.2 18.5849M1253.84 16.5776L1243.99 14.6443M1253.84 16.5776L1264.06 18.5849M1253.84 16.5776H1291.97M1206.57 14.6443H1243.99M1206.57 14.6443H1169.14M1206.57 14.6443L1197.76 12.781M1243.99 14.6443L1234.51 12.781M1243.99 14.6443H1281.42M1181.06 9.24948H1216.53M1181.06 9.24948L1173.14 7.57472M1181.06 9.24948H1145.59M1181.06 9.24948L1189.26 10.9838M1216.53 9.24948L1208 7.57472M1216.53 9.24948L1225.36 10.9838M1216.53 9.24948H1251.99M1173.14 7.57472H1208M1173.14 7.57472L1165.49 5.95667M1173.14 7.57472H1138.29M1208 7.57472H1242.86M1208 7.57472L1199.76 5.95667M1420.9 25.0965L1406.95 22.8396M1420.9 25.0965H1379.67M1420.9 25.0965L1435.43 27.447M1420.9 25.0965H1439.61M1406.95 22.8396H1366.54M1406.95 22.8396L1393.54 20.6708M1406.95 22.8396H1439.61M1368.23 16.5776H1406.36M1368.23 16.5776L1356.28 14.6443M1368.23 16.5776H1330.1M1368.23 16.5776L1380.64 18.5849M1406.36 16.5776L1393.71 14.6443M1406.36 16.5776L1419.5 18.5849M1406.36 16.5776H1439.61M1356.28 14.6443H1393.71M1356.28 14.6443H1318.85M1356.28 14.6443L1344.76 12.781M1393.71 14.6443L1381.51 12.781M1393.71 14.6443H1431.14M1322.93 9.24948H1358.39M1322.93 9.24948L1312.57 7.57472M1322.93 9.24948H1287.46M1322.93 9.24948L1333.65 10.9838M1358.39 9.24948L1347.43 7.57472M1358.39 9.24948L1369.74 10.9838M1358.39 9.24948H1393.86M1312.57 7.57472H1347.43M1312.57 7.57472L1302.57 5.95667M1312.57 7.57472H1277.71M1347.43 7.57472H1382.29M1347.43 7.57472L1336.84 5.95667M1369.74 10.9838L1381.51 12.781M1369.74 10.9838H1405.84M1369.74 10.9838H1333.65M1393.86 9.24948L1382.29 7.57472M1393.86 9.24948L1405.84 10.9838M1393.86 9.24948H1429.32M1382.29 7.57472H1417.14M1382.29 7.57472L1371.1 5.95667M1336.84 5.95667H1302.57M1336.84 5.95667H1371.1M1336.84 5.95667L1326.6 4.39218M1405.84 10.9838L1418.26 12.781M1405.84 10.9838H1439.61M1429.32 9.24948L1417.14 7.57472M1429.32 9.24948L1439.61 10.6638M1429.32 9.24948H1439.61M1417.14 7.57472L1405.37 5.95667M1417.14 7.57472H1439.61M1371.1 5.95667H1405.37M1371.1 5.95667L1360.29 4.39218M1405.37 5.95667L1393.99 4.39218M1405.37 5.95667H1439.61M1381.51 12.781H1418.26M1381.51 12.781H1344.76M1431.14 14.6443L1418.26 12.781M1431.14 14.6443L1439.61 15.8708M1431.14 14.6443H1439.61M1418.26 12.781H1439.61M1344.76 12.781H1308.01M1344.76 12.781L1333.65 10.9838M1333.65 10.9838H1297.55M1419.5 18.5849L1433.16 20.6708M1419.5 18.5849H1380.64M1419.5 18.5849H1439.61M1439.73 16.5776H1439.61M1433.16 20.6708H1393.54M1433.16 20.6708L1439.61 21.6566M1433.16 20.6708H1439.61M1393.54 20.6708H1353.92M1393.54 20.6708L1380.64 18.5849M1380.64 18.5849H1341.78M1225.36 10.9838L1234.51 12.781M1225.36 10.9838H1261.45M1225.36 10.9838H1189.26M1251.99 9.24948L1242.86 7.57472M1251.99 9.24948L1261.45 10.9838M1251.99 9.24948H1287.46M1242.86 7.57472H1277.71M1242.86 7.57472L1234.03 5.95667M1199.76 5.95667H1234.03M1199.76 5.95667L1191.8 4.39218M1199.76 5.95667H1165.49M1261.45 10.9838L1271.26 12.781M1261.45 10.9838H1297.55M1287.46 9.24948L1277.71 7.57472M1287.46 9.24948L1297.55 10.9838M1277.71 7.57472L1268.3 5.95667M1234.03 5.95667H1268.3M1234.03 5.95667L1225.5 4.39218M1297.55 10.9838L1308.01 12.781M1302.57 5.95667H1268.3M1302.57 5.95667L1292.89 4.39218M1268.3 5.95667L1259.2 4.39218M1234.51 12.781H1271.26M1234.51 12.781H1197.76M1281.42 14.6443L1271.26 12.781M1281.42 14.6443L1291.97 16.5776M1281.42 14.6443H1318.85M1271.26 12.781H1308.01M1197.76 12.781H1161.01M1197.76 12.781L1189.26 10.9838M1308.01 12.781L1318.85 14.6443M1189.26 10.9838H1153.16M1291.97 16.5776L1302.92 18.5849M1291.97 16.5776H1330.1M1318.85 14.6443L1330.1 16.5776M1330.1 16.5776L1341.78 18.5849M1264.06 18.5849L1274.68 20.6708M1264.06 18.5849H1302.92M1264.06 18.5849H1225.2M1302.92 18.5849L1314.3 20.6708M1302.92 18.5849H1341.78M1341.78 18.5849L1353.92 20.6708M1274.68 20.6708H1314.3M1274.68 20.6708H1235.06M1326.13 22.8396L1314.3 20.6708M1326.13 22.8396L1338.44 25.0965M1326.13 22.8396H1366.54M1314.3 20.6708H1353.92M1235.06 20.6708H1195.44M1235.06 20.6708L1225.2 18.5849M1353.92 20.6708L1366.54 22.8396M1225.2 18.5849H1186.34M1338.44 25.0965L1351.27 27.447M1338.44 25.0965H1379.67M1366.54 22.8396L1379.67 25.0965M1379.67 25.0965L1393.35 27.447M1309.18 27.447L1321.66 29.8971M1309.18 27.447H1351.27M1309.18 27.447H1267.1M1351.27 27.447L1364.63 29.8971M1351.27 27.447H1393.35M1393.35 27.447L1407.61 29.8971M1393.35 27.447H1435.43M1435.43 27.447H1439.61M1435.43 27.447L1439.61 28.1228M1321.66 29.8971H1364.63M1321.66 29.8971H1278.68M1378.57 32.4532L1364.63 29.8971M1378.57 32.4532L1393.13 35.1221M1378.57 32.4532H1422.48M1364.63 29.8971H1407.61M1278.68 29.8971H1235.7M1278.68 29.8971L1267.1 27.447M1407.61 29.8971L1422.48 32.4532M1407.61 29.8971H1439.61M1267.1 27.447H1225.01M1393.13 35.1221L1408.35 37.9119M1393.13 35.1221H1438.01M1422.48 32.4532L1438.01 35.1221M1422.48 32.4532H1439.61M1439.84 29.8971H1439.61M1438.01 35.1221L1439.61 35.3975M1438.01 35.1221H1439.61M1362.46 37.9119L1377.32 40.8307M1362.46 37.9119H1408.35M1362.46 37.9119H1316.57M1408.35 37.9119L1424.28 40.8307M1408.35 37.9119H1439.61M1440 35.4641L1439.61 35.3975M1377.32 40.8307H1424.28M1377.32 40.8307H1330.37M1424.28 40.8307H1439.61M1424.28 40.8307L1439.61 43.642M1330.37 40.8307H1283.42M1330.37 40.8307L1316.57 37.9119M1316.57 37.9119H1270.68M1426.34 50.4578H1375.89M1426.34 50.4578L1439.61 53.0643M1426.34 50.4578H1439.61M1439.98 47.093H1439.61M1375.89 50.4578H1325.43M1375.89 50.4578L1392.61 53.9939M1439.76 53.093L1439.61 53.0643M1080.97 10.9838L1087.51 12.781M1080.97 10.9838H1117.07M1080.97 10.9838H1044.87M1110.13 9.24948L1103.43 7.57472M1110.13 9.24948L1117.07 10.9838M1110.13 9.24948H1145.59M1103.43 7.57472H1138.29M1103.43 7.57472L1096.96 5.95667M1062.69 5.95667H1096.96M1062.69 5.95667L1060.53 5.36387L1057 4.39218M1062.69 5.95667H1028.42M1117.07 10.9838L1124.26 12.781M1117.07 10.9838H1153.16M1145.59 9.24948L1138.29 7.57472M1145.59 9.24948L1153.16 10.9838M1138.29 7.57472L1131.22 5.95667M1096.96 5.95667H1131.22M1096.96 5.95667L1090.7 4.39218M1153.16 10.9838L1161.01 12.781M1165.49 5.95667L1158.1 4.39218M1165.49 5.95667H1131.22M1131.22 5.95667L1130.36 5.75802L1128.64 5.36387L1124.4 4.39218M1087.51 12.781H1124.26M1087.51 12.781H1050.75M1131.71 14.6443L1124.26 12.781M1131.71 14.6443L1139.44 16.5776M1131.71 14.6443H1169.14M1124.26 12.781H1161.01M1050.75 12.781H1014M1050.75 12.781L1044.87 10.9838M1161.01 12.781L1169.14 14.6443M1044.87 10.9838H1008.78M1139.44 16.5776L1147.48 18.5849M1139.44 16.5776H1177.58M1169.14 14.6443L1170.18 14.8818L1177.58 16.5776M1177.58 16.5776L1186.34 18.5849M1108.61 18.5849L1109.55 18.8414L1116.2 20.6708M1108.61 18.5849H1147.48M1108.61 18.5849H1069.75M1147.48 18.5849L1155.82 20.6708M1147.48 18.5849H1186.34M1186.34 18.5849L1195.44 20.6708M1116.2 20.6708H1155.82M1116.2 20.6708H1076.58M1164.5 22.8396L1155.82 20.6708M1164.5 22.8396L1173.52 25.0965M1164.5 22.8396H1204.9M1155.82 20.6708H1195.44M1076.58 20.6708H1036.96M1076.58 20.6708L1069.75 18.5849M1195.44 20.6708L1204.9 22.8396M1069.75 18.5849H1030.89M1173.52 25.0965L1182.93 27.447M1173.52 25.0965H1214.75M1204.9 22.8396L1214.75 25.0965M1214.75 25.0965L1225.01 27.447M1140.84 27.447L1149.75 29.8971M1140.84 27.447H1182.93M1140.84 27.447H1098.76M1182.93 27.447L1192.73 29.8971M1182.93 27.447H1225.01M1225.01 27.447L1235.7 29.8971M1149.75 29.8971H1192.73M1149.75 29.8971H1106.78M1202.95 32.4532L1192.73 29.8971M1202.95 32.4532L1213.63 35.1221M1202.95 32.4532H1246.86M1192.73 29.8971H1235.7M1106.78 29.8971H1063.8M1106.78 29.8971L1098.76 27.447M1235.7 29.8971L1246.86 32.4532M1098.76 27.447H1056.67M1213.63 35.1221L1224.79 37.9119M1213.63 35.1221H1258.51M1246.86 32.4532L1258.51 35.1221M1258.51 35.1221L1270.68 37.9119M1178.9 37.9119L1189.52 40.8307M1178.9 37.9119H1224.79M1178.9 37.9119H1133.01M1224.79 37.9119L1236.47 40.8307M1224.79 37.9119H1270.68M1270.68 37.9119L1283.42 40.8307M1189.52 40.8307H1236.47M1189.52 40.8307H1142.57M1248.7 43.8877L1236.47 40.8307M1248.7 43.8877L1261.52 47.093M1248.7 43.8877H1296.76M1236.47 40.8307H1283.42M1142.57 40.8307H1095.61M1142.57 40.8307L1133.01 37.9119M1283.42 40.8307L1296.76 43.8877M1133.01 37.9119H1087.12M1261.52 47.093L1274.98 50.4578M1261.52 47.093H1310.75M1296.76 43.8877L1310.75 47.093M1310.75 47.093L1325.43 50.4578M1224.53 50.4578L1237.39 53.9939M1224.53 50.4578H1274.98M1224.53 50.4578H1174.08M1274.98 50.4578L1289.13 53.9939M1274.98 50.4578H1325.43M1325.43 50.4578L1340.87 53.9939M1237.39 53.9939H1289.13M1237.39 53.9939H1185.65M1304.02 57.7151L1289.13 53.9939M1304.02 57.7151L1319.7 61.6361M1304.02 57.7151H1357.11M1289.13 53.9939H1340.87M1185.65 53.9939H1133.91M1185.65 53.9939L1174.08 50.4578M1340.87 53.9939L1357.11 57.7151M1340.87 53.9939H1392.61M1174.08 50.4578H1123.62M1319.7 61.6361L1336.25 65.7739M1319.7 61.6361H1374.22M1357.11 57.7151L1374.22 61.6361M1392.61 53.9939H1439.61M1374.22 61.6361L1392.28 65.7739M1280.23 65.7739L1296.13 70.1461M1280.23 65.7739H1336.25M1280.23 65.7739H1224.21M1336.25 65.7739L1353.75 70.1461M1336.25 65.7739H1392.28M1392.28 65.7739L1411.36 70.1461M1392.28 65.7739H1439.61M1296.13 70.1461H1353.75M1296.13 70.1461H1238.52M1372.26 74.7742L1353.75 70.1461M1372.26 74.7742L1391.89 79.6805M1372.26 74.7742H1431.56M1353.75 70.1461H1411.36M1238.52 70.1461H1180.91M1238.52 70.1461L1224.21 65.7739M1411.36 70.1461L1431.56 74.7742M1411.36 70.1461H1439.61M1224.21 65.7739H1168.18M1391.89 79.6805L1412.73 84.8916M1391.89 79.6805H1439.61M1431.56 74.7742H1439.61M1431.56 74.7742L1439.61 76.6202M1349.76 84.8916L1369.92 90.4361M1349.76 84.8916H1412.73M1349.76 84.8916H1286.78M1412.73 84.8916L1434.91 90.4361M1412.73 84.8916H1439.61M1369.92 90.4361H1434.91M1369.92 90.4361H1304.93M1434.91 90.4361L1439.61 91.6103M1434.91 90.4361H1439.61M1304.93 90.4361H1239.94M1304.93 90.4361L1286.78 84.8916M1286.78 84.8916H1223.81M1438.99 109.427H1367.09M1438.99 109.427H1439.61M1438.99 109.427L1439.61 109.598M1367.09 109.427H1295.19M1367.09 109.427L1390.85 116.687M936.582 10.9838L938.036 11.6501L938.525 11.8743L940.503 12.781M936.582 10.9838H972.679M936.582 10.9838H900.485M968.263 9.24948L965.052 7.98815L964 7.57472M968.263 9.24948L972.119 10.7636L972.679 10.9838M968.263 9.24948H1003.73M964 7.57472H998.857M964 7.57472L959.881 5.95667M925.612 5.95667H959.881M925.612 5.95667L924.318 5.36387L922.198 4.39218M925.612 5.95667H891.344M972.679 10.9838L973.807 11.4269L977.254 12.781M972.679 10.9838H1008.78M1003.73 9.24948L998.857 7.57472M1003.73 9.24948L1008.78 10.9838M998.857 7.57472L995.311 6.356L994.149 5.95667M959.881 5.95667H994.149M959.881 5.95667L955.898 4.39218M1008.78 10.9838L1014 12.781M1028.42 5.95667L1027.77 5.75802L1023.3 4.39218M1028.42 5.95667H994.149M994.149 5.95667L992.424 5.36387L989.598 4.39218M940.503 12.781H977.254M940.503 12.781H903.752M981.997 14.6443L977.254 12.781M981.997 14.6443L986.919 16.5776M981.997 14.6443H1019.43M977.254 12.781H1014M903.752 12.781H867.002M903.752 12.781L900.485 10.9838M1014 12.781L1019.43 14.6443M900.485 10.9838H864.388M986.919 16.5776L990.09 17.8234L990.734 18.0759L992.029 18.5849M986.919 16.5776H1025.05M1019.43 14.6443L1025.05 16.5776M1025.05 16.5776L1030.89 18.5849M953.168 18.5849L957.72 20.6708M953.168 18.5849H992.029M953.168 18.5849H914.307M992.029 18.5849L997.339 20.6708M992.029 18.5849H1030.89M1030.89 18.5849L1036.96 20.6708M957.72 20.6708H997.339M957.72 20.6708H918.1M1002.86 22.8396L999.384 21.4741L998.7 21.2049L997.339 20.6708M1002.86 22.8396L1008.61 25.0965M1002.86 22.8396H1043.27M997.339 20.6708H1036.96M918.1 20.6708H878.48M918.1 20.6708L914.307 18.5849M1036.96 20.6708L1043.27 22.8396M914.307 18.5849H875.445M1008.61 25.0965L1014.59 27.447M1008.61 25.0965H1049.84M1043.27 22.8396L1049.84 25.0965M1049.84 25.0965L1056.67 27.447M972.506 27.447L975.151 28.6591L975.821 28.9663L977.852 29.8971M972.506 27.447H1014.59M972.506 27.447H930.421M1014.59 27.447L1020.83 29.8971M1014.59 27.447H1056.67M1056.67 27.447L1063.8 29.8971M977.852 29.8971H1020.83M977.852 29.8971H934.877M1027.33 32.4532L1020.83 29.8971M1027.33 32.4532L1034.13 35.1221M1027.33 32.4532H1071.24M1020.83 29.8971H1063.8M934.877 29.8971H891.901M934.877 29.8971L933.745 29.2749L930.421 27.447M1063.8 29.8971L1071.24 32.4532M930.421 27.447H888.338M1034.13 35.1221L1041.23 37.9119M1034.13 35.1221H1079.01M1071.24 32.4532L1079.01 35.1221M1079.01 35.1221L1087.12 37.9119M995.341 37.9119L1001.71 40.8307M995.341 37.9119H1041.23M995.341 37.9119H949.451M1041.23 37.9119L1048.66 40.8307M1041.23 37.9119H1087.12M1087.12 37.9119L1095.61 40.8307M1001.71 40.8307H1048.66M1001.71 40.8307H954.759M1056.44 43.8877L1048.66 40.8307M1056.44 43.8877L1064.6 47.093M1056.44 43.8877H1104.51M1048.66 40.8307H1095.61M954.759 40.8307H907.807M954.759 40.8307L949.451 37.9119M1095.61 40.8307L1104.51 43.8877M949.451 37.9119H903.561M1064.6 47.093L1073.17 50.4578M1064.6 47.093H1113.83M1104.51 43.8877L1113.83 47.093M1113.83 47.093L1123.62 50.4578M1022.72 50.4578L1030.43 53.9939M1022.72 50.4578H1073.17M1022.72 50.4578H972.265M1073.17 50.4578L1082.17 53.9939M1073.17 50.4578H1123.62M1123.62 50.4578L1133.91 53.9939M1030.43 53.9939H1082.17M1030.43 53.9939H978.695M1091.65 57.7151L1082.17 53.9939M1091.65 57.7151L1101.63 61.6361M1091.65 57.7151H1144.74M1082.17 53.9939H1133.91M978.695 53.9939H926.956M978.695 53.9939L972.265 50.4578M1133.91 53.9939L1144.74 57.7151M972.265 50.4578H921.812M1101.63 61.6361L1112.16 65.7739M1101.63 61.6361H1156.15M1144.74 57.7151L1156.15 61.6361M1156.15 61.6361L1168.18 65.7739M1056.14 65.7739L1065.68 70.1461M1056.14 65.7739H1112.16M1056.14 65.7739H1000.12M1112.16 65.7739L1123.29 70.1461M1112.16 65.7739H1168.18M1168.18 65.7739L1180.91 70.1461M1065.68 70.1461H1123.29M1065.68 70.1461H1008.07M1135.07 74.7742L1123.29 70.1461M1135.07 74.7742L1147.57 79.6805M1135.07 74.7742H1194.37M1123.29 70.1461H1180.91M1008.07 70.1461H950.453M1008.07 70.1461L1000.12 65.7739M1180.91 70.1461L1194.37 74.7742M1000.12 65.7739H944.093M1147.57 79.6805L1160.83 84.8916M1147.57 79.6805H1208.65M1194.37 74.7742L1208.65 79.6805M1208.65 79.6805L1223.81 84.8916M1097.86 84.8916L1109.95 90.4361M1097.86 84.8916H1160.83M1097.86 84.8916H1034.88M1160.83 84.8916L1174.95 90.4361M1160.83 84.8916H1223.81M1223.81 84.8916L1239.94 90.4361M1109.95 90.4361H1174.95M1109.95 90.4361H1044.96M1189.99 96.3475L1174.95 90.4361M1189.99 96.3475L1206.07 102.663M1189.99 96.3475H1257.14M1174.95 90.4361H1239.94M1044.96 90.4361H979.969M1044.96 90.4361L1034.88 84.8916M1239.94 90.4361L1257.14 96.3475M1034.88 84.8916H971.903M1206.07 102.663L1223.29 109.427M1206.07 102.663H1275.51M1257.14 96.3475L1275.51 102.663M1275.51 102.663L1295.19 109.427M1151.39 109.427L1167.23 116.687M1151.39 109.427H1223.29M1151.39 109.427H1079.49M1223.29 109.427L1241.77 116.687M1223.29 109.427H1295.19M1295.19 109.427L1316.31 116.687M1167.23 116.687H1241.77M1167.23 116.687H1092.7M1261.67 124.5L1241.77 116.687M1261.67 124.5L1283.13 132.933M1261.67 124.5H1339.05M1241.77 116.687H1316.31M1092.7 116.687H1018.16M1092.7 116.687L1079.49 109.427M1316.31 116.687L1339.05 124.5M1316.31 116.687H1390.85M1079.49 109.427H1007.6M1283.13 132.933L1306.37 142.062M1283.13 132.933H1363.58M1339.05 124.5L1363.58 132.933M1390.85 116.687H1439.61M1363.58 132.933L1390.14 142.062M1363.58 132.933H1439.61M1222.61 142.062L1244.24 151.977M1222.61 142.062H1306.37M1222.61 142.062H1138.84M1306.37 142.062L1331.62 151.977M1306.37 142.062H1390.14M1390.14 142.062L1418.99 151.977M1390.14 142.062H1439.61M1244.24 151.977H1331.62M1244.24 151.977H1156.87M1359.13 162.784L1331.62 151.977M1359.13 162.784L1389.23 174.609M1359.13 162.784H1439.61M1331.62 151.977H1418.99M1156.87 151.977H1069.49M1156.87 151.977L1138.84 142.062M1418.99 151.977H1439.61M1418.99 151.977L1439.61 159.066M1138.84 142.062H1055.07M1389.23 174.609L1422.31 187.603M1389.23 174.609H1439.61M1321.98 187.603L1353.28 201.949M1321.98 187.603H1422.31M1321.98 187.603H1221.65M1422.31 187.603L1439.61 194.399M1422.31 187.603H1439.61M1353.28 201.949H1247.74M1353.28 201.949L1439.61 201.949M1247.74 201.949H1142.19M1247.74 201.949L1221.65 187.603M1221.65 187.603H1121.32M792.194 10.9838L792.355 11.205L792.516 11.4269L792.679 11.6501L792.841 11.8743L793.335 12.5527L793.501 12.781M792.194 10.9838H828.291M792.194 10.9838H756.097M826.398 9.24948L825.022 7.98815L824.572 7.57472M826.398 9.24948L827.574 10.3263L828.291 10.9838M826.398 9.24948H861.865M824.572 7.57472H859.429M824.572 7.57472L823.242 6.356L822.806 5.95667M788.537 5.95667L788.393 5.75802L787.822 4.9726L787.399 4.39218M788.537 5.95667H822.806M788.537 5.95667H754.269M828.291 10.9838L828.532 11.205L828.775 11.4269L829.018 11.6501L829.263 11.8743L830.251 12.781M828.291 10.9838H864.388M861.865 9.24948L860.03 7.98815L859.429 7.57472M861.865 9.24948L864.388 10.9838M859.429 7.57472L858.241 6.75879L857.364 6.15591L857.075 5.95667M822.806 5.95667L822.59 5.75802L822.16 5.36387L821.732 4.9726L821.521 4.77827L821.099 4.39218M822.806 5.95667H857.075M864.388 10.9838L866.34 12.3255L867.002 12.781M891.344 5.95667L889.201 4.77827L888.499 4.39218M891.344 5.95667H857.075M857.075 5.95667L855.08 4.5848L854.798 4.39218M793.501 12.781H830.251M793.501 12.781H756.75M832.284 14.6443L830.251 12.781M832.284 14.6443L834.394 16.5776M832.284 14.6443H869.712M830.251 12.781H867.002M756.75 12.781H720M756.75 12.781L756.097 10.9838M867.002 12.781L869.712 14.6443M756.097 10.9838H720M834.394 16.5776L834.934 17.0722L835.753 17.8234L836.584 18.5849M834.394 16.5776H872.526M869.712 14.6443L870.059 14.8818L872.526 16.5776M872.526 16.5776L872.884 16.8243L873.245 17.0722L873.607 17.3216L875.445 18.5849M797.723 18.5849L799.24 20.6708M797.723 18.5849H836.584M797.723 18.5849H758.861M836.584 18.5849L838.86 20.6708M836.584 18.5849H875.445M875.445 18.5849L877.71 20.1416L878.094 20.4056L878.48 20.6708M799.24 20.6708H838.86M799.24 20.6708H759.62M841.226 22.8396L841.528 23.1169L841.833 23.3953L842.138 23.6754L843.689 25.0965M841.226 22.8396L840.031 21.7444L839.736 21.4741L839.443 21.2049L838.86 20.6708M841.226 22.8396H881.635M838.86 20.6708H878.48M759.62 20.6708H720M759.62 20.6708L758.861 18.5849M878.48 20.6708L881.635 22.8396M758.861 18.5849H720M843.689 25.0965L845.927 27.1479L846.253 27.447M843.689 25.0965H884.918M881.635 22.8396L882.444 23.3953L884.918 25.0965M884.918 25.0965L886.184 25.9666L888.338 27.447M804.168 27.447L805.051 28.6591L805.273 28.9663L805.951 29.8971M804.168 27.447H846.253M804.168 27.447H762.085M846.253 27.447L848.926 29.8971M846.253 27.447H888.338M888.338 27.447L891.901 29.8971M805.951 29.8971H848.926M805.951 29.8971H762.975M851.715 32.4532L848.926 29.8971M851.715 32.4532L854.627 35.1221M851.715 32.4532H895.62M848.926 29.8971H891.901M762.975 29.8971H720M762.975 29.8971L762.749 29.2749L762.304 28.0499L762.085 27.447M891.901 29.8971L895.62 32.4532M762.085 27.447H720M854.627 35.1221L856.897 37.2028L857.671 37.9119M854.627 35.1221H899.503M895.62 32.4532L899.503 35.1221M899.503 35.1221L901.509 36.5014L903.561 37.9119M811.781 37.9119L813.903 40.8307M811.781 37.9119H857.671M811.781 37.9119H765.89M857.671 37.9119L860.855 40.8307M857.671 37.9119H903.561M903.561 37.9119L907.807 40.8307M813.903 40.8307H860.855M813.903 40.8307H766.952M864.191 43.8877L863.342 43.1101L860.855 40.8307M864.191 43.8877L867.688 47.093M864.191 43.8877H912.254M860.855 40.8307H907.807M766.952 40.8307H720M766.952 40.8307L765.89 37.9119M907.807 40.8307L912.254 43.8877M765.89 37.9119H720M867.688 47.093L871.359 50.4578M867.688 47.093H916.917M912.254 43.8877L916.917 47.093M916.917 47.093L921.812 50.4578M820.906 50.4578L823.478 53.9939M820.906 50.4578H871.359M820.906 50.4578H770.453M871.359 50.4578L875.217 53.9939M871.359 50.4578H921.812M921.812 50.4578L926.956 53.9939M823.478 53.9939H875.217M823.478 53.9939H771.739M879.277 57.7151L875.217 53.9939M879.277 57.7151L883.555 61.6361M879.277 57.7151H932.369M875.217 53.9939H926.956M771.739 53.9939H720M771.739 53.9939L770.61 50.8902L770.453 50.4578M926.956 53.9939L932.369 57.7151M770.453 50.4578H720M883.555 61.6361L888.069 65.7739M883.555 61.6361H938.073M932.369 57.7151L936.618 60.6365L938.073 61.6361M938.073 61.6361L944.093 65.7739M832.046 65.7739L835.227 70.1461M832.046 65.7739H888.069M832.046 65.7739H776.023M888.069 65.7739L892.84 70.1461M888.069 65.7739H944.093M944.093 65.7739L950.453 70.1461M835.227 70.1461H892.84M835.227 70.1461H777.613M897.889 74.7742L892.84 70.1461M897.889 74.7742L903.242 79.6805M897.889 74.7742H957.185M892.84 70.1461H950.453M777.613 70.1461H720M777.613 70.1461L776.023 65.7739M950.453 70.1461L957.185 74.7742M776.023 65.7739H720M903.242 79.6805L908.927 84.8916M903.242 79.6805H964.323M957.185 74.7742L964.323 79.6805M964.323 79.6805L971.903 84.8916M845.952 84.8916L849.985 90.4361M845.952 84.8916H908.927M845.952 84.8916H782.976M908.927 84.8916L914.977 90.4361M908.927 84.8916H971.903M971.903 84.8916L979.969 90.4361M849.985 90.4361H914.977M849.985 90.4361H784.992M921.426 96.3475L914.977 90.4361M921.426 96.3475L928.317 102.663M921.426 96.3475H988.568M914.977 90.4361H979.969M784.992 90.4361H720M784.992 90.4361L782.976 84.8916M979.969 90.4361L988.568 96.3475M782.976 84.8916H720M928.317 102.663L935.696 109.427M928.317 102.663H997.756M988.568 96.3475L997.756 102.663M997.756 102.663L1007.6 109.427M863.797 109.427L869.078 116.687M863.797 109.427H935.696M863.797 109.427H791.899M935.696 109.427L943.617 116.687M935.696 109.427H1007.6M1007.6 109.427L1018.16 116.687M869.078 116.687H943.617M869.078 116.687H794.539M952.142 124.5L943.617 116.687M952.142 124.5L961.343 132.933M952.142 124.5H1029.52M943.617 116.687H1018.16M794.539 116.687H720M794.539 116.687L791.899 109.427M1018.16 116.687L1029.52 124.5M791.899 109.427H720M961.343 132.933L971.304 142.062M961.343 132.933H1041.79M1029.52 124.5L1041.79 132.933M1041.79 132.933L1055.07 142.062M887.536 142.062L894.747 151.977M887.536 142.062H971.304M887.536 142.062H803.768M971.304 142.062L982.121 151.977M971.304 142.062H1055.07M1055.07 142.062L1069.49 151.977M894.747 151.977H982.121M894.747 151.977H807.374M993.912 162.784L982.121 151.977M993.912 162.784L1006.81 174.609M993.912 162.784H1085.22M982.121 151.977H1069.49M807.374 151.977H720M807.374 151.977L803.768 142.062M1069.49 151.977L1085.22 162.784M803.768 142.062H720M1006.81 174.609L1020.99 187.603M1006.81 174.609H1102.42M1085.22 162.784L1102.42 174.609M1102.42 174.609L1121.32 187.603M920.66 187.603L931.095 201.949M920.66 187.603H1020.99M920.66 187.603H820.33M1020.99 187.603L1036.64 201.949M1020.99 187.603H1121.32M1121.32 187.603L1142.19 201.949M1036.64 201.949H931.095M1036.64 201.949H1142.19M931.095 201.949H825.548M825.548 201.949H720M825.548 201.949L820.33 187.603M820.33 187.603H720M647.806 10.9838L647.645 11.205L647.484 11.4269L647.321 11.6501L647.159 11.8743L646.83 12.3255L646.665 12.5527L646.499 12.781M647.806 10.9838H683.903M647.806 10.9838H611.709M684.534 9.24948L685.143 7.57472M684.534 9.24948L683.903 10.9838M684.534 9.24948H720M685.143 7.57472L685.217 7.36944L685.292 7.16502L685.366 6.96147L685.732 5.95667M685.143 7.57472H720M651.463 5.95667L651.607 5.75802L652.178 4.9726L652.601 4.39218M651.463 5.95667H685.732M651.463 5.95667H617.194M683.903 10.9838L683.822 11.205L683.742 11.4269L683.66 11.6501L683.25 12.781M683.903 10.9838H720M720 9.24948V7.57472M720 9.24948V10.9838M720 7.57472V5.95667M685.732 5.95667H720M685.732 5.95667L685.947 5.36387L686.019 5.16781L686.3 4.39218M720 10.9838V12.781M754.269 5.95667L754.054 5.36387L753.982 5.16781L753.911 4.9726L753.84 4.77827L753.77 4.5848L753.7 4.39218M754.269 5.95667H720M720 5.95667V4.39218M646.499 12.781H683.25M646.499 12.781H609.749M682.572 14.6443L682.485 14.8818L682.399 15.1208L681.869 16.5776M682.572 14.6443L683.25 12.781M682.572 14.6443H720M683.25 12.781H720M609.749 12.781H572.998M609.749 12.781L610.245 12.3255L610.492 12.0995L610.737 11.8743L610.983 11.6501L611.225 11.4269L611.468 11.205L611.709 10.9838M720 12.781V14.6443M611.709 10.9838H575.612M681.869 16.5776L681.139 18.5849M681.869 16.5776H720M720 14.6443V16.5776M720 16.5776V18.5849M642.277 18.5849L640.76 20.6708M642.277 18.5849H681.139M642.277 18.5849H603.416M681.139 18.5849L680.38 20.6708M681.139 18.5849H720M720 18.5849V20.6708M640.76 20.6708H680.38M640.76 20.6708H601.14M679.592 22.8396L680.38 20.6708M679.592 22.8396L678.771 25.0965M679.592 22.8396H720M680.38 20.6708H720M601.14 20.6708H561.52M601.14 20.6708L603.416 18.5849M720 20.6708V22.8396M603.416 18.5849H564.555M678.771 25.0965L678.454 25.9666L678.133 26.8502L677.915 27.447M678.771 25.0965H720M720 22.8396V25.0965M720 25.0965V27.447M635.832 27.447L634.949 28.6591L634.727 28.9663L634.049 29.8971M635.832 27.447H677.915M635.832 27.447H593.747M677.915 27.447L677.697 28.0499L677.251 29.2749L677.025 29.8971M677.915 27.447H720M720 27.447V29.8971M634.049 29.8971H677.025M634.049 29.8971H591.074M676.095 32.4532L676.213 32.1275L677.025 29.8971M676.095 32.4532L675.125 35.1221M676.095 32.4532H720M677.025 29.8971H720M591.074 29.8971H548.099M591.074 29.8971L593.747 27.447M720 29.8971V32.4532M593.747 27.447H551.662M675.125 35.1221L674.11 37.9119M675.125 35.1221H720M720 32.4532V35.1221M720 35.1221V37.9119M628.219 37.9119L626.097 40.8307M628.219 37.9119H674.11M628.219 37.9119H582.329M674.11 37.9119L673.048 40.8307M674.11 37.9119H720M720 37.9119V40.8307M626.097 40.8307H673.048M626.097 40.8307H579.145M671.937 43.8877L673.048 40.8307M671.937 43.8877L670.771 47.093M671.937 43.8877H720M673.048 40.8307H720M579.145 40.8307H532.193M579.145 40.8307L582.329 37.9119M720 40.8307V43.8877M582.329 37.9119H536.439M670.771 47.093L669.547 50.4578M670.771 47.093H720M720 43.8877V47.093M720 47.093V50.4578M619.094 50.4578L616.522 53.9939M619.094 50.4578H669.547M619.094 50.4578H568.642M669.547 50.4578L668.261 53.9939M669.547 50.4578H720M720 50.4578V53.9939M616.522 53.9939H668.261M616.522 53.9939H564.783M666.908 57.7151L668.261 53.9939M666.908 57.7151L665.482 61.6361M666.908 57.7151H720M668.261 53.9939H720M564.783 53.9939H513.044M564.783 53.9939L568.642 50.4578M720 53.9939V57.7151M568.642 50.4578H518.188M665.482 61.6361L663.977 65.7739M665.482 61.6361H720M720 57.7151V61.6361M720 61.6361V65.7739M607.954 65.7739L604.774 70.1461M607.954 65.7739H663.977M607.954 65.7739H551.931M663.977 65.7739L662.387 70.1461M663.977 65.7739H720M720 65.7739V70.1461M604.774 70.1461H662.387M604.774 70.1461H547.16M660.704 74.7742L662.387 70.1461M660.704 74.7742L658.919 79.6805M660.704 74.7742H720M662.387 70.1461H720M547.16 70.1461H489.547M547.16 70.1461L551.931 65.7739M720 70.1461V74.7742M551.931 65.7739H495.908M658.919 79.6805L657.024 84.8916M658.919 79.6805H720M720 74.7742V79.6805M720 79.6805V84.8916M594.048 84.8916L590.016 90.4361M594.048 84.8916H657.024M594.048 84.8916H531.073M657.024 84.8916L655.008 90.4361M657.024 84.8916H720M720 84.8916V90.4361M590.016 90.4361H655.008M590.016 90.4361H525.023M652.858 96.3475L655.008 90.4361M652.858 96.3475L650.561 102.663M652.858 96.3475H720M655.008 90.4361H720M525.023 90.4361H460.031M525.023 90.4361L531.073 84.8916M720 90.4361V96.3475M531.073 84.8916H468.097M650.561 102.663L648.101 109.427M650.561 102.663H720M720 96.3475V102.663M720 102.663V109.427M576.203 109.427L570.922 116.687M576.203 109.427H648.101M576.203 109.427H504.304M648.101 109.427L645.461 116.687M648.101 109.427H720M720 109.427V116.687M570.922 116.687H645.461M570.922 116.687H496.383M642.619 124.5L645.461 116.687M642.619 124.5L639.553 132.933M642.619 124.5H720M645.461 116.687H720M496.383 116.687H421.844M496.383 116.687L504.304 109.427M720 116.687V124.5M504.304 109.427H432.405M639.553 132.933L636.232 142.062M639.553 132.933H720M720 124.5V132.933M720 132.933V142.062M552.465 142.062L545.253 151.977M552.465 142.062H636.232M552.465 142.062H468.696M636.232 142.062L632.626 151.977M636.232 142.062H720M720 142.062V151.977M545.253 151.977H632.626M545.253 151.977H457.879M628.696 162.784L632.626 151.977M628.696 162.784L624.396 174.609M628.696 162.784H720M632.626 151.977H720M457.879 151.977H370.505M457.879 151.977L468.696 142.062M720 151.977V162.784M468.696 142.062H384.929M624.396 174.609L619.67 187.603M624.396 174.609H720M720 162.784V174.609M720 174.609V187.603M519.34 187.603L508.905 201.949M519.34 187.603H619.67M519.34 187.603H419.009M619.67 187.603L614.452 201.949M619.67 187.603H720M720 187.603V201.949M614.452 201.949H508.905M614.452 201.949H720M508.905 201.949H403.358M403.358 201.949H297.81M403.358 201.949L419.009 187.603M419.009 187.603H318.679M503.418 10.9838L501.475 11.8743L499.497 12.781M503.418 10.9838H539.515M503.418 10.9838H467.322M542.669 9.24948L545.714 7.57472M542.669 9.24948L539.515 10.9838M542.669 9.24948H578.135M545.714 7.57472H580.571M545.714 7.57472L547.93 6.356L548.657 5.95667M514.388 5.95667H548.657M514.388 5.95667L515.682 5.36387L517.802 4.39218M514.388 5.95667H480.119M539.515 10.9838L536.248 12.781M539.515 10.9838H575.612M578.135 9.24948L580.571 7.57472M578.135 9.24948L575.612 10.9838M580.571 7.57472L581.759 6.75879L582.636 6.15591L582.925 5.95667M548.657 5.95667H582.925M548.657 5.95667L550.799 4.77827L551.501 4.39218M575.612 10.9838L573.66 12.3255L572.998 12.781M617.194 5.95667L617.41 5.75802L617.841 5.36387L618.479 4.77827L618.901 4.39218M617.194 5.95667H582.925M582.925 5.95667L583.214 5.75802L583.788 5.36387L585.201 4.39218M499.497 12.781H536.248M499.497 12.781H462.746M532.859 14.6443L533.29 14.4076L533.718 14.1718L535.412 13.2402L536.248 12.781M532.859 14.6443L530.234 16.0873L529.343 16.5776M532.859 14.6443H570.288M536.248 12.781H572.998M462.746 12.781H425.996M462.746 12.781L466.193 11.4269L467.322 10.9838M572.998 12.781L570.288 14.6443M467.322 10.9838H431.224M529.343 16.5776L528.895 16.8243L528.444 17.0722L527.079 17.8234L526.618 18.0759L525.693 18.5849M529.343 16.5776H567.474M570.288 14.6443L569.941 14.8818L567.474 16.5776M567.474 16.5776L567.116 16.8243L566.755 17.0722L566.393 17.3216L564.555 18.5849M486.832 18.5849L482.281 20.6708M486.832 18.5849H525.693M486.832 18.5849H447.971M525.693 18.5849L521.9 20.6708M525.693 18.5849H564.555M564.555 18.5849L561.52 20.6708M482.281 20.6708H521.9M482.281 20.6708H442.661M517.957 22.8396L521.9 20.6708M517.957 22.8396L513.853 25.0965M517.957 22.8396H558.365M521.9 20.6708H561.52M442.661 20.6708H403.041M442.661 20.6708L447.971 18.5849M561.52 20.6708L558.365 22.8396M447.971 18.5849H409.109M513.853 25.0965L509.579 27.447M513.853 25.0965H555.082M558.365 22.8396L557.557 23.3953L555.082 25.0965M555.082 25.0965L553.816 25.9666L552.53 26.8502L551.662 27.447M467.494 27.447L464.849 28.6591L462.148 29.8971M467.494 27.447H509.579M467.494 27.447H425.409M509.579 27.447L505.123 29.8971M509.579 27.447H551.662M551.662 27.447L548.099 29.8971M462.148 29.8971H505.123M462.148 29.8971H419.173M500.476 32.4532L505.123 29.8971M500.476 32.4532L495.622 35.1221M500.476 32.4532H544.38M505.123 29.8971H548.099M419.173 29.8971H376.197M419.173 29.8971L425.409 27.447M548.099 29.8971L544.38 32.4532M425.409 27.447H383.326M495.622 35.1221L494.375 35.8079L490.549 37.9119M495.622 35.1221H540.497M544.38 32.4532L540.497 35.1221M540.497 35.1221L540 35.4641L538.491 36.5014L536.439 37.9119M444.659 37.9119L438.29 40.8307M444.659 37.9119H490.549M444.659 37.9119H398.769M490.549 37.9119L485.241 40.8307M490.549 37.9119H536.439M536.439 37.9119L532.193 40.8307M438.29 40.8307H485.241M438.29 40.8307H391.338M479.682 43.8877L483.188 41.9605L485.241 40.8307M479.682 43.8877L473.854 47.093M479.682 43.8877H527.746M485.241 40.8307H532.193M391.338 40.8307H344.386M391.338 40.8307L398.769 37.9119M532.193 40.8307L527.746 43.8877M398.769 37.9119H352.878M473.854 47.093L467.735 50.4578M473.854 47.093H523.083M527.746 43.8877L523.083 47.093M523.083 47.093L518.188 50.4578M417.282 50.4578L409.566 53.9939M417.282 50.4578H467.735M417.282 50.4578H366.83M467.735 50.4578L461.305 53.9939M467.735 50.4578H518.188M518.188 50.4578L513.044 53.9939M409.566 53.9939H461.305M409.566 53.9939H357.827M454.539 57.7151L461.305 53.9939M454.539 57.7151L447.409 61.6361M454.539 57.7151H507.631M461.305 53.9939H513.044M357.827 53.9939H306.089M357.827 53.9939L366.83 50.4578M513.044 53.9939L507.631 57.7151M366.83 50.4578H316.377M447.409 61.6361L439.885 65.7739M447.409 61.6361H501.927M507.631 57.7151L501.927 61.6361M501.927 61.6361L495.908 65.7739M383.862 65.7739L374.321 70.1461M383.862 65.7739H439.885M383.862 65.7739H327.838M439.885 65.7739L431.934 70.1461M439.885 65.7739H495.908M495.908 65.7739L489.547 70.1461M374.321 70.1461H431.934M374.321 70.1461H316.707M423.518 74.7742L431.934 70.1461M423.518 74.7742L414.596 79.6805M423.518 74.7742H482.815M431.934 70.1461H489.547M316.707 70.1461H259.094M316.707 70.1461L327.838 65.7739M489.547 70.1461L482.815 74.7742M327.838 65.7739H271.816M414.596 79.6805L405.121 84.8916M414.596 79.6805H475.677M482.815 74.7742L475.677 79.6805M475.677 79.6805L468.097 84.8916M342.145 84.8916L330.047 90.4361M342.145 84.8916H405.121M342.145 84.8916H279.169M405.121 84.8916L395.039 90.4361M405.121 84.8916H468.097M468.097 84.8916L460.031 90.4361M330.047 90.4361H395.039M330.047 90.4361H265.054M384.29 96.3475L395.039 90.4361M384.29 96.3475L372.804 102.663M384.29 96.3475H451.432M395.039 90.4361H460.031M265.054 90.4361H200.062M265.054 90.4361L279.169 84.8916M460.031 90.4361L451.432 96.3475M279.169 84.8916H216.193M372.804 102.663L360.506 109.427M372.804 102.663H442.244M451.432 96.3475L442.244 102.663M442.244 102.663L432.405 109.427M288.607 109.427L272.765 116.687M288.607 109.427H360.506M288.607 109.427H216.708M360.506 109.427L347.304 116.687M360.506 109.427H432.405M432.405 109.427L421.844 116.687M272.765 116.687H347.304M272.765 116.687H198.226M333.096 124.5L347.304 116.687M333.096 124.5L317.761 132.933M333.096 124.5H410.477M347.304 116.687H421.844M198.226 116.687H123.687M198.226 116.687L216.708 109.427M421.844 116.687L410.477 124.5M216.708 109.427H144.809M317.761 132.933L301.161 142.062M317.761 132.933H398.209M410.477 124.5L398.209 132.933M398.209 132.933L384.929 142.062M217.393 142.062L195.758 151.977M217.393 142.062H301.161M217.393 142.062H133.625M301.161 142.062L283.132 151.977M301.161 142.062H384.929M384.929 142.062L370.505 151.977M195.758 151.977H283.132M195.758 151.977H108.384M263.48 162.784L283.132 151.977M263.48 162.784L241.977 174.609M263.48 162.784H354.784M283.132 151.977H370.505M108.384 151.977H21.0104M108.384 151.977L133.625 142.062M370.505 151.977L354.784 162.784M133.625 142.062H49.8579M241.977 174.609L218.349 187.603M241.977 174.609H337.582M354.784 162.784L337.582 174.609M337.582 174.609L318.679 187.603M118.019 187.603L86.7156 201.949M118.019 187.603H218.349M118.019 187.603H17.6882M218.349 187.603L192.263 201.949M218.349 187.603H318.679M318.679 187.603L297.81 201.949M192.263 201.949H86.7156M192.263 201.949H297.81M86.7156 201.949L0.387546 201.949M17.6882 187.603L0.387546 194.399M17.6882 187.603H0.387546M359.03 10.9838L352.495 12.781M359.03 10.9838H395.127M359.03 10.9838H322.934M400.804 9.24948L406.286 7.57472M400.804 9.24948L395.127 10.9838M400.804 9.24948H436.27M406.286 7.57472H441.143M406.286 7.57472L411.582 5.95667M377.313 5.95667H411.582M377.313 5.95667L379.47 5.36387L383.003 4.39218M377.313 5.95667H343.045M395.127 10.9838L389.245 12.781M395.127 10.9838H431.224M436.27 9.24948L441.143 7.57472M436.27 9.24948L431.224 10.9838M441.143 7.57472L444.689 6.356L445.851 5.95667M411.582 5.95667L412.232 5.75802L416.703 4.39218M411.582 5.95667H445.851M431.224 10.9838L425.996 12.781M480.119 5.95667L484.102 4.39218M480.119 5.95667H445.851M445.851 5.95667L447.576 5.36387L450.402 4.39218M352.495 12.781H389.245M352.495 12.781H315.744M383.146 14.6443L389.245 12.781M383.146 14.6443L376.818 16.5776M383.146 14.6443H420.575M389.245 12.781H425.996M315.744 12.781H278.994M315.744 12.781L322.934 10.9838M425.996 12.781L420.575 14.6443M322.934 10.9838H286.837M376.818 16.5776L375.198 17.0722L370.247 18.5849M376.818 16.5776H414.95M420.575 14.6443L414.95 16.5776M414.95 16.5776L409.109 18.5849M331.386 18.5849L330.454 18.8414L323.801 20.6708M331.386 18.5849H370.247M331.386 18.5849H292.525M370.247 18.5849L363.421 20.6708M370.247 18.5849H409.109M409.109 18.5849L408.364 18.8414L403.041 20.6708M323.801 20.6708H363.421M323.801 20.6708H284.181M356.322 22.8396L363.421 20.6708M356.322 22.8396L348.935 25.0965M356.322 22.8396H396.731M363.421 20.6708H403.041M284.181 20.6708H244.561M284.181 20.6708L292.525 18.5849M403.041 20.6708L396.731 22.8396M292.525 18.5849H253.663M348.935 25.0965L341.241 27.447M348.935 25.0965H390.164M396.731 22.8396L390.164 25.0965M390.164 25.0965L383.326 27.447M299.157 27.447L290.247 29.8971M299.157 27.447H341.241M299.157 27.447H257.073M341.241 27.447L333.222 29.8971M341.241 27.447H383.326M383.326 27.447L376.197 29.8971M290.247 29.8971H333.222M290.247 29.8971H247.271M324.856 32.4532L333.222 29.8971M324.856 32.4532L316.119 35.1221M324.856 32.4532H368.76M333.222 29.8971H376.197M247.271 29.8971H204.296M247.271 29.8971L257.073 27.447M376.197 29.8971L368.76 32.4532M257.073 27.447H214.988M316.119 35.1221L306.988 37.9119M316.119 35.1221H360.995M368.76 32.4532L360.995 35.1221M360.995 35.1221L352.878 37.9119M261.098 37.9119L250.483 40.8307M261.098 37.9119H306.988M261.098 37.9119H215.208M306.988 37.9119L297.435 40.8307M306.988 37.9119H352.878M352.878 37.9119L344.386 40.8307M250.483 40.8307H297.435M250.483 40.8307H203.531M287.428 43.8877L297.435 40.8307M287.428 43.8877L276.937 47.093M287.428 43.8877H335.492M297.435 40.8307H344.386M203.531 40.8307H156.579M203.531 40.8307L215.208 37.9119M344.386 40.8307L335.492 43.8877M215.208 37.9119H169.317M276.937 47.093L265.924 50.4578M276.937 47.093H326.166M335.492 43.8877L326.166 47.093M326.166 47.093L316.377 50.4578M215.471 50.4578L202.611 53.9939M215.471 50.4578H265.924M215.471 50.4578H165.018M265.924 50.4578L254.349 53.9939M265.924 50.4578H316.377M316.377 50.4578L306.089 53.9939M202.611 53.9939H254.349M202.611 53.9939H150.871M242.169 57.7151L254.349 53.9939M242.169 57.7151L229.335 61.6361M242.169 57.7151H295.262M254.349 53.9939H306.089M150.871 53.9939H99.1326M150.871 53.9939L165.018 50.4578M306.089 53.9939L295.262 57.7151M165.018 50.4578H114.565M229.335 61.6361L215.792 65.7739M229.335 61.6361H283.853M295.262 57.7151L283.853 61.6361M283.853 61.6361L271.816 65.7739M159.769 65.7739L143.868 70.1461M159.769 65.7739H215.792M159.769 65.7739H103.746M215.792 65.7739L201.481 70.1461M215.792 65.7739H271.816M271.816 65.7739L259.094 70.1461M143.868 70.1461H201.481M143.868 70.1461H86.2546M186.333 74.7742L201.481 70.1461M186.333 74.7742L170.274 79.6805M186.333 74.7742H245.629M201.481 70.1461H259.094M86.2546 70.1461H28.6413M86.2546 70.1461L103.746 65.7739M259.094 70.1461L245.629 74.7742M103.746 65.7739H47.7231M170.274 79.6805L153.217 84.8916M170.274 79.6805H231.355M245.629 74.7742L231.355 79.6805M231.355 79.6805L216.193 84.8916M90.2417 84.8916L70.0775 90.4361M90.2417 84.8916H153.217M90.2417 84.8916H27.2658M153.217 84.8916L135.07 90.4361M153.217 84.8916H216.193M216.193 84.8916L200.062 90.4361M70.0775 90.4361H135.07M70.0775 90.4361H5.08526M115.72 96.3475L135.07 90.4361M115.72 96.3475L95.0481 102.663M115.72 96.3475H182.863M135.07 90.4361H200.062M5.08526 90.4361L27.2658 84.8916M5.08526 90.4361H0.387546M5.08526 90.4361L0.387546 91.6103M200.062 90.4361L182.863 96.3475M27.2658 84.8916H0.387546M95.0481 102.663L72.911 109.427M95.0481 102.663H164.487M182.863 96.3475L164.487 102.663M164.487 102.663L144.809 109.427M1.01196 109.427H72.911M1.01196 109.427H0.387546M1.01196 109.427L0.387546 109.598M72.911 109.427L49.1473 116.687M72.911 109.427H144.809M144.809 109.427L123.687 116.687M23.5726 124.5L49.1473 116.687M23.5726 124.5H100.953M23.5726 124.5H0.387546M23.5726 124.5L0.387546 131.584M49.1473 116.687H123.687M49.1473 116.687H0.387546M123.687 116.687L100.953 124.5M100.953 124.5L76.4184 132.933M76.4184 132.933L49.8579 142.062M76.4184 132.933H0.387546M49.8579 142.062L21.0104 151.977M49.8579 142.062H0.387546M21.0104 151.977H0.387546M21.0104 151.977L0.387546 159.066M214.642 10.9838L205.493 12.781M214.642 10.9838H250.74M214.642 10.9838H178.546M258.939 9.24948L266.857 7.57472M258.939 9.24948L250.74 10.9838M258.939 9.24948H294.405M266.857 7.57472H301.714M266.857 7.57472L274.507 5.95667M240.239 5.95667H274.507M240.239 5.95667L248.204 4.39218M240.239 5.95667H205.97M250.74 10.9838L242.243 12.781M250.74 10.9838H286.837M294.405 9.24948L301.714 7.57472M294.405 9.24948L286.837 10.9838M301.714 7.57472L308.776 5.95667M274.507 5.95667L275.445 5.75802L281.904 4.39218M274.507 5.95667H308.776M286.837 10.9838L278.994 12.781M343.045 5.95667L349.303 4.39218M343.045 5.95667H308.776M308.776 5.95667L309.642 5.75802L315.603 4.39218M205.493 12.781H242.243M205.493 12.781H168.742M233.433 14.6443L242.243 12.781M233.433 14.6443L224.293 16.5776M233.433 14.6443H270.862M242.243 12.781H278.994M168.742 12.781H131.992M168.742 12.781L178.546 10.9838M278.994 12.781L270.862 14.6443M178.546 10.9838H142.449M224.293 16.5776L214.802 18.5849M224.293 16.5776H262.424M270.862 14.6443L269.824 14.8818L262.424 16.5776M262.424 16.5776L253.663 18.5849M175.941 18.5849L165.321 20.6708M175.941 18.5849H214.802M175.941 18.5849H137.079M214.802 18.5849L204.941 20.6708M214.802 18.5849H253.663M253.663 18.5849L244.561 20.6708M165.321 20.6708H204.941M165.321 20.6708H125.701M194.687 22.8396L204.941 20.6708M194.687 22.8396L184.017 25.0965M194.687 22.8396H235.096M204.941 20.6708H244.561M125.701 20.6708H86.0814M125.701 20.6708L137.079 18.5849M244.561 20.6708L235.096 22.8396M137.079 18.5849H98.2181M184.017 25.0965L172.904 27.447M184.017 25.0965H225.246M235.096 22.8396L225.246 25.0965M225.246 25.0965L214.988 27.447M130.82 27.447L118.345 29.8971M130.82 27.447H172.904M130.82 27.447H88.735M172.904 27.447L161.321 29.8971M172.904 27.447H214.988M214.988 27.447L204.296 29.8971M118.345 29.8971H161.321M118.345 29.8971H75.3697M149.236 32.4532L161.321 29.8971M149.236 32.4532L136.617 35.1221M149.236 32.4532H193.141M161.321 29.8971H204.296M75.3697 29.8971H32.3946M75.3697 29.8971L88.735 27.447M204.296 29.8971L193.141 32.4532M88.735 27.447H46.6511M136.617 35.1221L123.427 37.9119M136.617 35.1221H181.492M193.141 32.4532L181.492 35.1221M181.492 35.1221L169.317 37.9119M77.5368 37.9119L62.676 40.8307M77.5368 37.9119H123.427M77.5368 37.9119H31.6472M123.427 37.9119L109.628 40.8307M123.427 37.9119H169.317M169.317 37.9119L156.579 40.8307M62.676 40.8307H109.628M95.174 43.8877L109.628 40.8307M95.174 43.8877L80.0202 47.093M95.174 43.8877H143.238M109.628 40.8307H156.579M156.579 40.8307L143.238 43.8877M31.6472 37.9119H0.387546M80.0202 47.093L64.1122 50.4578M80.0202 47.093H129.249M143.238 43.8877L129.249 47.093M129.249 47.093L114.565 50.4578M13.6591 50.4578H64.1122M13.6591 50.4578H0.387546M13.6591 50.4578L0.387546 53.0643M64.1122 50.4578L47.3932 53.9939M64.1122 50.4578H114.565M114.565 50.4578L99.1326 53.9939M29.8002 57.7151L47.3932 53.9939M29.8002 57.7151L11.2619 61.6361M29.8002 57.7151H82.8926M29.8002 57.7151H0.387546M47.3932 53.9939H99.1326M47.3932 53.9939H0.387546M99.1326 53.9939L82.8926 57.7151M0.241375 53.093L0.387546 53.0643M11.2619 61.6361H65.7801M11.2619 61.6361H0.387546M11.2619 61.6361L0.387546 63.9362M82.8926 57.7151L65.7801 61.6361M65.7801 61.6361L47.7231 65.7739M47.7231 65.7739L28.6413 70.1461M47.7231 65.7739H0.387546M8.44421 74.7742L28.6413 70.1461M8.44421 74.7742H0.387546M8.44421 74.7742L0.387546 76.6202M28.6413 70.1461H0.387546M70.2552 10.9838L58.491 12.781M70.2552 10.9838H106.352M70.2552 10.9838H34.1576M117.074 9.24948L127.428 7.57472M117.074 9.24948L106.352 10.9838M117.074 9.24948H152.541M127.428 7.57472H162.285M127.428 7.57472L137.433 5.95667M103.164 5.95667H137.433M103.164 5.95667L113.405 4.39218M103.164 5.95667H68.8954M106.352 10.9838L95.2415 12.781M106.352 10.9838H142.449M152.541 9.24948L162.285 7.57472M152.541 9.24948L142.449 10.9838M162.285 7.57472L171.701 5.95667M137.433 5.95667H171.701M137.433 5.95667L147.105 4.39218M142.449 10.9838L131.992 12.781M205.97 5.95667L214.505 4.39218M205.97 5.95667H171.701M171.701 5.95667L180.805 4.39218M58.491 12.781H95.2415M58.491 12.781H21.7405M83.7209 14.6443L95.2415 12.781M83.7209 14.6443L71.7679 16.5776M83.7209 14.6443H121.149M95.2415 12.781H131.992M21.7405 12.781L34.1576 10.9838M21.7405 12.781H0.387546M131.992 12.781L121.149 14.6443M34.1576 10.9838H0.387546M71.7679 16.5776L59.3568 18.5849M71.7679 16.5776H109.899M121.149 14.6443L109.899 16.5776M109.899 16.5776L98.2181 18.5849M20.4955 18.5849L6.84157 20.6708M20.4955 18.5849H59.3568M20.4955 18.5849H0.387546M59.3568 18.5849L46.4615 20.6708M59.3568 18.5849H98.2181M98.2181 18.5849L86.0814 20.6708M33.0527 22.8396L46.4615 20.6708M33.0527 22.8396L19.099 25.0965M33.0527 22.8396H73.4612M33.0527 22.8396H0.387546M46.4615 20.6708H6.84157M46.4615 20.6708H86.0814M6.84157 20.6708L0.387546 21.6566M6.84157 20.6708H0.387546M86.0814 20.6708L73.4612 22.8396M19.099 25.0965L4.56654 27.447M19.099 25.0965H60.3283M19.099 25.0965H0.387546M73.4612 22.8396L60.3283 25.0965M60.3283 25.0965L46.6511 27.447M4.56654 27.447H46.6511M4.56654 27.447L0.387546 28.1228M4.56654 27.447H0.387546M46.6511 27.447L32.3946 29.8971M17.5211 32.4532L32.3946 29.8971M17.5211 32.4532L1.99018 35.1221M17.5211 32.4532H0.387546M32.3946 29.8971H0.387546M0.162665 29.8971H0.387546M1.99018 35.1221H0.387546M1.99018 35.1221L0.387546 35.3975M0 35.4641L0.387546 35.3975M10.6758 9.24948L22.8567 7.57472M10.6758 9.24948H0.387546M10.6758 9.24948L0.387546 10.6638M22.8567 7.57472L34.6269 5.95667M22.8567 7.57472H0.387546M68.8954 5.95667L79.7053 4.39218M68.8954 5.95667H34.6269M34.6269 5.95667L46.0057 4.39218M34.6269 5.95667H0.387546M1191.8 4.39218H1225.5M1191.8 4.39218H1158.1M1217.24 2.87893L1219.28 3.25264L1225.5 4.39218M1217.24 2.87893H1250.39M1225.5 4.39218H1259.2M1250.39 2.87893L1252.56 3.25264L1253.66 3.44036L1259.2 4.39218M1259.2 4.39218H1292.89M1292.89 4.39218H1326.6M1158.1 4.39218H1124.4M1326.6 4.39218H1360.29M1360.29 4.39218L1349.84 2.87893M1360.29 4.39218H1393.99M1349.84 2.87893H1382.99M1057 4.39218H1090.7M1057 4.39218H1023.3M1084.64 2.87893L1086.14 3.25264L1086.89 3.44036L1090.7 4.39218M1084.64 2.87893H1117.79M1090.7 4.39218H1124.4M1117.79 2.87893L1124.4 4.39218M1023.3 4.39218H989.598M922.198 4.39218H955.898M922.198 4.39218H888.499M952.045 2.87893L952.52 3.06521L952.996 3.25264L953.475 3.44036L955.898 4.39218M952.045 2.87893H985.194M955.898 4.39218H989.598M985.194 2.87893L989.598 4.39218M888.499 4.39218H854.798M787.399 4.39218H821.099M787.399 4.39218H753.7M819.448 2.87893L821.099 4.39218M819.448 2.87893H852.598M821.099 4.39218H854.798M852.598 2.87893L852.869 3.06521L853.141 3.25264L853.415 3.44036L854.798 4.39218M753.7 4.39218H720M652.601 4.39218H686.3M652.601 4.39218H618.901M686.851 2.87893L686.3 4.39218M686.851 2.87893H720M686.3 4.39218H720M720 2.87893V4.39218M618.901 4.39218H585.201M517.802 4.39218H551.501M517.802 4.39218H484.102M554.253 2.87893L553.574 3.25264L552.198 4.00898L551.501 4.39218M554.253 2.87893H587.402M551.501 4.39218H585.201M587.402 2.87893L587.131 3.06521L586.859 3.25264L586.585 3.44036L585.201 4.39218M484.102 4.39218H450.402M383.003 4.39218H416.703M383.003 4.39218H349.303M421.656 2.87893L420.433 3.25264L419.817 3.44036L416.703 4.39218M421.656 2.87893H454.806M416.703 4.39218H450.402M454.806 2.87893L454.263 3.06521L450.402 4.39218M349.303 4.39218H315.603M248.204 4.39218H281.904M248.204 4.39218H214.505M289.059 2.87893L287.292 3.25264L286.403 3.44036L281.904 4.39218M289.059 2.87893H322.208M281.904 4.39218H315.603M322.208 2.87893L321.394 3.06521L315.603 4.39218M214.505 4.39218H180.805M113.405 4.39218H147.105M113.405 4.39218H79.7053M156.461 2.87893L147.105 4.39218M156.461 2.87893H189.61M147.105 4.39218H180.805M189.61 2.87893L187.437 3.25264L186.342 3.44036L180.805 4.39218M79.7053 4.39218H46.0057M23.8641 2.87893L12.3061 4.39218M23.8641 2.87893H57.0136M23.8641 2.87893H0.387546M12.3061 4.39218H46.0057M12.3061 4.39218L0.387546 5.95285M12.3061 4.39218H0.387546M57.0136 2.87893L54.2955 3.25264L46.0057 4.39218M1382.99 2.87893L1385.7 3.25264L1393.99 4.39218M1393.99 4.39218H1427.69M1427.69 4.39218L1439.61 5.95285M1427.69 4.39218H1439.61M1439.61 76.6202V74.7742M1439.61 76.6202V79.6805M1439.61 74.7742V70.1461M1439.61 79.6805V80.595V84.8916M1439.61 84.8916V90.4361M1439.61 40.8307V37.9119M1439.61 40.8307V43.642M1439.61 2.87893V4.39218M1439.61 4.39218V5.95285M1439.61 5.95285L1439.64 5.95667H1439.61M1439.61 5.95285V5.95667M1439.61 5.95667V7.57472M1439.61 7.57472V9.24948M1439.61 9.24948V10.6638M1439.61 10.6638V10.9838M1439.61 10.9838V12.781M1439.61 12.781V14.6443M1439.61 14.6443V15.8708M1439.61 15.8708V16.5776M1439.61 16.5776V18.5849M1439.61 18.5849V20.6708M1439.61 20.6708V21.6566M1439.61 21.6566V22.8396M1439.61 22.8396V25.0965M1439.61 25.0965V27.447M1439.61 27.447V28.1228M1439.61 28.1228V29.8971M1439.61 29.8971V32.4532M1439.61 32.4532V35.1221M1439.61 35.1221V35.3975M1439.61 35.3975V37.9119M1439.61 43.8877V47.093M1439.61 43.8877V43.642M1439.61 47.093V50.4578M1439.61 50.4578V53.0643M1439.61 53.0643V53.9939M1439.61 53.9939V57.7151M1439.61 57.7151V61.6361M1439.61 61.6361V63.9362M1439.61 63.9362V65.7739M1439.61 65.7739V70.1461M1439.61 90.4361V91.6103M1439.61 91.6103V96.3475M1439.61 96.3475V102.663M1439.61 102.663V109.427M1439.61 109.427V109.598M1439.61 109.598V116.687M1439.61 116.687V124.5M1439.61 124.5V131.584M1439.61 131.584V132.933M1439.61 132.933V142.062M1439.61 142.062V151.977M1439.61 151.977V159.066M1439.61 159.066V162.784M1439.61 162.784V174.609M1439.61 174.609V187.603M1439.61 187.603V194.399M1439.61 194.399V201.949M1439.61 201.949V202H0.387546V201.949M0.387546 43.8877V47.093M0.387546 43.8877V43.642M0.387546 43.642V40.8307M0.387546 40.8307V37.9119M0.387546 37.9119V35.3975M0.387546 35.3975V35.1221M0.387546 35.1221V32.4532M0.387546 32.4532V29.8971M0.387546 29.8971V28.1228M0.387546 28.1228V27.447M0.387546 27.447V25.0965M0.387546 25.0965V22.8396M0.387546 22.8396V21.6566M0.387546 21.6566V20.6708M0.387546 20.6708V18.5849M0.387546 18.5849V16.5776M0.387546 16.5776V15.8708M0.387546 15.8708V14.6443M0.387546 14.6443V12.781M0.387546 12.781V10.9838M0.387546 10.9838V10.6638M0.387546 10.6638V9.24948M0.387546 9.24948V7.57472M0.387546 7.57472V5.95667M0.387546 5.95667H0.35831L0.387546 5.95285M0.387546 5.95667V5.95285M0.387546 5.95285V4.39218M0.387546 4.39218V2.87893M0.387546 201.949V194.399M0.387546 194.399V187.603M0.387546 187.603V174.61M0.387546 174.61V162.784M0.387546 162.784V159.066M0.387546 159.066V151.977M0.387546 151.977V142.062M0.387546 142.062V132.933M0.387546 132.933V131.584M0.387546 131.584V124.5M0.387546 124.5V116.687M0.387546 116.687V109.598M0.387546 109.598V109.427M0.387546 109.427V102.663M0.387546 102.663V96.3475M0.387546 96.3475V91.6103M0.387546 91.6103V90.4361M0.387546 90.4361V84.8916M0.387546 84.8916V79.6805M0.387546 79.6805V76.6202M0.387546 76.6202V74.7742M0.387546 74.7742V70.1461M0.387546 70.1461V65.7739M0.387546 65.7739V63.9362M0.387546 63.9362V61.6361M0.387546 61.6361V57.7151M0.387546 57.7151V53.9939M0.387546 53.9939V53.0643M0.387546 53.0643V50.4578M0.387546 50.4578V47.093" stroke="url(#paint0_linear_2189_89484)" stroke-miterlimit="10" stroke-linecap="round" stroke-linejoin="round"/>
<defs>
<linearGradient id="paint0_linear_2189_89484" x1="720" y1="202" x2="720" y2="1.41406" gradientUnits="userSpaceOnUse">
<stop stop-color="#B7B7B7" stop-opacity="0.2"/>
<stop offset="1" stop-color="white" stop-opacity="0"/>
</linearGradient>
</defs>
</svg>
