<svg fill="currentColor" height="24" viewBox="0 0 24 24" width="24" xmlns="http://www.w3.org/2000/svg"><path d="M12 21.9989C6.46156 21.9989 2 17.5384 2 12C2 6.46156 6.46156 2 12 2C17.5384 2 22 6.46156 22 12C22 17.5384 17.5384 21.9989 12 21.9989ZM12 3.15335C7.154 3.15335 3.15443 7.15292 3.15443 11.9989C3.15443 16.8449 7.154 20.8456 12 20.8456C16.846 20.8456 20.8456 16.846 20.8456 12C20.8456 7.154 16.846 3.15335 12 3.15335Z" fill="currentColor" stroke="currentColor" stroke-width="0.4"></path><path d="M12.0012 15.2319C11.4627 15.2319 10.9243 15.0014 10.5398 14.6169L9.46295 13.5401C8.61652 12.6936 8.61652 11.3863 9.46295 10.5398L10.5398 9.46295C11.3863 8.61652 12.6936 8.61652 13.5401 9.46295L14.6169 10.5398C15.0014 10.9243 15.2319 11.4627 15.2319 12.0012C15.2319 12.5396 15.0014 13.0781 14.6169 13.4625L13.5401 14.5394C13.0781 15.0003 12.5396 15.2319 12.0012 15.2319ZM12.0012 9.92386C11.7707 9.92386 11.5392 10.0003 11.3087 10.2319L10.2319 11.3087C9.8474 11.6932 9.8474 12.3092 10.2319 12.6936L11.3087 13.7705C11.6932 14.155 12.3092 14.155 12.6936 13.7705L13.7705 12.6936C13.9245 12.5396 14.0785 12.3092 14.0785 12.0012C14.0785 11.6932 14.002 11.5392 13.7705 11.3087L12.6936 10.2319C12.4621 10.0779 12.2316 9.92386 12.0012 9.92386Z" fill="currentColor" stroke="currentColor" stroke-width="0.4"></path></svg>