<svg width="60" height="60" viewBox="0 0 60 60" fill="none" xmlns="http://www.w3.org/2000/svg" class="wh-60px"><path d="M56.4903 45.0667L47.045 28.105C47.6932 26.2355 48.0475 24.2254 48.0475 22.1329C48.0475 12.1187 39.9673 4 29.9989 4C20.0316 4 11.9504 12.1177 11.9504 22.1329C11.9504 24.2254 12.3047 26.2345 12.9539 28.105L3.50865 45.0667C2.14771 47.5103 3.43258 48.6535 4.48193 48.5305C5.53233 48.4075 13.5614 46.3401 13.5614 46.3401C13.5614 46.3401 15.7018 53.573 16.5271 55.3018C17.0086 56.3512 18.7051 56.6471 19.9753 54.3244L27.8742 40.1408C29.2861 40.3086 30.7129 40.3086 32.1247 40.1408L40.0236 54.3233C41.2939 56.6471 42.9903 56.3512 43.4718 55.3029C44.2992 53.573 46.4354 46.3401 46.4354 46.3401C46.4354 46.3401 54.4666 48.4075 55.5159 48.5305C56.5674 48.6535 57.8502 47.5093 56.4903 45.0667ZM17.986 52.1433L15.1287 43.4984L6.3712 45.6127L14.3003 31.376C16.5563 35.4172 20.364 38.4642 24.9137 39.7073L17.986 52.1433ZM30.7315 36.9928C30.2438 37.0159 29.7552 37.0159 29.2674 36.9928C28.4 36.9506 27.538 36.832 26.6914 36.6385C22.0542 35.5756 18.2455 32.3243 16.3969 28.0227C15.5996 26.1616 15.1894 24.1577 15.1912 22.1329C15.1912 13.9152 21.8208 7.25332 29.9989 7.25332C38.1791 7.25332 44.8087 13.9152 44.8087 22.1329C44.8107 24.1578 44.4001 26.1618 43.602 28.0227C41.7534 32.3243 37.9447 35.5745 33.3064 36.6385C32.4728 36.8302 31.6131 36.95 30.7326 36.9928H30.7315ZM44.8556 43.4494L42.0775 51.8557L35.3437 39.7636C39.7652 38.5559 43.4676 35.5933 45.6612 31.6637L53.3703 45.5054L44.8567 43.4494H44.8556Z" fill="currentColor"></path><path d="M29.9971 10.7812C23.7583 10.7812 18.7012 15.8624 18.7012 22.1314C18.7012 28.4005 23.7583 33.4816 29.9971 33.4816C36.237 33.4816 41.2952 28.4005 41.2952 22.1314C41.2952 15.8624 36.237 10.7812 29.9971 10.7812ZM29.9971 30.1845C25.5705 30.1845 21.9816 26.5789 21.9816 22.1314C21.9816 17.6828 25.5705 14.0773 29.9971 14.0773C34.4249 14.0773 38.0137 17.6828 38.0137 22.1314C38.0137 26.5789 34.4249 30.1855 29.9971 30.1855V30.1845Z" fill="currentColor"></path></svg>