<svg width="489" height="394" viewBox="0 0 489 394" fill="none" xmlns="http://www.w3.org/2000/svg"><path d="M405.507 13.0508H78.4961L162.523 90.7147H323.121L405.507 13.0508Z" fill="#D0F500" stroke="black" stroke-linecap="round" stroke-linejoin="round"></path><path d="M164.935 84.5531L102.818 17.8633H381.689L320.635 84.5531H164.935Z" fill="white" stroke="black" stroke-linecap="round" stroke-linejoin="round"></path><path d="M74.041 1H105.366L111.108 9.17155H74.041V1Z" fill="white" stroke="black" stroke-linecap="round" stroke-linejoin="round"></path><path d="M102.837 3.56641H74.041V6.3379H102.837V3.56641Z" fill="#D0F500" stroke="black" stroke-linecap="round" stroke-linejoin="round"></path><path d="M373.045 9.5501H410.205V1.31641H379.775L373.045 9.5501Z" fill="white" stroke="black" stroke-linecap="round" stroke-linejoin="round"></path><path d="M410.211 3.48047H381.707V6.16496H410.211V3.48047Z" fill="#D0F500" stroke="black" stroke-linecap="round" stroke-linejoin="round"></path><path d="M405.508 9.55301H373.045L378.911 2.36328H356.037L351.445 8.59603H132.423L127.694 2.36328H106.323L111.108 9.17394H78.4965H74.041L78.4965 13.0515H405.508L410.206 9.55301H405.508Z" fill="white" stroke="black" stroke-linecap="round" stroke-linejoin="round"></path><path d="M354.861 3.96094H128.953L132.421 8.59666H351.443L354.861 3.96094Z" fill="white" stroke="black" stroke-linecap="round" stroke-linejoin="round"></path><path d="M125.214 4.5H123.486L128.259 10.4345H129.986L125.214 4.5Z" fill="black" stroke="black" stroke-linecap="round" stroke-linejoin="round"></path><path d="M121.292 4.5H119.564L124.343 10.4345H126.071L121.292 4.5Z" fill="black" stroke="black" stroke-linecap="round" stroke-linejoin="round"></path><path d="M117.372 4.5H115.645L120.423 10.4345H122.151L117.372 4.5Z" fill="black" stroke="black" stroke-linecap="round" stroke-linejoin="round"></path><path d="M113.458 4.5H111.73L116.503 10.4345H118.23L113.458 4.5Z" fill="black" stroke="black" stroke-linecap="round" stroke-linejoin="round"></path><path d="M358.853 4.5H360.58L355.808 10.4345H354.08L358.853 4.5Z" fill="black" stroke="black" stroke-linecap="round" stroke-linejoin="round"></path><path d="M362.772 4.5H364.5L359.728 10.4345H358L362.772 4.5Z" fill="black" stroke="black" stroke-linecap="round" stroke-linejoin="round"></path><path d="M366.695 4.5H368.422L363.644 10.4345H361.916L366.695 4.5Z" fill="black" stroke="black" stroke-linecap="round" stroke-linejoin="round"></path><path d="M370.61 4.5H372.338L367.565 10.4345H365.838L370.61 4.5Z" fill="black" stroke="black" stroke-linecap="round" stroke-linejoin="round"></path><path d="M164.952 84.4984V81.0434L107.354 17.8086H102.836L164.952 84.4984Z" fill="black" stroke="black" stroke-linecap="round" stroke-linejoin="round"></path><path d="M320.654 84.5019V80.7734L164.953 81.0469V84.5019H320.654Z" fill="black" stroke="black" stroke-linecap="round" stroke-linejoin="round"></path><path d="M377.408 17.8086L320.654 80.7699V84.4984L381.708 17.8086H377.408Z" fill="black" stroke="black" stroke-linecap="round" stroke-linejoin="round"></path><path d="M293.703 49.3616C293.703 51.2634 292.416 53.1755 289.845 54.9986C287.288 56.8125 283.555 58.4665 278.897 59.8638C269.588 62.6566 256.697 64.3912 242.437 64.3912C228.177 64.3912 215.287 62.6566 205.977 59.8638C201.319 58.4665 197.586 56.8125 195.029 54.9986C192.459 53.1755 191.172 51.2634 191.172 49.3616C191.172 47.4598 192.459 45.5477 195.029 43.7246C197.586 41.9108 201.319 40.2568 205.977 38.8595C215.287 36.0667 228.177 34.332 242.437 34.332C256.697 34.332 269.588 36.0667 278.897 38.8595C283.555 40.2568 287.288 41.9108 289.845 43.7246C292.416 45.5477 293.703 47.4598 293.703 49.3616Z" fill="#D0F500" stroke="black"></path><path d="M285.649 49.937C285.649 51.2519 284.628 52.6348 282.449 53.9901C280.298 55.3288 277.151 56.5527 273.218 57.5876C265.36 59.6555 254.476 60.9404 242.436 60.9404C230.395 60.9404 219.511 59.6555 211.653 57.5876C207.72 56.5527 204.574 55.3288 202.422 53.9901C200.244 52.6348 199.223 51.2519 199.223 49.937C199.223 48.6221 200.244 47.2392 202.422 45.8839C204.574 44.5452 207.72 43.3213 211.653 42.2864C219.511 40.2185 230.395 38.9336 242.436 38.9336C254.476 38.9336 265.36 40.2185 273.218 42.2864C277.151 43.3213 280.298 44.5452 282.449 45.8839C284.628 47.2392 285.649 48.6221 285.649 49.937Z" fill="white" stroke="black"></path><path d="M238.981 380.3L53.0586 361.951L59.6888 353.289V358.801L238.981 376.396V380.3Z" fill="white" stroke="black" stroke-linecap="round" stroke-linejoin="round"></path><path d="M248.186 380.3L434.108 361.951L427.478 353.289V358.801L248.186 376.396V380.3Z" fill="white" stroke="black" stroke-linecap="round" stroke-linejoin="round"></path><path d="M248.185 380.305C246.496 383.405 240.67 383.405 238.981 380.305L53.0586 361.957V367.469L235.633 384.128L235.743 384.238C237.831 386.301 240.648 387.458 243.583 387.458C246.518 387.458 249.335 386.301 251.423 384.238L251.533 384.128L434.107 367.469V361.964L248.185 380.305Z" fill="#D0F500" stroke="black" stroke-linecap="round" stroke-linejoin="round"></path><path d="M243.587 376.398H238.975V380.309C240.663 383.409 246.489 383.409 248.178 380.309V376.398H243.587Z" fill="black" stroke="black" stroke-linecap="round" stroke-linejoin="round"></path><path d="M59.6973 349.196V358.823L238.975 376.396H243.58V368.202C243.58 368.202 238.339 339.101 175.437 342.953C112.534 346.805 59.6973 349.196 59.6973 349.196Z" fill="white" stroke="black" stroke-linecap="round" stroke-linejoin="round"></path><path d="M173.799 330.988C173.799 330.988 230.569 325.805 243.588 368.203V253.041C179.932 264.306 113.821 250.402 113.821 250.402L57.7676 324.146L63.7106 325.549C77.3365 328.437 114.354 334.475 173.799 330.988Z" fill="white" stroke="black" stroke-linecap="round" stroke-linejoin="round"></path><path d="M209.734 335.434L210.517 335.704" stroke="black" stroke-linecap="round" stroke-linejoin="round"></path><path d="M208.227 334.949L209.009 335.205" stroke="black" stroke-linecap="round" stroke-linejoin="round"></path><path d="M206.752 334.504L207.534 334.738" stroke="black" stroke-linecap="round" stroke-linejoin="round"></path><path d="M211.195 335.949L211.985 336.242" stroke="black" stroke-linecap="round" stroke-linejoin="round"></path><path d="M205.283 334.086L206.058 334.298" stroke="black" stroke-linecap="round" stroke-linejoin="round"></path><path d="M203.812 333.699L204.58 333.897" stroke="black" stroke-linecap="round" stroke-linejoin="round"></path><path d="M212.658 336.504L213.44 336.811" stroke="black" stroke-linecap="round" stroke-linejoin="round"></path><path d="M217.043 338.391L217.818 338.763" stroke="black" stroke-linecap="round" stroke-linejoin="round"></path><path d="M188.783 331.191L189.434 331.257" stroke="black" stroke-linecap="round" stroke-linejoin="round"></path><path d="M214.119 337.098C214.382 337.2 214.645 337.317 214.901 337.427C214.667 337.317 214.404 337.2 214.119 337.098Z" fill="black" stroke="black" stroke-linecap="round" stroke-linejoin="round"></path><path d="M195.283 331.98L196.014 332.09" stroke="black" stroke-linecap="round" stroke-linejoin="round"></path><path d="M193.932 331.773L194.663 331.876" stroke="black" stroke-linecap="round" stroke-linejoin="round"></path><path d="M189.998 331.312L190.663 331.378" stroke="black" stroke-linecap="round" stroke-linejoin="round"></path><path d="M202.359 333.34L203.127 333.523" stroke="black" stroke-linecap="round" stroke-linejoin="round"></path><path d="M196.664 332.199L197.395 332.323" stroke="black" stroke-linecap="round" stroke-linejoin="round"></path><path d="M191.307 331.445L191.986 331.526" stroke="black" stroke-linecap="round" stroke-linejoin="round"></path><path d="M192.607 331.602L193.302 331.697" stroke="black" stroke-linecap="round" stroke-linejoin="round"></path><path d="M198.039 332.449L198.77 332.588" stroke="black" stroke-linecap="round" stroke-linejoin="round"></path><path d="M200.91 333.02L201.641 333.188" stroke="black" stroke-linecap="round" stroke-linejoin="round"></path><path d="M199.502 332.723L200.233 332.876" stroke="black" stroke-linecap="round" stroke-linejoin="round"></path><path d="M218.506 339.102L219.237 339.496" stroke="black" stroke-linecap="round" stroke-linejoin="round"></path><path d="M215.582 337.727C215.845 337.836 216.101 337.96 216.364 338.077C216.13 337.96 215.874 337.836 215.582 337.727Z" fill="black" stroke="black" stroke-linecap="round" stroke-linejoin="round"></path><path d="M239.42 358.492C239.61 358.821 239.785 359.165 239.968 359.501" stroke="black" stroke-linecap="round" stroke-linejoin="round"></path><path d="M238.484 356.914C238.682 357.228 238.864 357.543 239.047 357.864C238.864 357.543 238.682 357.236 238.484 356.914Z" fill="black" stroke="black" stroke-linecap="round" stroke-linejoin="round"></path><path d="M236.482 353.941L237.075 354.789" stroke="black" stroke-linecap="round" stroke-linejoin="round"></path><path d="M219.967 339.852L220.698 340.268" stroke="black" stroke-linecap="round" stroke-linejoin="round"></path><path d="M237.512 355.402C237.709 355.695 237.899 355.994 238.089 356.294C237.892 355.994 237.702 355.695 237.512 355.402Z" fill="black" stroke="black" stroke-linecap="round" stroke-linejoin="round"></path><path d="M240.305 360.16C240.487 360.518 240.663 360.891 240.838 361.257C240.663 360.891 240.487 360.489 240.305 360.16Z" fill="black" stroke="black" stroke-linecap="round" stroke-linejoin="round"></path><path d="M232.615 349.367L231.957 348.688" stroke="black" stroke-linecap="round" stroke-linejoin="round"></path><path d="M242.629 365.454V365.41" stroke="black" stroke-linecap="round" stroke-linejoin="round"></path><path d="M241.896 363.594C242.079 364.032 242.247 364.486 242.423 364.931C242.262 364.486 242.094 364.032 241.896 363.594Z" fill="black" stroke="black" stroke-linecap="round" stroke-linejoin="round"></path><path d="M241.168 361.828C241.351 362.223 241.526 362.625 241.694 363.02C241.49 362.625 241.314 362.223 241.168 361.828Z" fill="black" stroke="black" stroke-linecap="round" stroke-linejoin="round"></path><path d="M235.408 352.543C235.62 352.806 235.818 353.077 236.022 353.34" stroke="black" stroke-linecap="round" stroke-linejoin="round"></path><path d="M225.539 343.293L226.27 343.819" stroke="black" stroke-linecap="round" stroke-linejoin="round"></path><path d="M224.172 342.371L224.903 342.868" stroke="black" stroke-linecap="round" stroke-linejoin="round"></path><path d="M226.877 344.273C227.118 344.456 227.359 344.639 227.608 344.829" stroke="black" stroke-linecap="round" stroke-linejoin="round"></path><path d="M221.387 340.648L222.118 341.094" stroke="black" stroke-linecap="round" stroke-linejoin="round"></path><path d="M222.791 341.484L223.522 341.959" stroke="black" stroke-linecap="round" stroke-linejoin="round"></path><path d="M234.297 351.203C234.509 351.452 234.721 351.708 234.926 351.934" stroke="black" stroke-linecap="round" stroke-linejoin="round"></path><path d="M233.127 349.926L233.77 350.657" stroke="black" stroke-linecap="round" stroke-linejoin="round"></path><path d="M230.736 347.508C230.963 347.712 231.182 347.932 231.409 348.151C231.182 347.932 230.934 347.734 230.736 347.508Z" fill="black" stroke="black" stroke-linecap="round" stroke-linejoin="round"></path><path d="M228.191 345.301L228.922 345.886" stroke="black" stroke-linecap="round" stroke-linejoin="round"></path><path d="M229.471 346.375L230.158 346.996" stroke="black" stroke-linecap="round" stroke-linejoin="round"></path><path d="M123.336 331.811L121.026 331.738H120.785L123.336 331.811Z" fill="black" stroke="black" stroke-linecap="round" stroke-linejoin="round"></path><path d="M155.786 331.785L153.52 331.851H152.584L155.786 331.785Z" fill="black" stroke="black" stroke-linecap="round" stroke-linejoin="round"></path><path d="M115.266 331.509L113.366 331.414H112.891L115.266 331.509Z" fill="black" stroke="black" stroke-linecap="round" stroke-linejoin="round"></path><path d="M119.23 331.651L117.205 331.57H116.584L119.23 331.651Z" fill="black" stroke="black" stroke-linecap="round" stroke-linejoin="round"></path><path d="M131.92 331.994L129.428 331.957" stroke="black" stroke-linecap="round" stroke-linejoin="round"></path><path d="M136.408 332.029H134.368H133.506C134.442 332.022 135.436 332.022 136.408 332.029Z" fill="black" stroke="black" stroke-linecap="round" stroke-linejoin="round"></path><path d="M145.778 331.996H143.227H142.438H145.778Z" fill="black" stroke="black" stroke-linecap="round" stroke-linejoin="round"></path><path d="M147.863 331.969L150.707 331.91" stroke="black" stroke-linecap="round" stroke-linejoin="round"></path><path d="M104.14 330.845L102.188 330.699H102.107L104.14 330.845Z" fill="black" stroke="black" stroke-linecap="round" stroke-linejoin="round"></path><path d="M125.143 331.859L127.555 331.911" stroke="black" stroke-linecap="round" stroke-linejoin="round"></path><path d="M92.4961 329.848L94.1774 330.008" stroke="black" stroke-linecap="round" stroke-linejoin="round"></path><path d="M88.7903 329.46L87.957 329.372L86.7727 329.233L85.3473 329.065L84.3531 328.941L83.4102 328.816C85.1134 329.021 86.9263 329.24 88.7903 329.46Z" fill="black" stroke="black" stroke-linecap="round" stroke-linejoin="round"></path><path d="M82.7379 328.731L82.2774 328.665C80.4353 328.424 78.6955 328.176 77.058 327.934L76.7656 327.891C78.6224 328.161 80.6107 328.446 82.7379 328.731Z" fill="black" stroke="black" stroke-linecap="round" stroke-linejoin="round"></path><path d="M76.4571 327.84L75.1047 327.628L74.7758 327.577L73.2188 327.328L76.4571 327.84Z" fill="black" stroke="black" stroke-linecap="round" stroke-linejoin="round"></path><path d="M109.303 331.191L111.437 331.308" stroke="black" stroke-linecap="round" stroke-linejoin="round"></path><path d="M195.912 337.977C181.219 336.836 153.192 339.658 124.091 340.835C104.303 341.632 80.2822 339.139 66.9415 337.465L59.6973 349.161C59.6973 349.161 112.541 346.807 175.444 342.955C223.244 340.031 237.74 356.113 241.965 364.029C230.488 339.387 195.912 337.977 195.912 337.977Z" fill="black" stroke="black" stroke-linecap="round" stroke-linejoin="round"></path><path d="M100.7 330.585L99.033 330.454L98.4629 330.402L100.7 330.585Z" fill="black" stroke="black" stroke-linecap="round" stroke-linejoin="round"></path><path d="M105.676 330.957L107.723 331.089" stroke="black" stroke-linecap="round" stroke-linejoin="round"></path><path d="M97.3708 330.308L95.9088 330.177L95.4629 330.133L97.3708 330.308Z" fill="black" stroke="black" stroke-linecap="round" stroke-linejoin="round"></path><path d="M187.57 331.098L188.206 331.149" stroke="black" stroke-linecap="round" stroke-linejoin="round"></path><path d="M91.3475 329.721L90.7627 329.663L89.5273 329.531L91.3475 329.721Z" fill="black" stroke="black" stroke-linecap="round" stroke-linejoin="round"></path><path d="M181.145 330.797H181.649" stroke="black" stroke-linecap="round" stroke-linejoin="round"></path><path d="M182.104 330.816H182.63" stroke="black" stroke-linecap="round" stroke-linejoin="round"></path><path d="M173.798 330.984C172.088 331.087 170.392 331.174 168.681 331.262L167.168 331.335C169.376 331.233 171.569 331.116 173.798 330.984Z" fill="black" stroke="black" stroke-linecap="round" stroke-linejoin="round"></path><path d="M185.254 330.918L185.861 330.955" stroke="black" stroke-linecap="round" stroke-linejoin="round"></path><path d="M186.393 331.008L187.014 331.052" stroke="black" stroke-linecap="round" stroke-linejoin="round"></path><path d="M183.125 330.844H183.659" stroke="black" stroke-linecap="round" stroke-linejoin="round"></path><path d="M184.148 330.918H184.726" stroke="black" stroke-linecap="round" stroke-linejoin="round"></path><path d="M174.566 330.918H174.764" stroke="black" stroke-linecap="round" stroke-linejoin="round"></path><path d="M173.916 330.98H174.165" stroke="black" stroke-linecap="round" stroke-linejoin="round"></path><path d="M161.064 331.602L158.718 331.689L157.256 331.74L161.064 331.602Z" fill="black" stroke="black" stroke-linecap="round" stroke-linejoin="round"></path><path d="M166.642 331.359L163.718 331.498L162.088 331.564C163.579 331.506 165.143 331.432 166.642 331.359Z" fill="black" stroke="black" stroke-linecap="round" stroke-linejoin="round"></path><path d="M174.924 330.918H175.172" stroke="black" stroke-linecap="round" stroke-linejoin="round"></path><path d="M175.896 330.863H176.196" stroke="black" stroke-linecap="round" stroke-linejoin="round"></path><path d="M173.798 330.988C115.823 334.387 79.1922 328.729 64.7695 325.805L56.7285 336.097C56.7285 336.097 94.9745 342.04 124.068 340.863C153.162 339.686 181.196 336.865 195.889 338.005C195.889 338.005 233.477 339.533 243.265 367.34C229.742 325.863 173.798 330.988 173.798 330.988Z" fill="#EBE9E9" stroke="black" stroke-linejoin="round"></path><path d="M427.478 349.196V358.823L248.186 376.396H243.588V368.202C243.588 368.202 248.829 339.101 311.732 342.953C374.634 346.805 427.478 349.196 427.478 349.196Z" fill="white" stroke="black" stroke-linecap="round" stroke-linejoin="round"></path><path d="M313.369 330.988C313.369 330.988 256.6 325.805 243.588 368.203V253.041C307.236 264.306 373.348 250.402 373.348 250.402L429.401 324.146L423.465 325.549C409.832 328.437 372.814 334.475 313.369 330.988Z" fill="white" stroke="black" stroke-linecap="round" stroke-linejoin="round"></path><path d="M277.461 335.434L276.672 335.704" stroke="black" stroke-linecap="round" stroke-linejoin="round"></path><path d="M278.944 334.949L278.154 335.205" stroke="black" stroke-linecap="round" stroke-linejoin="round"></path><path d="M280.415 334.504L279.633 334.738" stroke="black" stroke-linecap="round" stroke-linejoin="round"></path><path d="M275.979 335.949L275.197 336.242" stroke="black" stroke-linecap="round" stroke-linejoin="round"></path><path d="M281.892 334.086L281.117 334.298" stroke="black" stroke-linecap="round" stroke-linejoin="round"></path><path d="M283.354 333.699L282.586 333.897" stroke="black" stroke-linecap="round" stroke-linejoin="round"></path><path d="M274.503 336.504L273.721 336.811" stroke="black" stroke-linecap="round" stroke-linejoin="round"></path><path d="M270.092 338.391L269.324 338.763" stroke="black" stroke-linecap="round" stroke-linejoin="round"></path><path d="M298.391 331.191L297.74 331.257" stroke="black" stroke-linecap="round" stroke-linejoin="round"></path><path d="M273.024 337.098C272.761 337.2 272.505 337.317 272.242 337.427" stroke="black" stroke-linecap="round" stroke-linejoin="round"></path><path d="M291.885 331.98L291.154 332.09" stroke="black" stroke-linecap="round" stroke-linejoin="round"></path><path d="M293.237 331.773L292.506 331.876" stroke="black" stroke-linecap="round" stroke-linejoin="round"></path><path d="M297.14 331.312L296.475 331.378" stroke="black" stroke-linecap="round" stroke-linejoin="round"></path><path d="M284.814 333.34L284.047 333.523" stroke="black" stroke-linecap="round" stroke-linejoin="round"></path><path d="M290.502 332.199L289.771 332.323" stroke="black" stroke-linecap="round" stroke-linejoin="round"></path><path d="M295.867 331.445L295.188 331.526" stroke="black" stroke-linecap="round" stroke-linejoin="round"></path><path d="M294.567 331.602L293.836 331.697" stroke="black" stroke-linecap="round" stroke-linejoin="round"></path><path d="M289.106 332.449L288.375 332.588" stroke="black" stroke-linecap="round" stroke-linejoin="round"></path><path d="M286.254 333.02L285.523 333.188" stroke="black" stroke-linecap="round" stroke-linejoin="round"></path><path d="M287.688 332.723L286.957 332.876" stroke="black" stroke-linecap="round" stroke-linejoin="round"></path><path d="M268.646 339.102L267.879 339.496" stroke="black" stroke-linecap="round" stroke-linejoin="round"></path><path d="M271.554 337.727L270.779 338.077" stroke="black" stroke-linecap="round" stroke-linejoin="round"></path><path d="M247.747 358.492C247.565 358.821 247.382 359.165 247.199 359.501" stroke="black" stroke-linecap="round" stroke-linejoin="round"></path><path d="M248.68 356.914L248.117 357.864" stroke="black" stroke-linecap="round" stroke-linejoin="round"></path><path d="M250.67 353.941C250.465 354.219 250.268 354.504 250.07 354.789C250.29 354.504 250.487 354.219 250.67 353.941Z" fill="black" stroke="black" stroke-linecap="round" stroke-linejoin="round"></path><path d="M267.208 339.852L266.477 340.268" stroke="black" stroke-linecap="round" stroke-linejoin="round"></path><path d="M249.661 355.402C249.464 355.695 249.274 355.994 249.084 356.294" stroke="black" stroke-linecap="round" stroke-linejoin="round"></path><path d="M246.869 360.16C246.679 360.518 246.504 360.891 246.328 361.257C246.504 360.891 246.679 360.489 246.869 360.16Z" fill="black" stroke="black" stroke-linecap="round" stroke-linejoin="round"></path><path d="M254.553 349.367L255.211 348.688" stroke="black" stroke-linecap="round" stroke-linejoin="round"></path><path d="M244.529 365.454C244.532 365.44 244.532 365.425 244.529 365.41V365.454Z" fill="black" stroke="black" stroke-linecap="round" stroke-linejoin="round"></path><path d="M245.26 363.594C245.077 364.032 244.902 364.486 244.727 364.931" stroke="black" stroke-linecap="round" stroke-linejoin="round"></path><path d="M246.034 361.828C245.851 362.223 245.683 362.625 245.508 363.02" stroke="black" stroke-linecap="round" stroke-linejoin="round"></path><path d="M251.76 352.543L251.146 353.34" stroke="black" stroke-linecap="round" stroke-linejoin="round"></path><path d="M261.635 343.293L260.904 343.819" stroke="black" stroke-linecap="round" stroke-linejoin="round"></path><path d="M262.997 342.371L262.266 342.868" stroke="black" stroke-linecap="round" stroke-linejoin="round"></path><path d="M260.292 344.273L259.561 344.829" stroke="black" stroke-linecap="round" stroke-linejoin="round"></path><path d="M265.788 340.648L265.057 341.094" stroke="black" stroke-linecap="round" stroke-linejoin="round"></path><path d="M264.383 341.484L263.652 341.959" stroke="black" stroke-linecap="round" stroke-linejoin="round"></path><path d="M252.863 351.203C252.651 351.452 252.446 351.708 252.234 351.934C252.454 351.708 252.658 351.452 252.863 351.203Z" fill="black" stroke="black" stroke-linecap="round" stroke-linejoin="round"></path><path d="M254.026 349.926L253.383 350.657" stroke="black" stroke-linecap="round" stroke-linejoin="round"></path><path d="M256.438 347.508C256.211 347.712 255.984 347.932 255.758 348.151C255.984 347.932 256.211 347.734 256.438 347.508Z" fill="black" stroke="black" stroke-linecap="round" stroke-linejoin="round"></path><path d="M258.977 345.301L258.246 345.886" stroke="black" stroke-linecap="round" stroke-linejoin="round"></path><path d="M257.696 346.375C257.462 346.58 257.228 346.784 256.965 346.996C257.25 346.784 257.462 346.58 257.696 346.375Z" fill="black" stroke="black" stroke-linecap="round" stroke-linejoin="round"></path><path d="M363.83 331.811L366.14 331.738H366.381L363.83 331.811Z" fill="black" stroke="black" stroke-linecap="round" stroke-linejoin="round"></path><path d="M331.389 331.785L333.647 331.851H334.59L331.389 331.785Z" fill="black" stroke="black" stroke-linecap="round" stroke-linejoin="round"></path><path d="M371.898 331.509L373.806 331.414H374.274L371.898 331.509Z" fill="black" stroke="black" stroke-linecap="round" stroke-linejoin="round"></path><path d="M367.945 331.651L369.963 331.57H370.592L367.945 331.651Z" fill="black" stroke="black" stroke-linecap="round" stroke-linejoin="round"></path><path d="M355.246 331.994L357.739 331.957" stroke="black" stroke-linecap="round" stroke-linejoin="round"></path><path d="M350.76 332.029H352.807H353.669C352.712 332.022 351.739 332.022 350.76 332.029Z" fill="black" stroke="black" stroke-linecap="round" stroke-linejoin="round"></path><path d="M341.387 331.996H343.938H344.735H341.387Z" fill="black" stroke="black" stroke-linecap="round" stroke-linejoin="round"></path><path d="M339.305 331.969L336.461 331.91" stroke="black" stroke-linecap="round" stroke-linejoin="round"></path><path d="M383.033 330.845L384.978 330.699H385.058L383.033 330.845Z" fill="black" stroke="black" stroke-linecap="round" stroke-linejoin="round"></path><path d="M362.024 331.859L359.611 331.911" stroke="black" stroke-linecap="round" stroke-linejoin="round"></path><path d="M394.677 329.848L392.988 330.008" stroke="black" stroke-linecap="round" stroke-linejoin="round"></path><path d="M398.383 329.46L399.209 329.372L400.393 329.233L401.855 329.065L402.857 328.941L403.8 328.816C402.052 329.021 400.261 329.24 398.383 329.46Z" fill="black" stroke="black" stroke-linecap="round" stroke-linejoin="round"></path><path d="M404.428 328.731L404.888 328.665C406.73 328.424 408.47 328.176 410.108 327.934L410.4 327.891C408.565 328.161 406.555 328.446 404.428 328.731Z" fill="black" stroke="black" stroke-linecap="round" stroke-linejoin="round"></path><path d="M410.709 327.84L412.061 327.628L412.39 327.577L413.955 327.328L410.709 327.84Z" fill="black" stroke="black" stroke-linecap="round" stroke-linejoin="round"></path><path d="M377.866 331.191L375.738 331.308" stroke="black" stroke-linecap="round" stroke-linejoin="round"></path><path d="M291.264 337.977C305.95 336.836 333.984 339.658 363.077 340.835C382.873 341.632 406.894 339.139 420.234 337.465L427.479 349.161C427.479 349.161 374.635 346.807 311.732 342.955C263.932 340.031 249.429 356.113 245.211 364.029C256.68 339.387 291.264 337.977 291.264 337.977Z" fill="black" stroke="black" stroke-linecap="round" stroke-linejoin="round"></path><path d="M386.477 330.585L388.143 330.454L388.706 330.402L386.477 330.585Z" fill="black" stroke="black" stroke-linecap="round" stroke-linejoin="round"></path><path d="M381.519 330.957L379.473 331.089" stroke="black" stroke-linecap="round" stroke-linejoin="round"></path><path d="M389.801 330.308L391.263 330.177L391.716 330.133L389.801 330.308Z" fill="black" stroke="black" stroke-linecap="round" stroke-linejoin="round"></path><path d="M299.597 331.098L298.961 331.149" stroke="black" stroke-linecap="round" stroke-linejoin="round"></path><path d="M395.824 329.721L396.402 329.663L397.637 329.531L395.824 329.721Z" fill="black" stroke="black" stroke-linecap="round" stroke-linejoin="round"></path><path d="M306.03 330.797H305.525" stroke="black" stroke-linecap="round" stroke-linejoin="round"></path><path d="M305.063 330.816H304.537" stroke="black" stroke-linecap="round" stroke-linejoin="round"></path><path d="M313.369 330.984C315.087 331.087 316.776 331.174 318.486 331.262L319.999 331.335C317.792 331.233 315.599 331.116 313.369 330.984Z" fill="black" stroke="black" stroke-linecap="round" stroke-linejoin="round"></path><path d="M301.913 330.918L301.307 330.955" stroke="black" stroke-linecap="round" stroke-linejoin="round"></path><path d="M300.774 331.008L300.16 331.052" stroke="black" stroke-linecap="round" stroke-linejoin="round"></path><path d="M304.033 330.844H303.492" stroke="black" stroke-linecap="round" stroke-linejoin="round"></path><path d="M303.003 330.918H302.426" stroke="black" stroke-linecap="round" stroke-linejoin="round"></path><path d="M312.602 330.918H312.404" stroke="black" stroke-linecap="round" stroke-linejoin="round"></path><path d="M313.273 330.98H313.018" stroke="black" stroke-linecap="round" stroke-linejoin="round"></path><path d="M326.111 331.602L328.458 331.689L329.92 331.74L326.111 331.602Z" fill="black" stroke="black" stroke-linecap="round" stroke-linejoin="round"></path><path d="M320.525 331.359L323.449 331.498L325.08 331.564C323.588 331.506 322.068 331.432 320.525 331.359Z" fill="black" stroke="black" stroke-linecap="round" stroke-linejoin="round"></path><path d="M312.243 330.918H311.994" stroke="black" stroke-linecap="round" stroke-linejoin="round"></path><path d="M311.27 330.863H310.971" stroke="black" stroke-linecap="round" stroke-linejoin="round"></path><path d="M313.369 330.989C371.345 334.389 407.975 328.731 422.398 325.777L430.439 336.07C430.439 336.07 392.2 342.013 363.099 340.836C333.998 339.659 305.972 336.837 291.286 337.978C291.286 337.978 253.69 339.506 243.902 367.313C257.426 325.865 313.369 330.989 313.369 330.989Z" fill="#EBE9E9" stroke="black" stroke-linejoin="round"></path><path d="M162.306 300.527C170.513 291.858 166.955 275.164 154.36 263.241C141.765 251.317 124.901 248.68 116.694 257.349C108.487 266.019 112.045 282.713 124.64 294.636C137.235 306.559 154.099 309.197 162.306 300.527Z" fill="#D0F500" stroke="black" stroke-linecap="round" stroke-linejoin="round"></path><path d="M158.861 297.267C165.831 289.905 162.812 275.731 152.12 265.609C141.427 255.487 127.109 253.249 120.14 260.611C113.171 267.973 116.19 282.147 126.882 292.269C137.575 302.391 151.892 304.629 158.861 297.267Z" fill="white" stroke="black" stroke-linecap="round" stroke-linejoin="round"></path><path d="M364.179 368.662C387.778 354.667 399.229 330.372 389.756 314.397C380.282 298.423 353.472 296.818 329.873 310.812C306.273 324.807 294.822 349.102 304.296 365.077C313.769 381.052 340.579 382.657 364.179 368.662Z" fill="#D0F500" stroke="black" stroke-width="0.99985" stroke-linecap="round" stroke-linejoin="round"></path><path d="M361.186 363.615C382.129 351.195 392.711 330.341 384.821 317.036C376.931 303.732 353.557 303.014 332.614 315.434C311.671 327.854 301.089 348.707 308.979 362.012C316.869 375.317 340.243 376.034 361.186 363.615Z" fill="white" stroke="black" stroke-width="0.99985" stroke-linecap="round" stroke-linejoin="round"></path><path d="M329.208 126.364L336.686 131.233C336.921 131.376 337.115 131.577 337.249 131.816C337.383 132.055 337.454 132.325 337.454 132.6C337.454 132.874 337.383 133.144 337.249 133.384C337.115 133.623 336.921 133.824 336.686 133.967L304.639 152.9C304.391 153.05 304.107 153.13 303.817 153.13C303.527 153.13 303.243 153.05 302.995 152.9L296.693 149.047L327.958 126.642C328.455 126.262 328.66 126.021 329.208 126.364Z" fill="#D0F500" stroke="black" stroke-linecap="round" stroke-linejoin="round"></path><path d="M329.831 231.446L337.273 236.022L337.324 159.727L329.02 154.734L329.831 231.446Z" fill="black" stroke="black" stroke-linecap="round" stroke-linejoin="round"></path><path d="M239.551 282.33L248.147 287.506L337.271 236.021L329.829 231.445L239.551 282.33Z" fill="#D0F500" stroke="black" stroke-linecap="round" stroke-linejoin="round"></path><path d="M195.079 215.464L187.916 211.129L153.332 229.404L161.987 234.638L195.079 215.464Z" fill="#D0F500" stroke="black" stroke-linecap="round" stroke-linejoin="round"></path><path d="M240.809 243.111C240.261 243.102 239.727 242.932 239.274 242.621L187.914 211.13L156.371 229.405C155.92 229.701 155.391 229.859 154.851 229.858H154.8C154.371 229.826 153.954 229.703 153.576 229.497C153.198 229.292 152.868 229.009 152.607 228.667C152.233 228.183 152.033 227.589 152.037 226.978L152 125.208C152.004 124.676 152.155 124.156 152.438 123.705C152.721 123.255 153.124 122.892 153.601 122.657L239.493 73.446C239.94 73.1513 240.464 72.9961 240.999 73.0001H241.058C241.607 73.0031 242.143 73.174 242.593 73.4898L328.478 125.895C328.858 126.088 329.185 126.372 329.428 126.721C329.655 127.02 329.816 127.364 329.9 127.729C329.984 128.094 329.991 128.473 329.918 128.841C329.888 129.026 329.839 129.207 329.772 129.382C329.617 129.872 329.316 130.303 328.909 130.618L328.8 130.727L296.702 149.002V175.318C296.731 175.475 296.746 175.634 296.745 175.793V209.953C296.75 210.452 296.616 210.943 296.358 211.371C296.192 211.654 295.974 211.902 295.715 212.102L295.598 212.212L242.403 242.6C241.959 242.893 241.437 243.048 240.904 243.045L240.809 243.111ZM240.809 216.649L273.85 197.811V158.922L240.955 138.995L208.36 157.591V196.517L240.809 216.649ZM174.858 192.014L185.348 186.005V145.501C185.34 145.127 185.409 144.757 185.55 144.411C185.69 144.065 185.9 143.752 186.167 143.49L186.532 143.132L239.406 112.81C239.86 112.522 240.388 112.37 240.926 112.372H240.999C241.56 112.374 242.108 112.544 242.571 112.862L277.133 133.966L287.52 127.942L240.868 99.4331L174.858 137.335V192.014Z" fill="#D0F500" stroke="black" stroke-linecap="round" stroke-linejoin="round"></path><path d="M187.951 208.162C187.975 208.159 187.999 208.161 188.022 208.169C188.045 208.176 188.065 208.189 188.083 208.206L240.298 240.26C240.314 240.277 240.333 240.289 240.355 240.297C240.377 240.304 240.4 240.307 240.422 240.304C240.446 240.307 240.47 240.305 240.493 240.297C240.516 240.289 240.537 240.277 240.554 240.26L294.012 210.201C294.056 210.158 294.1 210.158 294.1 210.114C294.117 210.098 294.13 210.079 294.137 210.057C294.145 210.035 294.147 210.012 294.144 209.989V175.822C294.144 175.786 294.1 175.742 294.1 175.698V147.54L327.214 128.666C327.258 128.622 327.294 128.622 327.294 128.578C327.294 128.534 327.338 128.497 327.338 128.454C327.338 128.41 327.382 128.329 327.338 128.285C327.294 128.242 327.294 128.198 327.258 128.198L241.109 75.6315C241.092 75.6148 241.071 75.6022 241.049 75.5946C241.026 75.587 241.002 75.5846 240.978 75.5876C240.955 75.5841 240.932 75.5862 240.91 75.5939C240.889 75.6015 240.869 75.6144 240.854 75.6315L154.669 125.003C154.646 125.005 154.625 125.015 154.609 125.031C154.592 125.047 154.583 125.068 154.581 125.091C154.581 125.135 154.537 125.179 154.537 125.215L154.581 226.985C154.578 227.009 154.58 227.033 154.588 227.056C154.596 227.079 154.608 227.099 154.625 227.117C154.669 227.161 154.669 227.204 154.705 227.204C154.742 227.204 154.793 227.285 154.837 227.292C154.86 227.295 154.883 227.293 154.904 227.285C154.926 227.277 154.945 227.265 154.961 227.248L187.856 208.198C187.884 208.177 187.917 208.165 187.951 208.162ZM276.402 195.296V199.171C276.406 199.193 276.404 199.217 276.396 199.238C276.388 199.26 276.375 199.279 276.358 199.295C276.314 199.339 276.314 199.383 276.271 199.383L240.854 219.573C240.834 219.584 240.811 219.59 240.788 219.59C240.765 219.59 240.742 219.584 240.722 219.573C240.699 219.576 240.676 219.574 240.654 219.567C240.633 219.559 240.613 219.546 240.598 219.529L205.853 198.023C205.809 198.023 205.809 197.979 205.773 197.942C205.756 197.925 205.744 197.904 205.736 197.882C205.729 197.859 205.726 197.835 205.729 197.811V156.232C205.726 156.209 205.729 156.186 205.736 156.164C205.744 156.143 205.756 156.123 205.773 156.107C205.809 156.063 205.809 156.02 205.853 156.02L240.81 136.078C240.826 136.061 240.845 136.049 240.867 136.041C240.888 136.034 240.911 136.031 240.934 136.034C240.981 136.035 241.027 136.05 241.066 136.078L276.402 157.467V195.296ZM172.783 196.195C172.739 196.239 172.695 196.239 172.615 196.195C172.553 196.202 172.491 196.186 172.439 196.152L172.315 196.02C172.271 195.976 172.271 195.94 172.271 195.852V136.034C172.264 135.975 172.28 135.915 172.315 135.866L172.439 135.742L240.722 96.5015C240.766 96.4577 240.81 96.4577 240.89 96.4577C240.971 96.4577 241.022 96.4577 241.066 96.5088L292.038 127.686L292.17 127.81C292.214 127.854 292.214 127.898 292.214 127.986C292.214 128.073 292.214 128.11 292.17 128.154L292.038 128.278L277.257 136.853C277.214 136.897 277.17 136.897 277.082 136.897C277.023 136.902 276.963 136.887 276.914 136.853L241.095 114.989C241.051 114.945 241.007 114.945 240.919 114.945C240.832 114.945 240.795 114.945 240.751 114.981L188.083 145.23L187.951 145.354C187.907 145.398 187.907 145.442 187.907 145.53V187.358C187.907 187.401 187.907 187.489 187.863 187.526L187.739 187.65L172.783 196.195Z" fill="white" stroke="black" stroke-linecap="round" stroke-linejoin="round"></path><path d="M240.896 282.657C240.344 282.651 239.807 282.481 239.353 282.167L176.933 243.914L176.714 243.687C176.476 243.452 176.281 243.177 176.136 242.876C175.94 242.486 175.84 242.055 175.844 241.618C175.836 240.991 176.048 240.381 176.443 239.893C176.699 239.545 177.039 239.266 177.43 239.082L194.426 229.469C194.86 229.184 195.368 229.032 195.888 229.031H195.946C196.497 229.034 197.035 229.202 197.489 229.513L240.947 256.048L307.205 218.139V166.713C307.197 166.085 307.409 165.475 307.804 164.988C308.058 164.637 308.398 164.358 308.791 164.176L325.743 154.564C326.179 154.282 326.686 154.13 327.205 154.125H327.263C327.877 154.132 328.471 154.343 328.952 154.724C329.259 154.964 329.509 155.268 329.683 155.616C329.911 156.028 330.029 156.491 330.027 156.961V230.441C330.03 231.07 329.819 231.682 329.427 232.174C329.172 232.519 328.835 232.795 328.448 232.978L242.453 282.196C242.005 282.489 241.482 282.644 240.947 282.642L240.896 282.657Z" fill="#D0F500" stroke="black" stroke-linecap="round" stroke-linejoin="round"></path><path d="M327.499 156.828C327.499 156.784 327.499 156.784 327.419 156.74C327.401 156.724 327.381 156.711 327.358 156.704C327.335 156.696 327.311 156.694 327.287 156.697C327.242 156.692 327.198 156.706 327.163 156.733L309.94 166.499C309.94 166.499 309.94 166.543 309.86 166.587C309.843 166.602 309.83 166.622 309.822 166.644C309.815 166.665 309.813 166.689 309.816 166.711V219.402C309.772 219.446 309.772 219.49 309.728 219.614C309.684 219.738 309.684 219.658 309.648 219.701L241.065 258.934C241.049 258.95 241.03 258.963 241.008 258.97C240.987 258.978 240.964 258.981 240.941 258.978C240.894 258.977 240.848 258.962 240.81 258.934L196.058 231.617C196.042 231.601 196.022 231.588 196.001 231.581C195.979 231.573 195.956 231.571 195.934 231.573C195.891 231.557 195.844 231.557 195.802 231.573L178.543 241.339C178.499 241.339 178.499 241.383 178.455 241.42C178.439 241.437 178.426 241.458 178.418 241.48C178.411 241.503 178.408 241.527 178.411 241.551C178.409 241.574 178.412 241.597 178.419 241.618C178.427 241.64 178.439 241.659 178.455 241.675C178.455 241.719 178.499 241.763 178.543 241.807L240.795 279.98C240.812 279.996 240.833 280.009 240.856 280.017C240.879 280.024 240.903 280.027 240.927 280.024C240.949 280.026 240.971 280.024 240.992 280.018C241.014 280.012 241.034 280.001 241.051 279.987L327.411 230.608C327.411 230.608 327.411 230.571 327.492 230.528C327.508 230.511 327.52 230.492 327.528 230.47C327.535 230.449 327.538 230.426 327.536 230.403V156.923C327.532 156.889 327.519 156.856 327.499 156.828Z" fill="white" stroke="black" stroke-linecap="round" stroke-linejoin="round"></path><path d="M285.604 254.558L327.417 230.654C327.417 230.654 327.417 230.61 327.497 230.566C327.514 230.551 327.527 230.531 327.535 230.51C327.542 230.488 327.545 230.465 327.541 230.442V170.5L318.33 176.107V224.038L285.604 242.964V254.558Z" stroke="black" stroke-linecap="round" stroke-linejoin="round"></path><path d="M285.517 244.784C285.891 244.785 286.256 244.676 286.567 244.469C286.878 244.263 287.121 243.969 287.265 243.624C287.409 243.28 287.447 242.901 287.375 242.534C287.303 242.168 287.124 241.831 286.861 241.567C286.597 241.302 286.261 241.122 285.895 241.048C285.529 240.975 285.15 241.012 284.805 241.155C284.46 241.297 284.165 241.539 283.957 241.849C283.749 242.159 283.639 242.524 283.639 242.898C283.639 243.397 283.836 243.875 284.188 244.229C284.541 244.582 285.018 244.782 285.517 244.784Z" fill="#D0F500" stroke="black" stroke-linecap="round" stroke-linejoin="round"></path><path d="M254.684 83.9219V95.0477L292.177 117.855L302.798 113.279L254.684 83.9219Z" fill="white" stroke="black" stroke-linecap="round" stroke-linejoin="round"></path><path d="M165.91 196.571L160.793 192.185V121.512L154.704 124.999C154.681 125 154.66 125.01 154.644 125.026C154.628 125.042 154.618 125.064 154.616 125.086C154.616 125.13 154.572 125.174 154.572 125.211L154.616 226.98C154.613 227.004 154.616 227.028 154.623 227.051C154.631 227.074 154.643 227.095 154.66 227.112C154.704 227.156 154.704 227.2 154.74 227.2C154.777 227.2 154.828 227.28 154.872 227.288C154.895 227.29 154.918 227.288 154.939 227.28C154.961 227.273 154.98 227.26 154.996 227.244L165.961 220.899L165.91 196.571Z" stroke="black" stroke-linecap="round" stroke-linejoin="round"></path><path d="M160.755 193.611C161.062 193.613 161.362 193.523 161.618 193.354C161.874 193.184 162.074 192.943 162.192 192.66C162.311 192.377 162.342 192.065 162.283 191.764C162.224 191.463 162.077 191.186 161.861 190.968C161.645 190.751 161.368 190.602 161.068 190.542C160.767 190.482 160.455 190.512 160.171 190.629C159.888 190.746 159.645 190.945 159.475 191.2C159.304 191.455 159.213 191.755 159.213 192.061C159.213 192.471 159.375 192.864 159.664 193.155C159.953 193.445 160.346 193.609 160.755 193.611Z" fill="#D0F500" stroke="black" stroke-linecap="round" stroke-linejoin="round"></path><path d="M164.207 202.584L156.539 196.685V194.207L164.207 200.106V202.584Z" fill="#D0F500" stroke="black" stroke-linecap="round" stroke-linejoin="round"></path><path d="M164.207 208.094L156.539 202.246V199.797L164.207 205.696V208.094Z" fill="#D0F500" stroke="black" stroke-linecap="round" stroke-linejoin="round"></path><path d="M164.207 213.661L156.539 207.769V205.32L164.207 211.212V213.661Z" fill="#D0F500" stroke="black" stroke-linecap="round" stroke-linejoin="round"></path><path d="M290.801 167.672L280.238 159.551V156.195L290.801 164.317V167.672Z" fill="black"></path><path d="M290.801 175.306L280.238 167.163V163.793L290.801 171.914V175.306Z" fill="#D0F500" stroke="black" stroke-linecap="round" stroke-linejoin="round"></path><path d="M290.801 182.94L280.238 174.811V171.441L290.801 179.585V182.94Z" fill="#D0F500" stroke="black" stroke-linecap="round" stroke-linejoin="round"></path><path d="M188.294 235.874L178.549 241.364C178.505 241.364 178.505 241.408 178.462 241.452C178.445 241.467 178.432 241.487 178.424 241.509C178.416 241.53 178.414 241.553 178.418 241.576C178.415 241.6 178.417 241.624 178.425 241.647C178.432 241.67 178.445 241.691 178.462 241.708C178.462 241.708 178.505 241.788 178.549 241.832L223.564 269.435L223.17 257.622L188.425 235.809L188.294 235.874Z" fill="white" stroke="black" stroke-linecap="round" stroke-linejoin="round"></path><path d="M272.131 133.96L241.1 114.998C241.1 114.954 241.019 114.954 240.932 114.954C240.873 114.949 240.815 114.962 240.764 114.991L202.547 136.921L209.762 140.934L241.195 123.507L265.705 137.762L272.131 133.96Z" stroke="black" stroke-linecap="round" stroke-linejoin="round"></path><path d="M209.772 142.306C210.079 142.306 210.379 142.215 210.634 142.045C210.889 141.874 211.088 141.632 211.205 141.348C211.322 141.065 211.352 140.753 211.292 140.452C211.231 140.151 211.083 139.875 210.866 139.658C210.648 139.442 210.371 139.295 210.07 139.236C209.769 139.177 209.457 139.209 209.174 139.327C208.891 139.446 208.65 139.645 208.48 139.901C208.311 140.157 208.221 140.457 208.223 140.764C208.222 140.968 208.261 141.169 208.339 141.357C208.416 141.545 208.531 141.716 208.675 141.859C208.819 142.003 208.99 142.116 209.179 142.193C209.367 142.27 209.569 142.308 209.772 142.306Z" fill="#D0F500" stroke="black" stroke-linecap="round" stroke-linejoin="round"></path><path d="M278.053 209.418L241.379 229.784L218.111 215.529L209.039 221.048L240.297 240.259C240.312 240.276 240.332 240.289 240.353 240.296C240.375 240.304 240.398 240.306 240.421 240.303C240.445 240.306 240.469 240.303 240.492 240.296C240.514 240.288 240.535 240.276 240.552 240.259L287.505 213.943L278.053 209.418Z" stroke="black" stroke-linecap="round" stroke-linejoin="round"></path><path d="M218.229 217.139C218.536 217.139 218.836 217.048 219.09 216.877C219.345 216.707 219.544 216.465 219.661 216.182C219.778 215.899 219.809 215.587 219.749 215.286C219.69 214.986 219.542 214.71 219.325 214.493C219.108 214.276 218.832 214.129 218.532 214.069C218.231 214.009 217.92 214.04 217.636 214.157C217.353 214.274 217.111 214.473 216.941 214.728C216.771 214.983 216.68 215.282 216.68 215.589C216.679 215.793 216.718 215.995 216.796 216.183C216.873 216.371 216.987 216.543 217.131 216.687C217.276 216.831 217.447 216.945 217.635 217.023C217.824 217.1 218.026 217.139 218.229 217.139Z" fill="#D0F500" stroke="black" stroke-linecap="round" stroke-linejoin="round"></path><path d="M188.018 173.672L195.488 178.65V212.59" stroke="black" stroke-linecap="round" stroke-linejoin="round"></path><path d="M208.301 157.59L215.465 161.925V200.85L208.301 196.508V157.59Z" fill="#D0F500" stroke="black" stroke-linecap="round" stroke-linejoin="round"></path><path d="M174.857 137.336L182.029 141.671V187.936L174.857 192.015V137.336Z" fill="#D0F500" stroke="black" stroke-linecap="round" stroke-linejoin="round"></path><path d="M182.014 141.671L247.957 103.761L240.83 99.375L174.857 137.336L182.014 141.671Z" fill="black" stroke="black" stroke-linecap="round" stroke-linejoin="round"></path><path d="M248.06 143.331L215.465 161.935L208.301 157.593L240.896 138.996L248.06 143.331Z" fill="black" stroke="black" stroke-linecap="round" stroke-linejoin="round"></path><path d="M296.664 149.039L303.784 153.425L303.96 215.56L296.328 211.437L296.664 149.039Z" fill="black" stroke="black" stroke-linecap="round" stroke-linejoin="round"></path><path d="M239.916 242.985L247.957 247.883L303.915 215.529L296.283 211.406L239.916 242.985Z" fill="#D0F500" stroke="black" stroke-linecap="round" stroke-linejoin="round"></path><path d="M313.097 346.588C320.948 328.423 344.325 313.233 365.312 312.663C374.318 312.414 381.394 314.907 385.97 319.242C382.447 311.522 373.675 306.705 361.314 307.048C340.319 307.619 316.942 322.809 309.098 340.974C304.617 351.34 306.174 360.433 312.234 366.223C309.778 360.85 309.873 354.052 313.097 346.588Z" fill="black" stroke="black" stroke-linecap="round" stroke-linejoin="round"></path><path d="M152.109 265.547C141.415 255.423 127.094 253.186 120.128 260.547C119.367 261.354 118.713 262.255 118.184 263.23C125.406 256.826 139.061 259.26 149.361 269.005C158.864 278.003 162.299 290.204 158.052 297.974C158.323 297.726 158.601 297.47 158.856 297.199C165.823 289.838 162.804 275.664 152.109 265.547Z" fill="black" stroke="black" stroke-linecap="round" stroke-linejoin="round"></path><path d="M395.958 326.035L390.417 315.801C393.721 322.38 393.969 330.647 390.417 339.668C382.01 360.867 355.716 378.075 331.688 378.075C318.822 378.075 309.224 373.148 304.363 365.319L311.154 377.439C315.694 386.116 325.665 391.657 339.312 391.657C363.34 391.657 389.635 374.464 398.041 353.257C402.222 342.628 401.133 332.994 395.958 326.035Z" fill="white" stroke="black" stroke-linecap="round" stroke-linejoin="round"></path><path d="M364.012 368.624C354.027 374.523 342.601 378.127 331.651 378.127C318.785 378.127 309.187 373.2 304.326 365.371L311.117 377.491C315.657 386.168 325.627 391.709 339.275 391.709C350.321 391.709 361.841 388.054 371.885 382.089L364.012 368.624Z" fill="white" stroke="black" stroke-linecap="round" stroke-linejoin="round"></path><path d="M124.631 294.578C112.035 282.655 108.475 265.959 116.685 257.297L111.648 261.939C110.727 262.561 109.877 263.282 109.111 264.088C108.826 264.395 108.556 264.709 108.293 265.031C101.173 273.927 104.908 289.885 117.065 301.369C128.958 312.648 144.675 315.572 153.278 308.591L153.366 308.518C153.695 308.248 154.009 307.955 154.324 307.655L160.559 302.034C151.875 308.737 136.392 305.711 124.631 294.578Z" fill="white" stroke="black" stroke-linecap="round" stroke-linejoin="round"></path><path d="M116.686 257.285L111.649 261.927C110.728 262.549 109.878 263.27 109.113 264.076C108.827 264.383 108.557 264.697 108.294 265.019C101.284 273.791 104.807 289.369 116.518 300.838L124.003 293.959C111.927 282.081 108.616 265.809 116.686 257.285Z" fill="white" stroke="black" stroke-linecap="round" stroke-linejoin="round"></path><path d="M145.281 275.103C146.378 277.128 146.268 278.568 144.967 279.416C146.325 279.682 147.599 280.271 148.68 281.134C149.777 282.084 150.584 283.323 151.012 284.709C151.26 285.375 151.383 286.081 151.378 286.792C151.375 287.31 151.225 287.817 150.946 288.254C150.633 288.675 150.218 289.01 149.74 289.226C149.169 289.498 148.564 289.692 147.942 289.804C147.166 289.94 146.382 290.023 145.595 290.052L147.467 294.314H144.872L143.03 290.118C142.123 290.118 141.436 290.118 140.961 290.118L142.81 294.329H140.215L138.337 290.067H133.117L132.291 287.011H134.17C134.733 287.011 134.901 286.726 134.769 286.156L131.845 279.446H132.116H131.838L129.704 274.636C129.502 274.285 129.209 273.994 128.857 273.795C128.505 273.596 128.105 273.495 127.701 273.503H125.829L124.623 270.761H128.205C128.936 270.761 129.47 270.761 129.835 270.761L127.986 266.551H130.581L132.401 270.681C133.307 270.681 133.994 270.644 134.44 270.644L132.642 266.551H135.244L137.094 270.761C137.945 270.83 138.79 270.957 139.623 271.141C140.392 271.308 141.141 271.553 141.86 271.872C142.582 272.199 143.246 272.641 143.826 273.181C144.417 273.735 144.909 274.385 145.281 275.103ZM145.661 284.204C145.485 283.807 145.237 283.445 144.93 283.137C144.642 282.852 144.318 282.607 143.965 282.406C143.591 282.186 143.191 282.014 142.774 281.894C142.366 281.769 141.951 281.666 141.531 281.587C141.095 281.513 140.656 281.462 140.215 281.434C139.728 281.405 139.333 281.39 139.031 281.39C138.746 281.39 138.388 281.39 137.949 281.39H137.152L139.638 287.033H140.288H141.1H141.984C142.357 287.033 142.715 286.997 142.942 286.968C143.169 286.938 143.505 286.895 143.841 286.829C144.125 286.773 144.403 286.695 144.674 286.595C144.901 286.497 145.119 286.379 145.325 286.244C145.517 286.119 145.671 285.945 145.771 285.74C145.858 285.529 145.898 285.302 145.888 285.074C145.867 284.773 145.79 284.478 145.661 284.204ZM140.961 276.258C140.806 275.898 140.591 275.567 140.325 275.279C139.829 274.728 139.192 274.323 138.483 274.109C138.138 273.996 137.787 273.905 137.43 273.839C137.067 273.774 136.701 273.728 136.334 273.7C135.91 273.7 135.603 273.656 135.339 273.663H134.433H133.775L136.027 278.78H137.401H138.227C138.526 278.77 138.824 278.739 139.119 278.685C139.345 278.642 139.609 278.583 139.901 278.503C140.149 278.449 140.383 278.345 140.588 278.196C140.748 278.063 140.89 277.91 141.012 277.742C141.141 277.554 141.203 277.327 141.188 277.099C141.164 276.807 141.087 276.523 140.961 276.258Z" fill="black"></path><path d="M331.355 344.992L334.163 365.935L363.622 344.992L342.635 352.617L331.355 344.992Z" fill="black"></path><path d="M364.88 343.017L363.666 319.574L332.613 343.017L344.419 349.808L364.88 343.017Z" fill="black"></path><path d="M1 77.4727L94.707 114.871V199.396L1 204.44V77.4727Z" fill="white" stroke="black" stroke-linecap="round" stroke-linejoin="round"></path><path d="M94.707 114.871L1 77.4727V86.5224L44.2168 102.524L47.8571 99.6074L94.707 118.423V114.871Z" fill="#D0F500" stroke="black" stroke-linecap="round" stroke-linejoin="round"></path><path d="M94.707 196.078L1 197.957V204.441L94.707 199.397V196.078Z" fill="black" stroke="black" stroke-linecap="round" stroke-linejoin="round"></path><path d="M47.2731 146.235C48.4883 141.259 48.837 136.11 48.3038 131.015C47.9033 126.587 46.8592 122.24 45.2044 118.113L32.7773 132.514L47.2731 146.235Z" fill="#D0F500" stroke="black" stroke-linecap="round" stroke-linejoin="round"></path><path d="M28.3902 132.932L40.8172 118.539C37.3596 110.118 31.6578 104.716 25.744 105.278C17.1767 106.104 11.4164 119.167 12.893 134.431C14.3696 149.694 22.4838 161.412 31.0438 160.601C36.519 160.074 40.8392 154.562 42.864 146.668L28.3902 132.932Z" fill="white" stroke="black" stroke-linecap="round" stroke-linejoin="round"></path><path d="M43.7925 177.616L12.6445 176.234V181.856H43.7925V177.616Z" fill="#D0F500" stroke="black" stroke-linecap="round" stroke-linejoin="round"></path><path d="M46.0742 177.719V181.856H55.9135V178.157L46.0742 177.719Z" fill="#D0F500" stroke="black" stroke-linecap="round" stroke-linejoin="round"></path><path d="M55.2695 139.416L81.6952 148.064V143.781L55.2695 135.133V139.416Z" fill="white" stroke="black" stroke-linecap="round" stroke-linejoin="round"></path><path d="M55.2695 131.713L81.6952 140.361V136.077L55.2695 127.43V131.713Z" fill="white" stroke="black" stroke-linecap="round" stroke-linejoin="round"></path><path d="M55.2695 123.959L81.6952 132.6V128.324L55.2695 119.676V123.959Z" fill="white" stroke="black" stroke-linecap="round" stroke-linejoin="round"></path><path d="M487.648 200.015L414.387 189.949V256.039L487.648 299.292V200.015Z" fill="white" stroke="black" stroke-linecap="round" stroke-linejoin="round"></path><path d="M414.387 189.949L487.648 200.015V207.099L453.861 201.484L451.017 197.669L414.387 192.734V189.949Z" fill="black" stroke="black" stroke-linecap="round" stroke-linejoin="round"></path><path d="M414.387 252.465L487.648 294.22V299.285L414.387 256.039V252.465Z" fill="#D0F500" stroke="black" stroke-linecap="round" stroke-linejoin="round"></path><path d="M454.197 260.375L478.547 272.356V276.749L454.197 263.686V260.375Z" fill="#D0F500" stroke="black" stroke-linecap="round" stroke-linejoin="round"></path><path d="M452.414 259.498V262.729L444.717 258.606V255.711L452.414 259.498Z" fill="#D0F500" stroke="black" stroke-linecap="round" stroke-linejoin="round"></path><path d="M445.287 237.071L420.9 226.121V205.258L445.287 211.289V237.071Z" fill="#D0F500" stroke="black" stroke-linecap="round" stroke-linejoin="round"></path><path d="M438.125 217.274L424.396 213.034V210.41L438.125 214.146V217.274Z" fill="white" stroke="black" stroke-linecap="round" stroke-linejoin="round"></path><path d="M438.125 223.484L424.396 218.659V216.035L438.125 220.355V223.484Z" fill="white" stroke="black" stroke-linecap="round" stroke-linejoin="round"></path></svg>