<svg width="120" height="120" viewBox="0 0 120 120" fill="none" xmlns="http://www.w3.org/2000/svg" class="wh-120px flex-shrink-0"><path d="M110.66 21.7268C106.573 15.019 99.2897 11.9911 94.3282 14.9039L94.2798 14.9339L94.2186 14.9694L94.1378 15.0202L92.3945 16.0893C97.3512 13.3394 104.518 16.3765 108.56 23.0084C112.601 29.6403 112.014 37.3928 107.304 40.54L109.001 39.5138C109.044 39.4887 109.087 39.4648 109.13 39.4385C114.091 36.4125 114.777 28.4861 110.66 21.7268Z" fill="white" stroke="black" stroke-miterlimit="10"></path><path d="M107.014 40.7413C111.978 37.7175 112.664 29.7883 108.548 23.031C104.431 16.2737 97.0701 13.2471 92.1065 16.2709C87.1429 19.2948 86.4563 27.224 90.5729 33.9813C94.6895 40.7386 102.05 43.7651 107.014 40.7413Z" fill="white" stroke="black" stroke-miterlimit="10"></path><path d="M98.4414 39.0703L98.4446 39.076" stroke="black" stroke-miterlimit="10"></path><path d="M98.5701 39.3516C99.2127 40.8339 99.2457 42.5097 98.6619 44.0161L80.8131 90.7194C79.9495 92.979 78.4215 94.9238 76.4305 96.2975C74.4394 97.6712 72.0788 98.4092 69.6599 98.4143L10.0638 98.5368C9.26657 98.5417 8.47704 98.381 7.74522 98.0648C7.01341 97.7486 6.35527 97.2838 5.8125 96.6999L7.96599 99.7926C8.46661 100.686 9.1973 101.429 10.0822 101.945C10.9671 102.46 11.9738 102.729 12.9979 102.724L72.1097 102.602C74.509 102.597 76.8504 101.865 78.8253 100.502C80.8002 99.1397 82.3158 97.2107 83.1723 94.9695L100.875 48.6458C101.182 47.8532 101.32 47.0052 101.28 46.1561C101.24 45.3071 101.023 44.4758 100.643 43.7155C100.542 43.5116 98.5701 39.3516 98.5701 39.3516Z" fill="white" stroke="black" stroke-miterlimit="10"></path><path d="M34.0218 35.7546L92.8463 35.5899C97.2072 35.5776 100.222 39.9453 98.6633 44.0183L80.8163 90.7216C79.9528 92.9812 78.4247 94.926 76.4337 96.2997C74.4426 97.6734 72.082 98.4114 69.6631 98.4165L10.067 98.539C5.99022 98.5475 3.17237 94.4659 4.62538 90.6567L22.5434 43.684C23.4311 41.3571 25.0031 39.3538 27.0522 37.9382C29.1013 36.5227 31.5313 35.7614 34.0218 35.7546Z" fill="#D0F500" stroke="black" stroke-miterlimit="10"></path><path d="M89.8711 34.6094V34.6151" stroke="black" stroke-miterlimit="10"></path><path d="M89.9892 34.8711C90.5734 36.2186 90.6035 37.7418 90.0731 39.1113L73.8469 81.5658C73.0619 83.6198 71.6729 85.3877 69.863 86.6364C68.053 87.8852 65.9072 88.5561 63.7083 88.5608L9.5342 88.6729C8.80966 88.6775 8.09206 88.5316 7.42686 88.2444C6.76166 87.9572 6.16338 87.5349 5.66992 87.0044L7.62931 89.8161C8.08436 90.6282 8.74856 91.3036 9.5529 91.7722C10.3572 92.2408 11.2724 92.4855 12.2033 92.4808L65.9371 92.3694C68.118 92.365 70.2463 91.6998 72.0415 90.4614C73.8367 89.223 75.2144 87.4697 75.9931 85.4326L92.0852 43.324C92.3644 42.6035 92.4899 41.8326 92.4536 41.0607C92.4173 40.2888 92.2201 39.5331 91.8745 38.8419C91.7815 38.6521 89.9892 34.8711 89.9892 34.8711Z" fill="black" stroke="black" stroke-miterlimit="10"></path><path d="M31.3109 31.5947L84.7839 31.4453C88.7474 31.4343 91.4887 35.4039 90.0737 39.1066L73.8475 81.5611C73.0624 83.615 71.6734 85.3829 69.8635 86.6316C68.0536 87.8804 65.9077 88.5513 63.7088 88.5561L9.53476 88.6681C5.82906 88.6755 3.26778 84.9649 4.58792 81.5041L20.8754 38.8047C21.6822 36.6889 23.1113 34.8674 24.9743 33.5803C26.8372 32.2931 29.0466 31.6009 31.3109 31.5947Z" fill="white" stroke="black" stroke-miterlimit="10"></path><path d="M25.3489 58.2617H33.1051C33.2902 58.2617 33.4725 58.3068 33.6362 58.3931C33.8 58.4793 33.9403 58.6042 34.045 58.7569C34.1497 58.9095 34.2156 59.0854 34.237 59.2693C34.2584 59.4531 34.2348 59.6395 34.168 59.8121L26.505 79.6252C26.371 79.98 26.1326 80.2859 25.8213 80.5026C25.51 80.7192 25.1404 80.8364 24.7611 80.8388L17.3307 80.889C17.1176 80.8904 16.9073 80.8395 16.7185 80.7405C16.5297 80.6416 16.368 80.4978 16.2479 80.3217C16.1277 80.1456 16.0526 79.9427 16.0293 79.7309C16.006 79.519 16.0351 79.3046 16.1141 79.1066L23.8745 59.2678C23.991 58.9715 24.1939 58.7171 24.4568 58.5377C24.7198 58.3583 25.0306 58.2621 25.3489 58.2617Z" fill="white" stroke="black" stroke-miterlimit="10"></path><path d="M45.0877 51.8828H52.8439C53.029 51.8829 53.2113 51.928 53.3751 52.0143C53.5388 52.1007 53.6791 52.2256 53.7837 52.3784C53.8883 52.5311 53.9542 52.707 53.9755 52.8909C53.9969 53.0748 53.9731 53.2612 53.9062 53.4338L43.9152 79.8568C43.7811 80.2116 43.5427 80.5174 43.2314 80.7341C42.9201 80.9509 42.5506 81.0683 42.1713 81.071L34.7409 81.1206C34.5278 81.1221 34.3175 81.0712 34.1287 80.9724C33.9399 80.8735 33.7782 80.7298 33.658 80.5537C33.5378 80.3777 33.4628 80.1748 33.4394 79.9629C33.4161 79.7511 33.4452 79.5367 33.5243 79.3388L43.6102 52.8913C43.7265 52.5941 43.9297 52.3389 44.1933 52.1589C44.4569 51.979 44.7686 51.8828 45.0877 51.8828Z" fill="white" stroke="black" stroke-miterlimit="10"></path><path d="M75.4083 47.0485L74.1273 43.4727H74.12C74.1404 43.6549 74.1163 43.8394 74.0495 44.0103L61.0074 76.7076C60.8732 77.0624 60.6349 77.3682 60.3236 77.5849C60.0123 77.8017 59.6428 77.9191 59.2635 77.9218L51.8331 77.9714C51.5453 77.9745 51.2649 77.8804 51.0371 77.7044L53.043 80.5296C53.1536 80.7122 53.3097 80.8629 53.4961 80.967C53.6824 81.0711 53.8926 81.1251 54.106 81.1236L61.2315 81.0746C61.598 81.07 61.9545 80.9538 62.2534 80.7415C62.5523 80.5291 62.7793 80.2308 62.9043 79.8861L75.4132 47.8586C75.5118 47.5973 75.51 47.3087 75.4083 47.0485Z" fill="black" stroke="black" stroke-miterlimit="10"></path><path d="M65.2304 42.457H72.9865C73.1717 42.457 73.3541 42.5021 73.5179 42.5884C73.6818 42.6747 73.8221 42.7996 73.9268 42.9524C74.0315 43.1051 74.0974 43.2811 74.1187 43.465C74.1401 43.649 74.1163 43.8353 74.0495 44.008L61.0073 76.7053C60.8732 77.0601 60.6348 77.366 60.3235 77.5827C60.0123 77.7994 59.6427 77.9169 59.2634 77.9196L51.833 77.9692C51.6199 77.9706 51.4097 77.9197 51.2208 77.8209C51.032 77.722 50.8703 77.5783 50.7501 77.4023C50.6299 77.2263 50.5547 77.0234 50.5313 76.8116C50.5079 76.5997 50.5369 76.3853 50.6158 76.1873L63.7535 43.4655C63.8699 43.1685 64.073 42.9134 64.3364 42.7336C64.5999 42.5537 64.9114 42.4573 65.2304 42.457Z" fill="#D0F500" stroke="black" stroke-miterlimit="10"></path><path d="M70.8056 31.6687C70.8056 30.5549 71.4596 29.6523 72.2666 29.6523H72.2966C64.0886 29.2237 58.0641 30.4042 58.0641 30.4042C44.2467 32.3422 32.2589 44.5094 32.2589 44.5094C22.0456 53.1822 12.1629 52.8619 9.31321 52.5472C9.06289 52.5194 8.80953 52.5426 8.56839 52.6153C8.32725 52.688 8.10331 52.8087 7.91003 52.9702C7.71675 53.1316 7.55813 53.3306 7.44371 53.5549C7.32929 53.7793 7.26142 54.0245 7.24421 54.2757C7.24115 54.3186 7.23626 54.4154 7.23626 54.4154C7.23626 54.4558 7.23136 54.4956 7.22952 54.5378C7.15788 56.0227 8.39781 57.2399 9.88327 57.175L13.9411 56.9981C27.8809 56.2939 37.098 46.4835 45.6642 39.96C54.2304 33.4364 72.2427 33.685 72.2427 33.685C71.4467 33.6666 70.8056 32.7708 70.8056 31.6687Z" fill="white" stroke="black" stroke-miterlimit="10"></path><path d="M72.265 33.6889C73.0716 33.6889 73.7254 32.7862 73.7254 31.6726C73.7254 30.559 73.0716 29.6562 72.265 29.6562C71.4585 29.6562 70.8047 30.559 70.8047 31.6726C70.8047 32.7862 71.4585 33.6889 72.265 33.6889Z" fill="black" stroke="black" stroke-miterlimit="10"></path><path d="M10.9136 10.6943C14.3426 5.74929 20.0089 3.71397 23.7023 6.04993L22.7073 5.36171C22.6257 5.29925 22.544 5.23802 22.4624 5.17801C22.3712 5.11678 22.2787 5.05555 22.185 4.998L22.1716 4.98879C18.4769 2.72937 12.8644 4.76838 9.45878 9.67971C6.02189 14.6339 6.10884 20.6664 9.60819 23.3005H9.61126C9.67249 23.3464 9.73372 23.3918 9.79495 23.4352C9.86761 23.4859 9.94149 23.5344 10.0166 23.581L10.9767 24.2423C7.56307 21.5775 7.50674 15.6062 10.9136 10.6943Z" fill="white" stroke="black" stroke-miterlimit="10"></path><path d="M24.256 19.9751C27.7539 14.9329 27.6023 8.77299 23.9174 6.21667C20.2325 3.66035 14.4096 5.6756 10.9117 10.7178C7.41377 15.7601 7.56533 21.92 11.2502 24.4763C14.9352 27.0326 20.758 25.0173 24.256 19.9751Z" fill="white" stroke="black" stroke-miterlimit="10"></path><path d="M99.4268 80.9844C103.04 84.8101 105.049 89.8747 105.042 95.1367C105.042 106.539 95.7965 115.782 84.3971 115.782C79.7576 115.789 75.2522 114.226 71.6133 111.348C73.5414 113.4 75.87 115.035 78.4552 116.152C81.0404 117.268 83.8271 117.842 86.643 117.839C98.0448 117.839 107.288 108.593 107.288 97.1934C107.287 90.6215 104.214 84.7654 99.4268 80.9844Z" fill="white" stroke="black" stroke-miterlimit="10"></path><path d="M84.3991 115.783C95.8012 115.783 105.044 106.539 105.044 95.1374C105.044 83.7354 95.8012 74.4922 84.3991 74.4922C72.9971 74.4922 63.7539 83.7354 63.7539 95.1374C63.7539 106.539 72.9971 115.783 84.3991 115.783Z" fill="#D0F500" stroke="black" stroke-miterlimit="10"></path><path d="M84.4358 111.987C93.9316 111.987 101.629 104.404 101.629 95.0503C101.629 85.6962 93.9316 78.1133 84.4358 78.1133C74.94 78.1133 67.2422 85.6962 67.2422 95.0503C67.2422 104.404 74.94 111.987 84.4358 111.987Z" fill="white" stroke="black" stroke-miterlimit="10"></path><path d="M91.656 90.1907C91.8199 91.8373 91.2235 93.0045 89.8666 93.6921C90.9321 93.9454 91.7289 94.4114 92.257 95.0899C92.7852 95.7685 92.9901 96.7366 92.8717 97.9942C92.8079 98.6366 92.66 99.202 92.4278 99.6906C92.1956 100.179 91.9019 100.582 91.5467 100.898C91.1916 101.215 90.7499 101.48 90.2218 101.692C89.6936 101.905 89.1404 102.061 88.5622 102.161C87.9839 102.26 87.3214 102.328 86.5747 102.364V105.825H84.4712V102.418C83.7427 102.418 83.1872 102.414 82.8047 102.405V105.825H80.7012V102.364C80.5373 102.364 80.2914 102.362 79.9636 102.357C79.6358 102.353 79.3854 102.351 79.2123 102.351H76.4805L76.9039 99.867H78.4201C78.8754 99.867 79.1395 99.6363 79.2123 99.1749V93.7192H79.4309C79.3763 93.7102 79.3034 93.7057 79.2123 93.7057V89.8107C79.094 89.1955 78.6887 88.8878 77.9967 88.8878H76.4805V86.6622L79.3763 86.6757C79.9591 86.6757 80.4007 86.6712 80.7012 86.6622V83.2422H82.8047V86.5943C83.5515 86.5762 84.1069 86.5672 84.4712 86.5672V83.2422H86.5747V86.6622C87.2941 86.7255 87.9316 86.8273 88.487 86.9675C89.0425 87.1077 89.557 87.3113 90.0305 87.5782C90.5041 87.8451 90.8797 88.198 91.1574 88.6368C91.4352 89.0756 91.6014 89.5936 91.656 90.1907ZM88.7192 97.5871C88.7192 97.2613 88.651 96.9718 88.5144 96.7185C88.3778 96.4652 88.2093 96.2571 88.009 96.0942C87.8086 95.9314 87.5468 95.7934 87.2236 95.6803C86.9003 95.5672 86.602 95.4835 86.3289 95.4292C86.0557 95.3749 85.7187 95.3342 85.3181 95.3071C84.9174 95.2799 84.6032 95.2664 84.3756 95.2664C84.1479 95.2664 83.8542 95.2709 83.4945 95.2799C83.1349 95.289 82.9186 95.2935 82.8457 95.2935V99.8806C82.9186 99.8806 83.087 99.8829 83.3511 99.8874C83.6152 99.8919 83.8338 99.8942 84.0068 99.8942C84.1798 99.8942 84.4211 99.8874 84.7307 99.8738C85.0403 99.8602 85.3067 99.8421 85.5298 99.8195C85.7529 99.7969 86.0124 99.7585 86.3084 99.7042C86.6043 99.6499 86.857 99.5866 87.0665 99.5142C87.2759 99.4418 87.4922 99.3468 87.7153 99.2292C87.9384 99.1116 88.1182 98.9758 88.2548 98.822C88.3914 98.6682 88.503 98.4873 88.5895 98.2792C88.676 98.0711 88.7192 97.8404 88.7192 97.5871ZM87.7494 91.1271C87.7494 90.8285 87.6925 90.5639 87.5787 90.3332C87.4649 90.1025 87.326 89.9125 87.1621 89.7632C86.9982 89.6139 86.7796 89.4872 86.5064 89.3832C86.2332 89.2792 85.9828 89.2045 85.7552 89.1593C85.5275 89.114 85.2475 89.0778 84.9151 89.0507C84.5827 89.0236 84.3187 89.0123 84.1229 89.0168C83.9271 89.0213 83.6812 89.0258 83.3853 89.0303C83.0893 89.0349 82.9095 89.0371 82.8457 89.0371V93.2035C82.8913 93.2035 83.0483 93.2058 83.317 93.2103C83.5856 93.2148 83.7973 93.2148 83.9521 93.2103C84.1069 93.2058 84.3346 93.1967 84.6351 93.1832C84.9356 93.1696 85.186 93.1447 85.3864 93.1085C85.5867 93.0723 85.8212 93.0226 86.0898 92.9592C86.3585 92.8959 86.5793 92.8122 86.7523 92.7082C86.9253 92.6041 87.0938 92.482 87.2577 92.3417C87.4216 92.2015 87.5445 92.0273 87.6265 91.8192C87.7085 91.6112 87.7494 91.3804 87.7494 91.1271Z" fill="black"></path><path d="M97.7287 19.3458L99.1726 26.6016L94.1592 27.9771L97.7287 19.3458ZM97.7287 19.3458L99.1726 26.6016L104.835 28.489L97.7287 19.3458ZM101.226 36.92L100.221 31.8713L94.308 28.7248L101.226 36.92ZM101.226 36.92L100.221 31.8713L104.984 29.2367L101.226 36.92Z" fill="black"></path><path d="M94.1605 27.9748L99.0138 25.795L100.011 30.8052L94.1605 27.9748ZM104.837 28.4867L99.0138 25.795L100.011 30.8052L104.837 28.4867Z" fill="black"></path><path d="M24.1152 10.3633H15.6587C15.4779 10.3633 15.2728 10.4509 15.1117 10.5968L13.8349 11.7645C13.4164 12.1498 13.5016 12.6986 13.9798 12.6986H22.4363C22.6171 12.6986 22.8222 12.611 22.9833 12.465L24.2602 11.2974C24.6786 10.9121 24.5935 10.3633 24.1152 10.3633ZM13.4772 14.1582H21.9338C22.1146 14.1582 22.2593 14.2457 22.3199 14.3917L22.7927 15.5593C22.9458 15.9446 22.4827 16.4934 22.0045 16.4934H13.5479C13.3671 16.4934 13.2223 16.4059 13.1618 16.2599L12.689 15.0923C12.5359 14.707 12.999 14.1582 13.4772 14.1582ZM21.5019 17.9529H13.0454C12.8646 17.9529 12.6595 18.0405 12.4984 18.1865L11.2216 19.3541C10.8031 19.7394 10.8883 20.2882 11.3665 20.2882H19.823C20.0038 20.2882 20.2089 20.2006 20.37 20.0547L21.6468 18.887C22.0653 18.5017 21.9802 17.9529 21.5019 17.9529Z" fill="black"></path></svg>