<svg width="120" height="120" viewBox="0 0 120 120" fill="none" xmlns="http://www.w3.org/2000/svg" class="wh-120px flex-shrink-0"><path d="M26.634 58.6012L26.6889 55.2201L30.8082 51.1614C30.8082 51.1614 23.2219 44.3584 24.2221 36.3594L20.3254 44.1386C20.3254 44.1386 18.8674 50.6768 26.634 58.5955V58.6012Z" fill="black" stroke="black" stroke-linecap="round" stroke-linejoin="round"></path><path d="M59.1151 86.3415C62.0249 83.4316 58.796 75.4849 51.903 68.5919C45.01 61.699 37.0632 58.47 34.1534 61.3798C31.2436 64.2896 34.4726 72.2363 41.3656 79.1293C48.2586 86.0223 56.2053 89.2513 59.1151 86.3415Z" fill="white" stroke="black" stroke-linecap="round" stroke-linejoin="round"></path><path d="M104.058 18.4778C103.972 18.1376 103.794 17.8278 103.543 17.5832C103.292 17.3386 102.977 17.1689 102.635 17.093C101.306 16.7985 98.6521 16.559 94.3976 17.6368C87.889 19.285 70.2793 24.9131 64.3793 31.1399C58.4794 37.3667 34.1582 61.3822 34.1582 61.3822C37.0673 58.4716 45.0142 61.7006 51.9088 68.5937C58.7696 75.4545 61.9999 83.3577 59.1612 86.302L83.6627 63.146C90.2325 56.9687 95.4979 49.5376 99.148 41.2916C102.399 33.9321 105.235 23.2029 104.058 18.4778Z" fill="white" stroke="black" stroke-linecap="round" stroke-linejoin="round"></path><path d="M58.9219 86.5198L58.9351 86.5078" stroke="black" stroke-linecap="round" stroke-linejoin="round"></path><path d="M22.9648 97.6897L57.0333 84.6007C59.71 75.8663 43.7908 62.6562 36.5426 63.7691L22.9648 97.6897Z" fill="#D0F500" stroke="black" stroke-linecap="round" stroke-linejoin="round"></path><path d="M54.1772 82.7064C55.6805 81.174 53.3628 76.4627 49.0005 72.1834C44.6383 67.9041 39.8834 65.6773 38.3801 67.2097C36.8768 68.7421 39.1945 73.4534 43.5568 77.7327C47.919 82.012 52.6739 84.2388 54.1772 82.7064Z" fill="white" stroke="black" stroke-linecap="round" stroke-linejoin="round"></path><path d="M99.3364 40.8549C102.501 33.5123 105.208 23.1042 104.054 18.4778C103.969 18.1376 103.791 17.8278 103.54 17.5832C103.288 17.3386 102.974 17.1689 102.632 17.093C101.303 16.7985 98.649 16.559 94.3944 17.6368C91.7178 18.313 87.1773 19.6612 82.3438 21.4405C82.3522 21.4475 98.301 25.3681 99.3364 40.8549Z" fill="#D0F500" stroke="black" stroke-linecap="round" stroke-linejoin="round"></path><path d="M81.55 48.7445C86.2299 48.7445 90.0238 44.9506 90.0238 40.2707C90.0238 35.5907 86.2299 31.7969 81.55 31.7969C76.87 31.7969 73.0762 35.5907 73.0762 40.2707C73.0762 44.9506 76.87 48.7445 81.55 48.7445Z" fill="#D0F500" stroke="black" stroke-linecap="round" stroke-linejoin="round"></path><path d="M8.5625 76.2342L12.2042 76.0694L15.0217 73.3477L15.2965 78.763L17.3307 83.505L13.813 83.7388L10.9546 86.4183L10.5968 80.8255L8.5625 76.2342Z" fill="white" stroke="black" stroke-linecap="round" stroke-linejoin="round"></path><path d="M16.9318 73.2773L15.0215 73.345L15.2962 78.7603L17.1938 78.6645L16.9318 73.2773Z" fill="white" stroke="black" stroke-linecap="round" stroke-linejoin="round"></path><path d="M19.2555 83.3102L17.3312 83.5018L15.2969 78.7599L17.1945 78.6641L19.2555 83.3102Z" fill="black" stroke="black" stroke-linecap="round" stroke-linejoin="round"></path><path d="M12.9471 86.2364L10.9551 86.4139L13.8135 83.7344L15.6407 83.6133L12.9471 86.2364Z" fill="white" stroke="black" stroke-linecap="round" stroke-linejoin="round"></path><path d="M108.529 51.0064L107.827 53.2224L108.952 55.7906L105.394 54.5114L101.972 54.7284L102.859 52.6363L101.674 49.9766L105.024 51.1825L108.529 51.0064Z" fill="white" stroke="black" stroke-linecap="round" stroke-linejoin="round"></path><path d="M101.855 55.9208L101.974 54.7248L105.396 54.5078L105.128 55.787L101.855 55.9208Z" fill="black" stroke="black" stroke-linecap="round" stroke-linejoin="round"></path><path d="M108.952 55.787L108.431 56.8379L105.127 55.787L105.395 54.5078L108.952 55.787Z" fill="white" stroke="black" stroke-linecap="round" stroke-linejoin="round"></path><path d="M101.674 49.9766L101.512 51.4431L102.446 53.6098L102.859 52.6363L101.674 49.9766Z" fill="white" stroke="black" stroke-linecap="round" stroke-linejoin="round"></path><path d="M47.7149 51.624L26.4043 72.8656L26.6931 55.222L32.848 49.1643C33.4988 48.523 34.318 48.0792 35.2106 47.8845C36.1032 47.6898 37.0328 47.752 37.8915 48.064L47.7149 51.624Z" fill="white" stroke="black" stroke-linecap="round" stroke-linejoin="round"></path><path d="M100.136 78.7132C86.1383 83.0297 70.3008 75.7773 70.3008 75.7773L73.1831 83.6961C73.3952 84.2823 73.4877 84.905 73.455 85.5275C97.3352 91.6712 99.6865 82.6818 99.6865 82.6818L99.9528 81.9309C100.214 80.8792 100.277 79.7878 100.136 78.7132Z" fill="black"></path><path d="M99.6597 82.7395L99.6879 82.6846M100.136 78.7132C86.1383 83.0297 70.3008 75.7773 70.3008 75.7773L73.1831 83.6961C73.3952 84.2823 73.4877 84.905 73.455 85.5275C97.3352 91.6712 99.6865 82.6818 99.6865 82.6818L99.9528 81.9309C100.214 80.8792 100.277 79.7878 100.136 78.7132Z" stroke="black" stroke-linecap="round" stroke-linejoin="round"></path><path d="M69.5315 73.6641L48.8633 94.5562H66.0123L72.0701 88.5971C72.7059 87.9719 73.1484 87.177 73.345 86.3073C73.5416 85.4375 73.4839 84.5296 73.1788 83.6917L69.5315 73.6641Z" fill="white" stroke="black" stroke-linecap="round" stroke-linejoin="round"></path><path d="M57.248 118.156L57.2613 118.171" stroke="black" stroke-linecap="round" stroke-linejoin="round"></path><path d="M63.4854 57.2852L57.9334 59.1814L44.4838 72.4676L36.8496 83.7561L48.1522 76.2459L61.6723 62.7273L63.4854 57.2852Z" fill="white" stroke="black" stroke-linecap="round" stroke-linejoin="round"></path><path d="M83.046 44.0886L84.9864 41.9791C84.9879 41.9774 84.9895 41.9757 84.9928 41.9756C84.996 41.9754 84.9976 41.9737 84.9993 41.9753L86.0509 42.1965C86.0542 42.1963 86.0559 42.1979 86.0575 42.1994C86.0592 42.201 86.0609 42.2025 86.061 42.2058C86.0612 42.209 86.0628 42.2106 86.0613 42.2123C86.0614 42.2155 86.0598 42.2173 86.0583 42.219L83.3525 45.1607C83.3509 45.1624 83.3493 45.1641 83.3461 45.1643C83.3428 45.1644 83.3412 45.1661 83.3396 45.1646L78.0508 44.0714C78.0475 44.0715 78.0458 44.07 78.0441 44.0684C78.0425 44.0669 78.0408 44.0653 78.0406 44.0621L76.9441 40.3209C76.9439 40.3176 76.9438 40.3144 76.9454 40.3127C76.9453 40.3094 76.9468 40.3077 76.9484 40.306C76.95 40.3043 76.9516 40.3026 76.9548 40.3024C76.9581 40.3023 76.9596 40.3006 76.9613 40.3021L78.0147 40.5249C78.0179 40.5247 78.0196 40.5263 78.0213 40.5278C78.023 40.5294 78.0247 40.5309 78.0248 40.5342L78.8171 43.2179C78.8172 43.2212 78.8189 43.2227 78.8206 43.2243C78.8223 43.2258 78.824 43.2274 78.8272 43.2272L83.0283 44.0944C83.0316 44.0942 83.0332 44.0958 83.0348 44.0941C83.0412 44.0905 83.0428 44.0888 83.046 44.0886Z" fill="black"></path><path d="M87.1056 41.0646C87.1055 41.0613 87.107 41.0596 87.1054 41.058L85.5786 35.8917C85.5785 35.8885 85.5768 35.8869 85.5751 35.8854C85.5734 35.8838 85.5717 35.8823 85.5685 35.8824L80.2864 34.7955C80.2848 34.7939 80.2815 34.7941 80.2799 34.7958C80.2784 34.7975 80.2751 34.7976 80.2735 34.7993L76.5279 38.875C76.5263 38.8767 76.5248 38.8784 76.5249 38.8816C76.525 38.8849 76.5234 38.8866 76.5251 38.8881C76.5268 38.8897 76.5254 38.8947 76.527 38.8962C76.5287 38.8978 76.5304 38.8993 76.5337 38.8992L78.5557 39.3046C78.559 39.3045 78.5607 39.306 78.5624 39.3076C78.5641 39.3091 78.5657 39.3107 78.5659 39.3139L79.493 42.4775C79.4931 42.4807 79.4948 42.4823 79.4965 42.4838C79.4982 42.4854 79.4999 42.4869 79.5032 42.4868L82.7497 43.1591C82.753 43.159 82.7547 43.1605 82.7563 43.1588C82.7595 43.1587 82.7611 43.157 82.7627 43.1552L84.0207 41.7876C84.0222 41.7859 84.0221 41.7826 84.0237 41.7809L85.0605 40.6537L87.0864 41.0752C87.0897 41.0751 87.0914 41.0766 87.0929 41.0749C87.0945 41.0732 87.0977 41.0731 87.0993 41.0714C87.1009 41.0697 87.1057 41.0678 87.1056 41.0646ZM80.8858 36.7917C80.8825 36.7919 80.8793 36.792 80.876 36.7922C80.8728 36.7923 80.8712 36.794 80.8681 36.7975L79.3277 38.4721C79.3261 38.4738 79.323 38.4772 79.3197 38.4774C79.3165 38.4775 79.3132 38.4777 79.31 38.4778L78.3932 38.2894C78.39 38.2896 78.3883 38.288 78.3849 38.2849C78.3832 38.2834 78.3799 38.2803 78.3797 38.277C78.3796 38.2737 78.3795 38.2705 78.3794 38.2672C78.3793 38.264 78.3808 38.2623 78.384 38.2589L80.5878 35.8628C80.5894 35.8611 80.5925 35.8577 80.5958 35.8576C80.599 35.8574 80.6023 35.8573 80.6055 35.8571L84.7948 36.7134C84.7981 36.7132 84.7998 36.7148 84.8031 36.7179C84.8048 36.7194 84.8082 36.7225 84.8083 36.7258L85.7089 39.7862C85.709 39.7894 85.7091 39.7927 85.7093 39.796C85.7094 39.7992 85.7078 39.8009 85.7047 39.8043C85.7015 39.8077 85.7 39.8094 85.6967 39.8096C85.6935 39.8098 85.6902 39.8099 85.6869 39.8101L84.7769 39.6279C84.7737 39.628 84.772 39.6265 84.7686 39.6233C84.7669 39.6218 84.7636 39.6187 84.7634 39.6154L84.1292 37.4675C84.1291 37.4642 84.1274 37.4627 84.1241 37.4596C84.1224 37.458 84.119 37.4549 84.1157 37.4551L80.8858 36.7917ZM82.442 42.0953C82.4387 42.0955 82.4372 42.0972 82.4355 42.0956L80.2683 41.6448C80.265 41.6449 80.2633 41.6434 80.2616 41.6418C80.2599 41.6403 80.2583 41.6387 80.2581 41.6355L79.6551 39.5383C79.6534 39.5367 79.655 39.535 79.6549 39.5317C79.6548 39.5285 79.6563 39.5268 79.6579 39.5251L81.1888 37.8607C81.1904 37.8589 81.192 37.8572 81.1952 37.8571C81.1985 37.8569 81.2001 37.8552 81.2017 37.8568L83.341 38.3008C83.3442 38.3006 83.3459 38.3022 83.3476 38.3037C83.3493 38.3053 83.351 38.3068 83.3511 38.3101L83.984 40.4222L82.5911 41.9366L82.4484 42.0917C82.4468 42.0934 82.4452 42.0952 82.442 42.0953Z" fill="black"></path><path d="M20.2402 44.1764L24.3508 36.1234C25.246 34.3869 26.7466 33.0387 28.5687 32.3338C34.6433 30.0037 54.8494 29.3599 81.55 46.1962C81.55 46.1962 108.675 63.1156 103.233 75.6495L99.6584 82.7413C99.6584 82.7413 107.038 69.3819 67.4693 48.0515C52.2756 39.8539 27.8166 36.3309 20.2402 44.1764Z" fill="white" stroke="black" stroke-linecap="round" stroke-linejoin="round"></path><path d="M43.8062 31.9898C36.4327 31.9898 29.4564 26.3153 28.2237 19.3179C27.7701 16.737 28.1603 14.3378 29.2028 12.3359L28.2434 13.9814C26.9657 16.0946 26.4487 18.7008 26.9474 21.5282C28.18 28.527 35.1563 34.2072 42.5285 34.2072C47.1901 34.2072 50.8938 31.9391 52.6717 28.5031L53.7423 26.6717C51.894 29.8879 48.2988 31.9898 43.8062 31.9898Z" fill="white" stroke="black" stroke-linecap="round" stroke-linejoin="round"></path><path d="M52.6794 28.4994L53.7501 26.668C51.8975 29.8913 48.2981 31.9931 43.8097 31.9931C41.5951 31.9815 39.4086 31.4964 37.397 30.5703L35.9121 32.6834C37.98 33.6727 40.241 34.1927 42.5334 34.2063C47.1936 34.2035 50.8973 31.9354 52.6794 28.4994Z" fill="black" stroke="black" stroke-linecap="round" stroke-linejoin="round"></path><path d="M91.6493 88.0102C91.401 87.6561 91.1181 87.3275 90.8049 87.0293C90.6569 86.8882 88.7399 84.9414 88.7399 84.9414C92.4523 89.2618 90.2565 98.0897 83.5877 105.102C76.7262 112.319 67.7044 114.903 63.3301 110.942L65.5247 113.2C65.5901 113.267 65.6578 113.335 65.7266 113.401C70.0562 117.517 79.179 114.95 86.1024 107.664C92.5211 100.916 94.7995 92.4855 91.6493 88.0102Z" fill="white" stroke="black" stroke-linecap="round" stroke-linejoin="round"></path><path d="M83.5832 105.116C90.508 97.8346 92.6125 88.5944 88.2838 84.4779C83.955 80.3615 74.8323 82.9276 67.9075 90.2095C60.9828 97.4914 58.8783 106.732 63.207 110.848C67.5357 114.964 76.6585 112.398 83.5832 105.116Z" fill="white" stroke="black" stroke-linecap="round" stroke-linejoin="round"></path><path d="M74.5 111.5C70 113.5 65.8207 113.199 63.3301 110.941L65.5247 113.199C65.5901 113.267 65.6578 113.335 65.7266 113.4C68.2597 115.809 72.4344 115.924 76.8489 114.155L74.5 111.5Z" fill="black" stroke="black" stroke-linecap="round" stroke-linejoin="round"></path><path d="M83.6663 94.5067C83.0574 95.6524 82.0383 96.4645 80.6092 96.9429C81.373 97.1192 81.8192 97.4434 81.948 97.9156C82.0767 98.3877 81.8082 99.0613 81.1423 99.9363C80.7995 100.383 80.422 100.777 80.0099 101.117C79.5977 101.457 79.1737 101.737 78.7379 101.957C78.302 102.177 77.8184 102.362 77.287 102.51C76.7555 102.657 76.229 102.766 75.7074 102.835C75.1858 102.905 74.609 102.952 73.9771 102.977L72.4134 105.385H70.6795L72.2187 103.015C71.6182 103.015 71.1623 103.012 70.8512 103.005L69.3058 105.385H67.5719L69.1356 102.977C69.0005 102.977 68.7988 102.975 68.5307 102.972C68.2625 102.969 68.0571 102.968 67.9145 102.968H65.6626L67.1338 101.239H68.3836C68.7589 101.239 69.0809 101.079 69.3494 100.758L71.8146 96.9618H71.9948C71.9538 96.9555 71.8958 96.9524 71.8207 96.9524L73.5807 94.2423C73.7611 93.8142 73.5661 93.6001 72.9956 93.6001H71.7458L72.7515 92.0515L75.1324 92.0609C75.6128 92.0609 75.9789 92.0578 76.2307 92.0515L77.776 89.6719H79.51L77.9953 92.0043C78.619 91.9917 79.081 91.9854 79.3812 91.9854L80.8836 89.6719H82.6176L81.0722 92.0515C81.6366 92.0956 82.1161 92.1664 82.5106 92.264C82.9051 92.3615 83.2372 92.5032 83.5069 92.6889C83.7767 92.8746 83.9268 93.1201 83.9575 93.4254C83.9882 93.7308 83.8911 94.0912 83.6663 94.5067ZM77.9034 99.6531C78.0506 99.4264 78.1251 99.225 78.127 99.0487C78.1289 98.8724 78.0841 98.7276 77.9925 98.6143C77.901 98.501 77.7475 98.405 77.5321 98.3263C77.3168 98.2476 77.1087 98.1894 76.9081 98.1516C76.7074 98.1139 76.4481 98.0855 76.1301 98.0666C75.8121 98.0478 75.5592 98.0383 75.3716 98.0383C75.1839 98.0383 74.9398 98.0415 74.6392 98.0478C74.3386 98.054 74.1583 98.0572 74.0983 98.0572L72.0255 101.249C72.0856 101.249 72.2234 101.25 72.4391 101.254C72.6547 101.257 72.8338 101.258 72.9765 101.258C73.1191 101.258 73.3211 101.254 73.5824 101.244C73.8438 101.235 74.0715 101.222 74.2656 101.206C74.4597 101.191 74.691 101.164 74.9595 101.126C75.228 101.088 75.4649 101.044 75.6703 100.994C75.8756 100.944 76.0968 100.877 76.3339 100.796C76.5709 100.714 76.7805 100.619 76.9626 100.512C77.1447 100.405 77.3184 100.279 77.4837 100.135C77.6491 99.9898 77.789 99.8293 77.9034 99.6531ZM80.023 95.1582C80.1579 94.9505 80.2306 94.7663 80.241 94.6058C80.2514 94.4453 80.2228 94.3131 80.1552 94.2092C80.0875 94.1053 79.9646 94.0172 79.7864 93.9448C79.6082 93.8724 79.4355 93.8205 79.2683 93.789C79.1011 93.7575 78.8866 93.7323 78.6249 93.7134C78.3632 93.6946 78.1506 93.6867 77.9872 93.6898C77.8238 93.693 77.6191 93.6961 77.3731 93.6993C77.1271 93.7024 76.9778 93.704 76.9253 93.704L75.0426 96.603C75.0802 96.603 75.2086 96.6046 75.428 96.6077C75.6474 96.6109 75.8219 96.6109 75.9516 96.6077C76.0812 96.6046 76.273 96.5983 76.5268 96.5888C76.7807 96.5794 76.9983 96.5621 77.1798 96.5369C77.3613 96.5117 77.5771 96.4771 77.8271 96.433C78.0772 96.3889 78.297 96.3307 78.4867 96.2583C78.6763 96.1859 78.8703 96.1009 79.0688 96.0034C79.2673 95.9058 79.4473 95.7846 79.6089 95.6398C79.7705 95.495 79.9085 95.3345 80.023 95.1582Z" fill="black"></path><path d="M53.3562 27.2984C57.0387 21.8595 54.7499 13.8796 48.244 9.47478C41.7382 5.07 33.479 5.90834 29.7965 11.3473C26.1141 16.7862 28.4029 24.7661 34.9088 29.1709C41.4146 33.5757 49.6738 32.7373 53.3562 27.2984Z" fill="white" stroke="black" stroke-linecap="round" stroke-linejoin="round"></path><path d="M37.3602 10.6911L40.8334 17.6453L36.133 20.4281L37.3602 10.6911ZM37.3602 10.6911L40.8334 17.6453L47.0957 17.9899L37.3602 10.6911ZM45.7725 27.5348L43.3558 22.696L36.4909 21.1447L45.7725 27.5348ZM45.7725 27.5348L43.3558 22.696L47.4536 18.7065L45.7725 27.5348Z" fill="black"></path><path d="M36.1347 20.4243L40.4501 16.8708L42.8483 21.6727L36.1347 20.4243ZM47.0973 17.9861L40.4501 16.8708L42.8483 21.6727L47.0973 17.9861Z" fill="black"></path></svg>