<svg width="120" height="120" viewBox="0 0 120 120" fill="none" xmlns="http://www.w3.org/2000/svg" class="wh-120px flex-shrink-0"><path d="M93.1764 88.3623L88.7808 83.2984C86.6261 80.8141 83.6602 79.1847 80.4168 78.7032C77.1735 78.2217 73.8657 78.9198 71.0887 80.6718L53.7695 91.6108L56.69 95.562L67.8426 90.3375C71.1424 88.8193 74.8166 88.3215 78.3984 88.9073C81.9803 89.493 85.3081 91.1359 87.9592 93.6272L101.909 106.728H116.335V82.0508L93.1764 88.3623Z" fill="white" stroke="black" stroke-miterlimit="10"></path><path d="M59.3569 23.9297C59.0631 23.9297 58.7719 23.9297 58.4807 23.9453C72.8213 25.9321 83.9064 39.3652 83.9064 55.6429C83.9064 72.9739 71.3366 87.0797 55.6602 87.5829C56.8852 87.7516 58.1203 87.8361 59.3569 87.8358C75.5309 87.8358 88.6439 73.5319 88.6439 55.8866C88.6439 38.2414 75.5335 23.9297 59.3569 23.9297Z" fill="white" stroke="black" stroke-linecap="round" stroke-linejoin="round"></path><path d="M85.8932 68.925L81.5905 67.5625C77.3887 79.0262 67.25 87.2064 55.3145 87.5818C56.5439 87.7499 57.7836 87.8341 59.0247 87.8338C71.0127 87.8338 81.3218 80.0653 85.8932 68.925Z" fill="black" stroke="black" stroke-linecap="round" stroke-linejoin="round"></path><path d="M32.4524 96.1418L25.8371 94.8813C19.2219 93.6196 15.459 99.6215 15.459 99.6215L38.8013 106.732H42.6019L32.4965 96.1431L32.4524 96.1418Z" fill="white" stroke="black" stroke-miterlimit="10"></path><path d="M25.0847 88.3799L42.7692 106.732H51.1942L45.8233 96.5455L36.773 89.104C35.1583 87.7532 33.1514 86.9539 31.0472 86.8236C28.9429 86.6933 26.8522 87.2387 25.082 88.3799H25.0847Z" fill="white" stroke="black" stroke-miterlimit="10"></path><path d="M39.8555 87.0642L45.8549 96.5663L51.1735 106.732H102.044L87.9568 93.676C85.3099 91.1927 81.8028 89.5526 78.2266 88.9687C74.6505 88.3849 70.9821 88.8811 67.6874 90.3943L56.6486 95.468L53.135 90.6247C51.6608 88.5966 49.5386 87.137 47.1221 86.4891C44.7056 85.8412 42.1409 86.0442 39.8555 87.0642Z" fill="white" stroke="black" stroke-miterlimit="10"></path><path d="M54.8021 87.8317C70.8364 87.8317 83.8348 73.4489 83.8348 55.7069C83.8348 37.9648 70.8364 23.582 54.8021 23.582C38.7679 23.582 25.7695 37.9648 25.7695 55.7069C25.7695 73.4489 38.7679 87.8317 54.8021 87.8317Z" fill="#D0F500" stroke="black" stroke-linecap="round" stroke-linejoin="round"></path><path d="M40.8237 33.3412C36.8931 38.9837 28.1803 39.769 21.362 35.0924C15.4465 31.036 13.1176 23.8577 15.1157 18.4336C11.6792 25.1334 13.4065 32.721 20.1881 37.3689C27.0011 42.0494 35.7192 41.2602 39.6498 35.6164C40.1613 34.8823 40.5761 34.0862 40.884 33.2476L40.8237 33.3412Z" fill="white" stroke="black" stroke-linecap="round" stroke-linejoin="round"></path><path d="M17.8663 70.3125L14.7734 71.3729L17.9134 72.374L20.9579 71.2159L17.8663 70.3125Z" fill="white" stroke="black" stroke-linecap="round" stroke-linejoin="round"></path><path d="M18.2086 67.5625H17.5215V71.3419H18.2086V67.5625Z" fill="black" stroke="black" stroke-linecap="round" stroke-linejoin="round"></path><path d="M14.7734 71.3438L17.8657 72.2955V79.5897L14.7734 78.7126V71.3438Z" fill="white" stroke="black" stroke-linecap="round" stroke-linejoin="round"></path><path d="M17.9129 79.6952L17.5215 79.5898V81.9949H18.2086V79.6047L17.9129 79.6952Z" fill="black" stroke="black" stroke-linecap="round" stroke-linejoin="round"></path><path d="M20.9594 71.3438L17.8672 72.4251V79.5897L20.9594 78.6369V71.3438Z" fill="black" stroke="black" stroke-linecap="round" stroke-linejoin="round"></path><path d="M103.71 45.5703L97.5781 47.154L103.761 49.0061L109.603 47.3215L103.71 45.5703Z" fill="white" stroke="black" stroke-linecap="round" stroke-linejoin="round"></path><path d="M103.762 41.4531H103.418V47.294H103.762V41.4531Z" fill="white" stroke="black" stroke-linecap="round" stroke-linejoin="round"></path><path d="M97.5781 47.1211L103.763 48.9896V57.2567L97.5781 55.5017V47.1211Z" fill="white" stroke="black" stroke-linecap="round" stroke-linejoin="round"></path><path d="M103.647 57.3595L103.418 57.2539V60.6897H103.762V57.3017L103.647 57.3595Z" fill="white" stroke="black" stroke-linecap="round" stroke-linejoin="round"></path><path d="M109.603 47.2891L103.762 49.0179V57.2529L109.603 55.4283V47.2891Z" fill="black" stroke="black" stroke-linecap="round" stroke-linejoin="round"></path><path d="M54.8008 81.9935C67.9887 81.9935 78.6797 70.1489 78.6797 55.5378C78.6797 40.9267 67.9887 29.082 54.8008 29.082C41.6128 29.082 30.9219 40.9267 30.9219 55.5378C30.9219 70.1489 41.6128 81.9935 54.8008 81.9935Z" fill="white" stroke="black" stroke-linecap="round" stroke-linejoin="round"></path><path d="M24.2219 36.6427L22.6758 38.7042C28.979 41.8411 36.201 40.6505 39.6649 35.5883C40.1709 34.8503 40.6407 34.1283 40.9452 33.2852L40.8856 33.3753C37.5085 38.3042 30.4085 39.4829 24.2219 36.6427Z" fill="black" stroke="black" stroke-linecap="round" stroke-linejoin="round"></path><path d="M40.9261 33.4986C44.8969 27.7535 42.5783 19.2689 35.7475 14.5479C28.9167 9.82681 20.1603 10.657 16.1896 16.4022C12.2189 22.1473 14.5375 30.6319 21.3683 35.3529C28.1991 40.074 36.9554 39.2438 40.9261 33.4986Z" fill="#D0F500" stroke="black" stroke-linecap="round" stroke-linejoin="round"></path><path d="M65.4504 65.1888L67.4205 55.9202C67.4221 55.9127 67.4237 55.9052 67.4326 55.8994C67.4416 55.8936 67.4431 55.8862 67.4505 55.8879L70.7871 54.7952C70.796 54.7894 70.8034 54.7911 70.8107 54.7928C70.818 54.7945 70.8254 54.7962 70.8311 54.8054C70.8369 54.8146 70.8442 54.8163 70.8426 54.8238C70.8484 54.833 70.8468 54.8405 70.8452 54.848L68.0979 67.773C68.0963 67.7805 68.0947 67.7879 68.0858 67.7937C68.0769 67.7995 68.0753 67.807 68.0679 67.8053L51.3202 73.3556C51.3113 73.3614 51.3039 73.3597 51.2966 73.358C51.2893 73.3564 51.2819 73.3547 51.2762 73.3455L41.9602 64.3718C41.9544 64.3626 41.9487 64.3535 41.9503 64.346C41.9445 64.3368 41.9461 64.3293 41.9477 64.3218C41.9493 64.3143 41.9509 64.3068 41.9598 64.301C41.9687 64.2952 41.9703 64.2877 41.9777 64.2894L45.3216 63.1985C45.3305 63.1927 45.3379 63.1944 45.3452 63.1961C45.3526 63.1978 45.3599 63.1995 45.3657 63.2087L52.0645 69.6366C52.0703 69.6457 52.0776 69.6474 52.0849 69.6491C52.0923 69.6508 52.0996 69.6525 52.1086 69.6467L65.4099 65.2344C65.4188 65.2286 65.4262 65.2303 65.4278 65.2228C65.4399 65.2021 65.4415 65.1946 65.4504 65.1888Z" fill="black"></path><path d="M71.8792 49.9701C71.8734 49.961 71.875 49.9536 71.8677 49.9519L58.9118 37.6913C58.9061 37.6822 58.8987 37.6805 58.8913 37.6788C58.884 37.6771 58.8766 37.6754 58.8677 37.6811L42.1435 43.1129C42.1361 43.1112 42.1272 43.1169 42.1256 43.1242C42.1241 43.1316 42.1151 43.1373 42.1136 43.1447L38.3662 60.811C38.3646 60.8184 38.3631 60.8258 38.3688 60.8349C38.3746 60.844 38.3731 60.8514 38.3804 60.8531C38.3878 60.8548 38.392 60.8713 38.3993 60.873C38.4067 60.8747 38.4141 60.8764 38.423 60.8707L44.8075 58.7609C44.8164 58.7552 44.8238 58.7569 44.8311 58.7586C44.8385 58.7603 44.8459 58.762 44.8516 58.7711L52.7632 66.2913C52.769 66.3004 52.7764 66.3021 52.7837 66.3038C52.7911 66.3055 52.7985 66.3072 52.8074 66.3015L63.094 62.9749C63.1029 62.9692 63.1103 62.9709 63.1119 62.9636C63.1208 62.9579 63.1224 62.9505 63.1239 62.9431L64.3844 57.013C64.386 57.0056 64.3802 56.9965 64.3818 56.9891L65.4206 52.1016L71.843 50.0316C71.8519 50.0259 71.8593 50.0276 71.8609 50.0202C71.8624 50.0128 71.8714 50.0071 71.8729 49.9997C71.8745 49.9923 71.885 49.9792 71.8792 49.9701ZM47.1762 47.8352C47.1672 47.8409 47.1583 47.8466 47.1494 47.8523C47.1404 47.858 47.1389 47.8654 47.1357 47.8802L45.5923 55.1412C45.5908 55.1486 45.5876 55.1634 45.5787 55.1691C45.5698 55.1748 45.5608 55.1805 45.5519 55.1862L42.6497 56.1296C42.6407 56.1353 42.6334 56.1336 42.6186 56.1302C42.6113 56.1285 42.5966 56.1251 42.5908 56.116C42.585 56.1069 42.5792 56.0978 42.5734 56.0887C42.5676 56.0796 42.5692 56.0722 42.5724 56.0574L44.7806 45.6687C44.7821 45.6613 44.7853 45.6465 44.7942 45.6408C44.8031 45.6351 44.8121 45.6294 44.821 45.6237L58.0755 41.2991C58.0844 41.2934 58.0918 41.2951 58.1065 41.2985C58.1139 41.3002 58.1286 41.3036 58.1344 41.3127L65.7983 48.5817C65.8041 48.5908 65.8099 48.5999 65.8156 48.609C65.8214 48.6181 65.8199 48.6255 65.8167 48.6403C65.8136 48.6551 65.812 48.6625 65.8031 48.6682C65.7941 48.6739 65.7852 48.6796 65.7763 48.6853L62.9035 49.6355C62.8945 49.6412 62.8872 49.6395 62.8725 49.6361C62.8651 49.6344 62.8504 49.631 62.8446 49.6219L57.4596 44.5234C57.4538 44.5144 57.4465 44.5127 57.4318 44.5093C57.4244 44.5076 57.4097 44.5042 57.4008 44.5099L47.1762 47.8352ZM60.4449 60.4396C60.4359 60.4453 60.4344 60.4527 60.427 60.451L53.557 62.6659C53.5481 62.6716 53.5407 62.6699 53.5334 62.6682C53.526 62.6665 53.5186 62.6648 53.5129 62.6557L48.3008 57.6514C48.2935 57.6498 48.295 57.6424 48.2893 57.6333C48.2835 57.6242 48.285 57.6168 48.2866 57.6094L49.8206 50.3927C49.8221 50.3853 49.8237 50.3779 49.8326 50.3722C49.8416 50.3665 49.8431 50.3591 49.8505 50.3608L56.6301 48.1717C56.6391 48.166 56.6464 48.1677 56.6538 48.1694C56.6611 48.1711 56.6685 48.1727 56.6743 48.1818L61.9956 53.1803L60.6 59.7463L60.4569 60.4191C60.4554 60.4265 60.4538 60.4339 60.4449 60.4396Z" fill="black"></path><path d="M38.7974 31.7846C41.988 27.1682 40.0049 20.2676 34.3681 16.3717C28.7312 12.4758 21.5751 13.06 18.3845 17.6764C15.1939 22.2928 17.177 29.1934 22.8139 33.0893C28.4507 36.9851 35.6068 36.401 38.7974 31.7846Z" fill="white" stroke="black" stroke-linecap="round" stroke-linejoin="round"></path><path d="M31.9082 20.5564C32.5015 21.4508 32.4895 22.2337 31.8723 22.905C32.5948 22.8253 33.2181 22.9216 33.7421 23.1939C34.2661 23.4662 34.6807 23.9694 34.986 24.7034C35.14 25.079 35.2197 25.4288 35.2253 25.7529C35.2309 26.077 35.1734 26.3654 35.0529 26.6182C34.9323 26.871 34.7437 27.1125 34.4869 27.3428C34.2301 27.5731 33.9412 27.7767 33.6202 27.9537C33.2991 28.1306 32.9174 28.3073 32.4751 28.4838L33.5129 30.4355L32.2364 30.8751L31.2149 28.9539C30.7728 29.1061 30.4343 29.2197 30.1995 29.2945L31.2251 31.2233L29.9485 31.6628L28.9108 29.7111C28.8113 29.7453 28.6614 29.7954 28.4611 29.8614C28.2608 29.9273 28.1082 29.9784 28.0032 30.0145L26.3453 30.5854L25.8576 29.0962L26.7777 28.7794C27.054 28.6843 27.145 28.499 27.0509 28.2235L25.4149 25.1466L25.5475 25.1009C25.5116 25.1073 25.4661 25.1199 25.4108 25.139L24.2428 22.9423C23.9865 22.62 23.6483 22.5312 23.2283 22.6758L22.3082 22.9926L21.6408 21.7374L23.4022 21.14C23.7558 21.0182 24.0225 20.9233 24.2022 20.8554L23.1766 18.9266L24.4531 18.4871L25.4583 20.3776C25.9061 20.2114 26.2404 20.0902 26.4615 20.0141L25.4644 18.1389L26.741 17.6993L27.7665 19.6281C28.2221 19.5135 28.6394 19.4377 29.0186 19.4008C29.3977 19.3638 29.771 19.3711 30.1384 19.4227C30.5058 19.4742 30.8395 19.5948 31.1397 19.7842C31.4398 19.9736 31.696 20.231 31.9082 20.5564ZM32.344 25.3415C32.2463 25.1578 32.1181 25.0088 31.9592 24.8944C31.8004 24.7801 31.6357 24.6979 31.4653 24.6479C31.2949 24.598 31.0946 24.5748 30.8646 24.5786C30.6345 24.5824 30.4284 24.5975 30.2463 24.624C30.0643 24.6504 29.8476 24.6979 29.5963 24.7663C29.345 24.8347 29.1503 24.8927 29.0121 24.9403C28.874 24.9878 28.6971 25.0518 28.4815 25.132C28.266 25.2123 28.1361 25.26 28.0919 25.2752L29.4674 27.8623C29.5116 27.8471 29.6146 27.8131 29.7762 27.7605C29.9378 27.7079 30.0711 27.6635 30.1761 27.6273C30.2811 27.5912 30.4255 27.5369 30.6093 27.4646C30.7931 27.3922 30.9493 27.3264 31.0779 27.267C31.2066 27.2076 31.3525 27.1317 31.5158 27.0392C31.6792 26.9468 31.8135 26.8583 31.9189 26.7737C32.0243 26.6891 32.1271 26.5903 32.2272 26.4774C32.3273 26.3644 32.3958 26.2503 32.4325 26.135C32.4693 26.0197 32.4827 25.8944 32.4728 25.7589C32.4629 25.6235 32.42 25.4843 32.344 25.3415ZM29.8183 21.9008C29.7288 21.7324 29.6149 21.5951 29.4766 21.4887C29.3384 21.3824 29.1971 21.3043 29.0529 21.2543C28.9086 21.2044 28.738 21.1786 28.541 21.177C28.3441 21.1754 28.1697 21.1857 28.018 21.2077C27.8663 21.2298 27.6855 21.2679 27.4756 21.322C27.2658 21.3762 27.1021 21.425 26.9847 21.4684C26.8672 21.5119 26.7194 21.5658 26.5411 21.6302C26.3629 21.6946 26.2544 21.7335 26.2158 21.7468L27.4651 24.0965C27.4928 24.087 27.5888 24.0555 27.7532 24.0019C27.9175 23.9483 28.046 23.9041 28.1386 23.8692C28.2312 23.8343 28.3666 23.7816 28.5449 23.7112C28.7232 23.6407 28.8677 23.5744 28.9785 23.5121C29.0892 23.4498 29.2166 23.3727 29.3606 23.2809C29.5046 23.189 29.6135 23.0957 29.6873 23.0009C29.7611 22.906 29.8267 22.8019 29.8841 22.6886C29.9416 22.5753 29.9639 22.4514 29.9513 22.3169C29.9386 22.1824 29.8943 22.0437 29.8183 21.9008Z" fill="black"></path></svg>