<svg width="120" height="120" viewBox="0 0 120 120" fill="none" xmlns="http://www.w3.org/2000/svg" class="wh-120px flex-shrink-0"><path d="M62.2105 16.5625C60.1213 16.5625 58.1038 17.1731 56.1953 18.31C65.0689 23.6007 71.5523 40.2977 71.5523 60.0784C71.5523 79.8592 65.0726 96.5561 56.1953 101.847C58.1038 102.984 60.1213 103.596 62.2105 103.596C74.0106 103.596 83.5778 84.1121 83.5778 60.0784C83.5778 36.0448 74.0106 16.5625 62.2105 16.5625Z" fill="black" stroke="black" stroke-linecap="round" stroke-linejoin="round"></path><path d="M117.993 70.6895C118.016 71.1358 117.912 71.5795 117.694 71.9696C117.476 72.3597 117.153 72.6805 116.761 72.8953L76.928 94.9907C75.9326 95.5427 74.8097 95.8239 73.6715 95.8061C72.5334 95.7883 71.4199 95.4721 70.4422 94.8891L3.21711 54.8062C2.86153 54.5963 2.56744 54.2965 2.3644 53.937C2.16136 53.5774 2.05653 53.1707 2.06041 52.7578V55.07C2.06725 55.4716 2.17707 55.8647 2.3794 56.2117C2.58172 56.5586 2.86974 56.8478 3.21587 57.0516L70.4409 97.1345C71.4186 97.7174 72.5322 98.0336 73.6703 98.0514C74.8084 98.0693 75.9313 97.7881 76.9268 97.236L116.759 75.1406C117.13 74.9385 117.441 74.6411 117.659 74.2791C117.876 73.917 117.993 73.5035 117.998 73.081V70.6945L117.993 70.6895Z" fill="white" stroke="black" stroke-linecap="round" stroke-linejoin="round"></path><path d="M44.3399 27.8741L3.28603 50.6928C2.92167 50.8953 2.61712 51.1902 2.40305 51.5479C2.18898 51.9056 2.07295 52.3134 2.06668 52.7302C2.0604 53.1469 2.16409 53.558 2.36728 53.922C2.57048 54.2859 2.86602 54.5899 3.22411 54.8033L70.4492 94.8862C71.4269 95.4691 72.5404 95.7853 73.6785 95.8032C74.8167 95.821 75.9396 95.5398 76.935 94.9877L116.768 72.8923C117.136 72.6885 117.443 72.3916 117.66 72.0313C117.877 71.671 117.995 71.26 118.003 70.8396C118.01 70.4193 117.907 70.0043 117.704 69.6363C117.5 69.2684 117.203 68.9604 116.843 68.7434L49.212 27.9608C48.4795 27.5186 47.6431 27.2777 46.7876 27.2625C45.9321 27.2473 45.0877 27.4583 44.3399 27.8741Z" fill="white" stroke="black" stroke-linecap="round" stroke-linejoin="round"></path><path d="M116.838 68.7468L66.2517 38.2422L64.4473 91.3141L70.4439 94.8895C71.4216 95.4725 72.5351 95.7887 73.6732 95.8065C74.8114 95.8243 75.9343 95.5432 76.9297 94.9911L116.762 72.8957C117.13 72.6919 117.438 72.395 117.655 72.0347C117.871 71.6744 117.99 71.2634 117.997 70.843C118.005 70.4226 117.902 70.0076 117.698 69.6397C117.495 69.2717 117.198 68.9638 116.838 68.7468Z" fill="white" stroke="black" stroke-linecap="round" stroke-linejoin="round"></path><path d="M49.207 27.9672C48.4751 27.5259 47.6396 27.2855 46.7851 27.2703C45.9305 27.2551 45.0871 27.4656 44.3399 27.8805L3.28603 50.6992C2.92167 50.9017 2.61712 51.1966 2.40305 51.5543C2.18898 51.9119 2.07295 52.3197 2.06668 52.7365C2.0604 53.1533 2.16409 53.5644 2.36728 53.9283C2.57048 54.2923 2.86602 54.5963 3.22411 54.8096L23.8099 67.084L55.5715 31.8015L49.207 27.9672Z" fill="white" stroke="black" stroke-linecap="round" stroke-linejoin="round"></path><path d="M116.763 72.8959L76.9305 94.9913C76.131 95.4348 75.2469 95.7045 74.3359 95.7827V98.0243C75.2469 97.9461 76.131 97.6765 76.9305 97.2329L116.763 75.1375C117.134 74.9354 117.445 74.638 117.662 74.276C117.88 73.914 117.997 73.5004 118.002 73.0779V70.6914C118.023 71.1381 117.919 71.582 117.7 71.9719C117.481 72.3618 117.156 72.6821 116.763 72.8959Z" fill="black" stroke="black" stroke-linecap="round" stroke-linejoin="round"></path><path d="M106.284 32.1027C106.234 32.0097 106.177 31.9204 106.115 31.8352L105.187 30.375C106.396 32.6042 104.261 36.6714 100.206 39.7031C95.9591 42.8785 91.2171 43.7132 89.6133 41.5682L90.5595 43.0655C90.5904 43.12 90.6251 43.1745 90.661 43.2265V43.2327C90.6784 43.2575 90.6957 43.2835 90.7143 43.307C92.3181 45.4533 97.0614 44.6173 101.308 41.4419C105.368 38.404 107.504 34.3306 106.284 32.1027Z" fill="black" stroke="black" stroke-linecap="round" stroke-linejoin="round"></path><path d="M100.201 39.6588C104.447 36.4834 106.589 32.1703 104.985 30.0253C103.38 27.8802 98.6378 28.7156 94.3916 31.891C90.1454 35.0664 88.0035 39.3795 89.6076 41.5245C91.2117 43.6696 95.9543 42.8343 100.201 39.6588Z" fill="white" stroke="black" stroke-linecap="round" stroke-linejoin="round"></path><path d="M16.314 83.3497C12.5329 79.4572 10.5242 75.1969 11.5942 73.5039L10.5786 74.6544C10.5625 74.6681 10.5464 74.6817 10.5316 74.6965C9.01942 76.1654 11.0369 80.6932 15.0359 84.8098C19.0349 88.9265 23.502 91.0728 25.0142 89.6052L25.0749 89.542C25.103 89.5117 25.1294 89.4798 25.1541 89.4467L26.1115 88.2924C24.4532 89.4504 20.1668 87.3128 16.314 83.3497Z" fill="black" stroke="black" stroke-linecap="round" stroke-linejoin="round"></path><path d="M26.2931 88.1592C27.8047 86.6908 25.7882 82.1632 21.7891 78.0465C17.79 73.9299 13.3227 71.783 11.8111 73.2514C10.2996 74.7198 12.3161 79.2474 16.3152 83.364C20.3143 87.4807 24.7816 89.6276 26.2931 88.1592Z" fill="white" stroke="black" stroke-linecap="round" stroke-linejoin="round"></path><path d="M84.4414 69.1473L97.9803 77.6742L108.139 71.8757L97.096 65.1496L91.2232 65.0195L84.4414 69.1473Z" fill="white" stroke="black" stroke-linecap="round" stroke-linejoin="round"></path><path d="M101.903 71.0329L99.1957 69.4898L101.756 67.9838L100.113 66.9844L97.5102 68.53L95.058 67.133L90.8547 69.7796L93.1149 71.1394L90.2812 72.8225L91.8504 73.8108L94.7348 72.1141L97.1844 73.5879L101.903 71.0329Z" fill="#D0F500" stroke="black" stroke-linecap="round" stroke-linejoin="round"></path><path d="M57.3734 66.7201C66.469 66.7201 73.8425 62.4761 73.8425 57.2409C73.8425 52.0057 66.469 47.7617 57.3734 47.7617C48.2778 47.7617 40.9043 52.0057 40.9043 57.2409C40.9043 62.4761 48.2778 66.7201 57.3734 66.7201Z" fill="white" stroke="black"></path><path d="M73.904 60.528C73.904 60.4475 73.904 60.367 73.904 60.2865L73.8755 57.8468C73.3331 62.8341 66.155 66.7823 57.378 66.7823C48.248 66.7823 40.8457 62.5096 40.8457 57.2461L40.8643 60.1032C40.8531 60.2457 40.8457 60.3881 40.8457 60.533C40.8457 65.8026 48.248 70.0692 57.378 70.0692C66.4311 70.0692 73.7827 65.8683 73.9065 60.6568V60.5961C73.9028 60.5751 73.904 60.5516 73.904 60.528Z" fill="white" stroke="black" stroke-linecap="round" stroke-linejoin="round"></path><path d="M62.2109 103.594H62.3608" stroke="black" stroke-linecap="round" stroke-linejoin="round"></path><path d="M61.7087 66.4504C60.2746 66.6732 58.8253 66.7842 57.3741 66.7823C48.2441 66.7823 40.8418 62.5096 40.8418 57.2461L40.8604 60.1032C40.8492 60.2457 40.8418 60.3881 40.8418 60.533C40.8418 65.8026 48.2441 70.0692 57.3741 70.0692C58.8253 70.0704 60.2745 69.9595 61.7087 69.7373V66.4504Z" fill="black" stroke="black" stroke-linecap="round" stroke-linejoin="round"></path><path d="M54.1083 60.429C63.4296 60.429 70.986 56.0797 70.986 50.7145C70.986 45.3493 63.4296 41 54.1083 41C44.7869 41 37.2305 45.3493 37.2305 50.7145C37.2305 56.0797 44.7869 60.429 54.1083 60.429Z" fill="white" stroke="black"></path><path d="M71.0483 54.0769C71.0483 53.9939 71.0483 53.9122 71.0421 53.8292L71.0124 51.3287C70.4563 56.4374 63.1011 60.4835 54.1086 60.4835C44.9799 60.4835 37.5392 56.3148 37.1837 51.0972C37.1837 51.0786 37.1837 51.0587 37.1837 51.0402C37.1776 50.9299 37.1738 50.8185 37.1738 50.707L37.1912 53.6348C37.18 53.7809 37.1738 53.9283 37.1738 54.0756C37.1738 59.4754 44.7582 63.8521 54.1135 63.8521C63.3896 63.8521 70.9232 59.5484 71.0495 54.2119V54.1487C71.0471 54.1264 71.0483 54.1017 71.0483 54.0769Z" fill="white" stroke="black" stroke-linecap="round" stroke-linejoin="round"></path><path d="M50.8851 60.3129C43.2859 59.4683 37.4961 55.6935 37.184 51.1049C37.184 51.0864 37.184 51.0666 37.184 51.048C37.1778 50.9378 37.1741 50.8263 37.1741 50.7148L37.1914 53.6426C37.1803 53.7887 37.1741 53.9361 37.1741 54.0835C37.1741 58.8466 43.0766 62.8134 50.8901 63.6828L50.8851 60.3129Z" fill="black" stroke="black" stroke-linecap="round" stroke-linejoin="round"></path><path d="M56.4477 101.994C47.4466 96.8719 40.8431 80.0462 40.8431 60.0784C40.8431 36.2888 50.217 16.9576 61.8536 16.5687H51.1793C51.0629 16.5687 50.9465 16.5625 50.8301 16.5625C39.3223 16.5625 29.9941 36.0448 29.9941 60.0784C29.9941 84.1121 39.3223 103.594 50.8301 103.596H62.2116C60.2152 103.596 58.2831 103.037 56.4502 101.994H56.4477Z" fill="white" stroke="black" stroke-linecap="round" stroke-linejoin="round"></path><path d="M50.8272 103.597H62.2087C60.2123 103.597 58.2803 103.039 56.4474 101.996C49.2024 97.8731 43.5104 86.1684 41.5648 71.3477H30.6973C33.0739 89.9159 41.1808 103.596 50.8272 103.597Z" fill="#D0F500" stroke="black" stroke-linecap="round" stroke-linejoin="round"></path><path d="M56.5284 54.7134L60.1668 52.4398C60.1697 52.438 60.1727 52.4362 60.1787 52.4359C60.1847 52.4356 60.1876 52.4338 60.1907 52.4353L62.1198 52.6275C62.1258 52.6272 62.1289 52.6288 62.132 52.6303C62.135 52.6319 62.1381 52.6334 62.1382 52.6368C62.1383 52.6402 62.1414 52.6418 62.1384 52.6436C62.1385 52.647 62.1356 52.6489 62.1326 52.6507L57.0589 55.8212C57.0559 55.823 57.053 55.8248 57.047 55.8251C57.041 55.8254 57.038 55.8272 57.035 55.8257L47.3325 54.8793C47.3265 54.8796 47.3235 54.878 47.3204 54.8765C47.3174 54.8749 47.3143 54.8734 47.3142 54.87L45.4129 51.005C45.4127 51.0016 45.4126 50.9982 45.4156 50.9964C45.4154 50.993 45.4184 50.9911 45.4213 50.9893C45.4243 50.9875 45.4272 50.9856 45.4332 50.9853C45.4392 50.9851 45.4422 50.9832 45.4452 50.9848L47.3774 51.1785C47.3834 51.1782 47.3865 51.1798 47.3895 51.1814C47.3926 51.1829 47.3957 51.1845 47.3958 51.1879L48.7702 53.9602C48.7703 53.9636 48.7733 53.9651 48.7764 53.9667C48.7794 53.9683 48.7825 53.9698 48.7885 53.9695L56.4955 54.72C56.5015 54.7197 56.5046 54.7213 56.5075 54.7194C56.5194 54.7155 56.5224 54.7136 56.5284 54.7134Z" fill="black"></path><path d="M64.0976 51.4077C64.0975 51.4043 64.1005 51.4024 64.0974 51.4009L61.4489 46.0641C61.4488 46.0607 61.4457 46.0591 61.4426 46.0576C61.4396 46.056 61.4365 46.0545 61.4305 46.0547L51.7403 45.1146C51.7373 45.1131 51.7313 45.1133 51.7283 45.1152C51.7254 45.117 51.7194 45.1173 51.7165 45.1191L44.6927 49.5115C44.6897 49.5134 44.6868 49.5152 44.6869 49.5186C44.687 49.522 44.6841 49.5239 44.6871 49.5254C44.6902 49.527 44.6874 49.5322 44.6904 49.5338C44.6935 49.5353 44.6965 49.5369 44.7025 49.5366L48.4125 49.8854C48.4185 49.8851 48.4215 49.8867 48.4246 49.8882C48.4276 49.8898 48.4307 49.8913 48.4308 49.8947L50.0384 53.1629C50.0385 53.1663 50.0416 53.1679 50.0446 53.1694C50.0477 53.171 50.0508 53.1725 50.0568 53.1723L56.0127 53.7545C56.0187 53.7543 56.0217 53.7558 56.0247 53.754C56.0307 53.7537 56.0336 53.7519 56.0366 53.75L58.3955 52.276C58.3985 52.2742 58.3983 52.2708 58.4013 52.2689L60.3455 51.054L64.062 51.4195C64.068 51.4192 64.0711 51.4208 64.074 51.419C64.0769 51.4171 64.0829 51.4168 64.0859 51.415C64.0888 51.4132 64.0978 51.411 64.0976 51.4077ZM52.781 47.1764C52.775 47.1767 52.769 47.177 52.763 47.1772C52.757 47.1775 52.7541 47.1794 52.7482 47.183L49.8598 48.9879C49.8569 48.9897 49.851 48.9934 49.845 48.9937C49.839 48.994 49.833 48.9943 49.827 48.9945L48.1452 48.8316C48.1392 48.8319 48.1361 48.8303 48.13 48.8272C48.127 48.8257 48.1208 48.8225 48.1207 48.8192C48.1206 48.8158 48.1205 48.8124 48.1204 48.809C48.1203 48.8056 48.1232 48.8037 48.1291 48.8001L52.2616 46.2177C52.2646 46.2159 52.2705 46.2122 52.2765 46.2119C52.2825 46.2117 52.2885 46.2114 52.2945 46.2111L59.9801 46.9507C59.9861 46.9504 59.9892 46.9519 59.9953 46.9551C59.9983 46.9566 60.0044 46.9597 60.0046 46.9631L61.5665 50.1246C61.5666 50.128 61.5667 50.1314 61.5668 50.1348C61.5669 50.1382 61.564 50.14 61.5581 50.1437C61.5522 50.1474 61.5493 50.1492 61.5433 50.1495C61.5373 50.1498 61.5313 50.1501 61.5253 50.1504L59.8557 49.9937C59.8497 49.9939 59.8466 49.9924 59.8405 49.9893C59.8375 49.9877 59.8313 49.9846 59.8312 49.9812L58.7311 47.7624C58.731 47.759 58.7279 47.7574 58.7218 47.7543C58.7187 47.7527 58.7126 47.7496 58.7066 47.7499L52.781 47.1764ZM55.4795 52.6554C55.4735 52.6557 55.4706 52.6575 55.4675 52.6559L51.4918 52.2652C51.4858 52.2654 51.4827 52.2639 51.4797 52.2623C51.4766 52.2608 51.4736 52.2592 51.4734 52.2558L50.4291 50.0888C50.4261 50.0872 50.429 50.0854 50.4289 50.082C50.4288 50.0786 50.4317 50.0767 50.4347 50.0749L53.3054 48.2811C53.3084 48.2792 53.3113 48.2774 53.3173 48.2771C53.3233 48.2768 53.3262 48.275 53.3293 48.2766L57.2537 48.6612C57.2597 48.661 57.2628 48.6625 57.2658 48.6641C57.2689 48.6656 57.272 48.6672 57.2721 48.6706L58.3709 50.8521L55.759 52.4842L55.4914 52.6514C55.4884 52.6533 55.4855 52.6551 55.4795 52.6554Z" fill="black"></path></svg>