<svg width="60" height="60" viewBox="0 0 60 60" fill="none" xmlns="http://www.w3.org/2000/svg" class="wh-60px"><path d="M52.9916 49.0964C52.5572 40.7296 47.2485 32.0355 40.0817 27.5784C42.3306 25.1789 43.7206 21.9436 43.7206 18.3809C43.7206 11.0063 37.7892 5 30.5018 5C23.2143 5 17.2829 11.0063 17.2829 18.3858C17.2829 21.9143 18.6487 25.1153 20.8543 27.51C14.1749 31.752 9.12192 40.0357 8.04086 48.808C7.85264 50.323 8.32078 51.8576 9.31979 53.0158C10.3381 54.1985 11.8101 54.8827 13.3593 54.9023C17.4567 54.9462 23.8031 55 30.7817 55C38.2574 55 44.5555 54.9414 47.6442 54.9023C49.1307 54.8876 50.5061 54.2718 51.5245 53.1771C52.5524 52.0628 53.0736 50.6163 52.9916 49.0964ZM30.5018 8.03001C36.1387 8.03001 40.7284 12.6728 40.7284 18.3858C40.7284 21.6748 39.1985 24.6071 36.8288 26.5033C36.6696 26.5815 36.5296 26.689 36.4041 26.8258C34.7343 28.0281 32.7025 28.7416 30.5018 28.7416C24.8648 28.7416 20.2751 24.0988 20.2751 18.3858C20.2751 12.6728 24.8648 8.03001 30.5018 8.03001ZM30.3811 33.9415H30.6755L31.8145 42.0687L30.4245 43.8476L29.189 42.1127L30.3811 33.9415ZM49.343 51.0952C48.8894 51.5839 48.2765 51.8576 47.6104 51.8674C44.5265 51.9016 38.2429 51.9651 30.7817 51.9651C23.8175 51.9651 17.4808 51.9113 13.3931 51.8674C12.6981 51.8576 12.0321 51.5497 11.5736 51.017C11.1296 50.499 10.9269 49.849 11.0089 49.1795C12.0128 41.0424 17.0078 33.1253 23.277 29.5773C24.6621 30.496 26.2258 31.1656 27.9053 31.5028C27.7557 31.7032 27.6495 31.9377 27.6109 32.2016L26.1389 42.274C26.081 42.6649 26.1775 43.0657 26.4044 43.3833L29.1553 47.2393C29.4303 47.6254 29.8647 47.855 30.3328 47.8648H30.3666C30.8203 47.8648 31.2546 47.6547 31.5394 47.293L34.5557 43.4371C34.8115 43.1097 34.9225 42.6943 34.8646 42.2837L33.4505 32.2114C33.4119 31.9426 33.3057 31.6983 33.1465 31.4979C34.7681 31.1607 36.2738 30.5156 37.6203 29.6408C44.4445 33.3892 49.6036 41.4823 50.0042 49.2576C50.0428 49.9467 49.8063 50.5967 49.343 51.0952Z" fill="currentColor"></path></svg>