<svg width="48" height="48" viewBox="0 0 48 48" fill="none" xmlns="http://www.w3.org/2000/svg"><path d="M38.1071 24V11.4238C38.1071 8.93855 36.0923 6.92383 33.6071 6.92383H14.1071C11.6218 6.92383 9.60706 8.93855 9.60706 11.4238V36.1876C9.60706 38.6729 11.6218 40.6876 14.1071 40.6876H16" stroke="currentColor" stroke-width="2.7" stroke-linecap="round"></path><path d="M19.65 13.8164H27.9982" stroke="currentColor" stroke-width="2.7" stroke-linecap="round"></path><path d="M36.2524 32.2658C36.1396 32.0658 36.2841 31.8184 36.5137 31.8184H38.2306C38.3417 31.8184 38.4437 31.8798 38.4957 31.978L40.733 36.2033H40.8324L43.0696 31.978C43.1216 31.8798 43.2236 31.8184 43.3347 31.8184H45.0516C45.2812 31.8184 45.4257 32.0658 45.3129 32.2658L41.8516 38.4007V41.7002C41.8516 41.8659 41.7172 42.0002 41.5516 42.0002H40.0138C39.8481 42.0002 39.7138 41.8659 39.7138 41.7002V38.4007L36.2524 32.2658Z" fill="currentColor"></path><path d="M29.3742 41.793C29.334 41.9165 29.2189 42.0002 29.0889 42.0002H27.4209C27.2148 42.0002 27.0701 41.7971 27.1374 41.6023L30.4451 32.0205C30.4869 31.8995 30.6008 31.8184 30.7287 31.8184H33.0752C33.2032 31.8184 33.3171 31.8996 33.3588 32.0206L36.6619 41.6024C36.729 41.7972 36.5843 42.0002 36.3783 42.0002H34.7102C34.5802 42.0002 34.465 41.9165 34.4249 41.7928L31.9418 34.1451H31.8622L29.3742 41.793ZM29.1626 37.998H34.6115V39.6784H29.1626V37.998Z" fill="currentColor"></path><path d="M20.1849 42.0002C20.0192 42.0002 19.8849 41.8659 19.8849 41.7002V32.1184C19.8849 31.9527 20.0192 31.8184 20.1849 31.8184H23.9019C24.6742 31.8184 25.3321 31.9659 25.8757 32.2608C26.4192 32.5525 26.8335 32.9585 27.1186 33.4789C27.4069 33.9959 27.5511 34.5925 27.5511 35.2686C27.5511 35.9448 27.4052 36.5414 27.1136 37.0584C26.8219 37.5755 26.3993 37.9782 25.8458 38.2665C25.2956 38.5549 24.6294 38.699 23.8472 38.699H21.2869V36.9739H23.4992C23.9135 36.9739 24.2549 36.9026 24.5234 36.7601C24.7952 36.6143 24.9973 36.4138 25.1299 36.1586C25.2658 35.9 25.3338 35.6034 25.3338 35.2686C25.3338 34.9306 25.2658 34.6356 25.1299 34.3837C24.9973 34.1285 24.7952 33.9313 24.5234 33.7921C24.2516 33.6496 23.9069 33.5783 23.4893 33.5783H22.0376V41.7002C22.0376 41.8659 21.9033 42.0002 21.7376 42.0002H20.1849Z" fill="currentColor"></path></svg>