<svg width="48" height="48" viewBox="0 0 48 48" fill="none" xmlns="http://www.w3.org/2000/svg"><path d="M23.3262 5.78906C33.2313 5.78932 41.2711 13.7701 41.3682 23.6523C40.5172 22.9993 39.5738 22.4468 38.5596 22.0098C37.8006 15.6009 33.0952 10.4028 26.9385 8.91699C28.9778 11.5886 31.0656 15.7165 31.6455 20.9629C30.7271 21.0561 29.8378 21.2374 28.9873 21.498C28.3556 15.1843 25.2872 10.7595 23.3271 8.89551C22.346 9.82884 21.0948 11.3899 19.9951 13.501C18.7449 15.9013 17.7264 18.9503 17.5146 22.4834H26.6113C25.2835 23.1896 24.1039 24.1054 23.126 25.1836H17.5146C17.9666 32.6543 22.0721 37.6782 24.2041 39.502C24.6331 39.8693 24.7883 40.4653 24.5928 40.9951C24.397 41.5251 23.8912 41.8777 23.3262 41.8779C13.3605 41.8778 5.28125 33.7987 5.28125 23.833C5.28133 13.8674 13.3606 5.78914 23.3262 5.78906ZM8.04199 25.1836C8.62422 31.86 13.4805 37.3111 19.8604 38.7842C17.5645 35.8254 15.1334 31.1974 14.8105 25.1836H8.04199ZM19.7109 8.91797C13.4046 10.4412 8.61939 15.859 8.04199 22.4834H14.8115C15.0268 18.4557 16.1792 14.9816 17.6006 12.2529C18.26 10.9872 18.9849 9.86739 19.7109 8.91797Z" fill="currentColor"></path><path fill-rule="evenodd" clip-rule="evenodd" d="M34.2568 32.4915H38.9084V27.8398H34.2568V32.4915Z" fill="currentColor"></path><path d="M40.9002 32.8092C40.9002 36.6065 37.8219 39.6849 34.0246 39.6849C30.2273 39.6849 27.1489 36.6065 27.1489 32.8092C27.1489 29.0119 30.2273 25.9336 34.0246 25.9336" stroke="currentColor" stroke-width="2.90726"></path></svg>