<svg width="48" height="48" viewBox="0 0 48 48" fill="none" xmlns="http://www.w3.org/2000/svg"><path d="M24 17.2482L28.5793 12.3504C31.3772 9.358 35.761 8.89374 39.0533 11.2412C43.4117 14.3488 44.0223 20.9442 40.3184 24.9056L36.2388 29.2689L34.199 31.4505L28.0796 37.9954L27.5729 38.5374C25.6397 40.605 22.3603 40.605 20.4271 38.5374L19.9204 37.9954L17.8806 35.8138M24 17.2482L19.4207 12.3504C16.6228 9.358 12.239 8.89374 8.94671 11.2412C4.58832 14.3488 3.97771 20.9442 7.68161 24.9056L11.7612 29.2689L13.801 31.4505M24 17.2482L18.2935 22.8285" stroke="currentColor" stroke-width="2.7" stroke-linecap="round"></path></svg>