<svg width="48" height="48" viewBox="0 0 48 48" fill="none" xmlns="http://www.w3.org/2000/svg"><path d="M6.6 11.735C6.6 9.76953 8.19336 8.17617 10.1589 8.17617H17.3585C21.0712 8.17617 24.0809 11.1859 24.0809 14.8985V39.7836H11.3861C8.7428 39.7836 6.6 37.6408 6.6 34.9976V11.735Z" stroke="currentColor" stroke-width="2.7"></path><path d="M41.4 11.735C41.4 9.76953 39.8066 8.17617 37.8411 8.17617H30.6415C26.9288 8.17617 23.9191 11.1859 23.9191 14.8985V39.7836H36.6139C39.2572 39.7836 41.4 37.6408 41.4 34.9976V11.735Z" stroke="currentColor" stroke-width="2.7"></path><rect x="28.0624" y="17.9258" width="7.3633" height="2.7" rx="1.35" fill="currentColor"></rect><rect x="28.0624" y="23.9805" width="4.90887" height="2.7" rx="1.35" fill="currentColor"></rect></svg>