<svg width="48" height="48" viewBox="0 0 48 48" fill="none" xmlns="http://www.w3.org/2000/svg"><path d="M33.5575 26.249C39.7493 19.7523 40.504 12.4139 40.4999 9.19829C40.4986 8.24612 39.7538 7.50128 38.8016 7.50002C35.586 7.49577 28.2482 8.25005 21.7509 14.4424C16.7213 19.2361 15.0281 24.5883 14.5366 26.3789L21.621 33.4633C23.4116 32.9718 28.7638 31.2786 33.5575 26.249Z" stroke="currentColor" stroke-width="2.7" stroke-linecap="round" stroke-linejoin="round"></path><path d="M16.3859 36.6425C15.7905 37.9589 14.4633 38.8769 12.9239 38.8769H9.12402V35.0793C9.12402 33.5398 10.0399 32.2126 11.3585 31.6172" stroke="currentColor" stroke-width="2.7" stroke-linecap="round" stroke-linejoin="round"></path><path d="M33.4213 26.3906L33.954 29.372C34.439 32.085 33.3131 34.8347 31.0656 36.4261L25.3193 40.4987C25.3193 40.4987 26.7115 36.8591 25.9234 31.8273" stroke="currentColor" stroke-width="2.7" stroke-linecap="round" stroke-linejoin="round"></path><path d="M21.6081 14.5782L18.6332 14.0455C15.9159 13.5584 13.1619 14.6864 11.5662 16.9403L7.5 22.6802C7.5 22.6802 11.1396 21.288 16.1714 22.0761" stroke="currentColor" stroke-width="2.7" stroke-linecap="round" stroke-linejoin="round"></path></svg>