<svg width="120" height="120" viewBox="0 0 120 120" fill="none" xmlns="http://www.w3.org/2000/svg" class="wh-120px flex-shrink-0"><path d="M42.9299 13.8656C36.2677 8.97094 29.2568 7.15359 27.0747 9.70997H27.0679L27.0195 9.77594C26.9979 9.80286 26.9737 9.8271 26.9535 9.85537C26.9333 9.88364 26.8875 9.94826 26.8579 9.98999L25.3516 12.0416C27.387 9.26979 34.5405 11.0656 41.3279 16.0518C47.8972 20.8778 51.715 26.9235 50.1103 29.8204C50.1103 29.8204 51.4471 28.0368 51.5333 27.9196C53.5687 25.1411 49.7173 18.8518 42.9299 13.8656Z" fill="white" stroke="black" stroke-miterlimit="10"></path><path d="M27.7061 41.0116C34.8139 35.8114 42.9057 34.7358 45.9521 38.5374L44.5373 36.5989C44.5211 36.576 44.505 36.5505 44.4875 36.5276L44.439 36.4643L44.408 36.4226C41.4061 32.5348 33.259 33.5956 26.1068 38.8228C19.1498 43.9126 15.674 51.0945 18.0608 55.199C18.1492 55.351 18.2454 55.4983 18.3488 55.6405C18.4363 55.7603 18.5292 55.8761 18.6262 55.9865L19.9494 57.828C17.0175 53.8232 20.4893 46.29 27.7061 41.0116Z" fill="white" stroke="black" stroke-miterlimit="10"></path><path d="M99.7923 56.3055L89.8737 77.505L46.2188 53.3129L56.5547 33.7167C56.9455 32.9752 57.4792 32.3183 58.1249 31.7839C58.7707 31.2495 59.5157 30.848 60.3172 30.6026C61.1187 30.3573 61.9608 30.2729 62.7951 30.3543C63.6293 30.4356 64.4393 30.6812 65.1782 31.0769L97.0825 48.1625C98.4899 48.9157 99.5552 50.1796 100.059 51.6943C100.563 53.2089 100.468 54.8591 99.7923 56.3055Z" fill="white" stroke="black" stroke-miterlimit="10"></path><path d="M53.7267 53.9453L84.6025 70.72C85.4943 71.2044 86.5415 71.3161 87.5153 71.0308C88.4892 70.7455 89.3106 70.0864 89.8001 69.1974L96.7921 56.4923C97.0264 56.0666 97.1742 55.5988 97.2272 55.1158C97.2802 54.6328 97.2372 54.1441 97.1007 53.6778C96.9642 53.2115 96.737 52.7767 96.432 52.3984C96.127 52.0202 95.7502 51.7059 95.3234 51.4737L63.7207 34.2831C63.3441 34.0783 62.9307 33.9497 62.5043 33.9047C62.0779 33.8597 61.6469 33.8993 61.2358 34.0211C60.8247 34.1428 60.4416 34.3445 60.1085 34.6144C59.7754 34.8844 59.4988 35.2173 59.2945 35.5943L52.1786 48.7235C51.6919 49.6213 51.5815 50.6757 51.8718 51.6549C52.1621 52.634 52.8293 53.4579 53.7267 53.9453Z" fill="black" stroke="black" stroke-miterlimit="10"></path><path d="M95.3212 51.4743L63.7185 34.2837C63.395 34.1078 63.0441 33.9881 62.6806 33.9297C62.3871 34.1856 62.1418 34.4919 61.9563 34.8343L53.9439 49.6045C53.6941 50.0655 53.6377 50.6067 53.7868 51.1093C53.936 51.6119 54.2787 52.0347 54.7395 52.2847L87.2603 69.9546C87.7182 70.2036 88.222 70.3566 88.7411 70.4042C89.1721 70.0787 89.5295 69.6659 89.7898 69.1926L96.7818 56.4875C97.0155 56.0625 97.1632 55.5956 97.2163 55.1135C97.2694 54.6315 97.2269 54.1436 97.0912 53.678C96.9555 53.2123 96.7294 52.778 96.4256 52.3999C96.1219 52.0217 95.7466 51.7072 95.3212 51.4743Z" fill="white" stroke="black" stroke-miterlimit="10"></path><path d="M46.2201 53.3125L89.8751 77.5045L63.4727 98.5869C61.9127 99.8332 60.0169 100.587 58.027 100.751C56.037 100.916 54.0431 100.485 52.2995 99.5117L22.2125 82.7344C21.5245 82.3511 20.9391 81.8075 20.506 81.1497C20.0729 80.4919 19.8049 79.7393 19.7247 78.9558C19.6445 78.1724 19.7545 77.3811 20.0453 76.6492C20.3362 75.9173 20.7993 75.2664 21.3954 74.7516L46.2201 53.3125Z" fill="white" stroke="black" stroke-miterlimit="10"></path><path d="M53.9806 62.1902L57.8239 64.4463C57.9262 64.506 58.0132 64.5889 58.0777 64.6882C58.1423 64.7875 58.1828 64.9005 58.1959 65.0183C58.2089 65.136 58.1943 65.2552 58.1531 65.3662C58.1119 65.4773 58.0452 65.5772 57.9585 65.6579L37.5223 84.4222C37.3054 84.6212 37.0299 84.7447 36.737 84.7741C36.4441 84.8034 36.1495 84.7371 35.8975 84.5851L32.1766 82.3369C32.0718 82.2737 31.9833 82.1868 31.918 82.0832C31.8527 81.9796 31.8125 81.8622 31.8006 81.7404C31.7887 81.6185 31.8054 81.4956 31.8494 81.3813C31.8935 81.2671 31.9636 81.1647 32.0541 81.0823L52.6721 62.3275C52.8474 62.1687 53.0687 62.0698 53.3039 62.0451C53.5391 62.0205 53.7761 62.0713 53.9806 62.1902Z" fill="white" stroke="black" stroke-miterlimit="10"></path><path d="M104.495 45.7924L71.8045 28.552C70.9722 28.1128 70.0553 27.8576 69.1158 27.8037C68.1763 27.7499 67.2362 27.8985 66.3592 28.2397L62.1174 29.8874C61.7428 30.0336 61.3823 30.2139 61.0405 30.4259C62.4555 30.1646 63.9174 30.393 65.1853 31.0734L97.0896 48.159C98.4976 48.9127 99.563 50.1775 100.067 51.6931C100.57 53.2086 100.474 54.8595 99.7968 56.306L89.8768 77.5068L63.4744 98.5892C61.9144 99.8355 60.0186 100.589 58.0286 100.754C56.0387 100.919 54.0448 100.487 52.3011 99.5141L22.2142 82.7367C21.1716 82.1549 20.3773 81.2124 19.9807 80.0862C19.5841 78.9601 19.6124 77.7278 20.0603 76.6211L15.8509 85.9393C14.393 89.0772 16.2318 91.2499 19.2661 92.9124L49.7946 110.45C53.4979 112.841 58.7507 112.873 61.0095 111.502L104.71 86.6056C105.711 86.0294 106.542 85.1996 107.12 84.1999C107.698 83.2003 108.002 82.066 108.002 80.9113V51.6052C108.002 50.4089 107.675 49.2353 107.057 48.2109C106.439 47.1866 105.553 46.3504 104.495 45.7924Z" fill="white"></path><path d="M89.8768 77.5068L99.7968 56.306C100.474 54.8595 100.57 53.2086 100.067 51.6931C99.563 50.1775 98.4976 48.9127 97.0896 48.159L65.1853 31.0734C63.9174 30.393 62.4555 30.1646 61.0405 30.4259C61.3823 30.2139 61.7428 30.0336 62.1174 29.8874L66.3592 28.2397C67.2362 27.8985 68.1763 27.7499 69.1158 27.8037C70.0553 27.8576 70.9722 28.1128 71.8045 28.552L104.495 45.7924C105.553 46.3504 106.439 47.1866 107.057 48.2109C107.675 49.2353 108.002 50.4089 108.002 51.6052V80.9113C108.002 82.066 107.698 83.2003 107.12 84.1999C106.542 85.1996 105.711 86.0294 104.71 86.6056L61.0095 111.502C58.7507 112.873 53.4979 112.841 49.7946 110.45L19.2661 92.9124C16.2318 91.2499 14.393 89.0772 15.8509 85.9393L20.0603 76.6211C19.6124 77.7278 19.5841 78.9601 19.9807 80.0862C20.3773 81.2124 21.1716 82.1549 22.2142 82.7367L52.3011 99.5141C54.0448 100.487 56.0387 100.919 58.0286 100.754C60.0186 100.589 61.9144 99.8355 63.4744 98.5892L89.8768 77.5068ZM89.8768 77.5068L60.7739 61.3797" stroke="black" stroke-miterlimit="10"></path><path d="M61.008 111.497L104.709 86.6009C105.709 86.0247 106.54 85.1949 107.118 84.1953C107.696 83.1956 108 82.0613 108 80.9066V51.6059C108 50.4109 107.675 49.2384 107.058 48.2148L100.192 52.1322C100.548 53.5271 100.408 55.0022 99.7966 56.3053L89.8753 77.5075L63.4728 98.5899C62.3275 99.5063 60.9948 100.16 59.5689 100.504L58.0801 112.351C59.2593 112.227 60.2865 111.932 61.008 111.497Z" fill="white" stroke="black" stroke-miterlimit="10"></path><path d="M45.4972 103.424C46.2518 103.424 46.8636 102.812 46.8636 102.058C46.8636 101.303 46.2518 100.691 45.4972 100.691C44.7426 100.691 44.1309 101.303 44.1309 102.058C44.1309 102.812 44.7426 103.424 45.4972 103.424Z" fill="black" stroke="black" stroke-miterlimit="10"></path><path d="M49.6808 105.936C50.4354 105.936 51.0472 105.324 51.0472 104.569C51.0472 103.815 50.4354 103.203 49.6808 103.203C48.9262 103.203 48.3145 103.815 48.3145 104.569C48.3145 105.324 48.9262 105.936 49.6808 105.936Z" fill="black" stroke="black" stroke-miterlimit="10"></path><path d="M21.1381 81.9264C20.4594 81.2443 19.9956 80.3782 19.8042 79.4352C19.6127 78.4922 19.7021 77.5138 20.0612 76.6211L15.8503 85.9393C14.8299 88.1349 15.4263 89.8593 16.9165 91.2661L21.1354 81.9264H21.1381Z" fill="black" stroke="black" stroke-miterlimit="10"></path><path d="M23.3655 83.3789L18.9434 92.7321C19.0484 92.7927 19.1547 92.8533 19.2637 92.9125L19.6999 93.1629L24.1086 83.7962L23.3655 83.3789Z" fill="black" stroke="black" stroke-miterlimit="10"></path><path d="M93.1734 82.2148L90.8594 84.5195L93.1734 86.8174L95.5212 84.5155L93.1734 82.2148Z" fill="white" stroke="black" stroke-miterlimit="10"></path><path d="M78.7615 91.6689L82.5241 88.3398L84.3953 90.4372L86.5074 88.5041L88.392 90.6903L90.3763 88.7989L92.3067 90.8814L94.3219 88.9766L96.1716 91.0874L98.308 89.157L101.667 92.9195L97.826 96.289L95.9737 94.1809L93.9154 96.013L91.9379 93.874L89.469 96.1544L102.622 110.6L98.9581 113.91L85.8182 99.4633L83.3628 101.67L85.2541 103.784L83.1783 105.61L85.0751 107.793L81.2748 111.086L77.9121 107.252L80.1319 105.4L78.0831 103.325L80.2894 101.526L78.4506 99.3785L80.4671 97.5921L78.5892 95.4517L80.7094 93.6451L78.7615 91.6689Z" fill="#D0F500" stroke="black" stroke-miterlimit="10"></path><path d="M99.4281 74.5878L104.394 71.8429C104.466 71.8029 104.526 71.7443 104.567 71.6732C104.609 71.6022 104.63 71.5213 104.63 71.4391C104.63 71.3599 104.61 71.282 104.571 71.2129C104.532 71.1439 104.476 71.0862 104.408 71.0455C104.34 71.0048 104.263 70.9824 104.184 70.9806C104.105 70.9788 104.026 70.9976 103.957 71.0352L99.206 73.6629C99.1017 73.7201 99.0147 73.8042 98.9541 73.9065C98.8934 74.0088 98.8614 74.1256 98.8613 74.2445C98.8607 74.3114 98.8774 74.3773 98.91 74.4357C98.9425 74.4941 98.9897 74.543 99.0469 74.5777C99.1041 74.6123 99.1693 74.6315 99.2361 74.6332C99.303 74.635 99.3691 74.6193 99.4281 74.5878Z" fill="#D0F500" stroke="black" stroke-miterlimit="10"></path><path d="M99.4281 77.4563L104.394 74.7101C104.466 74.6704 104.526 74.6119 104.568 74.5407C104.609 74.4696 104.631 74.3886 104.63 74.3062C104.63 74.2271 104.61 74.1491 104.571 74.0801C104.532 74.0111 104.476 73.9534 104.408 73.9127C104.34 73.8719 104.263 73.8496 104.184 73.8478C104.105 73.846 104.026 73.8648 103.957 73.9024L99.206 76.5301C99.1017 76.5873 99.0147 76.6714 98.9541 76.7737C98.8935 76.876 98.8614 76.9928 98.8614 77.1117C98.8605 77.1787 98.877 77.2447 98.9095 77.3033C98.9419 77.3619 98.9891 77.4111 99.0463 77.4459C99.1035 77.4807 99.1689 77.4999 99.2358 77.5018C99.3028 77.5036 99.3691 77.4879 99.4281 77.4563Z" fill="black" stroke="black" stroke-miterlimit="10"></path><path d="M99.4281 80.3821L104.394 77.6359C104.466 77.596 104.526 77.5374 104.567 77.4663C104.609 77.3952 104.63 77.3143 104.63 77.232C104.63 77.1528 104.61 77.0749 104.571 77.0059C104.532 76.9369 104.476 76.8792 104.408 76.8385C104.34 76.7977 104.263 76.7754 104.184 76.7736C104.105 76.7718 104.026 76.7906 103.957 76.8282L99.206 79.4546C99.1016 79.5119 99.0146 79.5963 98.9539 79.6988C98.8933 79.8014 98.8613 79.9183 98.8614 80.0375C98.8605 80.1044 98.877 80.1705 98.9095 80.2291C98.9419 80.2877 98.9891 80.3368 99.0463 80.3716C99.1035 80.4064 99.1689 80.4257 99.2358 80.4275C99.3028 80.4294 99.3691 80.4137 99.4281 80.3821Z" fill="black" stroke="black" stroke-miterlimit="10"></path><path d="M99.4281 83.2649L104.394 80.5187C104.466 80.4789 104.526 80.4203 104.568 80.3492C104.609 80.2781 104.631 80.1971 104.63 80.1148C104.63 80.0357 104.61 79.9577 104.571 79.8887C104.532 79.8197 104.476 79.762 104.408 79.7213C104.34 79.6805 104.263 79.6582 104.184 79.6564C104.105 79.6546 104.026 79.6734 103.957 79.711L99.206 82.3374C99.1016 82.3948 99.0146 82.4792 98.9539 82.5817C98.8933 82.6842 98.8613 82.8012 98.8614 82.9203C98.8605 82.9873 98.877 83.0533 98.9095 83.1119C98.9419 83.1705 98.9891 83.2196 99.0463 83.2545C99.1035 83.2893 99.1689 83.3085 99.2358 83.3104C99.3028 83.3122 99.3691 83.2965 99.4281 83.2649Z" fill="black" stroke="black" stroke-miterlimit="10"></path><path d="M96.6569 52.7075C96.526 52.5055 96.3759 52.3166 96.2086 52.1435C96.1238 52.0573 96.0349 51.9739 95.9394 51.8945C95.7477 51.733 95.5402 51.5914 95.3201 51.4717L86.819 46.8477L76.7793 64.2604L87.2633 69.9574C87.7211 70.2064 88.225 70.3595 88.7441 70.407C88.7952 70.368 88.8464 70.3276 88.8962 70.2858C88.9446 70.2454 88.9918 70.2024 89.0389 70.1593C89.0833 70.1176 89.1277 70.0745 89.1735 70.0247L89.187 70.0126C89.2273 69.9709 89.2664 69.9277 89.3041 69.8847L89.3229 69.8631C89.3593 69.8214 89.3929 69.7797 89.4266 69.7366C89.4358 69.7269 89.4444 69.7166 89.4522 69.7057C89.4831 69.6653 89.5141 69.6249 89.5437 69.5818L89.5733 69.5427C89.6016 69.501 89.6298 69.4593 89.6568 69.4162L89.685 69.3732C89.72 69.3166 89.7537 69.2587 89.786 69.1995L96.778 56.4943C97.0765 55.9553 97.2339 55.3497 97.2357 54.7335C97.2371 54.6144 97.2317 54.4953 97.2196 54.3768C97.169 53.7832 96.976 53.2106 96.6569 52.7075Z" fill="white" stroke="black" stroke-miterlimit="10"></path><path d="M37.5213 84.4227L56.6989 66.8175L53.9796 65.2209C53.7747 65.1001 53.5366 65.048 53.2999 65.0722C53.0633 65.0964 52.8406 65.1957 52.6644 65.3556L33.2715 82.9904L35.8898 84.5722C36.1411 84.7276 36.4362 84.7971 36.7305 84.7701C37.0248 84.7432 37.3024 84.6212 37.5213 84.4227Z" fill="black" stroke="black" stroke-miterlimit="10"></path><path d="M51.0997 86.5645L60.8015 92.2332C61.7598 92.793 62.8693 93.0388 63.9744 92.936C65.0794 92.8331 66.1245 92.3868 66.963 91.6597L76.3862 83.4871C76.5751 83.3266 76.7227 83.123 76.8165 82.8935C76.9103 82.664 76.9475 82.4153 76.9251 82.1684C76.9026 81.9215 76.8212 81.6836 76.6876 81.4747C76.554 81.2659 76.3721 81.0923 76.1573 80.9684L66.2118 75.3051C65.2986 74.7712 64.241 74.5369 63.1877 74.6352C62.1345 74.7334 61.1385 75.1593 60.3398 75.853L50.8493 84.0861C50.666 84.2468 50.5238 84.4489 50.4345 84.6757C50.3452 84.9025 50.3114 85.1473 50.3359 85.3898C50.3604 85.6323 50.4425 85.8654 50.5753 86.0698C50.7082 86.2741 50.888 86.4437 51.0997 86.5645Z" fill="white" stroke="black" stroke-miterlimit="10"></path><path d="M71.1223 81.6914C71.12 81.8142 71.0914 81.935 71.0384 82.0458C70.9855 82.1565 70.9094 82.2547 70.8153 82.3335L65.5087 86.9348C65.0367 87.3442 64.4483 87.5956 63.8261 87.6535C63.2039 87.7115 62.5792 87.5731 62.0396 87.2578L56.5755 84.0607C56.4543 83.9922 56.3516 83.895 56.2765 83.7777C56.2014 83.6604 56.1562 83.5264 56.1448 83.3876V85.2722C56.1332 85.4339 56.1677 85.5956 56.2441 85.7385C56.3206 85.8814 56.436 85.9998 56.5769 86.0799L62.0396 89.2717C62.5792 89.587 63.2039 89.7253 63.8261 89.6674C64.4483 89.6094 65.0367 89.3581 65.5087 88.9486L70.8153 84.3474C70.923 84.2573 71.0069 84.1422 71.06 84.0123C71.113 83.8823 71.1334 83.7413 71.1196 83.6016L71.1223 81.6914Z" fill="white" stroke="black" stroke-miterlimit="10"></path><path d="M56.5758 84.0627L62.0386 87.2544C62.5781 87.5697 63.2028 87.708 63.825 87.6501C64.4472 87.5921 65.0357 87.3408 65.5077 86.9314L70.8143 82.3301C70.9211 82.2395 71.0045 82.1244 71.0573 81.9947C71.11 81.8649 71.1307 81.7244 71.1175 81.5849C71.1043 81.4455 71.0576 81.3112 70.9813 81.1937C70.9051 81.0762 70.8016 80.9789 70.6797 80.9099L65.0796 77.7208C64.5658 77.4207 63.9708 77.2891 63.3783 77.3444C62.7858 77.3996 62.2255 77.6391 61.7761 78.0291L56.4305 82.668C56.3274 82.7587 56.2476 82.8727 56.1977 83.0006C56.1477 83.1284 56.1291 83.2663 56.1433 83.4029C56.1575 83.5394 56.2042 83.6705 56.2795 83.7853C56.3547 83.9001 56.4563 83.9952 56.5758 84.0627Z" fill="#D0F500" stroke="black" stroke-miterlimit="10"></path><path d="M35.7734 77.668L35.7864 77.6757C35.7816 77.674 35.7772 77.6714 35.7734 77.668Z" fill="white" stroke="black" stroke-miterlimit="10"></path><path d="M36.1504 53.0526L38.7175 54.5751C43.0441 49.5028 48.4369 47.0689 52.1066 48.8606L50.1492 47.6854C50.0779 47.6397 50.0052 47.5939 49.9311 47.5508L49.7777 47.4647L49.771 47.4499C46.0946 45.4467 40.5658 47.8753 36.1504 53.0526Z" fill="white" stroke="black" stroke-miterlimit="10"></path><path d="M49.7441 30.3158L49.7577 30.2969C49.7535 30.3034 49.749 30.3097 49.7441 30.3158Z" fill="white" stroke="black" stroke-miterlimit="10"></path><path d="M49.9424 30.076C51.9785 27.3041 48.1267 21.0152 41.3391 16.0293C34.5516 11.0433 27.3986 9.24841 25.3625 12.0202C23.3264 14.7921 27.1782 21.081 33.9657 26.0669C40.7533 31.0529 47.9063 32.8478 49.9424 30.076Z" fill="white" stroke="black" stroke-miterlimit="10"></path><path d="M45.9004 20.0417C49.5351 23.8446 51.2851 27.6853 50.1085 29.8176L51.242 28.2466C51.3472 28.1466 51.444 28.0381 51.5314 27.9222C53.0391 25.8693 51.316 21.8873 47.5643 17.9336L45.9004 20.0417Z" fill="black" stroke="black" stroke-miterlimit="10"></path><path d="M38.351 55.5259C45.5681 50.2457 49.0394 42.713 46.1043 38.7012C43.1692 34.6895 34.9392 35.7177 27.7221 40.9979C20.5049 46.2781 17.0337 53.8108 19.9688 57.8226C22.9039 61.8343 31.1339 60.8061 38.351 55.5259Z" fill="white" stroke="black" stroke-miterlimit="10"></path><path d="M17.763 49.4219C17.0899 51.6054 17.1451 53.6287 18.0592 55.1997C18.1476 55.3517 18.2438 55.499 18.3472 55.6412C18.4347 55.761 18.5276 55.8768 18.6246 55.9872L19.9478 57.8287C18.7215 56.1528 18.6151 53.8642 19.4296 51.3806L17.763 49.4219Z" fill="black" stroke="black" stroke-miterlimit="10"></path><path d="M60.207 49.3333L67.8506 46.75L69.466 51.7766L78.134 49.2633" fill="white"></path><path d="M60.207 49.3333L67.8506 46.75L69.466 51.7766L78.134 49.2633" stroke="black" stroke-width="2" stroke-miterlimit="10"></path><path d="M52.1738 68.1513C56.8411 60.2814 56.986 51.7436 52.4976 49.0817C48.0091 46.4198 40.5869 50.6418 35.9196 58.5118C31.2523 66.3818 31.1074 74.9196 35.5958 77.5815C40.0843 80.2433 47.5065 76.0213 52.1738 68.1513Z" fill="#D0F500" stroke="black" stroke-miterlimit="10"></path><path d="M35.9199 58.5C40.4538 50.8551 47.5871 46.6537 52.1062 48.86L50.1489 47.6848C50.0775 47.6391 50.0048 47.5933 49.9308 47.5502L49.7773 47.4641L49.7706 47.4492C45.2677 44.9844 37.9687 49.1993 33.3594 56.9721C28.6923 64.8431 28.5469 73.3805 33.035 76.0419L35.4514 77.4702C31.1127 74.7119 31.3065 66.2808 35.9199 58.5Z" fill="white" stroke="black" stroke-miterlimit="10"></path><path d="M50.6723 67.2593C54.7048 60.4598 55.0142 53.1925 51.3634 51.0275C47.7127 48.8624 41.4842 52.6193 37.4518 59.4189C33.4193 66.2184 33.1099 73.4856 36.7607 75.6507C40.4114 77.8158 46.6399 74.0588 50.6723 67.2593Z" fill="white" stroke="black" stroke-miterlimit="10"></path><path d="M6.76618 99.4023L5 101.169L6.76618 102.896L8.44754 101.15L6.76618 99.4023Z" fill="white" stroke="black" stroke-miterlimit="10"></path><path d="M48.0126 64.2832L48.7742 59.9243C48.7748 59.9208 48.7754 59.9173 48.7788 59.9122C48.7823 59.9072 48.7829 59.9037 48.7857 59.9022L50.064 58.4627C50.0674 58.4576 50.0702 58.4561 50.0731 58.4546C50.0759 58.4531 50.0787 58.4516 50.0809 58.4537C50.0831 58.4557 50.0859 58.4542 50.0853 58.4577C50.0875 58.4597 50.0868 58.4633 50.0862 58.4668L49.0242 64.5453C49.0236 64.5488 49.023 64.5523 49.0196 64.5574C49.0161 64.5624 49.0155 64.5659 49.0127 64.5674L42.5963 71.8198C42.5929 71.8249 42.59 71.8264 42.5872 71.8279C42.5844 71.8294 42.5816 71.8309 42.5794 71.8288L39.0197 70.9553C39.0175 70.9533 39.0153 70.9512 39.0159 70.9477C39.0137 70.9457 39.0144 70.9422 39.015 70.9387C39.0156 70.9351 39.0162 70.9316 39.0196 70.9266C39.0231 70.9216 39.0237 70.918 39.0265 70.9165L40.3076 69.4755C40.311 69.4705 40.3138 69.469 40.3167 69.4675C40.3195 69.466 40.3223 69.4645 40.3245 69.4665L42.8842 70.0846C42.8864 70.0866 42.8892 70.0851 42.892 70.0836C42.8948 70.0821 42.8976 70.0806 42.901 70.0756L47.9971 64.3139C48.0005 64.3089 48.0033 64.3074 48.0039 64.3038C48.0086 64.2918 48.0092 64.2882 48.0126 64.2832Z" fill="black"></path><path d="M50.4872 56.1058C50.485 56.1038 50.4856 56.1003 50.4828 56.1018L45.5537 54.9143C45.5515 54.9123 45.5487 54.9138 45.5458 54.9153C45.543 54.9168 45.5402 54.9183 45.5368 54.9233L39.1316 62.1697C39.1288 62.1712 39.1254 62.1762 39.1247 62.1798C39.1241 62.1833 39.1207 62.1883 39.1201 62.1918L37.6521 70.6086C37.6515 70.6121 37.6509 70.6157 37.6531 70.6177C37.6553 70.6197 37.6547 70.6232 37.6575 70.6217C37.6603 70.6202 37.6619 70.6258 37.6647 70.6243C37.6675 70.6228 37.6703 70.6213 37.6737 70.6163L40.119 67.835C40.1224 67.83 40.1252 67.8285 40.128 67.827C40.1308 67.8255 40.1337 67.824 40.1359 67.826L43.1458 68.5648C43.148 68.5668 43.1508 68.5653 43.1536 68.5638C43.1564 68.5623 43.1593 68.5608 43.1627 68.5558L47.1023 64.1047C47.1057 64.0996 47.1086 64.0981 47.1092 64.0946C47.1126 64.0896 47.1132 64.0861 47.1138 64.0825L47.6076 61.2565C47.6082 61.253 47.606 61.2509 47.6066 61.2474L48.0136 58.9182L50.4732 56.142C50.4767 56.137 50.4795 56.1355 50.4801 56.132C50.4807 56.1285 50.4841 56.1234 50.4847 56.1199C50.4854 56.1164 50.4894 56.1078 50.4872 56.1058ZM41.0464 62.6143C41.043 62.6194 41.0395 62.6244 41.0361 62.6294C41.0327 62.6344 41.0321 62.638 41.0308 62.645L40.4263 66.1054C40.4257 66.1089 40.4244 66.1159 40.421 66.1209C40.4176 66.126 40.4142 66.131 40.4107 66.136L39.2992 67.3939C39.2958 67.3989 39.293 67.4004 39.2873 67.4034C39.2845 67.4049 39.2789 67.4079 39.2767 67.4059C39.2745 67.4038 39.2723 67.4018 39.2701 67.3998C39.2679 67.3978 39.2686 67.3942 39.2698 67.3872L40.1348 62.4363C40.1354 62.4328 40.1366 62.4257 40.14 62.4207C40.1435 62.4157 40.1469 62.4107 40.1503 62.4056L45.2267 56.6544C45.2301 56.6494 45.2329 56.6479 45.2386 56.6449C45.2414 56.6434 45.247 56.6404 45.2492 56.6424L48.165 57.3516C48.1672 57.3537 48.1693 57.3557 48.1715 57.3577C48.1737 57.3597 48.1731 57.3632 48.1719 57.3703C48.1707 57.3773 48.17 57.3809 48.1666 57.3859C48.1632 57.3909 48.1598 57.3959 48.1563 57.401L47.056 58.6528C47.0526 58.6578 47.0498 58.6593 47.0442 58.6623C47.0414 58.6638 47.0358 58.6668 47.0336 58.6648L44.9848 58.1703C44.9826 58.1682 44.9798 58.1697 44.9742 58.1727C44.9714 58.1742 44.9658 58.1772 44.9623 58.1823L41.0464 62.6143ZM46.0945 63.8502C46.0911 63.8552 46.0905 63.8587 46.0876 63.8602L43.4565 66.8301C43.4531 66.8351 43.4503 66.8366 43.4475 66.8381C43.4447 66.8396 43.4419 66.8411 43.4397 66.8391L41.4569 66.3317C41.454 66.3332 41.4547 66.3297 41.4525 66.3277C41.4503 66.3257 41.4509 66.3221 41.4515 66.3186L42.0524 62.8794C42.053 62.8759 42.0536 62.8724 42.057 62.8674C42.0605 62.8623 42.0611 62.8588 42.0639 62.8573L44.6604 59.925C44.6638 59.92 44.6666 59.9185 44.6694 59.917C44.6722 59.9155 44.6751 59.914 44.6773 59.916L46.7019 60.3883L46.1552 63.5174L46.0992 63.8381C46.0985 63.8416 46.0979 63.8451 46.0945 63.8502Z" fill="black"></path><path d="M34.8918 47.9714H34.0357L37.5378 43.9427H41.0752C41.2573 43.9427 41.4774 43.8903 41.6871 43.7971C41.8968 43.7039 42.079 43.5775 42.1936 43.4457C42.3082 43.3139 42.3457 43.1875 42.298 43.0943C42.2503 43.0011 42.1213 42.9488 41.9393 42.9487H38.3857L38.9245 42.3289C39.039 42.1972 39.0765 42.0708 39.0288 41.9776C38.9811 41.8844 38.852 41.832 38.6699 41.832C38.4879 41.832 38.2678 41.8844 38.0581 41.9776C37.8483 42.0708 37.6661 42.1972 37.5515 42.3289L37.0127 42.9487H36.1728C35.0708 42.9487 33.7383 43.2657 32.4686 43.8299C31.199 44.394 30.096 45.1592 29.4025 45.9571C28.7089 46.7549 28.4815 47.5201 28.7703 48.0843C29.0592 48.6484 29.8406 48.9654 30.9426 48.9654H31.7987L28.2967 52.994H24.7269C24.6368 52.994 24.5363 53.0068 24.4313 53.0318C24.3263 53.0568 24.2188 53.0934 24.1149 53.1395C24.0111 53.1857 23.9129 53.2405 23.8259 53.3008C23.739 53.3611 23.6651 53.4257 23.6083 53.491C23.5516 53.5563 23.5131 53.6209 23.4952 53.6812C23.4773 53.7415 23.4803 53.7963 23.5039 53.8425C23.5275 53.8886 23.5714 53.9252 23.633 53.9502C23.6946 53.9752 23.7727 53.988 23.8629 53.988H27.4164L26.8777 54.6078C26.7631 54.7396 26.7256 54.866 26.7733 54.9592C26.8211 55.0524 26.9501 55.1047 27.1322 55.1047C27.3142 55.1047 27.5343 55.0524 27.7441 54.9592C27.9538 54.866 28.136 54.7396 28.2506 54.6078L28.7894 53.988H29.6455C30.7475 53.988 32.08 53.6711 33.3496 53.1069C34.6193 52.5427 35.7223 51.7775 36.4158 50.9797C37.1094 50.1818 37.3368 49.4167 37.0479 48.8525C36.7591 48.2883 35.9777 47.9714 34.8757 47.9714H34.8918ZM31.8067 47.9714C31.4413 47.9714 31.1247 47.9193 30.8751 47.8181C30.6255 47.7169 30.4478 47.5685 30.352 47.3815C30.2562 47.1944 30.2443 46.9723 30.3169 46.7279C30.3895 46.4835 30.5452 46.2216 30.7752 45.9571C31.0051 45.6925 31.3048 45.4306 31.6571 45.1862C32.0094 44.9418 32.4074 44.7197 32.8284 44.5327C33.2494 44.3456 33.6851 44.1972 34.1107 44.096C34.5362 43.9948 34.9433 43.9427 35.3087 43.9427H36.1648L32.6628 47.9714H31.8067ZM30.5257 52.994H29.6696L33.1717 48.9654H34.0278C34.7656 48.9654 35.2887 49.1777 35.4821 49.5554C35.6754 49.9332 35.5232 50.4455 35.0588 50.9797C34.5944 51.5139 33.856 52.0262 33.0058 52.404C32.1557 52.7817 31.2636 52.994 30.5257 52.994Z" fill="black" stroke="black" stroke-width="0.5"></path><path d="M41.7532 21.7229C40.5691 21.1463 39.3383 20.7634 38.3284 20.6565L38.3284 20.6565L38.3139 20.655L37.6608 20.5875L34.5121 17.222L37.5824 17.5396L37.5824 17.5396C37.7706 17.5591 37.9026 17.5252 37.9484 17.4445C37.9943 17.3637 37.9498 17.2426 37.8233 17.1073C37.6968 16.9721 37.4997 16.8351 37.2767 16.7265C37.0539 16.618 36.8234 16.5466 36.6352 16.5272L36.6352 16.5272L33.5504 16.208L33.1133 15.7408L33.1133 15.7408C32.9867 15.6055 32.7897 15.4686 32.5667 15.36C32.3439 15.2516 32.1134 15.1802 31.9252 15.1607C31.737 15.1412 31.6049 15.1751 31.5591 15.2558C31.5132 15.3365 31.5576 15.4577 31.6841 15.5929L31.6841 15.5929L32.1212 16.0602L31.4681 15.9926C30.4555 15.8878 29.7486 16.0705 29.5039 16.5014C29.2592 16.9324 29.4971 17.5765 30.1668 18.2923C30.8364 19.0081 31.8819 19.7357 33.0719 20.3151C34.2617 20.8944 35.4986 21.2782 36.5111 21.383L37.1788 21.4521L40.3274 24.8175L37.2282 24.4969C37.2282 24.4969 37.2282 24.4969 37.2282 24.4969C37.1349 24.4872 37.0545 24.4906 36.9917 24.5069C36.9288 24.5231 36.8847 24.552 36.862 24.5919C36.8393 24.6319 36.8385 24.6822 36.8599 24.7401C36.8813 24.798 36.9245 24.8623 36.9871 24.9292C37.0497 24.9961 37.1303 25.0642 37.2243 25.1296C37.3182 25.195 37.4234 25.2563 37.5338 25.31C37.6442 25.3638 37.7576 25.409 37.8676 25.4431C37.9776 25.4772 38.0821 25.4997 38.1754 25.5094C38.1754 25.5094 38.1754 25.5094 38.1754 25.5094L41.2602 25.8285L41.6973 26.2957L41.6973 26.2957C41.8238 26.431 42.0209 26.5679 42.2439 26.6765C42.4667 26.785 42.6972 26.8563 42.8854 26.8758C43.0736 26.8953 43.2057 26.8614 43.2515 26.7807C43.2974 26.7 43.253 26.5788 43.1265 26.4436L43.1265 26.4436L42.6894 25.9764L43.357 26.0454C44.3696 26.1502 45.0765 25.9675 45.3211 25.5366C45.5659 25.1056 45.328 24.4615 44.6583 23.7457C43.9886 23.0299 42.9432 22.3023 41.7532 21.7229ZM35.5639 20.3705L35.5639 20.3705C35.249 20.338 34.8964 20.262 34.5263 20.1472C34.1563 20.0323 33.7761 19.8808 33.4077 19.7014C33.0393 19.522 32.6897 19.3183 32.379 19.1019C32.0682 18.8855 31.8021 18.6607 31.5958 18.4401C31.3894 18.2196 31.2467 18.0075 31.1758 17.8159C31.105 17.6244 31.1074 17.4571 31.1832 17.3236C31.2589 17.1902 31.4066 17.0933 31.618 17.0386C31.8295 16.9839 32.1003 16.9724 32.4153 17.005L32.4153 17.005L33.0829 17.0741L36.2316 20.4396L35.5639 20.3705ZM42.4243 25.0345L41.7566 24.9654L38.608 21.5999L39.2756 21.669C39.9118 21.7348 40.6875 21.9759 41.4317 22.3382C42.1756 22.7004 42.8268 23.1541 43.2434 23.5993C43.66 24.0446 43.809 24.4463 43.656 24.7157C43.503 24.9853 43.0603 25.1002 42.4243 25.0345Z" fill="black" stroke="black" stroke-width="0.2"></path></svg>