<svg width="60" height="60" viewBox="0 0 60 60" fill="none" xmlns="http://www.w3.org/2000/svg" class="wh-60px"><path d="M53.8366 31.9716C53.7945 34.1864 51.4977 36.4124 47.5361 38.0792C47.1348 38.2485 46.7192 38.4107 46.2922 38.5646C45.5697 36.122 44.5403 33.5613 43.2482 30.9843C44.0895 28.9166 44.788 26.7937 45.3388 24.6304C46.0634 24.8901 46.7592 25.1672 47.4212 25.4638C51.5418 27.3101 53.8797 29.6819 53.8356 31.9706M44.9703 42.2737C45.8016 46.7443 45.191 50.0326 43.2974 51.2949C42.6888 51.7014 41.9407 51.9066 41.0755 51.9066C38.8012 51.9066 35.7992 50.5149 32.6084 47.9861C34.0555 46.4446 35.4688 44.7019 36.8101 42.7981C39.6602 42.521 42.3532 42.0274 44.7794 41.3377C44.8492 41.6528 44.9129 41.9648 44.9703 42.2737ZM27.7078 49.5861C24.1711 52.4064 21.0019 53.3917 19.0129 52.2884C17.025 51.1841 16.1526 47.9564 16.6216 43.4314C16.6976 42.7078 16.8053 41.9617 16.9439 41.2002C19.2079 41.8457 21.6752 42.3322 24.2686 42.6473C25.9159 44.6835 27.6421 46.5236 29.4043 48.1175C28.8398 48.6419 28.2754 49.1335 27.7078 49.5851M13.2625 37.5711C9.14085 35.7238 6.80291 33.353 6.84602 31.0633C6.8881 28.8485 9.18395 26.6225 13.1465 24.9557C13.5478 24.7864 13.9624 24.6242 14.3894 24.4703C15.1119 26.9129 16.1403 29.4705 17.4314 32.0445C16.5878 34.1128 15.8889 36.2372 15.3398 38.4024C14.6369 38.1522 13.9439 37.8749 13.2625 37.5711ZM15.7113 20.7602C14.881 16.2906 15.4916 13.0013 17.3842 11.7389C17.9938 11.3335 18.7409 11.1272 19.6061 11.1272C21.8825 11.1272 24.8855 12.5199 28.0783 15.0529C26.5607 16.6816 25.1572 18.413 23.8776 20.2347C21.0265 20.5128 18.3304 21.0065 15.9032 21.6962C15.8324 21.3811 15.7698 21.0691 15.7113 20.7602ZM33.333 20.0992C31.1291 19.9542 28.9187 19.9319 26.7123 20.0325C27.6561 18.7863 28.6657 17.5914 29.7368 16.4528C31.0059 17.5971 32.207 18.8147 33.334 20.0992M18.5726 29.4202C17.7319 27.6018 17.0219 25.7257 16.4482 23.8063C18.3635 23.2688 20.3152 22.8703 22.2879 22.6137C20.9028 24.7993 19.6617 27.073 18.5726 29.4202ZM22.3823 40.178C20.7013 39.906 19.0379 39.5352 17.4006 39.0675C17.7598 37.606 18.2227 36.0994 18.7799 34.5681C19.8762 36.5031 21.0789 38.376 22.3823 40.178ZM30.9479 46.5842C29.678 45.4389 28.4762 44.2203 27.3486 42.9346C28.6571 43.0214 29.968 43.0648 31.2794 43.065H31.2824C32.1887 43.065 33.0877 43.0434 33.9755 43.0024C33.0314 44.2499 32.0208 45.4456 30.9479 46.5842ZM42.108 33.6116C42.9489 35.4314 43.6588 37.3088 44.2324 39.2296C42.3184 39.767 40.3682 40.1655 38.3968 40.4222C39.7789 38.2341 41.0185 35.9592 42.108 33.6116ZM38.4666 36.0286C37.5916 37.6356 36.6401 39.1997 35.6155 40.7157C34.1739 40.8281 32.7284 40.8843 31.2824 40.8841H31.2804C29.3155 40.8856 27.352 40.7849 25.3976 40.5823C24.4125 39.3197 23.4805 38.0165 22.604 36.6762C21.5999 35.1455 20.6697 33.5676 19.8165 31.948C21.2571 28.5782 23.0167 25.3539 25.0712 22.3191C26.8835 22.1782 28.7015 22.1262 30.5189 22.1631C32.1404 22.1939 33.7353 22.2925 35.2851 22.4536C36.2701 23.7162 37.2021 25.0194 38.0787 26.3597C39.0819 27.8891 40.0115 29.4656 40.8641 31.0838C40.1448 32.7696 39.3447 34.4198 38.4666 36.0286ZM43.2779 23.9674C42.9187 25.4248 42.4569 26.9314 41.8996 28.4626C40.8042 26.5294 39.6026 24.6584 38.3003 22.858C40.0471 23.1453 41.7169 23.5158 43.2779 23.9664M48.2987 23.4717C47.4845 23.1087 46.6551 22.7807 45.8129 22.4885C46.0859 21.0588 46.2584 19.6846 46.321 18.3904C46.3355 18.1028 46.2354 17.8212 46.0426 17.6073C45.8499 17.3933 45.5801 17.2646 45.2926 17.2492C45.1502 17.2428 45.0079 17.2646 44.8739 17.3133C44.74 17.362 44.6169 17.4366 44.5118 17.5329C44.4066 17.6291 44.3215 17.7452 44.2612 17.8744C44.201 18.0035 44.1668 18.1433 44.1606 18.2858C44.098 19.4764 43.9567 20.6617 43.7377 21.8337C41.4737 21.1892 39.0064 20.7017 36.413 20.3876C34.7668 18.3514 33.0405 16.5113 31.2783 14.9174C32.1421 14.1042 33.0593 13.3495 34.0237 12.6585C34.5122 12.3116 34.6292 11.6322 34.2854 11.1396C34.2044 11.0227 34.1011 10.9231 33.9813 10.8465C33.8616 10.7699 33.7279 10.7178 33.5879 10.6931C33.4478 10.6685 33.3044 10.6719 33.1657 10.7031C33.027 10.7342 32.8958 10.7926 32.7798 10.8748C31.6655 11.6741 30.6091 12.5514 29.6188 13.5001L29.5972 13.4826C25.9066 10.5135 22.4521 8.94531 19.6061 8.94531C18.3099 8.94531 17.1615 9.27373 16.1926 9.91825C13.4986 11.7143 12.5739 15.7066 13.5868 21.1615C13.6597 21.5545 13.7428 21.9517 13.8352 22.354C13.3118 22.5398 12.8037 22.7358 12.3142 22.9411C7.45462 24.9865 4.74516 27.8551 4.68461 31.0212C4.62303 34.2777 7.35712 37.3125 12.384 39.5642C13.1972 39.9264 14.0255 40.2538 14.8666 40.5454C14.6977 41.4265 14.5658 42.3144 14.4715 43.2066C13.8998 48.7251 15.1417 52.6291 17.9712 54.2004C18.8343 54.6797 19.8011 54.9168 20.85 54.9168C23.2372 54.9168 26.0513 53.6883 29.0482 51.298C29.745 50.7398 30.4179 50.1522 31.0649 49.5369L31.0854 49.5533C34.776 52.5204 38.2306 54.0896 41.0755 54.0896C42.3727 54.0896 43.5212 53.7612 44.489 53.1166C47.1831 51.3206 48.1088 47.3283 47.0958 41.8724C47.021 41.4732 46.9382 41.0756 46.8475 40.6798C47.3709 40.4951 47.8789 40.2991 48.3684 40.0928C53.228 38.0484 55.9375 35.1798 55.998 32.0137C56.0596 28.7572 53.3255 25.7224 48.2987 23.4717Z" fill="currentColor"></path><path d="M42.1009 16.4293C43.5173 16.4224 44.8745 15.8601 45.8808 14.8632C46.8773 13.8571 47.4396 12.5004 47.4469 11.0843C47.4402 9.66754 46.8779 8.30994 45.8808 7.3034C44.8742 6.3071 43.5171 5.74518 42.1009 5.73828C40.6847 5.74529 39.3276 6.3072 38.321 7.3034C37.3247 8.30997 36.7628 9.66705 36.7559 11.0833C36.7559 12.4832 37.3316 13.8738 38.321 14.8632C39.3273 15.8601 40.6844 16.4224 42.1009 16.4293Z" fill="currentColor"></path></svg>