<svg width="60" height="60" viewBox="0 0 60 60" fill="none" xmlns="http://www.w3.org/2000/svg" class="wh-60px"><path d="M34.6348 9.54288L34.65 9.39062C34.6396 9.4407 34.6345 9.49173 34.6348 9.54288Z" fill="currentColor"></path><path d="M44.9767 29.6693C46.984 27.8954 48.2563 25.3272 48.2563 22.4639C48.2563 17.4978 44.5347 13.3747 39.5995 12.8726C38.6005 12.7714 37.6964 13.5034 37.5934 14.5087C37.4916 15.5141 38.2242 16.4119 39.2295 16.5137C42.289 16.8253 44.5959 19.3827 44.5959 22.4639C44.5959 25.5125 42.3153 28.067 39.2919 28.4067C38.6262 28.481 38.1121 28.919 37.8553 29.488C37.8531 29.4926 37.8508 29.4966 37.8485 29.5006C37.7776 29.6607 37.7375 29.8266 37.7152 30.005C37.7038 30.0713 37.6683 30.128 37.6649 30.1966C37.6621 30.2475 37.6849 30.2915 37.6861 30.3413C37.6878 30.3716 37.6752 30.3985 37.6786 30.4288C37.6838 30.4745 37.7089 30.5111 37.7175 30.5551C37.8422 31.3975 38.509 32.0751 39.3919 32.1243C46.2142 32.5012 51.7836 37.9259 52.3474 44.743C52.4264 45.6992 53.227 46.422 54.1694 46.422C54.2197 46.422 54.2706 46.4203 54.3221 46.4157C55.3291 46.3328 56.0777 45.4487 55.9948 44.4411C55.4372 37.7023 51.0041 32.0528 44.9767 29.6693Z" fill="currentColor"></path><path d="M31.7604 30.6194C34.2852 28.5984 35.9092 25.4972 35.9092 22.0192C35.9092 15.9432 30.9661 11 24.8912 11C18.8163 11 13.8732 15.9432 13.8732 22.0192C13.8732 25.4967 15.4972 28.5984 18.022 30.6194C10.8234 33.2648 5.42964 39.9087 4.76799 47.9022C4.68507 48.9092 5.43364 49.7939 6.44069 49.8768C7.47347 49.966 8.3324 49.21 8.41532 48.2041C9.11871 39.6994 16.3562 33.0372 24.8912 33.0372C33.4262 33.0372 40.6637 39.6994 41.3671 48.2041C41.446 49.1603 42.2466 49.8831 43.189 49.8831C43.2394 49.8831 43.2903 49.8814 43.3417 49.8768C44.3488 49.7939 45.0973 48.9092 45.0144 47.9022C44.3528 39.9087 38.959 33.2648 31.7604 30.6194ZM17.5331 22.0192C17.5331 17.9618 20.8338 14.6599 24.8912 14.6599C28.9486 14.6599 32.2493 17.9613 32.2493 22.0192C32.2493 26.0771 28.9486 29.3773 24.8912 29.3773C20.8338 29.3773 17.5331 26.0765 17.5331 22.0192Z" fill="currentColor"></path></svg>