<svg width="48" height="48" viewBox="0 0 48 48" fill="none" xmlns="http://www.w3.org/2000/svg"><path fill-rule="evenodd" clip-rule="evenodd" d="M23.7666 7.32891C14.6887 7.32891 7.32952 14.6881 7.32952 23.766C7.32952 32.844 14.6887 40.2031 23.7666 40.2031C24.5122 40.2031 25.1166 40.8075 25.1166 41.5531C25.1166 42.2987 24.5122 42.9031 23.7666 42.9031C13.1975 42.9031 4.62952 34.3352 4.62952 23.766C4.62952 13.1969 13.1975 4.62891 23.7666 4.62891C34.3358 4.62891 42.9037 13.1969 42.9037 23.766C42.9037 24.5116 42.2993 25.116 41.5537 25.116C40.8082 25.116 40.2037 24.5116 40.2037 23.766C40.2037 14.6881 32.8446 7.32891 23.7666 7.32891Z" fill="currentColor"></path><path fill-rule="evenodd" clip-rule="evenodd" d="M23.7669 16.3738C19.6007 16.3738 16.2233 19.7512 16.2233 23.9174C16.2233 28.0836 19.6007 31.4609 23.7669 31.4609C24.5125 31.4609 25.1169 32.0654 25.1169 32.8109C25.1169 33.5565 24.5125 34.1609 23.7669 34.1609C18.1095 34.1609 13.5233 29.5747 13.5233 23.9174C13.5233 18.26 18.1095 13.6738 23.7669 13.6738C29.4242 13.6738 34.0104 18.26 34.0104 23.9174C34.0104 24.663 33.406 25.2674 32.6604 25.2674C31.9148 25.2674 31.3104 24.663 31.3104 23.9174C31.3104 19.7512 27.9331 16.3738 23.7669 16.3738Z" fill="currentColor"></path><path d="M31.2805 41.9544L41.3424 31.8925M42.7798 39.0796L42.7798 30.4551L34.1553 30.4551" stroke="currentColor" stroke-width="2.7" stroke-linecap="round" stroke-linejoin="round"></path></svg>