<svg width="48" height="48" viewBox="0 0 48 48" fill="none" xmlns="http://www.w3.org/2000/svg"><path d="M19.92 38.8906H12.7241C9.5865 38.8906 7.04297 36.3471 7.04297 33.2095V18.06C7.04297 14.9224 9.5865 12.3789 12.7241 12.3789H32.2298C35.3671 12.3789 37.9104 14.9222 37.9104 18.0595V18.0595" stroke="currentColor" stroke-width="2.7" stroke-linecap="round"></path><path d="M18.4043 28.7576V21.9579C18.4043 21.0748 19.3678 20.5292 20.1251 20.9836L25.7916 24.3835C26.5271 24.8248 26.5271 25.8908 25.7916 26.3321L20.1251 29.7319C19.3678 30.1863 18.4043 29.6408 18.4043 28.7576Z" fill="currentColor"></path><path d="M14.8828 6.31641L17.6278 12.3766" stroke="currentColor" stroke-width="2.7" stroke-linecap="round"></path><path d="M30.4453 6.31641L27.7003 12.3766" stroke="currentColor" stroke-width="2.7" stroke-linecap="round"></path><path d="M37.1699 32.6492C34.556 33.0754 32.0916 31.3019 31.6654 28.6881C31.2392 26.0743 33.0127 23.6099 35.6266 23.1837C38.2404 22.7576 40.7049 24.531 41.131 27.1448C41.5572 29.7586 39.7837 32.223 37.1699 32.6492Z" stroke="currentColor" stroke-width="2.55" stroke-linejoin="round"></path><path d="M31.7605 29.256C31.7547 29.2639 29.9832 32.4296 26.4458 38.753C26.32 38.9666 26.3777 39.2409 26.5789 39.3857L28.8266 41.0032C29.0278 41.148 29.3062 41.1156 29.4687 40.9284L36.3098 32.7889" stroke="currentColor" stroke-width="2.55" stroke-linecap="round" stroke-linejoin="round"></path></svg>