<svg width="60" height="60" viewBox="0 0 60 60" fill="none" xmlns="http://www.w3.org/2000/svg" class="wh-60px"><path d="M41 6.99144L48.4684 8.34966C49.4595 8.53021 50.3559 9.05282 51.0012 9.8264C51.6466 10.6 52 11.5755 52 12.5829V39.0686C52 39.8095 51.8087 40.5379 51.4446 41.1832C51.0804 41.8285 50.5558 42.3688 49.9216 42.7519L33.3347 52.7653C32.3282 53.3732 31.1747 53.6945 29.9988 53.6945C28.823 53.6945 27.6695 53.3732 26.6629 52.7653L10.0784 42.7519C9.44434 42.3689 8.91985 41.8288 8.55573 41.1837C8.19161 40.5387 8.00019 39.8105 8 39.0698V12.5818C7.99995 11.5743 8.35341 10.5988 8.99877 9.82524C9.64412 9.05166 10.5405 8.52905 11.5316 8.3485L19 6.9926C26.2736 5.66913 33.7264 5.66913 41 6.9926V6.99144ZM40.3782 10.4084C33.5157 9.15973 26.4843 9.15973 19.6218 10.4084L12.1534 11.7678C11.9626 11.8027 11.7902 11.9034 11.666 12.0523C11.5418 12.2013 11.4738 12.389 11.4737 12.5829V39.0686C11.4737 39.3581 11.6254 39.6279 11.8743 39.7784L28.46 49.7919C28.9247 50.0725 29.4572 50.2208 30 50.2208C30.5428 50.2208 31.0753 50.0725 31.54 49.7919L48.1257 39.7784C48.2479 39.7046 48.3491 39.6005 48.4192 39.4761C48.4894 39.3518 48.5263 39.2114 48.5263 39.0686V12.5829C48.5262 12.389 48.4582 12.2013 48.334 12.0523C48.2098 11.9034 48.0374 11.8027 47.8466 11.7678L40.3782 10.4084Z" fill="currentColor"></path><path d="M40.5855 20.6831C40.928 20.3837 41.3742 20.2307 41.8283 20.2568C42.2825 20.2829 42.7082 20.4861 43.0141 20.8228C43.32 21.1595 43.4816 21.6027 43.4642 22.0572C43.4467 22.5118 43.2517 22.9413 42.921 23.2536L31.6373 33.5079C30.3891 34.6422 28.7553 35.2578 27.069 35.2292C25.3826 35.2006 23.7707 34.5299 22.5617 33.3539L17.7877 28.7119C17.4633 28.3894 17.2793 27.952 17.2755 27.4946C17.2717 27.0372 17.4484 26.5968 17.7674 26.269C18.0864 25.9411 18.5218 25.7524 18.9792 25.7437C19.4365 25.735 19.8788 25.907 20.21 26.2225L24.984 30.8633C25.5592 31.4225 26.3259 31.7413 27.1279 31.7549C27.9299 31.7684 28.707 31.4757 29.3007 30.9362L40.5855 20.6831Z" fill="currentColor"></path></svg>