<svg width="120" height="120" viewBox="0 0 120 120" fill="none" xmlns="http://www.w3.org/2000/svg" class="wh-120px flex-shrink-0"><path d="M63.5741 16.8779L97.49 29.0019C98.9803 29.5348 100.199 30.6358 100.88 32.0643C101.562 33.4929 101.65 35.133 101.126 36.6264L74.4857 112.501C73.9607 113.996 72.8646 115.222 71.4374 115.911C70.0103 116.6 68.3683 116.695 66.8712 116.175L32.6964 104.326C31.9505 104.067 31.2632 103.663 30.6739 103.138C30.0845 102.613 29.6049 101.976 29.2625 101.265C28.9201 100.553 28.7218 99.7814 28.6788 98.9931C28.6358 98.2048 28.7492 97.4158 29.0122 96.6715L55.907 20.5237C56.1695 19.7798 56.5764 19.095 57.1042 18.5088C57.6321 17.9226 58.2706 17.4465 58.983 17.1077C59.6954 16.769 60.4678 16.5743 61.2557 16.5348C62.0435 16.4954 62.8314 16.612 63.5741 16.8779Z" fill="#D0F500" stroke="black" stroke-miterlimit="10"></path><path d="M95.1302 32.863L86.0784 29.6271C86.0434 29.7353 85.9956 29.8389 85.9361 29.9358L85.2872 30.9988C84.9806 31.4977 84.5122 31.8765 83.9601 32.072C83.4081 32.2675 82.8057 32.2679 82.2534 32.0732L71.5268 28.2638C70.9437 28.0568 70.4644 27.6306 70.1904 27.0759C69.9165 26.5211 69.8696 25.8814 70.0597 25.2926L70.3969 24.2452C70.4193 24.1784 70.4464 24.1133 70.478 24.0503L63.2549 21.4704C62.8888 21.3389 62.5003 21.2812 62.1118 21.3005C61.7233 21.3198 61.3425 21.4157 60.9912 21.5827C60.6399 21.7498 60.3252 21.9846 60.065 22.2738C59.8049 22.563 59.6044 22.9007 59.4753 23.2677L33.2352 97.6737C33.1054 98.0407 33.0496 98.4298 33.0708 98.8185C33.092 99.2072 33.1899 99.5879 33.3588 99.9386C33.5277 100.289 33.7642 100.603 34.0549 100.862C34.3455 101.121 34.6845 101.32 35.0523 101.448L66.3399 112.066C66.7053 112.194 67.0924 112.248 67.4788 112.226C67.8653 112.204 68.2437 112.107 68.5923 111.938C68.941 111.77 69.253 111.535 69.5107 111.246C69.7683 110.957 69.9665 110.62 70.0938 110.255L96.916 36.6225C97.1724 35.8869 97.1287 35.08 96.7945 34.3763C96.4602 33.6727 95.8623 33.129 95.1302 32.863Z" fill="white" stroke="black" stroke-miterlimit="10"></path><path d="M102.207 30.6828L68.2912 18.5587C68.1973 18.5246 68.1034 18.4947 68.0066 18.4648L97.4913 29.005C98.9815 29.538 100.2 30.6389 100.882 32.0675C101.563 33.496 101.651 35.1361 101.127 36.6295L74.487 112.504C73.962 113.999 72.8659 115.225 71.4387 115.914C70.0115 116.603 68.3696 116.698 66.8725 116.178L36.7773 105.743C36.9837 105.843 37.1956 105.93 37.412 106.005L71.5869 117.856C73.0838 118.375 74.7255 118.28 76.1525 117.592C77.5794 116.903 78.6753 115.677 79.2 114.182L105.84 38.3058C106.364 36.813 106.277 35.1732 105.596 33.7449C104.915 32.3165 103.697 31.2156 102.207 30.6828Z" fill="black" stroke="black" stroke-miterlimit="10"></path><path d="M101.125 36.6289L74.4849 112.504C74.4849 112.516 74.475 112.526 74.4707 112.539L79.1794 114.231C79.1794 114.214 79.1922 114.198 79.1979 114.181L101.162 51.626L105.838 38.3052C105.852 38.2639 105.865 38.2227 105.878 38.1814L101.125 36.6289Z" fill="white" stroke="black" stroke-miterlimit="10"></path><path d="M99.2571 49.5742C99.0869 49.5741 98.9208 49.6262 98.7811 49.7234C98.6414 49.8206 98.5349 49.9582 98.4759 50.1178L95.4093 58.3712C95.3801 58.4541 95.3705 58.5426 95.3812 58.6298C95.3919 58.7169 95.4227 58.8005 95.471 58.8738C95.5194 58.9471 95.5841 59.0082 95.66 59.0524C95.736 59.0965 95.8211 59.1225 95.9088 59.1283C96.0545 59.1348 96.1987 59.0949 96.3204 59.0143C96.4421 58.9338 96.5351 58.8168 96.5861 58.68L99.7167 50.2431C99.7446 50.1685 99.7542 50.0882 99.7445 50.0092C99.7348 49.9301 99.7062 49.8546 99.6611 49.789C99.6159 49.7233 99.5557 49.6695 99.4854 49.6321C99.415 49.5948 99.3367 49.5749 99.2571 49.5742Z" fill="black"></path><path d="M73.1207 43.3317C71.9439 42.9823 70.678 43.0962 69.5826 43.6503C68.4872 44.2043 67.6452 45.1565 67.2294 46.3115L51.7301 89.3232C51.5183 89.9081 51.4281 90.53 51.4651 91.1509C51.5021 91.7719 51.6655 92.3787 51.9453 92.9342C52.2251 93.4898 52.6153 93.9824 53.0922 94.3818C53.569 94.7812 54.1224 95.0791 54.7184 95.2572C55.9209 95.6135 57.2141 95.4985 58.3349 94.9355C59.4557 94.3724 60.3199 93.4037 60.7519 92.2261L76.3267 49.7196C76.5572 49.0908 76.6564 48.4216 76.6183 47.753C76.5802 47.0845 76.4057 46.4307 76.1053 45.8322C75.8049 45.2337 75.3851 44.7031 74.8718 44.2731C74.3585 43.843 73.7625 43.5227 73.1207 43.3317Z" fill="black"></path><path d="M50.873 85.7732L50.9291 85.7578" stroke="black" stroke-miterlimit="10"></path><path d="M10.53 106.032L6.19407 96.8537C6.04218 96.5344 6.01642 96.1695 6.12195 95.8321C6.22749 95.4947 6.45654 95.2095 6.76328 95.0337L17.9125 88.6999C18.0503 88.6214 18.2004 88.567 18.3565 88.5391L16.5066 88.8237H16.4966C16.2964 88.8417 16.1023 88.9024 15.9274 89.0015L4.7796 95.3353C4.47276 95.5114 4.24368 95.7969 4.13815 96.1346C4.03263 96.4722 4.05843 96.8373 4.2104 97.1568L8.5463 106.334C8.66714 106.589 8.86193 106.801 9.10534 106.944C9.34875 107.087 9.62949 107.153 9.91096 107.133L9.98069 107.122C10.0213 107.118 10.0617 107.112 10.1016 107.104L12.0156 106.805C11.7178 106.852 11.4127 106.803 11.1452 106.664C10.8777 106.525 10.662 106.303 10.53 106.032Z" fill="black" stroke="black" stroke-miterlimit="10"></path><path d="M18.9294 105.756L16.3481 104.968C16.1649 104.912 15.9721 104.894 15.7817 104.915C15.5913 104.936 15.4073 104.996 15.241 105.092L14.7188 105.389L16.9415 106.069C17.004 106.086 17.0688 106.094 17.1336 106.092H17.1493C17.1806 106.092 17.2104 106.083 17.2403 106.078L19.1842 105.775C19.0989 105.788 19.0119 105.781 18.9294 105.756Z" fill="white" stroke="black" stroke-miterlimit="10"></path><path d="M21.1908 101.685L23.6526 100.278C23.9597 100.102 24.189 99.8164 24.2946 99.4786C24.4001 99.1408 24.3741 98.7756 24.2218 98.4562L19.876 89.3205C19.7932 89.1462 19.6753 88.9909 19.5298 88.8643C19.3843 88.7376 19.2141 88.6423 19.0301 88.5843C18.8461 88.5264 18.6521 88.507 18.4602 88.5274C18.2684 88.5478 18.0828 88.6076 17.915 88.7029L6.76583 95.0367C6.45909 95.2126 6.23004 95.4977 6.12451 95.8352C6.01897 96.1726 6.04474 96.5375 6.19663 96.8567L10.5325 106.035C10.6153 106.21 10.7333 106.366 10.8793 106.493C11.0252 106.621 11.1958 106.716 11.3805 106.774C11.5652 106.833 11.7599 106.852 11.9524 106.831C12.1449 106.81 12.331 106.75 12.4991 106.654L15.2413 105.089C15.4075 104.994 15.5915 104.933 15.782 104.912C15.9724 104.891 16.1651 104.909 16.3483 104.965L18.9297 105.753C19.0767 105.798 19.2355 105.783 19.3715 105.712C19.5074 105.64 19.6095 105.517 19.6554 105.371L20.549 102.489C20.6537 102.15 20.883 101.862 21.1908 101.685Z" fill="white" stroke="black" stroke-miterlimit="10"></path><path d="M53.7647 16.2344L50.8831 2.40279C50.8418 2.20129 50.7611 2.0099 50.6457 1.8396C50.5303 1.6693 50.3825 1.52343 50.2106 1.4103C50.0388 1.29717 49.8464 1.21903 49.6444 1.18031C49.4424 1.1416 49.2347 1.14309 49.0332 1.18469L31.5744 4.72511C31.5143 4.73822 31.4549 4.75438 31.3965 4.7735L47.3185 1.54329C47.52 1.50169 47.7276 1.5002 47.9297 1.53891C48.1317 1.57763 48.3241 1.65577 48.4959 1.7689C48.6677 1.88203 48.8156 2.0279 48.931 2.1982C49.0463 2.3685 49.127 2.55985 49.1684 2.76136L52.05 16.5944C52.1343 16.9997 52.0547 17.4218 51.8286 17.7685C51.6024 18.1151 51.2481 18.3582 50.8433 18.4443L47.0353 19.2597C46.6366 19.3449 46.2869 19.5823 46.0606 19.9214L44.2391 22.6365C44.0361 22.9404 43.7332 23.1636 43.3828 23.2676C43.0325 23.3716 42.6568 23.3496 42.3209 23.2057L43.1918 23.6938C43.5373 23.9221 43.9593 24.0042 44.3652 23.9221C44.7712 23.8399 45.128 23.6002 45.3576 23.2555L47.7767 19.5628C48.0033 19.2242 48.353 18.9874 48.7515 18.9025L52.5594 18.0871C52.9646 18.0007 53.319 17.7571 53.5449 17.4098C53.7709 17.0625 53.8499 16.6399 53.7647 16.2344Z" fill="black" stroke="black" stroke-miterlimit="10"></path><path d="M47.0327 19.2569L50.8407 18.4415C51.2455 18.3554 51.5998 18.1124 51.8259 17.7657C52.0521 17.419 52.1317 16.9969 52.0474 16.5916L49.1672 2.75432C49.1258 2.55282 49.0452 2.36146 48.9298 2.19116C48.8144 2.02087 48.6665 1.87499 48.4947 1.76186C48.3229 1.64874 48.1305 1.57059 47.9285 1.53188C47.7265 1.49316 47.5188 1.49465 47.3173 1.53625L29.8628 5.08237C29.6606 5.12294 29.4685 5.20305 29.2974 5.31809C29.1263 5.43313 28.9796 5.58085 28.8658 5.75274C28.7519 5.92463 28.6731 6.11733 28.634 6.31975C28.5948 6.52217 28.596 6.73032 28.6375 6.93228L31.5391 20.9603C31.5805 21.1633 31.6618 21.356 31.7783 21.5273C31.8948 21.6986 32.0441 21.8451 32.2177 21.9583C32.3912 22.0715 32.5855 22.1491 32.7892 22.1866C32.993 22.2242 33.2021 22.2208 33.4046 22.1769L38.277 21.1324C38.4804 21.0886 38.6905 21.0858 38.895 21.1242C39.0995 21.1626 39.2943 21.2413 39.468 21.3559L42.075 23.0635C42.4203 23.2919 42.8422 23.3743 43.2481 23.2924C43.654 23.2105 44.011 22.9711 44.2408 22.6266L46.0622 19.9115C46.2889 19.576 46.6367 19.3414 47.0327 19.2569Z" fill="white" stroke="black" stroke-miterlimit="10"></path><path d="M105.234 70.582H105.241" stroke="black" stroke-miterlimit="10"></path><path d="M106.371 71.4073L106.312 71.3646L105.251 70.5977C105.364 70.6859 105.453 70.802 105.508 70.9347C105.563 71.0674 105.583 71.2121 105.565 71.3547L104.393 81.0766C104.368 81.2852 104.265 81.4767 104.105 81.6127C103.944 81.7488 103.739 81.8196 103.529 81.8109L100.256 81.6686L97.7132 83.4744C97.5899 83.5613 97.4454 83.6131 97.295 83.6241C97.1446 83.6352 96.994 83.605 96.8594 83.537L97.7772 84.2001C97.8321 84.2528 97.8938 84.2978 97.9608 84.3339C98.0964 84.4033 98.2485 84.4343 98.4005 84.4236C98.5525 84.4128 98.6986 84.3606 98.8231 84.2727L101.365 82.4669L104.638 82.6092C104.847 82.6186 105.053 82.5483 105.213 82.4124C105.373 82.2765 105.476 82.085 105.501 81.8764L106.675 72.1544C106.692 72.0143 106.673 71.8722 106.62 71.7415C106.566 71.6108 106.481 71.4958 106.371 71.4073Z" fill="black" stroke="black" stroke-miterlimit="10"></path><path d="M95.2982 81.7286C95.2242 81.6373 95.1317 81.5627 95.0266 81.51C94.9216 81.4572 94.8066 81.4274 94.6891 81.4226L91.5585 81.2875C91.4298 81.2815 91.3042 81.246 91.1914 81.1836L92.1875 81.9107C92.3253 82.0203 92.4941 82.0835 92.6699 82.0915L95.6924 82.2224L95.2982 81.7286Z" fill="white" stroke="black" stroke-miterlimit="10"></path><path d="M104.77 70.4187L92.8591 70.0161C92.6518 70.0094 92.4495 70.0802 92.2917 70.2147C92.1338 70.3491 92.0317 70.5375 92.0053 70.7432L90.7744 80.3499C90.7597 80.4643 90.7689 80.5805 90.8014 80.6911C90.8339 80.8018 90.889 80.9044 90.9632 80.9927C91.0375 81.081 91.1292 81.1529 91.2326 81.2039C91.3361 81.2549 91.4489 81.2839 91.5641 81.2891L94.6947 81.4243C94.8122 81.429 94.9272 81.4588 95.0323 81.5116C95.1373 81.5643 95.2298 81.6389 95.3038 81.7302L96.5987 83.3183C96.7323 83.4823 96.9233 83.5892 97.1329 83.6175C97.3424 83.6458 97.5549 83.5933 97.7272 83.4706L100.27 81.6647L103.543 81.807C103.753 81.8157 103.958 81.745 104.118 81.6089C104.279 81.4728 104.382 81.2814 104.407 81.0728L105.579 71.3508C105.593 71.2353 105.583 71.1182 105.549 71.007C105.515 70.8958 105.458 70.7929 105.381 70.7051C105.305 70.6173 105.211 70.5464 105.106 70.4971C105 70.4478 104.886 70.4211 104.77 70.4187Z" fill="white" stroke="black" stroke-miterlimit="10"></path><path d="M40.5285 13.1393C42.1266 12.7878 43.1141 11.1001 42.7327 9.36974C42.3514 7.63937 40.7406 6.52373 39.1496 6.87236C37.5587 7.221 36.5654 8.91153 36.9468 10.6419C37.3296 12.3723 38.9319 13.4822 40.5285 13.1393Z" fill="black"></path><path d="M45.9412 15.0654C45.5143 13.8259 44.124 12.5552 42.7693 12.0586C42.5453 12.4567 42.2396 12.803 41.8724 13.0747C41.5051 13.3464 41.0846 13.5374 40.6383 13.6351C40.192 13.7327 39.7301 13.7349 39.283 13.6415C38.8358 13.5481 38.4134 13.3613 38.0435 13.0931C37.0175 14.0892 36.1253 15.8295 36.2619 17.1999C36.2689 17.3068 36.3175 17.4068 36.3973 17.4784C36.4771 17.5499 36.5817 17.5874 36.6888 17.5827L45.7149 15.5905C45.8129 15.5488 45.8911 15.471 45.9332 15.3733C45.9754 15.2755 45.9782 15.1652 45.9412 15.0654Z" fill="black"></path><path d="M15.5429 98.3925C16.6514 97.8333 17.0599 96.4074 16.4551 95.2064C15.8503 94.0054 14.4629 93.486 13.3515 94.0452C12.2401 94.6045 11.836 96.0289 12.4408 97.2299C13.047 98.4324 14.4344 98.9489 15.5429 98.3925Z" fill="black"></path><path d="M19.879 98.7987C19.3311 97.9677 18.0718 97.2946 16.9832 97.1836C16.8934 97.5177 16.7341 97.8291 16.5157 98.0974C16.2973 98.3657 16.0247 98.5848 15.7157 98.7405C15.4068 98.8962 15.0684 98.9849 14.7229 99.0008C14.3773 99.0167 14.0322 98.9595 13.7103 98.8329C13.1411 99.7578 12.8124 101.205 13.171 102.185C13.1959 102.262 13.2498 102.327 13.3213 102.364C13.3928 102.402 13.4762 102.41 13.5537 102.388L19.815 99.2285C19.8792 99.179 19.9217 99.1067 19.9337 99.0265C19.9456 98.9464 19.926 98.8647 19.879 98.7987Z" fill="black"></path><path d="M97.9345 76.5126C99.0729 76.5524 100.123 75.6232 100.281 74.4364C100.439 73.2496 99.6435 72.2535 98.5065 72.2123C97.3695 72.171 96.3179 73.1016 96.16 74.2884C96.0049 75.4752 96.7989 76.4699 97.9345 76.5126Z" fill="black"></path><path d="M101.048 78.6762C101.059 77.7982 100.443 76.7395 99.6658 76.1902C98.6071 77.1251 97.1044 77.0696 96.3033 76.0664C95.3897 76.5403 94.3893 77.5193 94.1559 78.4314C94.1455 78.4649 94.1422 78.5002 94.1462 78.535C94.1502 78.5698 94.1615 78.6034 94.1794 78.6336C94.1972 78.6638 94.2212 78.6899 94.2498 78.7102C94.2783 78.7305 94.3108 78.7446 94.3452 78.7516L100.773 78.9793C100.848 78.9704 100.916 78.9348 100.967 78.8791C101.017 78.8234 101.046 78.7513 101.048 78.6762Z" fill="black"></path><path d="M48.698 86.356C62.731 83.4295 71.3808 67.9853 68.0181 51.8604C64.6553 35.7356 50.5533 25.0362 36.5203 27.9628C22.4873 30.8893 13.8374 46.3335 17.2002 62.4583C20.563 78.5832 34.665 89.2825 48.698 86.356Z" fill="#D0F500" stroke="black" stroke-miterlimit="10"></path><path d="M48.7234 86.3415C34.6898 89.2686 20.5878 78.5691 17.2238 62.445C13.9879 46.9343 21.8642 32.061 34.9544 28.3398L31.2646 29.3843C30.3975 29.5765 29.5422 29.8188 28.7032 30.1101L28.6648 30.1214C16.3515 34.4246 9.09418 48.8268 12.2219 63.8182C15.5859 79.9437 29.6893 90.6418 43.7216 87.7147C44.0503 87.6464 44.3748 87.5724 44.6964 87.487L44.8074 87.4572C45.0564 87.3917 45.3054 87.3234 45.5516 87.2508L49.3681 86.1935C49.1575 86.2405 48.9412 86.2889 48.7234 86.3415Z" fill="white" stroke="black" stroke-miterlimit="10"></path><path d="M47.5746 81.3833C59.2559 78.9993 66.5023 66.1728 63.7597 52.7344C61.0172 39.2961 49.3244 30.3347 37.6431 32.7186C25.9618 35.1026 18.7154 47.9291 21.458 61.3675C24.2005 74.8058 35.8933 83.7672 47.5746 81.3833Z" fill="white" stroke="black" stroke-miterlimit="10"></path><path d="M48.7238 86.3369C36.6752 88.85 24.5768 81.3194 19.2676 68.9336L14.8008 71.4822C20.3505 83.1637 32.0661 90.1435 43.7276 87.7045C44.0563 87.6362 44.3808 87.5622 44.7024 87.4768L44.8134 87.4469C45.0624 87.3814 45.3114 87.3131 45.5576 87.2406L49.3741 86.1832C49.1578 86.2359 48.9415 86.2843 48.7238 86.3369Z" fill="black" stroke="black" stroke-miterlimit="10"></path><path d="M53.9616 63.2622L53.5282 54.9918C53.5278 54.9852 53.5275 54.9785 53.5337 54.9718C53.54 54.9651 53.5397 54.9584 53.5463 54.9584L56.1325 53.3739C56.1387 53.3672 56.1454 53.3672 56.152 53.3672C56.1586 53.3672 56.1652 53.3672 56.1722 53.3739C56.1792 53.3806 56.1858 53.3806 56.1861 53.3872C56.1931 53.3939 56.1935 53.4006 56.1938 53.4073L56.7982 64.9404C56.7986 64.947 56.7989 64.9537 56.7927 64.9604C56.7864 64.9671 56.7867 64.9738 56.7801 64.9738L43.8141 72.9834C43.8078 72.9901 43.8012 72.9901 43.7945 72.9901C43.7879 72.9901 43.7813 72.9901 43.7743 72.9834L33.8199 67.1801C33.813 67.1734 33.806 67.1667 33.8056 67.16C33.7987 67.1534 33.7983 67.1467 33.798 67.14C33.7976 67.1333 33.7973 67.1266 33.8035 67.1199C33.8098 67.1132 33.8095 67.1066 33.8161 67.1066L36.4089 65.522C36.4152 65.5153 36.4218 65.5153 36.4284 65.5153C36.435 65.5153 36.4417 65.5153 36.4486 65.522L43.6009 69.6739C43.6079 69.6806 43.6145 69.6806 43.6211 69.6806C43.6277 69.6806 43.6344 69.6806 43.6406 69.6739L53.9376 63.309C53.9438 63.3023 53.9504 63.3023 53.9501 63.2956C53.9557 63.2756 53.9553 63.2689 53.9616 63.2622Z" fill="black"></path><path d="M55.9254 48.9042C55.9184 48.8975 55.918 48.8908 55.9114 48.8908L42.14 40.9012C42.133 40.8945 42.1264 40.8945 42.1198 40.8945C42.1131 40.8945 42.1065 40.8945 42.1002 40.9012L29.1607 48.9108C29.1541 48.9108 29.1478 48.9175 29.1481 48.9242C29.1485 48.9309 29.1422 48.9376 29.1426 48.9443L29.9863 64.9167C29.9866 64.9234 29.987 64.9301 29.994 64.9368C30.0009 64.9435 30.0013 64.9501 30.0079 64.9501C30.0145 64.9501 30.0218 64.9635 30.0285 64.9635C30.0351 64.9635 30.0417 64.9635 30.048 64.9568L34.9795 61.868C34.9857 61.8613 34.9924 61.8613 34.999 61.8613C35.0056 61.8613 35.0122 61.8613 35.0192 61.868L43.4364 66.7754C43.4434 66.7821 43.45 66.7821 43.4566 66.7821C43.4632 66.7821 43.4699 66.7821 43.4761 66.7754L51.4382 61.8613C51.4445 61.8546 51.4511 61.8546 51.4507 61.8479C51.457 61.8412 51.4567 61.8345 51.4563 61.8279L51.1753 56.4658C51.1749 56.4591 51.168 56.4525 51.1676 56.4458L50.936 52.0264L55.9086 48.9643C55.9149 48.9576 55.9215 48.9576 55.9212 48.951C55.9208 48.9443 55.9271 48.9376 55.9268 48.9309C55.9264 48.9242 55.9323 48.9108 55.9254 48.9042ZM34.501 51.9796C34.4947 51.9863 34.4884 51.993 34.4822 51.9997C34.4759 52.0064 34.4762 52.0131 34.4769 52.0264L34.821 58.5919C34.8214 58.5986 34.8221 58.612 34.8158 58.6187C34.8095 58.6253 34.8033 58.632 34.797 58.6387L32.5517 60.0294C32.5454 60.0361 32.5388 60.0361 32.5256 60.0361C32.5189 60.0361 32.5057 60.0361 32.4987 60.0294C32.4917 60.0227 32.4848 60.016 32.4778 60.0093C32.4708 60.0026 32.4705 59.9959 32.4698 59.9826L31.9775 50.589C31.9771 50.5823 31.9764 50.5689 31.9827 50.5622C31.989 50.5556 31.9952 50.5489 32.0015 50.5422L42.2521 44.1773C42.2583 44.1706 42.265 44.1706 42.2782 44.1706C42.2848 44.1706 42.2981 44.1706 42.3051 44.1773L50.4552 48.9175C50.4621 48.9242 50.4691 48.9309 50.4761 48.9376C50.4831 48.9443 50.4834 48.951 50.4841 48.9643C50.4848 48.9777 50.4852 48.9844 50.4789 48.9911C50.4726 48.9978 50.4663 49.0044 50.4601 49.0111L48.2413 50.4018C48.235 50.4085 48.2284 50.4085 48.2151 50.4085C48.2085 50.4085 48.1952 50.4085 48.1883 50.4018L42.4637 47.0789C42.4568 47.0722 42.4502 47.0722 42.4369 47.0722C42.4303 47.0722 42.417 47.0722 42.4108 47.0789L34.501 51.9796ZM48.6158 60.2032C48.6096 60.2099 48.6099 60.2166 48.6033 60.2166L43.2842 63.4926C43.2779 63.4993 43.2713 63.4993 43.2647 63.4993C43.2581 63.4993 43.2514 63.4993 43.2445 63.4926L37.688 60.2166C37.6814 60.2166 37.681 60.2099 37.674 60.2032C37.6671 60.1965 37.6667 60.1898 37.6664 60.1831L37.3244 53.6578C37.324 53.6511 37.3237 53.6444 37.33 53.6377C37.3362 53.631 37.3359 53.6243 37.3425 53.6243L42.5908 50.3884C42.5971 50.3817 42.6037 50.3817 42.6103 50.3817C42.617 50.3817 42.6236 50.3817 42.6306 50.3884L48.2784 53.6377L48.5895 59.5747L48.6214 60.1831C48.6218 60.1898 48.6221 60.1965 48.6158 60.2032Z" fill="black"></path></svg>