<svg width="49" height="48" viewBox="0 0 49 48" fill="none" xmlns="http://www.w3.org/2000/svg"><path d="M24.4023 7.5H32.9023C37.3206 7.5 40.9023 11.0817 40.9023 15.5V32.5C40.9023 36.9183 37.3206 40.5 32.9023 40.5H15.9023C11.4841 40.5 7.90234 36.9183 7.90234 32.5V24" stroke="currentColor" stroke-width="2.7" stroke-linecap="round"></path><path d="M10.7406 10.2296C11.7691 8.84051 12.4023 6 12.4023 6C12.4023 6 13.0356 8.84051 14.0618 10.2296C15.0996 11.6302 18.4023 12.8551 18.4023 12.8551C18.4023 12.8551 15.0973 14.0801 14.0618 15.483C13.0356 16.8697 12.4023 19.7102 12.4023 19.7102C12.4023 19.7102 11.7691 16.872 10.7406 15.4807C9.70512 14.0824 6.40234 12.8551 6.40234 12.8551C6.40234 12.8551 9.70512 11.6302 10.7406 10.2296Z" stroke="currentColor" stroke-width="2.5" stroke-linecap="round" stroke-linejoin="round"></path><path d="M34.3947 16C33.7913 18.1704 32.7771 21.1459 31.4338 24.0566C31.4349 24.0622 31.4366 24.0677 31.4377 24.0732C32.1365 27.6596 32 31.8086 31.8098 34.5586H29.1037C29.229 32.8065 29.3285 30.5214 29.2072 28.2285C28.3263 29.6353 27.3438 30.9336 26.2658 31.9678C24.8239 33.3508 23.0793 34.3857 21.0842 34.3857C19.9053 34.3856 18.8638 34.0827 18.009 33.4834C17.159 32.8872 16.5785 32.0578 16.2141 31.1436C15.5007 29.3536 15.5627 27.129 16.0617 25.0645C16.5663 22.9772 17.562 20.8653 18.9357 19.2471C20.302 17.6378 22.1718 16.3792 24.4045 16.3789C26.5664 16.3789 28.1957 17.3541 29.3361 18.8447C29.6454 19.249 29.9164 19.6906 30.1565 20.1572C30.7396 18.6607 31.2216 17.2266 31.5861 16H34.3947ZM24.4045 19.0791C23.2472 19.0794 22.0633 19.7339 20.9934 20.9941C19.931 22.2457 19.1061 23.9603 18.6857 25.6992C18.26 27.4607 18.2916 29.0636 18.7219 30.1436C18.9293 30.6639 19.2155 31.0316 19.5588 31.2725C19.8974 31.5099 20.3789 31.6854 21.0842 31.6855C22.1048 31.6855 23.2127 31.1543 24.3967 30.0186C25.5732 28.8899 26.6972 27.2827 27.7199 25.4346C28.0254 24.8826 28.3166 24.3134 28.5969 23.7383C28.2634 22.394 27.8002 21.281 27.1916 20.4854C26.5029 19.5852 25.6327 19.0791 24.4045 19.0791Z" fill="#0068FF"></path><path d="M34.3947 16C33.7913 18.1704 32.7771 21.1459 31.4338 24.0566C31.4349 24.0622 31.4366 24.0677 31.4377 24.0732C32.1365 27.6596 32 31.8086 31.8098 34.5586H29.1037C29.229 32.8065 29.3285 30.5214 29.2072 28.2285C28.3263 29.6353 27.3438 30.9336 26.2658 31.9678C24.8239 33.3508 23.0793 34.3857 21.0842 34.3857C19.9053 34.3856 18.8638 34.0827 18.009 33.4834C17.159 32.8872 16.5785 32.0578 16.2141 31.1436C15.5007 29.3536 15.5627 27.129 16.0617 25.0645C16.5663 22.9772 17.562 20.8653 18.9357 19.2471C20.302 17.6378 22.1718 16.3792 24.4045 16.3789C26.5664 16.3789 28.1957 17.3541 29.3361 18.8447C29.6454 19.249 29.9164 19.6906 30.1565 20.1572C30.7396 18.6607 31.2216 17.2266 31.5861 16H34.3947ZM24.4045 19.0791C23.2472 19.0794 22.0633 19.7339 20.9934 20.9941C19.931 22.2457 19.1061 23.9603 18.6857 25.6992C18.26 27.4607 18.2916 29.0636 18.7219 30.1436C18.9293 30.6639 19.2155 31.0316 19.5588 31.2725C19.8974 31.5099 20.3789 31.6854 21.0842 31.6855C22.1048 31.6855 23.2127 31.1543 24.3967 30.0186C25.5732 28.8899 26.6972 27.2827 27.7199 25.4346C28.0254 24.8826 28.3166 24.3134 28.5969 23.7383C28.2634 22.394 27.8002 21.281 27.1916 20.4854C26.5029 19.5852 25.6327 19.0791 24.4045 19.0791Z" fill="currentColor"></path></svg>