<svg width="60" height="60" viewBox="0 0 60 60" fill="none" xmlns="http://www.w3.org/2000/svg" class="wh-60px"><path d="M4 56.0007C4.07549 48.2597 8.03266 41.9901 15.1669 38.3083C19.226 41.9681 24.4823 43.9885 29.9279 43.982C35.3736 43.9756 40.6252 41.9428 44.6758 38.2734C51.8729 41.9299 55.8898 48.2153 55.9999 56.0007H4ZM14.7202 40.9056C11.26 42.9637 7.20537 47.2798 6.30887 53.2227L6.14215 54.3167H53.9553L53.8609 53.2798C53.4205 48.3865 49.9667 43.1318 45.4684 40.4933L44.9117 40.1762L44.3989 40.5884C40.7343 43.5282 35.1635 45.4246 30.2029 45.4246C24.4401 45.4246 19.9828 44.0514 15.752 40.9849L15.2518 40.5884L14.7202 40.9056Z" fill="currentColor" stroke="currentColor" stroke-width="0.5"></path><path d="M30.0136 39.4534C22.1867 39.4534 15.8164 33.0849 15.8164 25.256C15.8164 17.427 22.1867 11.0898 30.0136 11.0898C37.8404 11.0898 44.18 17.4458 44.18 25.256C44.18 33.0661 37.8251 39.4534 30.0136 39.4534ZM30.0136 13.0016C23.3852 13.0016 17.7985 18.5991 17.7985 25.2246C17.7985 31.9629 23.2868 37.4476 30.0289 37.4476C36.771 37.4476 42.2594 31.9629 42.2594 25.2246C42.2594 18.4863 36.7588 13.0016 30.0136 13.0016Z" fill="currentColor" stroke="currentColor" stroke-width="0.5"></path><path d="M50.4432 18.152L50.1506 17.9837L50.0311 17.6719C47.0232 9.48746 38.9688 4 29.9957 4C21.0225 4 12.9995 9.48746 9.92562 17.6719L9.81235 17.9837L9.53233 18.152C8.57833 18.717 7.78645 19.515 7.23232 20.4697C6.67819 21.4244 6.38033 22.5039 6.36719 23.6052C6.40159 25.2873 7.08994 26.8913 8.28868 28.0827C9.48742 29.2741 11.104 29.9609 12.8013 30V15.8355C14.508 12.7849 17.008 10.243 20.0416 8.47407C23.0751 6.70511 26.5314 5.77366 30.0512 5.77652C33.571 5.77938 37.0257 6.71647 40.0563 8.49036C43.087 10.2642 45.5828 12.8102 47.2844 15.8635V19.1186V30C48.9726 29.9588 50.5788 29.2698 51.7644 28.078C52.95 26.8862 53.6224 25.2849 53.6398 23.6114C53.6338 22.5042 53.3355 21.4178 52.7748 20.4601C52.214 19.5024 51.4102 18.7067 50.4432 18.152Z" fill="currentColor" stroke="currentColor" stroke-width="0.5"></path></svg>