<svg width="48" height="48" viewBox="0 0 48 48" fill="none" xmlns="http://www.w3.org/2000/svg"><path d="M34.514 28.3347C34.5138 30.7812 33.8982 33.1884 32.7239 35.3346C31.5496 37.4809 29.8542 39.2972 27.7939 40.6165C25.7336 41.9358 23.3745 42.7156 20.9338 42.8842C18.4931 43.0527 16.0492 42.6046 13.827 41.5811C11.6049 40.5576 9.67596 38.9915 8.21772 37.0271C6.75949 35.0627 5.81884 32.763 5.48236 30.3397C5.14588 27.9164 5.42437 25.4475 6.29221 23.16C7.16005 20.8726 8.58935 18.8402 10.4485 17.25" stroke="currentColor" stroke-width="2.7" stroke-linecap="round" stroke-linejoin="round"></path><path d="M19.287 22.9375C18.9788 23.574 18.8192 24.2722 18.8203 24.9794C18.8164 25.5666 18.9292 26.1487 19.1521 26.6919C19.3751 27.2352 19.7037 27.7287 20.1189 28.1439C20.5341 28.5591 21.0276 28.8877 21.5708 29.1106C22.1141 29.3335 22.6962 29.4463 23.2834 29.4425C23.8791 29.4425 24.4504 29.6791 24.8716 30.1003C25.2928 30.5216 25.5295 31.0929 25.5295 31.6886V41.8106M5.54785 30.5801H10.9443C11.544 30.5645 12.1407 30.6692 12.6993 30.888C13.2579 31.1067 13.7669 31.4352 14.1965 31.8539C14.6261 32.2726 14.9675 32.7731 15.2005 33.3258C15.4335 33.8786 15.5534 34.4724 15.5532 35.0723V42.219" stroke="currentColor" stroke-width="2.7"></path><path d="M13.9227 11.7484L23.7914 15.1196L25.3499 20.1753L32.1227 23.3132L30.5833 16.865L39.7308 20.1753L43.0256 10.3965C43.2058 9.8616 42.9502 9.27733 42.435 9.04672L40.5293 8.19368C39.5371 7.74954 38.3692 8.10004 37.7855 9.01715L35.7834 12.163C35.5002 12.0152 33.8927 11.1921 26.1417 7.42039C19.1364 4.01154 14.7832 7.33569 13.3073 10.4364C13.056 10.9645 13.3693 11.5593 13.9227 11.7484Z" stroke="currentColor" stroke-width="2.7" stroke-linejoin="round"></path></svg>