<svg width="48" height="48" viewBox="0 0 48 48" fill="none" xmlns="http://www.w3.org/2000/svg"><path d="M7.5 11.9175V34.4324C7.5 37.2354 9.77228 39.5077 12.5753 39.5077H35.4247C38.2277 39.5077 40.5 37.2354 40.5 34.4324V21.4201C40.5 18.6171 38.2277 16.3448 35.4247 16.3448H13.3543M33.2751 16.3448V12.2069C33.2751 10.1046 31.5709 8.40039 29.4687 8.40039L11.4722 8.40039C9.27841 8.40039 7.5 10.1788 7.5 12.3726C7.5 14.5664 9.27841 16.3448 11.4722 16.3448H16.0141" stroke="currentColor" stroke-width="2.7" stroke-linecap="round" stroke-linejoin="round"></path><path d="M28.3638 28.4395C28.3638 26.5464 29.8984 25.0117 31.7915 25.0117H40.5V31.8673H31.7915C29.8984 31.8673 28.3638 30.3326 28.3638 28.4395V28.4395Z" stroke="currentColor" stroke-width="2.7" stroke-linecap="round" stroke-linejoin="round"></path></svg>