<svg width="1272" height="230" viewBox="0 0 1272 230" fill="none" xmlns="http://www.w3.org/2000/svg">
<g clip-path="url(#clip0_2245_75085)">
<rect width="1272" height="230" rx="16" fill="#D0F500"/>
<path fill-rule="evenodd" clip-rule="evenodd" d="M-68.6496 454.727C-68.6158 454.763 -68.5678 454.784 -68.5169 454.79C-68.506 454.792 -68.4948 454.793 -68.4834 454.793H1369.17C1369.28 454.793 1369.37 454.718 1369.37 454.625C1369.37 454.567 1369.34 454.516 1369.28 454.486L1218.76 361.223H1370.71C1370.82 361.223 1370.92 361.148 1370.92 361.055C1370.92 360.963 1370.82 360.888 1370.71 360.888H1218.22L1128.48 305.292H1366.48L1370.61 307C1370.72 307.042 1370.84 307.01 1370.9 306.927C1370.95 306.845 1370.91 306.743 1370.8 306.702L1367.39 305.292H1370.71C1370.82 305.292 1370.92 305.217 1370.92 305.125C1370.92 305.032 1370.82 304.956 1370.71 304.956H1366.58L1269.14 264.72H1370.71C1370.82 264.72 1370.92 264.645 1370.92 264.552C1370.92 264.46 1370.82 264.385 1370.71 264.385H1268.33L1194.61 233.943H1370.71C1370.82 233.943 1370.92 233.868 1370.92 233.775C1370.92 233.683 1370.82 233.608 1370.71 233.608H1193.8L1136.14 209.798H1296.77L1370.64 232.671C1370.74 232.704 1370.86 232.661 1370.9 232.575C1370.95 232.488 1370.89 232.392 1370.78 232.358L1297.93 209.798H1370.71C1370.82 209.798 1370.92 209.722 1370.92 209.63C1370.92 209.537 1370.82 209.463 1370.71 209.463H1296.85L1235.11 190.346H1370.71C1370.82 190.346 1370.92 190.271 1370.92 190.179C1370.92 190.086 1370.82 190.012 1370.71 190.012H1234.03L1183.44 174.345H1315.2L1370.65 188.081C1370.76 188.108 1370.88 188.058 1370.91 187.97C1370.94 187.881 1370.88 187.788 1370.77 187.761L1316.61 174.345H1370.71C1370.82 174.345 1370.92 174.271 1370.92 174.178C1370.92 174.086 1370.82 174.011 1370.71 174.011H1315.26L1262.54 160.951H1370.71C1370.82 160.951 1370.92 160.876 1370.92 160.784C1370.92 160.691 1370.82 160.616 1370.71 160.616H1261.18L1216.6 149.574H1328.07L1370.66 158.365C1370.77 158.388 1370.88 158.334 1370.91 158.244C1370.94 158.155 1370.87 158.063 1370.76 158.041L1329.74 149.574H1370.71C1370.82 149.574 1370.92 149.499 1370.92 149.406C1370.92 149.314 1370.82 149.238 1370.71 149.238H1328.12L1282.33 139.787H1370.71C1370.82 139.787 1370.92 139.712 1370.92 139.619C1370.92 139.585 1370.9 139.553 1370.88 139.526C1370.87 139.506 1370.84 139.488 1370.81 139.475C1370.78 139.46 1370.75 139.452 1370.71 139.452H1280.71L1241.12 131.279H1337.55L1370.67 137.137C1370.78 137.157 1370.89 137.1 1370.91 137.009C1370.94 136.919 1370.87 136.83 1370.75 136.81L1339.49 131.279H1370.71C1370.82 131.279 1370.92 131.204 1370.92 131.112C1370.92 131.019 1370.82 130.944 1370.71 130.944H1337.6L1297.34 123.821H1370.71C1370.82 123.821 1370.92 123.745 1370.92 123.653C1370.92 123.56 1370.82 123.485 1370.71 123.485H1295.44L1260.06 117.225H1344.9L1370.67 121.213C1370.78 121.231 1370.89 121.172 1370.91 121.081C1370.94 120.99 1370.86 120.902 1370.75 120.884L1347.11 117.225H1370.71C1370.82 117.225 1370.92 117.15 1370.92 117.058C1370.92 116.965 1370.82 116.891 1370.71 116.891H1344.94L1309.15 111.35H1370.71C1370.76 111.35 1370.81 111.335 1370.84 111.31C1370.87 111.294 1370.89 111.274 1370.9 111.251C1370.91 111.23 1370.92 111.206 1370.92 111.182C1370.92 111.09 1370.82 111.014 1370.71 111.014H1306.98L1275.12 106.084H1350.68L1370.67 108.834C1370.79 108.85 1370.89 108.789 1370.91 108.697C1370.93 108.606 1370.86 108.52 1370.74 108.504L1353.15 106.084H1370.71C1370.72 106.084 1370.73 106.083 1370.74 106.081C1370.75 106.08 1370.75 106.079 1370.76 106.078L1370.77 106.075C1370.78 106.074 1370.79 106.071 1370.79 106.07C1370.82 106.062 1370.84 106.05 1370.85 106.035C1370.89 106.006 1370.92 105.963 1370.92 105.915C1370.92 105.89 1370.91 105.866 1370.9 105.844C1370.89 105.839 1370.89 105.834 1370.89 105.829L1370.88 105.82C1370.88 105.817 1370.87 105.813 1370.87 105.811C1370.86 105.802 1370.85 105.794 1370.84 105.787C1370.81 105.763 1370.76 105.748 1370.71 105.748H1350.71L1316.22 101.002C1316.16 100.994 1316.11 101.007 1316.06 101.034C1316.04 101.05 1316.01 101.071 1316 101.095C1316 101.101 1315.99 101.108 1315.99 101.115C1315.99 101.12 1315.99 101.124 1315.98 101.129C1315.98 101.133 1315.98 101.136 1315.98 101.14C1315.96 101.231 1316.04 101.318 1316.15 101.333L1348.24 105.748H1272.96L1242.3 101.003C1242.26 100.996 1242.21 101.002 1242.17 101.018C1242.12 101.04 1242.07 101.083 1242.06 101.136C1242.04 101.227 1242.11 101.315 1242.23 101.332L1270.75 105.748H1195.19L1168.38 101.004C1168.27 100.985 1168.16 101.042 1168.13 101.132C1168.11 101.222 1168.18 101.311 1168.29 101.331L1193.25 105.748H1117.43L1094.46 101.006C1094.34 100.982 1094.23 101.037 1094.2 101.126C1094.17 101.216 1094.24 101.307 1094.35 101.331L1115.76 105.748H1039.67L1020.53 101.008C1020.42 100.981 1020.31 101.031 1020.27 101.118C1020.24 101.207 1020.3 101.301 1020.41 101.328L1038.26 105.748H961.918L946.618 101.011C946.518 100.978 946.398 101.022 946.349 101.108C946.309 101.194 946.369 101.291 946.469 101.324L960.759 105.748H884.165L872.713 101.018C872.609 100.977 872.484 101.009 872.432 101.092C872.38 101.174 872.419 101.275 872.521 101.317L883.253 105.748H806.42L798.813 101.035C798.722 100.979 798.591 100.993 798.521 101.066C798.451 101.139 798.469 101.244 798.56 101.301L805.737 105.748H728.703L724.938 101.076C724.874 100.999 724.745 100.977 724.649 101.027C724.552 101.078 724.526 101.182 724.588 101.259L728.208 105.748H651.033L651.04 101.168C651.04 101.076 650.948 101.001 650.832 101C650.717 101 650.623 101.076 650.623 101.168L650.617 105.748H573.444L577.076 101.259C577.138 101.182 577.111 101.078 577.015 101.027C576.918 100.977 576.789 100.999 576.726 101.076L572.947 105.748H495.907L503.097 101.301C503.189 101.244 503.206 101.139 503.135 101.066C503.065 100.993 502.935 100.979 502.843 101.035L495.223 105.748H418.399L429.143 101.317C429.245 101.275 429.285 101.174 429.233 101.092C429.18 101.009 429.055 100.977 428.952 101.018L417.486 105.748H340.892L355.191 101.324C355.298 101.291 355.352 101.194 355.31 101.108C355.269 101.022 355.149 100.978 355.041 101.011L339.732 105.748H263.39L281.247 101.328C281.357 101.301 281.418 101.207 281.385 101.119C281.351 101.031 281.234 100.981 281.124 101.008L261.974 105.748H185.898L207.314 101.331C207.426 101.307 207.493 101.216 207.464 101.126C207.436 101.037 207.322 100.982 207.211 101.006L184.221 105.748H108.399L133.377 101.331C133.489 101.312 133.56 101.222 133.536 101.132C133.511 101.042 133.4 100.985 133.287 101.004L106.459 105.748H30.9009L59.4414 101.332C59.5544 101.315 59.6284 101.227 59.6064 101.136C59.5844 101.045 59.4754 100.986 59.3624 101.003L28.6957 105.748H-46.5916L-14.4934 101.333C-14.38 101.318 -14.3038 101.231 -14.3232 101.14C-14.3426 101.048 -14.4503 100.987 -14.5637 101.002L-49.0627 105.748H-68.7901C-68.9052 105.748 -68.9984 105.823 -68.9984 105.915C-68.9984 106.008 -68.9052 106.084 -68.7901 106.084H-51.4984L-68.8268 108.467C-68.9402 108.483 -69.0164 108.569 -68.997 108.66C-68.9776 108.751 -68.8699 108.813 -68.7565 108.797L-49.0272 106.084H26.5302L-5.34212 111.014H-68.7901C-68.9052 111.014 -68.9984 111.09 -68.9984 111.182C-68.9984 111.275 -68.9052 111.35 -68.7901 111.35H-7.50752L-43.3185 116.891H-68.7901C-68.9052 116.891 -68.9984 116.965 -68.9984 117.058C-68.9984 117.15 -68.9052 117.225 -68.7901 117.225H-45.4839L-68.831 120.838C-68.944 120.856 -69.0179 120.943 -68.9962 121.034C-68.9745 121.125 -68.8653 121.184 -68.7523 121.167L-43.2788 117.225H41.5534L6.15178 123.485H-68.7901C-68.9052 123.485 -68.9984 123.56 -68.9984 123.653C-68.9984 123.745 -68.9052 123.821 -68.7901 123.821H4.25708L-36.0291 130.944H-68.7901C-68.9052 130.944 -68.9984 131.019 -68.9984 131.112C-68.9984 131.204 -68.9052 131.279 -68.7901 131.279H-37.9239L-68.8363 136.745C-68.9486 136.765 -69.0197 136.854 -68.995 136.945C-68.9703 137.035 -68.8592 137.092 -68.7468 137.073L-35.9839 131.279H60.4614L20.8434 139.452H-68.7901C-68.9052 139.452 -68.9984 139.526 -68.9984 139.619C-68.9984 139.712 -68.9052 139.787 -68.7901 139.787H19.2193L-26.5981 149.238H-68.7901C-68.9052 149.238 -68.9984 149.314 -68.9984 149.406C-68.9984 149.499 -68.9052 149.574 -68.7901 149.574H-28.2222L-68.8433 157.954C-68.9547 157.976 -69.0219 158.068 -68.9933 158.157C-68.9647 158.247 -68.8512 158.301 -68.7398 158.278L-26.5455 149.574H84.9304L40.3204 160.616H-68.7901C-68.9052 160.616 -68.9984 160.691 -68.9984 160.784C-68.9984 160.876 -68.9052 160.951 -68.7901 160.951H38.9674L-13.7883 174.011H-68.7901C-68.9052 174.011 -68.9984 174.086 -68.9984 174.178C-68.9984 174.271 -68.9052 174.345 -68.7901 174.345H-15.1417L-68.8515 187.641C-68.9615 187.668 -69.0232 187.761 -68.9893 187.85C-68.9555 187.938 -68.8389 187.988 -68.729 187.961L-13.7256 174.345H118.016L67.3824 190.012H-68.7901C-68.9052 190.012 -68.9984 190.086 -68.9984 190.179C-68.9984 190.271 -68.9052 190.346 -68.7901 190.346H66.2994L4.51348 209.463H-68.7901C-68.9052 209.463 -68.9984 209.537 -68.9984 209.63C-68.9984 209.722 -68.9052 209.798 -68.7901 209.798H3.43058L-68.865 232.165C-68.9724 232.199 -69.026 232.295 -68.9846 232.382C-68.9433 232.468 -68.8228 232.512 -68.7154 232.478L4.59098 209.798H165.223L107.497 233.608H-68.7901C-68.9052 233.608 -68.9984 233.683 -68.9984 233.775C-68.9984 233.868 -68.9052 233.943 -68.7901 233.943H106.685L32.8794 264.385H-68.7901C-68.9052 264.385 -68.9984 264.46 -68.9984 264.552C-68.9984 264.645 -68.9052 264.72 -68.7901 264.72H32.0674L-65.4847 304.956H-68.7901C-68.9052 304.956 -68.9984 305.032 -68.9984 305.125C-68.9984 305.217 -68.9052 305.292 -68.7901 305.292H-66.297L-68.8863 306.36C-68.9887 306.402 -69.0291 306.503 -68.9766 306.585C-68.9241 306.668 -68.7986 306.7 -68.6962 306.658L-65.3841 305.292H172.609L82.7244 360.888H-68.7901C-68.9052 360.888 -68.9984 360.963 -68.9984 361.055C-68.9984 361.148 -68.9052 361.223 -68.7901 361.223H82.1824L-68.6115 454.492C-68.7027 454.549 -68.7198 454.653 -68.6496 454.727ZM33.7924 264.385L107.598 233.943H287.963L238.746 264.385H33.7924ZM238.204 264.72H32.9804L-64.5718 304.956H173.151L238.204 264.72ZM239.429 264.385L288.647 233.943H469.227L444.596 264.385H239.429ZM444.325 264.72H238.888L173.834 304.956H411.77L444.325 264.72ZM445.093 264.385L469.724 233.943H650.437L650.395 264.385H445.093ZM650.394 264.72H444.822L412.267 304.956H650.338L650.394 264.72ZM650.811 264.385L650.854 233.943H831.57L856.115 264.385H650.811ZM856.385 264.72H650.811L650.754 304.956H888.828L856.385 264.72ZM856.612 264.385L832.066 233.943H1012.64L1061.78 264.385H856.612ZM1062.32 264.72H856.883L889.325 304.956H1127.26L1062.32 264.72ZM1062.46 264.385L1013.33 233.943H1193.7L1267.42 264.385H1062.46ZM1268.23 264.72H1063L1127.94 304.956H1365.67L1268.23 264.72ZM1012.1 233.608H831.797L812.599 209.798H973.668L1012.1 233.608ZM831.299 233.608H650.854L650.888 209.798H812.102L831.299 233.608ZM650.438 233.608H469.995L489.259 209.798H650.471L650.438 233.608ZM469.498 233.608H289.189L327.684 209.798H488.762L469.498 233.608ZM288.505 233.608H108.41L166.136 209.798H327L288.505 233.608ZM1192.89 233.608H1012.79L974.359 209.798H1135.23L1192.89 233.608ZM166.036 209.463H5.67378L67.4594 190.346H212.382L166.036 209.463ZM166.949 209.463H327.542L358.448 190.346H213.295L166.949 209.463ZM328.225 209.463L359.132 190.346H504.5L489.033 209.463H328.225ZM489.53 209.463L504.997 190.346H650.498L650.471 209.463H489.53ZM650.888 209.463L650.915 190.346H796.419L811.831 209.463H650.888ZM812.328 209.463L796.915 190.346H942.279L973.129 209.463H812.328ZM973.818 209.463L942.958 190.346H1088.12L1134.41 209.463H973.818ZM1135.33 209.463L1089.03 190.346H1233.96L1295.69 209.463H1135.33ZM1217.53 360.888L1127.8 305.292H889.594L934.419 360.888H1217.53ZM933.928 360.888L889.099 305.292H650.754L650.676 360.888H933.928ZM650.259 360.888L650.337 305.292H411.996L367.014 360.888H650.259ZM366.517 360.888L411.499 305.292H173.293L83.4074 360.888H366.517ZM358.99 190.012H214.107L252.088 174.345H384.318L358.99 190.012ZM213.194 190.012H68.5424L119.177 174.345H251.176L213.194 190.012ZM359.673 190.012H504.771L517.446 174.345H385.002L359.673 190.012ZM505.268 190.012L517.943 174.345H650.521L650.499 190.012H505.268ZM650.915 190.012L650.937 174.345H783.518L796.148 190.012H650.915ZM796.644 190.012L784.013 174.345H916.453L941.739 190.012H796.644ZM942.419 190.012L917.135 174.345H1049.37L1087.31 190.012H942.419ZM1088.22 190.012L1050.28 174.345H1182.28L1232.87 190.012H1088.22ZM915.912 174.011H783.743L773.214 160.951H894.836L915.912 174.011ZM783.247 174.011H650.938L650.956 160.951H772.717L783.247 174.011ZM650.521 174.011H518.214L528.78 160.951H650.539L650.521 174.011ZM517.717 174.011H385.543L406.657 160.951H528.283L517.717 174.011ZM252.901 174.011H384.86L405.973 160.951H284.562L252.901 174.011ZM120.26 174.011H251.988L283.649 160.951H162.468L120.26 174.011ZM-12.3721 174.011H119.099L161.308 160.951H40.3834L-12.3721 174.011ZM1048.56 174.011H916.596L895.518 160.951H1016.94L1048.56 174.011ZM1017.85 160.951L1049.47 174.011H1181.2L1139.03 160.951H1017.85ZM1140.19 160.951L1182.36 174.011H1313.84L1261.12 160.951H1140.19ZM22.52 139.452L62.1374 131.279H158.836L125.82 139.452H22.52ZM124.466 139.787H20.8959L-24.9214 149.238H86.2844L124.466 139.787ZM127.236 139.452L160.252 131.279H257.213L230.797 139.452H127.236ZM229.715 139.787H125.883L87.7004 149.238H199.165L229.715 139.787ZM231.958 139.452L258.373 131.279H355.588L335.774 139.452H231.958ZM334.961 139.787H230.875L200.326 149.238H312.046L334.961 139.787ZM336.687 139.452L356.501 131.279H453.946L440.733 139.452H336.687ZM440.191 139.787H335.874L312.959 149.238H424.91L440.191 139.787ZM441.416 139.452L454.63 131.279H552.29L545.678 139.452H441.416ZM545.407 139.787H440.875L425.593 149.238H537.759L545.407 139.787ZM546.175 139.452L552.787 131.279H650.581L650.569 139.452H546.175ZM650.569 139.787H545.904L538.256 149.238H650.556L650.569 139.787ZM650.986 139.452L650.997 131.279H748.792L755.383 139.452H650.986ZM755.652 139.787H650.986L650.972 149.238H763.273L755.652 139.787ZM755.878 139.452L749.289 131.279H846.945L860.135 139.452H755.878ZM860.675 139.787H756.148L763.769 149.238H875.93L860.675 139.787ZM860.818 139.452L847.627 131.279H945.078L964.869 139.452H860.818ZM965.678 139.787H861.359L876.614 149.238H988.568L965.678 139.787ZM965.778 139.452L945.989 131.279H1043.21L1069.6 139.452H965.778ZM1070.68 139.787H966.599L989.479 149.238H1101.2L1070.68 139.787ZM1070.76 139.452L1044.37 131.279H1141.33L1174.32 139.452H1070.76ZM1175.68 139.787H1071.84L1102.36 149.238H1213.84L1175.68 139.787ZM1175.74 139.452L1142.74 131.279H1239.44L1279.03 139.452H1175.74ZM1280.66 139.787H1177.09L1215.25 149.238H1326.45L1280.66 139.787ZM894.294 160.616H772.943L764.039 149.574H876.471L894.294 160.616ZM772.448 160.616H650.956L650.972 149.574H763.544L772.448 160.616ZM650.54 160.616H529.051L537.985 149.574H650.555L650.54 160.616ZM528.554 160.616H407.198L425.052 149.574H537.488L528.554 160.616ZM285.374 160.616H406.515L424.368 149.574H312.147L285.374 160.616ZM163.551 160.616H284.461L311.234 149.574H199.243L163.551 160.616ZM41.7374 160.616H162.391L198.082 149.574H86.3464L41.7374 160.616ZM1016.13 160.616H894.977L877.154 149.574H989.379L1016.13 160.616ZM990.298 149.574L1017.04 160.616H1137.95L1102.29 149.574H990.298ZM1103.45 149.574L1139.11 160.616H1259.77L1215.19 149.574H1103.45ZM366.246 361.223H82.8654L-67.8722 454.457H290.812L366.246 361.223ZM650.259 361.223H366.743L291.309 454.457H650.128L650.259 361.223ZM934.198 361.223H650.676L650.545 454.457H1009.37L934.198 361.223ZM1218.07 361.223H934.688L1009.87 454.457H1368.55L1218.07 361.223ZM1342.74 116.891L1306.94 111.35H1226.85L1258.17 116.891H1342.74ZM1256.23 116.891L1224.91 111.35H1144.57L1171.41 116.891H1256.23ZM1223.02 111.014H1142.94L1119.05 106.084H1195.15L1223.02 111.014ZM1169.73 116.891L1142.89 111.35H1062.29L1084.66 116.891H1169.73ZM1141.27 111.014H1060.93L1041.02 106.084H1117.38L1141.27 111.014ZM1083.24 116.891L1060.87 111.35H980.009L997.898 116.891H1083.24ZM1059.52 111.014H978.928L962.999 106.084H1039.61L1059.52 111.014ZM996.739 116.891L978.849 111.35H897.729L911.148 116.891H996.739ZM977.769 111.014H896.919L884.977 106.084H961.839L977.769 111.014ZM910.235 116.891L896.818 111.35H815.461L824.404 116.891H910.235ZM896.006 111.014H814.92L806.961 106.084H884.065L896.006 111.014ZM823.721 116.891L814.779 111.35H733.221L737.688 116.891H823.721ZM814.237 111.014H732.951L728.974 106.084H806.279L814.237 111.014ZM737.191 116.891L732.724 111.35H651.025L651.018 116.891H737.191ZM732.453 111.014H651.026L651.033 106.084H728.477L732.453 111.014ZM650.601 116.891L650.609 111.35H568.912L564.429 116.891H650.601ZM650.609 111.014H569.183L573.173 106.084H650.616L650.609 111.014ZM563.932 116.891L568.415 111.35H486.851L477.893 116.891H563.932ZM568.686 111.014H487.392L495.365 106.084H572.676L568.686 111.014ZM477.209 116.891L486.167 111.35H404.819L391.386 116.891H477.209ZM486.709 111.014H405.631L417.587 106.084H494.682L486.709 111.014ZM390.473 116.891L403.906 111.35H322.787L304.879 116.891H390.473ZM404.718 111.014H323.87L339.809 106.084H416.674L404.718 111.014ZM303.719 116.891L321.627 111.35H240.762L218.379 116.891H303.719ZM322.71 111.014H242.115L262.037 106.084H338.649L322.71 111.014ZM216.963 116.891L239.346 111.35H158.745L131.886 116.891H216.963ZM240.699 111.014H160.369L184.274 106.084H260.621L240.699 111.014ZM130.21 116.891L157.068 111.35H76.7224L45.3874 116.891H130.21ZM158.692 111.014H78.6164L106.504 106.084H182.597L158.692 111.014ZM43.4474 116.891L74.7824 111.35H-5.30232L-41.1134 116.891H43.4474ZM76.6764 111.014H-3.13692L28.7355 106.084H104.564L76.6764 111.014ZM1304.78 111.014H1224.96L1197.09 106.084H1272.92L1304.78 111.014ZM1237.82 130.944H1141.39L1112.63 123.821H1203.31L1237.82 130.944ZM1139.98 130.944H1043.29L1020.28 123.821H1111.22L1139.98 130.944ZM1042.13 130.944H945.178L927.93 123.821H1019.12L1042.13 130.944ZM944.268 130.944H847.086L835.589 123.821H927.018L944.268 130.944ZM846.404 130.944H749.018L743.276 123.821H834.906L846.404 130.944ZM748.523 130.944H650.998L651.008 123.821H742.779L748.523 130.944ZM650.581 130.944H553.058L558.822 123.821H650.591L650.581 130.944ZM552.561 130.944H455.171L466.689 123.821H558.325L552.561 130.944ZM454.488 130.944H357.313L374.584 123.821H466.005L454.488 130.944ZM356.4 130.944H259.456L282.481 123.821H373.671L356.4 130.944ZM258.296 130.944H161.606L190.383 123.821H281.32L258.296 130.944ZM160.189 130.944H63.7614L98.2934 123.821H188.967L160.189 130.944ZM-34.0892 130.944H62.0854L96.6174 123.821H6.19698L-34.0892 130.944ZM1335.66 130.944H1239.49L1204.98 123.821H1295.4L1335.66 130.944ZM98.2414 123.485H8.09168L43.4934 117.225H128.585L98.2414 123.485ZM99.9174 123.485H190.321L215.609 117.225H130.262L99.9174 123.485ZM191.737 123.485L217.025 117.225H302.636L282.403 123.485H191.737ZM283.563 123.485L303.796 117.225H389.66L374.484 123.485H283.563ZM375.397 123.485L390.573 117.225H476.668L466.547 123.485H375.397ZM467.23 123.485L477.351 117.225H563.661L558.596 123.485H467.23ZM559.093 123.485L564.158 117.225H650.601L650.592 123.485H559.093ZM651.008 123.485L651.017 117.225H737.461L742.508 123.485H651.008ZM743.005 123.485L737.958 117.225H824.261L834.365 123.485H743.005ZM835.047 123.485L824.945 117.225H911.047L926.206 123.485H835.047ZM927.117 123.485L911.958 117.225H997.818L1018.04 123.485H927.117ZM1019.2 123.485L998.979 117.225H1084.59L1109.86 123.485H1019.2ZM1111.28 123.485L1086.01 117.225H1171.36L1201.68 123.485H1111.28ZM1203.36 123.485L1173.03 117.225H1258.12L1293.5 123.485H1203.36Z" fill="url(#paint0_radial_2245_75085)"/>
</g>
<defs>
<radialGradient id="paint0_radial_2245_75085" cx="0" cy="0" r="1" gradientUnits="userSpaceOnUse" gradientTransform="translate(650.952 627) rotate(-90) scale(513 3241.99)">
<stop/>
<stop offset="1" stop-opacity="0"/>
</radialGradient>
<clipPath id="clip0_2245_75085">
<rect width="1272" height="230" rx="16" fill="white"/>
</clipPath>
</defs>
</svg>
