<svg width="24" height="24" viewBox="0 0 24 24" fill="none" xmlns="http://www.w3.org/2000/svg">
<path d="M9.89282 10.7153C11.995 10.7153 13.6991 9.0112 13.6991 6.90905C13.6991 4.80691 11.995 3.10278 9.89282 3.10278C7.79067 3.10278 6.08655 4.80691 6.08655 6.90905C6.08655 9.0112 7.79067 10.7153 9.89282 10.7153Z" fill="#F5F5F5"/>
<path d="M12.1914 12.6682C12.8417 12.6682 13.4684 12.7699 14.0566 12.9572C12.9111 13.8942 12.1914 15.2527 12.1914 16.7639C12.1915 18.4384 13.0759 19.9247 14.4434 20.8586H1.95312V18.8117C1.95312 15.4192 4.70324 12.6682 8.0957 12.6682H12.1914Z" fill="#F5F5F5"/>
<path d="M17.6709 12.4816C20.0357 12.4817 21.9531 14.3989 21.9531 16.7638C21.953 19.1286 20.0357 21.0459 17.6709 21.046C15.306 21.046 13.3888 19.1286 13.3887 16.7638C13.3887 14.3989 15.306 12.4816 17.6709 12.4816ZM17.8496 14.8663C17.7883 14.7007 17.5535 14.7007 17.4922 14.8663L17.332 15.2999C17.1393 15.8207 16.7287 16.2311 16.208 16.424L15.7744 16.5841C15.6087 16.6454 15.6087 16.8802 15.7744 16.9415L16.208 17.1017C16.7288 17.2945 17.1393 17.7058 17.332 18.2267L17.4922 18.6593C17.5535 18.825 17.7883 18.825 17.8496 18.6593L18.0098 18.2267C18.2025 17.7058 18.613 17.2945 19.1338 17.1017L19.5674 16.9415C19.7331 16.8802 19.7331 16.6454 19.5674 16.5841L19.1338 16.424C18.6131 16.2312 18.2025 15.8207 18.0098 15.2999L17.8496 14.8663Z" fill="#ABE127"/>
</svg>
