<svg fill="currentColor" height="24" viewBox="0 0 24 24" width="24" xmlns="http://www.w3.org/2000/svg"><g clip-path="url(#clip0_3036_86166)"><g clip-path="url(#clip1_3036_86166)"><path d="M15.1318 12.7885C16.154 12.1108 16.9318 11.1219 17.3429 9.96633C17.7651 8.81077 17.7984 7.55522 17.4429 6.37744C17.0873 5.19966 16.3651 4.16633 15.3873 3.43299C14.4095 2.69966 13.2207 2.29966 11.9984 2.31077C10.4873 2.31077 9.04288 2.91077 7.97621 3.98855C6.90955 5.06633 6.30955 6.51077 6.30955 8.03299C6.30955 10.0219 7.32066 11.7774 8.8651 12.7997C5.38733 14.0885 2.89844 17.4441 2.89844 21.3774H4.42066C4.42066 19.3552 5.22066 17.4219 6.64288 15.9885C8.0651 14.5552 9.98733 13.7552 11.9984 13.7552C14.0095 13.7552 15.9318 14.5663 17.354 15.9885C18.7762 17.4219 19.5762 19.3552 19.5762 21.3774H21.0873C21.0984 17.433 18.6095 14.0774 15.1318 12.7885ZM7.83177 8.02188C7.83177 6.91077 8.27622 5.84411 9.05399 5.05522C9.83177 4.26633 10.8984 3.82188 11.9984 3.82188C14.2984 3.82188 16.1651 5.69966 16.1651 8.01077C16.1651 10.3219 14.2984 12.2108 11.9984 12.2108C10.8873 12.2108 9.83177 11.7663 9.05399 10.9774C8.2651 10.1997 7.83177 9.13299 7.83177 8.02188Z" fill="#currentColor"></path><path clip-rule="evenodd" d="M24 15.3333H22.9111H22.7222V15.2333C22.7222 12.6 20.6778 10.4222 18.0444 10.1222C17.8333 10.1 17.6222 10.0778 17.4111 10.0778C17.3 10.0778 17.1889 10.0889 17.0667 10.1C17.0333 10.1 16.9889 10.1111 16.9444 10.1111L16.8 10.1222L16.8444 9.98889C16.9444 9.63333 17 9.27778 17.0222 8.91111V8.81111L17.1222 8.82222C17.5222 8.85556 17.9222 8.81111 18.3 8.68889C18.6778 8.56667 19.0333 8.36667 19.3222 8.11111C19.6222 7.84444 19.8556 7.53333 20.0222 7.17778C20.1889 6.82222 20.2667 6.43333 20.2667 6.04444C20.2667 5.3 19.9667 4.6 19.4222 4.06667C18.8889 3.54444 18.1556 3.24444 17.3889 3.24444C16.7556 3.24444 16.1444 3.44444 15.6444 3.82222C15.3667 4.03333 15.1333 4.28889 14.9444 4.57778L14.9111 4.66667L14.8222 4.61111C14.5333 4.42222 14.2111 4.25556 13.8889 4.13333L13.7778 4.08889L13.8333 3.98889C14.2 3.38889 14.7222 2.88889 15.3556 2.53333C15.9778 2.18889 16.6889 2 17.4111 2C17.4222 2 17.4333 2 17.4333 2C17.4444 2 17.4444 2 17.4556 2C18.5444 2 19.5778 2.42222 20.3444 3.17778C20.6 3.43333 20.8222 3.71111 21 4.01111C21.3667 4.62222 21.5667 5.32222 21.5667 6.04444C21.5667 6.71111 21.4 7.36667 21.0667 7.95556C20.7667 8.48889 20.3556 8.94444 19.8556 9.3C22.2778 10.2444 24 12.5444 24 15.2333V15.3333ZM1.08889 15.3333H1.27778V15.2333C1.27778 12.6 3.32222 10.4222 5.95556 10.1222C6.16667 10.1 6.37778 10.0778 6.58889 10.0778C6.7 10.0778 6.81111 10.0889 6.93333 10.1C6.96667 10.1 7.01111 10.1111 7.05555 10.1111L7.2 10.1222L7.15556 9.98889C7.05556 9.63333 6.98889 9.27778 6.97778 8.91111V8.81111L6.86667 8.82222C6.77778 8.82222 6.67778 8.83333 6.58889 8.83333C5.82222 8.83333 5.1 8.53333 4.55556 8.01111C4.02222 7.48889 3.72222 6.77778 3.72222 6.04444C3.72222 5.3 4.02222 4.6 4.56667 4.06667C5.1 3.54444 5.83333 3.24444 6.6 3.24444C7.08889 3.24444 7.57778 3.36667 8 3.6C8.42222 3.84444 8.77778 4.17778 9.03333 4.58889L9.08889 4.66667L9.17778 4.61111C9.46667 4.42222 9.78889 4.25556 10.1111 4.13333L10.2222 4.08889L10.1667 3.98889C9.96667 3.66667 9.73333 3.37778 9.45555 3.12222C8.68889 2.4 7.65555 2 6.58889 2C6.58889 2 6.57778 2 6.56667 2C6.56667 2 6.55555 2 6.54444 2C5.45555 2 4.42222 2.42222 3.65556 3.17778C3.4 3.42222 3.17778 3.7 3 4.01111C2.63333 4.62222 2.43333 5.32222 2.43333 6.04444C2.43333 7.37778 3.11111 8.56667 4.14444 9.3C1.72222 10.2444 0 12.5444 0 15.2333V15.3333H1.08889Z" fill="#currentColor" fill-rule="evenodd"></path></g></g><defs><clipPath id="clip0_3036_86166"><rect fill="currentColor" height="24" width="24"></rect></clipPath><clipPath id="clip1_3036_86166"><rect fill="currentColor" height="19.3667" transform="translate(0 2)" width="24"></rect></clipPath></defs></svg>