<svg width="380" height="308" viewBox="0 0 380 308" fill="none" xmlns="http://www.w3.org/2000/svg">
<path d="M109.509 106.387C117.901 88.5403 128.623 73.1091 140.525 60.8573L123.807 54.3911C111.868 66.6615 101.075 82.1441 92.6605 100.055C66.3015 156.163 73.1454 214.993 107.826 232.135L107.919 232.172C108.157 232.289 108.385 232.41 108.628 232.522C110.788 233.534 113.025 234.375 115.318 235.035L128.003 239.948C127.155 239.608 126.311 239.254 125.481 238.867C90.1011 222.237 82.9496 162.927 109.509 106.387Z" fill="#EBE9E9" stroke="black" stroke-width="0.619088" stroke-linecap="round" stroke-linejoin="round"/>
<path d="M221.671 34.1072C221.233 33.9021 220.795 33.7109 220.352 33.5198L224.706 20.7086L222.03 19.8181C176.058 5.58036 135.713 53.31 136.082 52.3636L140.655 60.7179C128.716 72.9883 117.923 88.4709 109.508 106.406C82.9348 162.946 90.1003 222.257 125.48 238.881C160.86 255.506 211.079 223.142 237.644 166.62C264.208 110.098 257.051 50.7272 221.671 34.1072Z" fill="white" stroke="black" stroke-width="0.619088" stroke-linecap="round" stroke-linejoin="round"/>
<path fill-rule="evenodd" clip-rule="evenodd" d="M63.9094 104.494C59.0656 96.2424 48.5574 97.4685 48.5574 97.4685C54.4269 90.7133 48.012 84.7086 48.012 84.7086C40.8511 77.1375 29.4572 79.7995 29.4572 79.7995L25.6343 73.6597L21.2707 77.613L24.273 81.641L17.653 84.2331L14.9257 79.8648H8.3989L12.3569 86.2098L1.2334 90.5082L6.82781 96.0606C11.6949 93.3753 14.1984 96.7879 14.1984 96.7879C14.1984 96.7879 26.8184 114.867 29.6157 119.231C32.4129 123.594 26.8884 124.965 26.8884 124.965L28.9444 132.252L40.8837 128.023L43.9513 133.725L48.5248 130.275L45.7276 125.977L52.5481 123.52L54.935 127.343L61.35 126.932L57.5271 121.543C71.7696 115.888 63.9094 104.494 63.9094 104.494ZM33.3781 107.04L42.194 119.338C42.194 119.338 61.4154 115.403 53.0517 106.14C53.0517 106.14 49.8303 101.711 44.2685 103.403C38.7068 105.096 33.3781 107.04 33.3781 107.04ZM21.6486 90.3265L29.6999 101.562C29.6999 101.562 47.2523 97.9676 39.6113 89.5107C39.6113 89.5107 36.6696 85.4594 31.5927 87.0072C26.5157 88.555 21.6486 90.3265 21.6486 90.3265Z" fill="#FFF1C1"/>
<path d="M48.5574 97.4685L48.3237 97.2655C48.2399 97.362 48.224 97.5001 48.2837 97.6131C48.3433 97.7261 48.4663 97.7908 48.5933 97.776L48.5574 97.4685ZM63.9094 104.494L63.6425 104.651C63.6463 104.657 63.6503 104.664 63.6546 104.67L63.9094 104.494ZM48.012 84.7086L47.7871 84.9213C47.7914 84.9259 47.7959 84.9303 47.8004 84.9346L48.012 84.7086ZM29.4572 79.7995L29.1944 79.9631C29.2645 80.0757 29.3985 80.1311 29.5276 80.101L29.4572 79.7995ZM25.6343 73.6597L25.8971 73.4961C25.8486 73.4182 25.7681 73.3658 25.6772 73.3531C25.5863 73.3404 25.4945 73.3687 25.4265 73.4303L25.6343 73.6597ZM21.2707 77.613L21.0629 77.3836C20.9447 77.4907 20.9272 77.6701 21.0225 77.798L21.2707 77.613ZM24.273 81.641L24.3859 81.9293C24.4758 81.8941 24.5441 81.8189 24.5706 81.7261C24.5972 81.6333 24.5789 81.5334 24.5212 81.456L24.273 81.641ZM17.653 84.2331L17.3904 84.397C17.4693 84.5234 17.6271 84.5757 17.7658 84.5213L17.653 84.2331ZM14.9257 79.8648L15.1883 79.7009C15.1317 79.6103 15.0325 79.5553 14.9257 79.5553V79.8648ZM8.3989 79.8648V79.5553C8.28642 79.5553 8.1828 79.6163 8.12823 79.7146C8.07366 79.813 8.07674 79.9332 8.13627 80.0286L8.3989 79.8648ZM12.3569 86.2098L12.4685 86.4985C12.5546 86.4653 12.6213 86.3953 12.6506 86.3078C12.6798 86.2203 12.6684 86.1242 12.6196 86.046L12.3569 86.2098ZM1.2334 90.5082L1.12182 90.2194C1.02397 90.2572 0.951931 90.342 0.930427 90.4447C0.908924 90.5474 0.940887 90.654 1.01534 90.7279L1.2334 90.5082ZM6.82781 96.0606L6.60975 96.2803C6.7073 96.3771 6.85701 96.398 6.97734 96.3316L6.82781 96.0606ZM14.1984 96.7879L14.4523 96.6107L14.448 96.6048L14.1984 96.7879ZM29.6157 119.231L29.3551 119.398L29.6157 119.231ZM26.8884 124.965L26.8139 124.665C26.7325 124.685 26.6628 124.737 26.6207 124.81C26.5786 124.882 26.5677 124.968 26.5905 125.049L26.8884 124.965ZM28.9444 132.252L28.6464 132.336C28.6697 132.418 28.726 132.487 28.802 132.527C28.8781 132.566 28.967 132.572 29.0477 132.544L28.9444 132.252ZM40.8837 128.023L41.1563 127.877C41.084 127.742 40.9244 127.681 40.7804 127.732L40.8837 128.023ZM43.9513 133.725L43.6787 133.872C43.7215 133.951 43.7969 134.008 43.8851 134.027C43.9734 134.047 44.0656 134.026 44.1377 133.972L43.9513 133.725ZM48.5248 130.275L48.7112 130.522C48.841 130.424 48.8729 130.243 48.7842 130.106L48.5248 130.275ZM45.7276 125.977L45.6227 125.685C45.5337 125.718 45.4643 125.788 45.4341 125.878C45.404 125.968 45.4166 126.066 45.4681 126.146L45.7276 125.977ZM52.5481 123.52L52.8107 123.356C52.7334 123.232 52.5804 123.179 52.4432 123.229L52.5481 123.52ZM54.935 127.343L54.6725 127.507C54.7328 127.603 54.8412 127.659 54.9548 127.652L54.935 127.343ZM61.35 126.932L61.3697 127.241C61.4817 127.234 61.5811 127.167 61.6294 127.066C61.6777 126.964 61.6674 126.845 61.6025 126.753L61.35 126.932ZM57.5271 121.543L57.4129 121.255C57.3246 121.291 57.2573 121.364 57.2304 121.455C57.2034 121.546 57.2197 121.645 57.2747 121.722L57.5271 121.543ZM42.194 119.338L41.9424 119.519C42.0135 119.618 42.1364 119.666 42.2561 119.641L42.194 119.338ZM33.3781 107.04L33.272 106.749C33.1811 106.782 33.1109 106.856 33.0823 106.948C33.0538 107.041 33.0701 107.141 33.1265 107.22L33.3781 107.04ZM53.0517 106.14L52.8014 106.322C52.8078 106.331 52.8147 106.339 52.822 106.347L53.0517 106.14ZM29.6999 101.562L29.4482 101.742C29.5194 101.842 29.6423 101.89 29.762 101.865L29.6999 101.562ZM21.6486 90.3265L21.5427 90.0357C21.4517 90.0688 21.3814 90.1426 21.3528 90.2351C21.3242 90.3276 21.3405 90.4281 21.3969 90.5068L21.6486 90.3265ZM39.6113 89.5107L39.3608 89.6926C39.3673 89.7015 39.3742 89.71 39.3816 89.7182L39.6113 89.5107ZM48.5574 97.4685C48.5933 97.776 48.5932 97.776 48.5931 97.776C48.5932 97.776 48.5932 97.776 48.5933 97.776C48.5934 97.776 48.5937 97.776 48.5942 97.7759C48.5951 97.7758 48.5967 97.7756 48.5989 97.7754C48.6033 97.7749 48.6102 97.7742 48.6195 97.7732C48.6381 97.7713 48.6665 97.7685 48.7041 97.7651C48.7793 97.7584 48.8914 97.7495 49.0365 97.741C49.3268 97.724 49.7487 97.7085 50.2709 97.7154C51.316 97.7292 52.7587 97.8323 54.3492 98.189C57.5313 98.9026 61.2786 100.624 63.6425 104.651L64.1764 104.337C61.6964 100.113 57.7677 98.3212 54.4847 97.5849C52.8427 97.2167 51.3557 97.1106 50.2791 97.0964C49.7404 97.0893 49.3036 97.1052 49.0003 97.123C48.8486 97.1319 48.7302 97.1412 48.6491 97.1485C48.6086 97.1521 48.5773 97.1552 48.5559 97.1574C48.5452 97.1585 48.5369 97.1594 48.5312 97.16C48.5283 97.1603 48.526 97.1606 48.5244 97.1608C48.5236 97.1608 48.523 97.1609 48.5225 97.161C48.5223 97.161 48.522 97.161 48.5219 97.161C48.5217 97.1611 48.5215 97.1611 48.5574 97.4685ZM48.012 84.7086C47.8004 84.9346 47.8004 84.9345 47.8003 84.9345C47.8003 84.9345 47.8003 84.9344 47.8003 84.9345C47.8003 84.9345 47.8005 84.9346 47.8007 84.9349C47.8012 84.9353 47.802 84.9361 47.8032 84.9373C47.8057 84.9396 47.8096 84.9434 47.815 84.9485C47.8257 84.9589 47.8421 84.9749 47.8635 84.9964C47.9064 85.0394 47.9697 85.1043 48.0488 85.1899C48.2071 85.3612 48.4283 85.6146 48.6764 85.9401C49.1735 86.592 49.7741 87.5269 50.1955 88.663C51.0319 90.9178 51.1741 93.985 48.3237 97.2655L48.7911 97.6716C51.8101 94.1969 51.6797 90.8841 50.776 88.4477C50.3273 87.2383 49.6911 86.2498 49.1687 85.5647C48.9072 85.2217 48.6731 84.9532 48.5035 84.7697C48.4186 84.6779 48.3498 84.6073 48.3017 84.559C48.2776 84.5349 48.2586 84.5163 48.2454 84.5036C48.2388 84.4972 48.2336 84.4922 48.23 84.4887C48.2281 84.487 48.2267 84.4856 48.2256 84.4846C48.225 84.4841 48.2246 84.4837 48.2243 84.4833C48.2241 84.4832 48.2239 84.483 48.2238 84.4829C48.2236 84.4828 48.2235 84.4826 48.012 84.7086ZM29.4572 79.7995C29.5276 80.101 29.5275 80.101 29.5275 80.101C29.5275 80.101 29.5276 80.101 29.5276 80.1009C29.5278 80.1009 29.5282 80.1008 29.5288 80.1007C29.5298 80.1004 29.5316 80.1 29.534 80.0995C29.5389 80.0984 29.5465 80.0967 29.5568 80.0944C29.5773 80.0899 29.6084 80.0831 29.6497 80.0746C29.7322 80.0575 29.8552 80.0331 30.015 80.0047C30.3346 79.9477 30.801 79.8743 31.3836 79.8095C32.5493 79.6799 34.1777 79.5849 36.0261 79.7236C39.7264 80.0012 44.2789 81.2122 47.7871 84.9213L48.2369 84.4959C44.5842 80.634 39.8593 79.3904 36.0724 79.1062C34.1773 78.964 32.5095 79.0614 31.3151 79.1942C30.7177 79.2607 30.2379 79.3361 29.9064 79.3952C29.7407 79.4247 29.612 79.4502 29.5241 79.4684C29.4801 79.4775 29.4464 79.4848 29.4234 79.4898C29.4118 79.4924 29.403 79.4944 29.3969 79.4958C29.3938 79.4965 29.3914 79.497 29.3897 79.4974C29.3889 79.4976 29.3882 79.4978 29.3877 79.4979C29.3875 79.4979 29.3872 79.498 29.3871 79.498C29.3869 79.4981 29.3867 79.4981 29.4572 79.7995ZM25.3716 73.8233L29.1944 79.9631L29.7199 79.6359L25.8971 73.4961L25.3716 73.8233ZM21.4785 77.8424L25.8422 73.8891L25.4265 73.4303L21.0629 77.3836L21.4785 77.8424ZM24.5212 81.456L21.5189 77.4281L21.0225 77.798L24.0248 81.826L24.5212 81.456ZM17.7658 84.5213L24.3859 81.9293L24.1602 81.3528L17.5401 83.9449L17.7658 84.5213ZM14.6631 80.0287L17.3904 84.397L17.9156 84.0692L15.1883 79.7009L14.6631 80.0287ZM8.3989 80.1743H14.9257V79.5553H8.3989V80.1743ZM12.6196 86.046L8.66154 79.701L8.13627 80.0286L12.0943 86.3736L12.6196 86.046ZM1.34497 90.7969L12.4685 86.4985L12.2454 85.921L1.12182 90.2194L1.34497 90.7969ZM7.04586 95.8409L1.45145 90.2885L1.01534 90.7279L6.60975 96.2803L7.04586 95.8409ZM14.1984 96.7879C14.448 96.6048 14.4479 96.6046 14.4477 96.6044C14.4477 96.6044 14.4475 96.6042 14.4474 96.604C14.4472 96.6037 14.4469 96.6033 14.4466 96.6029C14.446 96.6021 14.4452 96.601 14.4443 96.5998C14.4424 96.5973 14.4399 96.594 14.4368 96.5899C14.4305 96.5818 14.4218 96.5705 14.4106 96.5565C14.3881 96.5285 14.3556 96.4893 14.3131 96.4413C14.2282 96.3454 14.103 96.2139 13.9376 96.0659C13.6072 95.7704 13.1136 95.4066 12.458 95.1318C11.1327 94.5761 9.19097 94.4033 6.67828 95.7896L6.97734 96.3316C9.33178 95.0326 11.0754 95.2234 12.2186 95.7027C12.7973 95.9453 13.2337 96.2669 13.5248 96.5273C13.6702 96.6574 13.7786 96.7715 13.8496 96.8517C13.885 96.8917 13.9111 96.9232 13.9277 96.9439C13.9359 96.9542 13.9419 96.9618 13.9454 96.9665C13.9472 96.9688 13.9483 96.9703 13.9489 96.9711C13.9492 96.9715 13.9493 96.9717 13.9493 96.9716C13.9493 96.9716 13.9493 96.9716 13.9492 96.9715C13.9491 96.9714 13.9491 96.9713 13.949 96.9713C13.9489 96.9711 13.9488 96.971 14.1984 96.7879ZM29.8763 119.064C28.474 116.876 24.6158 111.26 21.1126 106.197C19.3601 103.664 17.695 101.267 16.4681 99.5042C15.8546 98.6225 15.3507 97.8992 15.0001 97.3962C14.8248 97.1448 14.6878 96.9484 14.5947 96.8149C14.5481 96.7481 14.5125 96.6971 14.4886 96.6627C14.4766 96.6456 14.4675 96.6326 14.4614 96.6238C14.4584 96.6195 14.4561 96.6162 14.4545 96.614C14.4538 96.6129 14.4532 96.6121 14.4528 96.6115C14.4526 96.6113 14.4525 96.6111 14.4524 96.6109C14.4523 96.6108 14.4522 96.6107 14.1984 96.7879C13.9446 96.9651 13.9446 96.9651 13.9447 96.9653C13.9448 96.9654 13.945 96.9656 13.9452 96.9659C13.9455 96.9664 13.9461 96.9673 13.9469 96.9683C13.9484 96.9705 13.9507 96.9738 13.9537 96.9782C13.9598 96.9869 13.9689 96.9999 13.9809 97.017C14.0048 97.0513 14.0404 97.1024 14.087 97.1691C14.18 97.3025 14.317 97.4989 14.4922 97.7503C14.8427 98.2531 15.3466 98.9763 15.9599 99.8578C17.1867 101.621 18.8514 104.017 20.6035 106.549C24.1097 111.617 27.9601 117.222 29.3551 119.398L29.8763 119.064ZM26.8884 124.965C26.9629 125.265 26.9631 125.265 26.9632 125.265C26.9633 125.265 26.9635 125.265 26.9637 125.265C26.964 125.265 26.9644 125.265 26.965 125.265C26.966 125.265 26.9673 125.264 26.969 125.264C26.9723 125.263 26.977 125.262 26.9829 125.26C26.9947 125.257 27.0115 125.253 27.033 125.247C27.0758 125.235 27.1372 125.217 27.2136 125.193C27.3662 125.145 27.5797 125.071 27.8265 124.969C28.3172 124.765 28.9531 124.442 29.5029 123.969C30.0539 123.494 30.5347 122.854 30.6749 122.019C30.8155 121.181 30.6046 120.2 29.8763 119.064L29.3551 119.398C30.0253 120.443 30.1728 121.27 30.0643 121.916C29.9554 122.565 29.5795 123.086 29.099 123.5C28.6174 123.914 28.047 124.207 27.5893 124.397C27.3619 124.491 27.1656 124.559 27.0271 124.602C26.9578 124.624 26.9032 124.64 26.8665 124.65C26.8482 124.656 26.8343 124.659 26.8254 124.662C26.821 124.663 26.8177 124.664 26.8158 124.664C26.8148 124.664 26.8142 124.665 26.8138 124.665C26.8137 124.665 26.8136 124.665 26.8136 124.665L26.8137 124.665C26.8137 124.665 26.8139 124.665 26.8884 124.965ZM29.2423 132.168L27.1863 124.881L26.5905 125.049L28.6464 132.336L29.2423 132.168ZM40.7804 127.732L28.841 131.96L29.0477 132.544L40.9871 128.315L40.7804 127.732ZM44.2239 133.578L41.1563 127.877L40.6111 128.17L43.6787 133.872L44.2239 133.578ZM48.3384 130.028L43.7649 133.478L44.1377 133.972L48.7112 130.522L48.3384 130.028ZM45.4681 126.146L48.2653 130.444L48.7842 130.106L45.987 125.808L45.4681 126.146ZM52.4432 123.229L45.6227 125.685L45.8325 126.268L52.653 123.811L52.4432 123.229ZM55.1976 127.179L52.8107 123.356L52.2855 123.684L54.6725 127.507L55.1976 127.179ZM61.3302 126.624L54.9153 127.034L54.9548 127.652L61.3697 127.241L61.3302 126.624ZM57.2747 121.722L61.0975 127.112L61.6025 126.753L57.7796 121.364L57.2747 121.722ZM63.9094 104.494C63.6546 104.67 63.6546 104.67 63.6545 104.67C63.6545 104.67 63.6545 104.67 63.6546 104.67C63.6547 104.67 63.6549 104.67 63.6553 104.671C63.656 104.672 63.6572 104.674 63.6588 104.676C63.662 104.681 63.667 104.688 63.6737 104.698C63.6871 104.719 63.7072 104.749 63.7332 104.79C63.7852 104.871 63.8604 104.993 63.9516 105.15C64.1341 105.465 64.3802 105.922 64.6322 106.489C65.1371 107.624 65.6603 109.187 65.7501 110.914C65.8396 112.637 65.4982 114.522 64.2769 116.32C63.0542 118.119 60.9318 119.858 57.4129 121.255L57.6414 121.831C61.2438 120.401 63.4797 118.595 64.789 116.668C66.0995 114.738 66.4635 112.714 66.3683 110.882C66.2733 109.054 65.7216 107.415 65.1979 106.237C64.9355 105.647 64.6788 105.17 64.4871 104.84C64.3912 104.674 64.3115 104.545 64.2552 104.457C64.2271 104.413 64.2048 104.379 64.1894 104.356C64.1816 104.344 64.1756 104.335 64.1714 104.329C64.1692 104.326 64.1676 104.323 64.1664 104.322C64.1658 104.321 64.1653 104.32 64.1649 104.319C64.1648 104.319 64.1646 104.319 64.1645 104.319C64.1643 104.319 64.1642 104.318 63.9094 104.494ZM42.4456 119.158L33.6297 106.859L33.1265 107.22L41.9424 119.519L42.4456 119.158ZM52.822 106.347C54.8636 108.609 55.1662 110.473 54.5937 112.002C54.007 113.569 52.4687 114.883 50.606 115.944C48.754 116.999 46.6369 117.772 44.9757 118.283C44.1465 118.538 43.4341 118.726 42.9294 118.85C42.6771 118.913 42.4769 118.959 42.3401 118.99C42.2718 119.005 42.2193 119.016 42.1841 119.024C42.1665 119.028 42.1532 119.03 42.1445 119.032C42.1401 119.033 42.1368 119.034 42.1347 119.034C42.1337 119.035 42.1329 119.035 42.1324 119.035C42.1322 119.035 42.1321 119.035 42.132 119.035C42.1319 119.035 42.1319 119.035 42.194 119.338C42.2561 119.641 42.2562 119.641 42.2564 119.641C42.2566 119.641 42.2569 119.641 42.2573 119.641C42.2579 119.641 42.2589 119.641 42.2602 119.641C42.2627 119.64 42.2664 119.639 42.2713 119.638C42.2809 119.636 42.2951 119.633 42.3136 119.629C42.3507 119.621 42.4051 119.61 42.4755 119.594C42.6162 119.562 42.8208 119.515 43.0777 119.452C43.5915 119.325 44.3154 119.133 45.1576 118.875C46.8391 118.358 49.0045 117.569 50.9124 116.482C52.8097 115.401 54.5085 113.995 55.1735 112.219C55.8528 110.405 55.4217 108.303 53.2815 105.933L52.822 106.347ZM44.3586 103.7C47.0393 102.884 49.145 103.542 50.5872 104.403C51.3107 104.835 51.8674 105.318 52.2427 105.693C52.4301 105.881 52.5716 106.04 52.6654 106.152C52.7123 106.208 52.7473 106.252 52.77 106.281C52.7814 106.296 52.7897 106.307 52.795 106.313C52.7976 106.317 52.7994 106.319 52.8005 106.321C52.8011 106.322 52.8014 106.322 52.8015 106.322C52.8016 106.322 52.8017 106.322 52.8016 106.322C52.8016 106.322 52.8016 106.322 52.8016 106.322C52.8015 106.322 52.8014 106.322 53.0517 106.14C53.3021 105.958 53.302 105.958 53.3019 105.958C53.3018 105.958 53.3017 105.957 53.3016 105.957C53.3014 105.957 53.3011 105.957 53.3008 105.956C53.3001 105.955 53.2993 105.954 53.2983 105.953C53.2962 105.95 53.2933 105.946 53.2897 105.941C53.2824 105.932 53.272 105.918 53.2584 105.9C53.2312 105.866 53.1915 105.816 53.1395 105.754C53.0354 105.63 52.8818 105.457 52.6803 105.256C52.2778 104.853 51.6815 104.335 50.9045 103.871C49.3454 102.941 47.0596 102.231 44.1784 103.107L44.3586 103.7ZM33.3781 107.04C33.4842 107.331 33.4842 107.331 33.4842 107.331C33.4843 107.331 33.4843 107.331 33.4844 107.331C33.4846 107.33 33.4848 107.33 33.4851 107.33C33.4857 107.33 33.4867 107.33 33.4879 107.329C33.4905 107.328 33.4943 107.327 33.4994 107.325C33.5095 107.321 33.5248 107.316 33.5449 107.309C33.5851 107.294 33.6448 107.272 33.7229 107.244C33.8791 107.188 34.1086 107.105 34.4014 107.001C34.987 106.793 35.8258 106.497 36.8384 106.149C38.8637 105.452 41.5826 104.544 44.3586 103.7L44.1784 103.107C41.3928 103.955 38.6664 104.865 36.6369 105.564C35.6221 105.913 34.7812 106.209 34.1938 106.418C33.9002 106.522 33.6699 106.605 33.5129 106.662C33.4344 106.69 33.3743 106.712 33.3337 106.727C33.3134 106.734 33.2981 106.74 33.2877 106.743C33.2825 106.745 33.2786 106.747 33.276 106.748C33.2747 106.748 33.2737 106.748 33.273 106.749C33.2727 106.749 33.2725 106.749 33.2723 106.749C33.2722 106.749 33.2721 106.749 33.2721 106.749C33.272 106.749 33.272 106.749 33.3781 107.04ZM29.9515 101.382L21.9002 90.1462L21.3969 90.5068L29.4482 101.742L29.9515 101.382ZM39.3816 89.7182C41.2426 91.7779 41.5139 93.4695 40.9963 94.853C40.4644 96.2746 39.067 97.4707 37.3677 98.4387C35.6792 99.4006 33.7481 100.106 32.2321 100.572C31.4755 100.805 30.8254 100.977 30.3649 101.09C30.1348 101.147 29.9521 101.19 29.8274 101.217C29.7651 101.231 29.7172 101.242 29.6852 101.249C29.6692 101.252 29.6571 101.255 29.6491 101.256C29.6451 101.257 29.6422 101.258 29.6403 101.258C29.6393 101.258 29.6387 101.259 29.6382 101.259C29.638 101.259 29.6379 101.259 29.6378 101.259C29.6377 101.259 29.6378 101.259 29.6999 101.562C29.762 101.865 29.7621 101.865 29.7623 101.865C29.7625 101.865 29.7628 101.865 29.7631 101.865C29.7637 101.865 29.7646 101.865 29.7658 101.864C29.7681 101.864 29.7715 101.863 29.776 101.862C29.7848 101.86 29.7978 101.858 29.8148 101.854C29.8487 101.847 29.8985 101.836 29.9628 101.822C30.0915 101.793 30.2785 101.749 30.5133 101.692C30.9829 101.576 31.6444 101.401 32.414 101.164C33.9503 100.692 35.9297 99.9704 37.6742 98.9766C39.4079 97.9889 40.9659 96.7008 41.5761 95.0699C42.2005 93.4009 41.8005 91.4719 39.841 89.3032L39.3816 89.7182ZM31.6829 87.3033C34.1209 86.56 36.0354 87.1598 37.3469 87.9442C38.0053 88.3379 38.5118 88.7786 38.8533 89.1206C39.0238 89.2913 39.1525 89.4368 39.2378 89.5385C39.2804 89.5893 39.3121 89.6291 39.3327 89.6556C39.343 89.6688 39.3505 89.6787 39.3552 89.685C39.3575 89.6881 39.3592 89.6903 39.3601 89.6916C39.3606 89.6922 39.3609 89.6926 39.361 89.6928C39.361 89.6929 39.3611 89.6929 39.361 89.6929C39.361 89.6928 39.361 89.6928 39.361 89.6928C39.3609 89.6927 39.3608 89.6926 39.6113 89.5107C39.8618 89.3288 39.8617 89.3287 39.8616 89.3285C39.8615 89.3284 39.8614 89.3283 39.8613 89.3281C39.8611 89.3278 39.8608 89.3275 39.8605 89.3271C39.8599 89.3263 39.8591 89.3252 39.8582 89.3239C39.8562 89.3213 39.8536 89.3177 39.8502 89.3132C39.8435 89.3042 39.8338 89.2916 39.8214 89.2755C39.7964 89.2434 39.7599 89.1977 39.7122 89.1407C39.6167 89.0269 39.4759 88.868 39.2914 88.6831C38.9226 88.3139 38.3764 87.8385 37.6647 87.4129C36.2362 86.5585 34.1413 85.9066 31.5024 86.7111L31.6829 87.3033ZM21.6486 90.3265C21.7544 90.6174 21.7544 90.6174 21.7545 90.6174C21.7545 90.6174 21.7546 90.6174 21.7546 90.6173C21.7548 90.6173 21.755 90.6172 21.7553 90.6171C21.7558 90.6169 21.7567 90.6166 21.7579 90.6162C21.7602 90.6153 21.7637 90.6141 21.7683 90.6124C21.7776 90.609 21.7915 90.604 21.8098 90.5973C21.8465 90.584 21.9011 90.5643 21.9724 90.5386C22.1151 90.4873 22.3246 90.4122 22.592 90.3172C23.1268 90.1273 23.8928 89.8578 24.8174 89.54C26.6668 88.9043 29.1491 88.0757 31.6829 87.3033L31.5024 86.7111C28.9593 87.4864 26.4695 88.3175 24.6161 88.9545C23.6893 89.2731 22.9212 89.5433 22.3848 89.7339C22.1165 89.8291 21.9062 89.9045 21.7628 89.9561C21.6911 89.9819 21.6362 90.0018 21.5991 90.0152C21.5806 90.0219 21.5665 90.027 21.5571 90.0304C21.5523 90.0322 21.5488 90.0334 21.5464 90.0343C21.5452 90.0348 21.5442 90.0351 21.5436 90.0353C21.5433 90.0354 21.5431 90.0355 21.5429 90.0356C21.5429 90.0356 21.5428 90.0356 21.5428 90.0356C21.5427 90.0356 21.5427 90.0357 21.6486 90.3265Z" fill="black"/>
<path d="M225.121 158.439C244.858 115.804 239.991 71.5819 214.252 59.6668C188.512 47.7517 151.647 72.6552 131.911 115.29C112.174 157.925 117.041 202.147 142.78 214.062C168.52 225.977 205.385 201.074 225.121 158.439Z" fill="#424242" stroke="black" stroke-width="0.619088" stroke-linecap="round" stroke-linejoin="round"/>
<path d="M79.7274 123.865L99.3078 133.077L95.76 146.448L75.9092 136.895L79.7274 123.865Z" fill="black" stroke="black" stroke-width="0.619088" stroke-linecap="round" stroke-linejoin="round"/>
<path d="M123.802 137.581L99.3076 133.077L95.7598 146.448L121.55 146.993L123.802 137.581Z" fill="#D0F500" stroke="black" stroke-width="0.619088" stroke-linecap="round" stroke-linejoin="round"/>
<path d="M79.7275 123.865L83.6483 123.324L100.138 130.778L99.308 133.077L79.7275 123.865Z" fill="#D0F500" stroke="black" stroke-width="0.619088" stroke-linecap="round" stroke-linejoin="round"/>
<path d="M123.803 137.581L123.215 135.418L100.138 130.779L99.3086 133.077L123.803 137.581Z" fill="black" stroke="black" stroke-width="0.619088" stroke-linecap="round" stroke-linejoin="round"/>
<path d="M140.79 60.9608L136.082 52.3687L117.252 44.1123L123.821 54.392L140.79 60.9608Z" fill="#D0F500" stroke="black" stroke-width="0.619088" stroke-linecap="round" stroke-linejoin="round"/>
<path d="M219.896 47.464C188.194 32.2752 143.103 60.4617 119.155 110.401C95.2058 160.341 101.476 213.18 133.169 228.35C164.861 243.52 209.961 215.39 233.91 165.413C257.859 115.436 251.584 62.6575 219.896 47.464ZM231.5 164.28C208.311 212.658 164.898 240.075 134.53 225.52C104.161 210.965 98.3526 159.949 121.541 111.571C144.73 63.1936 188.143 35.781 218.511 50.3358C248.88 64.8906 254.698 115.907 231.5 164.28Z" fill="#D0F500" stroke="black" stroke-width="0.619088" stroke-linecap="round" stroke-linejoin="round"/>
<path d="M131.116 31.3242L139.694 34.7648L144.832 32.8534L153.713 36.6296" fill="#D9D9D9"/>
<path d="M131.116 31.3242L139.694 34.7648L144.832 32.8534L153.713 36.6296" stroke="black" stroke-width="0.619088" stroke-linecap="round" stroke-linejoin="round"/>
<path d="M134.105 32.5453L131.126 31.3472C126.246 35.3223 121.613 39.5913 117.252 44.1304L120.296 45.4684L134.105 32.5453Z" fill="#D9D9D9" stroke="black" stroke-width="0.619088" stroke-linecap="round" stroke-linejoin="round"/>
<path d="M117.252 44.1071L136.082 52.3635C135.709 53.3285 177.634 3.7061 224.707 20.7084L199.191 10.0651C199.191 10.0651 161.802 -2.07944 117.252 44.1071Z" fill="#EBE9E9" stroke="black" stroke-width="0.619088" stroke-linecap="round" stroke-linejoin="round"/>
<path d="M112.315 81.3375L121.402 84.9832C126.979 76.3428 133.38 68.2631 140.516 60.8573L123.807 54.3911C121.942 56.3119 120.078 58.3212 118.287 60.3958L121.849 67.9669L112.315 81.3375Z" stroke="black" stroke-width="0.619088" stroke-linecap="round" stroke-linejoin="round"/>
<path d="M114.087 85.3893V82.0513L121.397 84.9883L119.527 87.9207L114.087 85.3893Z" fill="#D0F500" stroke="black" stroke-width="0.619088" stroke-linecap="round" stroke-linejoin="round"/>
<path d="M83.6475 123.324L88.1976 125.38C90.5566 113.184 104.603 87.9209 104.603 87.9209L101.992 82.7461C98.5707 88.3415 95.458 94.1202 92.6684 100.056C89.1224 107.592 86.1081 115.367 83.6475 123.324Z" stroke="black" stroke-width="0.619088" stroke-linecap="round" stroke-linejoin="round"/>
<path d="M122.544 187.208L109.924 192.094" stroke="black" stroke-width="0.619088" stroke-linecap="round" stroke-linejoin="round"/>
<path d="M140.45 212.989L135.21 225.833" stroke="black" stroke-width="0.619088" stroke-linecap="round" stroke-linejoin="round"/>
<path d="M102.417 215.664L84.6221 207.361" stroke="black" stroke-width="0.619088" stroke-linecap="round" stroke-linejoin="round"/>
<path d="M88.9807 201.641C88.9807 201.641 78.5891 171.501 87.1159 142.293" stroke="black" stroke-width="0.619088" stroke-linecap="round" stroke-linejoin="round"/>
<path d="M88.9766 201.642H88.9822H88.9766Z" fill="#D9D9D9" stroke="black" stroke-width="0.619088" stroke-linecap="round" stroke-linejoin="round"/>
<path d="M85.8902 189.296L81.3867 187.212C82.2314 191.384 83.3116 195.504 84.6221 199.553L88.9765 201.641C87.6832 197.597 86.6523 193.473 85.8902 189.296Z" fill="#D0F500" stroke="black" stroke-width="0.619088" stroke-linecap="round" stroke-linejoin="round"/>
<path d="M4.24476 84.9785L1 90.876L6.59441 96.4284L9.83917 90.5263L4.24476 84.9785Z" fill="black" stroke="black" stroke-width="0.619088" stroke-linecap="round" stroke-linejoin="round"/>
<path d="M11.4108 74.3359L8.16602 80.2334L9.78839 82.8394L15.3642 80.6809L11.4108 74.3359Z" fill="#FFF1C1" stroke="black" stroke-width="0.619088" stroke-linecap="round" stroke-linejoin="round"/>
<path d="M24.3005 72.084L20.2539 78.0141L20.6875 78.6994L27.3029 76.1073L24.3005 72.084Z" fill="#FFF1C1" stroke="black" stroke-width="0.619088" stroke-linecap="round" stroke-linejoin="round"/>
<path d="M31.9464 126.732L28.697 132.634L26.6504 125.333L29.8951 119.431L31.9464 126.732Z" fill="black" stroke="black" stroke-width="0.619088" stroke-linecap="round" stroke-linejoin="round"/>
<path d="M43.8814 122.499L40.6367 128.401L28.6973 132.634L31.9467 126.732L43.8814 122.499Z" fill="#FFF1C1" stroke="black" stroke-width="0.619088" stroke-linecap="round" stroke-linejoin="round"/>
<path d="M46.9528 128.2L43.708 134.102L40.6357 128.401L43.8805 122.499L46.9528 128.2Z" fill="black" stroke="black" stroke-width="0.619088" stroke-linecap="round" stroke-linejoin="round"/>
<path d="M51.5272 124.751L48.2824 130.653L43.709 134.103L46.9537 128.201L51.5272 124.751Z" fill="#FFF1C1" stroke="black" stroke-width="0.619088" stroke-linecap="round" stroke-linejoin="round"/>
<path d="M55.55 118L52.3053 123.897L51.2237 124.289L48.7295 120.452L55.55 118Z" fill="#FFF1C1" stroke="black" stroke-width="0.619088" stroke-linecap="round" stroke-linejoin="round"/>
<path d="M57.9374 121.818L54.6926 127.72L52.3057 123.897L55.5504 118L57.9374 121.818Z" fill="#FFF1C1" stroke="black" stroke-width="0.619088" stroke-linecap="round" stroke-linejoin="round"/>
<path d="M64.3521 121.408L61.1073 127.31L54.6924 127.72L57.9371 121.818L64.3521 121.408Z" fill="#FFF1C1" stroke="black" stroke-width="0.619088" stroke-linecap="round" stroke-linejoin="round"/>
<path fill-rule="evenodd" clip-rule="evenodd" d="M66.9299 98.9605C62.0861 90.7087 51.5779 91.9349 51.5779 91.9349C57.4474 85.1796 51.0325 79.1749 51.0325 79.1749C43.8716 71.6038 32.4777 74.2658 32.4777 74.2658L28.6548 68.126L24.2912 72.0794L27.2935 76.1073L20.6735 78.6994L17.9462 74.3311H11.4194L15.3775 80.6761L4.25391 84.9745L9.84832 90.5269C14.7155 87.8416 17.2189 91.2542 17.2189 91.2542C17.2189 91.2542 29.839 109.333 32.6362 113.697C35.4334 118.061 29.9089 119.431 29.9089 119.431L31.9649 126.718L43.9043 122.49L46.9718 128.191L51.5453 124.741L48.7481 120.443L55.5686 117.986L57.9556 121.809L64.3705 121.399L60.5477 116.009C74.7901 110.354 66.9299 98.9605 66.9299 98.9605ZM36.3985 101.506L45.2143 113.805C45.2143 113.805 64.4357 109.87 56.0721 100.606C56.0721 100.606 52.8507 96.1775 47.2889 97.8698C41.7271 99.5621 36.3985 101.506 36.3985 101.506ZM24.6684 84.7924L32.7197 96.0279C32.7197 96.0279 50.2721 92.4335 42.6311 83.9766C42.6311 83.9766 39.6894 79.9253 34.6125 81.4731C29.5356 83.0209 24.6684 84.7924 24.6684 84.7924Z" fill="#FF9900"/>
<path d="M51.5779 91.9349L51.3442 91.7318C51.2604 91.8283 51.2445 91.9664 51.3042 92.0794C51.3638 92.1924 51.4868 92.2571 51.6138 92.2423L51.5779 91.9349ZM66.9299 98.9605L66.663 99.1172C66.6668 99.1237 66.6708 99.1301 66.6751 99.1363L66.9299 98.9605ZM51.0325 79.1749L50.8076 79.3876C50.8119 79.3922 50.8164 79.3966 50.8209 79.4009L51.0325 79.1749ZM32.4777 74.2658L32.2149 74.4294C32.285 74.542 32.419 74.5974 32.5481 74.5673L32.4777 74.2658ZM28.6548 68.126L28.9176 67.9624C28.8691 67.8845 28.7886 67.8321 28.6977 67.8194C28.6068 67.8067 28.515 67.835 28.447 67.8966L28.6548 68.126ZM24.2912 72.0794L24.0834 71.85C23.9652 71.9571 23.9477 72.1364 24.043 72.2643L24.2912 72.0794ZM27.2935 76.1073L27.4064 76.3956C27.4963 76.3604 27.5646 76.2853 27.5911 76.1924C27.6177 76.0996 27.5994 75.9997 27.5417 75.9223L27.2935 76.1073ZM20.6735 78.6994L20.4109 78.8633C20.4898 78.9897 20.6476 79.042 20.7863 78.9876L20.6735 78.6994ZM17.9462 74.3311L18.2088 74.1672C18.1522 74.0766 18.053 74.0216 17.9462 74.0216V74.3311ZM11.4194 74.3311V74.0216C11.3069 74.0216 11.2033 74.0826 11.1487 74.1809C11.0942 74.2793 11.0972 74.3995 11.1568 74.4949L11.4194 74.3311ZM15.3775 80.6761L15.489 80.9648C15.5751 80.9316 15.6419 80.8616 15.6711 80.7741C15.7003 80.6866 15.6889 80.5906 15.6401 80.5123L15.3775 80.6761ZM4.25391 84.9745L4.14233 84.6857C4.04448 84.7235 3.97244 84.8083 3.95094 84.911C3.92943 85.0137 3.96139 85.1203 4.03585 85.1942L4.25391 84.9745ZM9.84832 90.5269L9.63026 90.7466C9.72781 90.8434 9.87751 90.8643 9.99785 90.7979L9.84832 90.5269ZM17.2189 91.2542L17.4728 91.077L17.4685 91.0711L17.2189 91.2542ZM29.9089 119.431L29.8344 119.131C29.753 119.151 29.6833 119.203 29.6412 119.276C29.5991 119.348 29.5882 119.435 29.611 119.515L29.9089 119.431ZM31.9649 126.718L31.6669 126.802C31.6902 126.885 31.7465 126.954 31.8225 126.993C31.8986 127.032 31.9875 127.038 32.0682 127.01L31.9649 126.718ZM43.9043 122.49L44.1768 122.343C44.1045 122.208 43.9449 122.147 43.8009 122.198L43.9043 122.49ZM46.9718 128.191L46.6992 128.338C46.742 128.417 46.8174 128.474 46.9057 128.494C46.9939 128.513 47.0861 128.493 47.1582 128.438L46.9718 128.191ZM51.5453 124.741L51.7317 124.989C51.8615 124.891 51.8934 124.709 51.8047 124.573L51.5453 124.741ZM48.7481 120.443L48.6432 120.152C48.5542 120.184 48.4848 120.255 48.4547 120.344C48.4245 120.434 48.4371 120.533 48.4886 120.612L48.7481 120.443ZM55.5686 117.986L55.8312 117.822C55.754 117.699 55.6009 117.646 55.4637 117.695L55.5686 117.986ZM57.9556 121.809L57.693 121.973C57.7533 122.069 57.8617 122.125 57.9753 122.118L57.9556 121.809ZM64.3705 121.399L64.3902 121.708C64.5022 121.701 64.6016 121.633 64.6499 121.532C64.6982 121.431 64.6879 121.311 64.623 121.22L64.3705 121.399ZM60.5477 116.009L60.4334 115.722C60.3451 115.757 60.2778 115.83 60.2509 115.922C60.2239 116.013 60.2402 116.111 60.2952 116.189L60.5477 116.009ZM45.2143 113.805L44.9627 113.985C45.0339 114.084 45.1568 114.132 45.2764 114.108L45.2143 113.805ZM36.3985 101.506L36.2924 101.215C36.2014 101.249 36.1313 101.322 36.1027 101.415C36.0741 101.507 36.0905 101.608 36.1469 101.687L36.3985 101.506ZM56.0721 100.606L55.8218 100.789C55.8282 100.797 55.8351 100.806 55.8424 100.814L56.0721 100.606ZM32.7197 96.0279L32.4681 96.2082C32.5392 96.3074 32.6621 96.3556 32.7818 96.3311L32.7197 96.0279ZM24.6684 84.7924L24.5625 84.5015C24.4715 84.5347 24.4013 84.6085 24.3727 84.701C24.344 84.7935 24.3604 84.894 24.4168 84.9727L24.6684 84.7924ZM42.6311 83.9766L42.3806 84.1584C42.3871 84.1674 42.3941 84.1759 42.4014 84.1841L42.6311 83.9766ZM34.6125 81.4731L34.5222 81.177L34.6125 81.4731ZM51.5779 91.9349C51.6138 92.2423 51.6137 92.2423 51.6137 92.2423C51.6137 92.2423 51.6137 92.2423 51.6138 92.2423C51.6139 92.2423 51.6142 92.2423 51.6147 92.2422C51.6156 92.2421 51.6172 92.2419 51.6194 92.2417C51.6238 92.2412 51.6307 92.2405 51.64 92.2395C51.6586 92.2376 51.687 92.2348 51.7246 92.2314C51.7998 92.2247 51.9119 92.2158 52.057 92.2073C52.3473 92.1903 52.7692 92.1748 53.2914 92.1817C54.3365 92.1955 55.7793 92.2986 57.3697 92.6553C60.5518 93.3689 64.2991 95.0902 66.663 99.1172L67.1969 98.8038C64.7169 94.579 60.7882 92.7875 57.5052 92.0512C55.8632 91.683 54.3762 91.5769 53.2996 91.5627C52.7609 91.5556 52.3241 91.5715 52.0208 91.5893C51.8691 91.5982 51.7507 91.6075 51.6696 91.6148C51.6291 91.6184 51.5978 91.6215 51.5764 91.6237C51.5657 91.6248 51.5574 91.6257 51.5517 91.6263C51.5488 91.6266 51.5466 91.6269 51.5449 91.6271C51.5441 91.6272 51.5435 91.6272 51.543 91.6273C51.5428 91.6273 51.5425 91.6273 51.5424 91.6274C51.5422 91.6274 51.542 91.6274 51.5779 91.9349ZM51.0325 79.1749C50.8209 79.4009 50.8209 79.4008 50.8208 79.4008C50.8208 79.4008 50.8208 79.4007 50.8208 79.4008C50.8208 79.4008 50.821 79.4009 50.8212 79.4012C50.8217 79.4016 50.8225 79.4024 50.8238 79.4036C50.8262 79.4059 50.8301 79.4097 50.8355 79.4148C50.8462 79.4252 50.8626 79.4412 50.884 79.4627C50.927 79.5057 50.9902 79.5706 51.0693 79.6562C51.2276 79.8275 51.4488 80.081 51.6969 80.4064C52.194 81.0583 52.7946 81.9932 53.216 83.1293C54.0524 85.3841 54.1946 88.4513 51.3442 91.7318L51.8116 92.1379C54.8307 88.6632 54.7002 85.3504 53.7965 82.914C53.3479 81.7046 52.7116 80.7161 52.1893 80.031C51.9277 79.688 51.6936 79.4196 51.524 79.236C51.4391 79.1442 51.3703 79.0736 51.3222 79.0253C51.2981 79.0012 51.2791 78.9827 51.2659 78.9699C51.2593 78.9635 51.2541 78.9585 51.2505 78.955C51.2486 78.9533 51.2472 78.9519 51.2461 78.9509C51.2456 78.9504 51.2451 78.95 51.2448 78.9496C51.2446 78.9495 51.2444 78.9493 51.2443 78.9492C51.2442 78.9491 51.244 78.9489 51.0325 79.1749ZM32.4777 74.2658C32.5481 74.5673 32.548 74.5673 32.548 74.5673C32.548 74.5673 32.5481 74.5673 32.5482 74.5672C32.5484 74.5672 32.5487 74.5671 32.5493 74.567C32.5503 74.5667 32.5521 74.5663 32.5545 74.5658C32.5594 74.5647 32.567 74.563 32.5773 74.5607C32.5978 74.5562 32.6289 74.5494 32.6702 74.5409C32.7527 74.5238 32.8757 74.4995 33.0355 74.471C33.3552 74.414 33.8215 74.3406 34.4041 74.2758C35.5699 74.1462 37.1982 74.0512 39.0466 74.1899C42.7469 74.4675 47.2994 75.6785 50.8076 79.3876L51.2574 78.9622C47.6047 75.1003 42.8798 73.8567 39.0929 73.5725C37.1978 73.4303 35.53 73.5277 34.3356 73.6605C33.7382 73.727 33.2584 73.8024 32.9269 73.8615C32.7612 73.891 32.6325 73.9165 32.5446 73.9347C32.5006 73.9438 32.4669 73.9511 32.4439 73.9562C32.4323 73.9587 32.4235 73.9607 32.4174 73.9621C32.4143 73.9628 32.4119 73.9633 32.4102 73.9637C32.4094 73.9639 32.4087 73.9641 32.4082 73.9642C32.408 73.9642 32.4077 73.9643 32.4076 73.9643C32.4074 73.9644 32.4072 73.9644 32.4777 74.2658ZM28.3921 68.2896L32.2149 74.4294L32.7404 74.1022L28.9176 67.9624L28.3921 68.2896ZM24.499 72.3087L28.8627 68.3554L28.447 67.8966L24.0834 71.85L24.499 72.3087ZM27.5417 75.9223L24.5394 71.8944L24.043 72.2643L27.0453 76.2923L27.5417 75.9223ZM20.7863 78.9876L27.4064 76.3956L27.1807 75.8191L20.5606 78.4112L20.7863 78.9876ZM17.6837 74.495L20.4109 78.8633L20.9361 78.5355L18.2088 74.1672L17.6837 74.495ZM11.4194 74.6407H17.9462V74.0216H11.4194V74.6407ZM15.6401 80.5123L11.682 74.1673L11.1568 74.4949L15.1148 80.8399L15.6401 80.5123ZM4.36548 85.2632L15.489 80.9648L15.2659 80.3874L4.14233 84.6857L4.36548 85.2632ZM10.0664 90.3072L4.47196 84.7548L4.03585 85.1942L9.63026 90.7466L10.0664 90.3072ZM17.2189 91.2542C17.4685 91.0711 17.4684 91.0709 17.4682 91.0707C17.4682 91.0707 17.468 91.0705 17.4679 91.0703C17.4677 91.07 17.4674 91.0696 17.4671 91.0692C17.4665 91.0684 17.4657 91.0673 17.4648 91.0661C17.4629 91.0636 17.4604 91.0603 17.4573 91.0562C17.4511 91.0481 17.4423 91.0368 17.4311 91.0228C17.4086 90.9948 17.3761 90.9556 17.3336 90.9076C17.2487 90.8117 17.1235 90.6802 16.9581 90.5322C16.6277 90.2367 16.1341 89.873 15.4785 89.5981C14.1532 89.0424 12.2115 88.8696 9.69878 90.2559L9.99785 90.7979C12.3523 89.4989 14.0959 89.6897 15.2391 90.169C15.8178 90.4116 16.2542 90.7332 16.5453 90.9936C16.6907 91.1237 16.7991 91.2378 16.8701 91.318C16.9055 91.358 16.9316 91.3895 16.9482 91.4102C16.9565 91.4205 16.9624 91.4282 16.9659 91.4328C16.9677 91.4351 16.9688 91.4366 16.9694 91.4374C16.9697 91.4378 16.9698 91.438 16.9698 91.4379C16.9698 91.4379 16.9698 91.4379 16.9697 91.4378C16.9697 91.4377 16.9696 91.4376 16.9695 91.4376C16.9694 91.4374 16.9693 91.4373 17.2189 91.2542ZM32.8968 113.53C31.4945 111.342 27.6363 105.726 24.1331 100.663C22.3806 98.1302 20.7155 95.7337 19.4886 93.9705C18.8751 93.0888 18.3712 92.3655 18.0206 91.8625C17.8453 91.6111 17.7083 91.4147 17.6152 91.2812C17.5686 91.2144 17.533 91.1634 17.5091 91.129C17.4971 91.1119 17.488 91.0989 17.4819 91.0902C17.4789 91.0858 17.4766 91.0825 17.4751 91.0803C17.4743 91.0792 17.4737 91.0784 17.4733 91.0778C17.4731 91.0776 17.473 91.0774 17.4729 91.0772C17.4728 91.0771 17.4727 91.077 17.2189 91.2542C16.9651 91.4314 16.9651 91.4314 16.9652 91.4316C16.9653 91.4317 16.9655 91.4319 16.9657 91.4322C16.9661 91.4327 16.9666 91.4336 16.9674 91.4347C16.9689 91.4368 16.9712 91.4401 16.9742 91.4445C16.9803 91.4532 16.9894 91.4662 17.0014 91.4833C17.0253 91.5177 17.0609 91.5687 17.1075 91.6354C17.2006 91.7688 17.3375 91.9652 17.5127 92.2166C17.8632 92.7194 18.3671 93.4426 18.9804 94.3241C20.2072 96.087 21.8719 98.4831 23.624 101.015C27.1302 106.083 30.9806 111.688 32.3756 113.864L32.8968 113.53ZM29.9089 119.431C29.9834 119.732 29.9836 119.732 29.9838 119.732C29.9838 119.732 29.984 119.732 29.9842 119.732C29.9845 119.732 29.985 119.731 29.9855 119.731C29.9865 119.731 29.9878 119.731 29.9895 119.73C29.9928 119.729 29.9975 119.728 30.0034 119.727C30.0152 119.724 30.032 119.719 30.0535 119.713C30.0963 119.701 30.1577 119.683 30.2341 119.659C30.3867 119.611 30.6002 119.537 30.847 119.435C31.3377 119.231 31.9736 118.909 32.5235 118.435C33.0744 117.961 33.5552 117.321 33.6954 116.485C33.836 115.647 33.6251 114.666 32.8968 113.53L32.3756 113.864C33.0458 114.91 33.1933 115.736 33.0848 116.383C32.9759 117.032 32.6 117.552 32.1195 117.966C31.6379 118.381 31.0675 118.673 30.6098 118.863C30.3824 118.957 30.1861 119.025 30.0476 119.069C29.9783 119.091 29.9237 119.107 29.887 119.117C29.8687 119.122 29.8549 119.126 29.8459 119.128C29.8415 119.129 29.8382 119.13 29.8363 119.13C29.8353 119.131 29.8347 119.131 29.8343 119.131C29.8342 119.131 29.8341 119.131 29.8341 119.131C29.8341 119.131 29.8342 119.131 29.8342 119.131C29.8343 119.131 29.8344 119.131 29.9089 119.431ZM32.2628 126.634L30.2068 119.347L29.611 119.515L31.6669 126.802L32.2628 126.634ZM43.8009 122.198L31.8615 126.426L32.0682 127.01L44.0076 122.781L43.8009 122.198ZM47.2444 128.045L44.1768 122.343L43.6317 122.636L46.6992 128.338L47.2444 128.045ZM51.3589 124.494L46.7854 127.944L47.1582 128.438L51.7317 124.989L51.3589 124.494ZM48.4886 120.612L51.2859 124.91L51.8047 124.573L49.0075 120.274L48.4886 120.612ZM55.4637 117.695L48.6432 120.152L48.853 120.734L55.6735 118.277L55.4637 117.695ZM58.2181 121.645L55.8312 117.822L55.306 118.15L57.693 121.973L58.2181 121.645ZM64.3507 121.09L57.9358 121.5L57.9753 122.118L64.3902 121.708L64.3507 121.09ZM60.2952 116.189L64.118 121.578L64.623 121.22L60.8001 115.83L60.2952 116.189ZM66.9299 98.9605C66.6751 99.1363 66.6751 99.1362 66.675 99.1361C66.6751 99.1362 66.6751 99.1362 66.6751 99.1363C66.6752 99.1364 66.6755 99.1368 66.6758 99.1373C66.6765 99.1383 66.6777 99.14 66.6793 99.1424C66.6825 99.1471 66.6875 99.1546 66.6942 99.1647C66.7076 99.1848 66.7278 99.2155 66.7537 99.2563C66.8057 99.3377 66.8809 99.4592 66.9721 99.6164C67.1546 99.9311 67.4007 100.388 67.6527 100.955C68.1576 102.09 68.6808 103.653 68.7706 105.38C68.8601 107.104 68.5187 108.988 67.2974 110.786C66.0747 112.586 63.9523 114.325 60.4334 115.722L60.6619 116.297C64.2643 114.867 66.5002 113.061 67.8095 111.134C69.12 109.205 69.484 107.18 69.3888 105.348C69.2939 103.52 68.7421 101.881 68.2184 100.703C67.956 100.113 67.6993 99.6364 67.5076 99.3058C67.4117 99.1405 67.332 99.0116 67.2757 98.9234C67.2476 98.8793 67.2253 98.8454 67.2099 98.8221C67.2021 98.8104 67.1961 98.8014 67.1919 98.7952C67.1897 98.7921 67.1881 98.7896 67.1869 98.7879C67.1863 98.787 67.1858 98.7863 67.1855 98.7858C67.1853 98.7855 67.1851 98.7853 67.185 98.7851C67.1848 98.7849 67.1847 98.7847 66.9299 98.9605ZM45.4659 113.624L36.65 101.326L36.1469 101.687L44.9627 113.985L45.4659 113.624ZM55.8424 100.814C57.8839 103.075 58.1865 104.939 57.6141 106.468C57.0274 108.035 55.4891 109.349 53.6264 110.41C51.7744 111.465 49.6572 112.239 47.9961 112.749C47.1669 113.004 46.4544 113.192 45.9497 113.317C45.6975 113.379 45.4972 113.425 45.3605 113.456C45.2921 113.471 45.2396 113.483 45.2044 113.49C45.1869 113.494 45.1736 113.497 45.1648 113.499C45.1604 113.5 45.1572 113.5 45.1551 113.501C45.154 113.501 45.1533 113.501 45.1528 113.501C45.1526 113.501 45.1524 113.501 45.1523 113.501C45.1522 113.501 45.1523 113.501 45.2143 113.805C45.2764 114.108 45.2766 114.108 45.2768 114.108C45.277 114.108 45.2773 114.108 45.2776 114.108C45.2783 114.107 45.2793 114.107 45.2806 114.107C45.2831 114.106 45.2868 114.106 45.2916 114.105C45.3013 114.103 45.3155 114.1 45.334 114.096C45.371 114.088 45.4254 114.076 45.4958 114.06C45.6366 114.029 45.8411 113.981 46.0981 113.918C46.6119 113.791 47.3358 113.6 48.1779 113.341C49.8594 112.824 52.0249 112.035 53.9328 110.948C55.83 109.868 57.5289 108.461 58.1939 106.685C58.8732 104.871 58.4421 102.769 56.3019 100.399L55.8424 100.814ZM47.379 98.166C50.0597 97.3503 52.1654 98.0085 53.6075 98.8693C54.3311 99.3012 54.8877 99.7846 55.263 100.16C55.4504 100.347 55.592 100.507 55.6858 100.619C55.7327 100.674 55.7676 100.718 55.7904 100.747C55.8018 100.762 55.8101 100.773 55.8153 100.78C55.8179 100.783 55.8198 100.786 55.8209 100.787C55.8214 100.788 55.8218 100.788 55.8219 100.789C55.822 100.789 55.822 100.789 55.822 100.789C55.822 100.789 55.8219 100.789 55.8219 100.789C55.8219 100.789 55.8218 100.789 56.0721 100.606C56.3224 100.424 56.3223 100.424 56.3222 100.424C56.3222 100.424 56.322 100.424 56.3219 100.424C56.3217 100.423 56.3214 100.423 56.3211 100.423C56.3205 100.422 56.3197 100.421 56.3186 100.419C56.3166 100.416 56.3137 100.413 56.3101 100.408C56.3028 100.398 56.2923 100.384 56.2787 100.367C56.2516 100.332 56.2119 100.282 56.1598 100.22C56.0558 100.096 55.9022 99.9234 55.7007 99.7219C55.2981 99.3195 54.7018 98.8015 53.9248 98.3377C52.3658 97.4071 50.0799 96.697 47.1988 97.5737L47.379 98.166ZM36.3985 101.506C36.5045 101.797 36.5046 101.797 36.5046 101.797C36.5046 101.797 36.5047 101.797 36.5048 101.797C36.5049 101.797 36.5051 101.797 36.5055 101.797C36.5061 101.796 36.507 101.796 36.5083 101.796C36.5108 101.795 36.5147 101.793 36.5197 101.791C36.5299 101.788 36.5451 101.782 36.5652 101.775C36.6054 101.76 36.6652 101.739 36.7433 101.711C36.8995 101.654 37.1289 101.572 37.4217 101.468C38.0073 101.259 38.8462 100.964 39.8587 100.615C41.8841 99.9185 44.6029 99.0107 47.379 98.166L47.1988 97.5737C44.4131 98.4213 41.6867 99.3317 39.6573 100.03C38.6424 100.379 37.8015 100.675 37.2142 100.884C36.9205 100.989 36.6902 101.072 36.5333 101.128C36.4548 101.156 36.3947 101.178 36.3541 101.193C36.3338 101.2 36.3184 101.206 36.3081 101.21C36.3029 101.212 36.299 101.213 36.2964 101.214C36.2951 101.214 36.2941 101.215 36.2934 101.215C36.2931 101.215 36.2928 101.215 36.2926 101.215C36.2925 101.215 36.2925 101.215 36.2924 101.215C36.2924 101.215 36.2924 101.215 36.3985 101.506ZM32.9713 95.8475L24.92 84.6121L24.4168 84.9727L32.4681 96.2082L32.9713 95.8475ZM42.4014 84.1841C44.2624 86.2437 44.5337 87.9354 44.0161 89.3189C43.4842 90.7405 42.0868 91.9366 40.3876 92.9046C38.699 93.8665 36.7679 94.5722 35.2519 95.0382C34.4953 95.2708 33.8452 95.4427 33.3848 95.5564C33.1546 95.6132 32.9719 95.6554 32.8472 95.6834C32.7849 95.6973 32.7371 95.7077 32.705 95.7146C32.689 95.718 32.6769 95.7206 32.669 95.7222C32.665 95.7231 32.662 95.7237 32.6601 95.7241C32.6592 95.7243 32.6585 95.7244 32.6581 95.7245C32.6578 95.7245 32.6577 95.7246 32.6576 95.7246C32.6576 95.7246 32.6576 95.7246 32.7197 96.0279C32.7818 96.3311 32.7819 96.3311 32.7821 96.331C32.7823 96.331 32.7826 96.3309 32.7829 96.3309C32.7836 96.3307 32.7845 96.3306 32.7856 96.3303C32.788 96.3298 32.7914 96.3291 32.7958 96.3282C32.8047 96.3263 32.8176 96.3236 32.8346 96.32C32.8685 96.3127 32.9183 96.3019 32.9826 96.2875C33.1113 96.2586 33.2983 96.2154 33.5332 96.1574C34.0027 96.0415 34.6642 95.8665 35.4338 95.63C36.9701 95.1577 38.9495 94.4363 40.694 93.4425C42.4278 92.4548 43.9858 91.1666 44.5959 89.5358C45.2204 87.8668 44.8204 85.9378 42.8608 83.7691L42.4014 84.1841ZM34.7027 81.7692C37.1408 81.0259 39.0552 81.6257 40.3668 82.4101C41.0251 82.8038 41.5316 83.2445 41.8731 83.5865C42.0436 83.7572 42.1723 83.9027 42.2576 84.0044C42.3002 84.0552 42.3319 84.095 42.3525 84.1215C42.3628 84.1347 42.3703 84.1446 42.375 84.1509C42.3773 84.154 42.379 84.1562 42.3799 84.1575C42.3804 84.1581 42.3807 84.1585 42.3808 84.1587C42.3809 84.1588 42.3809 84.1588 42.3809 84.1588C42.3808 84.1587 42.3808 84.1587 42.3808 84.1586C42.3807 84.1586 42.3806 84.1584 42.6311 83.9766C42.8816 83.7947 42.8815 83.7946 42.8814 83.7944C42.8813 83.7943 42.8812 83.7942 42.8811 83.794C42.8809 83.7937 42.8806 83.7934 42.8803 83.793C42.8797 83.7922 42.879 83.7911 42.878 83.7898C42.8761 83.7872 42.8734 83.7836 42.87 83.7791C42.8633 83.7701 42.8537 83.7575 42.8412 83.7414C42.8162 83.7093 42.7797 83.6636 42.732 83.6066C42.6365 83.4928 42.4958 83.3339 42.3112 83.149C41.9425 82.7798 41.3963 82.3044 40.6845 81.8787C39.256 81.0244 37.1611 80.3725 34.5222 81.177L34.7027 81.7692ZM24.6684 84.7924C24.7743 85.0833 24.7743 85.0833 24.7743 85.0833C24.7743 85.0833 24.7744 85.0833 24.7744 85.0832C24.7746 85.0832 24.7748 85.0831 24.7751 85.083C24.7757 85.0828 24.7765 85.0825 24.7777 85.0821C24.78 85.0812 24.7835 85.0799 24.7881 85.0783C24.7974 85.0749 24.8113 85.0699 24.8296 85.0632C24.8664 85.0499 24.9209 85.0302 24.9923 85.0045C25.1349 84.9532 25.3444 84.8781 25.6118 84.7831C26.1466 84.5932 26.9126 84.3237 27.8372 84.0059C29.6866 83.3702 32.169 82.5416 34.7027 81.7692L34.5222 81.177C31.9791 81.9523 29.4894 82.7834 27.636 83.4204C26.7091 83.739 25.9411 84.0092 25.4046 84.1997C25.1364 84.295 24.926 84.3704 24.7826 84.422C24.7109 84.4478 24.656 84.4677 24.6189 84.4811C24.6004 84.4878 24.5863 84.4929 24.5769 84.4963C24.5722 84.498 24.5686 84.4993 24.5662 84.5002C24.565 84.5006 24.5641 84.501 24.5635 84.5012C24.5632 84.5013 24.5629 84.5014 24.5628 84.5015C24.5627 84.5015 24.5626 84.5015 24.5626 84.5015C24.5625 84.5015 24.5625 84.5015 24.6684 84.7924Z" fill="black"/>
<path d="M56.0721 100.611C56.0721 100.611 52.8507 96.1819 47.2889 97.8742C41.7271 99.5665 36.3984 101.511 36.3984 101.511L39.1304 105.319C40.6502 104.811 42.3425 104.266 44.0581 103.744C49.6199 102.051 52.8413 106.485 52.8413 106.485C53.8122 107.466 54.5056 108.687 54.8506 110.023C58.0068 107.879 59.8437 104.807 56.0721 100.611Z" fill="#FFF1C1" stroke="black" stroke-width="0.619088" stroke-linecap="round" stroke-linejoin="round"/>
<path d="M42.6317 83.9766C42.6317 83.9766 39.6946 79.9253 34.613 81.4731C29.5315 83.0209 24.6689 84.7924 24.6689 84.7924L27.3403 88.3449C28.4871 87.9673 29.6107 87.5524 30.8368 87.1794C36.3939 85.4871 39.5174 89.86 39.5174 89.86C40.2981 90.6789 40.9125 91.6415 41.3263 92.6945C44.324 90.7365 46.1562 87.874 42.6317 83.9766Z" fill="#FFF1C1" stroke="black" stroke-width="0.619088" stroke-linecap="round" stroke-linejoin="round"/>
<path d="M131.782 115.291C116.15 149.063 115.931 183.823 129.339 202.741C130.838 203.764 132.419 204.662 134.066 205.426C159.805 217.343 195.926 194.046 214.747 153.398C233.567 112.75 227.954 70.1349 202.215 58.2188C200.979 57.6464 199.709 57.1513 198.411 56.7363C174.98 57.8785 147.763 80.769 131.782 115.291Z" fill="url(#paint0_radial_10132_126168)" stroke="black" stroke-width="0.619088" stroke-linecap="round" stroke-linejoin="round"/>
<g filter="url(#filter0_b_10132_126168)">
<path d="M261.361 32.7781C257.248 27.2687 260.751 17.6979 269.186 11.4012C277.621 5.10439 287.792 4.46611 291.905 9.97551C296.018 15.4849 292.515 25.0557 284.08 31.3525C275.646 37.6493 265.474 38.2875 261.361 32.7781Z" fill="white"/>
<path d="M261.361 32.7781C257.248 27.2687 260.751 17.6979 269.186 11.4012C277.621 5.10439 287.792 4.46611 291.905 9.97551C296.018 15.4849 292.515 25.0557 284.08 31.3525C275.646 37.6493 265.474 38.2875 261.361 32.7781Z" stroke="black" stroke-width="0.619088" stroke-miterlimit="10" stroke-linecap="round" stroke-linejoin="round"/>
</g>
<path d="M271.445 34.2755C267.684 34.6268 264.727 33.6339 263.114 31.476C261.583 29.4256 261.408 26.4647 262.623 23.1489C263.956 19.507 266.752 15.9618 270.495 13.1658C274.061 10.5024 278.083 8.84275 281.818 8.49504C285.579 8.14375 288.536 9.13668 290.149 11.2946C291.68 13.345 291.855 16.3059 290.64 19.6217C289.307 23.2636 286.511 26.8088 282.768 29.6048C279.202 32.2682 275.18 33.9243 271.445 34.2755Z" fill="#EBE9E9" stroke="black" stroke-width="0.619088" stroke-miterlimit="10" stroke-linecap="round" stroke-linejoin="round"/>
<path d="M282.705 9.65217C278.969 10.0035 274.948 11.6596 271.381 14.3229C267.639 17.1153 264.843 20.6605 263.509 24.3061C262.401 27.335 262.452 30.0629 263.635 32.0775C265.323 33.8124 268.054 34.5939 271.445 34.2749C275.181 33.9271 279.202 32.2675 282.769 29.6041C286.512 26.8117 289.308 23.2665 290.641 19.621C291.749 16.592 291.698 13.8641 290.516 11.8495C288.827 10.1146 286.092 9.33673 282.705 9.65217Z" fill="url(#paint1_linear_10132_126168)" stroke="black" stroke-width="0.619088" stroke-miterlimit="10" stroke-linecap="round" stroke-linejoin="round"/>
<path d="M295.34 14.5381C295.261 14.4198 295.179 14.3015 295.093 14.1868C294.989 14.047 294.881 13.9144 294.77 13.7818L292.017 10.1362C295.949 15.6673 292.436 25.1199 284.081 31.3571C275.829 37.5191 265.918 38.2611 261.638 33.1315L264.183 36.458C264.297 36.6372 264.419 36.8165 264.548 36.9885C264.717 37.2108 264.892 37.4223 265.079 37.6266V37.6302C269.484 42.4371 279.173 41.6055 287.267 35.5619C295.526 29.3999 299.057 20.0979 295.34 14.5381Z" fill="black" stroke="black" stroke-width="0.619088" stroke-miterlimit="10" stroke-linecap="round" stroke-linejoin="round"/>
<path d="M285.065 30.5859C284.742 30.8476 284.412 31.1057 284.075 31.3566C275.824 37.5186 265.912 38.2606 261.632 33.131L264.177 36.4575C264.292 36.6368 264.414 36.816 264.543 36.988C264.711 37.2103 264.887 37.4218 265.073 37.6261V37.6297C269.479 42.4366 279.168 41.605 287.262 35.5614C287.624 35.2925 287.979 35.0129 288.323 34.7333L285.065 30.5859Z" fill="white" stroke="black" stroke-width="0.619088" stroke-miterlimit="10" stroke-linecap="round" stroke-linejoin="round"/>
<path d="M286.242 16.0107H275.229C274.994 16.0107 274.708 16.1108 274.468 16.2774L272.558 17.6109C271.932 18.051 271.927 18.6777 272.55 18.6777H283.563C283.798 18.6777 284.084 18.5777 284.325 18.411L286.234 17.0775C286.86 16.6375 286.865 16.0107 286.242 16.0107ZM271.588 20.3446H282.601C282.836 20.3446 283.006 20.4446 283.054 20.6113L283.424 21.9448C283.542 22.3849 282.823 23.0116 282.2 23.0116H271.187C270.952 23.0116 270.782 22.9116 270.734 22.7449L270.364 21.4114C270.246 20.9714 270.965 20.3446 271.588 20.3446ZM281.238 24.6785H270.225C269.989 24.6785 269.704 24.7785 269.463 24.9452L267.554 26.2787C266.928 26.7187 266.923 27.3455 267.546 27.3455H278.559C278.794 27.3455 279.08 27.2455 279.32 27.0788L281.229 25.7453C281.856 25.3052 281.861 24.6785 281.238 24.6785Z" fill="url(#paint2_linear_10132_126168)"/>
<path d="M181.489 28.112L184.902 26.7134L185.084 33.5525L181.858 34.8113L181.489 28.112Z" fill="#D0F500" stroke="black" stroke-width="0.619088" stroke-linecap="round" stroke-linejoin="round"/>
<path d="M220.351 33.52C220.351 33.52 204.967 25.5946 185.088 33.548" stroke="black" stroke-width="0.619088" stroke-linecap="round" stroke-linejoin="round"/>
<g filter="url(#filter1_b_10132_126168)">
<path d="M72.1353 242.705C77.0473 238.987 75.4807 228.642 68.6362 219.599C61.7916 210.555 52.261 206.237 47.349 209.954C42.437 213.672 44.0037 224.017 50.8482 233.061C57.6928 242.105 67.2233 246.422 72.1353 242.705Z" fill="white"/>
<path d="M72.1353 242.705C77.0473 238.987 75.4807 228.642 68.6362 219.599C61.7916 210.555 52.261 206.237 47.349 209.954C42.437 213.672 44.0037 224.017 50.8482 233.061C57.6928 242.105 67.2233 246.422 72.1353 242.705Z" stroke="black" stroke-width="0.619088" stroke-miterlimit="10" stroke-linejoin="round"/>
</g>
<path d="M69.7824 239.595C73.5495 236.744 72.1066 228.492 66.5596 221.162C61.0126 213.833 53.462 210.203 49.6949 213.054C45.9278 215.905 47.3708 224.157 52.9177 231.487C58.4647 238.816 66.0153 242.446 69.7824 239.595Z" fill="#D0F1FF" stroke="black" stroke-width="0.619088" stroke-miterlimit="10" stroke-linejoin="round"/>
<g filter="url(#filter2_b_10132_126168)">
<path d="M71.2598 217.624C64.5309 208.732 55.2092 204.415 50.2273 207.803L50.223 207.798L50.1289 207.871C50.0779 207.907 50.0233 207.939 49.9715 207.98C49.9023 208.033 49.8387 208.09 49.7723 208.145L47.851 209.622C52.8887 206.533 62.0207 210.858 68.6402 219.605C75.407 228.548 77.0092 238.756 72.2975 242.579L74.4164 240.969L74.4128 240.965C74.5279 240.889 74.6451 240.813 74.7552 240.729C79.6679 237.015 78.1031 226.669 71.2598 217.624Z" fill="white"/>
<path d="M71.2598 217.624C64.5309 208.732 55.2092 204.415 50.2273 207.803L50.223 207.798L50.1289 207.871C50.0779 207.907 50.0233 207.939 49.9715 207.98C49.9023 208.033 49.8387 208.09 49.7723 208.145L47.851 209.622C52.8887 206.533 62.0207 210.858 68.6402 219.605C75.407 228.548 77.0092 238.756 72.2975 242.579L74.4164 240.969L74.4128 240.965C74.5279 240.889 74.6451 240.813 74.7552 240.729C79.6679 237.015 78.1031 226.669 71.2598 217.624Z" stroke="black" stroke-width="0.619088" stroke-miterlimit="10" stroke-linejoin="round"/>
</g>
<path d="M76.9218 228.825L74.2784 230.725C75.6544 235.851 75.0735 240.325 72.2971 242.58L74.4159 240.97L74.4123 240.967C74.5274 240.891 74.6447 240.815 74.7548 240.731C77.6602 238.533 78.298 234.019 76.9218 228.825Z" fill="black" stroke="black" stroke-width="0.619088" stroke-miterlimit="10" stroke-linejoin="round"/>
<path fill-rule="evenodd" clip-rule="evenodd" d="M64.246 223.32L64.2567 223.319L61.7024 229.084L55.4103 229.507L55.4144 229.499L55.4096 229.506L53.3814 217.189L64.256 223.317L64.246 223.32ZM55.9524 230.282L62.4738 230.187L64.7988 224.093L66.1388 235.426L55.9524 230.282Z" fill="black"/>
<path d="M250.217 307.818C266.987 307.818 280.581 300.734 280.581 291.995C280.581 283.256 266.987 276.172 250.217 276.172C233.448 276.172 219.854 283.256 219.854 291.995C219.854 300.734 233.448 307.818 250.217 307.818Z" fill="#EBE9E9"/>
<path d="M380 110.019L210.503 58.2704L209.939 58.1025L209.473 57.9627C205.859 56.948 202.103 56.5338 198.354 56.7366C197.646 56.7739 196.956 56.8298 196.219 56.8997H196.149L195.249 57.007L194.928 57.0489L194.06 57.1748L193.729 57.2308L192.839 57.3846L192.667 57.4172C191.666 57.6068 190.659 57.8353 189.646 58.1025L189.333 58.1818L188.461 58.4242L188.102 58.5314L187.221 58.7972L186.937 58.8904C185.955 59.2012 184.97 59.5509 183.981 59.9394L183.664 60.0606L182.802 60.4102L182.41 60.5734L181.562 60.937L181.193 61.1049C180.233 61.5338 179.268 61.9953 178.308 62.5035L177.963 62.6806L177.142 63.1142L176.676 63.352L175.883 63.7949L175.417 64.0513L174.615 64.5175L174.27 64.7226C173.734 65.0443 173.193 65.3706 172.657 65.7109L172.252 65.9674L171.492 66.4615L170.984 66.7972L170.252 67.2914L169.725 67.655L168.998 68.1678C168.82 68.289 168.648 68.4196 168.471 68.5454C168.042 68.8531 167.618 69.1701 167.193 69.4778L166.625 69.9068L165.953 70.4289L165.375 70.8951L164.704 71.4359L164.121 71.9021L163.468 72.4429L162.848 72.9697L162.238 73.4918C161.86 73.8182 161.487 74.1492 161.109 74.4848L160.536 75.007L159.879 75.6084L159.287 76.1585L158.648 76.7646L158.07 77.324L157.394 77.986C157.217 78.1632 157.039 78.3357 156.867 78.5128C156.489 78.8904 156.112 79.2727 155.739 79.6597L155.305 80.1259L154.545 80.9324L154.028 81.4872L153.352 82.2238L152.834 82.7972L152.14 83.5851L151.673 84.1212C151.361 84.4848 151.044 84.8531 150.741 85.2261C150.611 85.3753 150.485 85.5245 150.359 85.6923C150.046 86.0606 149.739 86.4382 149.426 86.8158L148.993 87.352L148.284 88.2378L147.818 88.8159L147.123 89.7156L146.694 90.2751C146.41 90.648 146.13 91.0256 145.851 91.4033C145.767 91.5152 145.678 91.627 145.594 91.7436C145.235 92.2331 144.881 92.7226 144.527 93.2168L144.177 93.711C143.93 94.0606 143.687 94.4056 143.445 94.7599L143.044 95.338L142.359 96.3543L141.972 96.9277C141.715 97.3147 141.459 97.7063 141.207 98.0979C141.114 98.2378 141.021 98.3776 140.932 98.5222C140.592 99.049 140.252 99.5851 139.921 100.121L139.659 100.545C139.408 100.951 139.156 101.361 138.909 101.772L138.559 102.359C138.335 102.727 138.116 103.096 137.902 103.469L137.548 104.075L136.858 105.287L136.578 105.781C136.261 106.35 135.949 106.923 135.645 107.501L135.487 107.79C135.231 108.256 134.97 108.76 134.718 109.249L134.41 109.842L133.795 111.044C133.692 111.259 133.585 111.469 133.478 111.683L132.862 112.932L132.587 113.501C132.298 114.103 132.009 114.709 131.725 115.324C131.29 116.256 130.868 117.198 130.461 118.149C130.368 118.354 130.28 118.564 130.191 118.769C129.79 119.702 129.401 120.625 129.025 121.538L128.858 121.967C128.517 122.807 128.191 123.65 127.869 124.494L127.669 125.012C127.324 125.944 126.993 126.876 126.666 127.772C126.601 127.963 126.536 128.154 126.466 128.35C126.163 129.226 125.865 130.107 125.58 130.984C125.58 131.063 125.529 131.138 125.506 131.217C125.203 132.149 124.918 133.082 124.643 134.014C124.583 134.21 124.522 134.41 124.466 134.606C124.192 135.538 123.93 136.471 123.678 137.403L123.622 137.622C123.386 138.505 123.161 139.386 122.946 140.266L122.82 140.779C122.6 141.711 122.39 142.628 122.191 143.529C122.163 143.674 122.13 143.823 122.102 143.967C121.916 144.835 121.742 145.697 121.58 146.555C121.58 146.653 121.538 146.751 121.52 146.849C121.346 147.781 121.19 148.698 121.053 149.599C121.053 149.762 121.002 149.925 120.974 150.065C120.682 151.93 120.435 153.77 120.233 155.585L120.191 156.009C120.091 156.923 120.006 157.829 119.935 158.727V158.928C119.869 159.804 119.813 160.681 119.767 161.548V161.795C119.72 162.695 119.687 163.59 119.669 164.476C119.669 164.578 119.669 164.676 119.669 164.779C119.631 166.578 119.645 168.348 119.711 170.089C119.711 170.187 119.711 170.28 119.711 170.378C119.785 172.14 119.908 173.873 120.079 175.576C120.079 175.627 120.079 175.683 120.079 175.739C120.168 176.597 120.27 177.441 120.382 178.28V178.373C120.615 180.07 120.903 181.727 121.245 183.343L121.273 183.483C121.617 185.096 122.012 186.665 122.457 188.191L122.485 188.28C123.147 190.549 123.955 192.773 124.904 194.937V194.97C125.526 196.368 126.194 197.711 126.909 198.998L126.937 199.054C127.65 200.326 128.428 201.562 129.268 202.755C131.313 205.681 133.79 208.28 136.615 210.462L222.769 300.853L380 110.019Z" fill="url(#paint3_linear_10132_126168)"/>
<path d="M196.796 146.485L200.541 125.246C200.544 125.229 200.547 125.212 200.564 125.192C200.581 125.172 200.584 125.155 200.599 125.152L207.025 119.973C207.042 119.953 207.056 119.95 207.07 119.948C207.085 119.945 207.099 119.942 207.11 119.957C207.121 119.971 207.135 119.968 207.132 119.985C207.143 120 207.14 120.017 207.137 120.034L201.915 149.651C201.912 149.669 201.909 149.686 201.892 149.706C201.874 149.726 201.871 149.743 201.857 149.745L169.601 175.879C169.584 175.899 169.57 175.902 169.556 175.905C169.542 175.908 169.527 175.91 169.516 175.896L151.505 165.005C151.493 164.99 151.482 164.976 151.485 164.959C151.474 164.944 151.477 164.927 151.48 164.91C151.483 164.893 151.486 164.876 151.504 164.856C151.521 164.836 151.524 164.819 151.538 164.816L157.978 159.634C157.996 159.614 158.01 159.612 158.024 159.609C158.038 159.606 158.052 159.603 158.063 159.618L171.015 167.397C171.026 167.411 171.04 167.409 171.054 167.406C171.069 167.403 171.083 167.4 171.1 167.38L196.718 146.616C196.735 146.596 196.749 146.593 196.752 146.576C196.776 146.522 196.779 146.504 196.796 146.485Z" fill="black"/>
<path d="M209.105 108.493C209.094 108.479 209.097 108.462 209.083 108.464L184.142 93.4981C184.131 93.4836 184.117 93.4864 184.103 93.4891C184.089 93.4919 184.074 93.4946 184.057 93.5146L151.858 119.637C151.844 119.64 151.827 119.66 151.824 119.677C151.821 119.694 151.803 119.714 151.8 119.732L144.582 160.746C144.579 160.764 144.576 160.781 144.587 160.795C144.598 160.81 144.595 160.827 144.609 160.824C144.623 160.821 144.632 160.853 144.646 160.85C144.66 160.847 144.674 160.845 144.691 160.825L156.983 150.775C157.001 150.755 157.015 150.752 157.029 150.75C157.043 150.747 157.057 150.744 157.068 150.758L172.299 159.968C172.31 159.983 172.324 159.98 172.338 159.977C172.352 159.975 172.366 159.972 172.384 159.952L192.188 143.915C192.206 143.895 192.22 143.893 192.223 143.875C192.24 143.855 192.243 143.838 192.246 143.821L194.674 130.051C194.677 130.034 194.666 130.02 194.669 130.003L196.67 118.654L209.035 108.656C209.052 108.636 209.066 108.633 209.069 108.616C209.073 108.599 209.09 108.579 209.093 108.562C209.096 108.545 209.116 108.508 209.105 108.493ZM161.546 125.365C161.529 125.385 161.512 125.405 161.494 125.425C161.477 125.445 161.474 125.462 161.468 125.496L158.495 142.356C158.492 142.374 158.486 142.408 158.469 142.428C158.452 142.448 158.435 142.468 158.417 142.488L152.83 147.023C152.812 147.043 152.798 147.045 152.77 147.051C152.756 147.054 152.727 147.059 152.716 147.045C152.705 147.03 152.694 147.016 152.683 147.001C152.672 146.987 152.675 146.97 152.681 146.935L156.934 122.812C156.937 122.795 156.943 122.761 156.961 122.741C156.978 122.721 156.995 122.701 157.012 122.681L182.531 101.936C182.548 101.916 182.563 101.913 182.591 101.908C182.605 101.905 182.633 101.899 182.645 101.914L197.398 110.802C197.409 110.816 197.42 110.831 197.431 110.845C197.442 110.86 197.439 110.877 197.433 110.911C197.427 110.945 197.424 110.963 197.407 110.983C197.39 111.002 197.373 111.022 197.355 111.042L191.824 115.566C191.807 115.586 191.793 115.589 191.765 115.594C191.751 115.597 191.722 115.603 191.711 115.588L181.345 109.363C181.334 109.348 181.319 109.351 181.291 109.356C181.277 109.359 181.249 109.365 181.231 109.385L161.546 125.365ZM187.089 140.794C187.072 140.814 187.069 140.832 187.054 140.834L173.827 151.53C173.81 151.55 173.796 151.553 173.782 151.555C173.768 151.558 173.754 151.561 173.742 151.546L163.709 145.372C163.695 145.375 163.698 145.358 163.687 145.343C163.676 145.329 163.679 145.312 163.682 145.295L166.637 128.537C166.64 128.52 166.643 128.503 166.66 128.483C166.677 128.463 166.68 128.446 166.694 128.443L179.747 117.881C179.764 117.861 179.778 117.858 179.793 117.855C179.807 117.853 179.821 117.85 179.832 117.864L190.076 123.931L187.387 139.178L187.112 140.74C187.109 140.757 187.106 140.775 187.089 140.794Z" fill="black"/>
<path d="M238.089 275.272C243.338 273.244 246.681 269.253 245.548 266.363C244.415 263.473 239.273 262.773 234.024 264.806C228.774 266.838 225.431 270.824 226.564 273.715C227.697 276.605 232.858 277.305 238.089 275.272Z" fill="white" stroke="black" stroke-width="0.619088" stroke-linecap="round" stroke-linejoin="round"/>
<path d="M237.398 273.487C242.643 271.454 245.99 267.468 244.857 264.578C243.725 261.687 238.578 260.988 233.328 263.021C228.079 265.053 224.736 269.039 225.869 271.93C227.002 274.82 232.149 275.52 237.398 273.487Z" fill="black" stroke="black" stroke-width="0.619088" stroke-linecap="round" stroke-linejoin="round"/>
<path d="M245.258 193.65C245.258 193.65 244.097 185.99 235.5 187.491C227.948 188.811 212.932 191.976 206.913 203.048L214.023 228.69C214.023 228.69 220.787 257.394 232.521 270.951C232.521 270.951 243.165 272.494 243.347 264.671C243.347 264.671 235.757 250.163 237.048 239.496L245.258 193.669" fill="white"/>
<path d="M245.258 193.65C245.258 193.65 244.097 185.99 235.5 187.491C227.948 188.811 212.932 191.976 206.913 203.048L214.023 228.69C214.023 228.69 220.787 257.394 232.521 270.951C232.521 270.951 243.165 272.494 243.347 264.671C243.347 264.671 235.757 250.163 237.048 239.496L245.258 193.669" stroke="black" stroke-width="0.619088" stroke-miterlimit="10"/>
<path d="M233.608 230.844C227.967 233.403 221.845 234.731 215.65 234.741C215.837 235.38 216.037 236.051 216.252 236.76C225.315 237.058 234.224 233.165 234.224 233.165L233.608 230.844Z" fill="#D0F500" stroke="black" stroke-width="0.619088" stroke-linecap="round" stroke-linejoin="round"/>
<path d="M225.398 205.072C233.347 205.072 239.794 200.223 239.794 194.247C239.794 188.27 233.347 183.421 225.398 183.421C217.449 183.421 211.002 188.265 211.002 194.247C211.002 200.228 217.421 205.072 225.398 205.072Z" fill="#EBE9E9" stroke="black" stroke-width="0.619088" stroke-linecap="round" stroke-linejoin="round"/>
<path d="M221.3 198.787C224.55 198.787 227.727 197.823 230.43 196.018C233.132 194.212 235.239 191.645 236.483 188.642C237.726 185.64 238.052 182.335 237.418 179.147C236.784 175.96 235.218 173.032 232.92 170.733C230.622 168.435 227.694 166.87 224.506 166.236C221.318 165.602 218.014 165.927 215.011 167.171C212.008 168.415 209.442 170.521 207.636 173.224C205.83 175.926 204.866 179.103 204.866 182.354C204.866 186.712 206.598 190.892 209.679 193.974C212.761 197.056 216.941 198.787 221.3 198.787Z" fill="white" stroke="black" stroke-width="0.619088" stroke-linecap="round" stroke-linejoin="round"/>
<path d="M219.491 166.009C216.434 166.347 213.532 167.536 211.117 169.442C208.702 171.348 206.871 173.893 205.832 176.789C204.793 179.684 204.587 182.813 205.239 185.82C205.891 188.826 207.374 191.589 209.519 193.794C215.496 189.165 221.944 183.897 221.944 183.897L219.491 166.009Z" fill="url(#paint4_linear_10132_126168)" stroke="black" stroke-width="0.619088" stroke-linecap="round" stroke-linejoin="round"/>
<path d="M259.039 268.61C262.881 268.61 266 263.804 266 257.888C266 251.972 262.881 247.165 259.039 247.165C255.198 247.165 252.079 251.967 252.079 257.888C252.079 263.808 255.193 268.61 259.039 268.61Z" fill="white" stroke="black" stroke-width="0.619088" stroke-linecap="round" stroke-linejoin="round"/>
<path d="M258.306 247.202C249.821 243.403 248.679 232.605 248.679 232.605L235.015 240.68C235.453 243.147 236.278 245.528 237.458 247.738C240.166 252.517 252.078 259.743 252.078 259.743L252.166 259.571C252.107 259.008 252.077 258.444 252.078 257.878C252.078 252.326 254.81 247.762 258.306 247.202Z" fill="white" stroke="black" stroke-width="0.619088" stroke-linecap="round" stroke-linejoin="round"/>
<path d="M199.035 244.713C198.942 245.179 198.844 245.57 198.844 245.678C198.783 246.004 197.869 247.617 196.918 246.209C195.967 244.801 197.534 240.811 197.534 240.811C196.834 241.832 196.783 243.249 196.629 244.358C196.604 244.652 196.471 244.926 196.256 245.127C196.04 245.329 195.758 245.443 195.464 245.449C193.552 245.515 195.464 239.617 195.464 239.617C194.951 241.045 194.638 242.537 194.531 244.051C193.338 244.517 193.375 243.37 193.921 239.752C194.466 236.135 197.37 233.934 197.37 233.934C197.464 234.325 197.642 234.692 197.893 235.006C199.622 237.123 203.417 240.186 206.648 238.428C206.172 239.134 205.664 239.813 205.123 240.466C203.939 241.92 202.76 242.829 201.827 244.717C200.895 246.605 198.825 247.734 198.914 245.911C198.96 245.393 198.993 245.025 199.035 244.713ZM199.035 244.713C199.179 243.981 199.548 242.186 199.548 242.186C199.445 242.787 199.114 244.368 199.035 244.713Z" fill="white"/>
<path d="M199.035 244.713C198.942 245.179 198.844 245.57 198.844 245.678C198.783 246.004 197.869 247.617 196.918 246.209C195.967 244.801 197.534 240.811 197.534 240.811C196.834 241.832 196.783 243.249 196.629 244.358C196.604 244.652 196.471 244.926 196.256 245.127C196.04 245.329 195.758 245.443 195.464 245.449C193.552 245.515 195.464 239.617 195.464 239.617C194.951 241.045 194.638 242.537 194.531 244.051C193.338 244.517 193.375 243.37 193.921 239.752C194.466 236.135 197.37 233.934 197.37 233.934C197.464 234.325 197.642 234.692 197.893 235.006C199.622 237.123 203.417 240.186 206.648 238.428C206.172 239.134 205.664 239.813 205.123 240.466C203.939 241.92 202.76 242.829 201.827 244.717C200.895 246.605 198.825 247.734 198.914 245.911C198.96 245.393 198.993 245.025 199.035 244.713ZM199.035 244.713C199.179 243.981 199.548 242.186 199.548 242.186C199.445 242.787 199.114 244.368 199.035 244.713Z" stroke="black" stroke-width="0.619088" stroke-linecap="round" stroke-linejoin="round"/>
<path d="M237.459 247.739C237.459 247.739 233.594 254.13 221.688 252.023C222.331 253.566 223.016 255.119 223.734 256.653C223.734 256.653 230.783 258.984 238.569 252.457C238.135 250.928 237.748 249.343 237.459 247.739Z" fill="#D0F500" stroke="black" stroke-width="0.619088" stroke-linecap="round" stroke-linejoin="round"/>
<path d="M243.346 264.652C241.975 261.924 240.78 259.11 239.77 256.228L234.064 259.711C233.778 259.883 233.529 260.112 233.332 260.382C233.136 260.654 232.995 260.961 232.917 261.286C232.841 261.61 232.83 261.946 232.885 262.275C232.937 262.606 233.056 262.923 233.234 263.207L237.896 270.713C240.582 270.116 243.258 268.54 243.346 264.652Z" fill="#D0F500" stroke="black" stroke-width="0.619088" stroke-linecap="round" stroke-linejoin="round"/>
<path d="M261.958 248.135C258.172 248.242 255.128 253.002 255.128 258.857C255.128 263.174 256.783 266.89 259.165 268.596C262.946 268.489 265.99 263.729 265.99 257.874C265.995 253.561 264.345 249.841 261.958 248.135Z" fill="black" stroke="black" stroke-width="0.619088" stroke-linecap="round" stroke-linejoin="round"/>
<path d="M251.235 240.396C250.797 239.595 250.411 238.766 250.079 237.916C250.079 237.916 239.02 236.125 238.792 249.571C239.461 250.314 240.17 251.019 240.918 251.683C240.918 251.683 239.85 240.564 251.235 240.396Z" fill="#D0F500" stroke="black" stroke-width="0.619088" stroke-linecap="round" stroke-linejoin="round"/>
<path d="M258.307 247.202C255.954 246.126 253.931 244.441 252.447 242.321C252.447 242.321 245.221 242.755 245.575 246.885C245.625 247.413 245.784 247.924 246.041 248.387C246.311 248.847 246.671 249.249 247.1 249.566L252.591 253.762C253.566 250.205 255.734 247.617 258.307 247.202Z" fill="#D0F500" stroke="black" stroke-width="0.619088" stroke-linecap="round" stroke-linejoin="round"/>
<path d="M206.914 203.049C206.914 203.049 206.028 204.914 204.867 212.121C203.706 219.328 202.96 221.263 201.049 224.536C199.138 227.809 195.865 232.499 197.911 234.997C199.958 237.496 204.876 241.319 208.354 236.956C211.832 232.592 218.448 224.051 218.82 210.48C218.82 210.48 216.075 202.023 206.914 203.049Z" fill="white" stroke="black" stroke-width="0.619088" stroke-linecap="round" stroke-linejoin="round"/>
<path d="M206.162 212.051C206.162 212.051 210.223 215.09 213.122 215.533L212.367 220C212.367 220 207.155 218.946 205.789 216.839L206.162 212.051Z" fill="#D0F500" stroke="black" stroke-width="0.619088" stroke-linecap="round" stroke-linejoin="round"/>
<path d="M203.486 218.978C203.171 220.143 202.748 221.276 202.223 222.363C206.377 231.067 214.185 228.232 214.213 228.223C214.879 226.952 215.478 225.648 216.008 224.316C208.638 226.321 204.922 221.593 203.486 218.978Z" fill="#D0F500" stroke="black" stroke-width="0.619088" stroke-linecap="round" stroke-linejoin="round"/>
<path d="M205.109 229.482L200.479 237.407C202.838 239.081 205.943 239.99 208.354 236.941C209.761 235.201 211.077 233.39 212.298 231.515C212.298 231.515 207.626 230.881 205.109 229.482Z" fill="#D0F500" stroke="black" stroke-width="0.619088" stroke-linecap="round" stroke-linejoin="round"/>
<path d="M250.149 196.671L229.016 207.622C228.706 207.78 228.453 208.029 228.288 208.335C228.121 208.64 228.05 208.987 228.083 209.333L230.633 240.41C230.661 240.695 230.759 240.969 230.918 241.207C231.08 241.444 231.298 241.638 231.552 241.771C231.806 241.905 232.09 241.974 232.377 241.972C232.664 241.968 232.946 241.892 233.198 241.753L255.239 228.727C255.54 228.56 255.783 228.306 255.939 228C256.096 227.694 256.159 227.348 256.121 227.007L252.661 198.004C252.626 197.727 252.525 197.461 252.367 197.23C252.209 196.999 251.998 196.809 251.752 196.676C251.505 196.547 251.23 196.478 250.95 196.475C250.671 196.474 250.396 196.541 250.149 196.671Z" fill="white" stroke="black" stroke-width="0.619088" stroke-linecap="round" stroke-linejoin="round"/>
<path d="M248.065 209.179C249.739 209.179 251.1 207.491 251.1 205.407C251.1 203.323 249.739 201.636 248.065 201.636C246.392 201.636 245.03 203.323 245.03 205.407C245.03 207.491 246.378 209.179 248.065 209.179Z" fill="black" stroke="black" stroke-width="0.619088" stroke-linecap="round" stroke-linejoin="round"/>
<path d="M252.531 214.671L253.258 223.948L233.384 235.007L232.521 225.044L252.531 214.671Z" fill="#D0F500" stroke="black" stroke-width="0.619088" stroke-linecap="round" stroke-linejoin="round"/>
<path d="M230.638 240.41L228.088 209.333C228.055 208.987 228.126 208.64 228.293 208.335C228.458 208.029 228.711 207.78 229.021 207.622L250.154 196.671C250.509 196.481 250.922 196.427 251.314 196.517L241.944 192.219C241.879 192.181 241.81 192.15 241.739 192.126C241.512 192.041 241.271 192.005 241.03 192.018C240.789 192.032 240.554 192.097 240.34 192.209L219.188 203.161C218.879 203.317 218.624 203.564 218.457 203.869C218.291 204.174 218.221 204.522 218.256 204.867L221.244 234.914C221.268 235.182 221.356 235.441 221.501 235.669C221.647 235.898 221.845 236.089 222.079 236.228C222.193 236.297 222.315 236.352 222.443 236.391L231.375 241.669C231.167 241.526 230.993 241.338 230.867 241.119C230.74 240.902 230.662 240.66 230.638 240.41Z" fill="#EBE9E9" stroke="black" stroke-width="0.619088" stroke-linecap="round" stroke-linejoin="round"/>
<path d="M251.309 196.517L241.938 192.219C241.873 192.181 241.805 192.15 241.733 192.126C241.507 192.041 241.266 192.005 241.025 192.018C240.784 192.032 240.549 192.097 240.335 192.209L219.188 203.161C218.793 203.365 218.493 203.714 218.349 204.135L228.088 209.175C228.082 208.854 228.166 208.539 228.331 208.264C228.496 207.99 228.735 207.767 229.02 207.622L250.153 196.671C250.507 196.482 250.918 196.427 251.309 196.517Z" fill="white" stroke="black" stroke-width="0.619088" stroke-linecap="round" stroke-linejoin="round"/>
<path d="M227.762 236.47L224.083 234.279C223.894 234.162 223.734 234.003 223.617 233.813C223.5 233.629 223.429 233.42 223.407 233.202L222.545 223.515C222.537 223.425 222.553 223.335 222.591 223.254C222.631 223.174 222.69 223.107 222.764 223.058C222.838 223.006 222.925 222.977 223.016 222.974C223.104 222.966 223.193 222.984 223.272 223.025L226.675 224.932C226.953 225.087 227.189 225.308 227.361 225.575C227.534 225.843 227.64 226.148 227.668 226.466L228.489 235.995C228.504 236.086 228.493 236.18 228.456 236.265C228.419 236.35 228.357 236.421 228.279 236.47C228.2 236.522 228.108 236.548 228.013 236.545C227.924 236.543 227.837 236.517 227.762 236.47Z" fill="black" stroke="black" stroke-width="0.619088" stroke-linecap="round" stroke-linejoin="round"/>
<path d="M244.708 193.65C244.708 194.317 243.575 194.862 242.181 194.862C240.787 194.862 239.659 194.317 239.659 193.65V195.268C239.813 195.864 240.876 196.331 242.163 196.331C243.449 196.331 244.494 195.864 244.666 195.268V193.65H244.708Z" fill="url(#paint5_linear_10132_126168)" stroke="black" stroke-width="0.619088" stroke-linecap="round" stroke-linejoin="round"/>
<path d="M242.181 194.862C243.58 194.862 244.703 194.316 244.703 193.65C244.703 192.983 243.575 192.438 242.181 192.438C240.787 192.438 239.659 192.978 239.659 193.65C239.659 194.321 240.783 194.862 242.181 194.862Z" fill="#D0F500" stroke="black" stroke-width="0.619088" stroke-linecap="round" stroke-linejoin="round"/>
<path d="M221.305 165.916C218.385 165.919 215.519 166.706 213.007 168.195C210.936 171.131 209.836 174.64 209.86 178.233C209.86 187.165 216.387 194.405 224.424 194.405C230.125 194.405 235.063 190.764 237.477 185.459C237.673 184.443 237.771 183.411 237.771 182.377C237.776 180.216 237.353 178.075 236.529 176.077C235.704 174.079 234.493 172.263 232.966 170.734C231.438 169.205 229.624 167.992 227.627 167.165C225.63 166.338 223.49 165.914 221.328 165.916H221.305Z" fill="white" stroke="black" stroke-width="0.619088" stroke-linecap="round" stroke-linejoin="round"/>
<path d="M225.198 192.638C217.352 192.638 210.979 185.571 210.979 176.848C210.962 173.704 211.826 170.618 213.473 167.939C213.319 168.023 213.16 168.102 213.007 168.195C210.936 171.131 209.836 174.641 209.86 178.233C209.86 187.165 216.387 194.405 224.424 194.405C230.125 194.405 235.063 190.764 237.477 185.459C237.533 185.16 237.58 184.862 237.622 184.564C235.16 189.38 230.526 192.638 225.198 192.638Z" fill="url(#paint6_linear_10132_126168)" stroke="black" stroke-width="0.619088" stroke-linecap="round" stroke-linejoin="round"/>
<path d="M215.3 187.921C213.902 185.958 211.669 185.124 210.172 186L210.107 186.047L209.995 186.117C209.962 186.136 209.933 186.159 209.906 186.187L208.321 187.315C209.785 186.27 212.149 187.082 213.603 189.124C215.002 191.077 215.039 193.445 213.757 194.559L215.244 193.515C216.736 192.438 216.736 189.958 215.3 187.921Z" fill="#D0F500" stroke="black" stroke-width="0.619088" stroke-linecap="round" stroke-linejoin="round"/>
<path d="M213.585 194.676C215.049 193.636 215.063 191.137 213.608 189.081C212.154 187.025 209.79 186.228 208.326 187.272C206.862 188.317 206.853 190.811 208.326 192.867C209.799 194.923 212.121 195.72 213.585 194.676Z" fill="#424242" stroke="black" stroke-width="0.619088" stroke-linecap="round" stroke-linejoin="round"/>
<path d="M213.37 194.834C213.948 193.594 213.687 191.78 212.586 190.233C211.188 188.303 209.02 187.477 207.547 188.275C206.969 189.515 207.23 191.328 208.33 192.876C209.705 194.806 211.878 195.636 213.37 194.834Z" fill="white" stroke="black" stroke-width="0.619088" stroke-linecap="round" stroke-linejoin="round"/>
<defs>
<filter id="filter0_b_10132_126168" x="236.67" y="-16.7406" width="79.9266" height="76.2352" filterUnits="userSpaceOnUse" color-interpolation-filters="sRGB">
<feFlood flood-opacity="0" result="BackgroundImageFix"/>
<feGaussianBlur in="BackgroundImageFix" stdDeviation="11.3293"/>
<feComposite in2="SourceAlpha" operator="in" result="effect1_backgroundBlur_10132_126168"/>
<feBlend mode="normal" in="SourceGraphic" in2="effect1_backgroundBlur_10132_126168" result="shape"/>
</filter>
<filter id="filter1_b_10132_126168" x="33.5913" y="197.724" width="52.3017" height="57.2109" filterUnits="userSpaceOnUse" color-interpolation-filters="sRGB">
<feFlood flood-opacity="0" result="BackgroundImageFix"/>
<feGaussianBlur in="BackgroundImageFix" stdDeviation="5.2932"/>
<feComposite in2="SourceAlpha" operator="in" result="effect1_backgroundBlur_10132_126168"/>
<feBlend mode="normal" in="SourceGraphic" in2="effect1_backgroundBlur_10132_126168" result="shape"/>
</filter>
<filter id="filter2_b_10132_126168" x="40.6072" y="199.407" width="44.2543" height="50.4154" filterUnits="userSpaceOnUse" color-interpolation-filters="sRGB">
<feFlood flood-opacity="0" result="BackgroundImageFix"/>
<feGaussianBlur in="BackgroundImageFix" stdDeviation="3.46689"/>
<feComposite in2="SourceAlpha" operator="in" result="effect1_backgroundBlur_10132_126168"/>
<feBlend mode="normal" in="SourceGraphic" in2="effect1_backgroundBlur_10132_126168" result="shape"/>
</filter>
<radialGradient id="paint0_radial_10132_126168" cx="0" cy="0" r="1" gradientUnits="userSpaceOnUse" gradientTransform="translate(172.763 132.64) rotate(90) scale(75.9035 53.1158)">
<stop stop-color="white"/>
<stop offset="1" stop-color="#D0F500"/>
</radialGradient>
<linearGradient id="paint1_linear_10132_126168" x1="293.293" y1="58.042" x2="277.075" y2="9.58349" gradientUnits="userSpaceOnUse">
<stop stop-color="#666666"/>
<stop offset="1"/>
</linearGradient>
<linearGradient id="paint2_linear_10132_126168" x1="285.6" y1="13.7528" x2="282.502" y2="29.1342" gradientUnits="userSpaceOnUse">
<stop stop-color="#10E0A7"/>
<stop offset="1" stop-color="#CD27EE"/>
</linearGradient>
<linearGradient id="paint3_linear_10132_126168" x1="40.4659" y1="-3.96283" x2="299.919" y2="205.068" gradientUnits="userSpaceOnUse">
<stop stop-color="#D0F500"/>
<stop offset="1" stop-color="#D0F500" stop-opacity="0"/>
</linearGradient>
<linearGradient id="paint4_linear_10132_126168" x1="209.633" y1="178.297" x2="213.405" y2="193.794" gradientUnits="userSpaceOnUse">
<stop stop-color="#D0F500"/>
<stop offset="1" stop-color="#798F00"/>
</linearGradient>
<linearGradient id="paint5_linear_10132_126168" x1="242.184" y1="193.65" x2="242.184" y2="196.331" gradientUnits="userSpaceOnUse">
<stop/>
<stop offset="1" stop-color="#666666"/>
</linearGradient>
<linearGradient id="paint6_linear_10132_126168" x1="223.729" y1="194.405" x2="223.729" y2="167.939" gradientUnits="userSpaceOnUse">
<stop/>
<stop offset="1" stop-color="#666666"/>
</linearGradient>
</defs>
</svg>
