<svg width="82" height="24" viewBox="0 0 82 24" fill="none" xmlns="http://www.w3.org/2000/svg">
<path d="M17.9755 16.7252V10.5402C17.9755 10.5352 17.9755 10.5302 17.9805 10.5252C17.9854 10.5202 17.9854 10.5152 17.9904 10.5152L19.9838 9.3302C19.9888 9.3252 19.9937 9.3252 19.9987 9.3252C20.0036 9.3252 20.0086 9.3252 20.0135 9.3302C20.0185 9.3352 20.0234 9.3352 20.0234 9.3402C20.0283 9.3452 20.0283 9.3502 20.0283 9.3552V17.9802C20.0283 17.9852 20.0283 17.9902 20.0234 17.9952C20.0185 18.0002 20.0185 18.0052 20.0135 18.0052L10.0166 23.9952C10.0117 24.0002 10.0067 24.0002 10.0018 24.0002C9.99682 24.0002 9.99187 24.0002 9.98692 23.9952L2.77985 19.6552C2.77491 19.6502 2.76996 19.6452 2.76996 19.6402C2.76501 19.6352 2.76501 19.6302 2.76501 19.6252C2.76501 19.6202 2.76501 19.6152 2.76996 19.6102C2.77491 19.6052 2.77491 19.6002 2.77985 19.6002L4.77825 18.4152C4.78319 18.4102 4.78814 18.4102 4.79308 18.4102C4.79803 18.4102 4.80298 18.4102 4.80792 18.4152L9.98692 21.5202C9.99187 21.5252 9.99682 21.5252 10.0018 21.5252C10.0067 21.5252 10.0117 21.5252 10.0166 21.5202L17.9558 16.7602C17.9607 16.7552 17.9657 16.7552 17.9657 16.7502C17.9706 16.7352 17.9706 16.7302 17.9755 16.7252Z" fill="black"/>
<path d="M20.0037 5.99002C19.9988 5.98502 19.9988 5.98002 19.9938 5.98002L10.0216 0.00500002C10.0167 0 10.0117 0 10.0068 0C10.0019 0 9.9969 0 9.99196 0.00500002L0.0148395 5.99502C0.00989303 5.99502 0.00494651 6.00002 0.00494651 6.00502C0.00494651 6.01002 0 6.01502 0 6.02002L0.00494651 17.9651C0.00494651 17.9701 0.00494651 17.9751 0.00989303 17.9801C0.0148395 17.9851 0.0148395 17.9901 0.0197861 17.9901C0.0247326 17.9901 0.0296791 18.0001 0.0346256 18.0001C0.0395721 18.0001 0.0445186 18.0001 0.0494651 17.9951L3.85333 15.685C3.85828 15.68 3.86323 15.68 3.86817 15.68C3.87312 15.68 3.87807 15.68 3.88301 15.685L9.97712 19.3551C9.98206 19.3601 9.98701 19.3601 9.99196 19.3601C9.9969 19.3601 10.0019 19.3601 10.0068 19.3551L16.1454 15.68C16.1504 15.675 16.1553 15.675 16.1553 15.67C16.1603 15.665 16.1603 15.66 16.1603 15.655V11.645C16.1603 11.64 16.1553 11.635 16.1553 11.63V8.32503L19.9889 6.03502C19.9938 6.03002 19.9988 6.03002 19.9988 6.02502C19.9988 6.02002 20.0037 6.01502 20.0037 6.01002C20.0037 6.00502 20.0086 5.99502 20.0037 5.99002ZM3.88301 8.29003C3.87807 8.29503 3.87312 8.30003 3.86817 8.30503C3.86323 8.31003 3.86323 8.31503 3.86323 8.32503V13.235C3.86323 13.24 3.86323 13.25 3.85828 13.255C3.85333 13.26 3.84839 13.265 3.84344 13.27L2.11216 14.31C2.10721 14.315 2.10227 14.315 2.09238 14.315C2.08743 14.315 2.07754 14.315 2.07259 14.31C2.06764 14.305 2.0627 14.3 2.05775 14.295C2.0528 14.29 2.0528 14.285 2.0528 14.275V7.25002C2.0528 7.24502 2.0528 7.23502 2.05775 7.23002C2.0627 7.22502 2.06764 7.22002 2.07259 7.21502L9.97712 2.45501C9.98206 2.45001 9.98701 2.45001 9.9969 2.45001C10.0019 2.45001 10.0117 2.45001 10.0167 2.45501L15.9179 6.00002C15.9228 6.00502 15.9278 6.01002 15.9327 6.01502C15.9377 6.02002 15.9377 6.02502 15.9377 6.03502C15.9377 6.04502 15.9377 6.05002 15.9327 6.05502C15.9278 6.06002 15.9228 6.06502 15.9179 6.07002L14.2064 7.11002C14.2014 7.11502 14.1965 7.11502 14.1866 7.11502C14.1817 7.11502 14.1718 7.11502 14.1668 7.11002L10.0216 4.62501C10.0167 4.62001 10.0117 4.62001 10.0019 4.62001C9.9969 4.62001 9.98701 4.62001 9.98206 4.62501L3.88301 8.29003ZM14.1025 14.44C14.0976 14.445 14.0976 14.45 14.0926 14.45L9.99196 16.9001C9.98701 16.9051 9.98206 16.9051 9.97712 16.9051C9.97217 16.9051 9.96722 16.9051 9.96228 16.9001L5.94076 14.45C5.93582 14.45 5.93582 14.445 5.93087 14.44C5.92592 14.435 5.92592 14.43 5.92592 14.425V9.54503C5.92592 9.54003 5.92592 9.53503 5.93087 9.53003C5.93582 9.52503 5.93582 9.52003 5.94076 9.52003L9.98701 7.10002C9.99196 7.09502 9.9969 7.09502 10.0019 7.09502C10.0068 7.09502 10.0117 7.09502 10.0167 7.10002L14.1075 9.53003V13.97V14.425C14.1075 14.43 14.1075 14.435 14.1025 14.44Z" fill="black"/>
<path d="M24.3439 18.0036V5.58936H33.3041C33.893 5.58936 34.3885 5.64331 34.7918 5.75121C35.195 5.84684 35.5217 6.01604 35.7728 6.25636C36.0239 6.49667 36.2038 6.82158 36.3127 7.2311C36.4216 7.64062 36.476 8.1519 36.476 8.76495V9.54106C36.476 10.7206 35.9805 11.3998 34.9884 11.5801C35.4795 11.6524 35.8928 11.8682 36.2305 12.2299C36.5683 12.5904 36.7371 13.1446 36.7371 13.89V14.7017C36.7371 15.3393 36.6716 15.8751 36.5405 16.3079C36.4094 16.7284 36.2027 17.0656 35.9194 17.3182C35.6472 17.5708 35.2928 17.751 34.8562 17.8601C34.4207 17.9558 33.9029 18.0048 33.303 18.0048H24.3439V18.0036ZM34.5462 13.9624C34.5462 13.505 34.464 13.1862 34.3007 13.006C34.1485 12.8135 33.843 12.7179 33.3852 12.7179H26.5503V15.5686H33.303C33.7941 15.5686 34.1207 15.484 34.284 15.316C34.4585 15.1357 34.5451 14.8353 34.5451 14.4136V13.9624H34.5462ZM34.2851 9.10826C34.2851 8.711 34.2085 8.43513 34.0563 8.27819C33.9141 8.12125 33.6641 8.044 33.3041 8.044H26.5514V10.7328H33.3208C33.6696 10.7328 33.9152 10.6482 34.0563 10.4803C34.2085 10.3 34.2851 9.99963 34.2851 9.57785V9.10826Z" fill="black"/>
<path d="M71.2498 20.9509V8.62019H73.5883L73.6755 10.2255H73.7803C74.3387 9.18469 75.5778 8.46143 77.4102 8.46143C80.1501 8.46143 82 10.3313 82 13.3126C82 16.2762 80.1501 18.1813 77.3928 18.1813C75.7872 18.1813 74.4085 17.4581 73.8326 16.3291H73.7279V20.9509H71.2498ZM76.6772 16.2585C78.3701 16.2585 79.5044 15.1472 79.5044 13.3126C79.5044 11.4427 78.3701 10.3842 76.6772 10.3842C74.8099 10.3842 73.7279 11.5662 73.7279 12.995V13.5595C73.7279 15.0413 74.8099 16.2585 76.6772 16.2585Z" fill="black"/>
<path d="M63.2185 18.1813C60.4785 18.1813 58.6287 16.2762 58.6287 13.3126C58.6287 10.3313 60.4785 8.46143 63.2185 8.46143C65.0683 8.46143 66.3074 9.18469 66.8484 10.2255H66.9706L67.0404 8.62019H69.3964V18.0049H66.9182V16.3291H66.7961C66.2202 17.4581 64.8415 18.1813 63.2185 18.1813ZM63.9689 16.2585C65.8188 16.2585 66.9008 15.0413 66.9008 13.5595V12.995C66.9008 11.5662 65.8188 10.3842 63.9689 10.3842C62.2761 10.3842 61.1243 11.425 61.1243 13.3126C61.1243 15.1472 62.2586 16.2585 63.9689 16.2585Z" fill="black"/>
<path d="M52.9832 18.0049V7.24424H48.5853V5.14502H59.9813V7.24424H55.5311V18.0049H52.9832Z" fill="black"/>
<path d="M46.4854 18.0051C45.002 18.0051 44.0945 17.3172 44.0945 15.8177V10.5256H42.2795V8.6204H44.0945V5.63916H46.5378V8.6204H48.8937V10.5256H46.5378V15.0415C46.5378 15.6766 46.8519 15.853 47.4627 15.853H48.8937V18.0051H46.4854Z" fill="black"/>
<path d="M38.579 7.49394V5.3418H41.0571V7.49394H38.579ZM38.579 18.005V8.62023H41.0571V18.005H38.579Z" fill="black"/>
</svg>
