<svg width="8" height="10" viewBox="0 0 8 10" fill="none" xmlns="http://www.w3.org/2000/svg">
<path d="M7.70981 3.82294C7.31458 4.18145 6.87987 4.50006 6.44513 4.7789C6.08941 3.06612 5.39781 1.45292 4.42949 -0.000976562C4.11334 1.43304 3.54026 2.78734 2.73008 4.02214C2.41392 3.52421 2.13724 2.98646 1.91987 2.44871C-2.17064 6.57136 1.22825 9.49903 3.34263 9.49903C6.08941 9.49903 8.50025 8.18456 7.70981 3.82294Z" fill="url(#paint0_linear_8683_57621)"/>
<path d="M5.90148 6.35938C5.68286 6.55769 5.44239 6.73394 5.20191 6.88818C5.00514 5.94074 4.62257 5.04838 4.08694 4.24414C3.91206 5.03738 3.59505 5.78653 3.14689 6.46957C2.97201 6.19414 2.81896 5.89668 2.69872 5.59921C0.436005 7.8797 2.31614 9.49917 3.48573 9.49917C5.00514 9.49917 6.33872 8.77206 5.90148 6.35938Z" fill="#FFB904"/>
<defs>
<linearGradient id="paint0_linear_8683_57621" x1="3.93104" y1="-0.000976562" x2="3.93104" y2="9.49903" gradientUnits="userSpaceOnUse">
<stop stop-color="#FF2D33"/>
<stop offset="1" stop-color="#FFA17D"/>
</linearGradient>
</defs>
</svg>
