<svg width="210" height="140" viewBox="0 0 210 140" fill="none" xmlns="http://www.w3.org/2000/svg" class="dark:hidden"><path d="M105.353 116.314C80.3329 116.487 39.3302 120.486 25.8457 93.2378C12.4913 66.2527 51.5958 49.2744 68.8319 37.8655C91.4895 22.8692 114.675 11.8975 139.53 28.9364C149.773 35.958 156.225 45.7583 165.009 54.1331C169.351 58.2737 175.229 60.0855 179.102 65.3027C182.762 70.2316 184.809 76.4137 184.586 82.5608C183.184 121.198 131.502 116.135 105.353 116.314ZM187.174 30.6003C186.149 17.1275 174.94 7.75266 161.642 13.954C156.624 16.2945 152.104 20.9457 150.919 26.4938C149.451 33.3653 154.381 39.0092 158.561 43.8923C163.31 49.4404 168.832 54.3278 174.958 58.3184C178.189 60.4227 186.326 65.5421 186.576 58.8312C186.696 55.6225 183.678 53.1012 184.029 49.5457C184.676 42.9859 187.702 37.541 187.174 30.6003ZM44.4019 26.1087C40.2739 26.0768 36.0596 26.0587 32.1395 27.3481C28.2195 28.6375 24.5745 31.4908 23.457 35.4558C22.0707 40.3762 25.096 45.8211 29.593 48.2701C34.091 50.7192 39.6362 50.5862 44.5342 49.084C49.4321 47.5818 53.8342 44.8381 58.2074 42.1731C61.7852 39.9932 74.921 35.2867 70.5989 28.8056C67.0094 23.4224 49.992 26.1512 44.4019 26.1087Z" fill="#E0E0E0"></path><path opacity="0.3" d="M162.287 73.0994C162.13 73.0994 161.974 73.0952 161.832 73.0352C161.985 73.0544 162.138 73.0748 162.287 73.0994Z" fill="white"></path><path opacity="0.3" d="M162.913 73.217C162.71 73.1709 162.5 73.1313 162.285 73.098C162.505 73.097 162.726 73.0905 162.913 73.217Z" fill="white"></path><path opacity="0.3" d="M183.684 74.7489C183.099 74.7468 182.514 74.7394 181.929 74.7277C181.461 74.7191 180.992 74.7074 180.52 74.6936C177.389 74.401 175.728 71.2052 173 70.1403C171.458 69.6668 169.914 71.0871 168.965 72.6255C168.491 73.217 167.778 73.3351 167.025 73.468C166.674 73.4957 166.316 73.4968 165.957 73.4819C164.516 73.4234 163.034 73.0989 161.729 72.9797C161.762 73.0021 161.796 73.0202 161.832 73.034C159.42 72.7382 156.658 72.9627 155.323 71.3222C152.238 67.2976 147.374 69.9019 143.548 69.6679C142.695 69.7264 141.833 69.7551 140.97 69.7424C138.382 69.703 135.782 69.2838 133.397 68.1412C133.006 67.9923 132.61 67.8423 132.214 67.6997C130.228 66.9933 128.168 66.5146 126.015 67.5721C125.341 67.721 124.557 67.6848 123.751 67.6231C122.145 67.5029 120.533 67.4061 118.913 67.3401C115.338 67.1955 111.772 67.1997 108.211 67.3104C107.766 67.3242 107.318 67.3391 106.85 67.3327C106.326 67.4167 105.851 67.2987 105.377 67.0614C100.987 65.1677 96.004 65.6411 91.2394 65.4645C90.431 65.7975 89.7955 66.2327 89.1802 66.6933C87.9485 67.6146 86.7861 68.6413 85.1951 68.7242C84.7834 68.7498 84.3729 68.7785 83.9634 68.8115C83.5443 68.8317 83.1263 68.8519 82.7072 68.8721C79.7735 69.0104 76.8442 69.154 73.9372 69.3572C76.0732 69.6658 78.4459 69.3572 80.5296 69.6817C80.0753 69.7339 79.62 69.786 79.1646 69.8381C75.5229 70.2573 71.8822 70.6754 68.2405 71.0488C67.7862 71.0956 67.3309 71.1424 66.7668 71.1914C63.5889 71.2935 60.3812 71.5935 57.1671 71.8903C56.3641 71.9637 55.5601 72.0382 54.7549 72.1095C51.1591 71.5212 47.8373 71.4435 44.4323 72.435C43.4747 72.5786 42.6877 72.5755 42.0777 72.4276C41.4677 72.2786 40.9857 72.0233 40.7191 71.5978C40.6007 71.3658 40.3629 71.0573 39.8884 71.0573C37.0411 71.0573 34.3122 71.8297 31.4735 71.5871C30.2589 71.5541 29.4378 71.4637 28.6732 71.3584C27.8723 71.2488 27.0736 71.1286 26.2812 70.9977C28.3181 67.371 31.2165 63.9975 34.6076 60.8537C37.8846 60.7005 41.1638 60.5654 44.4429 60.4431C45.1254 60.5686 45.729 60.6473 46.4158 60.7771C49.1425 61.1665 53.294 62.9442 55.0738 60.4718C55.43 59.8526 56.7352 60.1622 57.7078 60.0314C58.1471 60.0186 58.5897 60.008 59.0322 59.9973C59.318 60.0175 59.5761 60.0197 59.8374 60.026C63.7222 60.2888 67.6785 60.7197 71.6092 60.4654C72.3941 60.4144 73.18 60.3367 73.9638 60.2239C77.5309 59.8367 81.0596 59.9537 84.6064 60.0877C85.001 60.1016 85.3955 60.1175 85.7794 60.1314C86.11 60.1484 86.4406 60.1612 86.768 60.1814C87.0954 60.2016 87.4196 60.225 87.7341 60.2452C88.2919 60.4346 88.8848 60.3165 89.4777 60.5527C88.8848 59.9612 87.9357 60.0792 87.2767 59.842C86.9855 59.7899 86.6891 59.7537 86.3926 59.7239C87.1039 59.6643 87.8141 59.7388 88.5062 59.7718C90.9003 59.9611 93.0362 59.6058 95.409 60.1984C95.7651 60.3165 96.1501 60.3761 96.5468 60.3739C100.154 59.2515 103.714 59.3707 107.438 59.5207C107.7 59.5282 107.961 59.5345 108.222 59.5452C107.747 59.7005 107.154 59.5441 106.851 59.8377C106.944 59.8665 107.373 59.8814 107.859 59.892C108.345 59.9016 108.831 59.9111 109.317 59.9218C109.802 59.9314 110.287 59.942 110.774 59.9526C113.976 59.8877 117.099 60.4495 120.232 60.808C121.015 60.8984 121.8 60.975 122.585 61.0271C125.236 60.4771 127.892 60.3867 130.585 60.4931C130.969 60.5069 131.355 60.5261 131.741 60.5484C134.085 60.5527 135.983 61.9729 138.237 62.3283C138.593 62.3283 139.068 62.4463 139.424 62.3283C142.414 60.9431 145.691 60.9005 148.653 61.6836C148.981 61.7697 149.306 61.8665 149.626 61.974C154.253 62.8027 159.71 65.6433 164.063 62.6336C164.354 62.5421 164.666 62.4857 165.013 62.4868C165.457 62.5166 165.903 62.5485 166.35 62.5804C166.684 62.6049 167.017 62.6293 167.352 62.6538C167.687 62.6783 168.021 62.7038 168.354 62.7283C170.981 63.04 173.591 62.9208 176.055 63.3379C176.526 63.3804 177.002 63.423 177.476 63.4655C177.5 63.4677 177.522 63.4698 177.547 63.4719V63.473C178.096 64.0368 178.616 64.6411 179.108 65.3028C181.203 68.121 182.769 71.3509 183.684 74.7489Z" fill="white"></path><path opacity="0.3" d="M182.992 92.135C180.785 98.9873 176.463 103.928 170.844 107.481C170.268 107.412 169.692 107.343 169.116 107.27C168.866 107.236 168.616 107.199 168.354 107.16C163.625 106.121 158.88 105.884 154.085 105.002C153.61 104.921 153.135 104.839 152.661 104.757C152.305 104.695 151.948 104.632 151.593 104.571C151.237 104.508 150.881 104.445 150.526 104.382C147.135 104.109 142.983 98.7831 140.254 102.215C140.017 102.451 139.661 102.451 139.424 102.333C136.458 101.268 133.373 100.676 130.252 100.642C129.792 100.561 129.328 100.478 128.864 100.394C122.825 99.3108 116.769 98.3001 110.705 97.4894C109.796 97.0862 109.375 96.9532 108.905 96.7947C106.441 96.533 102.052 92.9829 100.9 96.1394C100.678 96.2351 100.33 96.2628 99.9171 96.2564C99.5044 96.2489 99.0277 96.2085 98.5499 96.1713C98.0733 96.133 97.5966 96.0968 97.1189 96.0628C93.2724 95.5872 89.476 95.5872 85.6797 95.6149C85.2041 95.6138 84.7274 95.6149 84.2518 95.6181C82.3461 95.6308 80.4426 95.683 78.5391 95.7766C78.0635 95.8 77.5879 95.8266 77.1091 95.8542C72.7476 96.0585 68.3583 94.4021 63.969 95.1117C64.4436 95.9404 65.6305 95.9404 65.9856 96.8873C65.9856 96.8873 65.7488 97.0054 65.6838 97.0671C65.3159 97.1585 64.8616 97.233 64.4073 97.3107C62.5913 97.6192 60.7805 97.9639 58.9741 98.3267C58.5219 98.4182 58.0698 98.5086 57.6005 98.598C54.2404 99.3735 49.4949 95.5861 47.2416 99.965C46.6487 101.149 44.6311 101.03 43.2427 101.447C42.8854 101.511 42.5218 101.569 42.1571 101.627C41.4298 101.741 40.7004 101.848 39.971 101.949C37.5641 102.278 35.1242 102.516 32.6822 102.623C29.9768 100.003 27.6648 96.9022 25.8509 93.2371C24.4187 90.3423 23.5902 87.5635 23.2734 84.8943C23.3065 84.89 23.3385 84.8858 23.3715 84.8826C23.7714 84.857 24.1756 84.8421 24.6064 84.8517C27.9048 85.0528 31.7011 87.6571 34.43 85.6443C35.8536 84.5794 37.2773 83.2772 39.1552 82.9453C39.5284 82.8708 39.9337 82.8123 40.3389 82.7569C41.5556 82.5889 42.7735 82.4293 43.9902 82.2803C44.5575 82.2591 45.1227 82.2388 45.8137 82.2516C49.8522 82.2112 53.7669 83.6314 57.801 83.0399C57.5632 82.3303 56.6141 82.3303 56.5491 81.4495C56.709 81.3612 57.0119 81.3122 57.3851 81.2846C57.7605 81.2569 58.2063 81.2516 58.652 81.2494C59.0988 81.2473 59.5456 81.2473 59.9925 81.2516C62.427 81.2643 64.9181 81.6197 67.3868 81.6197C67.711 81.6431 67.9285 81.6622 68.0832 81.6814C68.5961 81.6197 68.9512 81.975 69.4204 81.8686C69.8694 81.9239 70.3173 81.9824 70.7641 82.0442C71.6598 82.1665 72.5535 82.3005 73.445 82.4463C73.8897 82.5186 74.3386 82.5952 74.8014 82.6846C78.3237 83.6325 81.7639 84.3432 85.4173 84.8538C85.8599 84.9528 86.3014 85.0528 86.7439 85.1528C87.1481 85.2443 87.5544 85.3358 87.9586 85.4273C90.7813 86.1177 93.6286 86.7092 96.479 87.2869C96.8864 87.3688 97.2927 87.4486 97.7 87.5295C98.9221 87.7678 100.146 87.9923 101.373 88.1997C103.663 88.5848 105.96 88.9051 108.262 89.171C108.725 89.2263 109.189 89.2795 109.655 89.3327C113.677 89.6678 117.592 91.3243 121.744 91.3243C121.388 90.969 120.795 90.8509 120.676 90.2594C120.676 90.2594 120.795 90.1413 120.891 90.1902C121.197 90.1647 121.661 90.1838 122.124 90.2019C122.959 90.2349 123.792 90.2636 124.629 90.2881C125.048 90.3008 125.465 90.3115 125.883 90.3221C129.338 90.2583 132.66 90.1402 136.062 90.4391C136.49 90.4636 136.918 90.4828 137.346 90.4977C142.051 90.6572 146.729 90.2689 151.426 90.3913C151.891 90.3913 152.356 90.3913 152.821 90.3923C156.149 90.0221 160.3 93.4542 162.964 90.7158C163.239 90.6328 163.609 90.5987 163.98 90.5668C164.91 90.5977 165.842 90.6338 166.774 90.6764C167.24 90.6977 167.709 90.72 168.236 90.7732C170.029 91.087 171.689 91.3232 173.469 91.4424C175.96 91.5605 178.333 91.5605 180.777 91.8392C181.238 91.8956 181.702 91.9562 182.167 92.019C182.443 92.0562 182.718 92.0956 182.992 92.135Z" fill="white"></path><path opacity="0.3" d="M164.795 53.9223C163.663 53.9159 162.531 53.8638 161.404 53.7691C160.97 53.6925 160.536 53.6095 160.1 53.4467C158.285 52.5031 156.743 51.202 154.725 51.3201C153.301 51.3201 151.996 52.0307 150.572 51.7935C146.776 51.0828 143.691 49.071 140.07 48.4359C139.67 48.3083 139.272 48.1721 138.877 48.0359C138.483 47.8987 138.089 47.7614 137.698 47.6252C137.307 47.488 136.917 47.3508 136.529 47.2146C133.014 45.9943 129.573 44.5741 125.777 44.1006C125.45 44.0411 125.206 43.923 125.013 43.7719C124.435 43.3176 124.324 42.5623 123.879 42.207C121.387 39.9579 117.591 42.207 114.328 41.4878C113.91 41.4059 113.495 41.3271 113.081 41.2484C112.615 41.1612 112.149 41.0739 111.685 40.9878C110.117 40.9048 109.287 39.7218 108.219 38.7749C107.626 38.3015 106.795 38.4196 106.083 38.4196C100.507 38.0643 94.812 38.893 89.2081 38.3036C88.9202 38.2845 88.6536 38.2685 88.3774 38.2515C87.6672 38.2121 86.9559 38.1781 86.2457 38.1462C85.8436 38.1185 85.4405 38.093 85.1089 38.0621C84.9649 38.0643 84.7282 37.9462 84.6098 37.9462C84.7282 37.7089 85.0844 37.8281 85.0844 37.5908C81.1696 37.3536 77.3733 37.9462 73.4415 38.0217C72.967 38.0334 72.4935 38.0462 72.0189 38.0621C70.7766 38.1026 69.5342 38.1536 68.293 38.2185C68.4753 38.1004 68.6577 37.9813 68.8347 37.8632C74.3117 34.2375 79.8196 30.8491 85.3734 28.0352C85.9524 28.1149 86.5325 28.1958 87.1116 28.2777C87.4848 28.3309 87.8602 28.3852 88.2142 28.4703C90.3043 28.9511 91.0167 31.7917 93.1516 31.6725C96.1172 31.5544 98.9645 30.015 102.099 30.7342C102.497 30.7619 102.876 30.7991 103.27 30.8299C103.611 30.8906 103.953 30.9491 104.294 31.0097C104.751 31.0906 105.207 31.1704 105.662 31.2523C108.199 31.6289 110.762 31.9162 113.31 32.4545C113.456 32.514 113.637 32.5811 113.672 32.6438C115.929 34.3939 120.318 33.8024 123.374 34.729C124.28 34.9226 125.184 35.1195 126.087 35.3184C126.539 35.4173 126.987 35.5269 127.412 35.712C129.809 36.9972 132.301 39.3643 135.029 38.6547C136.571 38.2994 137.994 37.944 139.418 38.4175C140.106 38.5834 140.776 38.7962 141.435 39.0302C141.764 39.1462 142.091 39.2696 142.418 39.392C144.756 40.3101 147.366 41.0207 149.976 41.2569C151.336 41.3835 152.621 41.7538 153.886 42.2016C157.433 46.139 160.886 50.17 164.795 53.9223Z" fill="white"></path><path d="M131.789 117.294C111.608 114.021 91.3228 114.511 71.5956 117.583C69.8798 93.5228 67.7972 69.4899 65.3477 45.4933C84.7112 39.2835 104.706 35.5897 124.718 35.7078C127.49 62.8652 129.847 90.0641 131.789 117.294Z" fill="url(#paint0_linear_676_5539)"></path><path d="M118.503 76.4284C118.297 76.423 118.084 76.339 117.912 76.1751C113.885 72.3346 109.856 68.6983 105.833 65.2588C105.491 64.9662 105.445 64.4598 105.729 64.1258C106.014 63.7917 106.521 63.7577 106.862 64.0524C110.888 67.5153 114.919 71.176 118.949 75.0411C119.291 75.3698 119.337 75.8911 119.05 76.2028C118.908 76.3581 118.71 76.4337 118.503 76.4284Z" fill="black"></path><path d="M107.412 76.5179C107.206 76.5264 106.994 76.4562 106.823 76.3062C106.482 76.0072 106.437 75.4998 106.724 75.1721C110.091 71.3198 113.45 67.4995 116.797 63.7185C117.082 63.3972 117.591 63.395 117.934 63.7174C118.277 64.0387 118.325 64.56 118.041 64.8791C114.691 68.6357 111.33 72.4326 107.96 76.2615C107.816 76.4243 107.618 76.5104 107.412 76.5179Z" fill="black"></path><path d="M89.6041 78.082C89.4004 78.1096 89.1892 78.0617 89.0207 77.9319C85.0506 74.8861 81.0921 72.0243 77.1539 69.338C76.8191 69.1103 76.7754 68.6327 77.0558 68.2709C77.3363 67.9092 77.8354 67.8007 78.1713 68.0316C82.1148 70.737 86.0775 73.618 90.0519 76.6851C90.39 76.9457 90.4326 77.4372 90.1479 77.7809C90.005 77.9511 89.8077 78.0543 89.6041 78.082Z" fill="black"></path><path d="M78.6629 79.8554C78.4603 79.8937 78.2524 79.8586 78.085 79.7405C77.7512 79.5054 77.7096 79.0277 77.9922 78.6735C81.3183 74.4988 84.6454 70.3359 87.9693 66.1911C88.2519 65.8389 88.7553 65.757 89.0933 66.0113C89.4314 66.2645 89.4772 66.756 89.1946 67.106C85.8664 71.2296 82.535 75.3733 79.2036 79.5288C79.0607 79.7054 78.8656 79.8171 78.6629 79.8554Z" fill="black"></path><path d="M118.124 99.0691C118.037 99.0649 117.947 99.0447 117.858 99.0095C116.735 98.5691 115.587 98.1702 114.448 97.8223C114.326 97.785 114.202 97.7478 114.08 97.7095C114.019 97.5935 113.957 97.4776 113.896 97.3627C113.41 96.4414 112.892 95.5201 112.354 94.619C111.302 94.5477 110.243 94.5147 109.2 94.5168C109.079 94.5168 108.958 94.5179 108.837 94.519C108.75 94.4296 108.662 94.3392 108.575 94.2498C107.832 93.4902 107.056 92.7444 106.267 92.0306C105.243 92.2838 104.222 92.5753 103.225 92.8976C103.114 92.9338 103.003 92.97 102.892 93.0051C102.786 92.9476 102.682 92.8902 102.576 92.8327C101.639 92.3231 100.674 91.8412 99.7025 91.3986C98.812 91.9508 97.9333 92.5348 97.0866 93.1359C96.9917 93.203 96.8968 93.271 96.8008 93.3391C96.6846 93.3157 96.5694 93.2934 96.4532 93.27C95.4145 93.0636 94.3545 92.8934 93.2988 92.7625C92.6291 93.5391 91.9796 94.337 91.3622 95.1392C91.2897 95.2339 91.2172 95.3286 91.1436 95.4222C91.0242 95.4339 90.9037 95.4456 90.7842 95.4573C89.7498 95.5584 88.7037 95.6956 87.6704 95.8669C87.2779 96.769 86.9058 97.6829 86.5645 98.5893C86.5219 98.7032 86.4781 98.817 86.4355 98.9308C86.3192 98.9766 86.2019 99.0223 86.0857 99.0681C85.0076 99.4904 83.9295 99.9564 82.8791 100.453C82.4738 100.645 82.0046 100.495 81.8308 100.118C81.657 99.7415 81.8425 99.2798 82.2478 99.0862C83.2139 98.6244 84.2035 98.1872 85.1942 97.785C85.5632 96.8244 85.962 95.8584 86.3832 94.9073C86.4429 94.7722 86.5027 94.637 86.5624 94.5019C86.7106 94.4753 86.8578 94.4487 87.006 94.4221C88.0969 94.2264 89.2038 94.0668 90.3033 93.9487C90.9623 93.0998 91.6544 92.2561 92.3657 91.4391C92.4606 91.3305 92.5544 91.222 92.6493 91.1135C92.7933 91.1295 92.9362 91.1454 93.0802 91.1614C94.1945 91.288 95.3164 91.4571 96.419 91.6657C97.3191 91.0295 98.2511 90.4135 99.1938 89.8337C99.3143 89.7592 99.4348 89.6858 99.5553 89.6113C99.6865 89.6698 99.8187 89.7283 99.9499 89.7869C100.978 90.2454 102.002 90.7475 102.998 91.2816C104.057 90.9422 105.139 90.638 106.221 90.3752C106.361 90.3411 106.501 90.3071 106.639 90.2741C106.751 90.3731 106.862 90.4731 106.974 90.572C107.812 91.3199 108.638 92.1061 109.431 92.9104C110.54 92.9115 111.664 92.9551 112.777 93.0402C112.929 93.0519 113.079 93.0636 113.231 93.0753C113.312 93.2104 113.394 93.3455 113.475 93.4806C114.05 94.4317 114.604 95.4084 115.127 96.3871C116.176 96.7169 117.23 97.0882 118.264 97.4935C118.697 97.6638 118.958 98.1436 118.846 98.5617C118.756 98.8936 118.459 99.0883 118.124 99.0691Z" fill="black"></path><path d="M69.5041 89.1455L66.4553 86.823C66.1493 86.59 65.9285 86.2879 65.7984 85.957L62.418 90.1785C62.5886 90.2529 62.7517 90.3476 62.9053 90.4647L66.7422 93.3871C66.8957 93.5041 67.0301 93.636 67.1453 93.7786L70.5257 89.5572C70.1642 89.5146 69.8102 89.3784 69.5041 89.1455Z" fill="#D6CFCD"></path><path d="M67.1448 93.7785C67.0296 93.6359 66.8953 93.504 66.7417 93.387L62.9059 90.4645C62.7523 90.3475 62.5881 90.2528 62.4186 90.1784C61.4481 89.7528 60.2708 90.0092 59.5873 90.8635L58.9336 91.6795C59.4487 91.8263 59.9435 92.0689 60.3914 92.4104L65.4173 96.2382C65.8651 96.5797 66.2266 96.9892 66.4975 97.4414L67.1512 96.6254C67.8337 95.7701 67.8028 94.5934 67.1448 93.7785Z" fill="#8E8E92"></path><path d="M66.4966 97.439C66.4518 97.3645 66.4049 97.2911 66.3548 97.2188L42.585 126.905C42.3248 127.229 42.0539 127.538 41.7734 127.831C42.1456 127.839 42.5178 127.822 42.8867 127.777C44.8041 127.548 46.6308 126.604 47.9126 125.002L66.1682 102.202C67.3007 100.79 67.3711 98.8975 66.4966 97.439Z" fill="#8E8E92"></path><path d="M65.4158 96.2369L60.3909 92.4091C59.943 92.0676 59.4472 91.825 58.9332 91.6782C57.2707 91.2037 55.4055 91.7293 54.2741 93.1421L36.0175 115.943C33.4518 119.147 34.0351 123.772 37.3196 126.274C38.6462 127.285 40.2105 127.794 41.7728 127.832C42.0533 127.539 42.3241 127.231 42.5843 126.906L66.3542 97.2199C66.1036 96.855 65.7901 96.522 65.4158 96.2369Z" fill="#DDDDDD"></path><path d="M70.2599 85.1323C69.1786 84.3088 68.2007 83.4056 67.3252 82.4375L66.0946 83.9748C65.6297 84.5557 65.5422 85.311 65.796 85.9557C65.9261 86.2866 66.1469 86.5887 66.4529 86.8217L69.5017 89.1441C69.8078 89.3771 70.1618 89.5133 70.5223 89.5558C71.225 89.6399 71.9555 89.3739 72.4204 88.7941L73.651 87.2568C72.4769 86.6632 71.3402 85.9557 70.2599 85.1323Z" fill="#8E8E92"></path><path d="M56.8061 93.5172C56.4734 93.264 55.9924 93.3215 55.7322 93.646L38.5292 115.132C38.269 115.456 38.3287 115.926 38.6614 116.179C38.9942 116.432 39.4751 116.374 39.7353 116.05L56.9383 94.5641C57.1985 94.2396 57.1388 93.7704 56.8061 93.5172Z" fill="white"></path><path d="M63.7979 90.6292C63.7041 90.5579 63.687 90.4249 63.7606 90.3323L64.0965 89.9132C64.1701 89.8217 64.3066 89.8047 64.4004 89.877C64.4943 89.9483 64.5114 90.0813 64.4378 90.1738L64.1019 90.593C64.0283 90.6845 63.8928 90.7004 63.7979 90.6292Z" fill="#E2E7E8"></path><path d="M64.7393 89.4527C64.6455 89.3814 64.6284 89.2485 64.702 89.1559L66.2323 87.2452C66.3059 87.1537 66.4424 87.1367 66.5362 87.209C66.6301 87.2803 66.6471 87.4133 66.5735 87.5058L65.0433 89.4166C64.9697 89.508 64.8332 89.524 64.7393 89.4527Z" fill="#E2E7E8"></path><path d="M73.6484 87.2573C82.7447 91.8564 94.1913 89.6393 100.726 81.4773C108.106 72.261 106.427 58.9562 96.9789 51.7581C87.5307 44.561 73.8883 46.1972 66.51 55.4135C59.9751 63.5755 60.5435 74.944 67.3226 82.4379C68.1981 83.4061 69.177 84.3093 70.2573 85.1327C71.3375 85.9562 72.4743 86.6636 73.6484 87.2573ZM68.148 56.6625C74.8204 48.3292 87.1553 46.8494 95.6992 53.3571C104.243 59.8647 105.761 71.8961 99.0882 80.2293C92.4158 88.5626 80.0809 90.0425 71.5369 83.5348C62.993 77.0271 61.4756 64.9958 68.148 56.6625Z" fill="black"></path><g opacity="0.7"><path d="M102.032 61.8125C103.764 67.5372 102.733 73.9651 98.6786 79.028C92.0062 87.3613 79.6712 88.8412 71.1273 82.3335C68.1404 80.0579 66.0119 77.1078 64.793 73.8768C65.9105 77.5759 68.182 80.9802 71.5347 83.5346C80.0786 90.0423 92.4136 88.5624 99.086 80.2291C103.427 74.8087 104.303 67.8244 102.032 61.8125Z" fill="#B0B0B0"></path><path d="M98.6795 79.0271C102.733 73.9642 103.764 67.5363 102.033 61.8116C100.813 58.5806 98.6859 55.6316 95.6989 53.3559C87.155 46.8483 74.8201 48.327 68.1477 56.6603C64.0943 61.7233 63.0631 68.1512 64.7939 73.8748C66.0128 77.1058 68.1413 80.0559 71.1282 82.3315C79.6722 88.8402 92.0071 87.3604 98.6795 79.0271Z" fill="#E0E0E0"></path></g><path d="M92.7467 54.2603C92.3308 53.8794 91.8851 53.5262 91.4148 53.2028C90.4742 52.556 89.4356 52.0251 88.3393 51.6283C86.1468 50.8293 83.7272 50.5687 81.379 50.8495C80.9898 50.8953 80.6027 50.957 80.2188 51.0336L80.9983 53.5613C81.235 53.5241 81.4718 53.4911 81.7085 53.4624C82.7088 53.3422 83.7176 53.2954 84.7306 53.3209C85.7437 53.3475 86.7589 53.4475 87.7741 53.6188C88.2817 53.705 88.7893 53.8092 89.2969 53.9316C89.8045 54.0539 90.3111 54.1943 90.8187 54.3529C91.3263 54.5114 91.8339 54.6859 92.3425 54.8784C92.8533 55.0689 93.362 55.2795 93.8856 55.4933C93.5486 55.0486 93.1615 54.6422 92.7467 54.2603Z" fill="#C0C0C0"></path><path d="M78.9797 51.332C77.4953 51.7555 76.0823 52.4012 74.8197 53.247C74.5776 53.4076 74.343 53.5768 74.1127 53.7513C73.8834 53.9268 73.6595 54.1077 73.443 54.297C73.009 54.6736 72.6016 55.0758 72.2262 55.5013C71.8509 55.9269 71.5064 56.3748 71.1982 56.8429C70.8911 57.312 70.617 57.7982 70.3984 58.31C70.8549 57.9802 71.2974 57.6557 71.7453 57.3503C72.1921 57.0439 72.6411 56.7546 73.0943 56.4812C73.5475 56.2077 74.005 55.9524 74.4667 55.7141C74.5808 55.6524 74.6992 55.5981 74.8144 55.5386C74.9285 55.479 75.0479 55.4258 75.1631 55.3694C75.2782 55.312 75.3966 55.2609 75.5139 55.2066C75.6301 55.1524 75.7496 55.1024 75.8658 55.0503C76.8085 54.6449 77.7683 54.3066 78.744 54.0417C79.0746 53.9523 79.4062 53.8715 79.74 53.7981L78.9797 51.332Z" fill="#C0C0C0"></path><path d="M173.537 117.831H146.096C145.801 117.831 145.562 117.593 145.562 117.3C145.562 117.006 145.801 116.768 146.096 116.768H173.537C173.831 116.768 174.07 117.006 174.07 117.3C174.07 117.593 173.831 117.831 173.537 117.831Z" fill="black"></path><path d="M134.937 117.831H57.1035C56.8092 117.831 56.5703 117.593 56.5703 117.3C56.5703 117.006 56.8092 116.768 57.1035 116.768H134.937C135.232 116.768 135.47 117.006 135.47 117.3C135.47 117.593 135.232 117.831 134.937 117.831Z" fill="black"></path><path d="M47.7352 128.363H35.1348C34.8404 128.363 34.6016 128.124 34.6016 127.831C34.6016 127.537 34.8404 127.299 35.1348 127.299H47.7352C48.0296 127.299 48.2684 127.537 48.2684 127.831C48.2684 128.124 48.0296 128.363 47.7352 128.363Z" fill="black"></path><defs><linearGradient id="paint0_linear_676_5539" x1="102.99" y1="130.414" x2="93.2991" y2="18.676" gradientUnits="userSpaceOnUse"><stop stop-color="#A1A1A1"></stop><stop offset="0.0405" stop-color="#A9A9A9"></stop><stop offset="0.2058" stop-color="#C8C8C8"></stop><stop offset="0.379" stop-color="#E0E0E0"></stop><stop offset="0.5614" stop-color="#F2F2F2"></stop><stop offset="0.7591" stop-color="#FCFCFC"></stop><stop offset="1" stop-color="white"></stop></linearGradient></defs></svg>