<svg width="32" height="33" viewBox="0 0 32 33" fill="none" xmlns="http://www.w3.org/2000/svg">
<path d="M16 26.608L16.001 25.6437L15.999 25.6446L16 26.608ZM23 2.48828H9C7.896 2.48828 7 3.35228 7 4.41685V27.5597C7 28.6243 7.896 29.4883 9 29.4883H23C24.104 29.4883 25 28.6243 25 27.5597V4.41685C25 3.35228 24.104 2.48828 23 2.48828ZM16 27.5722C14.897 27.5722 14 26.7073 14 25.6437C14 24.5801 14.897 23.7151 16 23.7151C17.103 23.7151 18 24.5801 18 25.6437C18 26.7073 17.103 27.5722 16 27.5722ZM22 21.774H10V5.38114H22V21.774Z" fill="black"/>
</svg>
