<svg width="32" height="32" viewBox="0 0 32 32" fill="none" xmlns="http://www.w3.org/2000/svg">
<path d="M11.0771 8.84727C11.6708 8.84727 12.1542 9.32802 12.1542 9.92436V14.4114C12.1542 15.0051 11.6734 15.4885 11.0771 15.4885C10.4834 15.4885 10 15.0077 10 14.4114V9.92436C10.0026 9.33065 10.4834 8.84727 11.0771 8.84727ZM21.693 8.74219C22.2867 8.74219 22.7701 9.22294 22.7701 9.81928V10.434C22.7701 11.0277 22.2894 11.5111 21.693 11.5111C21.0993 11.5111 20.6159 11.0304 20.6159 10.434V9.81928C20.6186 9.22557 21.0993 8.74219 21.693 8.74219Z" fill="black"/>
<path d="M16.3867 5.58906C18.7248 5.58906 20.6189 7.48317 20.6189 9.82125H22.7705C22.7705 6.29574 19.9122 3.4375 16.3867 3.4375C12.8612 3.4375 10.003 6.29574 10.003 9.82125H12.1545C12.1545 7.48317 14.0486 5.58906 16.3867 5.58906ZM25.9991 26.9129V14.9388C25.9098 14.0613 25.1847 13.3704 24.2942 13.3363H8.53707C7.55193 13.3363 6.75067 14.1349 6.74805 15.12V26.792C6.85313 27.5854 7.47837 28.2159 8.26911 28.3289H24.5963C25.3056 28.1844 25.8625 27.6248 25.9991 26.9129Z" fill="black"/>
<path d="M14.4277 20.8349C14.4277 20.2412 14.9085 19.7578 15.5048 19.7578H17.2439C17.8377 19.7578 18.321 20.2386 18.321 20.8349C18.321 21.4286 17.8403 21.912 17.2439 21.912H15.5048C14.9111 21.9094 14.4277 21.4286 14.4277 20.8349Z" fill="white"/>
</svg>
