<svg data-icon-id="CEXPoR" xmlns="http://www.w3.org/2000/svg" data-icon-group="GateHomeV5" data-icon-version="0.12.32" viewBox="0 0 25 25" width="16px" height="16px" class="iconpark-icon" style="display: block;"><g class="CEX_PoR"><path class="brand" d="M11.169 12.078h2v6h-2v-6Z" fill="#0068FF"></path><g class="normal" fill="#303236"><path d="M18.481 11.616a1 1 0 0 1 1 1v6.462h1.063l.102.005a1 1 0 0 1 0 1.99l-.102.005h-16.5a1 1 0 1 1 0-2h1.062v-6.462a1 1 0 1 1 2 0v6.462h10.375v-6.462a1 1 0 0 1 1-1Z"></path><path clip-rule="evenodd" d="M10.808 2.849a2.27 2.27 0 0 1 2.722 0l7.239 5.429a1 1 0 0 1-.6 1.8h-16a1 1 0 0 1-.6-1.8l7.239-5.43Zm1.523 1.6a.27.27 0 0 0-.324 0L7.17 8.078h10l-4.838-3.63Z" fill-rule="evenodd"></path></g></g></svg>