<svg fill="currentColor" height="24" viewBox="0 0 24 24" width="24" xmlns="http://www.w3.org/2000/svg"><path d="M17.3171 2.23948L20.7836 2.8699C21.2437 2.95371 21.6597 3.19628 21.9593 3.55534C22.2588 3.91441 22.4229 4.36719 22.4229 4.8348V17.1283C22.4229 17.4722 22.3341 17.8103 22.165 18.1098C21.996 18.4093 21.7525 18.6601 21.4581 18.8379L13.7593 23.4857C13.2921 23.7678 12.7567 23.917 12.2109 23.917C11.6651 23.917 11.1297 23.7678 10.6625 23.4857L2.96471 18.8379C2.6704 18.6601 2.42695 18.4094 2.25794 18.11C2.08894 17.8106 2.00009 17.4726 2 17.1288V4.83426C1.99998 4.36665 2.16404 3.91387 2.46358 3.5548C2.76313 3.19574 3.17917 2.95317 3.6392 2.86937L7.10571 2.24002C10.4818 1.62572 13.941 1.62572 17.3171 2.24002V2.23948ZM17.0285 3.82548C13.8433 3.2459 10.5796 3.2459 7.39432 3.82548L3.92781 4.45644C3.83928 4.47265 3.75923 4.51939 3.70159 4.58852C3.64395 4.65764 3.61237 4.74479 3.61233 4.8348V17.1283C3.61233 17.2626 3.68274 17.3879 3.79829 17.4577L11.4966 22.1055C11.7123 22.2358 11.9595 22.3046 12.2114 22.3046C12.4634 22.3046 12.7105 22.2358 12.9262 22.1055L20.6246 17.4577C20.6813 17.4235 20.7282 17.3752 20.7608 17.3174C20.7934 17.2597 20.8105 17.1946 20.8105 17.1283V4.8348C20.8105 4.74479 20.7789 4.65764 20.7213 4.58852C20.6636 4.51939 20.5836 4.47265 20.495 4.45644L17.0285 3.82548Z" fill="currentColor"></path><path d="M17.1242 8.59569C17.2832 8.45674 17.4903 8.38569 17.7011 8.39782C17.9119 8.40994 18.1095 8.50427 18.2515 8.66054C18.3934 8.8168 18.4684 9.02253 18.4604 9.23351C18.4523 9.44448 18.3617 9.64387 18.2082 9.78881L12.9708 14.5484C12.3915 15.0749 11.6332 15.3606 10.8504 15.3473C10.0677 15.3341 9.31952 15.0228 8.75837 14.4769L6.54249 12.3223C6.39192 12.1726 6.30648 11.9696 6.30472 11.7573C6.30295 11.545 6.38501 11.3406 6.53307 11.1884C6.68113 11.0362 6.88324 10.9486 7.09551 10.9446C7.30778 10.9405 7.51308 11.0204 7.66682 11.1668L9.8827 13.3209C10.1496 13.5804 10.5055 13.7284 10.8778 13.7347C11.2501 13.741 11.6107 13.6051 11.8863 13.3548L17.1242 8.59569Z" fill="currentColor"></path></svg>