  <svg xmlns="http://www.w3.org/2000/svg"
         viewBox="0 0 24 24"
         width="40" height="40"
         aria-hidden="true" class="iconpark-icon" style="display:block;">
        <g class="CEX_SmartContract">
            <path class="normal"
                  d="M18.5 7.1a.765.765 0 0 0-.511-.723l-5.736-2.016a.765.765 0 0 0-.506 0L6.01 6.377a.765.765 0 0 0-.51.723v7.39a2.53 2.53 0 0 0 1.285 2.203l4.838 2.735c.234.132.52.132.754 0l4.838-2.735A2.53 2.53 0 0 0 18.5 14.49V7.1Zm2 7.39a4.53 4.53 0 0 1-2.3 3.943l-4.84 2.735a2.765 2.765 0 0 1-2.72 0L5.8 18.433a4.53 4.53 0 0 1-2.3-3.943V7.1c0-1.174.74-2.22 1.848-2.61l5.735-2.015a2.766 2.766 0 0 1 1.834 0l5.735 2.016A2.765 2.765 0 0 1 20.5 7.099v7.39Z"
                  fill="#303236"></path>
            <g class="brand" fill="#0068FF">
                <path d="M12 9.4a2.1 2.1 0 1 0 2.1 2.1h1.8A3.9 3.9 0 1 1 12 7.6v1.8Z"></path>
                <path d="M14.1 11.5H12V9.4h2.1v2.1Z"></path>
            </g>
        </g>
    </svg>