<svg data-icon-id="CEXWallet" xmlns="http://www.w3.org/2000/svg" data-icon-group="GateHomeV5" data-icon-version="0.12.32" viewBox="0 0 24 25" width="16px" height="16px" class="iconpark-icon"  style="display: block;"><g class="CEX_Wallet"><path class="brand" d="M6.009 14.099h5.008v2.003H6.009z" fill="#0068FF"></path><path clip-rule="evenodd" class="normal" d="M19.15 3.832a3.005 3.005 0 0 1 2.85 3v10.491l-.004.154a3.005 3.005 0 0 1-2.846 2.847l-.154.004H5.004l-.154-.004a3.005 3.005 0 0 1-2.846-2.847L2 17.323V6.832a3.005 3.005 0 0 1 2.85-3l.154-.004h13.992l.154.004ZM4.003 9.829v7.494c0 .553.448 1.002 1.001 1.002h13.992c.553 0 1.001-.449 1.001-1.002V9.83H4.003Zm1.001-3.998a1 1 0 0 0-1.001 1.001v.994h15.994v-.994a1 1 0 0 0-1.001-1.001H5.004Z" fill-rule="evenodd" fill="#303236"></path></g></svg>