<?xml version="1.0" standalone="no"?><!DOCTYPE svg PUBLIC "-//W3C//DTD SVG 1.1//EN" "http://www.w3.org/Graphics/SVG/1.1/DTD/svg11.dtd"><svg t="1762842623389" class="icon" viewBox="0 0 1024 1024" version="1.1" xmlns="http://www.w3.org/2000/svg" p-id="23203" xmlns:xlink="http://www.w3.org/1999/xlink" width="200" height="200"><path d="M512 14.222222C237.084444 14.222222 14.222222 237.084444 14.222222 512c0 66.190222 12.942222 130.645333 37.774222 190.549333 1.649778 3.982222 3.527111 7.964444 5.916445 12.657778l9.870222 18.830222-0.056889 4.380445c-0.711111 27.249778-3.669333 65.024-8.903111 112.924444l-1.28 11.463111a99.555556 99.555556 0 0 0 116.764445 109.056l27.875555-4.949333a1427.057778 1427.057778 0 0 1 62.748445-9.756444l4.664888-0.568889c5.973333-0.711111 10.922667-1.166222 14.705778-1.422223l0.881778-0.028444-7.907556-4.067556A495.672889 495.672889 0 0 0 512 1009.777778c274.915556 0 497.777778-222.862222 497.777778-497.777778S786.915556 14.222222 512 14.222222z m0 85.333334c227.783111 0 412.444444 184.661333 412.444444 412.444444S739.783111 924.444444 512 924.444444a411.050667 411.050667 0 0 1-182.442667-42.439111l-11.975111-6.172444c-20.849778-11.150222-53.475556-7.054222-158.549333 12.088889a14.222222 14.222222 0 0 1-16.696889-15.587556l3.697778-34.133333c4.778667-47.303111 7.168-84.394667 7.168-111.644445l-0.284445-5.12a59.534222 59.534222 0 0 0-5.376-18.318222l-3.555555-7.395555-10.581334-20.337778c-1.137778-2.275556-1.991111-4.096-2.56-5.518222A411.050667 411.050667 0 0 1 99.555556 512C99.555556 284.216889 284.216889 99.555556 512 99.555556z" fill="#555555" p-id="23204"></path><path d="M526.222222 369.777778a42.666667 42.666667 0 0 1 4.096 85.134222L526.222222 455.111111h-199.111111a42.666667 42.666667 0 0 1-4.096-85.134222L327.111111 369.777778h199.111111zM696.888889 568.888889a42.666667 42.666667 0 0 1 4.096 85.134222L696.888889 654.222222h-369.777778a42.666667 42.666667 0 0 1-4.096-85.134222L327.111111 568.888889h369.777778z" fill="#555555" p-id="23205"></path></svg>