<svg width="100" height="100" viewBox="0 0 100 100" fill="none" xmlns="http://www.w3.org/2000/svg" class="wh-100px"><path d="M50.0541 51.697C50.8318 51.697 51.602 51.5465 52.3205 51.2542C53.0391 50.9618 53.692 50.5333 54.242 49.9931C54.7919 49.4528 55.2282 48.8115 55.5258 48.1057C55.8235 47.3999 55.9767 46.6434 55.9767 45.8794C55.9767 45.1154 55.8235 44.3589 55.5258 43.6531C55.2282 42.9472 54.7919 42.3059 54.242 41.7657C53.692 41.2255 53.0391 40.7969 52.3205 40.5046C51.602 40.2122 50.8318 40.0617 50.0541 40.0617C48.4833 40.0617 46.9769 40.6747 45.8661 41.7657C44.7554 42.8567 44.1315 44.3364 44.1315 45.8794C44.1315 47.4223 44.7554 48.902 45.8661 49.9931C46.9769 51.0841 48.4833 51.697 50.0541 51.697ZM50.0541 55.9294C48.0304 55.93 46.0519 55.3411 44.3689 54.2372C42.686 53.1333 41.3741 51.5639 40.5992 49.7275C39.8244 47.8912 39.6213 45.8703 40.0157 43.9206C40.4101 41.9709 41.3843 40.1798 42.8151 38.774C44.2458 37.3682 46.0689 36.4107 48.0537 36.0227C50.0385 35.6346 52.0958 35.8335 53.9655 36.594C55.8353 37.3546 57.4334 38.6427 58.5578 40.2955C59.6821 41.9483 60.2823 43.8915 60.2823 45.8794C60.2605 48.5302 59.1734 51.0653 57.2577 52.9325C55.342 54.7996 52.7528 55.8477 50.0541 55.8485V55.9294ZM34.5754 66.7456C32.7473 65.4665 31.0917 63.9648 29.6484 62.2765L24.8545 66.8515L27.5494 67.3529C27.9684 67.4344 28.3533 67.6363 28.6553 67.9329C28.9573 68.2295 29.1628 68.6076 29.2457 69.0191L29.753 71.6632L34.5722 66.7425L34.5754 66.7456ZM68.8999 57.278C71.9904 52.4623 73.0318 46.6469 71.7996 41.0844C70.5674 35.5219 67.1603 30.6573 62.3121 27.5384C57.464 24.4195 51.5626 23.2959 45.8792 24.4095C40.1958 25.5232 35.1851 28.785 31.9263 33.4924C28.6675 38.1998 27.4213 43.9762 28.4563 49.5774C29.4913 55.1785 32.7245 60.1563 37.4596 63.4386C42.1947 66.7208 48.0528 68.0449 53.7721 67.1256C59.4914 66.2063 64.6144 63.1172 68.0375 58.5237L68.8999 57.278ZM65.5074 66.8764L70.5422 71.822L71.0495 69.1748C71.1366 68.7838 71.3347 68.425 71.6208 68.14C71.907 67.855 72.2696 67.6555 72.6665 67.5647L75.3615 67.0633L70.4059 62.2765C68.9553 64.0141 67.2822 65.5602 65.4281 66.8764H65.5074ZM61.6837 69.097C58.0667 70.835 54.0933 71.7385 50.0667 71.7385C46.0402 71.7385 42.0668 70.835 38.4498 69.097L29.864 77.375C29.5878 77.6446 29.2424 77.8358 28.8644 77.9281C28.4865 78.0205 28.0902 78.0105 27.7176 77.8994C27.3449 77.7882 27.0099 77.58 26.7481 77.2969C26.4863 77.0137 26.3074 76.6662 26.2305 76.2912L25.2064 71.2397L20.0638 70.2088C19.682 70.1333 19.3282 69.9576 19.0399 69.7004C18.7516 69.4432 18.5397 69.1141 18.4265 68.7481C18.3134 68.3821 18.3032 67.9928 18.3972 67.6215C18.4913 67.2503 18.6859 66.911 18.9604 66.6397L27.0358 58.7043C24.7533 54.7532 23.5683 50.2821 23.5996 45.7393C23.6309 41.1964 24.8774 36.7415 27.2141 32.8211C29.5509 28.9006 32.8958 25.6525 36.9135 23.4023C40.9312 21.1521 45.4806 19.9789 50.1054 20.0003C54.7303 20.0217 59.2682 21.237 63.2641 23.5242C67.2601 25.8115 70.5737 29.0905 72.8727 33.0323C75.1718 36.9742 76.3755 41.4405 76.3633 45.9834C76.351 50.5263 75.1231 54.9863 72.8028 58.9161L81.0399 67.0103C81.3145 67.2816 81.5091 67.6209 81.6031 67.9921C81.6971 68.3634 81.687 68.7527 81.5738 69.1187C81.4607 69.4847 81.2487 69.8138 80.9604 70.071C80.6721 70.3282 80.3183 70.5039 79.9366 70.5794L74.7939 71.5854L73.7698 76.6337C73.6929 77.0087 73.5141 77.3563 73.2522 77.6394C72.9904 77.9226 72.6554 78.1308 72.2828 78.242C71.9101 78.3531 71.5138 78.363 71.1359 78.2707C70.758 78.1784 70.4126 77.9872 70.1364 77.7175L61.6837 69.097Z" fill="black"></path></svg>