<svg width="100" height="100" viewBox="0 0 100 100" fill="none" xmlns="http://www.w3.org/2000/svg" class="wh-100px"><path d="M67.7943 32.2752C64.4292 32.2752 61.6941 29.5234 61.6941 26.1376C61.6941 22.7518 64.4292 20 67.7943 20H73.3861C76.7512 20 79.4862 22.7518 79.4862 26.1376C79.4862 29.5234 76.7512 32.2752 73.3861 32.2752H67.7943ZM67.7943 23.854C66.5413 23.854 65.5246 24.8769 65.5246 26.1376C65.5246 27.3982 66.5413 28.4212 67.7943 28.4212H73.3861C74.639 28.4212 75.6557 27.3982 75.6557 26.1376C75.6557 24.8769 74.639 23.854 73.3861 23.854H67.7943ZM50.9759 40.7324C47.6108 40.7324 44.8757 37.9805 44.8757 34.5948C44.8757 31.209 47.6108 28.4572 50.9759 28.4572H56.5677C59.9328 28.4572 62.6678 31.209 62.6678 34.5948C62.6678 37.9805 59.9328 40.7324 56.5677 40.7324H50.9759ZM50.9759 32.2752C49.7229 32.2752 48.7062 33.2981 48.7062 34.5588C48.7062 35.8194 49.7229 36.8424 50.9759 36.8424H56.5677C57.8207 36.8424 58.8373 35.8194 58.8373 34.5588C58.8373 33.2981 57.8207 32.2752 56.5677 32.2752H50.9759ZM64.9733 54.7437C61.6082 54.7437 58.8731 51.9918 58.8731 48.6061C58.8731 45.2203 61.6082 42.4685 64.9733 42.4685H70.5651C73.9302 42.4685 76.6653 45.2203 76.6653 48.6061C76.6653 51.9918 73.9302 54.7437 70.5651 54.7437H64.9733ZM64.9733 46.2865C63.7203 46.2865 62.7036 47.3094 62.7036 48.5701C62.7036 49.8307 63.7203 50.8536 64.9733 50.8536H70.5651C71.8181 50.8536 72.8348 49.8307 72.8348 48.5701C72.8348 47.3094 71.8181 46.2865 70.5651 46.2865H64.9733ZM56.9185 80C56.804 80 56.7252 80 56.6035 79.964C48.0762 78.4656 34.6229 70.9161 31.8091 69.3024H18.9501C17.8976 69.3024 17.0312 68.438 17.0312 67.3718V52.5393C17.0312 51.6316 17.6542 50.8897 18.5205 50.6519C18.678 50.6159 35.3747 46.6395 39.5632 46.6395C42.1836 46.6395 48.5201 49.593 52.0785 51.3579C56.8469 53.7568 61.3862 56.3141 61.8946 56.8688C62.1309 57.1065 62.7967 57.7764 63.8922 61.8682C69.2477 59.5053 72.577 58.3239 73.7441 58.3239C76.9517 58.3239 79.3717 58.8714 81.0184 59.9736C82.6938 61.119 83.553 62.7686 83.553 65.009C83.553 65.4845 83.3597 65.9527 83.0446 66.3057C80.6604 68.9422 75.6128 72.2848 69.1618 75.4328C63.7275 78.0766 58.6011 80 56.9185 80ZM32.3246 65.4052C32.6754 65.4052 32.9905 65.4845 33.3055 65.679C33.463 65.7582 48.3984 74.4891 57.0832 76.1028C58.2932 75.9443 62.5175 74.3307 67.3289 72.011C70.6152 70.3974 76.5221 67.3286 79.6079 64.3391C79.2142 62.8839 77.3383 62.214 73.7441 62.214C72.6486 62.2932 66.0759 65.045 59.3171 68.1931C59.045 68.3083 58.7729 68.3876 58.4937 68.3876C58.1428 68.3876 57.7491 68.2723 57.4412 68.0706L48.4485 62.2067H45.1621C44.1025 62.2067 43.2433 61.3423 43.2433 60.2761C43.2433 59.2172 44.1025 58.3455 45.1621 58.3455H48.9926C49.3434 58.3455 49.7372 58.4608 50.0451 58.6625L58.6512 64.2526C59.1237 64.0581 59.6679 63.7772 60.2908 63.5034C59.8182 61.6953 59.3529 60.1969 59.0808 59.6062C58.0283 58.9002 54.0761 56.7319 49.6943 54.5708C44.4175 51.9702 40.7803 50.5151 39.4844 50.5151C37.0214 50.5151 27.95 52.4024 20.8331 54.0593V65.3908H32.3246V65.4052Z" fill="black"></path></svg>