<svg width="100" height="100" viewBox="0 0 100 100" fill="none" xmlns="http://www.w3.org/2000/svg" class="wh-100px"><path fill-rule="evenodd" clip-rule="evenodd" d="M74.5894 24.654C74.805 24.7451 75.0004 24.878 75.1642 25.0452C75.3281 25.2104 75.4578 25.4065 75.5459 25.622C75.6339 25.8375 75.6785 26.0682 75.6772 26.301V76.0765C75.6731 76.9525 75.3235 77.7916 74.7043 78.4113C74.3977 78.7171 74.0334 78.959 73.6326 79.123C73.2318 79.2869 72.8024 79.3697 72.3694 79.3665H33.9854C32.5322 79.3966 31.0881 79.1318 29.7401 78.5882C27.8519 77.8071 26.2367 76.4854 25.0974 74.7891C23.9581 73.0927 23.3456 71.0975 23.3369 69.0541V32.2798C23.3013 30.8942 23.5445 29.5157 24.0519 28.2259C24.5593 26.9362 25.3207 25.7615 26.2908 24.7716C27.2608 23.7817 28.4199 22.9968 29.6992 22.4634C30.9784 21.93 32.3518 21.6591 33.7377 21.6667H63.8082C64.6812 21.6803 65.5146 22.0332 66.132 22.6506C66.7494 23.268 67.1022 24.1014 67.1159 24.9744V60.5283C67.1153 60.9582 66.9581 61.3733 66.6737 61.6957C66.3806 62.0159 65.9879 62.2278 65.5593 62.2971H33.7201C32.8267 62.291 31.941 62.4631 31.1149 62.8033C30.2888 63.1434 29.5388 63.6448 28.9088 64.2782C27.6398 65.545 26.9215 67.2611 26.91 69.0541C26.9079 69.9432 27.0837 70.8238 27.427 71.644C27.7702 72.4641 28.2741 73.2074 28.9088 73.83C29.5412 74.4602 30.2916 74.9596 31.1172 75.2995C31.9428 75.6395 32.8272 75.8133 33.7201 75.8111H72.0864V26.2834C72.087 25.8534 72.2442 25.4384 72.5286 25.1159C72.8191 24.7923 73.213 24.5797 73.643 24.5145H73.9083C74.1423 24.5155 74.3738 24.5629 74.5894 24.654ZM27.427 29.4069C27.0837 30.2271 26.9079 31.1076 26.91 31.9967V61.0943L27.476 60.6698C28.2344 60.1132 29.0606 59.6555 29.9347 59.3078C30.3385 59.151 30.7521 59.021 31.1729 58.9186C31.5676 58.8122 31.9696 58.7353 32.3757 58.6887H32.8887H63.4721V26.5133C63.4744 26.3469 63.4437 26.1817 63.3816 26.0273C63.3196 25.8729 63.2274 25.7323 63.1106 25.6138C62.9937 25.4953 62.8545 25.4012 62.7009 25.337C62.5474 25.2728 62.3826 25.2397 62.2162 25.2397H33.7201C31.9177 25.2392 30.1882 25.9513 28.9088 27.2208C28.2741 27.8435 27.7702 28.5867 27.427 29.4069ZM35.153 67.2322H63.8438C64.076 67.2378 64.305 67.2891 64.5174 67.3832C64.7299 67.4773 64.9217 67.6123 65.0819 67.7805C65.2491 67.9444 65.382 68.1397 65.4731 68.3553C65.5642 68.5709 65.6116 68.8024 65.6126 69.0364C65.6126 69.5056 65.4262 69.9555 65.0945 70.2872C64.7628 70.6189 64.3129 70.8053 63.8438 70.8053H35.153C34.916 70.8067 34.6811 70.7604 34.4624 70.6693C34.2436 70.5781 34.0454 70.4439 33.8795 70.2746C33.5562 69.9357 33.373 69.4871 33.3665 69.0188C33.3651 68.786 33.4098 68.5552 33.4978 68.3397C33.5858 68.1242 33.7155 67.9282 33.8795 67.7629C34.0454 67.5936 34.2436 67.4594 34.4624 67.3682C34.6811 67.2771 34.916 67.2308 35.153 67.2322Z" fill="black"></path></svg>