<svg width="100" height="100" viewBox="0 0 100 100" fill="none" xmlns="http://www.w3.org/2000/svg" class="wh-100px"><path d="M36.7581 73.2647C33.5706 70.8961 30.94 67.8036 29.0647 64.2203C27.1894 60.6369 26.1182 56.6562 25.932 52.5782L25 33.0956L49.1684 22.4746L73.3333 33.085L72.4013 52.5675C72.2167 56.6478 71.146 60.631 69.27 64.2164C67.3939 67.8019 64.7616 70.8958 61.5718 73.2647L49.1684 82.5251L36.7581 73.2647ZM28.5643 35.425L29.3769 52.3966C29.5371 55.8981 30.4486 59.3175 32.0439 62.4027C33.6393 65.4879 35.878 68.1603 38.5949 70.2229L38.752 70.3476L49.1718 78.13L59.5814 70.3547C62.318 68.3171 64.5814 65.6647 66.2046 62.593C67.8278 59.5213 68.7693 56.1086 68.9599 52.6067V52.3859L69.7724 35.4179L49.1684 26.3604L28.5643 35.425ZM45.9762 64.7023C45.6461 64.7067 45.3219 64.6112 45.0428 64.4273C44.7637 64.2434 44.5417 63.979 44.4036 63.6661C44.2656 63.3533 44.2175 63.0054 44.2652 62.6646C44.3128 62.3238 44.4541 62.0048 44.672 61.7461L44.713 61.6998L51.5412 53.7215L43.2859 50.6691C43.0212 50.5754 42.7826 50.4153 42.5911 50.2029C42.3995 49.9905 42.2609 49.7323 42.1874 49.4509C42.1139 49.1696 42.1078 48.8737 42.1696 48.5893C42.2313 48.3049 42.3591 48.0406 42.5416 47.8198L42.5826 47.7663L51.0052 37.6475C51.2922 37.2968 51.6985 37.0759 52.1386 37.0314C52.5786 36.9869 53.018 37.1222 53.3643 37.4089L53.4292 37.473C53.7631 37.783 53.9689 38.2159 54.0033 38.6808C54.0376 39.1457 53.8979 39.6065 53.6135 39.9662L53.576 40.0125L46.7853 48.1546L55.0748 51.2248C55.3386 51.3197 55.5762 51.4807 55.7666 51.6936C55.957 51.9065 56.0944 52.1649 56.1669 52.4462C56.2393 52.7274 56.2446 53.0228 56.1821 53.3067C56.1197 53.5905 55.9915 53.854 55.8088 54.0741L47.2462 64.0719C47.0853 64.2653 46.8866 64.4207 46.6635 64.5276C46.4403 64.6345 46.1978 64.6904 45.9523 64.6916L45.9762 64.7023Z" fill="black"></path></svg>