<svg width="394" height="328" viewBox="0 0 394 328" fill="none" xmlns="http://www.w3.org/2000/svg"><g clip-path="url(#clip0_1_38138)"><rect width="394" height="328" fill="white"></rect><circle cx="197" cy="168" r="141.5" stroke="#F8F8F8"></circle><path fill-rule="evenodd" clip-rule="evenodd" d="M197.059 300C269.928 300 329 240.928 329 168.058C329 95.1893 269.928 36.1172 197.059 36.1172C124.19 36.1172 65.1177 95.1893 65.1177 168.058C65.1177 240.928 124.19 300 197.059 300ZM196.995 286.688C262.548 286.688 315.689 233.547 315.689 167.995C315.689 102.442 262.548 49.3017 196.995 49.3017C131.443 49.3017 78.3023 102.442 78.3023 167.995C78.3023 233.547 131.443 286.688 196.995 286.688Z" fill="#F8F8F8"></path><path d="M311.704 136.231L308.237 128.817L217.604 170.468L221.071 177.881C222.633 181.226 244.187 174.61 269.214 163.107C294.242 151.604 313.26 139.569 311.698 136.225L311.704 136.231Z" fill="#D0F500" stroke="#292C2E" stroke-miterlimit="10" stroke-linejoin="round"></path><path d="M221.069 177.881C222.142 180.182 232.691 177.768 247.317 172.289L241.375 161.937L237.405 164.49L235.118 162.409L217.595 170.461L221.062 177.874L221.069 177.881Z" fill="black" stroke="#292C2E" stroke-miterlimit="10" stroke-linejoin="round"></path><path d="M265.742 155.668C290.769 144.165 309.79 132.129 308.226 128.784C306.662 125.439 285.106 132.052 260.079 143.555C235.051 155.057 216.031 167.093 217.595 170.438C219.158 173.783 240.715 167.17 265.742 155.668Z" fill="black" stroke="#292C2E" stroke-miterlimit="10" stroke-linejoin="round"></path><path d="M279.338 105.797L274.195 100.71L262.05 112.785C254.68 117.778 245.881 125.112 237.036 133.909C228.19 142.706 220.82 151.456 215.811 158.777L203.666 170.852L208.809 175.938C213.081 180.16 232.328 167.879 251.803 148.511C271.277 129.142 283.603 110.019 279.331 105.797H279.338Z" fill="#D0F500" stroke="#292C2E" stroke-miterlimit="10" stroke-linejoin="round"></path><path d="M235.742 162.981L228.888 156.737L225.729 160.275L217.212 156.79C216.73 157.462 216.26 158.134 215.811 158.785L214.939 159.65L203.666 170.86L208.81 175.947C211.881 178.979 222.678 173.493 235.742 162.981Z" fill="black" stroke="#292C2E" stroke-miterlimit="10" stroke-linejoin="round"></path><path d="M246.676 143.439C266.151 124.069 278.477 104.945 274.206 100.724C269.936 96.5035 250.687 108.785 231.211 128.155C211.736 147.525 199.41 166.649 203.681 170.87C207.951 175.09 227.2 162.809 246.676 143.439Z" fill="black" stroke="#292C2E" stroke-miterlimit="10" stroke-linejoin="round"></path><path d="M243.574 85.9838L237.377 83.1113L235.432 87.2404C227.016 92.0145 216.172 105.951 207.669 124.003C199.159 142.063 195.336 159.251 197.046 168.712L195.102 172.841L201.291 175.707C209.446 179.484 225.521 162.462 237.196 137.681C248.872 112.899 251.728 89.7538 243.574 85.9705V85.9838Z" fill="#D0F500" stroke="#292C2E" stroke-miterlimit="10" stroke-linejoin="round"></path><path d="M224.3 159.694L216.688 156.582L214.938 159.654L206.911 161.17L201.948 168.404L203.464 176.237C208.889 176.49 216.635 170.133 224.3 159.694Z" fill="black" stroke="#292C2E" stroke-miterlimit="10" stroke-linejoin="round"></path><path d="M230.989 134.811C242.665 110.031 245.519 86.8812 237.365 83.1043C229.211 79.3274 213.136 96.3538 201.461 121.134C189.785 145.914 186.931 169.064 195.085 172.841C203.239 176.617 219.314 159.591 230.989 134.811Z" fill="black" stroke="#292C2E" stroke-miterlimit="10" stroke-linejoin="round"></path><path d="M223.321 125.225C223.274 97.8774 211.257 75.7225 196.49 75.749L189.67 75.7623V76.7198C177.424 81.2545 168.224 101.302 168.264 125.325C168.311 149.348 177.585 169.362 189.844 173.857V174.814L196.658 174.801H195.088C209.855 174.775 223.362 152.58 223.315 125.225H223.321Z" fill="#D0F500" stroke="#292C2E" stroke-miterlimit="10" stroke-linejoin="round"></path><path d="M214.945 159.649L206.918 161.165L189.455 173.686C189.589 173.739 189.717 173.799 189.851 173.845V174.803L195.343 174.789C195.343 174.789 195.343 174.789 195.35 174.789C202.861 174.776 210.097 168.892 214.939 159.643L214.945 159.649Z" fill="black" stroke="#292C2E" stroke-miterlimit="10" stroke-linejoin="round"></path><path d="M189.85 174.864C204.617 174.839 216.548 152.646 216.5 125.295C216.452 97.9449 204.442 75.7935 189.675 75.819C174.909 75.8445 162.977 98.0373 163.025 125.388C163.073 152.738 175.083 174.89 189.85 174.864Z" fill="black" stroke="#292C2E" stroke-miterlimit="10" stroke-linejoin="round"></path><path d="M206.281 116.502C196.798 90.8162 175.788 74.8317 159.364 80.796L154.006 82.7708L154.147 83.1564C140.681 91.4479 136.63 115.026 145.348 138.63C154.147 162.454 172.857 177.927 188.63 175.287L188.757 175.626L193.371 173.93L194.116 173.651C210.23 167.414 215.689 141.975 206.281 116.502Z" fill="#D0F500" stroke="#292C2E" stroke-miterlimit="10" stroke-linejoin="round"></path><path d="M188.36 175.804C204.786 169.841 210.414 144.187 200.929 118.503C191.445 92.8203 170.44 76.8341 154.014 82.7973C137.588 88.7606 131.96 114.415 141.445 140.098C150.929 165.781 171.934 181.768 188.36 175.804Z" fill="black" stroke="#292C2E" stroke-miterlimit="10" stroke-linejoin="round"></path><path d="M199.03 156.191L199.526 156.337L200.901 151.37C206.816 130.007 190.118 106.495 163.608 98.8622C137.099 91.2291 110.811 102.36 104.896 123.723L103.521 128.69L104.017 128.837C102.186 148.525 118.194 168.671 142.356 175.626C166.519 182.581 190.493 173.951 199.03 156.198V156.191Z" fill="white" stroke="#292C2E" stroke-miterlimit="10" stroke-linejoin="round"></path><path d="M199.106 157.656C205.935 136.565 190.157 112.683 163.864 104.313C137.571 95.9433 110.72 106.255 103.891 127.346C97.0613 148.436 112.84 172.318 139.132 180.688C165.425 189.058 192.276 178.746 199.106 157.656Z" fill="#D0F500" stroke="#292C2E" stroke-miterlimit="10" stroke-linejoin="round"></path><path d="M194.94 166.151C189.233 152.873 172.427 122.693 138.93 127.074L102.817 131.795C99.243 152.288 115.579 173.931 140.815 181.192C162.891 187.548 184.814 180.892 194.947 166.145L194.94 166.151Z" fill="white"></path><path d="M153.891 121.271H153.865C150.17 120.772 146.588 121.138 143.121 122.342C141.203 123.013 139.406 123.977 137.723 125.227L134.685 123.425L129.937 125.733L134.303 128.319C134.148 128.485 133.994 128.645 133.847 128.811C133.605 129.084 133.391 129.356 133.169 129.636L128.093 126.624L123.352 128.938L130.769 133.333C129.984 134.922 129.501 136.504 129.347 138.087C129.038 141.172 129.749 144.084 131.486 146.817C133.223 149.55 135.812 151.937 139.245 153.972C141.854 155.521 144.422 156.591 146.951 157.196C147.883 157.416 148.801 157.589 149.7 157.708C151.236 157.914 152.725 157.968 154.16 157.881C156.433 157.735 158.499 157.283 160.363 156.545C162.227 155.807 163.783 154.862 165.044 153.712L155.809 148.18C154.301 149.344 152.57 149.922 150.599 149.916C150.176 149.916 149.747 149.882 149.325 149.829C147.775 149.623 146.206 149.051 144.623 148.114C141.914 146.505 140.399 144.516 140.057 142.136C139.916 141.139 140.03 140.108 140.379 139.038L146.414 142.615L151.122 140.281L142.538 135.194C142.752 134.922 142.974 134.643 143.215 134.37C143.363 134.197 143.517 134.044 143.671 133.878L152.946 139.377L157.647 137.036L147.313 130.912C148.5 130.227 149.74 129.749 151.035 129.496C152.255 129.257 153.469 129.217 154.669 129.383C156.292 129.602 157.902 130.181 159.491 131.125C161.577 132.362 162.911 133.785 163.475 135.381C164.045 136.983 163.823 138.559 162.831 140.115L172.099 145.614C173.742 143.18 174.499 140.726 174.365 138.246C174.224 135.766 173.306 133.399 171.602 131.132C169.899 128.864 167.525 126.823 164.454 125.008C161.087 123.013 157.56 121.763 153.878 121.271" fill="black"></path><path d="M199.106 157.656C205.935 136.565 190.157 112.683 163.864 104.313C137.571 95.9433 110.72 106.255 103.891 127.346C97.0613 148.436 112.84 172.318 139.132 180.688C165.425 189.058 192.276 178.746 199.106 157.656Z" stroke="#292C2E" stroke-miterlimit="10" stroke-linejoin="round"></path><path d="M187.209 144.934L187.577 144.575L183.762 140.745C169.115 126.057 141.345 129.747 121.73 148.977C102.114 168.206 98.0837 195.7 112.73 210.388L116.546 214.218L116.915 213.859C132.232 224.291 156.883 219.684 174.755 202.156C192.634 184.629 197.563 160.24 187.209 144.941V144.934Z" fill="white" stroke="#292C2E" stroke-miterlimit="10" stroke-linejoin="round"></path><path d="M112.73 210.388L117.685 215.288L129.542 203.446L104.863 178.698C102.362 190.78 104.823 202.449 112.736 210.381L112.73 210.388Z" fill="black" stroke="#292C2E" stroke-miterlimit="10" stroke-linejoin="round"></path><path d="M178.554 205.946C198.168 186.714 202.196 159.22 187.549 144.535C172.903 129.85 145.129 133.536 125.515 152.767C105.901 171.999 101.873 199.493 116.519 214.178C131.166 228.863 158.94 225.177 178.554 205.946Z" fill="#D0F500"></path><path d="M190.34 190.295L184.264 186.678L172.22 211.459C174.406 209.803 176.532 207.975 178.571 205.98C183.486 201.16 187.423 195.82 190.333 190.295H190.34Z" fill="black"></path><path d="M169.344 213.528L170.215 215.609L172.227 211.467C171.275 212.185 170.316 212.876 169.344 213.528Z" fill="black"></path><path d="M178.578 205.985C189.583 195.2 195.679 181.815 196.329 169.547C187.759 164.048 174.916 159.74 163.341 162.532C146.844 166.515 132.178 179.967 121.663 205.586L117.679 215.287C132.587 228.698 159.459 224.728 178.578 205.985Z" fill="white"></path><path d="M150.928 188.592L149.211 183.366L159.324 178.691C161.463 177.701 163.046 178.04 163.602 179.749C164.172 181.491 163.18 182.934 161.04 183.918L150.928 188.592ZM147.554 178.326L145.898 173.286L155.521 168.837C157.54 167.907 159.062 168.226 159.599 169.855C160.135 171.484 159.196 172.947 157.178 173.878L147.554 178.326ZM150.834 158.777L146.086 160.972L147.809 166.218L144.141 167.913L142.418 162.667L137.67 164.861L139.393 170.107L135.255 172.022L129.85 174.522L131.614 179.895L137.019 177.395L142.008 192.588L136.603 195.088L138.367 200.467L143.772 197.967L147.91 196.052L149.607 201.212L154.354 199.018L152.658 193.858L156.326 192.163L158.023 197.322L162.771 195.128L161.074 189.968L164.373 188.446C171.12 185.327 174.104 180.706 172.669 176.331C171.697 173.366 169.242 172.109 165.668 172.608C168.048 170.187 168.867 167.501 168.028 164.941C166.627 160.679 161.899 159.708 155.199 162.807L152.557 164.03L150.834 158.784" fill="black"></path><path d="M178.554 205.946C198.168 186.714 202.196 159.22 187.549 144.535C172.903 129.85 145.129 133.536 125.515 152.767C105.901 171.999 101.873 199.493 116.519 214.178C131.166 228.863 158.94 225.177 178.554 205.946Z" stroke="#292C2E" stroke-miterlimit="10" stroke-linejoin="round"></path><path d="M217.104 203.094C212.947 178.891 196.081 161.065 177.82 160.18L177.706 159.509L171.543 160.546C151.009 164.01 138.119 188.679 142.747 215.641C147.381 242.603 167.774 261.653 188.308 258.182L194.471 257.145L194.357 256.473C211.297 249.644 221.262 227.297 217.104 203.087V203.094Z" fill="white" stroke="#292C2E" stroke-miterlimit="10" stroke-linejoin="round"></path><path d="M209.977 243.143L210.084 222.404L151.043 237.864C159.942 252.206 174.092 260.597 188.309 258.197L194.472 257.159L194.358 256.488C200.648 253.954 205.98 249.267 209.983 243.15L209.977 243.143Z" fill="black" stroke="#292C2E" stroke-miterlimit="10" stroke-linejoin="round"></path><path d="M148.702 233.713C150.667 237.563 152.994 241.067 155.596 244.152L175.499 240.795L173.561 229.518L148.702 233.713Z" fill="black" stroke="#292C2E" stroke-miterlimit="10" stroke-linejoin="round"></path><path d="M151.91 238.26L149.179 233.469L155.409 232.474L158.776 237.206L151.91 238.26Z" fill="black" stroke="#292C2E" stroke-linejoin="round"></path><path d="M194.472 257.219C215.006 253.753 227.9 229.086 223.271 202.123C218.643 175.16 198.244 156.112 177.71 159.578C157.175 163.043 144.281 187.71 148.91 214.673C153.539 241.636 173.938 260.684 194.472 257.219Z" fill="#D0F500"></path><path d="M223.268 202.058C221.591 192.304 217.856 183.587 212.793 176.599C200.916 170.462 165.501 177.437 165.42 230.39L165.394 246.973C173.696 254.886 184.07 258.915 194.478 257.16C215.012 253.695 227.902 229.027 223.274 202.065L223.268 202.058Z" fill="white"></path><path d="M205.744 198.293L197.482 193.825L186.873 205.481L186.612 205.335L184.271 186.684L176.009 182.216L179.51 205.102L175.687 203.034L174.494 207.236L180.321 210.382L180.623 212.383L180.61 212.423L174.091 208.892L172.897 213.094L179.463 216.645L177.33 224.478L184.673 228.447L186.813 220.621L193.378 224.172L194.525 219.943L187.966 216.399L187.98 216.352L189.153 215.162L194.974 218.307L196.121 214.085L192.265 211.997L205.744 198.293Z" fill="black"></path><path d="M194.472 257.219C215.006 253.753 227.9 229.086 223.271 202.123C218.643 175.16 198.244 156.112 177.71 159.578C157.175 163.043 144.281 187.71 148.91 214.673C153.539 241.636 173.938 260.684 194.472 257.219Z" stroke="#292C2E" stroke-miterlimit="10" stroke-linejoin="round"></path><path d="M241.146 208.658C231.583 188.032 215.702 174.242 202.666 173.949L201.948 172.394L195.383 175.386C181.548 181.689 179.61 206.803 191.05 231.484C202.491 256.166 222.978 271.06 236.813 264.757L243.379 261.765L242.661 260.209C250.923 250.208 250.709 229.277 241.152 208.651L241.146 208.658Z" fill="white" stroke="#292C2E" stroke-miterlimit="10" stroke-linejoin="round"></path><path d="M236.815 264.758L243.38 261.766L242.662 260.21C248.195 253.514 249.925 241.918 247.591 228.793L199.421 245.768C210.902 261.527 225.924 269.718 236.821 264.758H236.815Z" fill="black" stroke="#292C2E" stroke-miterlimit="10" stroke-linejoin="round"></path><path d="M206.756 254.363L213.563 251.65L216.849 254.669L209.901 257.322L206.756 254.363Z" fill="black" stroke="#292C2E" stroke-miterlimit="10" stroke-linejoin="round"></path><path d="M210.478 233.751L195.429 239.742C197.924 243.898 200.673 247.668 203.57 250.972L215.521 246.211L210.471 233.751H210.478Z" fill="black" stroke="#292C2E" stroke-miterlimit="10" stroke-linejoin="round"></path><path d="M243.39 261.826C257.221 255.524 259.161 230.407 247.722 205.725C236.282 181.043 215.796 166.143 201.964 172.445C188.132 178.747 186.193 203.864 197.632 228.546C209.072 253.228 229.558 268.128 243.39 261.826Z" fill="#D0F500"></path><path d="M226.159 193.526L220.847 190.634L220.995 196.093C219.955 195.754 218.99 195.587 218.091 195.587C216.401 195.587 215.094 196.173 214.168 197.323C213.243 198.48 212.813 200.182 212.881 202.436C212.948 205.175 213.725 207.749 215.214 210.149C216.703 212.543 218.715 214.79 221.23 216.865L224.288 219.398C225.89 220.721 227.077 221.898 227.842 222.915C228.606 223.933 229.002 224.943 229.042 225.961C229.062 227.058 228.68 227.743 227.909 228.009C227.131 228.268 226.045 228.022 224.636 227.257C223.087 226.413 221.827 225.289 220.847 223.873C219.868 222.463 219.318 220.867 219.198 219.079L212.485 215.422C212.646 219.677 213.84 223.421 216.086 226.672C217.689 228.993 219.647 230.981 221.967 232.656L222.115 238.062L227.426 240.954L227.285 235.655C229.773 236.672 231.785 236.878 233.307 236.24C235.286 235.416 236.231 233.281 236.151 229.844C236.07 226.951 235.239 224.192 233.663 221.579C232.094 218.959 229.867 216.472 226.984 214.125L224.469 212.057C223.148 210.993 222.095 209.95 221.303 208.919C220.512 207.888 220.116 206.844 220.116 205.787C220.103 204.81 220.425 204.171 221.089 203.905C221.753 203.633 222.765 203.872 224.12 204.61C225.488 205.355 226.554 206.292 227.319 207.423C228.077 208.553 228.526 209.79 228.653 211.14L235.366 214.797C235.286 212.523 234.763 210.289 233.804 208.081C232.845 205.88 231.524 203.859 229.84 201.997C228.774 200.827 227.601 199.783 226.306 198.865L226.165 193.533" fill="black"></path><path d="M243.39 261.826C257.221 255.524 259.161 230.407 247.722 205.725C236.282 181.043 215.796 166.143 201.964 172.445C188.132 178.747 186.193 203.864 197.632 228.546C209.072 253.228 229.558 268.128 243.39 261.826Z" stroke="#292C2E" stroke-miterlimit="10" stroke-linejoin="round"></path><path d="M300.596 226.905L304.599 218.786L214.844 175.308L210.84 183.426C209.6 185.94 228.692 197.715 253.472 209.717C278.258 221.725 299.355 229.418 300.596 226.905Z" fill="#D0F500" stroke="#292C2E" stroke-miterlimit="10" stroke-linejoin="round"></path><path d="M236.987 186.032L214.844 175.307L210.84 183.425C210.022 185.088 218.083 190.792 230.798 197.94L236.981 186.032H236.987Z" fill="black" stroke="#292C2E" stroke-miterlimit="10" stroke-linejoin="round"></path><path d="M236.988 186.032L230.591 182.934L224.649 194.377C226.547 195.514 228.606 196.704 230.805 197.941L236.988 186.032Z" fill="#292C2E" stroke="#292C2E" stroke-miterlimit="10" stroke-linejoin="round"></path><path d="M219.37 191.094C220.35 191.726 221.396 192.391 222.509 193.076L228.122 181.739L225.004 180.229L219.364 191.094H219.37Z" fill="#292C2E"></path><path d="M304.626 218.799C305.865 216.284 286.777 204.513 261.992 192.506C237.207 180.499 216.11 172.804 214.871 175.318C213.633 177.832 232.72 189.604 257.505 201.611C282.29 213.617 303.387 221.313 304.626 218.799Z" fill="#D0F500" stroke="#292C2E" stroke-miterlimit="10" stroke-linejoin="round"></path><path d="M261.963 192.49C252.373 187.849 243.34 183.846 235.795 180.834L229.31 183.48C246.565 192.237 273.511 204.478 292.898 209.106C285.193 204.365 274.282 198.454 261.963 192.49Z" fill="black"></path><path d="M304.626 218.799C305.865 216.284 286.777 204.513 261.992 192.506C237.207 180.499 216.11 172.804 214.871 175.318C213.633 177.832 232.72 189.604 257.505 201.611C282.29 213.617 303.387 221.313 304.626 218.799Z" stroke="#292C2E" stroke-miterlimit="10" stroke-linejoin="round"></path><path d="M228.27 174.25L227.921 182.827L327.736 186.783L328.084 178.206C328.138 176.81 305.84 174.788 278.278 173.691C250.715 172.601 228.323 172.847 228.27 174.243V174.25Z" fill="#D0F500" stroke="#292C2E" stroke-miterlimit="10" stroke-linejoin="round"></path><path d="M327.74 186.781C327.796 185.383 305.497 183.364 277.934 182.271C250.371 181.178 227.981 181.425 227.924 182.823C227.868 184.221 250.167 186.24 277.73 187.333C305.293 188.426 327.683 188.179 327.74 186.781Z" fill="black" stroke="#292C2E" stroke-miterlimit="10" stroke-linejoin="round"></path><rect opacity="0.3" width="10.0082" height="10.0082" transform="matrix(0.707107 0.707107 0.707107 -0.707107 48 262.469)" fill="#D0F500"></rect><rect width="12.7514" height="12.7514" transform="matrix(0.707107 0.707107 0.707107 -0.707107 339 53.0166)" fill="#D0F500"></rect></g><defs><clipPath id="clip0_1_38138"><rect width="394" height="328" fill="white"></rect></clipPath></defs></svg>