<svg width="100" height="100" viewBox="0 0 100 100" fill="none" xmlns="http://www.w3.org/2000/svg" class="wh-100px"><path d="M79.555 60.1835C79.3437 59.981 79.0945 59.8224 78.8217 59.7168C78.5648 59.6025 78.2861 59.5456 78.005 59.5501C77.7313 59.5499 77.46 59.6008 77.205 59.7001C76.9557 59.8145 76.7252 59.9663 76.5216 60.1501C76.3269 60.345 76.1738 60.5775 76.0717 60.8335C74.7241 64.1935 72.731 67.2568 70.205 69.8501C67.3585 72.595 63.9451 74.6828 60.205 75.9668C57.3854 76.9427 54.422 77.4384 51.4383 77.4334C50.4642 77.4334 49.4907 77.3833 48.5217 77.2834C42.5564 76.67 36.9644 74.0905 32.6257 69.951C28.287 65.8114 25.4478 60.3467 24.555 54.4168C23.6792 48.5055 24.7855 42.4706 27.7012 37.2544C30.6168 32.0382 35.1777 27.9343 40.6717 25.5834C40.9265 25.4793 41.1586 25.3265 41.355 25.1334C41.5497 24.9385 41.7028 24.706 41.805 24.4501C41.9168 24.1865 41.9745 23.9031 41.9745 23.6168C41.9745 23.3304 41.9168 23.047 41.805 22.7834C41.7028 22.5275 41.5497 22.295 41.355 22.1001C41.1557 21.9108 40.9243 21.7584 40.6717 21.6501C40.4171 21.5492 40.1455 21.4983 39.8717 21.5001C39.5907 21.4972 39.3123 21.554 39.055 21.6668C32.682 24.3627 27.3853 29.0996 23.9974 35.1333C20.6095 41.167 19.3224 48.1553 20.3383 55.0001C21.3747 61.845 24.6535 68.1523 29.6605 72.9331C34.6675 77.7138 41.1196 80.6977 48.005 81.4168C49.0717 81.5168 50.155 81.5834 51.2383 81.5834C59.4149 81.5794 67.2646 78.3725 73.105 72.6501C76.0266 69.7646 78.334 66.3176 79.8883 62.5168C80.0038 62.253 80.0715 61.9709 80.0883 61.6834C80.0885 61.3989 80.0377 61.1167 79.9383 60.8501C79.8504 60.6073 79.7206 60.3816 79.555 60.1835Z" fill="black"></path><path d="M72.5887 29.0835C69.7056 26.193 66.2786 23.9021 62.5055 22.3431C58.7323 20.7841 54.6878 19.9878 50.6053 20.0001C50.3333 19.9979 50.0636 20.0499 49.8118 20.1529C49.5601 20.256 49.3314 20.4081 49.139 20.6005C48.9467 20.7929 48.7945 21.0216 48.6914 21.2733C48.5884 21.5251 48.5364 21.7948 48.5386 22.0668V51.0168C48.5342 51.5709 48.7489 52.1043 49.136 52.5008C49.5231 52.8973 50.0513 53.1247 50.6053 53.1335H79.5553C80.1132 53.1228 80.6451 52.8957 81.0386 52.5001C81.4327 52.107 81.6545 51.5734 81.6553 51.0168C81.6688 46.9431 80.8744 42.9071 79.3181 39.1423C77.7619 35.3775 75.4746 31.9587 72.5887 29.0835ZM52.6886 48.9335V24.2335L53.622 24.3335C59.7031 24.9773 65.384 27.6713 69.7307 31.9726C74.0774 36.2738 76.8309 41.9262 77.5386 48.0001L77.6387 48.9335H52.6886Z" fill="black"></path></svg>