<svg width="100" height="100" viewBox="0 0 100 100" fill="none" xmlns="http://www.w3.org/2000/svg" class="wh-100px"><path fill-rule="evenodd" clip-rule="evenodd" d="M71.9557 36.9056L72.2746 37.0891C73.3284 37.6936 74.2043 38.5607 74.8154 39.6043C75.4265 40.648 75.7514 41.8319 75.7581 43.0385C75.7391 44.8621 75.0064 46.6072 73.7144 47.9059C72.4224 49.2046 70.672 49.9555 68.8322 50.0003V38.1424V34.5952C66.9779 31.2678 64.2581 28.4934 60.9555 26.5603C57.6529 24.6272 53.8881 23.6061 50.0525 23.6029C46.2168 23.5998 42.4503 24.6149 39.1445 26.5426C35.8387 28.4703 33.1143 31.2403 31.2545 34.5646V50.0003C29.4048 49.9578 27.6432 49.2093 26.3369 47.911C25.0305 46.6127 24.2804 44.8647 24.2429 43.0317C24.2572 41.8316 24.5818 40.6551 25.1857 39.6147C25.7896 38.5744 26.6525 37.7048 27.6921 37.0891L27.9973 36.9056L28.1207 36.5659C31.4705 27.6469 40.2135 21.667 49.9919 21.667C59.7704 21.667 68.5477 27.6469 71.8254 36.5659L71.9557 36.9056ZM50.0169 60.3036C41.4876 60.3036 34.5457 53.3636 34.5457 44.832C34.5457 36.3004 41.4876 29.3945 50.0169 29.3945C58.5462 29.3945 65.4547 36.3209 65.4547 44.832C65.4547 53.3431 58.5295 60.3036 50.0169 60.3036ZM50.0169 31.4779C42.7937 31.4779 36.7056 37.5778 36.7056 44.7978C36.7056 52.1409 42.6865 58.1178 50.0337 58.1178C57.3809 58.1178 63.3618 52.1409 63.3618 44.7978C63.3618 37.4548 57.3675 31.4779 50.0169 31.4779ZM21.6665 78.3338C21.7488 69.8981 26.0611 63.0659 33.8356 59.0536C38.259 63.0419 43.987 65.2435 49.9214 65.2365C55.8557 65.2295 61.5786 63.0143 65.9927 59.0156C73.8358 63.0002 78.2132 69.8497 78.3332 78.3338H21.6665ZM33.3488 61.884C29.5781 64.1268 25.1595 68.8302 24.1826 75.3065L24.0009 76.4987H76.105L76.0022 75.3687C75.5223 70.0363 71.7584 64.31 66.8565 61.4347L66.2498 61.0891L65.6911 61.5384C61.6976 64.742 55.6267 66.8086 50.2209 66.8086C43.941 66.8086 39.0837 65.3122 34.4732 61.9704L33.9281 61.5384L33.3488 61.884Z" fill="black"></path><path d="M72.2746 37.0891L72.0668 37.4503L72.0673 37.4505L72.2746 37.0891ZM71.9557 36.9056L71.5667 37.0548L71.6197 37.193L71.7479 37.2668L71.9557 36.9056ZM75.7581 43.0385L76.1748 43.0428L76.1747 43.0362L75.7581 43.0385ZM73.7144 47.9059L74.0098 48.1998V48.1997L73.7144 47.9059ZM68.8322 50.0003H68.4156V50.4273L68.8424 50.4169L68.8322 50.0003ZM68.8322 34.5952H69.2489V34.4869L69.1962 34.3924L68.8322 34.5952ZM60.9555 26.5603L60.745 26.9199L60.9555 26.5603ZM50.0525 23.6029L50.0528 23.1863L50.0525 23.6029ZM31.2545 34.5646L30.8908 34.3612L30.8378 34.456V34.5646H31.2545ZM31.2545 50.0003L31.2449 50.4169L31.6711 50.4267V50.0003H31.2545ZM26.3369 47.911L26.6306 47.6155L26.3369 47.911ZM24.2429 43.0317L23.8261 43.0267L23.8263 43.0402L24.2429 43.0317ZM27.6921 37.0891L27.9044 37.4476L27.9068 37.4462L27.6921 37.0891ZM27.9973 36.9056L28.212 37.2627L28.3385 37.1867L28.3889 37.0479L27.9973 36.9056ZM28.1207 36.5659L27.7306 36.4194L27.7291 36.4236L28.1207 36.5659ZM71.8254 36.5659L71.4343 36.7096L71.4364 36.715L71.8254 36.5659ZM33.8356 59.0536L34.1146 58.7442L33.9006 58.5512L33.6445 58.6834L33.8356 59.0536ZM21.6665 78.3338L21.2499 78.3297L21.2458 78.7505H21.6665V78.3338ZM65.9927 59.0156L66.1814 58.6441L65.9256 58.5142L65.713 58.7068L65.9927 59.0156ZM78.3332 78.3338V78.7505H78.7558L78.7498 78.3279L78.3332 78.3338ZM24.1826 75.3065L24.5945 75.3693L24.5946 75.3686L24.1826 75.3065ZM33.3488 61.884L33.5618 62.2421L33.5623 62.2418L33.3488 61.884ZM24.0009 76.4987L23.589 76.436L23.5159 76.9154H24.0009V76.4987ZM76.105 76.4987V76.9154H76.5613L76.52 76.461L76.105 76.4987ZM76.0022 75.3687L75.5872 75.406L75.5872 75.4065L76.0022 75.3687ZM66.8565 61.4347L67.0674 61.0753L67.0628 61.0727L66.8565 61.4347ZM66.2498 61.0891L66.456 60.7271L66.2097 60.5868L65.9887 60.7644L66.2498 61.0891ZM65.6911 61.5384L65.9518 61.8634L65.9522 61.8631L65.6911 61.5384ZM34.4732 61.9704L34.2143 62.2969L34.2214 62.3025L34.2286 62.3077L34.4732 61.9704ZM33.9281 61.5384L34.1869 61.2119L33.9616 61.0333L33.7147 61.1806L33.9281 61.5384ZM72.4824 36.728L72.1635 36.5445L71.7479 37.2668L72.0668 37.4503L72.4824 36.728ZM75.1749 39.3938C74.527 38.2871 73.5984 37.3681 72.4819 36.7277L72.0673 37.4505C73.0583 38.019 73.8816 38.8342 74.4558 39.8149L75.1749 39.3938ZM76.1747 43.0362C76.1677 41.7562 75.8229 40.5005 75.1749 39.3938L74.4558 39.8149C75.03 40.7955 75.3352 41.9076 75.3414 43.0408L76.1747 43.0362ZM74.0098 48.1997C75.378 46.8244 76.1546 44.9756 76.1747 43.0428L75.3414 43.0341C75.3236 44.7486 74.6347 46.3899 73.419 47.612L74.0098 48.1997ZM68.8424 50.4169C70.7889 50.3695 72.6416 49.575 74.0098 48.1998L73.419 47.612C72.2031 48.8342 70.5551 49.5416 68.8221 49.5838L68.8424 50.4169ZM68.4156 38.1424V50.0003H69.2489V38.1424H68.4156ZM68.4156 34.5952V38.1424H69.2489V34.5952H68.4156ZM60.745 26.9199C63.9837 28.8156 66.6504 31.536 68.4683 34.798L69.1962 34.3924C67.3055 30.9997 64.5325 28.1712 61.166 26.2007L60.745 26.9199ZM50.0521 24.0196C53.8141 24.0227 57.5063 25.0243 60.745 26.9199L61.166 26.2007C57.7995 24.2302 53.9621 23.1895 50.0528 23.1863L50.0521 24.0196ZM39.3544 26.9025C42.5962 25.0121 46.2901 24.0166 50.0521 24.0196L50.0528 23.1863C46.1434 23.1831 42.3044 24.2176 38.9346 26.1826L39.3544 26.9025ZM31.6181 34.7681C33.4414 31.509 36.1126 28.7929 39.3544 26.9025L38.9346 26.1826C35.5648 28.1477 32.7872 30.9716 30.8908 34.3612L31.6181 34.7681ZM31.6711 50.0003V34.5646H30.8378V50.0003H31.6711ZM26.0431 48.2065C27.4255 49.5805 29.2891 50.3719 31.2449 50.4169L31.264 49.5838C29.5206 49.5437 27.8608 48.8382 26.6306 47.6155L26.0431 48.2065ZM23.8263 43.0402C23.8661 44.9818 24.6606 46.8325 26.0431 48.2065L26.6306 47.6155C25.4005 46.3929 24.6948 44.7477 24.6595 43.0231L23.8263 43.0402ZM24.8253 39.4056C24.1855 40.5079 23.8415 41.7546 23.8263 43.0267L24.6596 43.0366C24.673 41.9085 24.9781 40.8024 25.5461 39.8239L24.8253 39.4056ZM27.4798 36.7306C26.3792 37.3824 25.4651 38.3033 24.8253 39.4056L25.5461 39.8239C26.114 38.8454 26.9258 38.0272 27.9044 37.4476L27.4798 36.7306ZM27.7826 36.5485L27.4774 36.732L27.9068 37.4462L28.212 37.2627L27.7826 36.5485ZM27.7291 36.4236L27.6056 36.7634L28.3889 37.0479L28.5123 36.7081L27.7291 36.4236ZM49.9919 21.2503C40.0448 21.2503 31.1432 27.3334 27.7306 36.4194L28.5108 36.7124C31.7978 27.9605 40.3822 22.0837 49.9919 22.0837V21.2503ZM72.2165 36.4221C68.876 27.3325 59.9378 21.2503 49.9919 21.2503V22.0837C59.603 22.0837 68.2193 27.9614 71.4343 36.7096L72.2165 36.4221ZM72.3448 36.7564L72.2145 36.4167L71.4364 36.715L71.5667 37.0548L72.3448 36.7564ZM34.129 44.832C34.129 53.5937 41.2576 60.7203 50.0169 60.7203V59.887C41.7177 59.887 34.9623 53.1334 34.9623 44.832H34.129ZM50.0169 28.9779C41.2588 28.9779 34.129 36.0691 34.129 44.832H34.9623C34.9623 36.5318 41.7165 29.8112 50.0169 29.8112V28.9779ZM65.8714 44.832C65.8714 36.0911 58.7767 28.9779 50.0169 28.9779V29.8112C58.3158 29.8112 65.0381 36.5507 65.0381 44.832H65.8714ZM50.0169 60.7203C58.7608 60.7203 65.8714 53.572 65.8714 44.832H65.0381C65.0381 53.1142 58.2982 59.887 50.0169 59.887V60.7203ZM37.1223 44.7978C37.1223 37.8075 43.0242 31.8946 50.0169 31.8946V31.0612C42.5631 31.0612 36.2889 37.3481 36.2889 44.7978H37.1223ZM50.0337 57.7011C42.9164 57.7011 37.1223 51.9105 37.1223 44.7978H36.2889C36.2889 52.3713 42.4566 58.5345 50.0337 58.5345V57.7011ZM62.9451 44.7978C62.9451 51.9105 57.151 57.7011 50.0337 57.7011V58.5345C57.6107 58.5345 63.7784 52.3713 63.7784 44.7978H62.9451ZM50.0169 31.8946C57.1382 31.8946 62.9451 37.6858 62.9451 44.7978H63.7784C63.7784 37.2238 57.5967 31.0612 50.0169 31.0612V31.8946ZM33.6445 58.6834C25.7391 62.7631 21.3337 69.7325 21.2499 78.3297L22.0832 78.3379C22.1638 70.0636 26.383 63.3686 34.0266 59.4239L33.6445 58.6834ZM49.9209 64.8199C44.0902 64.8267 38.4616 62.6635 34.1146 58.7442L33.5566 59.3631C38.0563 63.4202 43.8839 65.6603 49.9218 65.6532L49.9209 64.8199ZM65.713 58.7068C61.3751 62.6365 55.7515 64.813 49.9209 64.8199L49.9218 65.6532C55.9598 65.646 61.7821 63.3921 66.2725 59.3244L65.713 58.7068ZM78.7498 78.3279C78.6275 69.682 74.156 62.6955 66.1814 58.6441L65.804 59.3871C73.5155 63.3049 77.7989 70.0174 77.9165 78.3397L78.7498 78.3279ZM21.6665 78.7505H78.3332V77.9171H21.6665V78.7505ZM24.5946 75.3686C25.5485 69.0453 29.8699 64.438 33.5618 62.2421L33.1358 61.5259C29.2863 63.8156 24.7706 68.6152 23.7706 75.2443L24.5946 75.3686ZM24.4128 76.5615L24.5945 75.3693L23.7707 75.2437L23.589 76.436L24.4128 76.5615ZM76.105 76.0821H24.0009V76.9154H76.105V76.0821ZM75.5872 75.4065L75.6901 76.5365L76.52 76.461L76.4171 75.3309L75.5872 75.4065ZM66.6457 61.7941C71.4403 64.6064 75.1202 70.2175 75.5872 75.406L76.4172 75.3313C75.9243 69.8552 72.0766 64.0135 67.0674 61.0753L66.6457 61.7941ZM66.0436 61.4512L66.6503 61.7968L67.0628 61.0727L66.456 60.7271L66.0436 61.4512ZM65.9522 61.8631L66.5109 61.4139L65.9887 60.7644L65.43 61.2137L65.9522 61.8631ZM50.2209 67.2252C55.7157 67.2252 61.8799 65.1298 65.9518 61.8634L65.4303 61.2134C61.5152 64.3541 55.5378 66.3919 50.2209 66.3919V67.2252ZM34.2286 62.3077C38.9173 65.7062 43.8624 67.2252 50.2209 67.2252V66.3919C44.0197 66.3919 39.25 64.9181 34.7177 61.633L34.2286 62.3077ZM33.6693 61.8649L34.2143 62.2969L34.732 61.6438L34.1869 61.2119L33.6693 61.8649ZM33.5623 62.2418L34.1416 61.8962L33.7147 61.1806L33.1353 61.5261L33.5623 62.2418Z" fill="black"></path></svg>