<svg width="100" height="100" viewBox="0 0 100 100" fill="none" xmlns="http://www.w3.org/2000/svg" class="wh-100px"><path d="M49.85 79.7166C44.7433 79.7421 39.7357 78.3081 35.4167 75.5833C35.2834 75.5008 35.1686 75.3916 35.0797 75.2625C34.9907 75.1334 34.9296 74.9873 34.9 74.8333C34.8666 74.6796 34.8666 74.5204 34.9 74.3667C34.9304 74.2138 34.9868 74.0672 35.0667 73.9333C35.1515 73.7987 35.2654 73.6848 35.4 73.6C35.5235 73.5087 35.6659 73.446 35.8167 73.4166C35.9049 73.4014 35.9951 73.4014 36.0833 73.4166H36.3C36.4529 73.4471 36.5995 73.5035 36.7333 73.5833C40.6506 76.0436 45.1825 77.3488 49.8083 77.3488C54.4341 77.3488 58.9661 76.0436 62.8833 73.5833C63.0589 73.4943 63.2532 73.4486 63.45 73.45C63.5493 73.4335 63.6507 73.4335 63.75 73.45C64.0506 73.5241 64.3124 73.7085 64.4833 73.9666C64.6505 74.2362 64.7073 74.5597 64.6422 74.8701C64.577 75.1805 64.3948 75.4538 64.1333 75.6333C59.8669 78.305 54.9339 79.7201 49.9 79.7166H49.85ZM72.0333 73.6833H71.0333C70.0402 73.5487 69.0832 73.2203 68.2167 72.7167C67.3447 72.229 66.5841 71.5649 65.9833 70.7667C64.7562 69.168 64.211 67.149 64.4667 65.15C64.5957 64.1632 64.9186 63.2116 65.4167 62.35C66.0953 61.1848 67.0686 60.2186 68.2388 59.5487C69.409 58.8787 70.7349 58.5286 72.0833 58.5333C73.4174 58.5321 74.7281 58.8828 75.8833 59.55C77.188 60.3018 78.2405 61.4234 78.908 62.7731C79.5754 64.1229 79.8279 65.6402 79.6333 67.1333C79.432 68.6241 78.7946 70.0223 77.8012 71.152C76.8079 72.2818 75.5028 73.0928 74.05 73.4833C73.3894 73.6378 72.7114 73.705 72.0333 73.6833ZM72.0333 60.8833C70.8953 60.8869 69.7894 61.2614 68.8833 61.95C67.9703 62.6386 67.3134 63.6122 67.0167 64.7166C66.7175 65.8198 66.7878 66.9905 67.2167 68.05C67.5897 68.9461 68.2055 69.7204 68.9945 70.2857C69.7836 70.851 70.7148 71.185 71.6833 71.25H72.0333C72.7127 71.2485 73.3857 71.1184 74.0167 70.8666C74.7518 70.5562 75.4071 70.0833 75.9333 69.4833C76.4676 68.8952 76.8508 68.1859 77.05 67.4167C77.2331 66.6384 77.2331 65.8282 77.05 65.05C76.8955 64.2691 76.5649 63.5338 76.0833 62.9C75.6059 62.2624 74.9831 61.7482 74.2667 61.4C73.5524 61.0424 72.7654 60.8542 71.9667 60.85L72.0333 60.8833ZM27.6 73.55C26.9366 73.549 26.2759 73.4651 25.6333 73.3C23.6796 72.7772 22.0132 71.5004 21 69.75C20.3458 68.5903 20.0014 67.2815 20 65.95C20.0027 64.6185 20.3551 63.311 21.022 62.1586C21.6889 61.0061 22.6469 60.0491 23.8 59.3833C24.9568 58.7115 26.2706 58.3577 27.6083 58.3577C28.946 58.3577 30.2599 58.7115 31.4167 59.3833C32.4295 59.9665 33.2945 60.7749 33.9448 61.746C34.595 62.7171 35.0131 63.8248 35.1667 64.9833C35.2975 65.9748 35.2353 66.9822 34.9833 67.95C34.7153 68.9084 34.2685 69.8075 33.6667 70.6C33.0578 71.3906 32.2988 72.0532 31.4333 72.55C30.2659 73.217 28.9445 73.5675 27.6 73.5666V73.55ZM27.6 60.75C26.6878 60.7506 25.7917 60.9911 25.0019 61.4475C24.212 61.9038 23.5561 62.56 23.1 63.35C22.642 64.1399 22.4007 65.0369 22.4007 65.95C22.4007 66.8631 22.642 67.76 23.1 68.55C23.5618 69.34 24.2227 69.9951 25.0167 70.45C25.803 70.9167 26.7023 71.1588 27.6167 71.15C28.5281 71.1533 29.4246 70.9177 30.2167 70.4666C31.0114 70.0053 31.672 69.3447 32.1333 68.55C32.5843 67.7579 32.8199 66.8615 32.8167 65.95C32.8161 65.0358 32.5737 64.138 32.1142 63.3477C31.6546 62.5574 30.9942 61.9027 30.2 61.45C29.4061 61.0015 28.5118 60.7608 27.6 60.75ZM75.4833 55.75C75.3169 55.7455 75.153 55.7078 75.0013 55.6391C74.8496 55.5705 74.7132 55.4721 74.6 55.35C74.3898 55.1053 74.2823 54.7888 74.3 54.4667C74.6303 49.7195 73.5624 44.9796 71.2284 40.8328C68.8943 36.6859 65.3963 33.3139 61.1667 31.1333C61.0154 31.0677 60.8834 30.9644 60.7833 30.8333C60.7032 30.7617 60.6356 30.6772 60.5833 30.5833C60.551 30.4238 60.551 30.2595 60.5833 30.1C60.6021 29.9382 60.6472 29.7806 60.7167 29.6333C60.8023 29.5 60.9029 29.377 61.0167 29.2667C61.1425 29.1718 61.2834 29.0985 61.4333 29.05H61.7833C61.9878 29.0456 62.1896 29.0975 62.3667 29.2C66.6665 31.4364 70.2871 34.7864 72.85 38.9C75.8062 43.6403 77.1887 49.1936 76.8 54.7666C76.7803 55.0693 76.6498 55.3542 76.4333 55.5667C76.2082 55.7673 75.9182 55.8797 75.6167 55.8833L75.4833 55.75ZM24.2 55.5833C23.893 55.5822 23.5969 55.4697 23.3667 55.2667C23.1465 55.05 23.0156 54.7585 23 54.45C22.6509 48.9054 24.0499 43.3909 27 38.6833C29.58 34.5537 33.2319 31.2014 37.5667 28.9833C37.7376 28.898 37.9256 28.8524 38.1167 28.85C38.2383 28.8337 38.3616 28.8337 38.4833 28.85C38.7114 28.9212 38.913 29.0588 39.0623 29.2453C39.2117 29.4317 39.302 29.6585 39.3217 29.8966C39.3414 30.1347 39.2896 30.3732 39.1729 30.5816C39.0562 30.7901 38.8799 30.959 38.6667 31.0666C34.4217 33.2094 30.897 36.5482 28.5276 40.671C26.1582 44.7938 25.0477 49.5201 25.3333 54.2667C25.3435 54.4238 25.3222 54.5814 25.2707 54.7302C25.2192 54.879 25.1385 55.0161 25.0333 55.1333C24.8179 55.3696 24.5191 55.5131 24.2 55.5333V55.5833ZM49.9333 35.2C48.4302 35.1967 46.9618 34.7477 45.7138 33.9099C44.4658 33.072 43.4944 31.883 42.9222 30.493C42.35 29.103 42.2028 27.5746 42.4993 26.101C42.7958 24.6274 43.5226 23.2748 44.5878 22.2142C45.653 21.1537 47.0088 20.4328 48.4837 20.1428C49.9586 19.8528 51.4863 20.0067 52.8738 20.5849C54.2612 21.1632 55.4461 22.1399 56.2784 23.3915C57.1108 24.6432 57.5533 26.1135 57.55 27.6167C57.55 29.6367 56.7475 31.574 55.3191 33.0024C53.8907 34.4309 51.9534 35.2333 49.9333 35.2333V35.2ZM49.9333 22.4167C48.903 22.4141 47.8952 22.7177 47.0377 23.2889C46.1802 23.8601 45.5117 24.6732 45.1171 25.625C44.7225 26.5767 44.6195 27.6242 44.8212 28.6346C45.0229 29.645 45.5202 30.5727 46.25 31.3C46.9804 32.0217 47.9075 32.5119 48.9152 32.709C49.9228 32.9061 50.9663 32.8015 51.9148 32.4082C52.8633 32.0149 53.6746 31.3505 54.2472 30.4981C54.8197 29.6458 55.128 28.6434 55.1333 27.6167C55.1245 26.2433 54.5728 24.9292 53.5986 23.9612C52.6243 22.9932 51.3067 22.45 49.9333 22.45V22.4167Z" fill="black" stroke="black" stroke-width="1.66667"></path></svg>