<svg width="100" height="100" viewBox="0 0 100 100" fill="none" xmlns="http://www.w3.org/2000/svg" class="wh-100px"><path fill-rule="evenodd" clip-rule="evenodd" d="M32.505 78.333C29.6393 78.3354 26.8895 77.2169 24.858 75.2224C22.8265 73.228 21.679 70.5204 21.667 67.6927C21.667 59.9417 23.9725 52.8742 28.3496 47.2513C32.0767 42.4556 37.1586 38.8589 42.6839 37.1325L43.7471 36.7998L42.8905 36.0984C39.8894 33.6496 38.243 29.7592 38.243 25.1314V24.8017L38.5255 24.1273L38.7928 23.8575C39.1325 23.5235 39.592 23.335 40.0716 23.333H60.4233L61.0309 23.8395C61.2084 24.0096 61.3489 24.2136 61.444 24.439L61.5746 24.7387V25.1464C61.5746 29.915 59.8219 33.8864 56.6446 36.3112L55.7333 36.9976L56.8147 37.3543C60.5777 38.5917 64.0338 40.5986 66.9572 43.2439C67.2842 43.5392 67.479 43.9506 67.4987 44.3877C67.5183 44.8247 67.3612 45.2515 67.062 45.5743C66.7627 45.897 66.3457 46.0892 65.9028 46.1086C65.4599 46.128 65.0273 45.973 64.7002 45.6777C60.3474 41.7273 54.5274 39.3684 49.157 39.3684C39.2879 39.3684 25.0083 49.4513 25.0083 67.6927C25.0188 69.6464 25.8137 71.5164 27.2189 72.8929C28.6241 74.2693 30.525 75.04 32.505 75.036H46.1194C46.5625 75.036 46.9875 75.2097 47.3008 75.5188C47.6141 75.828 47.7901 76.2473 47.7901 76.6845C47.7901 77.1217 47.6141 77.541 47.3008 77.8502C46.9875 78.1593 46.5625 78.333 46.1194 78.333H32.505ZM41.7301 27.3134C42.5685 33.224 46.6632 35.3221 49.9164 35.3221C53.1696 35.3221 57.2673 33.224 58.1026 27.3134L58.1968 26.63H41.636L41.7301 27.3134ZM62.917 78.333C60.1975 78.333 57.5391 77.5266 55.2779 76.0157C53.0167 74.5048 51.2544 72.3574 50.2137 69.8449C49.1729 67.3324 48.9007 64.5678 49.4312 61.9005C49.9617 59.2333 51.2713 56.7833 53.1943 54.8603C55.1173 52.9373 57.5673 51.6278 60.2345 51.0972C62.9017 50.5667 65.6664 50.839 68.1789 51.8797C70.6914 52.9204 72.8388 54.6827 74.3497 56.9439C75.8606 59.2051 76.667 61.8635 76.667 64.583C76.663 68.2285 75.2131 71.7235 72.6353 74.3013C70.0575 76.8791 66.5625 78.329 62.917 78.333ZM62.917 54.1572C60.855 54.1572 58.8392 54.7687 57.1247 55.9143C55.4102 57.0599 54.0739 58.6882 53.2848 60.5932C52.4957 62.4983 52.2892 64.5946 52.6915 66.617C53.0938 68.6394 54.0868 70.4971 55.5448 71.9552C57.0029 73.4133 58.8606 74.4062 60.883 74.8085C62.9054 75.2108 65.0017 75.0043 66.9068 74.2152C68.8119 73.4261 70.4401 72.0898 71.5858 70.3753C72.7314 68.6608 73.3428 66.645 73.3428 64.583C73.3396 61.8189 72.2402 59.1689 70.2856 57.2144C68.3311 55.2598 65.6811 54.1604 62.917 54.1572ZM62.5993 69.0827C62.7005 69.1384 62.8089 69.1669 62.9184 69.1663C63.1381 69.1662 63.3489 69.0508 63.5053 68.8451L65.423 66.2852C65.5789 66.0765 65.6663 65.7939 65.6663 65.4994C65.6663 65.205 65.5789 64.9224 65.423 64.7137L63.5053 62.1573C63.3487 61.9496 63.1367 61.833 62.9158 61.833C62.6949 61.833 62.4829 61.9496 62.3263 62.1573L60.4086 64.7137C60.2534 64.9229 60.1663 65.2052 60.1663 65.4994C60.1663 65.7937 60.2534 66.076 60.4086 66.2852L62.329 68.8416C62.4062 68.945 62.4981 69.0269 62.5993 69.0827Z" fill="black"></path></svg>