<svg width="394" height="328" viewBox="0 0 394 328" fill="none" xmlns="http://www.w3.org/2000/svg"><rect width="394" height="328" fill="white"></rect><rect x="292.647" y="235.145" width="42.3526" height="42.3526" fill="#D0F500"></rect><rect x="293.147" y="193.293" width="41.3526" height="41.3526" stroke="#EAEAED"></rect><rect x="174.406" y="89.8525" width="41.3526" height="41.3526" transform="rotate(-90 174.406 89.8525)" stroke="#EAEAED"></rect><rect x="93.4578" y="161.861" width="42.3526" height="42.3526" fill="#D0F500"></rect><rect x="93.9578" y="120.008" width="41.3526" height="41.3526" stroke="#EAEAED"></rect><rect x="51.5" y="205.136" width="41.3526" height="41.3526" stroke="#EAEAED"></rect><rect x="136.417" y="205.136" width="41.3526" height="41.3526" stroke="#EAEAED"></rect><mask id="mask0_1_38011" maskUnits="userSpaceOnUse" x="115" y="54" width="186" height="219" style="mask-type: luminance;"><path d="M115.5 271.557V54.5H300.139V271.557H115.5Z" fill="white" stroke="white" stroke-linejoin="round"></path></mask><g mask="url(#mask0_1_38011)"><path d="M294.447 212.455L294.36 192.859L299.535 183.991L299.099 103.572L270.054 122.441C261.419 149.567 256.564 164.715 247.929 191.812L248.365 271.359L299.855 237.924L299.71 209.082L294.506 212.484H294.447V212.455Z" fill="white" stroke="#292C2E" stroke-miterlimit="10" stroke-linejoin="round"></path><path d="M270.024 122.411L137.649 107.438L166.695 88.5979L299.04 103.542L270.024 122.411Z" fill="white" stroke="#292C2E" stroke-miterlimit="10" stroke-linejoin="round"></path><path d="M247.899 191.782L115.524 176.838C124.159 149.712 129.015 134.564 137.65 107.467L269.996 122.411C261.39 149.537 256.505 164.714 247.899 191.782Z" fill="white" stroke="#292C2E" stroke-miterlimit="10" stroke-linejoin="round"></path><path d="M129.132 168.029L144.89 118.632L256.39 131.221L240.661 180.618L129.132 168.029Z" fill="black" stroke="#292C2E" stroke-miterlimit="10" stroke-linejoin="round"></path><g filter="url(#filter0_b_1_38011)"><path d="M248.336 271.33L115.99 256.356L115.524 176.838L247.87 191.783L248.336 271.33Z" fill="#D0F500"></path><path d="M248.336 271.33L115.99 256.356L115.524 176.838L247.87 191.783L248.336 271.33Z" stroke="#292C2E" stroke-miterlimit="10" stroke-linejoin="round"></path></g><path d="M199.461 203.674L186.785 202.249L186.843 208.093L199.519 209.518L199.461 203.674Z" fill="#23272A"></path><path d="M218.011 205.767L205.364 204.313L205.393 210.186L218.04 211.611L218.011 205.767Z" fill="#23272A"></path><path d="M248.045 223.24L186.814 216.32L186.931 235.509L248.161 242.4L248.045 223.24Z" fill="#0C0E12" stroke="#292C2E" stroke-miterlimit="10" stroke-linejoin="round"></path><path d="M294.302 192.857L248.22 222.775L248.336 242.4L294.448 212.453L294.302 192.857Z" fill="#23272A" stroke="#292C2E" stroke-miterlimit="10" stroke-linejoin="round"></path><path d="M248.248 222.775L248.335 237.806L294.418 207.889L294.331 192.857L248.248 222.775Z" fill="white" stroke="#292C2E" stroke-miterlimit="10" stroke-linejoin="round"></path><path d="M186.843 216.32L186.93 230.916L248.131 237.835L248.044 223.24L186.843 216.32Z" fill="white" stroke="#292C2E" stroke-miterlimit="10" stroke-linejoin="round"></path><path d="M299.622 209.052L294.418 207.918L248.132 237.835L248.335 242.429L299.622 209.052Z" fill="black" stroke="#292C2E" stroke-miterlimit="10" stroke-linejoin="round"></path><path d="M144.89 118.632V169.803L129.132 168.029L144.89 118.632Z" fill="black" stroke="#292C2E" stroke-miterlimit="10" stroke-linejoin="round"></path><path d="M186.93 235.481L192.774 231.556V216.961L186.843 216.292L186.93 235.481Z" fill="#0C0E12" stroke="#292C2E" stroke-miterlimit="10" stroke-linejoin="round"></path><path d="M167.917 232.05L167.859 219.926L157.537 218.763L157.45 207.22L144.483 205.767L144.57 217.28L134.278 216.146L134.336 228.27L144.628 229.404L144.715 240.946L157.654 242.429L157.595 230.887L167.917 232.05Z" fill="#23272A"></path><path d="M205.742 163.347C221.675 151.601 224.524 128.429 212.08 111.566C199.666 94.7031 176.668 90.5455 160.735 102.291C144.803 114.037 141.953 137.21 154.397 154.073C166.812 170.965 189.809 175.093 205.742 163.347Z" fill="black" stroke="#292C2E" stroke-miterlimit="10" stroke-linejoin="round"></path><path d="M243.045 128.488C243.016 127.354 242.928 126.22 242.783 125.086C242.783 124.97 242.783 124.853 242.783 124.737C242.783 124.737 242.783 124.679 242.783 124.65C242.667 123.283 242.434 121.975 242.201 120.638C242.172 120.405 242.114 120.202 242.056 119.969C241.969 119.387 241.794 118.864 241.678 118.283C241.533 117.614 241.387 116.916 241.242 116.306C241.155 115.957 241.009 115.608 240.922 115.259C240.69 114.445 240.457 113.66 240.166 112.846C240.021 112.352 239.875 111.828 239.701 111.334C239.614 111.043 239.439 110.811 239.352 110.52C238.771 109.037 238.16 107.612 237.491 106.188C237.346 105.839 237.201 105.49 237.055 105.141C236.997 105.054 236.939 104.938 236.91 104.821C236.067 103.135 235.107 101.478 234.061 99.8787C234.003 99.7914 233.944 99.7333 233.857 99.617C232.869 98.1342 231.822 96.6805 230.688 95.2559C230.31 94.7616 229.874 94.2964 229.467 93.8312C228.653 92.8427 227.81 91.9123 226.937 90.982C226.443 90.4586 225.891 89.9644 225.397 89.4701C224.553 88.656 223.681 87.871 222.809 87.086C222.518 86.8534 222.315 86.5917 222.024 86.3591C221.733 86.1266 221.442 85.9812 221.181 85.7486C219.989 84.7891 218.709 83.9169 217.459 83.0738C217.11 82.8412 216.82 82.6086 216.471 82.376C216.325 82.2888 216.122 82.1725 215.976 82.0852C215.25 81.6491 214.523 81.2421 213.767 80.835C213.156 80.4861 212.604 80.1373 211.964 79.8174C211.761 79.7302 211.557 79.6139 211.354 79.5267C210.859 79.265 210.307 79.0615 209.784 78.7998C209.173 78.5091 208.592 78.2184 207.952 77.9567C207.574 77.8113 207.167 77.6659 206.76 77.5206C206.295 77.3171 205.8 77.1717 205.335 76.9972C204.957 76.8809 204.579 76.7065 204.201 76.5902C203.358 76.2995 202.457 76.0959 201.585 75.8343C201.323 75.7761 201.09 75.6889 200.829 75.6017C200.742 75.6017 200.683 75.5435 200.567 75.5435C199.404 75.2528 198.183 74.962 196.991 74.7876C196.729 74.7585 196.497 74.7295 196.235 74.6713C195.857 74.6132 195.479 74.5841 195.101 74.5259C194.52 74.4387 193.996 74.3224 193.415 74.2643C192.426 74.177 191.438 74.0607 190.42 74.0026C190.188 74.0026 189.984 74.0026 189.752 74.0026C188.501 73.9444 187.251 73.9444 186.03 74.0026C186.03 74.0026 186.001 74.0026 185.972 74.0026C185.768 74.0026 185.594 74.0317 185.361 74.0317C184.286 74.0898 183.21 74.1189 182.134 74.2643C182.047 74.2643 181.901 74.2933 181.814 74.3224C181.204 74.3806 180.622 74.5259 179.983 74.6132C179.314 74.7004 178.645 74.7585 178.035 74.9039C177.918 74.9039 177.773 74.962 177.657 74.9911C176.639 75.1946 175.709 75.4272 174.72 75.718C174.313 75.8052 173.906 75.9215 173.499 76.0378C173.441 76.0378 173.412 76.0669 173.354 76.0959C171.638 76.5902 170.01 77.2008 168.382 77.8985C168.237 77.9567 168.062 77.9858 167.917 78.0439C167.626 78.1602 167.393 78.3347 167.103 78.451C165.969 78.9452 164.864 79.5267 163.759 80.1373C163.323 80.3699 162.916 80.6024 162.451 80.8641C161.026 81.7073 159.602 82.6086 158.293 83.568L151.054 88.9177C152.391 87.9292 153.816 87.0279 155.211 86.2138C155.618 85.9521 156.054 85.7486 156.52 85.4869C157.624 84.8764 158.729 84.3239 159.863 83.8006C160.299 83.5971 160.735 83.3936 161.201 83.1901C162.8 82.5213 164.486 81.8817 166.172 81.3875C166.608 81.2712 167.103 81.1549 167.568 81.0386C168.556 80.7769 169.516 80.5443 170.533 80.3117C171.289 80.1663 172.074 80.05 172.859 79.9337C173.47 79.8465 174.051 79.7302 174.691 79.643C175.854 79.5267 177.017 79.4104 178.238 79.3523C178.442 79.3523 178.645 79.3232 178.849 79.3232C180.302 79.265 181.785 79.2941 183.297 79.3523C184.867 79.4395 186.437 79.6139 187.978 79.8174C188.356 79.8756 188.734 79.9047 189.112 79.9628C190.653 80.2245 192.223 80.5443 193.735 80.9223C193.996 80.9804 194.229 81.0676 194.491 81.1549C195.741 81.5037 197.02 81.8817 198.241 82.3178C198.706 82.4632 199.201 82.6667 199.666 82.8412C200.683 83.2191 201.701 83.6552 202.69 84.1495C203.213 84.4112 203.736 84.6147 204.26 84.8764C205.074 85.2834 205.859 85.7195 206.673 86.1847C207.4 86.5917 208.156 86.9988 208.882 87.4349C209.377 87.7547 209.871 88.1036 210.365 88.4525C211.615 89.2956 212.895 90.1969 214.087 91.1273C214.61 91.5634 215.191 91.9995 215.744 92.4647C216.616 93.2207 217.517 94.0057 218.331 94.8488C218.855 95.3431 219.378 95.8664 219.872 96.3607C220.745 97.2911 221.588 98.2214 222.402 99.1809C222.809 99.6461 223.216 100.14 223.623 100.606C224.728 102.001 225.774 103.455 226.763 104.938C226.821 105.025 226.879 105.141 226.967 105.228C227.984 106.798 228.915 108.485 229.816 110.171C230.048 110.607 230.223 111.101 230.455 111.537C231.153 112.962 231.764 114.387 232.316 115.869C232.607 116.625 232.898 117.41 233.13 118.195C233.392 118.98 233.654 119.795 233.886 120.609C234.177 121.626 234.41 122.644 234.642 123.632C234.758 124.214 234.904 124.737 235.02 125.319C235.34 126.889 235.602 128.488 235.747 130.087C235.747 130.174 235.747 130.319 235.747 130.407C235.892 132.122 236.009 133.837 236.038 135.611C236.038 137.675 235.921 139.71 235.689 141.716C235.689 141.978 235.631 142.211 235.602 142.443C235.369 144.188 235.107 145.874 234.729 147.56C234.7 147.793 234.642 147.967 234.613 148.2C234.206 149.915 233.683 151.573 233.13 153.23C232.985 153.666 232.81 154.102 232.636 154.567C232.171 155.788 231.647 156.98 231.095 158.173C230.833 158.696 230.63 159.248 230.339 159.743C229.903 160.586 229.38 161.429 228.885 162.243C228.362 163.115 227.839 164.046 227.228 164.889C226.298 166.255 225.338 167.563 224.292 168.814C224.146 168.959 223.972 169.133 223.856 169.308C222.867 170.442 221.82 171.547 220.745 172.593C220.425 172.913 220.076 173.233 219.756 173.524C218.506 174.658 217.198 175.792 215.802 176.809L223.042 171.459C224.437 170.442 225.716 169.337 226.996 168.174C227.345 167.854 227.664 167.534 227.984 167.244C229.06 166.197 230.107 165.092 231.095 163.958C231.24 163.813 231.415 163.638 231.531 163.464C232.403 162.388 233.305 161.283 234.09 160.15C234.206 159.946 234.351 159.743 234.468 159.539C235.078 158.696 235.573 157.765 236.125 156.893C236.503 156.254 236.91 155.701 237.259 155.062C237.375 154.829 237.491 154.625 237.579 154.393C237.869 153.899 238.073 153.346 238.335 152.823C238.654 152.125 239.003 151.485 239.323 150.788C239.556 150.293 239.701 149.741 239.905 149.247C240.05 148.811 240.253 148.374 240.399 147.909C240.515 147.56 240.66 147.241 240.777 146.892C241.184 145.7 241.533 144.42 241.853 143.199C241.853 143.112 241.882 142.996 241.911 142.909C241.969 142.705 241.998 142.502 242.027 142.298C242.231 141.426 242.434 140.495 242.608 139.623C242.725 138.838 242.841 138.024 242.928 137.181C242.928 136.919 242.986 136.687 243.016 136.425C243.016 136.28 243.045 136.134 243.074 135.989C243.19 134.797 243.277 133.547 243.335 132.326C243.335 131.657 243.364 130.988 243.335 130.348C243.335 129.738 243.335 129.185 243.306 128.575L243.045 128.488Z" fill="#0C0E12" stroke="#292C2E" stroke-miterlimit="10" stroke-linejoin="round"></path><path d="M183.122 95.6919C177.802 95.4011 172.743 96.3315 168.207 98.1632C157.77 104.182 150.85 115.491 150.879 128.837C150.937 149.334 167.335 166.866 187.571 167.883C192.891 168.174 197.95 167.244 202.486 165.412C212.923 159.394 219.843 148.084 219.814 134.739C219.756 114.241 203.358 96.7095 183.151 95.6919H183.122Z" fill="#D0F500" stroke="#292C2E" stroke-miterlimit="10" stroke-linejoin="round"></path><path opacity="0.4" d="M213.461 81.3273C213.542 81.3736 213.632 81.3955 213.723 81.393C214.122 81.6094 214.516 81.8243 214.903 82.0443L207.984 86.4517C207.61 86.2532 207.216 86.0217 206.81 85.7828L206.81 85.7828L206.805 85.7796C205.988 85.3129 205.193 84.8714 204.367 84.4582C204.095 84.3223 203.825 84.2021 203.566 84.0872L203.561 84.0851C203.298 83.9681 203.047 83.8563 202.797 83.7313C201.791 83.2284 200.757 82.7853 199.724 82.4016C199.606 82.3573 199.482 82.3095 199.354 82.2603C199.007 82.1265 198.635 81.9828 198.284 81.8727C197.053 81.4334 195.768 81.0538 194.521 80.7057C194.479 80.6916 194.435 80.6768 194.391 80.6617C194.19 80.5929 193.969 80.5176 193.734 80.4647C192.209 80.0839 190.629 79.762 189.079 79.4989L189.079 79.4989L189.072 79.4977C188.873 79.4672 188.677 79.4445 188.49 79.423L188.486 79.4225C188.296 79.4005 188.116 79.3797 187.938 79.3523L187.938 79.3522L187.927 79.3508C186.38 79.1465 184.796 78.9703 183.209 78.8821L183.209 78.882L183.2 78.8817C181.686 78.8235 180.192 78.7938 178.722 78.8523C178.606 78.8527 178.493 78.8608 178.398 78.8676L178.392 78.868C178.287 78.8755 178.203 78.8813 178.122 78.8813C178.114 78.8813 178.106 78.8815 178.098 78.8819C176.864 78.9406 175.69 79.058 174.531 79.174L174.525 79.1745C174.519 79.1751 174.513 79.1758 174.507 79.1766C174.179 79.2214 173.866 79.2735 173.565 79.3244L173.505 79.3344C173.223 79.3821 172.951 79.4281 172.672 79.4678L172.67 79.4682L172.664 79.469C171.883 79.5848 171.089 79.7024 170.323 79.8498C170.317 79.8508 170.311 79.852 170.306 79.8533C169.285 80.0866 168.321 80.3203 167.327 80.5834C167.178 80.6206 167.024 80.6584 166.868 80.6965C166.548 80.7748 166.223 80.8546 165.927 80.9334L165.927 80.9332L165.915 80.9367C164.205 81.438 162.5 82.0851 160.892 82.7578L160.891 82.7578L160.884 82.761C160.413 82.967 159.973 83.1726 159.538 83.3755L159.537 83.3757C159.537 83.3759 159.537 83.376 159.536 83.3762C159.348 83.463 159.161 83.5506 158.974 83.6391C160.123 82.8273 161.351 82.0565 162.585 81.3262C162.67 81.2781 162.753 81.2312 162.835 81.1852C163.199 80.9801 163.528 80.794 163.878 80.6075L163.878 80.6075L163.885 80.6039C164.975 80.0016 166.064 79.4566 167.212 78.94C167.382 78.8708 167.533 78.787 167.656 78.7187L167.665 78.7136C167.8 78.6388 167.904 78.5818 168.015 78.5372C168.057 78.5207 168.108 78.5061 168.194 78.4827L168.203 78.4801C168.277 78.46 168.381 78.4317 168.481 78.3918L168.481 78.392L168.492 78.3872C170.106 77.6954 171.714 77.0926 173.405 76.6054C173.434 76.597 173.463 76.5859 173.49 76.5722C173.503 76.5658 173.515 76.5595 173.525 76.5539C173.533 76.552 173.541 76.5499 173.549 76.5476C173.959 76.4305 174.35 76.319 174.738 76.2359C174.75 76.2333 174.762 76.2302 174.774 76.2267C175.749 75.9399 176.665 75.7109 177.668 75.5105C177.675 75.5089 177.683 75.5072 177.691 75.5052C177.732 75.4949 177.773 75.4827 177.805 75.4732L177.823 75.4678C177.849 75.4598 177.871 75.4534 177.892 75.4474C177.918 75.4404 177.935 75.4363 177.947 75.4341C177.95 75.4335 177.953 75.4331 177.954 75.4329C177.991 75.4324 178.027 75.4279 178.063 75.4194C178.499 75.3155 178.961 75.26 179.462 75.1997C179.624 75.1802 179.79 75.1603 179.96 75.138L179.963 75.1376C180.248 75.0988 180.522 75.0488 180.78 75.0018C180.824 74.9937 180.868 74.9858 180.911 74.978C181.212 74.9237 181.492 74.8761 181.775 74.8492C181.812 74.8456 181.849 74.8378 181.885 74.8258C181.902 74.8202 181.937 74.8108 181.979 74.8029C181.999 74.7992 182.016 74.7966 182.03 74.7949C182.042 74.7936 182.047 74.7934 182.048 74.7933C182.048 74.7933 182.048 74.7933 182.047 74.7933C182.069 74.7933 182.092 74.7918 182.114 74.7888C182.951 74.6757 183.785 74.6351 184.643 74.5932C184.856 74.5828 185.071 74.5724 185.288 74.5607C185.419 74.5601 185.532 74.5518 185.627 74.5448L185.629 74.5447C185.73 74.5372 185.805 74.5316 185.885 74.5316H185.885H185.885H185.885H185.885H185.886H185.886H185.886H185.886H185.886H185.886H185.887H185.887H185.887H185.887H185.887H185.887H185.888H185.888H185.888H185.888H185.888H185.888H185.889H185.889H185.889H185.889H185.889H185.889H185.89H185.89H185.89H185.89H185.89H185.891H185.891H185.891H185.891H185.891H185.891H185.892H185.892H185.892H185.892H185.892H185.892H185.893H185.893H185.893H185.893H185.893H185.893H185.894H185.894H185.894H185.894H185.894H185.894H185.895H185.895H185.895H185.895H185.895H185.895H185.896H185.896H185.896H185.896H185.896H185.896H185.897H185.897H185.897H185.897H185.897H185.897H185.898H185.898H185.898H185.898H185.898H185.898H185.899H185.899H185.899H185.899H185.899H185.899H185.9H185.9H185.9H185.9H185.9H185.9H185.901H185.901H185.901H185.901H185.901H185.901H185.902H185.902H185.902H185.902H185.902H185.902H185.903H185.903H185.903H185.903H185.903H185.903H185.904H185.904H185.904H185.904H185.904H185.904H185.904H185.905H185.905H185.905H185.905H185.905H185.905H185.906H185.906H185.906H185.906H185.906H185.906H185.907H185.907H185.907H185.907H185.907H185.907H185.908H185.908H185.908H185.908H185.908H185.908H185.908H185.909H185.909H185.909H185.909H185.909H185.909H185.91H185.91H185.91H185.91H185.91H185.91H185.91H185.911H185.911H185.911H185.911H185.911H185.911H185.912H185.912H185.912H185.912H185.912H185.912H185.912H185.913H185.913H185.913H185.913H185.913H185.913H185.914H185.914H185.914H185.914H185.914H185.914H185.914H185.915H185.915H185.915H185.915H185.915H185.915H185.915H185.916H185.916H185.916H185.916H185.916H185.916H185.916H185.917H185.917H185.917H185.917H185.917H185.917H185.918H185.918H185.918H185.918H185.918H185.918H185.918H185.919H185.919H185.919H185.919H185.919H185.919H185.919H185.919H185.92H185.92H185.92H185.92H185.92H185.92H185.92H185.921H185.921H185.921H185.921H185.921H185.921H185.921H185.922H185.922H185.922H185.922H185.922H185.922H185.922H185.922H185.923H185.923H185.923H185.923H185.923H185.923H185.923H185.924H185.924H185.924H185.924H185.924H185.924H185.924H185.924H185.925H185.925H185.925H185.925H185.925H185.925H185.925H185.925H185.926H185.926H185.926H185.926H185.926H185.926H185.926H185.926H185.927H185.927H185.927H185.927H185.927H185.927H185.927H185.927H185.928H185.928H185.928H185.928H185.928H185.928H185.928H185.928H185.929H185.929H185.929H185.929H185.929H185.929H185.929H185.929H185.929H185.93H185.93H185.93H185.93H185.93H185.93H185.93H185.93H185.93H185.931H185.931H185.931H185.931H185.931H185.931H185.931H185.931H185.931H185.932H185.932H185.932H185.932H185.932H185.932H185.932H185.932H185.932H185.932H185.933H185.933H185.933H185.933H185.933H185.933H185.933H185.933H185.933H185.933H185.934H185.934H185.934H185.934H185.934H185.934H185.934H185.934H185.934H185.934H185.935H185.935H185.935H185.935H185.935H185.935H185.935H185.935H185.935H185.935H185.935H185.936H185.936H185.936H185.936H185.936H185.936H185.936H185.936H185.936H185.936H185.936H185.936H185.937H185.937H185.937H185.937H185.937H185.937H185.937H185.937H185.937H185.937H185.937H185.937H185.938H185.938H185.938H185.938H185.938H185.938H185.938H185.938H185.938H185.938H185.938H185.938H185.938H185.938H185.939H185.939H185.939H185.939H185.939H185.939H185.939H185.939H185.939H185.939H185.939H185.939H185.939H185.939H185.939H185.94H185.94H185.94H185.94H185.94H185.94H185.94H185.94H185.94H185.94H185.94H185.94H185.94H185.94H185.94H185.94H185.94H185.941H185.941H185.941H185.941H185.941H185.941H185.941H185.941H185.941H185.941H185.941H185.941H185.941H185.941H185.941H185.941H185.941H185.941H185.941H185.941H185.941H185.941H185.942H185.942H185.942H185.942H185.942H185.942H185.942H185.942H185.942H185.942H185.942H185.942H185.942H185.942H185.942H185.942H185.942H185.942H185.942H185.942H185.942H185.942H185.942H185.942H185.942H185.942H185.943H185.943H185.943H185.943H185.943H185.943H185.943H185.943H185.943H185.943H185.943C185.951 74.5316 185.959 74.5315 185.967 74.5311C187.172 74.4737 188.406 74.4737 189.641 74.5311C189.649 74.5315 189.657 74.5316 189.664 74.5316H189.666H189.667H189.668H189.67H189.671H189.673H189.674H189.675H189.677H189.678H189.679H189.681H189.682H189.683H189.685H189.686H189.687H189.689H189.69H189.692H189.693H189.694H189.696H189.697H189.698H189.7H189.701H189.702H189.704H189.705H189.706H189.708H189.709H189.71H189.712H189.713H189.714H189.716H189.717H189.718H189.72H189.721H189.722H189.724H189.725H189.726H189.728H189.729H189.73H189.732H189.733H189.734H189.736H189.737H189.738H189.74H189.741H189.742H189.744H189.745H189.746H189.748H189.749H189.75H189.752H189.753H189.754H189.756H189.757H189.758H189.76H189.761H189.762H189.764H189.765H189.766H189.768H189.769H189.77H189.772H189.773H189.774H189.775H189.777H189.778H189.779H189.781H189.782H189.783H189.785H189.786H189.787H189.789H189.79H189.791H189.793H189.794H189.795H189.796H189.798H189.799H189.8H189.802H189.803H189.804H189.806H189.807H189.808H189.81H189.811H189.812H189.813H189.815H189.816H189.817H189.819H189.82H189.821H189.823H189.824H189.825H189.826H189.828H189.829H189.83H189.832H189.833H189.834H189.836H189.837H189.838H189.839H189.841H189.842H189.843H189.845H189.846H189.847H189.849H189.85H189.851H189.852H189.854H189.855H189.856H189.858H189.859H189.86H189.861H189.863H189.864H189.865H189.867H189.868H189.869H189.871H189.872H189.873H189.874H189.876H189.877H189.878H189.88H189.881H189.882H189.883H189.885H189.886H189.887H189.889H189.89H189.891H189.892H189.894H189.895H189.896H189.898H189.899H189.9H189.901H189.903H189.904H189.905H189.907H189.908H189.909H189.91H189.912H189.913H189.914H189.916H189.917H189.918H189.919H189.921H189.922H189.923H189.925H189.926H189.927H189.928H189.93H189.931H189.932H189.934H189.935H189.936H189.937H189.939H189.94H189.941H189.942H189.944H189.945H189.946H189.948H189.949H189.95H189.951H189.953H189.954H189.955H189.957H189.958H189.959H189.96H189.962H189.963H189.964H189.966H189.967H189.968H189.969H189.971H189.972H189.973H189.974H189.976H189.977H189.978H189.98H189.981H189.982H189.983H189.985H189.986H189.987H189.989H189.99H189.991H189.992H189.994H189.995H189.996H189.997H189.999H190H190.001H190.003H190.004H190.005H190.006H190.008H190.009H190.01H190.012H190.013H190.014H190.015H190.017H190.018H190.019H190.02H190.022H190.023H190.024H190.026H190.027H190.028H190.029H190.031H190.032H190.033H190.035H190.036H190.037H190.038H190.04H190.041H190.042H190.043H190.045H190.046H190.047H190.049H190.05H190.051H190.052H190.054H190.055H190.056H190.058H190.059H190.06H190.061H190.063H190.064H190.065H190.067H190.068H190.069H190.07H190.072H190.073H190.074H190.075H190.077H190.078H190.079H190.081H190.082H190.083H190.084H190.086H190.087H190.088H190.09H190.091H190.092H190.093H190.095H190.096H190.097H190.099H190.1H190.101H190.102H190.104H190.105H190.106H190.108H190.109H190.11H190.111H190.113H190.114H190.115H190.117H190.118H190.119H190.12H190.122H190.123H190.124H190.126H190.127H190.128H190.13H190.131H190.132H190.133H190.135H190.136H190.137H190.139H190.14H190.141H190.142H190.144H190.145H190.146H190.148H190.149H190.15H190.152H190.153H190.154H190.155H190.157H190.158H190.159H190.161H190.162H190.163H190.164H190.166H190.167H190.168H190.17H190.171H190.172H190.174H190.175H190.176H190.177H190.179H190.18H190.181H190.183H190.184H190.185H190.187H190.188H190.189H190.191H190.192H190.193H190.194H190.196H190.197H190.198H190.2H190.201H190.202H190.204H190.205H190.206H190.208H190.209H190.21H190.212H190.213H190.214H190.215H190.217H190.218H190.219H190.221H190.222H190.223H190.225H190.226H190.227H190.229H190.23H190.231H190.233H190.234H190.235H190.237H190.238H190.239H190.24H190.242H190.243H190.244H190.246H190.247H190.248H190.25H190.251H190.252H190.254H190.255H190.256H190.258H190.259H190.26H190.262H190.263H190.264H190.266H190.267H190.268H190.27H190.271H190.272H190.274H190.275H190.276H190.278H190.279H190.28H190.282H190.283H190.284H190.286H190.287H190.288H190.29H190.291H190.292H190.294H190.295H190.297H190.298H190.299H190.301H190.302H190.303H190.305H190.306H190.307H190.309H190.31H190.311H190.313H190.314H190.315H190.317H190.318H190.319C190.993 74.5705 191.647 74.6345 192.308 74.6991C192.629 74.7305 192.953 74.7621 193.281 74.7911C193.634 74.8266 193.946 74.8812 194.282 74.9401C194.487 74.9761 194.701 75.0136 194.94 75.0495C194.952 75.0512 194.964 75.0526 194.976 75.0535C195.327 75.0805 195.681 75.1344 196.056 75.1921C196.194 75.2223 196.33 75.2449 196.453 75.2653L196.458 75.2662C196.591 75.2884 196.709 75.3081 196.824 75.3338C196.836 75.3365 196.848 75.3387 196.861 75.3405C198.026 75.511 199.226 75.7962 200.388 76.0867C200.418 76.0943 200.449 76.0991 200.481 76.1008L200.484 76.1022C200.498 76.1075 200.537 76.1216 200.575 76.1323C200.601 76.1395 200.631 76.1466 200.665 76.1518C200.694 76.1616 200.724 76.1717 200.754 76.182C200.952 76.2496 201.168 76.3236 201.4 76.3764C201.765 76.4855 202.115 76.5799 202.456 76.672C202.976 76.8122 203.476 76.9472 203.98 77.121L203.996 77.1262C204.166 77.1784 204.339 77.2447 204.531 77.3185L204.538 77.3214C204.718 77.3905 204.915 77.4663 205.116 77.5287C205.308 77.6007 205.488 77.6626 205.662 77.7223C205.95 77.821 206.22 77.9138 206.501 78.0368C206.512 78.0414 206.523 78.0457 206.534 78.0496C206.94 78.1947 207.34 78.3374 207.71 78.4796C208.206 78.683 208.664 78.9032 209.145 79.1343C209.264 79.1914 209.384 79.2491 209.506 79.3074C209.757 79.4325 210.013 79.5447 210.254 79.65C210.276 79.6598 210.299 79.6696 210.321 79.6793C210.587 79.796 210.833 79.9056 211.062 80.0267C211.074 80.0331 211.086 80.039 211.099 80.0444C211.185 80.0812 211.273 80.1253 211.377 80.1774L211.383 80.1803C211.477 80.2273 211.585 80.2811 211.695 80.329C212.123 80.5436 212.502 80.7668 212.905 81.0034C213.083 81.1086 213.267 81.2164 213.461 81.3273Z" fill="#0C0E12" stroke="#292C2E" stroke-linejoin="round"></path><path d="M243.045 128.488C243.016 127.354 242.928 126.22 242.783 125.086C242.783 124.97 242.783 124.853 242.783 124.737C242.783 124.737 242.783 124.679 242.783 124.65C242.667 123.283 242.434 121.975 242.201 120.638C242.172 120.405 242.114 120.202 242.056 119.969C241.969 119.387 241.794 118.864 241.678 118.283C241.533 117.614 241.387 116.916 241.242 116.306C241.155 115.957 241.009 115.608 240.922 115.259C240.69 114.445 240.457 113.66 240.166 112.846C240.021 112.352 239.875 111.828 239.701 111.334C239.614 111.043 239.439 110.811 239.352 110.52C238.771 109.037 238.16 107.612 237.491 106.188C237.346 105.839 237.201 105.49 237.055 105.141C236.997 105.054 236.939 104.938 236.91 104.821C236.067 103.135 235.107 101.478 234.061 99.8787C234.003 99.7914 233.944 99.7333 233.857 99.617C232.869 98.1342 231.822 96.6805 230.688 95.2559C230.31 94.7616 229.874 94.2964 229.467 93.8312C228.653 92.8427 227.81 91.9123 226.937 90.982C226.443 90.4586 225.891 89.9644 225.397 89.4701C224.553 88.656 223.681 87.871 222.809 87.086C222.518 86.8534 222.315 86.5917 222.024 86.3591C221.733 86.1266 221.442 85.9812 221.181 85.7486C219.989 84.7891 218.709 83.9169 217.459 83.0738C217.11 82.8412 216.82 82.6086 216.471 82.376C216.325 82.2888 216.122 82.1725 215.976 82.0852C215.25 81.6491 214.523 81.2421 213.767 80.835C213.156 80.4861 212.604 80.1373 211.964 79.8174C211.761 79.7302 211.557 79.6139 211.354 79.5267C210.859 79.265 210.307 79.0615 209.784 78.7998C209.173 78.5091 208.592 78.2184 207.952 77.9567C207.574 77.8113 207.167 77.6659 206.76 77.5206C206.295 77.3171 205.8 77.1717 205.335 76.9972C204.957 76.8809 204.579 76.7065 204.201 76.5902C203.358 76.2995 202.457 76.0959 201.585 75.8343C201.323 75.7761 201.09 75.6889 200.829 75.6017C200.742 75.6017 200.683 75.5435 200.567 75.5435C199.404 75.2528 198.183 74.962 196.991 74.7876C196.729 74.7585 196.497 74.7295 196.235 74.6713C195.857 74.6132 195.479 74.5841 195.101 74.5259C194.52 74.4387 193.996 74.3224 193.415 74.2643C192.426 74.177 191.438 74.0607 190.42 74.0026C190.188 74.0026 189.984 74.0026 189.752 74.0026C188.501 73.9444 187.251 73.9444 186.03 74.0026C186.03 74.0026 186.001 74.0026 185.972 74.0026C185.768 74.0026 185.594 74.0317 185.361 74.0317C184.286 74.0898 183.21 74.1189 182.134 74.2643C182.047 74.2643 181.901 74.2933 181.814 74.3224C181.204 74.3806 180.622 74.5259 179.983 74.6132C179.314 74.7004 178.645 74.7585 178.035 74.9039C177.918 74.9039 177.773 74.962 177.657 74.9911C176.639 75.1946 175.709 75.4272 174.72 75.718C174.313 75.8052 173.906 75.9215 173.499 76.0378C173.441 76.0378 173.412 76.0669 173.354 76.0959C171.638 76.5902 170.01 77.2008 168.382 77.8985C168.237 77.9567 168.062 77.9858 167.917 78.0439C167.626 78.1602 167.393 78.3347 167.103 78.451C165.969 78.9452 164.864 79.5267 163.759 80.1373C163.323 80.3699 162.916 80.6024 162.451 80.8641C161.026 81.7073 159.602 82.6086 158.293 83.568L151.054 88.9177C152.391 87.9292 153.816 87.0279 155.211 86.2138C155.618 85.9521 156.054 85.7486 156.52 85.4869C157.624 84.8764 158.729 84.3239 159.863 83.8006C160.299 83.5971 160.735 83.3936 161.201 83.1901C162.8 82.5213 164.486 81.8817 166.172 81.3875C166.608 81.2712 167.103 81.1549 167.568 81.0386C168.556 80.7769 169.516 80.5443 170.533 80.3117C171.289 80.1663 172.074 80.05 172.859 79.9337C173.47 79.8465 174.051 79.7302 174.691 79.643C175.854 79.5267 177.017 79.4104 178.238 79.3523C178.442 79.3523 178.645 79.3232 178.849 79.3232C180.302 79.265 181.785 79.2941 183.297 79.3523C184.867 79.4395 186.437 79.6139 187.978 79.8174C188.356 79.8756 188.734 79.9047 189.112 79.9628C190.653 80.2245 192.223 80.5443 193.735 80.9223C193.996 80.9804 194.229 81.0676 194.491 81.1549C195.741 81.5037 197.02 81.8817 198.241 82.3178C198.706 82.4632 199.201 82.6667 199.666 82.8412C200.683 83.2191 201.701 83.6552 202.69 84.1495C203.213 84.4112 203.736 84.6147 204.26 84.8764C205.074 85.2834 205.859 85.7195 206.673 86.1847C207.4 86.5917 208.156 86.9988 208.882 87.4349C209.377 87.7547 209.871 88.1036 210.365 88.4525C211.615 89.2956 212.895 90.1969 214.087 91.1273C214.61 91.5634 215.191 91.9995 215.744 92.4647C216.616 93.2207 217.517 94.0057 218.331 94.8488C218.855 95.3431 219.378 95.8664 219.872 96.3607C220.745 97.2911 221.588 98.2214 222.402 99.1809C222.809 99.6461 223.216 100.14 223.623 100.606C224.728 102.001 225.774 103.455 226.763 104.938C226.821 105.025 226.879 105.141 226.967 105.228C227.984 106.798 228.915 108.485 229.816 110.171C230.048 110.607 230.223 111.101 230.455 111.537C231.153 112.962 231.764 114.387 232.316 115.869C232.607 116.625 232.898 117.41 233.13 118.195C233.392 118.98 233.654 119.795 233.886 120.609C234.177 121.626 234.41 122.644 234.642 123.632C234.758 124.214 234.904 124.737 235.02 125.319C235.34 126.889 235.602 128.488 235.747 130.087C235.747 130.174 235.747 130.319 235.747 130.407C235.892 132.122 236.009 133.837 236.038 135.611C236.038 137.675 235.921 139.71 235.689 141.716C235.689 141.978 235.631 142.211 235.602 142.443C235.369 144.188 235.107 145.874 234.729 147.56C234.7 147.793 234.642 147.967 234.613 148.2C234.206 149.915 233.683 151.573 233.13 153.23C232.985 153.666 232.81 154.102 232.636 154.567C232.171 155.788 231.647 156.98 231.095 158.173C230.833 158.696 230.63 159.248 230.339 159.743C229.903 160.586 229.38 161.429 228.885 162.243C228.362 163.115 227.839 164.046 227.228 164.889C226.298 166.255 225.338 167.563 224.292 168.814C224.146 168.959 223.972 169.133 223.856 169.308C222.867 170.442 221.82 171.547 220.745 172.593C220.425 172.913 220.076 173.233 219.756 173.524C218.506 174.658 217.198 175.792 215.802 176.809L223.042 171.459C224.437 170.442 225.716 169.337 226.996 168.174C227.345 167.854 227.664 167.534 227.984 167.244C229.06 166.197 230.107 165.092 231.095 163.958C231.24 163.813 231.415 163.638 231.531 163.464C232.403 162.388 233.305 161.283 234.09 160.15C234.206 159.946 234.351 159.743 234.468 159.539C235.078 158.696 235.573 157.765 236.125 156.893C236.503 156.254 236.91 155.701 237.259 155.062C237.375 154.829 237.491 154.625 237.579 154.393C237.869 153.899 238.073 153.346 238.335 152.823C238.654 152.125 239.003 151.485 239.323 150.788C239.556 150.293 239.701 149.741 239.905 149.247C240.05 148.811 240.253 148.374 240.399 147.909C240.515 147.56 240.66 147.241 240.777 146.892C241.184 145.7 241.533 144.42 241.853 143.199C241.853 143.112 241.882 142.996 241.911 142.909C241.969 142.705 241.998 142.502 242.027 142.298C242.231 141.426 242.434 140.495 242.608 139.623C242.725 138.838 242.841 138.024 242.928 137.181C242.928 136.919 242.986 136.687 243.016 136.425C243.016 136.28 243.045 136.134 243.074 135.989C243.19 134.797 243.277 133.547 243.335 132.326C243.335 131.657 243.364 130.988 243.335 130.348C243.335 129.738 243.335 129.185 243.306 128.575L243.045 128.488Z" fill="black" stroke="#292C2E" stroke-miterlimit="10" stroke-linejoin="round"></path><path d="M183.065 79.4104C212.139 80.9223 235.747 106.101 235.805 135.611C235.892 165.121 212.4 187.799 183.326 186.287C154.281 184.775 130.644 159.626 130.586 130.087C130.527 100.606 153.99 77.8986 183.065 79.4104ZM183.297 169.977C203.504 171.052 219.843 155.294 219.756 134.739C219.698 114.241 203.3 96.7096 183.094 95.692C162.887 94.6163 146.547 110.374 146.635 130.93C146.693 151.427 163.091 168.93 183.297 169.977Z" fill="#D0F500" stroke="#292C2E" stroke-miterlimit="10" stroke-linejoin="round"></path><path d="M197.542 132.006C199.781 134.215 200.799 137.326 200.799 141.077C200.799 148.346 195.565 152.503 188.239 153.056V153.87V158.463L182.337 158.144V153.55V152.968C176.754 152.474 172.393 150.788 168.584 146.746V146.601L173.672 141.658H173.818C176.086 144.072 179.109 145.206 182.278 145.554V134.739L181.145 134.506C177.627 133.838 174.835 132.384 173.062 130.523C171.085 128.372 170.067 125.668 170.038 122.121C170.038 115.259 174.545 110.462 182.191 110.026V105.316L188.093 105.635V110.316C192.832 110.84 196.467 112.526 199.636 115.782L194.548 120.667C192.774 118.864 190.332 117.992 188.122 117.556V127.965L189.547 128.284C193.327 129.04 195.74 130.261 197.513 132.035V132.006H197.542ZM188.21 145.613C191.204 145.176 192.803 143.519 192.803 140.873C192.803 139.42 192.396 138.111 191.495 137.239C190.536 136.251 189.373 135.902 188.181 135.669V145.642M182.249 127.005V117.411C179.342 117.905 177.888 119.882 177.888 122.237C177.888 123.342 178.266 124.447 179.109 125.348C179.923 126.075 180.941 126.656 182.249 127.005Z" fill="black"></path></g><defs><filter id="filter0_b_1_38011" x="84.0244" y="145.338" width="195.811" height="157.491" filterUnits="userSpaceOnUse" color-interpolation-filters="sRGB"><feFlood flood-opacity="0" result="BackgroundImageFix"></feFlood><feGaussianBlur in="BackgroundImageFix" stdDeviation="15.5"></feGaussianBlur><feComposite in2="SourceAlpha" operator="in" result="effect1_backgroundBlur_1_38011"></feComposite><feBlend mode="normal" in="SourceGraphic" in2="effect1_backgroundBlur_1_38011" result="shape"></feBlend></filter></defs></svg>