<svg width="100" height="100" viewBox="0 0 100 100" fill="none" xmlns="http://www.w3.org/2000/svg" class="wh-100px"><path d="M25.2258 81.6986C23.4615 81.6926 21.7713 80.9884 20.5247 79.7398C19.9023 79.1257 19.4085 78.3936 19.0722 77.5864C18.7359 76.7793 18.5638 75.9132 18.5659 75.0388V28.5764C18.5701 26.8099 19.2726 25.1167 20.5202 23.8662C21.7678 22.6156 23.4593 21.9091 25.2258 21.9009H71.6725C72.5465 21.9013 73.4118 22.0746 74.2187 22.4108C75.0255 22.7469 75.7578 23.2393 76.3736 23.8597C77.6163 25.1101 78.3195 26.7978 78.3323 28.5607V75.0074C78.3282 76.7766 77.6236 78.4722 76.3725 79.7232C75.1215 80.9742 73.426 81.6788 71.6568 81.683L25.2258 81.6986ZM25.2258 25.2857C24.3585 25.2939 23.5278 25.6363 22.9066 26.2415C22.2957 26.859 21.9523 27.6921 21.9507 28.5607V75.0074C21.9507 75.4375 22.0354 75.8634 22.2 76.2607C22.3646 76.6581 22.6058 77.0191 22.91 77.3232C23.2141 77.6274 23.5751 77.8686 23.9725 78.0332C24.3698 78.1978 24.7957 78.2825 25.2258 78.2825H71.6725C72.1018 78.2825 72.5269 78.1977 72.9234 78.0329C73.3199 77.8681 73.6799 77.6266 73.9828 77.3223C74.2857 77.018 74.5254 76.6568 74.6883 76.2596C74.8512 75.8623 74.934 75.4368 74.9319 75.0074V28.5764C74.9303 27.7078 74.5869 26.8747 73.976 26.2572C73.3652 25.6458 72.5367 25.302 71.6725 25.3013L25.2258 25.2857Z" fill="black"></path><path d="M41.4746 69.7735C41.0331 69.7693 40.6089 69.6019 40.2836 69.3034L30.8815 59.9012C30.7261 59.7445 30.6032 59.5586 30.5198 59.3542C30.4365 59.1498 30.3943 58.931 30.3957 58.7103C30.3921 58.2598 30.5667 57.8261 30.8815 57.5037C31.0353 57.3405 31.2223 57.2123 31.4299 57.1276C31.8527 56.9601 32.3235 56.9601 32.7462 57.1276C32.9498 57.2197 33.1354 57.347 33.2947 57.5037L42.6968 66.9058C42.9979 67.2295 43.1658 67.6548 43.167 68.0968C43.1663 68.3186 43.1216 68.5381 43.0356 68.7425C42.9495 68.9469 42.8237 69.1323 42.6655 69.2877C42.5141 69.4512 42.3295 69.5805 42.1241 69.6669C41.9188 69.7534 41.6973 69.7951 41.4746 69.7892V69.7735ZM53.3996 69.2564C52.9491 69.2599 52.5154 69.0853 52.193 68.7706C51.8768 68.4479 51.6972 68.0157 51.6916 67.564C51.6939 67.1116 51.874 66.6782 52.193 66.3574C52.3574 66.2011 52.5521 66.0802 52.765 66.002C52.9779 65.9239 53.2045 65.8902 53.431 65.903H66.7037C66.9283 65.9006 67.151 65.9439 67.3584 66.03C67.5658 66.1162 67.7535 66.2436 67.9103 66.4044C68.2293 66.7252 68.4094 67.1586 68.4118 67.611C68.4061 68.0628 68.2265 68.495 67.9103 68.8176C67.5879 69.1323 67.1542 69.3069 66.7037 69.3034L53.3996 69.2564ZM53.3996 60.1363C53.1751 60.1386 52.9523 60.0954 52.745 60.0092C52.5376 59.923 52.3498 59.7957 52.193 59.6348C51.874 59.314 51.6939 58.8807 51.6916 58.4282C51.7004 57.9771 51.8795 57.5461 52.193 57.2216C52.5154 56.9069 52.9491 56.7323 53.3996 56.7358H66.6724C67.1229 56.7323 67.5566 56.9069 67.879 57.2216C68.1925 57.5461 68.3716 57.9771 68.3804 58.4282C68.3781 58.8807 68.198 59.314 67.879 59.6348C67.7222 59.7957 67.5344 59.923 67.327 60.0092C67.1196 60.0954 66.8969 60.1386 66.6724 60.1363H53.3996ZM53.3996 42.3035C53.1751 42.3059 52.9523 42.2626 52.745 42.1764C52.5376 42.0902 52.3498 41.9629 52.193 41.8021C52.0334 41.6459 51.9065 41.4594 51.8199 41.2536C51.7332 41.0477 51.6886 40.8266 51.6886 40.6033C51.6886 40.38 51.7332 40.1589 51.8199 39.953C51.9065 39.7472 52.0334 39.5607 52.193 39.4045C52.3498 39.2437 52.5376 39.1164 52.745 39.0302C52.9523 38.944 53.1751 38.9007 53.3996 38.9031H66.6724C66.8969 38.9007 67.1196 38.944 67.327 39.0302C67.5344 39.1164 67.7222 39.2437 67.879 39.4045C68.0387 39.5607 68.1655 39.7472 68.2521 39.953C68.3387 40.1589 68.3834 40.38 68.3834 40.6033C68.3834 40.8266 68.3387 41.0477 68.2521 41.2536C68.1655 41.4594 68.0387 41.6459 67.879 41.8021C67.7222 41.9629 67.5344 42.0902 67.327 42.1764C67.1196 42.2626 66.8969 42.3059 66.6724 42.3035H53.3996ZM30.1763 41.8961C29.7233 41.8961 29.2888 41.7161 28.9685 41.3958C28.6482 41.0755 28.4683 40.641 28.4683 40.188C28.4683 39.735 28.6482 39.3006 28.9685 38.9803C29.2888 38.6599 29.7233 38.48 30.1763 38.48H43.449C43.902 38.48 44.3365 38.6599 44.6568 38.9803C44.9771 39.3006 45.1571 39.735 45.1571 40.188C45.1571 40.641 44.9771 41.0755 44.6568 41.3958C44.3365 41.7161 43.902 41.8961 43.449 41.8961H30.1763Z" fill="black"></path><path d="M32.0899 69.8362C31.8699 69.834 31.6521 69.7915 31.4474 69.7108C31.231 69.6343 31.0371 69.5051 30.8833 69.3347C30.7266 69.1755 30.5993 68.9898 30.5072 68.7863C30.4265 68.5707 30.384 68.3426 30.3818 68.1124C30.3829 67.8907 30.431 67.6717 30.5229 67.47C30.6107 67.2595 30.7384 67.0679 30.899 66.9058L40.3011 57.5037C40.6219 57.1847 41.0553 57.0045 41.5077 57.0022C41.7322 57.0008 41.9546 57.0444 42.1619 57.1306C42.3692 57.2167 42.557 57.3436 42.7144 57.5037C42.997 57.8176 43.1534 58.2252 43.1531 58.6476C43.1525 58.8694 43.1078 59.0889 43.0217 59.2933C42.9357 59.4978 42.8099 59.6831 42.6517 59.8385L33.2495 69.2407C33.0905 69.4088 32.8984 69.5422 32.6854 69.6325C32.4788 69.7266 32.2542 69.7747 32.0272 69.7735L32.0899 69.8362ZM36.791 48.5246C36.3407 48.5205 35.9103 48.3387 35.5933 48.0188C35.2764 47.699 35.0986 47.2669 35.0986 46.8166V33.5595C35.0963 33.3349 35.1395 33.1122 35.2257 32.9048C35.3119 32.6974 35.4392 32.5097 35.6 32.3529C35.8397 32.1198 36.1424 31.9621 36.4708 31.8994C36.7992 31.8368 37.1388 31.8718 37.4474 32.0003C37.7561 32.1287 38.0202 32.345 38.2072 32.6221C38.3941 32.8993 38.4956 33.2252 38.499 33.5595V46.8166C38.499 47.2696 38.3191 47.704 37.9988 48.0243C37.6784 48.3447 37.244 48.5246 36.791 48.5246Z" fill="black"></path></svg>