<svg width="394" height="328" viewBox="0 0 394 328" fill="none" xmlns="http://www.w3.org/2000/svg"><g clip-path="url(#clip0_1_38066)"><rect width="394" height="328" fill="white"></rect><g clip-path="url(#clip1_1_38066)"><rect width="394" height="328" fill="white"></rect><path d="M2.5 -17L153.5 86.5V219L0 328.5" stroke="#EAEAED"></path><path d="M0 41L153.5 113" stroke="#EAEAED"></path><path d="M0 96L153.5 130.5" stroke="#EAEAED"></path><path d="M0 153.5H153.5M0 211.5L153.5 174" stroke="#EAEAED"></path><path d="M0 267L153.5 196.5M138.5 76.5V229.696" stroke="#EAEAED"></path><path d="M120.5 64V242" stroke="#EAEAED"></path><path d="M93 45.5V262" stroke="#EAEAED"></path><path d="M52.5 17.5V291" stroke="#EAEAED"></path><path d="M53 291H342" stroke="#EAEAED"></path><path d="M94 262H302" stroke="#EAEAED"></path><path d="M121 242L275 242" stroke="#EAEAED"></path><path d="M0 328L394 328" stroke="#EAEAED"></path><path d="M391.5 -17L240.5 86.5V219L394 328.5" stroke="#EAEAED"></path><path d="M394 41L240.5 113" stroke="#EAEAED"></path><path d="M394 96L240.5 130.5" stroke="#EAEAED"></path><path d="M394 153.5H240.5M394 211.5L240.5 174" stroke="#EAEAED"></path><path d="M394 267L240.5 196.5M255.5 76.5V229.696" stroke="#EAEAED"></path><path d="M197 327L197 219" stroke="#EAEAED"></path><path d="M154 219H241" stroke="#EAEAED"></path><path d="M293 328L218 219" stroke="#EAEAED"></path><path d="M95 328L175 219" stroke="#EAEAED"></path><path d="M273.5 64V242" stroke="#EAEAED"></path><path d="M301 45.5V262" stroke="#EAEAED"></path><path d="M341.5 17.5V291" stroke="#EAEAED"></path></g><path d="M269.618 182.05C269.618 181.424 269.646 180.772 269.646 180.147C269.646 179.467 269.646 178.76 269.646 178.081C269.618 176.749 269.564 175.389 269.428 174.084C269.428 173.921 269.401 173.731 269.374 173.595C269.374 173.296 269.319 172.997 269.292 172.698C269.211 171.801 269.102 170.877 268.993 169.979C268.857 169.11 268.667 168.24 268.531 167.315C268.477 166.935 268.395 166.554 268.341 166.201C268.313 166.01 268.286 165.793 268.259 165.603C267.96 164.053 267.579 162.476 267.144 160.954C267.09 160.764 267.009 160.573 266.954 160.383C266.791 159.812 266.601 159.269 266.41 158.698C266.111 157.719 265.84 156.768 265.513 155.789C265.377 155.408 265.214 155.028 265.078 154.674C264.698 153.668 264.29 152.663 263.855 151.711C263.583 151.059 263.366 150.379 263.04 149.699C262.822 149.237 262.577 148.802 262.36 148.313C262.088 147.715 261.762 147.117 261.463 146.519C260.783 145.214 260.049 143.882 259.315 142.631C259.043 142.142 258.744 141.625 258.445 141.163C258.309 140.973 258.228 140.755 258.092 140.565C257.195 139.124 256.216 137.711 255.183 136.351C254.938 135.998 254.694 135.699 254.422 135.373C253.416 134.041 252.356 132.736 251.268 131.458C250.996 131.159 250.697 130.806 250.426 130.479C249.257 129.202 248.088 127.924 246.864 126.728C246.701 126.565 246.565 126.456 246.429 126.32C246.049 125.94 245.641 125.613 245.233 125.233C244.146 124.2 243.004 123.221 241.862 122.27C241.373 121.862 240.829 121.454 240.34 121.046C239.932 120.747 239.524 120.394 239.117 120.068C238.546 119.66 237.948 119.279 237.377 118.871C236.507 118.246 235.637 117.648 234.74 117.077C234.386 116.86 234.087 116.615 233.707 116.398C232.891 115.908 232.048 115.473 231.206 114.984C230.662 114.685 230.145 114.359 229.575 114.087C229.384 114.005 229.194 113.869 229.004 113.788C227.59 113.081 226.149 112.374 224.736 111.722C224.573 111.667 224.464 111.586 224.301 111.531C223.974 111.395 223.675 111.287 223.376 111.151C222.506 110.77 221.582 110.39 220.685 110.091C219.924 109.819 219.163 109.601 218.401 109.329C218.102 109.248 217.749 109.112 217.423 109.03C217.205 108.976 217.015 108.867 216.798 108.813C215.547 108.432 214.269 108.106 212.992 107.78C212.584 107.698 212.203 107.617 211.795 107.535C211.415 107.454 211.089 107.372 210.708 107.318C210.219 107.236 209.702 107.1 209.186 107.019C207.908 106.801 206.657 106.611 205.353 106.448C205.108 106.448 204.863 106.393 204.591 106.366C203.531 106.23 202.471 106.176 201.438 106.122C200.758 106.094 200.024 106.094 199.345 106.067C198.964 106.067 198.556 106.067 198.176 106.067C197.958 106.067 197.714 106.067 197.496 106.067C196.164 106.067 194.805 106.122 193.5 106.23C193.337 106.23 193.228 106.257 193.092 106.257C192.711 106.257 192.331 106.339 191.923 106.393C191.053 106.475 190.129 106.556 189.286 106.665C188.851 106.72 188.443 106.828 188.008 106.883C187.383 106.964 186.758 107.1 186.16 107.236C185.698 107.318 185.236 107.399 184.746 107.481C184.175 107.617 183.659 107.78 183.088 107.916C182.3 108.106 181.538 108.324 180.75 108.541C180.397 108.623 180.07 108.704 179.717 108.813C179.282 108.949 178.874 109.166 178.439 109.275C177.162 109.71 175.911 110.172 174.688 110.716C174.307 110.879 173.872 110.988 173.492 111.151C173.193 111.287 172.921 111.45 172.622 111.586C171.344 112.184 170.121 112.836 168.897 113.516C168.326 113.815 167.783 114.114 167.212 114.44C165.499 115.473 163.814 116.588 162.21 117.811L143.207 132.246C144.811 131.023 146.497 129.936 148.209 128.876C148.753 128.522 149.324 128.25 149.895 127.951C151.118 127.272 152.341 126.619 153.619 126.021C154.299 125.722 155.006 125.423 155.685 125.124C156.909 124.58 158.186 124.118 159.437 123.683C160.198 123.438 160.959 123.139 161.748 122.922C162.536 122.704 163.297 122.487 164.085 122.297C165.119 122.052 166.124 121.807 167.185 121.617C167.81 121.481 168.408 121.4 169.033 121.264C170.311 121.046 171.616 120.883 172.948 120.774C173.328 120.747 173.709 120.693 174.117 120.638C175.802 120.502 177.515 120.448 179.228 120.448C179.608 120.448 180.016 120.448 180.397 120.448C182.109 120.475 183.876 120.584 185.643 120.747C187.709 120.965 189.748 121.318 191.733 121.726C192.113 121.78 192.44 121.889 192.82 121.943C194.723 122.351 196.599 122.84 198.448 123.411C198.747 123.493 199.1 123.629 199.426 123.738C201.112 124.308 202.77 124.906 204.401 125.586C204.7 125.722 205.026 125.831 205.298 125.967C207.12 126.755 208.859 127.598 210.572 128.495C211.143 128.767 211.66 129.12 212.203 129.392C213.399 130.044 214.568 130.778 215.737 131.485C216.634 132.056 217.477 132.681 218.374 133.28C219.38 133.959 220.386 134.693 221.337 135.427C221.881 135.835 222.371 136.243 222.86 136.65C224.029 137.575 225.143 138.581 226.231 139.614C226.639 139.994 227.046 140.32 227.427 140.701C228.813 142.033 230.145 143.42 231.423 144.86C231.695 145.159 231.994 145.513 232.266 145.839C233.353 147.09 234.414 148.394 235.419 149.754C235.664 150.053 235.909 150.379 236.181 150.732C237.35 152.282 238.41 153.886 239.443 155.544C239.742 156.006 240.014 156.523 240.313 157.012C241.074 158.29 241.781 159.568 242.46 160.9C242.759 161.498 243.058 162.096 243.357 162.694C243.901 163.781 244.363 164.95 244.853 166.065C245.26 167.043 245.695 168.022 246.076 169.028C246.565 170.333 247 171.692 247.462 173.051C247.653 173.622 247.843 174.166 248.006 174.737C248.55 176.64 249.012 178.57 249.393 180.555C249.447 180.935 249.529 181.316 249.583 181.669C249.882 183.463 250.154 185.23 250.344 187.025C250.371 187.351 250.398 187.623 250.426 187.922C250.616 190.097 250.725 192.299 250.697 194.528C250.697 195.452 250.643 196.403 250.616 197.328C250.616 198.007 250.562 198.66 250.48 199.339C250.453 199.938 250.398 200.536 250.317 201.134C250.263 201.813 250.154 202.466 250.072 203.145C250.018 203.716 249.909 204.314 249.828 204.858C249.692 205.565 249.583 206.272 249.447 206.979C249.365 207.522 249.229 208.039 249.148 208.582C248.958 209.371 248.767 210.132 248.577 210.92C248.441 211.383 248.36 211.817 248.196 212.307C247.843 213.53 247.49 214.699 247.082 215.868C247.082 215.922 247.055 216.004 247.027 216.031C246.565 217.336 246.022 218.614 245.505 219.864C245.342 220.218 245.179 220.517 245.07 220.843C244.499 222.093 243.874 223.344 243.222 224.567C243.14 224.758 243.004 224.975 242.895 225.165C241.862 227.014 240.748 228.754 239.552 230.439C239.416 230.602 239.334 230.766 239.252 230.901C238.464 231.962 237.703 232.995 236.86 234.001C236.67 234.218 236.452 234.436 236.262 234.653C235.61 235.441 234.93 236.175 234.196 236.937C233.924 237.236 233.598 237.562 233.299 237.834C232.646 238.486 231.967 239.139 231.26 239.764C230.988 240.036 230.662 240.308 230.39 240.579C229.411 241.422 228.433 242.265 227.373 243.053L246.375 228.618C247.408 227.83 248.414 226.987 249.393 226.144C249.692 225.899 249.991 225.6 250.262 225.329C250.942 224.703 251.649 224.051 252.301 223.398C252.6 223.099 252.899 222.8 253.198 222.501C253.905 221.74 254.585 221.006 255.265 220.218C255.455 220 255.672 219.783 255.863 219.565C256.705 218.559 257.494 217.526 258.255 216.466C258.282 216.412 258.336 216.33 258.418 216.276C258.472 216.194 258.554 216.086 258.608 216.004C259.804 214.319 260.919 212.579 261.952 210.73C261.952 210.676 262.006 210.649 262.034 210.594C262.115 210.431 262.197 210.295 262.251 210.132C262.904 208.909 263.529 207.685 264.1 206.408C264.181 206.217 264.29 206.027 264.372 205.837C264.426 205.701 264.453 205.565 264.535 205.429C265.106 204.178 265.595 202.901 266.057 201.596C266.057 201.541 266.057 201.514 266.111 201.433C266.519 200.237 266.9 199.068 267.226 197.844C267.226 197.763 267.28 197.627 267.308 197.518C267.389 197.165 267.471 196.838 267.552 196.485C267.77 195.697 267.96 194.935 268.15 194.147C268.178 193.957 268.232 193.794 268.286 193.603C268.341 193.25 268.422 192.897 268.477 192.543C268.612 191.864 268.748 191.13 268.857 190.423C268.884 190.178 268.939 189.961 268.993 189.743C269.047 189.39 269.047 189.063 269.129 188.737C269.211 188.085 269.292 187.405 269.374 186.726C269.374 186.454 269.428 186.182 269.455 185.91C269.455 185.611 269.482 185.258 269.51 184.931C269.564 184.279 269.591 183.599 269.646 182.92C269.646 182.621 269.673 182.322 269.7 182.023V182.05H269.618Z" fill="white" stroke="#292C2E" stroke-linecap="round" stroke-linejoin="round"></path><path d="M224.327 111.585C224.028 111.449 223.702 111.341 223.403 111.205C222.533 110.824 221.609 110.444 220.712 110.144C219.95 109.873 219.189 109.655 218.428 109.383C218.102 109.302 217.776 109.166 217.449 109.084C217.232 109.03 217.042 108.921 216.824 108.867C215.574 108.486 214.296 108.16 213.018 107.834C212.61 107.752 212.23 107.671 211.822 107.589C211.441 107.508 211.115 107.426 210.735 107.372C210.245 107.29 209.729 107.154 209.212 107.073C207.935 106.855 206.684 106.665 205.379 106.502C205.135 106.502 204.89 106.447 204.618 106.42C203.558 106.284 202.498 106.23 201.465 106.175C200.785 106.148 200.051 106.148 199.371 106.121C198.991 106.121 198.583 106.121 198.202 106.121C197.985 106.121 197.74 106.121 197.523 106.121C196.191 106.121 194.831 106.175 193.526 106.284C193.363 106.284 193.255 106.311 193.119 106.311C192.738 106.311 192.358 106.393 191.95 106.447C191.08 106.529 190.156 106.61 189.313 106.719C188.878 106.774 188.47 106.882 188.035 106.937C187.41 107.018 186.785 107.154 186.186 107.29C185.724 107.372 185.262 107.453 184.773 107.535C184.202 107.671 183.685 107.834 183.115 107.97C182.326 108.16 181.565 108.377 180.777 108.595C180.423 108.677 180.097 108.758 179.744 108.867C179.309 109.003 178.901 109.22 178.466 109.329C177.188 109.764 175.938 110.226 174.714 110.77C174.334 110.933 173.899 111.042 173.518 111.205C173.219 111.341 172.947 111.504 172.648 111.64C171.371 112.238 170.147 112.89 168.924 113.57C168.353 113.869 167.809 114.168 167.238 114.494C165.526 115.527 163.84 116.642 162.236 117.865L143.234 132.3C144.838 131.077 146.523 129.99 148.236 128.929C148.78 128.576 149.351 128.304 149.921 128.005C151.145 127.326 152.368 126.673 153.646 126.075C154.325 125.776 155.032 125.477 155.712 125.178C156.935 124.634 158.213 124.172 159.463 123.737C160.225 123.492 160.986 123.193 161.774 122.976C162.563 122.758 163.324 122.541 164.112 122.351C165.145 122.106 166.151 121.861 167.211 121.671C167.836 121.535 168.435 121.454 169.06 121.318C170.338 121.1 171.642 120.937 172.974 120.828C173.355 120.801 173.736 120.747 174.143 120.692C175.829 120.556 177.542 120.502 179.254 120.502C179.635 120.502 180.043 120.502 180.423 120.502C182.136 120.529 183.903 120.638 185.67 120.801C187.736 121.019 189.775 121.372 191.759 121.78C192.14 121.834 192.466 121.943 192.847 121.997C194.75 122.405 196.626 122.894 198.474 123.465C198.773 123.547 199.127 123.683 199.453 123.791C201.138 124.362 202.797 124.96 204.428 125.64C204.727 125.776 205.053 125.885 205.325 126.021L224.518 111.667C224.518 111.64 224.382 111.585 224.327 111.585Z" fill="black"></path><path d="M247.382 173.133C247.572 173.704 247.763 174.247 247.926 174.818C248.469 176.721 248.932 178.651 249.312 180.636C249.367 181.016 249.448 181.397 249.502 181.75C249.802 183.545 250.073 185.312 250.264 187.106C250.291 187.405 250.318 187.704 250.345 188.003C250.536 190.178 250.644 192.38 250.617 194.582C250.617 195.506 250.563 196.458 250.536 197.382C250.508 198.062 250.481 198.714 250.4 199.394C250.372 199.992 250.318 200.59 250.236 201.188C250.182 201.868 250.073 202.52 249.992 203.2C249.937 203.77 249.829 204.369 249.747 204.912C249.611 205.619 249.502 206.326 249.367 207.033C249.285 207.576 249.149 208.093 249.068 208.637C248.877 209.425 248.687 210.186 248.497 210.975C248.361 211.437 248.279 211.872 248.116 212.361C247.899 213.149 247.627 213.911 247.355 214.699L266.113 201.079C266.466 200.046 266.792 198.986 267.118 197.926C267.118 197.844 267.173 197.708 267.2 197.599C267.282 197.246 267.363 196.92 267.445 196.566C267.662 195.778 267.852 195.017 268.043 194.228C268.07 194.038 268.124 193.875 268.179 193.685C268.233 193.331 268.315 192.978 268.369 192.625C268.505 191.945 268.641 191.211 268.75 190.504C268.777 190.259 268.831 190.042 268.886 189.824C268.94 189.471 268.94 189.145 269.021 188.819C269.103 188.166 269.212 187.487 269.266 186.807C269.266 186.535 269.32 186.263 269.348 185.991C269.348 185.692 269.375 185.339 269.402 185.013C269.456 184.36 269.484 183.681 269.538 183.001C269.538 182.675 269.565 182.403 269.592 182.104C269.592 181.479 269.62 180.826 269.62 180.201C269.62 179.521 269.62 178.814 269.62 178.135C269.592 176.803 269.538 175.444 269.402 174.139C269.402 173.976 269.375 173.785 269.348 173.649C269.348 173.35 269.293 173.051 269.266 172.752C269.185 171.855 269.076 170.931 268.967 170.034C268.831 169.164 268.668 168.294 268.505 167.37C268.451 166.989 268.369 166.608 268.315 166.255C268.287 166.065 268.26 165.847 268.233 165.657C267.934 164.107 267.553 162.531 267.118 161.008C267.064 160.818 266.983 160.628 266.928 160.437C266.765 159.866 266.575 159.323 266.384 158.752C266.249 158.344 266.14 157.963 266.004 157.556L247.001 172.127C247.137 172.508 247.246 172.834 247.382 173.214V173.133Z" fill="#292C2E"></path><path d="M269.619 182.05C269.619 181.424 269.646 180.772 269.646 180.147C269.646 179.467 269.646 178.76 269.646 178.081C269.619 176.749 269.565 175.389 269.429 174.084C269.429 173.921 269.401 173.731 269.374 173.595C269.374 173.296 269.32 172.997 269.293 172.698C269.211 171.801 269.102 170.877 268.966 169.979C268.831 169.11 268.667 168.24 268.504 167.315C268.45 166.935 268.368 166.554 268.314 166.201C268.287 166.01 268.26 165.793 268.232 165.603C267.933 164.053 267.553 162.476 267.118 160.954C267.063 160.764 266.982 160.573 266.928 160.383C266.764 159.812 266.574 159.269 266.384 158.698C266.085 157.719 265.813 156.768 265.487 155.789C265.351 155.408 265.188 155.028 265.052 154.674C264.671 153.668 264.263 152.663 263.828 151.711C263.557 151.059 263.339 150.379 263.013 149.699C262.795 149.237 262.551 148.802 262.333 148.313C262.061 147.715 261.735 147.117 261.436 146.519C260.757 145.214 260.023 143.882 259.289 142.631C259.017 142.142 258.718 141.625 258.419 141.163C258.283 140.973 258.201 140.755 258.065 140.565C257.168 139.124 256.189 137.711 255.156 136.351C254.912 135.998 254.667 135.699 254.395 135.373C253.389 134.041 252.329 132.736 251.242 131.458C250.97 131.159 250.671 130.806 250.399 130.479C249.23 129.202 248.061 127.924 246.838 126.728C246.675 126.565 246.539 126.456 246.403 126.32C246.022 125.94 245.614 125.613 245.207 125.233C244.119 124.2 242.977 123.221 241.836 122.27C241.346 121.862 240.803 121.454 240.313 121.046C239.906 120.747 239.498 120.394 239.09 120.068C238.519 119.66 237.921 119.279 237.35 118.871C236.48 118.246 235.61 117.648 234.713 117.077C234.36 116.86 234.061 116.615 233.68 116.398C232.865 115.908 232.022 115.473 231.179 114.984C230.635 114.685 230.119 114.359 229.548 114.087C229.358 114.005 229.167 113.869 228.977 113.788C227.563 113.081 226.123 112.374 224.709 111.722C224.546 111.667 224.437 111.586 224.274 111.531C223.948 111.395 223.649 111.287 223.35 111.151C222.48 110.77 221.556 110.39 220.658 110.091C219.897 109.819 219.136 109.601 218.375 109.329C218.076 109.248 217.722 109.112 217.396 109.03C217.179 108.976 216.988 108.867 216.771 108.813C215.52 108.432 214.243 108.106 212.965 107.78C212.557 107.698 212.177 107.617 211.769 107.535C211.388 107.454 211.062 107.372 210.681 107.318C210.192 107.236 209.676 107.1 209.159 107.019C207.881 106.801 206.631 106.611 205.326 106.448C205.081 106.448 204.837 106.393 204.565 106.366C203.505 106.23 202.444 106.176 201.411 106.122C200.732 106.094 199.998 106.094 199.318 106.067C198.937 106.067 198.53 106.067 198.149 106.067C197.932 106.067 197.687 106.067 197.469 106.067C196.137 106.067 194.778 106.122 193.473 106.23C193.31 106.23 193.201 106.257 193.065 106.257C192.685 106.257 192.304 106.339 191.896 106.393C191.027 106.475 190.102 106.556 189.26 106.665C188.825 106.72 188.417 106.828 187.982 106.883C187.357 106.964 186.731 107.1 186.133 107.236C185.671 107.318 185.209 107.399 184.72 107.481C184.149 107.617 183.632 107.78 183.061 107.916C182.273 108.106 181.512 108.324 180.723 108.541C180.37 108.623 180.044 108.704 179.69 108.813C179.255 108.949 178.848 109.166 178.413 109.275C177.135 109.71 175.884 110.172 174.661 110.716C174.281 110.879 173.846 110.988 173.465 111.151C173.166 111.287 172.894 111.45 172.595 111.586C171.317 112.184 170.094 112.836 168.871 113.516C168.3 113.815 167.756 114.114 167.185 114.44C165.473 115.473 163.787 116.588 162.183 117.811L143.181 132.246C144.785 131.023 146.47 129.936 148.183 128.876C148.726 128.522 149.297 128.25 149.868 127.951C151.092 127.272 152.315 126.619 153.593 126.021C154.272 125.722 154.979 125.423 155.659 125.124C156.882 124.58 158.16 124.118 159.41 123.683C160.171 123.438 160.933 123.139 161.721 122.922C162.509 122.704 163.271 122.487 164.059 122.297C165.092 122.052 166.098 121.807 167.158 121.617C167.783 121.481 168.381 121.4 169.007 121.264C170.284 121.046 171.589 120.883 172.921 120.774C173.302 120.747 173.682 120.693 174.09 120.638C175.776 120.502 177.488 120.448 179.201 120.448C179.582 120.448 179.989 120.448 180.37 120.448C182.083 120.475 183.85 120.584 185.617 120.747C187.683 120.965 189.722 121.318 191.706 121.726C192.087 121.78 192.413 121.889 192.794 121.943C194.697 122.351 196.572 122.84 198.421 123.411C198.72 123.493 199.073 123.629 199.4 123.738C201.085 124.308 202.743 124.906 204.374 125.586C204.674 125.722 205 125.831 205.272 125.967C207.093 126.755 208.833 127.598 210.546 128.495C211.116 128.767 211.633 129.12 212.177 129.392C213.373 130.044 214.542 130.778 215.711 131.485C216.608 132.056 217.451 132.681 218.348 133.28C219.354 133.959 220.359 134.693 221.311 135.427C221.855 135.835 222.344 136.243 222.833 136.65C224.002 137.575 225.117 138.581 226.204 139.614C226.612 139.994 227.02 140.32 227.4 140.701C228.787 142.033 230.119 143.42 231.397 144.86C231.668 145.159 231.967 145.513 232.239 145.839C233.327 147.09 234.387 148.394 235.393 149.754C235.637 150.053 235.882 150.379 236.154 150.732C237.323 152.282 238.383 153.886 239.416 155.544C239.715 156.006 239.987 156.523 240.286 157.012C241.047 158.29 241.754 159.568 242.434 160.9C242.733 161.498 243.032 162.096 243.331 162.694C243.875 163.781 244.337 164.95 244.826 166.065C245.234 167.043 245.669 168.022 246.049 169.028C246.539 170.333 246.974 171.692 247.436 173.051C247.626 173.622 247.816 174.166 247.98 174.737C248.523 176.64 248.985 178.57 249.366 180.555C249.42 180.935 249.502 181.316 249.556 181.669C249.855 183.463 250.127 185.23 250.317 187.025C250.345 187.351 250.372 187.623 250.399 187.922C250.589 190.097 250.698 192.299 250.671 194.528C250.671 195.452 250.616 196.403 250.589 197.328C250.589 198.007 250.535 198.66 250.453 199.339C250.426 199.938 250.372 200.536 250.29 201.134C250.236 201.813 250.127 202.466 250.046 203.145C249.991 203.716 249.882 204.314 249.801 204.858C249.665 205.565 249.556 206.272 249.42 206.979C249.339 207.522 249.203 208.039 249.121 208.582C248.931 209.371 248.741 210.132 248.55 210.92C248.414 211.383 248.333 211.817 248.17 212.307C247.816 213.53 247.463 214.699 247.055 215.868C247.055 215.922 247.028 216.004 247.001 216.031C246.539 217.336 245.995 218.614 245.478 219.864C245.315 220.218 245.152 220.517 245.044 220.843C244.473 222.093 243.847 223.344 243.195 224.567C243.113 224.758 242.977 224.975 242.869 225.165C241.836 227.014 240.721 228.754 239.525 230.439C239.389 230.602 239.307 230.766 239.226 230.901C238.438 231.962 237.676 232.995 236.834 234.001C236.643 234.218 236.426 234.436 236.236 234.653C235.583 235.441 234.903 236.175 234.169 236.937C233.898 237.236 233.571 237.562 233.272 237.834C232.62 238.486 231.94 239.139 231.233 239.764C230.962 240.036 230.635 240.308 230.364 240.579C229.385 241.422 228.406 242.265 227.346 243.053L246.348 228.618C247.381 227.83 248.387 226.987 249.366 226.144C249.665 225.899 249.964 225.6 250.236 225.329C250.916 224.703 251.622 224.051 252.275 223.398C252.574 223.099 252.873 222.8 253.172 222.501C253.879 221.74 254.558 221.006 255.238 220.218C255.428 220 255.646 219.783 255.836 219.565C256.679 218.559 257.467 217.526 258.228 216.466C258.256 216.412 258.31 216.33 258.391 216.276C258.446 216.194 258.527 216.086 258.582 216.004C259.778 214.319 260.892 212.579 261.926 210.73C261.926 210.676 261.98 210.649 262.007 210.594C262.089 210.431 262.17 210.295 262.225 210.132C262.877 208.909 263.502 207.685 264.073 206.408C264.155 206.217 264.263 206.027 264.345 205.837C264.399 205.701 264.427 205.565 264.508 205.429C265.079 204.178 265.568 202.901 266.03 201.596C266.03 201.541 266.03 201.514 266.085 201.433C266.493 200.237 266.873 199.068 267.199 197.844C267.199 197.763 267.254 197.627 267.281 197.518C267.363 197.165 267.444 196.838 267.526 196.485C267.743 195.697 267.933 194.935 268.124 194.147C268.151 193.957 268.205 193.794 268.26 193.603C268.314 193.25 268.396 192.897 268.45 192.543C268.586 191.864 268.722 191.13 268.831 190.423C268.858 190.178 268.912 189.961 268.966 189.743C269.021 189.39 269.021 189.063 269.102 188.737C269.184 188.085 269.266 187.405 269.347 186.726C269.347 186.454 269.401 186.182 269.429 185.91C269.429 185.611 269.456 185.258 269.483 184.931C269.537 184.279 269.565 183.599 269.619 182.92C269.619 182.621 269.646 182.322 269.673 182.023V182.05H269.619Z" stroke="#292C2E" stroke-linecap="round" stroke-linejoin="round"></path><path d="M298.026 110.607L276.903 64.9358C276.224 63.4407 275.245 63.1416 274.321 63.9028C273.397 64.664 272.418 66.4038 271.684 69.0136L249.582 148.557C248.658 151.928 249.283 155.897 250.588 154.837L264.235 144.126L263.963 195.941C263.963 197.11 263.909 198.225 263.827 199.339C263.8 200.155 263.746 200.943 263.664 201.732C263.61 202.438 263.528 203.172 263.474 203.879C263.392 204.695 263.284 205.483 263.202 206.299C263.121 206.978 263.012 207.685 262.903 208.365C262.767 209.208 262.631 210.05 262.441 210.893C262.305 211.546 262.196 212.171 262.033 212.823C261.816 213.747 261.598 214.699 261.354 215.596C261.19 216.167 261.082 216.711 260.919 217.254C260.511 218.668 260.076 220.027 259.614 221.387C259.587 221.522 259.559 221.631 259.478 221.767C258.907 223.317 258.282 224.893 257.629 226.389C257.466 226.769 257.276 227.177 257.085 227.558C256.406 229.08 255.645 230.548 254.856 232.016C254.72 232.261 254.612 232.505 254.449 232.777C253.225 234.952 251.893 237.1 250.452 239.111C250.316 239.302 250.18 239.519 250.045 239.709C249.12 240.987 248.142 242.238 247.136 243.461C246.918 243.706 246.674 244.005 246.456 244.249C245.641 245.174 244.798 246.125 243.955 247.022C243.602 247.403 243.248 247.783 242.868 248.11C242.079 248.925 241.237 249.659 240.421 250.447C240.068 250.747 239.714 251.1 239.361 251.426C238.165 252.459 236.996 253.465 235.745 254.389L254.748 239.954C255.998 239.03 257.221 237.997 258.39 236.964C258.771 236.665 259.097 236.311 259.451 235.985C260.293 235.224 261.109 234.463 261.897 233.647C262.278 233.266 262.604 232.94 262.957 232.56C263.827 231.663 264.643 230.711 265.459 229.787C265.676 229.542 265.921 229.297 266.111 228.998C267.117 227.775 268.068 226.525 269.02 225.247C269.074 225.165 269.156 225.084 269.21 225.029C269.292 224.893 269.373 224.785 269.428 224.649C270.868 222.61 272.2 220.489 273.424 218.315C273.451 218.26 273.478 218.179 273.56 218.124C273.641 217.934 273.75 217.744 273.832 217.553C274.62 216.113 275.354 214.617 276.061 213.122C276.142 212.905 276.305 212.687 276.414 212.443C276.469 212.279 276.55 212.144 276.604 211.98C277.257 210.458 277.882 208.909 278.453 207.359C278.453 207.359 278.453 207.359 278.453 207.332C278.48 207.196 278.507 207.114 278.535 206.978C278.997 205.646 279.432 204.26 279.839 202.846C279.867 202.71 279.921 202.602 279.975 202.438C280.111 202.031 280.166 201.596 280.274 201.188C280.519 200.264 280.737 199.339 280.954 198.415C281.008 198.198 281.09 197.98 281.117 197.763C281.199 197.355 281.28 196.92 281.335 196.512C281.498 195.669 281.634 194.827 281.797 193.984C281.851 193.712 281.933 193.413 281.96 193.141C282.014 192.733 282.041 192.326 282.123 191.945C282.205 191.129 282.34 190.341 282.395 189.553C282.422 189.199 282.476 188.9 282.531 188.547C282.558 188.166 282.558 187.758 282.585 187.378C282.64 186.59 282.721 185.774 282.748 184.986C282.748 184.605 282.803 184.279 282.803 183.898C282.803 183.137 282.83 182.376 282.83 181.615L283.102 129.31L296.721 118.627C298.026 117.594 298.733 112.591 297.836 110.661L298.026 110.607Z" fill="white" stroke="#292C2E" stroke-linecap="round" stroke-linejoin="round"></path><path d="M222.316 246.696C224.029 245.636 225.714 244.548 227.345 243.325L246.348 228.89C244.744 230.113 243.031 231.228 241.319 232.261C240.748 232.614 240.204 232.886 239.633 233.185C238.41 233.864 237.159 234.517 235.882 235.115C235.202 235.441 234.495 235.713 233.816 236.012C232.565 236.556 231.314 237.018 230.037 237.453C229.276 237.698 228.514 237.997 227.726 238.214C226.938 238.432 226.176 238.649 225.388 238.839C224.355 239.084 223.349 239.329 222.289 239.519C221.664 239.655 221.038 239.736 220.413 239.872C219.136 240.09 217.831 240.253 216.499 240.362C216.118 240.389 215.71 240.443 215.33 240.498C213.644 240.634 211.931 240.688 210.219 240.688C209.838 240.688 209.458 240.688 209.104 240.688C207.364 240.661 205.597 240.552 203.857 240.389C201.791 240.171 199.752 239.818 197.741 239.41C197.36 239.356 197.034 239.247 196.653 239.193C194.75 238.785 192.875 238.296 190.999 237.725C190.645 237.643 190.346 237.507 190.02 237.426C188.335 236.855 186.649 236.257 185.018 235.577C184.746 235.441 184.42 235.36 184.148 235.224C182.327 234.435 180.587 233.593 178.847 232.668C178.276 232.396 177.76 232.043 177.189 231.744C175.993 231.092 174.851 230.358 173.682 229.651C172.785 229.08 171.888 228.455 171.045 227.857C170.039 227.15 169.033 226.443 168.082 225.682C167.538 225.274 167.049 224.866 166.532 224.431C165.363 223.453 164.249 222.501 163.134 221.468C162.726 221.087 162.319 220.761 161.938 220.381C160.524 219.049 159.192 217.635 157.915 216.194C157.643 215.895 157.344 215.542 157.072 215.215C155.984 213.938 154.924 212.66 153.918 211.301C153.674 211.002 153.429 210.648 153.157 210.322C151.988 208.773 150.928 207.141 149.895 205.51C149.596 205.021 149.324 204.504 149.025 204.042C148.264 202.765 147.557 201.46 146.877 200.128C146.578 199.53 146.279 198.932 145.98 198.306C145.437 197.192 144.947 196.05 144.485 194.935C144.077 193.929 143.642 192.978 143.262 191.972C142.772 190.64 142.337 189.281 141.875 187.949C141.685 187.378 141.495 186.834 141.332 186.263C140.788 184.36 140.326 182.43 139.918 180.446C139.864 180.065 139.782 179.739 139.728 179.358C139.429 177.564 139.13 175.797 138.966 173.976C138.966 173.676 138.912 173.377 138.885 173.078C138.695 170.904 138.586 168.702 138.613 166.472L138.912 111.558L119.91 125.994L119.611 180.908C119.611 181.587 119.611 182.294 119.611 182.974C119.638 184.306 119.692 185.665 119.828 186.97C119.828 187.16 119.855 187.323 119.882 187.514C119.882 187.813 119.937 188.112 119.964 188.411C120.046 189.308 120.154 190.232 120.263 191.129C120.399 192.026 120.562 192.924 120.725 193.821C120.78 194.201 120.861 194.528 120.915 194.908C120.943 195.098 120.97 195.289 120.997 195.506C121.296 197.056 121.677 198.632 122.112 200.155C122.166 200.345 122.248 200.535 122.302 200.726C122.465 201.297 122.683 201.84 122.846 202.438C123.145 203.417 123.417 204.369 123.743 205.347C123.879 205.728 124.042 206.108 124.205 206.462C124.585 207.468 124.993 208.474 125.428 209.425C125.7 210.077 125.918 210.757 126.244 211.437C126.461 211.899 126.706 212.334 126.923 212.823C127.195 213.421 127.521 214.019 127.821 214.645C128.5 215.949 129.234 217.282 129.968 218.559C130.24 219.049 130.539 219.565 130.838 220.027C130.974 220.218 131.056 220.435 131.191 220.625C132.089 222.066 133.094 223.48 134.1 224.839C134.345 225.192 134.59 225.491 134.861 225.818C135.867 227.15 136.928 228.455 138.015 229.732C138.287 230.059 138.586 230.385 138.858 230.711C140.027 232.016 141.196 233.266 142.446 234.49C142.609 234.626 142.718 234.734 142.881 234.897C143.262 235.278 143.669 235.604 144.077 235.985C145.165 237.018 146.334 238.024 147.475 238.948C147.965 239.356 148.508 239.791 148.998 240.199C149.433 240.552 149.813 240.878 150.248 241.204C150.819 241.612 151.417 241.993 151.961 242.373C152.831 242.999 153.701 243.597 154.598 244.168C154.951 244.385 155.278 244.657 155.631 244.874C156.447 245.364 157.262 245.799 158.105 246.288C158.676 246.587 159.192 246.913 159.763 247.212C159.953 247.294 160.144 247.43 160.361 247.566C161.775 248.273 163.216 248.979 164.684 249.632C164.82 249.686 164.955 249.713 165.091 249.795C165.363 249.931 165.689 250.04 165.989 250.148C166.886 250.529 167.81 250.91 168.734 251.236C169.495 251.508 170.229 251.725 170.991 251.997C171.29 252.079 171.643 252.214 171.969 252.296C172.187 252.35 172.404 252.459 172.595 252.513C173.845 252.894 175.123 253.22 176.4 253.547C176.781 253.628 177.189 253.71 177.597 253.791C177.977 253.873 178.303 253.954 178.684 254.009C179.173 254.09 179.717 254.226 180.206 254.308C181.484 254.525 182.735 254.715 184.039 254.879C184.284 254.879 184.529 254.933 184.801 254.96C185.861 255.096 186.894 255.15 187.954 255.205C188.661 255.232 189.368 255.232 190.047 255.259C190.428 255.259 190.809 255.259 191.216 255.259C191.434 255.259 191.678 255.259 191.896 255.259C193.228 255.259 194.587 255.205 195.892 255.096C196.055 255.096 196.164 255.069 196.327 255.069C196.735 255.069 197.116 254.987 197.496 254.933C198.366 254.851 199.236 254.77 200.133 254.661C200.568 254.607 201.003 254.498 201.411 254.444C202.036 254.362 202.661 254.226 203.259 254.09C203.722 254.009 204.184 253.927 204.673 253.846C205.244 253.71 205.788 253.547 206.358 253.411C207.147 253.22 207.908 253.003 208.696 252.785C209.05 252.704 209.376 252.622 209.729 252.513C210.164 252.378 210.572 252.16 211.007 252.024C212.285 251.589 213.535 251.127 214.786 250.583C215.166 250.42 215.601 250.312 215.982 250.148C216.308 250.012 216.58 249.849 216.852 249.686C218.13 249.088 219.353 248.436 220.576 247.756C221.147 247.457 221.745 247.158 222.262 246.832L222.316 246.696Z" fill="white" stroke="#292C2E" stroke-linecap="round" stroke-linejoin="round"></path><path d="M136.601 166.663L138.83 141.054V139.314L119.855 156.305V156.36L119.665 180.826C119.665 181.506 119.665 182.213 119.665 182.892C119.692 184.224 119.746 185.584 119.882 186.889C119.882 187.079 119.909 187.242 119.936 187.432C119.936 187.731 119.991 188.03 120.018 188.329C120.1 189.226 120.208 190.151 120.317 191.048C120.453 191.945 120.616 192.842 120.779 193.739C120.779 193.902 120.834 194.038 120.861 194.201L126.57 195.071L125.455 183.327V174.655L136.547 166.717V166.663H136.601Z" fill="#292C2E" stroke="#292C2E" stroke-linecap="round" stroke-linejoin="round"></path><path d="M216.472 228.944L224.247 223.045L235.474 214.509C234.088 215.569 232.62 216.521 231.125 217.391C230.635 217.662 230.119 217.934 229.602 218.179C228.569 218.75 227.509 219.266 226.422 219.728C225.796 220 225.144 220.218 224.519 220.435C223.431 220.843 222.29 221.251 221.175 221.55C220.74 221.686 220.332 221.767 219.897 221.903C218.293 222.311 216.689 222.61 215.031 222.828C214.841 222.828 214.65 222.855 214.46 222.882C212.938 223.072 211.334 223.181 209.73 223.181C209.594 223.181 209.512 223.181 209.377 223.181C207.582 223.181 205.788 223.127 203.94 222.936C202.417 222.773 200.922 222.529 199.4 222.229C199.128 222.175 198.856 222.148 198.584 222.066C197.17 221.767 195.784 221.414 194.398 220.979C194.153 220.925 193.935 220.816 193.691 220.734C192.44 220.327 191.217 219.864 189.994 219.348C189.776 219.266 189.531 219.158 189.314 219.076C187.982 218.505 186.65 217.853 185.372 217.2C184.964 216.983 184.556 216.738 184.149 216.521C183.279 216.031 182.409 215.488 181.512 214.971C180.859 214.536 180.207 214.101 179.554 213.666C178.793 213.122 178.059 212.606 177.325 212.062C176.945 211.763 176.564 211.464 176.156 211.165C175.286 210.458 174.471 209.724 173.655 208.99C173.383 208.718 173.057 208.447 172.785 208.175C172.432 207.821 172.133 207.468 171.779 207.115C170.692 206 169.632 204.831 168.626 203.635C168.218 203.173 167.838 202.656 167.457 202.194C166.533 200.971 165.608 199.72 164.766 198.442C164.494 198.007 164.168 197.6 163.896 197.138C163.678 196.757 163.461 196.431 163.243 196.05C162.672 195.126 162.156 194.147 161.639 193.141C161.422 192.706 161.204 192.271 160.987 191.809C160.579 190.994 160.226 190.151 159.872 189.308C159.573 188.601 159.247 187.84 158.975 187.079C158.595 186.073 158.268 185.122 157.942 184.089C157.806 183.681 157.67 183.246 157.534 182.838C157.127 181.425 156.773 179.984 156.501 178.516C156.447 178.244 156.42 177.945 156.338 177.673C156.094 176.368 155.903 175.009 155.767 173.677C155.767 173.459 155.713 173.242 155.713 172.997C155.55 171.366 155.496 169.735 155.496 168.104C155.496 166.31 155.631 164.57 155.795 162.884C155.795 162.64 155.849 162.395 155.876 162.123C156.066 160.519 156.338 158.97 156.692 157.474C156.746 157.23 156.828 157.012 156.882 156.768C157.263 155.218 157.698 153.641 158.214 152.146C158.214 152.146 158.214 152.119 158.214 152.092C158.703 150.678 159.301 149.346 159.927 147.987C160.144 147.525 183.05 139.169 183.294 138.734C183.729 137.891 184.192 137.076 184.708 136.26C185.143 135.553 185.578 134.847 186.04 134.167C186.448 133.569 186.883 132.998 187.291 132.454C188.133 131.34 166.342 138.2 167.294 137.167C167.702 136.732 168.082 136.297 168.517 135.862C169.904 134.476 171.317 133.171 172.867 132.029C172.568 132.274 172.187 132.573 171.834 132.817L156.909 144.126C155.876 144.915 154.816 145.73 153.837 146.437C152.315 147.606 150.874 148.911 149.488 150.27C149.08 150.678 148.672 151.14 148.264 151.575C147.34 152.608 146.416 153.668 145.573 154.783C145.355 155.055 145.111 155.327 144.893 155.626C144.676 155.898 144.513 156.224 144.322 156.523C143.86 157.203 143.425 157.909 142.99 158.616C142.746 159.024 142.447 159.432 142.202 159.867C141.985 160.274 141.794 160.682 141.604 161.09C141.386 161.525 141.142 161.987 140.924 162.422C140.761 162.721 140.571 163.047 140.462 163.401C140.027 164.434 139.592 165.467 139.212 166.527C139.212 166.527 139.212 166.554 139.212 166.581C138.858 167.56 138.559 168.593 138.233 169.572C138.07 170.115 137.988 170.632 137.825 171.176C137.771 171.42 137.689 171.638 137.635 171.883C137.608 172.073 137.553 172.29 137.472 172.481C137.281 173.405 137.091 174.384 136.928 175.362C136.874 175.77 136.847 176.151 136.765 176.558C136.765 176.803 136.711 177.048 136.683 177.32C136.656 177.619 136.602 177.945 136.547 178.244C136.466 179.168 136.384 180.147 136.357 181.125C136.357 181.588 136.357 182.05 136.357 182.539C136.357 183.028 136.357 183.572 136.357 184.061C136.357 185.067 136.412 186.073 136.52 187.052C136.52 187.188 136.52 187.297 136.547 187.432C136.547 187.65 136.602 187.895 136.602 188.112C136.656 188.792 136.738 189.444 136.819 190.124C136.901 190.776 137.037 191.429 137.173 192.081C137.227 192.353 137.254 192.652 137.336 192.924C137.336 193.087 137.363 193.196 137.39 193.359C137.635 194.528 137.88 195.67 138.206 196.839C138.233 196.974 138.287 197.11 138.342 197.246C138.478 197.681 138.614 198.089 138.749 198.497C138.967 199.204 139.184 199.938 139.429 200.644C139.511 200.916 139.647 201.188 139.783 201.46C140.054 202.221 140.381 202.928 140.68 203.689C140.897 204.179 141.06 204.695 141.278 205.184C141.441 205.538 141.631 205.837 141.767 206.19C141.985 206.625 142.202 207.087 142.419 207.522C142.909 208.501 143.453 209.452 144.023 210.431C144.241 210.812 144.431 211.138 144.676 211.519C144.757 211.682 144.839 211.79 144.921 211.953C145.111 212.253 145.355 212.524 145.546 212.796C146.389 214.074 147.286 215.324 148.237 216.548C148.618 217.037 149.025 217.526 149.406 217.989C150.412 219.185 151.472 220.327 152.56 221.468C152.804 221.713 152.995 221.958 153.239 222.229C153.321 222.311 153.457 222.42 153.538 222.529C153.81 222.8 154.136 223.072 154.435 223.344C155.251 224.105 156.094 224.839 156.936 225.519C157.317 225.818 157.698 226.144 158.105 226.416C158.404 226.661 158.703 226.905 159.002 227.123C159.41 227.422 159.872 227.694 160.28 227.993C160.933 228.455 161.558 228.89 162.237 229.325C162.482 229.488 162.727 229.678 162.999 229.814C163.597 230.195 164.249 230.521 164.847 230.874C165.255 231.092 165.636 231.337 166.071 231.554C166.234 231.608 166.342 231.717 166.478 231.799C167.511 232.342 168.599 232.859 169.659 233.321C169.741 233.375 169.877 233.403 169.958 233.457C170.176 233.539 170.42 233.647 170.638 233.729C171.29 234.001 171.943 234.3 172.649 234.544C173.22 234.762 173.764 234.925 174.362 235.115C174.607 235.17 174.824 235.278 175.069 235.36C175.232 235.414 175.368 235.441 175.531 235.523C176.455 235.795 177.407 236.067 178.385 236.284C178.657 236.339 178.984 236.42 179.283 236.474C179.554 236.529 179.826 236.61 180.098 236.638C180.479 236.692 180.859 236.801 181.213 236.855C182.137 237.018 183.116 237.154 184.067 237.263C184.257 237.263 184.448 237.29 184.638 237.317C185.426 237.399 186.188 237.48 186.976 237.508C187.982 237.562 188.933 237.589 189.912 237.562C189.966 237.562 190.048 237.562 190.102 237.562C190.238 237.562 190.32 237.562 190.456 237.562C191.298 237.562 192.114 237.535 192.93 237.48C193.691 237.426 194.425 237.317 195.186 237.263C195.322 237.263 195.458 237.263 195.594 237.263C195.648 237.263 195.675 237.263 195.757 237.263C195.838 237.263 195.974 237.263 196.083 237.236C197.252 237.073 198.367 236.855 199.454 236.638C199.862 236.556 200.242 236.42 200.623 236.339C201.058 236.257 201.466 236.121 201.901 235.985C202.336 235.849 202.771 235.768 203.206 235.632C203.885 235.414 204.538 235.088 205.244 234.843C205.897 234.599 206.522 234.381 207.147 234.137C207.365 234.055 207.61 233.973 207.827 233.892C208.697 233.511 209.512 233.049 210.328 232.614C210.817 232.342 211.361 232.125 211.85 231.826C213.346 230.956 214.786 230.004 216.2 228.944H216.472Z" fill="black" stroke="#292C2E" stroke-miterlimit="10"></path><path d="M106.807 124.526L125.809 110.091L138.967 111.477L119.964 125.885L106.807 124.526Z" fill="black" stroke="#292C2E" stroke-linecap="round" stroke-linejoin="round"></path><path d="M191.516 138.734C212.07 143.758 232.624 162.485 233.994 190.694C233.994 213.184 218.921 238.009 192.982 235.305C166.124 232.505 144.457 207.93 144.62 180.473C144.783 153.016 164.63 135.934 191.516 138.734Z" fill="#D0F500" stroke="#292C2E" stroke-miterlimit="10"></path><g filter="url(#filter0_b_1_38066)"><path d="M185.616 120.856C221.745 124.662 250.86 157.665 250.67 194.582C250.452 231.499 221.011 258.358 184.882 254.58C148.753 250.774 119.637 217.771 119.828 180.853C120.018 143.909 149.487 117.077 185.616 120.856ZM184.963 237.426C211.822 240.226 233.733 220.272 233.897 192.815C234.06 165.358 212.393 140.783 185.534 137.982C158.675 135.182 136.764 155.136 136.601 182.593C136.438 210.078 158.077 234.626 184.963 237.426Z" fill="white"></path><path d="M185.616 120.856C221.745 124.662 250.86 157.665 250.67 194.582C250.452 231.499 221.011 258.358 184.882 254.58C148.753 250.774 119.637 217.771 119.828 180.853C120.018 143.909 149.487 117.077 185.616 120.856ZM184.963 237.426C211.822 240.226 233.733 220.272 233.897 192.815C234.06 165.358 212.393 140.783 185.534 137.982C158.675 135.182 136.764 155.136 136.601 182.593C136.438 210.078 158.077 234.626 184.963 237.426Z" stroke="#292C2E" stroke-linecap="round" stroke-linejoin="round"></path></g><path d="M211.86 182.522C211.126 187.367 208.434 189.447 204.886 189.912C209.731 192.994 212.178 197.203 209.78 203.834C207.651 209.804 203.394 211.418 197.742 210.831C195.589 210.611 193.191 210.048 190.622 209.29L188.346 218.22L182.939 216.287L185.19 207.455C183.795 206.941 182.352 206.403 180.884 205.84L178.633 214.722L173.201 212.764L175.501 203.834C174.229 203.393 172.932 202.879 171.66 202.39L164.637 199.87L167.353 193.851L171.293 195.245C171.513 195.319 171.709 195.392 171.904 195.392C173.005 195.515 173.544 194.707 173.764 194.193L179.979 169.946C180.052 168.796 179.66 167.255 177.483 166.447L173.568 165.053L175.036 159.327L182.499 162.019C183.624 162.435 184.774 162.826 185.949 163.218L188.2 154.36L193.607 156.318L191.405 164.979C192.848 165.493 194.292 165.958 195.736 166.496L197.938 157.859L203.345 159.792L201.094 168.649C207.92 171.806 212.912 175.916 211.86 182.522ZM199.406 198.94C201.216 191.942 189.447 188.884 185.802 187.563L182.768 199.405C184.774 200.139 189.007 201.901 192.751 202.292C195.858 202.61 198.647 201.974 199.406 198.94ZM201.167 181.275C202.807 174.937 192.946 172.442 189.912 171.341L187.148 182.082C188.787 182.645 192.163 184.113 195.222 184.406C197.938 184.676 200.433 184.088 201.143 181.226" fill="black"></path><path d="M201.167 181.275C202.807 174.937 192.946 172.442 189.912 171.341L187.148 182.082C188.787 182.645 192.163 184.113 195.222 184.406C197.938 184.676 200.433 184.088 201.143 181.226M211.86 182.522C211.126 187.367 208.434 189.447 204.886 189.912C209.731 192.994 212.178 197.203 209.78 203.834C207.651 209.804 203.394 211.418 197.742 210.831C195.589 210.611 193.191 210.048 190.622 209.29L188.346 218.22L182.939 216.287L185.19 207.455C183.795 206.941 182.352 206.403 180.884 205.84L178.633 214.722L173.201 212.764L175.501 203.834C174.229 203.393 172.932 202.879 171.66 202.39L164.637 199.87L167.353 193.851L171.293 195.245C171.513 195.319 171.709 195.392 171.904 195.392C173.005 195.515 173.544 194.707 173.764 194.193L179.979 169.946C180.052 168.796 179.66 167.255 177.483 166.447L173.568 165.053L175.036 159.327L182.499 162.019C183.624 162.435 184.774 162.826 185.949 163.218L188.2 154.36L193.607 156.318L191.405 164.979C192.848 165.493 194.292 165.958 195.736 166.496L197.938 157.859L203.345 159.792L201.094 168.649C207.92 171.806 212.912 175.916 211.86 182.522ZM199.406 198.94C201.216 191.942 189.447 188.884 185.802 187.563L182.768 199.405C184.774 200.139 189.007 201.901 192.751 202.292C195.858 202.61 198.647 201.974 199.406 198.94Z" fill="black"></path><path d="M239.253 251.562C239.253 251.562 239.497 251.344 239.633 251.208C239.905 250.964 240.231 250.665 240.503 250.42C241.346 249.659 242.161 248.898 242.95 248.082C243.33 247.702 243.657 247.375 244.037 246.995C244.88 246.098 245.723 245.173 246.538 244.222C246.593 244.168 246.62 244.086 246.701 244.059C246.946 243.787 247.191 243.461 247.463 243.189C248.387 242.074 249.284 240.905 250.154 239.709C250.317 239.519 250.426 239.301 250.562 239.111C252.003 237.072 253.335 234.979 254.558 232.804C254.612 232.723 254.694 232.587 254.748 232.451C254.803 232.288 254.911 232.179 254.966 232.016C255.754 230.575 256.488 229.08 257.195 227.557C257.385 227.177 257.575 226.769 257.739 226.388C258.337 225.002 258.908 223.643 259.397 222.202C259.56 221.767 259.696 221.359 259.832 220.924C260.212 219.864 260.539 218.804 260.865 217.716C260.946 217.444 261.028 217.145 261.11 216.874C261.245 216.466 261.327 216.031 261.463 215.596C261.708 214.699 261.925 213.747 262.143 212.823C262.306 212.198 262.414 211.545 262.55 210.893C262.713 210.05 262.849 209.235 263.013 208.365C263.148 207.685 263.23 206.978 263.312 206.299C263.393 205.483 263.529 204.695 263.583 203.906C263.638 203.199 263.719 202.465 263.774 201.759C263.828 200.97 263.91 200.155 263.937 199.366C263.991 198.252 264.018 197.11 264.073 195.968L264.345 143.854L251.133 154.239L250.915 194.609C250.698 231.581 221.147 258.576 184.964 254.797C148.78 250.991 119.529 217.798 119.747 180.853L120.046 125.939L106.888 124.553L106.562 179.385C106.317 223.751 141.44 263.551 184.855 268.145C204.51 270.211 222.534 264.665 236.453 253.9C237.431 253.111 238.383 252.35 239.334 251.535L239.253 251.562Z" fill="black" stroke="#292C2E" stroke-linecap="round" stroke-linejoin="round"></path><path d="M259.804 220.979C259.804 220.979 259.722 221.278 259.641 221.442C259.613 221.577 259.586 221.686 259.505 221.822C258.934 223.372 258.308 224.948 257.656 226.444C257.493 226.824 257.303 227.232 257.112 227.613C256.433 229.135 255.672 230.603 254.883 232.071C254.747 232.316 254.638 232.56 254.475 232.832C253.252 235.007 251.92 237.155 250.479 239.166C250.343 239.357 250.207 239.574 250.071 239.764C249.147 241.042 248.168 242.293 247.163 243.516C246.945 243.761 246.7 244.06 246.483 244.304C245.667 245.229 244.825 246.18 243.982 247.077C243.628 247.458 243.275 247.838 242.894 248.165C242.106 248.98 241.263 249.714 240.448 250.503C240.094 250.829 239.741 251.155 239.388 251.481C238.191 252.514 237.022 253.52 235.772 254.444L254.774 240.009C256.025 239.085 257.248 238.052 258.417 237.019C258.798 236.72 259.124 236.366 259.477 236.04C260.32 235.279 261.136 234.518 261.924 233.702C262.305 233.321 262.631 232.995 262.984 232.615C263.854 231.718 264.67 230.766 265.485 229.842C265.703 229.597 265.948 229.352 266.138 229.053C267.144 227.83 268.095 226.58 269.047 225.302C269.101 225.22 269.183 225.139 269.237 225.084C269.318 224.948 269.4 224.84 269.454 224.704C270.895 222.665 272.227 220.544 273.451 218.37C273.478 218.315 273.505 218.234 273.587 218.179C273.668 217.989 273.777 217.799 273.858 217.608C274.647 216.168 275.381 214.672 276.088 213.177C276.169 212.96 276.332 212.742 276.441 212.498C276.495 212.335 276.577 212.171 276.631 212.035C277.284 210.513 277.909 208.964 278.48 207.414C278.48 207.414 278.48 207.414 278.48 207.387C278.507 207.251 278.534 207.169 278.561 207.033C278.589 206.952 278.616 206.816 278.643 206.734L259.668 221.007H259.804V220.979Z" fill="#292C2E" stroke="#292C2E" stroke-linecap="round" stroke-linejoin="round"></path><path d="M272.962 65.6972C273.179 65.2894 273.397 64.936 273.614 64.637C273.832 64.3379 274.077 64.0661 274.294 63.8758C274.484 63.7127 274.647 63.6311 274.838 63.5767C274.838 63.5767 274.865 63.5767 274.892 63.5767C275.082 63.5224 275.246 63.4952 275.436 63.5224L261.816 62C261.816 62 261.734 62 261.68 62C261.599 62 261.517 62 261.435 62C261.408 62 261.354 62 261.3 62.0272C261.3 62.0272 261.272 62.0272 261.245 62.0272C261.245 62.0272 261.218 62.0272 261.191 62.0272C261.109 62.0544 261.028 62.0816 260.946 62.1631C260.865 62.2175 260.783 62.2447 260.701 62.3262C260.647 62.3806 260.538 62.4621 260.457 62.5437C260.375 62.5981 260.294 62.7068 260.212 62.7884C260.158 62.8699 260.049 62.9787 259.995 63.0602C259.913 63.1961 259.804 63.3049 259.75 63.4408C259.668 63.6039 259.56 63.7399 259.478 63.903C259.451 63.9573 259.424 64.0389 259.397 64.0933C259.397 64.1476 259.342 64.1748 259.342 64.2564C259.288 64.3379 259.261 64.4467 259.179 64.5282C259.043 64.8001 258.907 65.1263 258.771 65.4253C258.771 65.4253 258.771 65.4797 258.771 65.5069C258.554 66.0778 258.336 66.703 258.146 67.4099L236.044 146.954C235.963 147.307 235.854 147.633 235.8 147.987V148.041C235.8 148.041 235.8 148.068 235.8 148.095C235.8 148.177 235.8 148.286 235.773 148.34C235.773 148.476 235.745 148.558 235.745 148.694C235.745 148.775 235.745 148.911 235.718 148.993C235.718 149.047 235.718 149.128 235.718 149.156C235.718 149.156 235.718 149.156 235.718 149.183V149.237C235.718 149.319 235.718 149.428 235.718 149.509C235.718 149.591 235.718 149.699 235.718 149.781C235.718 149.862 235.718 149.971 235.718 150.053C235.718 150.107 235.718 150.134 235.718 150.216V150.297C235.718 150.379 235.718 150.488 235.718 150.569C235.718 150.651 235.718 150.76 235.718 150.841C235.718 150.923 235.718 151.031 235.718 151.113C235.718 151.113 235.718 151.14 235.718 151.167C235.718 151.167 235.718 151.167 235.718 151.195C235.718 151.249 235.718 151.33 235.718 151.385C235.718 151.466 235.718 151.602 235.745 151.684C235.773 151.765 235.773 151.874 235.8 151.956C235.8 151.956 235.8 151.956 235.8 151.983C235.8 151.983 235.8 151.983 235.8 152.01C235.8 152.01 235.8 152.037 235.8 152.064C235.854 152.336 235.963 152.608 236.072 152.771C236.072 152.826 236.126 152.853 236.153 152.934C236.289 153.125 236.425 153.233 236.588 153.288L250.208 154.783C250.045 154.783 249.909 154.62 249.773 154.43C249.746 154.402 249.719 154.348 249.691 154.266C249.61 154.076 249.501 153.832 249.42 153.56C249.42 153.532 249.42 153.505 249.42 153.478C249.42 153.478 249.42 153.478 249.42 153.451C249.365 153.206 249.338 152.962 249.284 152.635C249.284 152.635 249.284 152.635 249.284 152.608C249.284 152.282 249.256 151.983 249.256 151.63C249.256 151.249 249.256 150.923 249.311 150.569C249.311 150.569 249.311 150.569 249.311 150.542C249.338 150.189 249.392 149.835 249.474 149.482C249.474 149.482 249.474 149.455 249.474 149.428C249.528 149.047 249.637 148.666 249.719 148.34L271.82 68.7963C272.01 68.1167 272.228 67.4914 272.445 66.8933C272.636 66.4312 272.826 65.9962 273.016 65.6156C273.016 65.5613 273.071 65.5341 273.071 65.4525L272.962 65.6972Z" fill="black" stroke="#292C2E" stroke-linecap="round" stroke-linejoin="round"></path><path d="M272.961 65.6972C273.179 65.2894 273.396 64.936 273.614 64.637C273.831 64.3379 274.076 64.0661 274.293 63.8758C274.484 63.7127 274.647 63.6311 274.837 63.5767C274.837 63.5767 274.864 63.5767 274.891 63.5767C275.082 63.5224 275.245 63.4952 275.435 63.5224L261.815 62C261.815 62 261.734 62 261.679 62C261.598 62 261.516 62 261.435 62C261.407 62 261.353 62 261.299 62.0272C261.299 62.0272 261.272 62.0272 261.244 62.0272C261.244 62.0272 261.217 62.0272 261.19 62.0272C261.108 62.0544 261.027 62.0816 260.945 62.1631C260.864 62.2175 260.782 62.2447 260.701 62.3262C260.646 62.3806 260.538 62.4621 260.456 62.5437C260.374 62.5981 260.293 62.7068 260.211 62.7884C260.157 62.8699 260.048 62.9787 259.994 63.0602C259.912 63.1961 259.804 63.3049 259.749 63.4408C259.668 63.6039 259.559 63.7399 259.477 63.903C259.45 63.9573 259.423 64.0389 259.396 64.0933C259.396 64.1476 259.341 64.1748 259.341 64.2564C259.287 64.3379 259.26 64.4467 259.178 64.5282C259.042 64.8001 258.906 65.1263 258.771 65.4253C258.771 65.4253 258.771 65.4797 258.771 65.5069C258.553 66.0778 258.336 66.703 258.145 67.4099L271.765 68.905C271.955 68.2254 272.173 67.6001 272.39 67.0021C272.581 66.5399 272.771 66.105 272.961 65.7244C272.961 65.67 273.016 65.6428 273.016 65.5613V65.6972H272.961Z" fill="black"></path><path d="M272.962 65.6972C273.179 65.2894 273.397 64.936 273.614 64.637C273.832 64.3379 274.077 64.0661 274.294 63.8758C274.484 63.7127 274.647 63.6311 274.838 63.5767C274.838 63.5767 274.865 63.5767 274.892 63.5767C275.082 63.5224 275.246 63.4952 275.436 63.5224L261.816 62C261.816 62 261.734 62 261.68 62C261.599 62 261.517 62 261.435 62C261.408 62 261.354 62 261.3 62.0272C261.3 62.0272 261.272 62.0272 261.245 62.0272C261.245 62.0272 261.218 62.0272 261.191 62.0272C261.109 62.0544 261.028 62.0816 260.946 62.1631C260.865 62.2175 260.783 62.2447 260.701 62.3262C260.647 62.3806 260.538 62.4621 260.457 62.5437C260.375 62.5981 260.294 62.7068 260.212 62.7884C260.158 62.8699 260.049 62.9787 259.995 63.0602C259.913 63.1961 259.804 63.3049 259.75 63.4408C259.668 63.6039 259.56 63.7399 259.478 63.903C259.451 63.9573 259.424 64.0389 259.397 64.0933C259.397 64.1476 259.342 64.1748 259.342 64.2564C259.288 64.3379 259.261 64.4467 259.179 64.5282C259.043 64.8001 258.907 65.1263 258.771 65.4253C258.771 65.4253 258.771 65.4797 258.771 65.5069C258.554 66.0778 258.336 66.703 258.146 67.4099L236.044 146.954C235.963 147.307 235.854 147.633 235.8 147.987V148.041C235.8 148.041 235.8 148.068 235.8 148.095C235.8 148.177 235.8 148.286 235.773 148.34C235.773 148.476 235.745 148.558 235.745 148.694C235.745 148.775 235.745 148.911 235.718 148.993C235.718 149.047 235.718 149.128 235.718 149.156C235.718 149.156 235.718 149.156 235.718 149.183V149.237C235.718 149.319 235.718 149.428 235.718 149.509C235.718 149.591 235.718 149.699 235.718 149.781C235.718 149.862 235.718 149.971 235.718 150.053C235.718 150.107 235.718 150.134 235.718 150.216V150.297C235.718 150.379 235.718 150.488 235.718 150.569C235.718 150.651 235.718 150.76 235.718 150.841C235.718 150.923 235.718 151.031 235.718 151.113C235.718 151.113 235.718 151.14 235.718 151.167C235.718 151.167 235.718 151.167 235.718 151.195C235.718 151.249 235.718 151.33 235.718 151.385C235.718 151.466 235.718 151.602 235.745 151.684C235.773 151.765 235.773 151.874 235.8 151.956C235.8 151.956 235.8 151.956 235.8 151.983C235.8 151.983 235.8 151.983 235.8 152.01C235.8 152.01 235.8 152.037 235.8 152.064C235.854 152.336 235.963 152.608 236.072 152.771C236.072 152.826 236.126 152.853 236.153 152.934C236.289 153.125 236.425 153.233 236.588 153.288L250.208 154.783C250.045 154.783 249.909 154.62 249.773 154.43C249.746 154.402 249.719 154.348 249.691 154.266C249.61 154.076 249.501 153.832 249.42 153.56C249.42 153.532 249.42 153.505 249.42 153.478C249.42 153.478 249.42 153.478 249.42 153.451C249.365 153.206 249.338 152.962 249.284 152.635C249.284 152.635 249.284 152.635 249.284 152.608C249.284 152.282 249.256 151.983 249.256 151.63C249.256 151.249 249.256 150.923 249.311 150.569C249.311 150.569 249.311 150.569 249.311 150.542C249.338 150.189 249.392 149.835 249.474 149.482C249.474 149.482 249.474 149.455 249.474 149.428C249.528 149.047 249.637 148.666 249.719 148.34L271.82 68.7963C272.01 68.1167 272.228 67.4914 272.445 66.8933C272.636 66.4312 272.826 65.9962 273.016 65.6156C273.016 65.5613 273.071 65.5341 273.071 65.4525L272.962 65.6972Z" stroke="#292C2E" stroke-linecap="round" stroke-linejoin="round"></path><path d="M184.801 268.173C202.934 270.076 219.626 265.508 233.001 256.374L222.317 247.376H221.202C210.763 253.384 198.258 256.184 184.856 254.77C176.238 253.873 168.055 251.236 160.525 247.376H160.444L147.204 254.444C158.35 261.893 171.182 266.786 184.801 268.227V268.173Z" fill="#D0F500" stroke="#292C2E" stroke-miterlimit="10"></path><path d="M283.237 138.771L275.408 149.916V173.595L282.992 181.533L283.237 138.771Z" fill="#D0F500" stroke="#292C2E" stroke-miterlimit="10"></path><path d="M339.204 281.397C334.256 286.969 328.521 290.866 323.269 292.676C317.999 294.493 313.33 294.18 310.359 291.541C307.387 288.903 306.524 284.304 307.704 278.857C308.881 273.427 312.071 267.271 317.019 261.699C321.966 256.127 327.701 252.23 332.954 250.42C338.223 248.604 342.892 248.917 345.863 251.555C348.835 254.193 349.698 258.793 348.518 264.24C347.342 269.669 344.151 275.825 339.204 281.397Z" fill="black" stroke="#292C2E"></path><path d="M334.764 278.007C329.815 283.58 324.103 287.499 318.889 289.344C313.657 291.197 309.046 290.927 306.139 288.346C303.232 285.765 302.419 281.219 303.639 275.803C304.855 270.408 308.07 264.272 313.019 258.699C317.967 253.126 323.679 249.207 328.893 247.362C334.126 245.509 338.737 245.779 341.644 248.36C344.551 250.941 345.363 255.487 344.143 260.903C342.928 266.298 339.713 272.434 334.764 278.007Z" fill="#D0F500" stroke="#292C2E"></path><path d="M332.767 276.488C328.576 281.208 323.768 284.547 319.403 286.145C315.017 287.752 311.207 287.562 308.844 285.464C306.481 283.366 305.842 279.605 306.917 275.059C307.988 270.535 310.735 265.366 314.925 260.647C319.116 255.927 323.924 252.588 328.289 250.99C332.676 249.384 336.485 249.573 338.848 251.672C341.211 253.77 341.85 257.53 340.775 262.076C339.704 266.6 336.957 271.769 332.767 276.488Z" fill="#292C2E" stroke="#292C2E"></path><path d="M332.767 276.488C328.571 281.214 323.86 284.648 319.654 286.393C315.412 288.153 311.854 288.137 309.766 286.283C307.679 284.429 307.241 280.898 308.487 276.478C309.723 272.095 312.575 267.011 316.771 262.286C320.966 257.56 325.677 254.126 329.884 252.381C334.125 250.621 337.683 250.637 339.771 252.491C341.859 254.345 342.296 257.876 341.05 262.296C339.815 266.679 336.962 271.763 332.767 276.488Z" fill="#D0F500" stroke="#292C2E"></path><path d="M332.442 268.113C331.271 269.859 330.015 270.518 328.801 270.553C329.74 271.866 329.701 273.5 327.658 275.837C325.828 277.942 324.165 278.371 322.487 277.94C321.847 277.778 321.195 277.48 320.528 277.105L318.078 280.288L316.737 279.374L319.161 276.226C318.818 275.984 318.464 275.732 318.108 275.47L315.675 278.637L314.332 277.713L316.789 274.53C316.471 274.32 316.159 274.083 315.851 273.855L314.112 272.665L316.138 270.564L317.117 271.225C317.172 271.26 317.22 271.295 317.282 271.302C317.608 271.389 317.935 271.114 318.104 270.934L324.767 262.292C325.013 261.874 325.187 261.294 324.653 260.916L323.681 260.256L325.255 258.215L327.1 259.485C327.376 259.68 327.665 259.868 327.962 260.056L330.39 256.898L331.725 257.821L329.351 260.909C329.709 261.152 330.077 261.377 330.431 261.629L332.8 258.551L334.141 259.465L331.713 262.622C333.267 264.038 334.054 265.734 332.442 268.113ZM325.316 273.65C327.244 271.156 324.104 269.588 323.204 268.965L319.95 273.186C320.444 273.531 321.446 274.337 322.557 274.623C323.48 274.858 324.488 274.732 325.316 273.65ZM329.293 267.248C331.039 264.99 328.396 263.7 327.647 263.181L324.691 267.009C325.102 267.278 325.889 267.944 326.802 268.168C327.611 268.37 328.516 268.25 329.295 267.229" fill="black"></path><path d="M72.7726 98.1702C77.7851 105.143 80.7742 112.539 81.5737 118.843C82.3759 125.169 80.9661 130.263 77.3728 132.845C73.7795 135.428 68.5019 135.142 62.7615 132.365C57.0412 129.599 50.9833 124.409 45.9709 117.436C40.9584 110.463 37.9692 103.067 37.1698 96.7632C36.3676 90.4375 37.7774 85.3436 41.3707 82.7606C44.964 80.1776 50.2416 80.4645 55.982 83.2406C61.7023 86.007 67.7601 91.197 72.7726 98.1702Z" fill="black" stroke="#292C2E"></path><path d="M77.6022 95.1878C82.6147 102.161 85.6038 109.557 86.4033 115.86C87.2055 122.186 85.7957 127.28 82.2024 129.863C78.6091 132.446 73.3314 132.159 67.5911 129.383C61.8707 126.617 55.8129 121.427 50.8004 114.453C45.788 107.48 42.7988 100.084 41.9994 93.7808C41.1972 87.4551 42.607 82.3611 46.2003 79.7782C49.7936 77.1952 55.0712 77.4821 60.8116 80.2582C66.5319 83.0246 72.5897 88.2146 77.6022 95.1878Z" fill="#D0F500" stroke="#292C2E"></path><path d="M74.8548 97.3921C79.1083 103.31 81.7499 109.506 82.599 114.724C83.4537 119.975 82.4764 124.069 79.7435 126.033C77.0106 127.998 72.8189 127.62 68.1134 125.136C63.438 122.669 58.4066 118.19 54.153 112.273C49.8994 106.356 47.2579 100.159 46.4088 94.9414C45.5541 89.6898 46.5314 85.5962 49.2643 83.6317C51.9972 81.6673 56.1888 82.0454 60.8944 84.5289C65.5697 86.9965 70.6012 91.4747 74.8548 97.3921Z" fill="black" stroke="#292C2E"></path><path d="M72.0989 99.3233C76.0105 104.765 78.5013 110.417 79.3818 115.14C80.2703 119.905 79.4946 123.532 77.1685 125.205C74.8423 126.877 71.157 126.456 66.9228 124.095C62.7268 121.756 58.1634 117.594 54.2518 112.152C50.3401 106.71 47.8494 101.059 46.9689 96.336C46.0803 91.5703 46.856 87.9431 49.1822 86.271C51.5083 84.5989 55.1936 85.0194 59.4278 87.3803C63.6238 89.7198 68.1872 93.8816 72.0989 99.3233Z" fill="#D0F500" stroke="#292C2E"></path><path d="M66.6665 111.82L57.4935 107.179L70.6205 118.697L70.1377 106.538L66.6639 111.82L66.6665 111.82ZM54.9766 91.3202L56.6717 105.581L65.8481 110.226L69.3159 104.945L54.9766 91.3202Z" fill="black"></path></g><defs><filter id="filter0_b_1_38066" x="101.227" y="101.901" width="168.044" height="171.633" filterUnits="userSpaceOnUse" color-interpolation-filters="sRGB"><feFlood flood-opacity="0" result="BackgroundImageFix"></feFlood><feGaussianBlur in="BackgroundImageFix" stdDeviation="9.05"></feGaussianBlur><feComposite in2="SourceAlpha" operator="in" result="effect1_backgroundBlur_1_38066"></feComposite><feBlend mode="normal" in="SourceGraphic" in2="effect1_backgroundBlur_1_38066" result="shape"></feBlend></filter><clipPath id="clip0_1_38066"><rect width="394" height="328" fill="white"></rect></clipPath><clipPath id="clip1_1_38066"><rect width="394" height="328" fill="white"></rect></clipPath></defs></svg>