<svg width="394" height="328" viewBox="0 0 394 328" fill="none" xmlns="http://www.w3.org/2000/svg"><g clip-path="url(#clip0_12_13968)"><rect width="394" height="328" fill="white"></rect><g clip-path="url(#clip1_12_13968)"><rect width="394" height="328" fill="white"></rect><g clip-path="url(#clip2_12_13968)"><rect width="394" height="328" fill="white"></rect><path d="M2.5 -17L153.5 86.5V219L0 328.5" stroke="#EAEAED"></path><path d="M0 41L153.5 113" stroke="#EAEAED"></path><path d="M0 96L153.5 130.5" stroke="#EAEAED"></path><path d="M0 153.5H153.5M0 211.5L153.5 174" stroke="#EAEAED"></path><path d="M0 267L153.5 196.5M138.5 76.5V229.696" stroke="#EAEAED"></path><path d="M120.5 64V242" stroke="#EAEAED"></path><path d="M93 45.5V262" stroke="#EAEAED"></path><path d="M52.5 17.5V291" stroke="#EAEAED"></path><path d="M53 291H342" stroke="#EAEAED"></path><path d="M94 262H302" stroke="#EAEAED"></path><path d="M121 242L274 242" stroke="#EAEAED"></path><path d="M0 328L394 328" stroke="#EAEAED"></path><path d="M391.5 -17L240.5 86.5V219L394 328.5" stroke="#EAEAED"></path><path d="M394 41L240.5 113" stroke="#EAEAED"></path><path d="M394 96L240.5 130.5" stroke="#EAEAED"></path><path d="M394 153.5H240.5M394 211.5L240.5 174" stroke="#EAEAED"></path><path d="M394 267L240.5 196.5M255.5 76.5V229.696" stroke="#EAEAED"></path><path d="M197 327L197 219" stroke="#EAEAED"></path><path d="M154 219H241" stroke="#EAEAED"></path><path d="M293 328L218 219" stroke="#EAEAED"></path><path d="M95 328L175 219" stroke="#EAEAED"></path><path d="M273.5 64V242" stroke="#EAEAED"></path><path d="M301 45.5V262" stroke="#EAEAED"></path><path d="M341.5 17.5V291" stroke="#EAEAED"></path><path d="M98.2261 257.439C98.2261 257.439 98.2261 257.428 98.2366 257.418C98.2366 257.418 98.2366 257.428 98.2261 257.439Z" fill="#FAFAFA"></path><path d="M98.2261 257.439C98.2261 257.439 98.2261 257.428 98.2366 257.418C98.2366 257.418 98.2366 257.428 98.2261 257.439Z" fill="white"></path><rect width="99.6621" height="99.6621" rx="5.33333" transform="matrix(0.866025 0.5 -0.866025 0.5 197 198.379)" fill="#D0F500" stroke="black" stroke-width="1.07143"></rect><g filter="url(#filter0_b_12_13968)"><path d="M102.803 158.012L197 212.008V283.639L102.803 229.643V158.012Z" fill="white"></path><path d="M102.803 158.012L197 212.008V283.639L102.803 229.643V158.012Z" stroke="#222425" stroke-width="1.07143" stroke-linejoin="round"></path></g><rect width="108.939" height="71.6308" transform="matrix(0.867572 -0.497312 0 1 197 211.828)" fill="black" stroke="#222425" stroke-width="1.07143" stroke-linejoin="round"></rect><rect width="69.9158" height="13.5686" rx="2.66667" transform="matrix(0.867572 -0.497312 0 1 213.928 230.249)" fill="black" stroke="#222425" stroke-width="1.07143" stroke-linejoin="round"></rect><rect width="67.0498" height="10.9714" rx="2.66667" transform="matrix(0.867572 -0.497312 0 1 213.928 230.249)" fill="#D0F500" stroke="#222425" stroke-width="1.07143" stroke-linejoin="round"></rect><rect width="69.9158" height="13.5686" rx="2.66667" transform="matrix(-0.867572 -0.497312 0 1 180.072 230.249)" fill="black" stroke="#222425" stroke-width="1.07143" stroke-linejoin="round"></rect><rect width="67.0498" height="10.9714" rx="2.66667" transform="matrix(-0.867572 -0.497312 0 1 180.072 230.249)" fill="#D0F500" stroke="#222425" stroke-width="1.07143" stroke-linejoin="round"></rect><rect width="112.391" height="112.391" rx="5.33333" transform="matrix(0.866025 0.5 -0.866025 0.5 197 101.276)" fill="#D0F500" stroke="#222425" stroke-width="1.07143"></rect><path d="M206.317 178.834L224.559 168.302C224.574 168.293 224.589 168.285 224.618 168.285C224.648 168.285 224.662 168.276 224.677 168.285L234.052 169.661C234.081 169.661 234.096 169.67 234.11 169.678C234.125 169.686 234.139 169.695 234.139 169.712C234.139 169.729 234.154 169.737 234.139 169.746C234.139 169.763 234.124 169.771 234.109 169.78L208.67 184.467C208.655 184.475 208.641 184.484 208.611 184.484C208.582 184.484 208.567 184.493 208.553 184.484L161.4 177.661C161.371 177.661 161.356 177.653 161.341 177.644C161.327 177.636 161.312 177.627 161.312 177.61L152.856 157.947C152.856 157.93 152.856 157.913 152.871 157.905C152.871 157.888 152.886 157.879 152.901 157.871C152.916 157.862 152.93 157.854 152.96 157.854C152.989 157.854 153.004 157.845 153.018 157.854L162.408 159.239C162.437 159.239 162.451 159.247 162.466 159.255C162.481 159.264 162.495 159.272 162.495 159.289L168.612 173.396C168.612 173.413 168.627 173.421 168.641 173.43C168.656 173.438 168.67 173.446 168.7 173.446L206.155 178.86C206.185 178.86 206.199 178.868 206.214 178.86C206.273 178.843 206.288 178.834 206.317 178.834Z" fill="black"></path><path d="M243.961 164.008C243.961 163.991 243.976 163.982 243.961 163.974L232.172 136.818C232.172 136.801 232.158 136.793 232.143 136.784C232.128 136.776 232.114 136.767 232.085 136.767L184.99 129.978C184.976 129.969 184.946 129.97 184.931 129.978C184.917 129.987 184.887 129.987 184.873 129.995L149.656 150.344C149.641 150.353 149.626 150.362 149.626 150.378C149.626 150.395 149.611 150.404 149.626 150.412C149.64 150.421 149.626 150.446 149.64 150.455C149.655 150.463 149.669 150.471 149.699 150.471L167.731 153.015C167.761 153.015 167.775 153.024 167.79 153.032C167.804 153.04 167.819 153.049 167.819 153.066L174.969 169.693C174.968 169.71 174.983 169.718 174.998 169.727C175.012 169.735 175.027 169.743 175.056 169.743L204.001 173.939C204.03 173.938 204.045 173.947 204.06 173.938C204.089 173.938 204.104 173.93 204.119 173.921L215.946 167.093C215.961 167.084 215.961 167.067 215.976 167.059L225.724 161.431L243.785 164.059C243.814 164.059 243.829 164.068 243.843 164.059C243.858 164.05 243.887 164.05 243.902 164.042C243.917 164.033 243.961 164.025 243.961 164.008ZM189.63 140.473C189.601 140.473 189.571 140.473 189.542 140.473C189.513 140.473 189.498 140.482 189.469 140.499L174.987 148.86C174.972 148.869 174.942 148.886 174.913 148.886C174.884 148.886 174.854 148.886 174.825 148.886L166.651 147.709C166.622 147.709 166.607 147.7 166.578 147.684C166.564 147.675 166.534 147.658 166.535 147.641C166.535 147.624 166.535 147.608 166.535 147.591C166.535 147.574 166.55 147.565 166.579 147.548L187.299 135.585C187.314 135.577 187.344 135.56 187.373 135.56C187.402 135.56 187.432 135.56 187.461 135.559L224.815 140.914C224.844 140.914 224.858 140.923 224.888 140.939C224.902 140.948 224.931 140.965 224.931 140.982L231.881 157.067C231.881 157.084 231.88 157.101 231.88 157.118C231.88 157.135 231.865 157.144 231.836 157.161C231.806 157.178 231.792 157.186 231.762 157.186C231.733 157.186 231.704 157.186 231.674 157.186L223.559 156.043C223.53 156.043 223.515 156.035 223.486 156.018C223.471 156.009 223.442 155.993 223.442 155.976L218.546 144.685C218.546 144.668 218.531 144.66 218.502 144.643C218.487 144.635 218.458 144.618 218.429 144.618L189.63 140.473ZM201.633 168.348C201.604 168.348 201.589 168.357 201.574 168.348L182.253 165.538C182.224 165.538 182.209 165.529 182.195 165.521C182.18 165.512 182.166 165.504 182.166 165.487L177.531 154.467C177.516 154.458 177.531 154.45 177.531 154.433C177.531 154.416 177.546 154.407 177.561 154.399L191.954 146.089C191.969 146.08 191.984 146.072 192.013 146.072C192.042 146.072 192.057 146.063 192.072 146.072L211.143 148.841C211.173 148.841 211.187 148.849 211.202 148.858C211.217 148.866 211.231 148.875 211.231 148.891L216.129 159.995L203.034 167.556L201.692 168.331C201.677 168.34 201.662 168.348 201.633 168.348Z" fill="black"></path></g><path d="M339.204 281.397C334.256 286.969 328.521 290.866 323.269 292.676C317.999 294.493 313.33 294.18 310.359 291.541C307.387 288.903 306.524 284.304 307.704 278.857C308.881 273.427 312.071 267.271 317.019 261.699C321.966 256.127 327.701 252.23 332.954 250.42C338.223 248.604 342.892 248.917 345.863 251.555C348.835 254.193 349.698 258.793 348.518 264.24C347.342 269.669 344.151 275.825 339.204 281.397Z" fill="black" stroke="#292C2E"></path><path d="M334.764 278.007C329.815 283.58 324.103 287.499 318.889 289.344C313.657 291.197 309.046 290.927 306.139 288.346C303.232 285.765 302.419 281.219 303.639 275.803C304.855 270.408 308.07 264.272 313.019 258.699C317.967 253.126 323.679 249.207 328.893 247.362C334.126 245.509 338.737 245.779 341.644 248.36C344.551 250.941 345.363 255.487 344.143 260.903C342.928 266.298 339.713 272.434 334.764 278.007Z" fill="#D0F500" stroke="#292C2E"></path><path d="M332.767 276.488C328.576 281.208 323.768 284.547 319.403 286.145C315.017 287.752 311.207 287.562 308.844 285.464C306.481 283.366 305.842 279.605 306.917 275.059C307.988 270.535 310.735 265.366 314.925 260.647C319.116 255.927 323.924 252.588 328.289 250.99C332.676 249.384 336.485 249.573 338.848 251.672C341.211 253.77 341.85 257.53 340.775 262.076C339.704 266.6 336.957 271.769 332.767 276.488Z" fill="#292C2E" stroke="#292C2E"></path><path d="M332.767 276.488C328.571 281.214 323.86 284.648 319.654 286.393C315.413 288.153 311.854 288.137 309.767 286.283C307.679 284.429 307.242 280.898 308.487 276.478C309.723 272.095 312.576 267.011 316.771 262.286C320.967 257.56 325.678 254.126 329.884 252.381C334.125 250.621 337.683 250.637 339.771 252.491C341.859 254.345 342.296 257.876 341.05 262.296C339.815 266.679 336.962 271.763 332.767 276.488Z" fill="#D0F500" stroke="#292C2E"></path><path d="M332.442 268.113C331.271 269.859 330.015 270.518 328.801 270.553C329.74 271.866 329.701 273.5 327.658 275.837C325.828 277.942 324.165 278.371 322.487 277.94C321.847 277.778 321.195 277.48 320.528 277.105L318.078 280.288L316.737 279.374L319.161 276.226C318.818 275.984 318.464 275.732 318.108 275.47L315.675 278.637L314.332 277.713L316.789 274.53C316.471 274.32 316.159 274.083 315.851 273.855L314.112 272.665L316.138 270.564L317.117 271.225C317.172 271.26 317.22 271.295 317.282 271.302C317.608 271.389 317.935 271.114 318.104 270.934L324.767 262.292C325.013 261.874 325.187 261.294 324.653 260.916L323.681 260.256L325.255 258.215L327.1 259.485C327.376 259.68 327.665 259.868 327.962 260.056L330.39 256.898L331.725 257.821L329.351 260.909C329.709 261.152 330.077 261.377 330.431 261.629L332.8 258.551L334.141 259.465L331.713 262.622C333.267 264.038 334.054 265.734 332.442 268.113ZM325.316 273.65C327.244 271.156 324.104 269.588 323.204 268.965L319.95 273.186C320.444 273.531 321.446 274.337 322.557 274.623C323.48 274.858 324.488 274.732 325.316 273.65ZM329.293 267.248C331.039 264.99 328.396 263.7 327.647 263.181L324.691 267.009C325.102 267.278 325.889 267.944 326.802 268.168C327.611 268.37 328.516 268.25 329.295 267.229" fill="black"></path><path d="M72.7726 98.1697C77.7851 105.143 80.7742 112.539 81.5737 118.842C82.3759 125.168 80.9661 130.262 77.3728 132.845C73.7795 135.428 68.5019 135.141 62.7615 132.365C57.0412 129.599 50.9833 124.409 45.9709 117.435C40.9584 110.462 37.9692 103.066 37.1698 96.7627C36.3676 90.437 37.7774 85.3431 41.3707 82.7601C44.964 80.1772 50.2416 80.464 55.982 83.2401C61.7023 86.0065 67.7601 91.1965 72.7726 98.1697Z" fill="black" stroke="#292C2E"></path><path d="M77.6022 95.188C82.6147 102.161 85.6038 109.557 86.4033 115.861C87.2055 122.186 85.7957 127.28 82.2024 129.863C78.6091 132.446 73.3314 132.159 67.5911 129.383C61.8707 126.617 55.8129 121.427 50.8004 114.454C45.788 107.481 42.7988 100.085 41.9994 93.781C41.1972 87.4553 42.607 82.3614 46.2003 79.7784C49.7936 77.1955 55.0712 77.4823 60.8116 80.2584C66.5319 83.0248 72.5897 88.2148 77.6022 95.188Z" fill="#D0F500" stroke="#292C2E"></path><path d="M74.8545 97.3926C79.1081 103.31 81.7496 109.506 82.5988 114.724C83.4534 119.976 82.4761 124.069 79.7432 126.034C77.0104 127.998 72.8187 127.62 68.1132 125.137C63.4378 122.669 58.4064 118.191 54.1528 112.273C49.8992 106.356 47.2577 100.16 46.4085 94.9419C45.5539 89.6903 46.5312 85.5967 49.264 83.6322C51.9969 81.6678 56.1886 82.0459 60.8941 84.5294C65.5695 86.9969 70.6009 91.4752 74.8545 97.3926Z" fill="black" stroke="#292C2E"></path><path d="M72.0991 99.3231C76.0108 104.765 78.5015 110.417 79.382 115.139C80.2705 119.905 79.4948 123.532 77.1687 125.204C74.8426 126.876 71.1573 126.456 66.9231 124.095C62.7271 121.756 58.1637 117.594 54.252 112.152C50.3404 106.71 47.8496 101.059 46.9691 96.3358C46.0806 91.57 46.8563 87.9428 49.1824 86.2708C51.5085 84.5987 55.1938 85.0192 59.428 87.38C63.624 89.7195 68.1874 93.8813 72.0991 99.3231Z" fill="#D0F500" stroke="#292C2E"></path><path d="M66.6665 111.82L57.4935 107.179L70.6205 118.697L70.1377 106.538L66.6639 111.82L66.6665 111.82ZM54.9766 91.3202L56.6717 105.581L65.8481 110.226L69.3159 104.945L54.9766 91.3202Z" fill="black"></path></g></g><defs><filter id="filter0_b_12_13968" x="75.0165" y="130.092" width="149.77" height="181.467" filterUnits="userSpaceOnUse" color-interpolation-filters="sRGB"><feFlood flood-opacity="0" result="BackgroundImageFix"></feFlood><feGaussianBlur in="BackgroundImageFix" stdDeviation="13.6607"></feGaussianBlur><feComposite in2="SourceAlpha" operator="in" result="effect1_backgroundBlur_12_13968"></feComposite><feBlend mode="normal" in="SourceGraphic" in2="effect1_backgroundBlur_12_13968" result="shape"></feBlend></filter><clipPath id="clip0_12_13968"><rect width="394" height="328" fill="white"></rect></clipPath><clipPath id="clip1_12_13968"><rect width="394" height="328" fill="white"></rect></clipPath><clipPath id="clip2_12_13968"><rect width="394" height="328" fill="white"></rect></clipPath></defs></svg>