<svg width="100" height="100" viewBox="0 0 100 100" fill="none" xmlns="http://www.w3.org/2000/svg" class="wh-100px"><path d="M54.7735 48.2397H64.2135C71.0935 48.2397 76.6668 42.6397 76.6668 35.7863C76.6668 28.933 71.0668 23.333 64.2135 23.333C57.3602 23.333 51.7602 28.933 51.7602 35.7863V45.2263C51.7602 46.9063 53.0935 48.2397 54.7735 48.2397ZM55.3868 44.613V35.6797C55.3868 33.2797 56.3202 31.0397 58.0002 29.3597C59.6802 27.6797 61.9468 26.7463 64.3202 26.7463C66.7202 26.7463 68.9602 27.6797 70.6402 29.3597C72.3202 31.0397 73.2535 33.3063 73.2535 35.6797C73.2535 38.0797 72.3202 40.3197 70.6402 41.9997C68.9602 43.6797 66.6935 44.613 64.3202 44.613H55.3868ZM64.2135 51.7597H54.7735C53.1202 51.7597 51.7602 53.1197 51.7602 54.773V64.213C51.7602 71.093 57.3602 76.6663 64.2135 76.6663C71.0668 76.6663 76.6668 71.0663 76.6668 64.213C76.6668 57.333 71.0668 51.7597 64.2135 51.7597ZM55.3335 55.333H64.2135C66.5868 55.333 68.8268 56.2663 70.5068 57.9463C72.1868 59.6263 73.1202 61.8663 73.1202 64.2397C73.1202 66.613 72.1868 68.853 70.5068 70.533C68.8268 72.213 66.5868 73.1463 64.2135 73.1463C61.8402 73.1463 59.6002 72.213 57.9202 70.533C56.2402 68.853 55.3068 66.613 55.3068 64.2397V55.333H55.3335ZM35.7868 48.2397H45.2268C46.8802 48.2397 48.2402 46.8797 48.2402 45.2263V35.7863C48.2402 32.453 46.9335 29.333 44.5868 26.9863C42.2402 24.6397 39.1202 23.333 35.7868 23.333C28.9335 23.333 23.3335 28.933 23.3335 35.7863C23.3335 42.6663 28.9335 48.2397 35.7868 48.2397ZM26.7735 35.7863C26.7735 33.3863 27.7068 31.1197 29.4135 29.413C31.1202 27.7063 33.3868 26.773 35.7868 26.773C38.1868 26.773 40.4535 27.7063 42.1602 29.413C43.8668 31.1197 44.8002 33.3863 44.8002 35.7863V44.7997H35.7868C33.3868 44.7997 31.1202 43.8663 29.4135 42.1597C27.7068 40.453 26.7735 38.1863 26.7735 35.7863ZM45.2268 51.7597H35.7868C28.9335 51.7597 23.3335 57.333 23.3335 64.213C23.3335 71.0663 28.9335 76.6663 35.7868 76.6663C42.6668 76.6663 48.2402 71.0663 48.2402 64.213V54.773C48.2402 53.093 46.9068 51.7597 45.2268 51.7597ZM44.6402 55.3597V64.1863C44.6402 66.533 43.7335 68.7463 42.0535 70.4263C40.4002 72.0797 38.1868 73.013 35.8135 73.013C33.4402 73.013 31.2535 72.1063 29.5735 70.4263C27.9202 68.773 26.9868 66.5597 26.9868 64.1863C26.9868 61.8397 27.8935 59.6263 29.5735 57.9463C31.2268 56.293 33.4402 55.3597 35.8135 55.3597H44.6402Z" fill="black"></path></svg>