<svg width="394" height="328" viewBox="0 0 394 328" fill="none" xmlns="http://www.w3.org/2000/svg"><g clip-path="url(#clip0_12_14039)"><rect width="394" height="328" fill="white"></rect><rect width="394" height="328" fill="white"></rect><circle cx="197" cy="168" r="141.5" stroke="#F8F8F8"></circle><path fill-rule="evenodd" clip-rule="evenodd" d="M197.059 300C269.928 300 329 240.928 329 168.059C329 95.1898 269.928 36.1177 197.059 36.1177C124.19 36.1177 65.1177 95.1898 65.1177 168.059C65.1177 240.928 124.19 300 197.059 300ZM196.995 286.689C262.548 286.689 315.689 233.548 315.689 167.995C315.689 102.443 262.548 49.3022 196.995 49.3022C131.443 49.3022 78.3023 102.443 78.3023 167.995C78.3023 233.548 131.443 286.689 196.995 286.689Z" fill="#F8F8F8"></path><rect width="12.7514" height="12.7514" transform="matrix(0.707107 0.707107 0.707107 -0.707107 339 53.0166)" fill="#D0F500"></rect><rect opacity="0.3" width="10.0082" height="10.0082" transform="matrix(0.707107 0.707107 0.707107 -0.707107 48 262.469)" fill="#D0F500"></rect><mask id="mask0_12_14039" maskUnits="userSpaceOnUse" x="107" y="84" width="181" height="169" style="mask-type: luminance;"><path d="M287.694 84H107V252.732H287.694V84Z" fill="white"></path></mask><g mask="url(#mask0_12_14039)"><path d="M265.918 145.255C265.618 145.73 265.269 146.154 264.869 146.504L278.204 162.261C278.204 162.261 278.254 162.211 278.329 162.161C278.429 162.061 278.504 162.011 278.554 161.936C278.653 161.836 278.728 161.761 278.778 161.661C278.878 161.561 278.928 161.462 279.003 161.362C279.103 161.237 279.178 161.137 279.228 161.012C279.328 160.862 279.403 160.712 279.452 160.563C279.627 160.213 279.752 159.838 279.802 159.489L266.492 143.682C266.392 144.231 266.193 144.731 265.918 145.23V145.255Z" fill="#A1ADB7"></path><path d="M287.094 116.937C287.094 116.937 287.094 116.763 287.044 116.663C287.044 116.613 287.019 116.513 286.994 116.463C286.994 116.413 286.944 116.338 286.894 116.288C286.894 116.238 286.845 116.188 286.795 116.138C286.77 116.088 286.745 116.038 286.695 115.988C286.695 115.988 286.695 115.964 286.67 115.939L273.36 100.132C273.535 100.331 273.66 100.581 273.71 100.831C273.759 101.105 273.809 101.405 273.71 101.73L266.468 143.682L279.778 159.489L287.044 117.587C287.069 117.362 287.094 117.137 287.044 116.937H287.094Z" fill="#EAEAED"></path><path d="M279.453 160.612C279.628 160.263 279.753 159.888 279.803 159.539L266.493 143.732C266.393 144.281 266.193 144.78 265.919 145.28C265.619 145.754 265.269 146.179 264.87 146.529C264.47 146.878 263.971 147.203 263.471 147.402C262.947 147.602 262.423 147.752 261.823 147.777L275.133 163.584C275.508 163.584 275.907 163.484 276.257 163.409C276.432 163.359 276.581 163.284 276.756 163.234C276.881 163.184 277.031 163.11 277.131 163.06C277.256 163.01 277.356 162.935 277.455 162.885C277.555 162.835 277.655 162.76 277.755 162.685C277.855 162.635 277.93 162.535 278.03 162.485C278.08 162.46 278.13 162.385 278.155 162.36C278.18 162.335 278.205 162.31 278.279 162.261C278.379 162.161 278.454 162.111 278.504 162.036C278.604 161.936 278.679 161.861 278.729 161.761C278.829 161.661 278.879 161.561 278.954 161.461C279.054 161.337 279.128 161.237 279.178 161.112C279.278 160.962 279.353 160.812 279.403 160.662L279.453 160.612Z" fill="#EAEAED"></path><path d="M261.774 147.827L275.084 163.634L250.637 164.533L237.327 148.776L261.774 147.827Z" fill="#EAEAED"></path><path d="M287.045 116.688C287.045 116.638 287.02 116.538 286.995 116.488C286.995 116.438 286.945 116.363 286.895 116.313C286.895 116.263 286.845 116.213 286.795 116.163C286.77 116.113 286.745 116.063 286.695 116.013C286.695 116.013 286.695 115.988 286.67 115.963L273.36 100.156C273.535 100.356 273.66 100.606 273.71 100.856C273.76 101.13 273.81 101.43 273.71 101.755L266.468 143.682C266.368 144.231 266.169 144.731 265.894 145.23C265.594 145.705 265.245 146.129 264.845 146.479C264.446 146.828 263.946 147.153 263.447 147.353C262.922 147.552 262.398 147.702 261.799 147.727L237.352 148.676L250.661 164.483L275.108 163.534C275.483 163.534 275.883 163.434 276.232 163.359C276.407 163.309 276.557 163.235 276.732 163.185C276.856 163.135 277.006 163.06 277.106 163.01C277.231 162.96 277.331 162.885 277.431 162.835C277.531 162.785 277.631 162.71 277.73 162.635C277.83 162.585 277.905 162.485 278.005 162.435C278.055 162.41 278.105 162.336 278.13 162.311C278.155 162.286 278.18 162.261 278.255 162.211C278.355 162.111 278.43 162.061 278.48 161.986C278.58 161.886 278.654 161.811 278.704 161.711C278.804 161.611 278.854 161.511 278.929 161.412C279.029 161.287 279.104 161.187 279.154 161.062C279.254 160.912 279.329 160.762 279.379 160.613C279.553 160.263 279.678 159.888 279.728 159.539L286.995 117.637C287.02 117.412 287.045 117.187 286.995 116.987C286.995 116.887 286.995 116.812 286.945 116.713L287.045 116.688Z" fill="#222425" stroke="#222425" stroke-width="1.29067" stroke-linecap="round" stroke-linejoin="round"></path><path d="M272.861 198.045C273.385 197.021 273.91 195.997 274.384 194.948C274.509 194.724 274.609 194.499 274.709 194.274C274.834 194.049 274.884 193.825 275.009 193.6C275.558 192.376 276.082 191.128 276.582 189.879C276.707 189.579 276.807 189.305 276.931 189.005C277.506 187.482 278.055 185.934 278.555 184.385C278.679 184.011 278.779 183.611 278.904 183.212C279.279 181.988 279.603 180.74 279.928 179.516C280.053 179.041 280.153 178.617 280.278 178.143C280.652 176.569 281.002 174.946 281.276 173.348L267.967 157.541C267.667 159.164 267.342 160.762 266.968 162.336C266.843 162.81 266.743 163.235 266.618 163.709C266.294 164.933 265.969 166.181 265.594 167.405C265.469 167.779 265.37 168.204 265.245 168.578C264.745 170.127 264.221 171.675 263.622 173.198C263.497 173.498 263.397 173.772 263.272 174.072C262.773 175.321 262.248 176.569 261.699 177.793C261.499 178.267 261.299 178.692 261.074 179.141C260.575 180.19 260.076 181.214 259.551 182.238C259.351 182.612 259.177 183.012 258.977 183.362C258.253 184.735 257.479 186.083 256.679 187.432C256.63 187.557 256.53 187.657 256.455 187.782C255.106 189.979 253.708 192.152 252.185 194.249C252.06 194.399 251.985 194.549 251.86 194.699C250.537 196.522 249.163 198.27 247.74 199.993C247.64 200.092 247.59 200.167 247.515 200.292C246.191 201.865 244.818 203.389 243.42 204.887C243.145 205.162 242.895 205.436 242.621 205.711C241.272 207.084 239.899 208.458 238.45 209.781C238.176 210.006 237.926 210.281 237.626 210.506C236.278 211.729 234.904 212.928 233.456 214.076C233.306 214.201 233.156 214.351 233.007 214.451C231.483 215.675 229.91 216.848 228.312 217.997C227.987 218.222 227.663 218.471 227.313 218.696C225.665 219.845 223.992 220.944 222.294 222.017C222.019 222.192 221.769 222.342 221.495 222.492C219.597 223.641 217.649 224.739 215.651 225.763C215.551 225.788 215.501 225.813 215.427 225.888C213.079 227.087 210.707 228.21 208.31 229.234C208.11 229.334 207.91 229.384 207.685 229.459C206.462 229.958 205.213 230.458 203.99 230.907C203.515 231.082 203.041 231.232 202.541 231.407C201.517 231.756 200.519 232.081 199.495 232.406C198.995 232.555 198.521 232.705 198.021 232.855C196.648 233.255 195.275 233.629 193.851 233.979C193.651 234.029 193.452 234.104 193.227 234.129C191.654 234.503 190.056 234.803 188.457 235.102C188.008 235.202 187.583 235.252 187.134 235.302C185.91 235.502 184.712 235.652 183.463 235.802C182.989 235.852 182.514 235.927 182.065 235.952C180.441 236.101 178.818 236.251 177.195 236.301C155.27 237.15 137.016 228.984 125.404 215.2L138.714 231.007C150.326 244.791 168.555 252.932 190.505 252.108C192.153 252.058 193.751 251.933 195.374 251.758C195.849 251.709 196.323 251.634 196.773 251.609C197.996 251.459 199.195 251.309 200.444 251.109C200.893 251.059 201.318 250.959 201.767 250.909C203.34 250.61 204.964 250.335 206.537 249.936C206.736 249.886 206.936 249.811 207.161 249.786C208.534 249.461 209.958 249.087 211.281 248.662C211.481 248.612 211.681 248.537 211.906 248.487C212.205 248.387 212.455 248.287 212.755 248.188C213.778 247.863 214.802 247.538 215.801 247.189C216.276 247.014 216.75 246.864 217.249 246.689C218.473 246.24 219.722 245.74 220.945 245.241C221.12 245.141 221.32 245.091 221.495 245.041C221.495 245.041 221.545 245.041 221.545 245.016C223.967 243.992 226.339 242.869 228.686 241.67C228.736 241.67 228.811 241.62 228.836 241.62C228.836 241.62 228.861 241.62 228.886 241.595C230.859 240.571 232.807 239.448 234.73 238.324C234.904 238.224 235.054 238.149 235.229 238.024C235.329 237.974 235.404 237.899 235.529 237.849C237.227 236.801 238.9 235.677 240.548 234.528C240.698 234.403 240.873 234.328 241.022 234.228C241.197 234.104 241.372 233.954 241.547 233.854C243.12 232.705 244.718 231.532 246.241 230.283C246.266 230.258 246.341 230.233 246.366 230.183C246.491 230.083 246.566 230.008 246.691 229.908C248.139 228.735 249.513 227.536 250.861 226.313C251.036 226.163 251.211 226.013 251.386 225.863C251.485 225.763 251.56 225.688 251.685 225.588C253.134 224.265 254.507 222.916 255.855 221.518C255.98 221.393 256.08 221.293 256.205 221.168C256.355 221.019 256.505 220.844 256.655 220.669C258.053 219.171 259.451 217.647 260.75 216.074C260.75 216.074 260.8 216.024 260.8 215.974C260.85 215.924 260.925 215.825 260.975 215.775C262.423 214.052 263.796 212.279 265.07 210.481C265.17 210.356 265.245 210.281 265.295 210.181C265.295 210.156 265.345 210.081 265.395 210.056C266.918 207.958 268.316 205.786 269.665 203.588C269.715 203.489 269.765 203.439 269.814 203.364C269.814 203.339 269.864 203.264 269.864 203.239C270.664 201.89 271.413 200.542 272.162 199.169C272.362 198.794 272.536 198.394 272.736 198.045H272.861Z" fill="black" stroke="#222425" stroke-width="1.29067" stroke-linecap="round" stroke-linejoin="round"></path><path d="M221.57 222.492C219.672 223.641 217.724 224.739 215.727 225.763C215.627 225.788 215.577 225.813 215.502 225.888C213.154 227.087 210.782 228.21 208.385 229.234C208.185 229.334 207.985 229.384 207.761 229.459C206.537 229.958 205.288 230.458 204.065 230.907C203.59 231.082 203.116 231.232 202.616 231.407C201.593 231.756 200.594 232.081 199.57 232.406C199.071 232.555 198.596 232.705 198.097 232.855C196.723 233.255 195.35 233.629 193.926 233.979C193.727 234.029 193.527 234.104 193.302 234.129C191.729 234.503 190.131 234.803 188.533 235.102C188.083 235.202 187.659 235.252 187.209 235.302C185.985 235.502 184.787 235.652 183.538 235.802C183.064 235.852 182.589 235.927 182.14 235.952C180.517 236.101 178.894 236.251 177.27 236.301C155.345 237.15 137.091 228.984 125.479 215.2L138.789 231.007C150.401 244.791 168.63 252.932 190.58 252.108C192.228 252.058 193.826 251.933 195.45 251.758C195.924 251.709 196.399 251.634 196.848 251.609C198.072 251.459 199.27 251.309 200.519 251.109C200.968 251.059 201.393 250.959 201.842 250.909C203.416 250.61 205.039 250.335 206.612 249.936C206.812 249.886 207.011 249.811 207.236 249.786C208.61 249.461 210.033 249.087 211.381 248.662C211.581 248.612 211.781 248.537 212.006 248.487C212.305 248.387 212.555 248.287 212.855 248.188C213.879 247.863 214.902 247.538 215.901 247.189C216.376 247.014 216.85 246.864 217.35 246.689C218.573 246.24 219.822 245.74 221.045 245.241C221.22 245.141 221.42 245.091 221.595 245.041C221.595 245.041 221.645 245.041 221.645 245.016C224.067 243.992 226.439 242.869 228.787 241.67C228.837 241.67 228.911 241.62 228.936 241.62C228.936 241.62 228.961 241.62 228.986 241.595C230.959 240.571 232.907 239.448 234.83 238.324C235.004 238.224 235.154 238.149 235.329 238.024C235.429 237.974 235.504 237.899 235.629 237.849C237.327 236.801 239 235.677 240.648 234.528C240.698 234.478 240.773 234.428 240.848 234.403L227.338 218.746C225.69 219.895 224.017 220.994 222.319 222.067C222.044 222.242 221.795 222.392 221.52 222.542L221.57 222.492Z" fill="black"></path><path d="M272.861 198.045C273.385 197.021 273.91 195.997 274.384 194.948C274.509 194.724 274.609 194.499 274.709 194.274C274.834 194.049 274.884 193.825 275.009 193.6C275.558 192.376 276.082 191.128 276.582 189.879C276.707 189.579 276.807 189.305 276.931 189.005C277.506 187.482 278.055 185.934 278.555 184.385C278.679 184.011 278.779 183.611 278.904 183.212C279.279 181.988 279.603 180.74 279.928 179.516C280.053 179.041 280.153 178.617 280.278 178.143C280.652 176.569 281.002 174.946 281.276 173.348L267.967 157.541C267.667 159.164 267.342 160.762 266.968 162.336C266.843 162.81 266.743 163.235 266.618 163.709C266.294 164.933 265.969 166.181 265.594 167.405C265.469 167.779 265.37 168.204 265.245 168.578C264.745 170.127 264.221 171.675 263.622 173.198C263.497 173.498 263.397 173.772 263.272 174.072C262.773 175.321 262.248 176.569 261.699 177.793C261.499 178.267 261.299 178.692 261.074 179.141C260.575 180.19 260.076 181.214 259.551 182.238C259.351 182.612 259.177 183.012 258.977 183.362C258.253 184.735 257.479 186.083 256.679 187.432C256.63 187.557 256.53 187.657 256.455 187.782C255.106 189.979 253.708 192.152 252.185 194.249C252.06 194.399 251.985 194.549 251.86 194.699C250.537 196.522 249.163 198.27 247.74 199.993C247.64 200.092 247.59 200.167 247.515 200.292C246.191 201.865 244.818 203.389 243.42 204.887C243.145 205.162 242.895 205.436 242.621 205.711C241.272 207.084 239.899 208.458 238.45 209.781C238.176 210.006 237.926 210.281 237.626 210.506C236.278 211.729 234.904 212.928 233.456 214.076C233.306 214.201 233.156 214.351 233.007 214.451C231.483 215.675 229.91 216.848 228.312 217.997C227.987 218.222 227.663 218.471 227.313 218.696C225.665 219.845 223.992 220.944 222.294 222.017C222.019 222.192 221.769 222.342 221.495 222.492C219.597 223.641 217.649 224.739 215.651 225.763C215.551 225.788 215.501 225.813 215.427 225.888C213.079 227.087 210.707 228.21 208.31 229.234C208.11 229.334 207.91 229.384 207.685 229.459C206.462 229.958 205.213 230.458 203.99 230.907C203.515 231.082 203.041 231.232 202.541 231.407C201.517 231.756 200.519 232.081 199.495 232.406C198.995 232.555 198.521 232.705 198.021 232.855C196.648 233.255 195.275 233.629 193.851 233.979C193.651 234.029 193.452 234.104 193.227 234.129C191.654 234.503 190.056 234.803 188.457 235.102C188.008 235.202 187.583 235.252 187.134 235.302C185.91 235.502 184.712 235.652 183.463 235.802C182.989 235.852 182.514 235.927 182.065 235.952C180.441 236.101 178.818 236.251 177.195 236.301C155.27 237.15 137.016 228.984 125.404 215.2L138.714 231.007C150.326 244.791 168.555 252.932 190.505 252.108C192.153 252.058 193.751 251.933 195.374 251.758C195.849 251.709 196.323 251.634 196.773 251.609C197.996 251.459 199.195 251.309 200.444 251.109C200.893 251.059 201.318 250.959 201.767 250.909C203.34 250.61 204.964 250.335 206.537 249.936C206.736 249.886 206.936 249.811 207.161 249.786C208.534 249.461 209.958 249.087 211.281 248.662C211.481 248.612 211.681 248.537 211.906 248.487C212.205 248.387 212.455 248.287 212.755 248.188C213.778 247.863 214.802 247.538 215.801 247.189C216.276 247.014 216.75 246.864 217.249 246.689C218.473 246.24 219.722 245.74 220.945 245.241C221.12 245.141 221.32 245.091 221.495 245.041C221.495 245.041 221.545 245.041 221.545 245.016C223.967 243.992 226.339 242.869 228.686 241.67C228.736 241.67 228.811 241.62 228.836 241.62C228.836 241.62 228.861 241.62 228.886 241.595C230.859 240.571 232.807 239.448 234.73 238.324C234.904 238.224 235.054 238.149 235.229 238.024C235.329 237.974 235.404 237.899 235.529 237.849C237.227 236.801 238.9 235.677 240.548 234.528C240.698 234.403 240.873 234.328 241.022 234.228C241.197 234.104 241.372 233.954 241.547 233.854C243.12 232.705 244.718 231.532 246.241 230.283C246.266 230.258 246.341 230.233 246.366 230.183C246.491 230.083 246.566 230.008 246.691 229.908C248.139 228.735 249.513 227.536 250.861 226.313C251.036 226.163 251.211 226.013 251.386 225.863C251.485 225.763 251.56 225.688 251.685 225.588C253.134 224.265 254.507 222.916 255.855 221.518C255.98 221.393 256.08 221.293 256.205 221.168C256.355 221.019 256.505 220.844 256.655 220.669C258.053 219.171 259.451 217.647 260.75 216.074C260.75 216.074 260.8 216.024 260.8 215.974C260.85 215.924 260.925 215.825 260.975 215.775C262.423 214.052 263.796 212.279 265.07 210.481C265.17 210.356 265.245 210.281 265.295 210.181C265.295 210.156 265.345 210.081 265.395 210.056C266.918 207.958 268.316 205.786 269.665 203.588C269.715 203.489 269.765 203.439 269.815 203.364C269.815 203.339 269.864 203.264 269.864 203.239C270.664 201.89 271.413 200.542 272.162 199.169C272.362 198.794 272.536 198.394 272.736 198.045H272.861Z" stroke="#222425" stroke-width="1.29067" stroke-linecap="round" stroke-linejoin="round"></path><path d="M122.482 211.155L111.495 220.719C111.195 220.994 110.921 221.168 110.596 221.268C110.296 221.393 109.972 221.443 109.697 221.468C109.023 221.468 108.398 221.243 108.024 220.794L121.334 236.601C121.708 237.075 122.333 237.3 123.007 237.275C123.207 237.275 123.456 237.225 123.656 237.15C123.756 237.15 123.831 237.1 123.931 237.05C124.031 237.025 124.081 237 124.156 236.926C124.205 236.901 124.305 236.876 124.355 236.801C124.405 236.776 124.48 236.701 124.53 236.676C124.58 236.651 124.655 236.576 124.705 236.526C124.73 236.526 124.755 236.476 124.805 236.426L135.792 226.862L122.457 211.105L122.482 211.155Z" fill="black" stroke="#222425" stroke-width="1.29067" stroke-linecap="round" stroke-linejoin="round"></path><path d="M111.495 220.694C111.195 220.969 110.921 221.143 110.596 221.243C110.296 221.368 109.972 221.418 109.697 221.443C109.023 221.443 108.398 221.218 108.024 220.769L121.334 236.576C121.708 237.05 122.333 237.275 123.007 237.25C123.207 237.25 123.456 237.2 123.656 237.125C123.756 237.125 123.831 237.075 123.931 237.025C124.031 237 124.081 236.975 124.156 236.9C124.205 236.875 124.305 236.85 124.355 236.776C124.405 236.751 124.48 236.676 124.53 236.651C124.58 236.626 124.655 236.551 124.705 236.501C124.73 236.501 124.755 236.451 124.805 236.401L111.495 220.594V220.694Z" fill="#222425"></path><path d="M122.482 211.155L111.495 220.719C111.195 220.994 110.921 221.168 110.596 221.268C110.296 221.393 109.972 221.443 109.697 221.468C109.023 221.468 108.398 221.243 108.024 220.794L121.334 236.601C121.708 237.075 122.333 237.3 123.007 237.275C123.207 237.275 123.456 237.225 123.656 237.15C123.756 237.15 123.831 237.1 123.931 237.05C124.031 237.025 124.081 237 124.156 236.926C124.205 236.901 124.305 236.876 124.355 236.801C124.405 236.776 124.48 236.701 124.53 236.676C124.58 236.651 124.655 236.576 124.705 236.526C124.73 236.526 124.755 236.476 124.805 236.426L135.792 226.862L122.457 211.105L122.482 211.155Z" stroke="#222425" stroke-width="1.29067" stroke-linecap="round" stroke-linejoin="round"></path><path d="M144.433 162.236L157.743 178.043L126.728 179.216L113.418 163.409L144.433 162.236Z" fill="black" stroke="#222425" stroke-width="1.29067" stroke-linecap="round" stroke-linejoin="round"></path><path d="M177.819 189.429C177.819 189.28 177.844 189.105 177.819 188.955C177.819 188.855 177.819 188.755 177.769 188.655C177.769 188.605 177.744 188.506 177.719 188.456C177.719 188.406 177.669 188.331 177.619 188.281C177.619 188.231 177.569 188.156 177.519 188.131C177.494 188.081 177.469 188.031 177.419 187.981C177.419 187.981 177.419 187.956 177.394 187.931L164.084 172.124C163.735 171.725 163.185 171.45 162.461 171.475L164.459 173.847C164.409 174.122 164.334 174.372 164.184 174.646C164.184 174.646 164.184 174.646 164.184 174.671C164.009 174.971 163.81 175.246 163.485 175.52L150.6 186.708L163.909 202.515L176.795 191.327C176.795 191.327 176.845 191.277 176.895 191.277C176.945 191.227 177.019 191.177 177.044 191.128C177.094 191.078 177.144 191.003 177.194 190.953C177.244 190.903 177.294 190.828 177.344 190.778C177.394 190.728 177.444 190.628 177.494 190.578C177.494 190.578 177.494 190.553 177.519 190.528C177.519 190.528 177.519 190.528 177.519 190.503C177.544 190.453 177.569 190.378 177.619 190.328C177.744 190.104 177.794 189.854 177.819 189.654C177.819 189.629 177.819 189.554 177.819 189.529V189.429Z" fill="#767E87" stroke="#222425" stroke-width="1.29067" stroke-linecap="round" stroke-linejoin="round"></path><path d="M237.326 148.776L221.194 149.4L217.873 145.455C217.873 145.455 217.848 145.48 217.823 145.505C217.773 145.555 217.698 145.63 217.648 145.655C217.598 145.705 217.523 145.779 217.498 145.829C217.448 145.879 217.398 145.954 217.348 146.004C217.298 146.054 217.248 146.154 217.199 146.204C217.199 146.204 217.199 146.229 217.174 146.254C217.174 146.254 217.174 146.254 217.174 146.279C217.149 146.329 217.124 146.404 217.074 146.454C216.949 146.678 216.899 146.928 216.874 147.128C216.874 147.153 216.874 147.178 216.874 147.253C216.874 147.428 216.849 147.577 216.874 147.752C216.874 147.852 216.874 147.952 216.924 148.052C216.924 148.102 216.949 148.202 216.974 148.252C216.974 148.302 217.024 148.376 217.074 148.426C217.074 148.476 217.124 148.551 217.174 148.576C217.199 148.626 217.223 148.676 217.273 148.726V148.776L230.608 164.583C230.958 164.983 231.507 165.257 232.256 165.232L250.66 164.533L237.351 148.726L237.326 148.776Z" fill="#767E87" stroke="#222425" stroke-width="1.29067" stroke-linecap="round" stroke-linejoin="round"></path><path d="M236.728 158.715L250.037 174.522L247.54 174.621L234.23 158.814L236.728 158.715Z" fill="#EAEAED" stroke="#222425" stroke-width="1.29067" stroke-linecap="round" stroke-linejoin="round"></path><path d="M237.326 148.776C237.501 151.972 237.326 155.294 236.752 158.715L250.062 174.522C250.636 171.101 250.861 167.754 250.636 164.583L237.326 148.776Z" fill="black" stroke="#222425" stroke-width="1.29067" stroke-miterlimit="10"></path><g filter="url(#filter0_b_12_14039)"><path d="M204.04 84.6492C228.013 83.7502 247.59 93.6139 258.902 109.795L269.89 100.231C270.464 99.732 271.114 99.4573 271.738 99.4573C272.986 99.4073 274.035 100.306 273.76 101.78L266.494 143.682C266.119 145.879 263.997 147.702 261.774 147.777L237.327 148.726L218.923 149.425C216.726 149.525 216.076 147.003 217.899 145.38L230.785 134.193C224.716 123.68 212.955 117.087 198.322 117.637C174.149 118.585 151.225 138.463 147.155 162.111L144.458 162.236L113.418 163.409C120.66 121.557 161.214 86.2973 204.04 84.6492Z" fill="white"></path><path d="M204.04 84.6492C228.013 83.7502 247.59 93.6139 258.902 109.795L269.89 100.231C270.464 99.732 271.114 99.4573 271.738 99.4573C272.986 99.4073 274.035 100.306 273.76 101.78L266.494 143.682C266.119 145.879 263.997 147.702 261.774 147.777L237.327 148.726L218.923 149.425C216.726 149.525 216.076 147.003 217.899 145.38L230.785 134.193C224.716 123.68 212.955 117.087 198.322 117.637C174.149 118.585 151.225 138.463 147.155 162.111L144.458 162.236L113.418 163.409C120.66 121.557 161.214 86.2973 204.04 84.6492Z" stroke="#222425" stroke-width="1.29067" stroke-linecap="round" stroke-linejoin="round"></path></g><path d="M267.991 157.516C260.749 199.393 220.171 234.653 177.369 236.301C153.372 237.2 133.794 227.361 122.482 211.18L111.495 220.744C110.92 221.243 110.271 221.468 109.672 221.518C108.423 221.568 107.374 220.644 107.624 219.196L114.891 177.244C115.265 175.071 117.388 173.223 119.61 173.148L143.858 172.199L162.486 171.5C164.659 171.4 165.308 173.972 163.51 175.546L150.625 186.733C156.668 197.296 168.405 203.888 183.088 203.314C207.26 202.365 230.159 182.463 234.23 158.815L236.727 158.715L267.966 157.516H267.991Z" fill="#D0F500" stroke="#222425" stroke-width="1.29067" stroke-linecap="round" stroke-linejoin="round"></path><path d="M198.296 117.686C212.954 117.137 224.716 123.73 230.759 134.243L217.874 145.43C216.051 147.003 216.7 149.525 218.898 149.475L237.302 148.776C237.476 151.972 237.302 155.294 236.727 158.715L234.23 158.814C230.135 182.462 207.236 202.365 183.088 203.314C168.405 203.863 156.644 197.271 150.626 186.733L163.511 175.545C165.309 173.997 164.66 171.45 162.487 171.5L143.858 172.199C143.683 169.003 143.858 165.682 144.433 162.261L147.13 162.136C151.225 138.513 174.149 118.585 198.296 117.661V117.686Z" fill="black" stroke="#222425" stroke-width="1.29067" stroke-miterlimit="10"></path><path d="M205.613 156.742C207.861 159.139 208.485 162.66 207.736 167.055C206.262 175.545 198.996 181.014 189.981 182.363L189.806 183.337L188.907 188.73L181.765 189.005L182.664 183.611L182.789 182.937C176.047 182.937 171.078 181.414 167.232 177.044L174.499 170.576H174.673C176.996 173.123 180.417 174.122 184.262 174.272L186.435 161.586L185.112 161.462C180.941 161.062 177.82 159.614 176.022 157.616C174.024 155.319 173.35 152.222 174.049 148.052C175.423 140.011 181.965 133.893 191.379 132.594L192.328 127.051L199.47 126.776L198.521 132.22C204.215 132.37 208.31 133.968 211.506 137.464L204.265 143.707C202.467 141.834 199.67 141.01 197.048 140.735L194.975 152.921L196.648 153.121C201.143 153.645 203.84 154.794 205.613 156.692V156.742ZM191.429 173.723C195.175 172.898 197.497 170.826 198.047 167.679C198.346 165.956 198.072 164.508 197.198 163.584C196.224 162.535 194.875 162.261 193.452 162.061L191.454 173.723M187.983 152.497L189.906 141.21C186.235 142.109 184.138 144.531 183.638 147.353C183.438 148.601 183.613 149.9 184.512 150.849C185.311 151.698 186.485 152.222 187.983 152.497Z" fill="#D0F500"></path><path d="M148.304 231.482C139.239 227.811 131.548 222.242 125.58 215.175L138.889 230.982C144.758 237.924 152.324 243.443 161.164 247.114L148.304 231.482Z" fill="#222425" stroke="#222425" stroke-width="1.29067" stroke-miterlimit="10"></path><path d="M199.62 232.381C201.542 227.037 203.49 221.693 205.463 216.349C210.233 214.451 216.575 211.355 223.143 206.335C230.434 200.742 235.354 194.798 238.5 190.354H254.857C259.476 195.298 264.121 200.292 268.741 205.237C263.996 212.678 255.481 223.94 241.697 233.804C230.884 241.545 220.471 245.79 212.954 248.188C208.534 242.919 204.065 237.675 199.645 232.381H199.62Z" stroke="#222425" stroke-width="1.29067" stroke-linecap="round" stroke-linejoin="round"></path><path d="M131.172 124.004L147.204 125.328C150.4 121.407 155.244 116.338 162.012 111.618C168.529 107.074 174.672 104.352 179.342 102.679C180.291 97.909 181.215 93.1644 182.164 88.3699C174.972 90.6173 165.058 94.6127 154.595 101.83C143.483 109.471 135.966 117.861 131.247 124.004H131.172Z" fill="#D0F500" stroke="#222425" stroke-width="1.29067" stroke-linecap="round" stroke-linejoin="round"></path></g></g><defs><filter id="filter0_b_12_14039" x="90.3729" y="61.5473" width="206.477" height="124.907" filterUnits="userSpaceOnUse" color-interpolation-filters="sRGB"><feFlood flood-opacity="0" result="BackgroundImageFix"></feFlood><feGaussianBlur in="BackgroundImageFix" stdDeviation="11.2"></feGaussianBlur><feComposite in2="SourceAlpha" operator="in" result="effect1_backgroundBlur_12_14039"></feComposite><feBlend mode="normal" in="SourceGraphic" in2="effect1_backgroundBlur_12_14039" result="shape"></feBlend></filter><clipPath id="clip0_12_14039"><rect width="394" height="328" fill="white"></rect></clipPath></defs></svg>