<svg class="wh-32px hover:bg-main-color cursor-pointer rounded-full" width="18" height="18" viewBox="0 0 18 18"
	fill="none" xmlns="http://www.w3.org/2000/svg">
	<path
		d="M12.8401 8.73984H5.15969C5.0732 8.73984 4.99025 8.70704 4.92908 8.64865C4.86792 8.59026 4.83356 8.51107 4.83356 8.4285C4.83356 8.34592 4.86792 8.26673 4.92908 8.20834C4.99025 8.14996 5.0732 8.11715 5.15969 8.11715H11.9832L9.74348 6.21329C9.71136 6.18616 9.68515 6.15324 9.66635 6.11644C9.64755 6.07963 9.63654 6.03965 9.63392 5.99878C9.63131 5.9579 9.63716 5.91694 9.65113 5.87822C9.6651 5.83951 9.68692 5.8038 9.71535 5.77313C9.74378 5.74247 9.77825 5.71745 9.81681 5.69951C9.85536 5.68156 9.89724 5.67104 9.94006 5.66855C9.98287 5.66605 10.0258 5.67164 10.0663 5.68497C10.1069 5.69831 10.1443 5.71914 10.1764 5.74628L13.057 8.19343C13.1067 8.23533 13.1419 8.29071 13.1579 8.35219C13.1738 8.41367 13.1697 8.47833 13.1461 8.53754C13.1226 8.59674 13.0806 8.64768 13.026 8.68355C12.9713 8.71941 12.9064 8.73851 12.8401 8.73828V8.73984ZM8.03944 13.1695C7.95988 13.1695 7.88304 13.1419 7.82338 13.0916L4.94282 10.6429C4.89306 10.601 4.85787 10.5456 4.84194 10.4842C4.82601 10.4227 4.8301 10.358 4.85367 10.2988C4.87723 10.2396 4.91915 10.1887 4.97383 10.1528C5.02851 10.1169 5.09335 10.0978 5.15969 10.0981H12.8401C12.9266 10.0981 13.0096 10.1309 13.0707 10.1893C13.1319 10.2477 13.1662 10.3268 13.1662 10.4094C13.1662 10.492 13.1319 10.5712 13.0707 10.6296C13.0096 10.688 12.9266 10.7208 12.8401 10.7208H6.01661L8.25632 12.6246C8.30608 12.6665 8.34127 12.7219 8.3572 12.7834C8.37312 12.8449 8.36903 12.9095 8.34547 12.9687C8.3219 13.0279 8.27998 13.0789 8.2253 13.1147C8.17062 13.1506 8.10578 13.1697 8.03944 13.1695Z"
		fill="#fff" stroke="#fff" stroke-width="0.5"></path>
	<path
		d="M16.7349 9.00297C16.7349 13.2749 13.2718 16.738 8.99992 16.738C4.72799 16.738 1.26492 13.2749 1.26492 9.00297C1.26492 4.73105 4.72799 1.26797 8.99992 1.26797C13.2718 1.26797 16.7349 4.73105 16.7349 9.00297Z"
		stroke="#fff" stroke-width="1.2"></path>
</svg>