<svg class="wh-32px hover:bg-main-color cursor-pointer rounded-full" width="18" height="18" viewBox="0 0 18 18"
	fill="none" xmlns="http://www.w3.org/2000/svg">
	<path fill-rule="evenodd" clip-rule="evenodd"
		d="M6.09573 8.2284C6.05814 8.17212 6.03807 8.10595 6.03809 8.03826C6.03838 7.99312 6.04762 7.94848 6.06529 7.90694C6.08296 7.8654 6.1087 7.82778 6.14102 7.79626L9.10407 4.83376L12.0671 7.79626C12.0989 7.82804 12.1241 7.86577 12.1413 7.90729C12.1585 7.94881 12.1674 7.99332 12.1674 8.03826C12.1674 8.0832 12.1585 8.1277 12.1413 8.16922C12.1241 8.21075 12.0989 8.24847 12.0671 8.28025C12.0353 8.31203 11.9976 8.33724 11.9561 8.35444C11.9146 8.37164 11.8701 8.38049 11.8251 8.38049C11.7802 8.38049 11.7357 8.37164 11.6942 8.35444C11.6526 8.33724 11.6149 8.31203 11.5831 8.28025L9.44633 6.14345L9.44633 13.0523C9.44633 13.1431 9.41028 13.2301 9.34611 13.2943C9.28193 13.3585 9.1949 13.3945 9.10414 13.3945C9.01339 13.3945 8.92635 13.3585 8.86218 13.2943C8.79801 13.2301 8.76196 13.1431 8.76196 13.0523L8.76196 6.14292L6.62227 8.28025C6.57441 8.32812 6.51343 8.36072 6.44705 8.37393C6.38066 8.38714 6.31185 8.38036 6.24931 8.35446C6.18678 8.32855 6.13333 8.28468 6.09573 8.2284Z"
		fill="#fff"></path>
	<path
		d="M6.03809 8.03826L5.78808 8.03821L5.78809 8.03666L6.03809 8.03826ZM6.09573 8.2284L5.88785 8.36727L5.88785 8.36727L6.09573 8.2284ZM6.14102 7.79626L6.31779 7.97307L6.31557 7.97524L6.14102 7.79626ZM9.10407 4.83376L8.92731 4.65697L9.10407 4.48024L9.28083 4.65697L9.10407 4.83376ZM12.0671 7.79626L12.2439 7.61947L12.2439 7.61949L12.0671 7.79626ZM12.1413 7.90729L12.3723 7.81162L12.3723 7.81162L12.1413 7.90729ZM12.1413 8.16922L12.3723 8.26489L12.3723 8.2649L12.1413 8.16922ZM12.0671 8.28025L12.2439 8.45703L12.2439 8.45703L12.0671 8.28025ZM11.9561 8.35444L11.8604 8.12347L11.8604 8.12347L11.9561 8.35444ZM11.6942 8.35444L11.7898 8.12347L11.7898 8.12347L11.6942 8.35444ZM11.5831 8.28025L11.4064 8.45703L11.4064 8.45703L11.5831 8.28025ZM9.44633 6.14345L9.19633 6.14345L9.19633 5.53989L9.62311 5.96667L9.44633 6.14345ZM9.34611 13.2943L9.52288 13.4711L9.52288 13.4711L9.34611 13.2943ZM8.76196 6.14292L8.58528 5.96605L9.01196 5.53984L9.01196 6.14292L8.76196 6.14292ZM6.62227 8.28025L6.44547 8.1035L6.44559 8.10338L6.62227 8.28025ZM6.44705 8.37393L6.49583 8.61912L6.49583 8.61912L6.44705 8.37393ZM6.24931 8.35446L6.34499 8.12349L6.34499 8.12349L6.24931 8.35446ZM6.28809 8.03831C6.28808 8.05654 6.29349 8.07437 6.30362 8.08953L5.88785 8.36727C5.82278 8.26986 5.78806 8.15535 5.78809 8.03821L6.28809 8.03831ZM6.29535 8.0048C6.29063 8.01589 6.28816 8.02781 6.28808 8.03986L5.78809 8.03666C5.78859 7.95843 5.80462 7.88108 5.83524 7.80909L6.29535 8.0048ZM6.31557 7.97524C6.30694 7.98365 6.30007 7.9937 6.29535 8.0048L5.83524 7.80909C5.86586 7.73711 5.91046 7.67191 5.96646 7.61729L6.31557 7.97524ZM9.28083 5.01055L6.31778 7.97306L5.96426 7.61947L8.92731 4.65697L9.28083 5.01055ZM11.8904 7.97306L8.92731 5.01055L9.28083 4.65697L12.2439 7.61947L11.8904 7.97306ZM11.9103 8.00296C11.9057 7.99177 11.8989 7.98161 11.8903 7.97304L12.2439 7.61949C12.2989 7.67448 12.3425 7.73977 12.3723 7.81162L11.9103 8.00296ZM11.9174 8.03826C11.9174 8.02615 11.915 8.01415 11.9103 8.00296L12.3723 7.81162C12.402 7.88347 12.4174 7.96048 12.4174 8.03826L11.9174 8.03826ZM11.9103 8.07355C11.915 8.06236 11.9174 8.05037 11.9174 8.03826L12.4174 8.03826C12.4174 8.11603 12.402 8.19304 12.3723 8.26489L11.9103 8.07355ZM11.8903 8.10348C11.8989 8.09491 11.9057 8.08474 11.9103 8.07355L12.3723 8.2649C12.3425 8.33675 12.2989 8.40203 12.2439 8.45703L11.8903 8.10348ZM11.8604 8.12347C11.8716 8.11883 11.8818 8.11204 11.8903 8.10347L12.2439 8.45703C12.1889 8.51202 12.1236 8.55565 12.0518 8.58541L11.8604 8.12347ZM11.8251 8.13049C11.8372 8.13049 11.8492 8.1281 11.8604 8.12347L12.0518 8.58541C11.9799 8.61517 11.9029 8.63049 11.8251 8.63049L11.8251 8.13049ZM11.7898 8.12347C11.801 8.1281 11.813 8.13049 11.8251 8.13049L11.8251 8.63049C11.7474 8.63049 11.6703 8.61517 11.5985 8.58541L11.7898 8.12347ZM11.7599 8.10347C11.7685 8.11204 11.7786 8.11883 11.7898 8.12347L11.5985 8.58541C11.5266 8.55565 11.4614 8.51202 11.4064 8.45703L11.7599 8.10347ZM9.62311 5.96667L11.7599 8.10348L11.4064 8.45703L9.26955 6.32022L9.62311 5.96667ZM9.19633 13.0523L9.19633 6.14345L9.69633 6.14345L9.69633 13.0523L9.19633 13.0523ZM9.16933 13.1175C9.18662 13.1002 9.19633 13.0768 9.19633 13.0523L9.69633 13.0523C9.69633 13.2094 9.63394 13.36 9.52288 13.4711L9.16933 13.1175ZM9.10414 13.1445C9.12859 13.1445 9.15204 13.1348 9.16933 13.1175L9.52288 13.4711C9.41183 13.5821 9.2612 13.6445 9.10414 13.6445L9.10414 13.1445ZM9.03896 13.1175C9.05625 13.1348 9.07969 13.1445 9.10414 13.1445L9.10414 13.6445C8.94709 13.6445 8.79646 13.5821 8.6854 13.4711L9.03896 13.1175ZM9.01196 13.0523C9.01196 13.0768 9.02167 13.1002 9.03896 13.1175L8.6854 13.4711C8.57435 13.36 8.51196 13.2094 8.51196 13.0523L9.01196 13.0523ZM9.01196 6.14292L9.01196 13.0523L8.51196 13.0523L8.51196 6.14292L9.01196 6.14292ZM6.44559 8.10338L8.58528 5.96605L8.93864 6.31979L6.79894 8.45713L6.44559 8.10338ZM6.39826 8.12874C6.41615 8.12518 6.43257 8.1164 6.44547 8.1035L6.79907 8.45701C6.71625 8.53985 6.61072 8.59626 6.49583 8.61912L6.39826 8.12874ZM6.34499 8.12349C6.36184 8.13047 6.38038 8.13229 6.39826 8.12874L6.49583 8.61912C6.38094 8.64198 6.26186 8.63026 6.15364 8.58542L6.34499 8.12349ZM6.30362 8.08953C6.31375 8.10469 6.32815 8.11651 6.34499 8.12349L6.15364 8.58542C6.04541 8.54059 5.95292 8.46467 5.88785 8.36727L6.30362 8.08953Z"
		fill="#fff"></path>
	<path
		d="M16.7349 8.99906C16.7349 13.271 13.2718 16.7341 8.99992 16.7341C4.72799 16.7341 1.26492 13.271 1.26492 8.99906C1.26492 4.72714 4.72799 1.26406 8.99992 1.26406C13.2718 1.26406 16.7349 4.72714 16.7349 8.99906Z"
		stroke="#fff" stroke-width="1.2"></path>
</svg>