<svg class="wh-32px hover:bg-main-color cursor-pointer rounded-full" width="18" height="18" viewBox="0 0 18 18" fill="none" xmlns="http://www.w3.org/2000/svg"><path fill-rule="evenodd" clip-rule="evenodd" d="M6.09573 9.99816C6.05814 10.0544 6.03807 10.1206 6.03809 10.1883C6.03838 10.2334 6.04762 10.2781 6.06529 10.3196C6.08296 10.3612 6.1087 10.3988 6.14102 10.4303L9.10407 13.3928L12.0671 10.4303C12.0989 10.3985 12.1241 10.3608 12.1413 10.3193C12.1585 10.2777 12.1674 10.2332 12.1674 10.1883C12.1674 10.1434 12.1585 10.0989 12.1413 10.0573C12.1241 10.0158 12.0989 9.97809 12.0671 9.94631C12.0353 9.91453 11.9976 9.88932 11.9561 9.87212C11.9146 9.85493 11.8701 9.84607 11.8251 9.84607C11.7802 9.84607 11.7357 9.85493 11.6942 9.87212C11.6526 9.88932 11.6149 9.91453 11.5831 9.94631L9.44633 12.0831L9.44633 5.17422C9.44633 5.08346 9.41028 4.99643 9.34611 4.93225C9.28193 4.86808 9.1949 4.83203 9.10414 4.83203C9.01339 4.83203 8.92635 4.86808 8.86218 4.93225C8.79801 4.99643 8.76196 5.08346 8.76196 5.17422L8.76196 12.0836L6.62227 9.94631C6.57441 9.89844 6.51343 9.86584 6.44705 9.85263C6.38066 9.83942 6.31185 9.8462 6.24931 9.87211C6.18678 9.89801 6.13333 9.94188 6.09573 9.99816Z" fill="currentColor"></path><path d="M6.03809 10.1883L5.78808 10.1884L5.78809 10.1899L6.03809 10.1883ZM6.09573 9.99816L5.88785 9.85929L5.88785 9.85929L6.09573 9.99816ZM6.14102 10.4303L6.31779 10.2535L6.31557 10.2513L6.14102 10.4303ZM9.10407 13.3928L8.92731 13.5696L9.10407 13.7463L9.28083 13.5696L9.10407 13.3928ZM12.0671 10.4303L12.2439 10.6071L12.2439 10.6071L12.0671 10.4303ZM12.1413 10.3193L12.3723 10.4149L12.3723 10.4149L12.1413 10.3193ZM12.1413 10.0573L12.3723 9.96167L12.3723 9.96167L12.1413 10.0573ZM12.0671 9.94631L12.2439 9.76953L12.2439 9.76953L12.0671 9.94631ZM11.9561 9.87212L11.8604 10.1031L11.8604 10.1031L11.9561 9.87212ZM11.6942 9.87212L11.7898 10.1031L11.7898 10.1031L11.6942 9.87212ZM11.5831 9.94631L11.4064 9.76953L11.4064 9.76953L11.5831 9.94631ZM9.44633 12.0831L9.19633 12.0831L9.19633 12.6867L9.62311 12.2599L9.44633 12.0831ZM9.44633 5.17422L9.19633 5.17422L9.44633 5.17422ZM9.34611 4.93225L9.52288 4.75548L9.52288 4.75548L9.34611 4.93225ZM8.76196 12.0836L8.58528 12.2605L9.01196 12.6867L9.01196 12.0836L8.76196 12.0836ZM6.62227 9.94631L6.44547 10.1231L6.44559 10.1232L6.62227 9.94631ZM6.44705 9.85263L6.49583 9.60744L6.49583 9.60744L6.44705 9.85263ZM6.24931 9.87211L6.34499 10.1031L6.34499 10.1031L6.24931 9.87211ZM6.28809 10.1883C6.28808 10.17 6.29349 10.1522 6.30362 10.137L5.88785 9.85929C5.82278 9.9567 5.78806 10.0712 5.78809 10.1884L6.28809 10.1883ZM6.29535 10.2218C6.29063 10.2107 6.28816 10.1988 6.28808 10.1867L5.78809 10.1899C5.78859 10.2681 5.80462 10.3455 5.83524 10.4175L6.29535 10.2218ZM6.31557 10.2513C6.30694 10.2429 6.30007 10.2329 6.29535 10.2218L5.83524 10.4175C5.86586 10.4895 5.91046 10.5546 5.96646 10.6093L6.31557 10.2513ZM9.28083 13.216L6.31778 10.2535L5.96426 10.6071L8.92731 13.5696L9.28083 13.216ZM11.8904 10.2535L8.92731 13.216L9.28083 13.5696L12.2439 10.6071L11.8904 10.2535ZM11.9103 10.2236C11.9057 10.2348 11.8989 10.245 11.8903 10.2535L12.2439 10.6071C12.2989 10.5521 12.3425 10.4868 12.3723 10.4149L11.9103 10.2236ZM11.9174 10.1883C11.9174 10.2004 11.915 10.2124 11.9103 10.2236L12.3723 10.4149C12.402 10.3431 12.4174 10.2661 12.4174 10.1883L11.9174 10.1883ZM11.9103 10.153C11.915 10.1642 11.9174 10.1762 11.9174 10.1883L12.4174 10.1883C12.4174 10.1105 12.402 10.0335 12.3723 9.96167L11.9103 10.153ZM11.8903 10.1231C11.8989 10.1317 11.9057 10.1418 11.9103 10.153L12.3723 9.96167C12.3425 9.88981 12.2989 9.82453 12.2439 9.76953L11.8903 10.1231ZM11.8604 10.1031C11.8716 10.1077 11.8818 10.1145 11.8903 10.1231L12.2439 9.76953C12.1889 9.71454 12.1236 9.67092 12.0518 9.64115L11.8604 10.1031ZM11.8251 10.0961C11.8372 10.0961 11.8492 10.0985 11.8604 10.1031L12.0518 9.64116C11.9799 9.61139 11.9029 9.59607 11.8251 9.59607L11.8251 10.0961ZM11.7898 10.1031C11.801 10.0985 11.813 10.0961 11.8251 10.0961L11.8251 9.59607C11.7474 9.59607 11.6703 9.61139 11.5985 9.64116L11.7898 10.1031ZM11.7599 10.1231C11.7685 10.1145 11.7786 10.1077 11.7898 10.1031L11.5985 9.64115C11.5266 9.67092 11.4614 9.71454 11.4064 9.76953L11.7599 10.1231ZM9.62311 12.2599L11.7599 10.1231L11.4064 9.76953L9.26955 11.9063L9.62311 12.2599ZM9.19633 5.17422L9.19633 12.0831L9.69633 12.0831L9.69633 5.17422L9.19633 5.17422ZM9.16933 5.10903C9.18662 5.12632 9.19633 5.14977 9.19633 5.17422L9.69633 5.17422C9.69633 5.01716 9.63394 4.86653 9.52288 4.75548L9.16933 5.10903ZM9.10414 5.08203C9.12859 5.08203 9.15204 5.09174 9.16933 5.10903L9.52288 4.75548C9.41183 4.64442 9.2612 4.58203 9.10414 4.58203L9.10414 5.08203ZM9.03896 5.10903C9.05625 5.09174 9.07969 5.08203 9.10414 5.08203L9.10414 4.58203C8.94709 4.58203 8.79646 4.64442 8.6854 4.75548L9.03896 5.10903ZM9.01196 5.17422C9.01196 5.14977 9.02167 5.12632 9.03896 5.10903L8.6854 4.75548C8.57435 4.86653 8.51196 5.01716 8.51196 5.17422L9.01196 5.17422ZM9.01196 12.0836L9.01196 5.17422L8.51196 5.17422L8.51196 12.0836L9.01196 12.0836ZM6.44559 10.1232L8.58528 12.2605L8.93864 11.9068L6.79894 9.76944L6.44559 10.1232ZM6.39826 10.0978C6.41615 10.1014 6.43257 10.1102 6.44547 10.1231L6.79907 9.76956C6.71625 9.68672 6.61072 9.6303 6.49583 9.60744L6.39826 10.0978ZM6.34499 10.1031C6.36184 10.0961 6.38038 10.0943 6.39826 10.0978L6.49583 9.60744C6.38094 9.58458 6.26186 9.59631 6.15364 9.64114L6.34499 10.1031ZM6.30362 10.137C6.31375 10.1219 6.32815 10.1101 6.34499 10.1031L6.15364 9.64114C6.04541 9.68597 5.95292 9.76189 5.88785 9.85929L6.30362 10.137Z" fill="currentColor"></path><path d="M16.7349 8.99906C16.7349 13.271 13.2718 16.7341 8.99992 16.7341C4.72799 16.7341 1.26492 13.271 1.26492 8.99906C1.26492 4.72714 4.72799 1.26406 8.99992 1.26406C13.2718 1.26406 16.7349 4.72714 16.7349 8.99906Z" stroke="currentColor" stroke-width="1.2"></path></svg>